<?xml version="1.0" encoding="utf-8" standalone="no"?>
<!DOCTYPE svg PUBLIC "-//W3C//DTD SVG 1.1//EN"
  "http://www.w3.org/Graphics/SVG/1.1/DTD/svg11.dtd">
<svg xmlns:xlink="http://www.w3.org/1999/xlink" width="460.8pt" height="345.6pt" viewBox="0 0 460.8 345.6" xmlns="http://www.w3.org/2000/svg" version="1.1">
 <metadata>
  <rdf:RDF xmlns:dc="http://purl.org/dc/elements/1.1/" xmlns:cc="http://creativecommons.org/ns#" xmlns:rdf="http://www.w3.org/1999/02/22-rdf-syntax-ns#">
   <cc:Work>
    <dc:type rdf:resource="http://purl.org/dc/dcmitype/StillImage"/>
    <dc:date>2024-10-15T12:50:19.907372</dc:date>
    <dc:format>image/svg+xml</dc:format>
    <dc:creator>
     <cc:Agent>
      <dc:title>Matplotlib v3.9.2, https://matplotlib.org/</dc:title>
     </cc:Agent>
    </dc:creator>
   </cc:Work>
  </rdf:RDF>
 </metadata>
 <defs>
  <style type="text/css">*{stroke-linejoin: round; stroke-linecap: butt}</style>
 </defs>
 <g id="figure_1">
  <g id="patch_1">
   <path d="M 0 345.6 
L 460.8 345.6 
L 460.8 0 
L 0 0 
z
" style="fill: #ffffff"/>
  </g>
  <g id="axes_1">
   <g id="patch_2">
    <path d="M 0 293.76 
L 460.8 293.76 
L 460.8 3.456 
L 0 3.456 
z
" style="fill: #ffffff"/>
   </g>
   <g id="matplotlib.axis_1">
    <g id="xtick_1">
     <g id="line2d_1">
      <path d="M 87.880593 293.76 
L 87.880593 3.456 
" clip-path="url(#p4f8e020883)" style="fill: none; stroke: #b0b0b0; stroke-width: 0.8; stroke-linecap: square"/>
     </g>
     <g id="line2d_2">
      <defs>
       <path id="m074d2097ce" d="M 0 0 
L 0 3.5 
" style="stroke: #000000; stroke-width: 0.8"/>
      </defs>
      <g>
       <use xlink:href="#m074d2097ce" x="87.880593" y="293.76" style="stroke: #000000; stroke-width: 0.8"/>
      </g>
     </g>
     <g id="text_1">
      <!-- -6 -->
      <g transform="translate(77.91028 315.956875) scale(0.2 -0.2)">
       <defs>
        <path id="DejaVuSans-2d" d="M 313 2009 
L 1997 2009 
L 1997 1497 
L 313 1497 
L 313 2009 
z
" transform="scale(0.015625)"/>
        <path id="DejaVuSans-36" d="M 2113 2584 
Q 1688 2584 1439 2293 
Q 1191 2003 1191 1497 
Q 1191 994 1439 701 
Q 1688 409 2113 409 
Q 2538 409 2786 701 
Q 3034 994 3034 1497 
Q 3034 2003 2786 2293 
Q 2538 2584 2113 2584 
z
M 3366 4563 
L 3366 3988 
Q 3128 4100 2886 4159 
Q 2644 4219 2406 4219 
Q 1781 4219 1451 3797 
Q 1122 3375 1075 2522 
Q 1259 2794 1537 2939 
Q 1816 3084 2150 3084 
Q 2853 3084 3261 2657 
Q 3669 2231 3669 1497 
Q 3669 778 3244 343 
Q 2819 -91 2113 -91 
Q 1303 -91 875 529 
Q 447 1150 447 2328 
Q 447 3434 972 4092 
Q 1497 4750 2381 4750 
Q 2619 4750 2861 4703 
Q 3103 4656 3366 4563 
z
" transform="scale(0.015625)"/>
       </defs>
       <use xlink:href="#DejaVuSans-2d"/>
       <use xlink:href="#DejaVuSans-36" x="36.083984"/>
      </g>
     </g>
    </g>
    <g id="xtick_2">
     <g id="line2d_3">
      <path d="M 175.951479 293.76 
L 175.951479 3.456 
" clip-path="url(#p4f8e020883)" style="fill: none; stroke: #b0b0b0; stroke-width: 0.8; stroke-linecap: square"/>
     </g>
     <g id="line2d_4">
      <g>
       <use xlink:href="#m074d2097ce" x="175.951479" y="293.76" style="stroke: #000000; stroke-width: 0.8"/>
      </g>
     </g>
     <g id="text_2">
      <!-- -4 -->
      <g transform="translate(165.981167 315.956875) scale(0.2 -0.2)">
       <defs>
        <path id="DejaVuSans-34" d="M 2419 4116 
L 825 1625 
L 2419 1625 
L 2419 4116 
z
M 2253 4666 
L 3047 4666 
L 3047 1625 
L 3713 1625 
L 3713 1100 
L 3047 1100 
L 3047 0 
L 2419 0 
L 2419 1100 
L 313 1100 
L 313 1709 
L 2253 4666 
z
" transform="scale(0.015625)"/>
       </defs>
       <use xlink:href="#DejaVuSans-2d"/>
       <use xlink:href="#DejaVuSans-34" x="36.083984"/>
      </g>
     </g>
    </g>
    <g id="xtick_3">
     <g id="line2d_5">
      <path d="M 264.022366 293.76 
L 264.022366 3.456 
" clip-path="url(#p4f8e020883)" style="fill: none; stroke: #b0b0b0; stroke-width: 0.8; stroke-linecap: square"/>
     </g>
     <g id="line2d_6">
      <g>
       <use xlink:href="#m074d2097ce" x="264.022366" y="293.76" style="stroke: #000000; stroke-width: 0.8"/>
      </g>
     </g>
     <g id="text_3">
      <!-- -2 -->
      <g transform="translate(254.052054 315.956875) scale(0.2 -0.2)">
       <defs>
        <path id="DejaVuSans-32" d="M 1228 531 
L 3431 531 
L 3431 0 
L 469 0 
L 469 531 
Q 828 903 1448 1529 
Q 2069 2156 2228 2338 
Q 2531 2678 2651 2914 
Q 2772 3150 2772 3378 
Q 2772 3750 2511 3984 
Q 2250 4219 1831 4219 
Q 1534 4219 1204 4116 
Q 875 4013 500 3803 
L 500 4441 
Q 881 4594 1212 4672 
Q 1544 4750 1819 4750 
Q 2544 4750 2975 4387 
Q 3406 4025 3406 3419 
Q 3406 3131 3298 2873 
Q 3191 2616 2906 2266 
Q 2828 2175 2409 1742 
Q 1991 1309 1228 531 
z
" transform="scale(0.015625)"/>
       </defs>
       <use xlink:href="#DejaVuSans-2d"/>
       <use xlink:href="#DejaVuSans-32" x="36.083984"/>
      </g>
     </g>
    </g>
    <g id="xtick_4">
     <g id="line2d_7">
      <path d="M 352.093253 293.76 
L 352.093253 3.456 
" clip-path="url(#p4f8e020883)" style="fill: none; stroke: #b0b0b0; stroke-width: 0.8; stroke-linecap: square"/>
     </g>
     <g id="line2d_8">
      <g>
       <use xlink:href="#m074d2097ce" x="352.093253" y="293.76" style="stroke: #000000; stroke-width: 0.8"/>
      </g>
     </g>
     <g id="text_4">
      <!-- 0 -->
      <g transform="translate(345.730753 315.956875) scale(0.2 -0.2)">
       <defs>
        <path id="DejaVuSans-30" d="M 2034 4250 
Q 1547 4250 1301 3770 
Q 1056 3291 1056 2328 
Q 1056 1369 1301 889 
Q 1547 409 2034 409 
Q 2525 409 2770 889 
Q 3016 1369 3016 2328 
Q 3016 3291 2770 3770 
Q 2525 4250 2034 4250 
z
M 2034 4750 
Q 2819 4750 3233 4129 
Q 3647 3509 3647 2328 
Q 3647 1150 3233 529 
Q 2819 -91 2034 -91 
Q 1250 -91 836 529 
Q 422 1150 422 2328 
Q 422 3509 836 4129 
Q 1250 4750 2034 4750 
z
" transform="scale(0.015625)"/>
       </defs>
       <use xlink:href="#DejaVuSans-30"/>
      </g>
     </g>
    </g>
    <g id="xtick_5">
     <g id="line2d_9">
      <path d="M 440.164139 293.76 
L 440.164139 3.456 
" clip-path="url(#p4f8e020883)" style="fill: none; stroke: #b0b0b0; stroke-width: 0.8; stroke-linecap: square"/>
     </g>
     <g id="line2d_10">
      <g>
       <use xlink:href="#m074d2097ce" x="440.164139" y="293.76" style="stroke: #000000; stroke-width: 0.8"/>
      </g>
     </g>
     <g id="text_5">
      <!-- 2 -->
      <g transform="translate(433.801639 315.956875) scale(0.2 -0.2)">
       <use xlink:href="#DejaVuSans-32"/>
      </g>
     </g>
    </g>
    <g id="text_6">
     <!-- log10 of Df -->
     <g transform="translate(175.214063 339.313125) scale(0.2 -0.2)">
      <defs>
       <path id="DejaVuSans-6c" d="M 603 4863 
L 1178 4863 
L 1178 0 
L 603 0 
L 603 4863 
z
" transform="scale(0.015625)"/>
       <path id="DejaVuSans-6f" d="M 1959 3097 
Q 1497 3097 1228 2736 
Q 959 2375 959 1747 
Q 959 1119 1226 758 
Q 1494 397 1959 397 
Q 2419 397 2687 759 
Q 2956 1122 2956 1747 
Q 2956 2369 2687 2733 
Q 2419 3097 1959 3097 
z
M 1959 3584 
Q 2709 3584 3137 3096 
Q 3566 2609 3566 1747 
Q 3566 888 3137 398 
Q 2709 -91 1959 -91 
Q 1206 -91 779 398 
Q 353 888 353 1747 
Q 353 2609 779 3096 
Q 1206 3584 1959 3584 
z
" transform="scale(0.015625)"/>
       <path id="DejaVuSans-67" d="M 2906 1791 
Q 2906 2416 2648 2759 
Q 2391 3103 1925 3103 
Q 1463 3103 1205 2759 
Q 947 2416 947 1791 
Q 947 1169 1205 825 
Q 1463 481 1925 481 
Q 2391 481 2648 825 
Q 2906 1169 2906 1791 
z
M 3481 434 
Q 3481 -459 3084 -895 
Q 2688 -1331 1869 -1331 
Q 1566 -1331 1297 -1286 
Q 1028 -1241 775 -1147 
L 775 -588 
Q 1028 -725 1275 -790 
Q 1522 -856 1778 -856 
Q 2344 -856 2625 -561 
Q 2906 -266 2906 331 
L 2906 616 
Q 2728 306 2450 153 
Q 2172 0 1784 0 
Q 1141 0 747 490 
Q 353 981 353 1791 
Q 353 2603 747 3093 
Q 1141 3584 1784 3584 
Q 2172 3584 2450 3431 
Q 2728 3278 2906 2969 
L 2906 3500 
L 3481 3500 
L 3481 434 
z
" transform="scale(0.015625)"/>
       <path id="DejaVuSans-31" d="M 794 531 
L 1825 531 
L 1825 4091 
L 703 3866 
L 703 4441 
L 1819 4666 
L 2450 4666 
L 2450 531 
L 3481 531 
L 3481 0 
L 794 0 
L 794 531 
z
" transform="scale(0.015625)"/>
       <path id="DejaVuSans-20" transform="scale(0.015625)"/>
       <path id="DejaVuSans-66" d="M 2375 4863 
L 2375 4384 
L 1825 4384 
Q 1516 4384 1395 4259 
Q 1275 4134 1275 3809 
L 1275 3500 
L 2222 3500 
L 2222 3053 
L 1275 3053 
L 1275 0 
L 697 0 
L 697 3053 
L 147 3053 
L 147 3500 
L 697 3500 
L 697 3744 
Q 697 4328 969 4595 
Q 1241 4863 1831 4863 
L 2375 4863 
z
" transform="scale(0.015625)"/>
       <path id="DejaVuSans-44" d="M 1259 4147 
L 1259 519 
L 2022 519 
Q 2988 519 3436 956 
Q 3884 1394 3884 2338 
Q 3884 3275 3436 3711 
Q 2988 4147 2022 4147 
L 1259 4147 
z
M 628 4666 
L 1925 4666 
Q 3281 4666 3915 4102 
Q 4550 3538 4550 2338 
Q 4550 1131 3912 565 
Q 3275 0 1925 0 
L 628 0 
L 628 4666 
z
" transform="scale(0.015625)"/>
      </defs>
      <use xlink:href="#DejaVuSans-6c"/>
      <use xlink:href="#DejaVuSans-6f" x="27.783203"/>
      <use xlink:href="#DejaVuSans-67" x="88.964844"/>
      <use xlink:href="#DejaVuSans-31" x="152.441406"/>
      <use xlink:href="#DejaVuSans-30" x="216.064453"/>
      <use xlink:href="#DejaVuSans-20" x="279.6875"/>
      <use xlink:href="#DejaVuSans-6f" x="311.474609"/>
      <use xlink:href="#DejaVuSans-66" x="372.65625"/>
      <use xlink:href="#DejaVuSans-20" x="407.861328"/>
      <use xlink:href="#DejaVuSans-44" x="439.648438"/>
      <use xlink:href="#DejaVuSans-66" x="516.650391"/>
     </g>
    </g>
   </g>
   <g id="matplotlib.axis_2">
    <g id="ytick_1">
     <g id="line2d_11">
      <path d="M 0 293.76 
L 460.8 293.76 
" clip-path="url(#p4f8e020883)" style="fill: none; stroke: #b0b0b0; stroke-width: 0.8; stroke-linecap: square"/>
     </g>
     <g id="line2d_12">
      <defs>
       <path id="md899bd2e9b" d="M 0 0 
L -3.5 0 
" style="stroke: #000000; stroke-width: 0.8"/>
      </defs>
      <g>
       <use xlink:href="#md899bd2e9b" x="0" y="293.76" style="stroke: #000000; stroke-width: 0.8"/>
      </g>
     </g>
    </g>
    <g id="ytick_2">
     <g id="line2d_13">
      <path d="M 0 236.274059 
L 460.8 236.274059 
" clip-path="url(#p4f8e020883)" style="fill: none; stroke: #b0b0b0; stroke-width: 0.8; stroke-linecap: square"/>
     </g>
     <g id="line2d_14">
      <g>
       <use xlink:href="#md899bd2e9b" x="0" y="236.274059" style="stroke: #000000; stroke-width: 0.8"/>
      </g>
     </g>
    </g>
    <g id="ytick_3">
     <g id="line2d_15">
      <path d="M 0 178.788119 
L 460.8 178.788119 
" clip-path="url(#p4f8e020883)" style="fill: none; stroke: #b0b0b0; stroke-width: 0.8; stroke-linecap: square"/>
     </g>
     <g id="line2d_16">
      <g>
       <use xlink:href="#md899bd2e9b" x="0" y="178.788119" style="stroke: #000000; stroke-width: 0.8"/>
      </g>
     </g>
    </g>
    <g id="ytick_4">
     <g id="line2d_17">
      <path d="M 0 121.302178 
L 460.8 121.302178 
" clip-path="url(#p4f8e020883)" style="fill: none; stroke: #b0b0b0; stroke-width: 0.8; stroke-linecap: square"/>
     </g>
     <g id="line2d_18">
      <g>
       <use xlink:href="#md899bd2e9b" x="0" y="121.302178" style="stroke: #000000; stroke-width: 0.8"/>
      </g>
     </g>
    </g>
    <g id="ytick_5">
     <g id="line2d_19">
      <path d="M 0 63.816238 
L 460.8 63.816238 
" clip-path="url(#p4f8e020883)" style="fill: none; stroke: #b0b0b0; stroke-width: 0.8; stroke-linecap: square"/>
     </g>
     <g id="line2d_20">
      <g>
       <use xlink:href="#md899bd2e9b" x="0" y="63.816238" style="stroke: #000000; stroke-width: 0.8"/>
      </g>
     </g>
    </g>
    <g id="ytick_6">
     <g id="line2d_21">
      <path d="M 0 6.330297 
L 460.8 6.330297 
" clip-path="url(#p4f8e020883)" style="fill: none; stroke: #b0b0b0; stroke-width: 0.8; stroke-linecap: square"/>
     </g>
     <g id="line2d_22">
      <g>
       <use xlink:href="#md899bd2e9b" x="0" y="6.330297" style="stroke: #000000; stroke-width: 0.8"/>
      </g>
     </g>
    </g>
   </g>
   <g id="line2d_23">
    <path d="M 431.055815 293.76 
L 431.055815 274.59802 
L 431.969164 274.59802 
L 431.969164 255.43604 
L 433.612664 255.43604 
L 433.612664 236.274059 
L 434.230695 236.274059 
L 434.230695 217.112079 
L 434.54085 217.112079 
L 434.54085 197.950099 
L 436.090976 197.950099 
L 436.090976 178.788119 
L 438.97372 178.788119 
L 438.97372 159.626139 
L 439.605832 159.626139 
L 439.605832 140.464158 
L 441.179089 140.464158 
L 441.179089 121.302178 
L 441.814277 121.302178 
L 441.814277 102.140198 
L 442.318635 102.140198 
L 442.318635 82.978218 
L 443.458354 82.978218 
L 443.458354 63.816238 
L 444.141561 63.816238 
L 444.141561 44.654257 
L 445.332569 44.654257 
L 445.332569 25.492277 
L 446.461731 25.492277 
L 446.461731 6.330297 
L 446.461731 6.330297 
L 446.461731 6.330297 
L 460.8 6.330297 
" clip-path="url(#p4f8e020883)" style="fill: none; stroke: #ff0000; stroke-width: 3; stroke-linecap: square"/>
   </g>
   <g id="line2d_24">
    <path d="M 450.442354 293.76 
L 450.442354 274.59802 
L 450.724072 274.59802 
L 450.724072 255.43604 
L 452.74692 255.43604 
L 452.74692 236.274059 
L 453.692169 236.274059 
L 453.692169 217.112079 
L 454.955094 217.112079 
L 454.955094 197.950099 
L 455.861373 197.950099 
L 455.861373 178.788119 
L 455.902294 178.788119 
L 455.902294 159.626139 
L 456.022299 159.626139 
L 456.022299 140.464158 
L 456.689017 140.464158 
L 456.689017 121.302178 
L 456.717613 121.302178 
L 456.717613 102.140198 
L 456.889038 102.140198 
L 456.889038 82.978218 
L 457.218288 82.978218 
L 457.218288 63.816238 
L 457.451945 63.816238 
L 457.451945 44.654257 
L 457.660022 44.654257 
L 457.660022 25.492277 
L 459.38361 25.492277 
L 459.38361 6.330297 
L 459.38361 6.330297 
L 459.38361 6.330297 
L 460.8 6.330297 
" clip-path="url(#p4f8e020883)" style="fill: none; stroke: #00bfbf; stroke-width: 1.5; stroke-linecap: square"/>
   </g>
   <g id="line2d_25">
    <path d="M 449.270594 293.76 
L 449.270594 274.59802 
L 450.439141 274.59802 
L 450.439141 255.43604 
L 450.442354 255.43604 
L 450.442354 236.274059 
L 451.0417 236.274059 
L 451.0417 217.112079 
L 453.692169 217.112079 
L 453.692169 197.950099 
L 454.216766 197.950099 
L 454.216766 178.788119 
L 454.652439 178.788119 
L 454.652439 159.626139 
L 455.198561 159.626139 
L 455.198561 140.464158 
L 455.365605 140.464158 
L 455.365605 121.302178 
L 455.473464 121.302178 
L 455.473464 102.140198 
L 455.902294 102.140198 
L 455.902294 82.978218 
L 456.717613 82.978218 
L 456.717613 63.816238 
L 457.218288 63.816238 
L 457.218288 44.654257 
L 457.654895 44.654257 
L 457.654895 25.492277 
L 459.38361 25.492277 
L 459.38361 6.330297 
L 459.38361 6.330297 
L 459.38361 6.330297 
L 460.8 6.330297 
" clip-path="url(#p4f8e020883)" style="fill: none; stroke: #bf00bf; stroke-width: 1.5; stroke-linecap: square"/>
   </g>
   <g id="line2d_26">
    <path d="M 449.270594 293.76 
L 449.270594 274.59802 
L 450.439141 274.59802 
L 450.439141 255.43604 
L 450.442354 255.43604 
L 450.442354 236.274059 
L 451.0417 236.274059 
L 451.0417 217.112079 
L 451.902661 217.112079 
L 451.902661 197.950099 
L 452.166132 197.950099 
L 452.166132 178.788119 
L 452.592865 178.788119 
L 452.592865 159.626139 
L 453.703648 159.626139 
L 453.703648 140.464158 
L 453.877746 140.464158 
L 453.877746 121.302178 
L 454.113446 121.302178 
L 454.113446 102.140198 
L 454.216766 102.140198 
L 454.216766 82.978218 
L 454.673702 82.978218 
L 454.673702 63.816238 
L 455.473464 63.816238 
L 455.473464 44.654257 
L 455.902294 44.654257 
L 455.902294 25.492277 
L 456.774295 25.492277 
L 456.774295 6.330297 
L 456.774295 6.330297 
L 456.774295 6.330297 
L 460.8 6.330297 
" clip-path="url(#p4f8e020883)" style="fill: none; stroke: #000000; stroke-width: 1.5; stroke-linecap: square"/>
   </g>
   <g id="line2d_27">
    <path d="M 448.170094 293.76 
L 448.170094 274.59802 
L 448.182319 274.59802 
L 448.182319 255.43604 
L 448.294015 255.43604 
L 448.294015 236.274059 
L 449.365871 236.274059 
L 449.365871 217.112079 
L 450.442354 217.112079 
L 450.442354 197.950099 
L 450.579656 197.950099 
L 450.579656 178.788119 
L 451.537673 178.788119 
L 451.537673 159.626139 
L 452.015275 159.626139 
L 452.015275 140.464158 
L 453.09006 140.464158 
L 453.09006 121.302178 
L 453.287088 121.302178 
L 453.287088 102.140198 
L 453.703648 102.140198 
L 453.703648 82.978218 
L 453.877746 82.978218 
L 453.877746 63.816238 
L 454.204724 63.816238 
L 454.204724 44.654257 
L 454.216766 44.654257 
L 454.216766 25.492277 
L 456.774295 25.492277 
L 456.774295 6.330297 
L 456.774295 6.330297 
L 456.774295 6.330297 
L 460.8 6.330297 
" clip-path="url(#p4f8e020883)" style="fill: none; stroke: #00bfbf; stroke-width: 1.5; stroke-linecap: square"/>
   </g>
   <g id="line2d_28">
    <path d="M 438.996814 293.76 
L 438.996814 274.59802 
L 439.121009 274.59802 
L 439.121009 255.43604 
L 440.286691 255.43604 
L 440.286691 236.274059 
L 443.025959 236.274059 
L 443.025959 217.112079 
L 443.09747 217.112079 
L 443.09747 197.950099 
L 444.963155 197.950099 
L 444.963155 178.788119 
L 445.003416 178.788119 
L 445.003416 159.626139 
L 445.155758 159.626139 
L 445.155758 140.464158 
L 448.005177 140.464158 
L 448.005177 121.302178 
L 448.549468 121.302178 
L 448.549468 102.140198 
L 448.796203 102.140198 
L 448.796203 82.978218 
L 449.156581 82.978218 
L 449.156581 63.816238 
L 449.852813 63.816238 
L 449.852813 44.654257 
L 451.770211 44.654257 
L 451.770211 25.492277 
L 452.066897 25.492277 
L 452.066897 6.330297 
L 452.066897 6.330297 
L 452.066897 6.330297 
L 460.8 6.330297 
" clip-path="url(#p4f8e020883)" style="fill: none; stroke: #bf00bf; stroke-width: 1.5; stroke-linecap: square"/>
   </g>
   <g id="line2d_29">
    <path d="M 431.055815 293.76 
L 431.055815 274.59802 
L 431.969164 274.59802 
L 431.969164 255.43604 
L 433.612664 255.43604 
L 433.612664 236.274059 
L 434.230695 236.274059 
L 434.230695 217.112079 
L 434.54085 217.112079 
L 434.54085 197.950099 
L 436.090976 197.950099 
L 436.090976 178.788119 
L 438.97372 178.788119 
L 438.97372 159.626139 
L 439.605832 159.626139 
L 439.605832 140.464158 
L 441.179089 140.464158 
L 441.179089 121.302178 
L 441.814277 121.302178 
L 441.814277 102.140198 
L 442.318635 102.140198 
L 442.318635 82.978218 
L 444.020146 82.978218 
L 444.020146 63.816238 
L 444.141561 63.816238 
L 444.141561 44.654257 
L 445.332569 44.654257 
L 445.332569 25.492277 
L 446.461731 25.492277 
L 446.461731 6.330297 
L 446.461731 6.330297 
L 446.461731 6.330297 
L 460.8 6.330297 
" clip-path="url(#p4f8e020883)" style="fill: none; stroke: #000000; stroke-width: 1.5; stroke-linecap: square"/>
   </g>
   <g id="line2d_30">
    <path d="M 431.055815 293.76 
L 431.055815 274.59802 
L 431.969164 274.59802 
L 431.969164 255.43604 
L 433.612664 255.43604 
L 433.612664 236.274059 
L 434.230695 236.274059 
L 434.230695 217.112079 
L 434.54085 217.112079 
L 434.54085 197.950099 
L 436.090976 197.950099 
L 436.090976 178.788119 
L 438.97372 178.788119 
L 438.97372 159.626139 
L 439.605832 159.626139 
L 439.605832 140.464158 
L 441.179089 140.464158 
L 441.179089 121.302178 
L 441.814277 121.302178 
L 441.814277 102.140198 
L 442.318635 102.140198 
L 442.318635 82.978218 
L 443.458354 82.978218 
L 443.458354 63.816238 
L 444.141561 63.816238 
L 444.141561 44.654257 
L 445.332569 44.654257 
L 445.332569 25.492277 
L 446.461731 25.492277 
L 446.461731 6.330297 
L 446.461731 6.330297 
L 446.461731 6.330297 
L 460.8 6.330297 
" clip-path="url(#p4f8e020883)" style="fill: none; stroke: #00bfbf; stroke-width: 1.5; stroke-linecap: square"/>
   </g>
   <g id="patch_3">
    <path d="M 0 293.76 
L 0 3.456 
" style="fill: none; stroke: #000000; stroke-width: 0.8; stroke-linejoin: miter; stroke-linecap: square"/>
   </g>
   <g id="patch_4">
    <path d="M 460.8 293.76 
L 460.8 3.456 
" style="fill: none; stroke: #000000; stroke-width: 0.8; stroke-linejoin: miter; stroke-linecap: square"/>
   </g>
   <g id="patch_5">
    <path d="M 0 293.76 
L 460.8 293.76 
" style="fill: none; stroke: #000000; stroke-width: 0.8; stroke-linejoin: miter; stroke-linecap: square"/>
   </g>
   <g id="patch_6">
    <path d="M 0 3.456 
L 460.8 3.456 
" style="fill: none; stroke: #000000; stroke-width: 0.8; stroke-linejoin: miter; stroke-linecap: square"/>
   </g>
   <g id="text_7">
    <!-- {f1}, 40-D -->
    <g transform="translate(345.59025 287.95392) scale(0.2 -0.2)">
     <defs>
      <path id="DejaVuSans-7b" d="M 3272 -594 
L 3272 -1044 
L 3078 -1044 
Q 2300 -1044 2036 -812 
Q 1772 -581 1772 109 
L 1772 856 
Q 1772 1328 1603 1509 
Q 1434 1691 991 1691 
L 800 1691 
L 800 2138 
L 991 2138 
Q 1438 2138 1605 2317 
Q 1772 2497 1772 2963 
L 1772 3713 
Q 1772 4403 2036 4633 
Q 2300 4863 3078 4863 
L 3272 4863 
L 3272 4416 
L 3059 4416 
Q 2619 4416 2484 4278 
Q 2350 4141 2350 3700 
L 2350 2925 
Q 2350 2434 2208 2212 
Q 2066 1991 1722 1913 
Q 2069 1828 2209 1606 
Q 2350 1384 2350 897 
L 2350 122 
Q 2350 -319 2484 -456 
Q 2619 -594 3059 -594 
L 3272 -594 
z
" transform="scale(0.015625)"/>
      <path id="DejaVuSans-7d" d="M 800 -594 
L 1019 -594 
Q 1456 -594 1589 -459 
Q 1722 -325 1722 122 
L 1722 897 
Q 1722 1384 1862 1606 
Q 2003 1828 2350 1913 
Q 2003 1991 1862 2212 
Q 1722 2434 1722 2925 
L 1722 3700 
Q 1722 4144 1589 4280 
Q 1456 4416 1019 4416 
L 800 4416 
L 800 4863 
L 997 4863 
Q 1775 4863 2036 4633 
Q 2297 4403 2297 3713 
L 2297 2963 
Q 2297 2497 2465 2317 
Q 2634 2138 3078 2138 
L 3272 2138 
L 3272 1691 
L 3078 1691 
Q 2634 1691 2465 1509 
Q 2297 1328 2297 856 
L 2297 109 
Q 2297 -581 2036 -812 
Q 1775 -1044 997 -1044 
L 800 -1044 
L 800 -594 
z
" transform="scale(0.015625)"/>
      <path id="DejaVuSans-2c" d="M 750 794 
L 1409 794 
L 1409 256 
L 897 -744 
L 494 -744 
L 750 256 
L 750 794 
z
" transform="scale(0.015625)"/>
     </defs>
     <use xlink:href="#DejaVuSans-7b"/>
     <use xlink:href="#DejaVuSans-66" x="63.623047"/>
     <use xlink:href="#DejaVuSans-31" x="98.828125"/>
     <use xlink:href="#DejaVuSans-7d" x="162.451172"/>
     <use xlink:href="#DejaVuSans-2c" x="226.074219"/>
     <use xlink:href="#DejaVuSans-20" x="257.861328"/>
     <use xlink:href="#DejaVuSans-34" x="289.648438"/>
     <use xlink:href="#DejaVuSans-30" x="353.271484"/>
     <use xlink:href="#DejaVuSans-2d" x="416.894531"/>
     <use xlink:href="#DejaVuSans-44" x="452.978516"/>
    </g>
   </g>
   <g id="text_8">
    <!-- v2.6.4 -->
    <g style="fill: #808080" transform="translate(214.71875 288.777272) scale(0.1 -0.1)">
     <defs>
      <path id="DejaVuSans-76" d="M 191 3500 
L 800 3500 
L 1894 563 
L 2988 3500 
L 3597 3500 
L 2284 0 
L 1503 0 
L 191 3500 
z
" transform="scale(0.015625)"/>
      <path id="DejaVuSans-2e" d="M 684 794 
L 1344 794 
L 1344 0 
L 684 0 
L 684 794 
z
" transform="scale(0.015625)"/>
     </defs>
     <use xlink:href="#DejaVuSans-76"/>
     <use xlink:href="#DejaVuSans-32" x="59.179688"/>
     <use xlink:href="#DejaVuSans-2e" x="122.802734"/>
     <use xlink:href="#DejaVuSans-36" x="154.589844"/>
     <use xlink:href="#DejaVuSans-2e" x="218.212891"/>
     <use xlink:href="#DejaVuSans-34" x="250"/>
    </g>
   </g>
  </g>
 </g>
 <defs>
  <clipPath id="p4f8e020883">
   <rect x="0" y="3.456" width="460.8" height="290.304"/>
  </clipPath>
 </defs>
</svg>
