<?xml version="1.0" encoding="utf-8" standalone="no"?>
<!DOCTYPE svg PUBLIC "-//W3C//DTD SVG 1.1//EN"
  "http://www.w3.org/Graphics/SVG/1.1/DTD/svg11.dtd">
<svg xmlns:xlink="http://www.w3.org/1999/xlink" width="460.8pt" height="345.6pt" viewBox="0 0 460.8 345.6" xmlns="http://www.w3.org/2000/svg" version="1.1">
 <metadata>
  <rdf:RDF xmlns:dc="http://purl.org/dc/elements/1.1/" xmlns:cc="http://creativecommons.org/ns#" xmlns:rdf="http://www.w3.org/1999/02/22-rdf-syntax-ns#">
   <cc:Work>
    <dc:type rdf:resource="http://purl.org/dc/dcmitype/StillImage"/>
    <dc:date>2024-10-15T12:50:19.096219</dc:date>
    <dc:format>image/svg+xml</dc:format>
    <dc:creator>
     <cc:Agent>
      <dc:title>Matplotlib v3.9.2, https://matplotlib.org/</dc:title>
     </cc:Agent>
    </dc:creator>
   </cc:Work>
  </rdf:RDF>
 </metadata>
 <defs>
  <style type="text/css">*{stroke-linejoin: round; stroke-linecap: butt}</style>
 </defs>
 <g id="figure_1">
  <g id="patch_1">
   <path d="M 0 345.6 
L 460.8 345.6 
L 460.8 0 
L 0 0 
z
" style="fill: #ffffff"/>
  </g>
  <g id="axes_1">
   <g id="patch_2">
    <path d="M 62.208 293.76 
L 460.8 293.76 
L 460.8 3.456 
L 62.208 3.456 
z
" style="fill: #ffffff"/>
   </g>
   <g id="line2d_1">
    <path d="M 212.597013 293.76 
L 212.597013 274.59802 
L 212.597013 274.59802 
L 212.597013 255.43604 
L 212.597013 255.43604 
L 212.597013 236.274059 
L 212.597013 236.274059 
L 212.597013 217.112079 
L 212.597013 217.112079 
L 212.597013 197.950099 
L 212.597013 197.950099 
L 212.597013 178.788119 
L 212.597013 178.788119 
L 212.597013 159.626139 
L 212.597013 159.626139 
L 212.597013 140.464158 
L 212.597013 140.464158 
L 212.597013 121.302178 
L 212.597013 121.302178 
L 212.597013 102.140198 
L 212.597013 102.140198 
L 212.597013 82.978218 
L 212.597013 82.978218 
L 212.597013 63.816238 
L 212.597013 63.816238 
L 212.597013 44.654257 
L 212.597013 44.654257 
L 212.597013 25.492277 
L 212.597013 25.492277 
L 212.597013 6.330297 
L 212.597013 6.330297 
L 212.597013 6.330297 
L 460.8 6.330297 
" clip-path="url(#p9307a61485)" style="fill: none; stroke: #f5deb3; stroke-width: 1.5; stroke-linecap: square"/>
   </g>
   <g id="line2d_2">
    <path d="M 362.33867 293.76 
L 362.33867 236.274059 
L 363.156177 236.274059 
L 363.156177 178.788119 
L 363.411594 178.788119 
L 363.411594 121.302178 
L 367.742668 121.302178 
L 367.742668 63.816238 
L 369.693687 63.816238 
L 369.693687 6.330297 
L 369.693687 6.330297 
L 369.693687 6.330297 
L 460.8 6.330297 
" clip-path="url(#p9307a61485)" style="fill: none; stroke: #f5deb3; stroke-width: 1.5; stroke-linecap: square"/>
   </g>
   <g id="line2d_3">
    <path d="M 144.524702 293.76 
L 144.524702 274.59802 
L 144.524702 274.59802 
L 144.524702 255.43604 
L 144.524702 255.43604 
L 144.524702 236.274059 
L 144.524702 236.274059 
L 144.524702 217.112079 
L 144.524702 217.112079 
L 144.524702 197.950099 
L 144.524702 197.950099 
L 144.524702 178.788119 
L 144.524702 178.788119 
L 144.524702 159.626139 
L 144.524702 159.626139 
L 144.524702 140.464158 
L 144.524702 140.464158 
L 144.524702 121.302178 
L 145.165848 121.302178 
L 145.165848 102.140198 
L 146.420329 102.140198 
L 146.420329 82.978218 
L 146.420329 82.978218 
L 146.420329 63.816238 
L 146.420329 63.816238 
L 146.420329 44.654257 
L 147.034192 44.654257 
L 147.034192 25.492277 
L 147.034192 25.492277 
L 147.034192 6.330297 
L 147.034192 6.330297 
L 147.034192 6.330297 
L 460.8 6.330297 
" clip-path="url(#p9307a61485)" style="fill: none; stroke: #f5deb3; stroke-width: 1.5; stroke-linecap: square"/>
   </g>
   <g id="line2d_4">
    <path d="M 248.880651 293.76 
L 248.880651 274.59802 
L 249.513277 274.59802 
L 249.513277 255.43604 
L 252.224134 255.43604 
L 252.224134 236.274059 
L 252.384715 236.274059 
L 252.384715 217.112079 
L 252.544703 217.112079 
L 252.544703 197.950099 
L 253.178803 197.950099 
L 253.178803 178.788119 
L 253.335887 178.788119 
L 253.335887 159.626139 
L 253.596433 159.626139 
L 253.596433 140.464158 
L 254.317726 140.464158 
L 254.317726 121.302178 
L 254.419794 121.302178 
L 254.419794 102.140198 
L 255.377614 102.140198 
L 255.377614 82.978218 
L 256.751589 82.978218 
L 256.751589 63.816238 
L 257.895529 63.816238 
L 257.895529 44.654257 
L 257.989507 44.654257 
L 257.989507 25.492277 
L 258.036419 25.492277 
L 258.036419 6.330297 
L 258.036419 6.330297 
L 258.036419 6.330297 
L 460.8 6.330297 
" clip-path="url(#p9307a61485)" style="fill: none; stroke: #f5deb3; stroke-width: 1.5; stroke-linecap: square"/>
   </g>
   <g id="line2d_5">
    <path d="M 377.15134 293.76 
L 377.15134 274.59802 
L 377.339311 274.59802 
L 377.339311 255.43604 
L 377.395841 255.43604 
L 377.395841 236.274059 
L 377.636011 236.274059 
L 377.636011 217.112079 
L 377.742328 217.112079 
L 377.742328 197.950099 
L 377.748226 197.950099 
L 377.748226 178.788119 
L 378.021637 178.788119 
L 378.021637 159.626139 
L 378.354445 159.626139 
L 378.354445 140.464158 
L 378.461914 140.464158 
L 378.461914 121.302178 
L 378.733749 121.302178 
L 378.733749 102.140198 
L 378.768329 102.140198 
L 378.768329 82.978218 
L 378.779849 82.978218 
L 378.779849 63.816238 
L 379.578754 63.816238 
L 379.578754 44.654257 
L 379.80433 44.654257 
L 379.80433 25.492277 
L 379.80433 25.492277 
L 379.80433 25.492277 
L 460.8 25.492277 
" clip-path="url(#p9307a61485)" style="fill: none; stroke: #f5deb3; stroke-width: 1.5; stroke-linecap: square"/>
   </g>
   <g id="line2d_6"/>
   <g id="line2d_7">
    <path d="M 277.164126 293.76 
L 277.164126 274.59802 
L 277.554142 274.59802 
L 277.554142 255.43604 
L 281.217533 255.43604 
L 281.217533 236.274059 
L 281.381874 236.274059 
L 281.381874 217.112079 
L 281.49109 217.112079 
L 281.49109 197.950099 
L 281.572821 197.950099 
L 281.572821 178.788119 
L 281.952204 178.788119 
L 281.952204 159.626139 
L 282.859951 159.626139 
L 282.859951 140.464158 
L 282.991852 140.464158 
L 282.991852 121.302178 
L 283.385159 121.302178 
L 283.385159 102.140198 
L 284.007108 102.140198 
L 284.007108 82.978218 
L 284.263639 82.978218 
L 284.263639 63.816238 
L 284.594871 63.816238 
L 284.594871 44.654257 
L 286.772769 44.654257 
L 286.772769 25.492277 
L 287.013462 25.492277 
L 287.013462 6.330297 
L 287.013462 6.330297 
L 287.013462 6.330297 
L 460.8 6.330297 
" clip-path="url(#p9307a61485)" style="fill: none; stroke: #f5deb3; stroke-width: 1.5; stroke-linecap: square"/>
   </g>
   <g id="line2d_8">
    <path d="M 450.565315 293.76 
L 450.565315 274.59802 
L 451.537291 274.59802 
L 451.537291 255.43604 
L 451.737845 255.43604 
L 451.737845 236.274059 
L 452.065285 236.274059 
L 452.065285 217.112079 
L 453.021602 217.112079 
L 453.021602 197.950099 
L 453.086818 197.950099 
L 453.086818 178.788119 
L 453.143156 178.788119 
L 453.143156 159.626139 
L 453.1571 159.626139 
L 453.1571 140.464158 
L 453.802871 140.464158 
L 453.802871 121.302178 
L 453.834399 121.302178 
L 453.834399 102.140198 
L 453.835924 102.140198 
L 453.835924 82.978218 
L 454.108036 82.978218 
L 454.108036 63.816238 
L 455.201861 63.816238 
L 455.201861 44.654257 
L 455.258956 44.654257 
L 455.258956 25.492277 
L 456.130102 25.492277 
L 456.130102 6.330297 
L 456.130102 6.330297 
L 456.130102 6.330297 
L 460.8 6.330297 
" clip-path="url(#p9307a61485)" style="fill: none; stroke: #f5deb3; stroke-width: 1.5; stroke-linecap: square"/>
   </g>
   <g id="line2d_9">
    <path d="M 274.105099 293.76 
L 274.105099 274.59802 
L 275.033061 274.59802 
L 275.033061 255.43604 
L 275.723993 255.43604 
L 275.723993 236.274059 
L 276.740139 236.274059 
L 276.740139 217.112079 
L 277.133978 217.112079 
L 277.133978 197.950099 
L 277.434511 197.950099 
L 277.434511 178.788119 
L 277.613834 178.788119 
L 277.613834 159.626139 
L 278.323787 159.626139 
L 278.323787 140.464158 
L 278.382428 140.464158 
L 278.382428 121.302178 
L 278.557873 121.302178 
L 278.557873 102.140198 
L 278.935583 102.140198 
L 278.935583 82.978218 
L 278.935583 82.978218 
L 278.935583 63.816238 
L 279.166392 63.816238 
L 279.166392 44.654257 
L 283.0445 44.654257 
L 283.0445 25.492277 
L 283.280626 25.492277 
L 283.280626 6.330297 
L 283.280626 6.330297 
L 283.280626 6.330297 
L 460.8 6.330297 
" clip-path="url(#p9307a61485)" style="fill: none; stroke: #f5deb3; stroke-width: 1.5; stroke-linecap: square"/>
   </g>
   <g id="line2d_10">
    <path clip-path="url(#p9307a61485)" style="fill: none; stroke: #f5deb3; stroke-width: 1.5; stroke-linecap: square"/>
   </g>
   <g id="line2d_11">
    <path d="M 238.522912 293.76 
L 238.522912 274.59802 
L 240.816247 274.59802 
L 240.816247 255.43604 
L 241.094554 255.43604 
L 241.094554 236.274059 
L 242.66099 236.274059 
L 242.66099 217.112079 
L 244.6225 217.112079 
L 244.6225 197.950099 
L 245.130894 197.950099 
L 245.130894 178.788119 
L 245.508308 178.788119 
L 245.508308 159.626139 
L 246.31492 159.626139 
L 246.31492 140.464158 
L 248.414681 140.464158 
L 248.414681 121.302178 
L 249.456146 121.302178 
L 249.456146 102.140198 
L 249.967628 102.140198 
L 249.967628 82.978218 
L 250.972807 82.978218 
L 250.972807 63.816238 
L 252.062955 63.816238 
L 252.062955 44.654257 
L 253.283589 44.654257 
L 253.283589 25.492277 
L 257.801347 25.492277 
L 257.801347 6.330297 
L 257.801347 6.330297 
L 257.801347 6.330297 
L 460.8 6.330297 
" clip-path="url(#p9307a61485)" style="fill: none; stroke: #f5deb3; stroke-width: 1.5; stroke-linecap: square"/>
   </g>
   <g id="line2d_12">
    <path d="M 98.253455 293.76 
L 98.253455 274.59802 
L 98.253455 274.59802 
L 98.253455 255.43604 
L 98.253455 255.43604 
L 98.253455 236.274059 
L 98.253455 236.274059 
L 98.253455 217.112079 
L 98.253455 217.112079 
L 98.253455 197.950099 
L 98.253455 197.950099 
L 98.253455 178.788119 
L 98.253455 178.788119 
L 98.253455 159.626139 
L 98.253455 159.626139 
L 98.253455 140.464158 
L 98.253455 140.464158 
L 98.253455 121.302178 
L 98.253455 121.302178 
L 98.253455 102.140198 
L 98.253455 102.140198 
L 98.253455 82.978218 
L 98.253455 82.978218 
L 98.253455 63.816238 
L 98.253455 63.816238 
L 98.253455 44.654257 
L 98.253455 44.654257 
L 98.253455 25.492277 
L 98.253455 25.492277 
L 98.253455 6.330297 
L 98.253455 6.330297 
L 98.253455 6.330297 
L 460.8 6.330297 
" clip-path="url(#p9307a61485)" style="fill: none; stroke: #f5deb3; stroke-width: 1.5; stroke-linecap: square"/>
   </g>
   <g id="line2d_13">
    <path d="M 353.899253 293.76 
L 353.899253 274.59802 
L 358.37284 274.59802 
L 358.37284 255.43604 
L 358.478848 255.43604 
L 358.478848 236.274059 
L 358.478848 236.274059 
L 358.478848 217.112079 
L 360.668944 217.112079 
L 360.668944 197.950099 
L 361.013293 197.950099 
L 361.013293 178.788119 
L 361.013293 178.788119 
L 361.013293 159.626139 
L 361.017634 159.626139 
L 361.017634 140.464158 
L 363.246982 140.464158 
L 363.246982 121.302178 
L 363.246982 121.302178 
L 363.246982 102.140198 
L 369.512129 102.140198 
L 369.512129 82.978218 
L 369.934585 82.978218 
L 369.934585 63.816238 
L 369.934585 63.816238 
L 369.934585 44.654257 
L 371.709982 44.654257 
L 371.709982 25.492277 
L 371.709982 25.492277 
L 371.709982 6.330297 
L 371.709982 6.330297 
L 371.709982 6.330297 
L 460.8 6.330297 
" clip-path="url(#p9307a61485)" style="fill: none; stroke: #f5deb3; stroke-width: 1.5; stroke-linecap: square"/>
   </g>
   <g id="line2d_14">
    <path d="M 216.440654 293.76 
L 216.440654 274.59802 
L 216.563077 274.59802 
L 216.563077 255.43604 
L 219.057068 255.43604 
L 219.057068 236.274059 
L 219.744012 236.274059 
L 219.744012 217.112079 
L 219.970591 217.112079 
L 219.970591 197.950099 
L 220.195991 197.950099 
L 220.195991 178.788119 
L 220.531904 178.788119 
L 220.531904 159.626139 
L 222.918686 159.626139 
L 222.918686 140.464158 
L 223.129278 140.464158 
L 223.129278 121.302178 
L 223.234191 121.302178 
L 223.234191 102.140198 
L 223.651318 102.140198 
L 223.651318 82.978218 
L 225.777612 82.978218 
L 225.777612 63.816238 
L 225.876305 63.816238 
L 225.876305 44.654257 
L 226.463778 44.654257 
L 226.463778 25.492277 
L 227.139235 25.492277 
L 227.139235 6.330297 
L 227.139235 6.330297 
L 227.139235 6.330297 
L 460.8 6.330297 
" clip-path="url(#p9307a61485)" style="fill: none; stroke: #f5deb3; stroke-width: 1.5; stroke-linecap: square"/>
   </g>
   <g id="line2d_15">
    <path clip-path="url(#p9307a61485)" style="fill: none; stroke: #f5deb3; stroke-width: 1.5; stroke-linecap: square"/>
   </g>
   <g id="line2d_16">
    <path d="M 323.268172 293.76 
L 323.268172 274.59802 
L 325.395961 274.59802 
L 325.395961 255.43604 
L 327.140048 255.43604 
L 327.140048 236.274059 
L 327.196991 236.274059 
L 327.196991 217.112079 
L 327.320111 217.112079 
L 327.320111 197.950099 
L 328.163005 197.950099 
L 328.163005 178.788119 
L 329.035268 178.788119 
L 329.035268 159.626139 
L 330.236477 159.626139 
L 330.236477 140.464158 
L 331.076995 140.464158 
L 331.076995 121.302178 
L 331.756633 121.302178 
L 331.756633 102.140198 
L 332.265775 102.140198 
L 332.265775 82.978218 
L 332.893893 82.978218 
L 332.893893 63.816238 
L 333.117802 63.816238 
L 333.117802 44.654257 
L 333.782662 44.654257 
L 333.782662 25.492277 
L 335.240301 25.492277 
L 335.240301 6.330297 
L 335.240301 6.330297 
L 335.240301 6.330297 
L 460.8 6.330297 
" clip-path="url(#p9307a61485)" style="fill: none; stroke: #f5deb3; stroke-width: 1.5; stroke-linecap: square"/>
   </g>
   <g id="line2d_17">
    <path d="M 416.20367 293.76 
L 416.20367 274.59802 
L 418.870436 274.59802 
L 418.870436 255.43604 
L 418.930831 255.43604 
L 418.930831 236.274059 
L 419.260941 236.274059 
L 419.260941 217.112079 
L 419.634512 217.112079 
L 419.634512 197.950099 
L 420.280601 197.950099 
L 420.280601 178.788119 
L 421.350074 178.788119 
L 421.350074 159.626139 
L 423.68204 159.626139 
L 423.68204 140.464158 
L 424.572748 140.464158 
L 424.572748 121.302178 
L 425.410213 121.302178 
L 425.410213 102.140198 
L 425.814205 102.140198 
L 425.814205 82.978218 
L 426.090139 82.978218 
L 426.090139 63.816238 
L 426.371997 63.816238 
L 426.371997 44.654257 
L 426.579568 44.654257 
L 426.579568 25.492277 
L 427.553325 25.492277 
L 427.553325 6.330297 
L 427.553325 6.330297 
L 427.553325 6.330297 
L 460.8 6.330297 
" clip-path="url(#p9307a61485)" style="fill: none; stroke: #f5deb3; stroke-width: 1.5; stroke-linecap: square"/>
   </g>
   <g id="line2d_18">
    <path d="M 96.329735 293.76 
L 96.329735 274.59802 
L 96.329735 274.59802 
L 96.329735 255.43604 
L 96.329735 255.43604 
L 96.329735 236.274059 
L 96.329735 236.274059 
L 96.329735 217.112079 
L 96.329735 217.112079 
L 96.329735 197.950099 
L 96.329735 197.950099 
L 96.329735 178.788119 
L 98.253455 178.788119 
L 98.253455 159.626139 
L 98.253455 159.626139 
L 98.253455 140.464158 
L 98.253455 140.464158 
L 98.253455 121.302178 
L 100.09529 121.302178 
L 100.09529 102.140198 
L 100.09529 102.140198 
L 100.09529 82.978218 
L 100.09529 82.978218 
L 100.09529 63.816238 
L 100.09529 63.816238 
L 100.09529 44.654257 
L 100.09529 44.654257 
L 100.09529 25.492277 
L 103.559264 25.492277 
L 103.559264 6.330297 
L 103.559264 6.330297 
L 103.559264 6.330297 
L 460.8 6.330297 
" clip-path="url(#p9307a61485)" style="fill: none; stroke: #f5deb3; stroke-width: 1.5; stroke-linecap: square"/>
   </g>
   <g id="line2d_19">
    <path d="M 417.800228 293.76 
L 417.800228 284.17901 
L 417.800228 284.17901 
L 417.800228 274.59802 
L 418.173821 274.59802 
L 418.173821 265.01703 
L 418.173821 265.01703 
L 418.173821 255.43604 
L 419.604252 255.43604 
L 419.604252 245.85505 
L 419.604252 245.85505 
L 419.604252 236.274059 
L 419.968213 236.274059 
L 419.968213 226.693069 
L 419.968213 226.693069 
L 419.968213 217.112079 
L 421.004111 217.112079 
L 421.004111 207.531089 
L 421.004111 207.531089 
L 421.004111 197.950099 
L 421.348997 197.950099 
L 421.348997 188.369109 
L 421.348997 188.369109 
L 421.348997 178.788119 
L 421.402807 178.788119 
L 421.402807 169.207129 
L 421.402807 169.207129 
L 421.402807 159.626139 
L 421.679404 159.626139 
L 421.679404 150.045149 
L 421.679404 150.045149 
L 421.679404 140.464158 
L 421.740275 140.464158 
L 421.740275 130.883168 
L 421.740275 130.883168 
L 421.740275 121.302178 
L 422.042292 121.302178 
L 422.042292 111.721188 
L 422.042292 111.721188 
L 422.042292 102.140198 
L 422.699612 102.140198 
L 422.699612 92.559208 
L 422.699612 92.559208 
L 422.699612 82.978218 
L 422.712135 82.978218 
L 422.712135 73.397228 
L 422.712135 73.397228 
L 422.712135 63.816238 
L 423.045797 63.816238 
L 423.045797 54.235248 
L 423.045797 54.235248 
L 423.045797 44.654257 
L 423.746273 44.654257 
L 423.746273 35.073267 
L 423.746273 35.073267 
L 423.746273 25.492277 
L 423.754423 25.492277 
L 423.754423 15.911287 
L 423.754423 15.911287 
L 423.754423 6.330297 
L 423.754423 6.330297 
L 423.754423 6.330297 
L 460.8 6.330297 
" clip-path="url(#p9307a61485)" style="fill: none; stroke: #f5deb3; stroke-width: 1.5; stroke-linecap: square"/>
   </g>
   <g id="line2d_20">
    <path d="M 233.535924 293.76 
L 233.535924 274.59802 
L 239.107739 274.59802 
L 239.107739 255.43604 
L 239.75636 255.43604 
L 239.75636 236.274059 
L 247.467413 236.274059 
L 247.467413 217.112079 
L 248.23864 217.112079 
L 248.23864 197.950099 
L 248.531645 197.950099 
L 248.531645 178.788119 
L 249.797805 178.788119 
L 249.797805 159.626139 
L 253.803746 159.626139 
L 253.803746 140.464158 
L 256.412163 140.464158 
L 256.412163 121.302178 
L 258.641696 121.302178 
L 258.641696 102.140198 
L 260.096508 102.140198 
L 260.096508 82.978218 
L 262.06297 82.978218 
L 262.06297 63.816238 
L 262.572612 63.816238 
L 262.572612 44.654257 
L 264.553201 44.654257 
L 264.553201 25.492277 
L 271.949941 25.492277 
L 271.949941 6.330297 
L 271.949941 6.330297 
L 271.949941 6.330297 
L 460.8 6.330297 
" clip-path="url(#p9307a61485)" style="fill: none; stroke: #f5deb3; stroke-width: 1.5; stroke-linecap: square"/>
   </g>
   <g id="line2d_21">
    <path d="M 317.118376 293.76 
L 317.118376 274.59802 
L 317.130346 274.59802 
L 317.130346 255.43604 
L 317.142312 255.43604 
L 317.142312 236.274059 
L 317.142312 236.274059 
L 317.142312 217.112079 
L 317.142312 217.112079 
L 317.142312 197.950099 
L 317.142312 197.950099 
L 317.142312 178.788119 
L 317.142312 178.788119 
L 317.142312 159.626139 
L 317.142312 159.626139 
L 317.142312 140.464158 
L 317.154275 140.464158 
L 317.154275 121.302178 
L 317.154275 121.302178 
L 317.154275 102.140198 
L 317.154275 102.140198 
L 317.154275 82.978218 
L 317.154275 82.978218 
L 317.154275 63.816238 
L 317.154275 63.816238 
L 317.154275 44.654257 
L 317.154275 44.654257 
L 317.154275 25.492277 
L 317.154275 25.492277 
L 317.154275 6.330297 
L 317.154275 6.330297 
L 317.154275 6.330297 
L 460.8 6.330297 
" clip-path="url(#p9307a61485)" style="fill: none; stroke: #f5deb3; stroke-width: 1.5; stroke-linecap: square"/>
   </g>
   <g id="line2d_22">
    <path d="M 239.61306 293.76 
L 239.61306 274.59802 
L 241.371083 274.59802 
L 241.371083 255.43604 
L 245.194025 255.43604 
L 245.194025 236.274059 
L 246.803926 236.274059 
L 246.803926 217.112079 
L 248.120881 217.112079 
L 248.120881 197.950099 
L 249.513277 197.950099 
L 249.513277 178.788119 
L 250.640335 178.788119 
L 250.640335 159.626139 
L 251.955167 159.626139 
L 251.955167 140.464158 
L 252.597901 140.464158 
L 252.597901 121.302178 
L 253.544449 121.302178 
L 253.544449 102.140198 
L 254.215417 102.140198 
L 254.215417 82.978218 
L 255.576587 82.978218 
L 255.576587 63.816238 
L 257.422557 63.816238 
L 257.422557 44.654257 
L 261.02532 44.654257 
L 261.02532 25.492277 
L 261.330547 25.492277 
L 261.330547 6.330297 
L 261.330547 6.330297 
L 261.330547 6.330297 
L 460.8 6.330297 
" clip-path="url(#p9307a61485)" style="fill: none; stroke: #f5deb3; stroke-width: 1.5; stroke-linecap: square"/>
   </g>
   <g id="line2d_23">
    <path d="M 361.10437 293.76 
L 361.10437 274.59802 
L 363.787844 274.59802 
L 363.787844 255.43604 
L 365.469048 255.43604 
L 365.469048 236.274059 
L 366.529156 236.274059 
L 366.529156 217.112079 
L 367.091148 217.112079 
L 367.091148 197.950099 
L 367.563916 197.950099 
L 367.563916 178.788119 
L 368.274537 178.788119 
L 368.274537 159.626139 
L 368.752776 159.626139 
L 368.752776 140.464158 
L 368.919462 140.464158 
L 368.919462 121.302178 
L 369.002564 121.302178 
L 369.002564 102.140198 
L 369.736296 102.140198 
L 369.736296 82.978218 
L 371.188057 82.978218 
L 371.188057 63.816238 
L 372.265875 63.816238 
L 372.265875 44.654257 
L 373.114463 44.654257 
L 373.114463 25.492277 
L 373.600813 25.492277 
L 373.600813 6.330297 
L 373.600813 6.330297 
L 373.600813 6.330297 
L 460.8 6.330297 
" clip-path="url(#p9307a61485)" style="fill: none; stroke: #f5deb3; stroke-width: 1.5; stroke-linecap: square"/>
   </g>
   <g id="line2d_24">
    <path d="M 333.496629 293.76 
L 333.496629 274.59802 
L 334.139584 274.59802 
L 334.139584 255.43604 
L 334.645561 255.43604 
L 334.645561 236.274059 
L 335.499419 236.274059 
L 335.499419 217.112079 
L 336.612307 217.112079 
L 336.612307 197.950099 
L 337.436072 197.950099 
L 337.436072 178.788119 
L 337.712171 178.788119 
L 337.712171 159.626139 
L 338.119361 159.626139 
L 338.119361 140.464158 
L 338.192986 140.464158 
L 338.192986 121.302178 
L 339.045216 121.302178 
L 339.045216 102.140198 
L 339.411512 102.140198 
L 339.411512 82.978218 
L 341.218467 82.978218 
L 341.218467 63.816238 
L 344.671359 63.816238 
L 344.671359 44.654257 
L 344.873557 44.654257 
L 344.873557 25.492277 
L 352.436874 25.492277 
L 352.436874 6.330297 
L 352.436874 6.330297 
L 352.436874 6.330297 
L 460.8 6.330297 
" clip-path="url(#p9307a61485)" style="fill: none; stroke: #f5deb3; stroke-width: 1.5; stroke-linecap: square"/>
   </g>
   <g id="line2d_25">
    <path clip-path="url(#p9307a61485)" style="fill: none; stroke: #f5deb3; stroke-width: 1.5; stroke-linecap: square"/>
   </g>
   <g id="line2d_26">
    <path d="M 319.765234 293.76 
L 319.765234 274.59802 
L 319.832749 274.59802 
L 319.832749 255.43604 
L 320.424593 255.43604 
L 320.424593 236.274059 
L 320.778054 236.274059 
L 320.778054 217.112079 
L 320.93179 217.112079 
L 320.93179 197.950099 
L 321.106822 197.950099 
L 321.106822 178.788119 
L 326.460472 178.788119 
L 326.460472 159.626139 
L 326.787235 159.626139 
L 326.787235 140.464158 
L 327.958475 140.464158 
L 327.958475 121.302178 
L 328.172279 121.302178 
L 328.172279 102.140198 
L 328.578375 102.140198 
L 328.578375 82.978218 
L 328.615104 82.978218 
L 328.615104 63.816238 
L 328.679306 63.816238 
L 328.679306 44.654257 
L 329.026178 44.654257 
L 329.026178 25.492277 
L 329.089773 25.492277 
L 329.089773 6.330297 
L 329.089773 6.330297 
L 329.089773 6.330297 
L 460.8 6.330297 
" clip-path="url(#p9307a61485)" style="fill: none; stroke: #f5deb3; stroke-width: 1.5; stroke-linecap: square"/>
   </g>
   <g id="line2d_27">
    <path d="M 262.233518 293.76 
L 262.233518 274.59802 
L 262.656972 274.59802 
L 262.656972 255.43604 
L 262.950943 255.43604 
L 262.950943 236.274059 
L 263.325995 236.274059 
L 263.325995 217.112079 
L 263.615471 217.112079 
L 263.615471 197.950099 
L 264.553201 197.950099 
L 264.553201 178.788119 
L 264.593515 178.788119 
L 264.593515 159.626139 
L 265.707312 159.626139 
L 265.707312 140.464158 
L 266.331129 140.464158 
L 266.331129 121.302178 
L 266.36982 121.302178 
L 266.36982 102.140198 
L 266.639698 102.140198 
L 266.639698 82.978218 
L 267.288191 82.978218 
L 267.288191 63.816238 
L 267.665167 63.816238 
L 267.665167 44.654257 
L 268.886391 44.654257 
L 268.886391 25.492277 
L 270.708456 25.492277 
L 270.708456 6.330297 
L 270.708456 6.330297 
L 270.708456 6.330297 
L 460.8 6.330297 
" clip-path="url(#p9307a61485)" style="fill: none; stroke: #f5deb3; stroke-width: 1.5; stroke-linecap: square"/>
   </g>
   <g id="line2d_28">
    <path d="M 312.883401 293.76 
L 312.883401 274.59802 
L 313.133517 274.59802 
L 313.133517 255.43604 
L 313.538523 255.43604 
L 313.538523 236.274059 
L 313.810745 236.274059 
L 313.810745 217.112079 
L 314.3118 217.112079 
L 314.3118 197.950099 
L 314.983554 197.950099 
L 314.983554 178.788119 
L 315.706926 178.788119 
L 315.706926 159.626139 
L 315.818097 159.626139 
L 315.818097 140.464158 
L 316.284365 140.464158 
L 316.284365 121.302178 
L 316.673152 121.302178 
L 316.673152 102.140198 
L 316.914382 102.140198 
L 316.914382 82.978218 
L 316.98649 82.978218 
L 316.98649 63.816238 
L 318.13586 63.816238 
L 318.13586 44.654257 
L 319.175657 44.654257 
L 319.175657 25.492277 
L 321.139561 25.492277 
L 321.139561 6.330297 
L 321.139561 6.330297 
L 321.139561 6.330297 
L 460.8 6.330297 
" clip-path="url(#p9307a61485)" style="fill: none; stroke: #f5deb3; stroke-width: 1.5; stroke-linecap: square"/>
   </g>
   <g id="line2d_29">
    <path d="M 111.17121 293.76 
L 111.17121 274.59802 
L 111.17121 274.59802 
L 111.17121 255.43604 
L 111.17121 255.43604 
L 111.17121 236.274059 
L 113.876877 236.274059 
L 113.876877 217.112079 
L 113.876877 217.112079 
L 113.876877 197.950099 
L 113.876877 197.950099 
L 113.876877 178.788119 
L 118.828165 178.788119 
L 118.828165 159.626139 
L 118.828165 159.626139 
L 118.828165 140.464158 
L 118.828165 140.464158 
L 118.828165 121.302178 
L 167.904418 121.302178 
L 167.904418 102.140198 
L 167.904418 102.140198 
L 167.904418 82.978218 
L 167.904418 82.978218 
L 167.904418 63.816238 
L 169.384104 63.816238 
L 169.384104 44.654257 
L 169.384104 44.654257 
L 169.384104 25.492277 
L 169.384104 25.492277 
L 169.384104 6.330297 
L 169.384104 6.330297 
L 169.384104 6.330297 
L 460.8 6.330297 
" clip-path="url(#p9307a61485)" style="fill: none; stroke: #f5deb3; stroke-width: 1.5; stroke-linecap: square"/>
   </g>
   <g id="line2d_30">
    <path d="M 170.105397 293.76 
L 170.105397 274.59802 
L 180.542065 274.59802 
L 180.542065 255.43604 
L 184.307619 255.43604 
L 184.307619 236.274059 
L 186.809852 236.274059 
L 186.809852 217.112079 
L 188.944472 217.112079 
L 188.944472 197.950099 
L 189.175281 197.950099 
L 189.175281 178.788119 
L 189.860413 178.788119 
L 189.860413 159.626139 
L 190.311215 159.626139 
L 190.311215 140.464158 
L 191.198971 140.464158 
L 191.198971 121.302178 
L 191.198971 121.302178 
L 191.198971 102.140198 
L 193.132241 102.140198 
L 193.132241 82.978218 
L 195.780575 82.978218 
L 195.780575 63.816238 
L 196.757515 63.816238 
L 196.757515 44.654257 
L 196.757515 44.654257 
L 196.757515 25.492277 
L 197.523492 25.492277 
L 197.523492 6.330297 
L 197.523492 6.330297 
L 197.523492 6.330297 
L 460.8 6.330297 
" clip-path="url(#p9307a61485)" style="fill: none; stroke: #f5deb3; stroke-width: 1.5; stroke-linecap: square"/>
   </g>
   <g id="matplotlib.axis_1">
    <g id="xtick_1">
     <g id="line2d_31">
      <path d="M 62.208 293.76 
L 62.208 3.456 
" clip-path="url(#p9307a61485)" style="fill: none; stroke: #b0b0b0; stroke-width: 0.8; stroke-linecap: square"/>
     </g>
     <g id="line2d_32">
      <defs>
       <path id="m61d052cd71" d="M 0 0 
L 0 3.5 
" style="stroke: #000000; stroke-width: 0.8"/>
      </defs>
      <g>
       <use xlink:href="#m61d052cd71" x="62.208" y="293.76" style="stroke: #000000; stroke-width: 0.8"/>
      </g>
     </g>
     <g id="text_1">
      <!-- 0 -->
      <g transform="translate(55.8455 315.956875) scale(0.2 -0.2)">
       <defs>
        <path id="DejaVuSans-30" d="M 2034 4250 
Q 1547 4250 1301 3770 
Q 1056 3291 1056 2328 
Q 1056 1369 1301 889 
Q 1547 409 2034 409 
Q 2525 409 2770 889 
Q 3016 1369 3016 2328 
Q 3016 3291 2770 3770 
Q 2525 4250 2034 4250 
z
M 2034 4750 
Q 2819 4750 3233 4129 
Q 3647 3509 3647 2328 
Q 3647 1150 3233 529 
Q 2819 -91 2034 -91 
Q 1250 -91 836 529 
Q 422 1150 422 2328 
Q 422 3509 836 4129 
Q 1250 4750 2034 4750 
z
" transform="scale(0.015625)"/>
       </defs>
       <use xlink:href="#DejaVuSans-30"/>
      </g>
     </g>
    </g>
    <g id="xtick_2">
     <g id="line2d_33">
      <path d="M 161.856 293.76 
L 161.856 3.456 
" clip-path="url(#p9307a61485)" style="fill: none; stroke: #b0b0b0; stroke-width: 0.8; stroke-linecap: square"/>
     </g>
     <g id="line2d_34">
      <g>
       <use xlink:href="#m61d052cd71" x="161.856" y="293.76" style="stroke: #000000; stroke-width: 0.8"/>
      </g>
     </g>
     <g id="text_2">
      <!-- 1 -->
      <g transform="translate(155.4935 315.956875) scale(0.2 -0.2)">
       <defs>
        <path id="DejaVuSans-31" d="M 794 531 
L 1825 531 
L 1825 4091 
L 703 3866 
L 703 4441 
L 1819 4666 
L 2450 4666 
L 2450 531 
L 3481 531 
L 3481 0 
L 794 0 
L 794 531 
z
" transform="scale(0.015625)"/>
       </defs>
       <use xlink:href="#DejaVuSans-31"/>
      </g>
     </g>
    </g>
    <g id="xtick_3">
     <g id="line2d_35">
      <path d="M 261.504 293.76 
L 261.504 3.456 
" clip-path="url(#p9307a61485)" style="fill: none; stroke: #b0b0b0; stroke-width: 0.8; stroke-linecap: square"/>
     </g>
     <g id="line2d_36">
      <g>
       <use xlink:href="#m61d052cd71" x="261.504" y="293.76" style="stroke: #000000; stroke-width: 0.8"/>
      </g>
     </g>
     <g id="text_3">
      <!-- 2 -->
      <g transform="translate(255.1415 315.956875) scale(0.2 -0.2)">
       <defs>
        <path id="DejaVuSans-32" d="M 1228 531 
L 3431 531 
L 3431 0 
L 469 0 
L 469 531 
Q 828 903 1448 1529 
Q 2069 2156 2228 2338 
Q 2531 2678 2651 2914 
Q 2772 3150 2772 3378 
Q 2772 3750 2511 3984 
Q 2250 4219 1831 4219 
Q 1534 4219 1204 4116 
Q 875 4013 500 3803 
L 500 4441 
Q 881 4594 1212 4672 
Q 1544 4750 1819 4750 
Q 2544 4750 2975 4387 
Q 3406 4025 3406 3419 
Q 3406 3131 3298 2873 
Q 3191 2616 2906 2266 
Q 2828 2175 2409 1742 
Q 1991 1309 1228 531 
z
" transform="scale(0.015625)"/>
       </defs>
       <use xlink:href="#DejaVuSans-32"/>
      </g>
     </g>
    </g>
    <g id="xtick_4">
     <g id="line2d_37">
      <path d="M 361.152 293.76 
L 361.152 3.456 
" clip-path="url(#p9307a61485)" style="fill: none; stroke: #b0b0b0; stroke-width: 0.8; stroke-linecap: square"/>
     </g>
     <g id="line2d_38">
      <g>
       <use xlink:href="#m61d052cd71" x="361.152" y="293.76" style="stroke: #000000; stroke-width: 0.8"/>
      </g>
     </g>
     <g id="text_4">
      <!-- 3 -->
      <g transform="translate(354.7895 315.956875) scale(0.2 -0.2)">
       <defs>
        <path id="DejaVuSans-33" d="M 2597 2516 
Q 3050 2419 3304 2112 
Q 3559 1806 3559 1356 
Q 3559 666 3084 287 
Q 2609 -91 1734 -91 
Q 1441 -91 1130 -33 
Q 819 25 488 141 
L 488 750 
Q 750 597 1062 519 
Q 1375 441 1716 441 
Q 2309 441 2620 675 
Q 2931 909 2931 1356 
Q 2931 1769 2642 2001 
Q 2353 2234 1838 2234 
L 1294 2234 
L 1294 2753 
L 1863 2753 
Q 2328 2753 2575 2939 
Q 2822 3125 2822 3475 
Q 2822 3834 2567 4026 
Q 2313 4219 1838 4219 
Q 1578 4219 1281 4162 
Q 984 4106 628 3988 
L 628 4550 
Q 988 4650 1302 4700 
Q 1616 4750 1894 4750 
Q 2613 4750 3031 4423 
Q 3450 4097 3450 3541 
Q 3450 3153 3228 2886 
Q 3006 2619 2597 2516 
z
" transform="scale(0.015625)"/>
       </defs>
       <use xlink:href="#DejaVuSans-33"/>
      </g>
     </g>
    </g>
    <g id="xtick_5">
     <g id="line2d_39">
      <path d="M 460.8 293.76 
L 460.8 3.456 
" clip-path="url(#p9307a61485)" style="fill: none; stroke: #b0b0b0; stroke-width: 0.8; stroke-linecap: square"/>
     </g>
     <g id="line2d_40">
      <g>
       <use xlink:href="#m61d052cd71" x="460.8" y="293.76" style="stroke: #000000; stroke-width: 0.8"/>
      </g>
     </g>
     <g id="text_5">
      <!-- 4 -->
      <g transform="translate(454.4375 315.956875) scale(0.2 -0.2)">
       <defs>
        <path id="DejaVuSans-34" d="M 2419 4116 
L 825 1625 
L 2419 1625 
L 2419 4116 
z
M 2253 4666 
L 3047 4666 
L 3047 1625 
L 3713 1625 
L 3713 1100 
L 3047 1100 
L 3047 0 
L 2419 0 
L 2419 1100 
L 313 1100 
L 313 1709 
L 2253 4666 
z
" transform="scale(0.015625)"/>
       </defs>
       <use xlink:href="#DejaVuSans-34"/>
      </g>
     </g>
    </g>
    <g id="xtick_6">
     <g id="line2d_41">
      <path d="M 92.205037 293.76 
L 92.205037 3.456 
" clip-path="url(#p9307a61485)" style="fill: none; stroke: #b0b0b0; stroke-width: 0.8; stroke-linecap: square"/>
     </g>
     <g id="line2d_42">
      <defs>
       <path id="m5cc6438119" d="M 0 0 
L 0 2 
" style="stroke: #000000; stroke-width: 0.6"/>
      </defs>
      <g>
       <use xlink:href="#m5cc6438119" x="92.205037" y="293.76" style="stroke: #000000; stroke-width: 0.6"/>
      </g>
     </g>
    </g>
    <g id="xtick_7">
     <g id="line2d_43">
      <path d="M 109.752179 293.76 
L 109.752179 3.456 
" clip-path="url(#p9307a61485)" style="fill: none; stroke: #b0b0b0; stroke-width: 0.8; stroke-linecap: square"/>
     </g>
     <g id="line2d_44">
      <g>
       <use xlink:href="#m5cc6438119" x="109.752179" y="293.76" style="stroke: #000000; stroke-width: 0.6"/>
      </g>
     </g>
    </g>
    <g id="xtick_8">
     <g id="line2d_45">
      <path d="M 122.202074 293.76 
L 122.202074 3.456 
" clip-path="url(#p9307a61485)" style="fill: none; stroke: #b0b0b0; stroke-width: 0.8; stroke-linecap: square"/>
     </g>
     <g id="line2d_46">
      <g>
       <use xlink:href="#m5cc6438119" x="122.202074" y="293.76" style="stroke: #000000; stroke-width: 0.6"/>
      </g>
     </g>
    </g>
    <g id="xtick_9">
     <g id="line2d_47">
      <path d="M 131.858963 293.76 
L 131.858963 3.456 
" clip-path="url(#p9307a61485)" style="fill: none; stroke: #b0b0b0; stroke-width: 0.8; stroke-linecap: square"/>
     </g>
     <g id="line2d_48">
      <g>
       <use xlink:href="#m5cc6438119" x="131.858963" y="293.76" style="stroke: #000000; stroke-width: 0.6"/>
      </g>
     </g>
    </g>
    <g id="xtick_10">
     <g id="line2d_49">
      <path d="M 139.749216 293.76 
L 139.749216 3.456 
" clip-path="url(#p9307a61485)" style="fill: none; stroke: #b0b0b0; stroke-width: 0.8; stroke-linecap: square"/>
     </g>
     <g id="line2d_50">
      <g>
       <use xlink:href="#m5cc6438119" x="139.749216" y="293.76" style="stroke: #000000; stroke-width: 0.6"/>
      </g>
     </g>
    </g>
    <g id="xtick_11">
     <g id="line2d_51">
      <path d="M 146.420329 293.76 
L 146.420329 3.456 
" clip-path="url(#p9307a61485)" style="fill: none; stroke: #b0b0b0; stroke-width: 0.8; stroke-linecap: square"/>
     </g>
     <g id="line2d_52">
      <g>
       <use xlink:href="#m5cc6438119" x="146.420329" y="293.76" style="stroke: #000000; stroke-width: 0.6"/>
      </g>
     </g>
    </g>
    <g id="xtick_12">
     <g id="line2d_53">
      <path d="M 152.199111 293.76 
L 152.199111 3.456 
" clip-path="url(#p9307a61485)" style="fill: none; stroke: #b0b0b0; stroke-width: 0.8; stroke-linecap: square"/>
     </g>
     <g id="line2d_54">
      <g>
       <use xlink:href="#m5cc6438119" x="152.199111" y="293.76" style="stroke: #000000; stroke-width: 0.6"/>
      </g>
     </g>
    </g>
    <g id="xtick_13">
     <g id="line2d_55">
      <path d="M 157.296358 293.76 
L 157.296358 3.456 
" clip-path="url(#p9307a61485)" style="fill: none; stroke: #b0b0b0; stroke-width: 0.8; stroke-linecap: square"/>
     </g>
     <g id="line2d_56">
      <g>
       <use xlink:href="#m5cc6438119" x="157.296358" y="293.76" style="stroke: #000000; stroke-width: 0.6"/>
      </g>
     </g>
    </g>
    <g id="xtick_14">
     <g id="line2d_57">
      <path d="M 191.853037 293.76 
L 191.853037 3.456 
" clip-path="url(#p9307a61485)" style="fill: none; stroke: #b0b0b0; stroke-width: 0.8; stroke-linecap: square"/>
     </g>
     <g id="line2d_58">
      <g>
       <use xlink:href="#m5cc6438119" x="191.853037" y="293.76" style="stroke: #000000; stroke-width: 0.6"/>
      </g>
     </g>
    </g>
    <g id="xtick_15">
     <g id="line2d_59">
      <path d="M 209.400179 293.76 
L 209.400179 3.456 
" clip-path="url(#p9307a61485)" style="fill: none; stroke: #b0b0b0; stroke-width: 0.8; stroke-linecap: square"/>
     </g>
     <g id="line2d_60">
      <g>
       <use xlink:href="#m5cc6438119" x="209.400179" y="293.76" style="stroke: #000000; stroke-width: 0.6"/>
      </g>
     </g>
    </g>
    <g id="xtick_16">
     <g id="line2d_61">
      <path d="M 221.850074 293.76 
L 221.850074 3.456 
" clip-path="url(#p9307a61485)" style="fill: none; stroke: #b0b0b0; stroke-width: 0.8; stroke-linecap: square"/>
     </g>
     <g id="line2d_62">
      <g>
       <use xlink:href="#m5cc6438119" x="221.850074" y="293.76" style="stroke: #000000; stroke-width: 0.6"/>
      </g>
     </g>
    </g>
    <g id="xtick_17">
     <g id="line2d_63">
      <path d="M 231.506963 293.76 
L 231.506963 3.456 
" clip-path="url(#p9307a61485)" style="fill: none; stroke: #b0b0b0; stroke-width: 0.8; stroke-linecap: square"/>
     </g>
     <g id="line2d_64">
      <g>
       <use xlink:href="#m5cc6438119" x="231.506963" y="293.76" style="stroke: #000000; stroke-width: 0.6"/>
      </g>
     </g>
    </g>
    <g id="xtick_18">
     <g id="line2d_65">
      <path d="M 239.397216 293.76 
L 239.397216 3.456 
" clip-path="url(#p9307a61485)" style="fill: none; stroke: #b0b0b0; stroke-width: 0.8; stroke-linecap: square"/>
     </g>
     <g id="line2d_66">
      <g>
       <use xlink:href="#m5cc6438119" x="239.397216" y="293.76" style="stroke: #000000; stroke-width: 0.6"/>
      </g>
     </g>
    </g>
    <g id="xtick_19">
     <g id="line2d_67">
      <path d="M 246.068329 293.76 
L 246.068329 3.456 
" clip-path="url(#p9307a61485)" style="fill: none; stroke: #b0b0b0; stroke-width: 0.8; stroke-linecap: square"/>
     </g>
     <g id="line2d_68">
      <g>
       <use xlink:href="#m5cc6438119" x="246.068329" y="293.76" style="stroke: #000000; stroke-width: 0.6"/>
      </g>
     </g>
    </g>
    <g id="xtick_20">
     <g id="line2d_69">
      <path d="M 251.847111 293.76 
L 251.847111 3.456 
" clip-path="url(#p9307a61485)" style="fill: none; stroke: #b0b0b0; stroke-width: 0.8; stroke-linecap: square"/>
     </g>
     <g id="line2d_70">
      <g>
       <use xlink:href="#m5cc6438119" x="251.847111" y="293.76" style="stroke: #000000; stroke-width: 0.6"/>
      </g>
     </g>
    </g>
    <g id="xtick_21">
     <g id="line2d_71">
      <path d="M 256.944358 293.76 
L 256.944358 3.456 
" clip-path="url(#p9307a61485)" style="fill: none; stroke: #b0b0b0; stroke-width: 0.8; stroke-linecap: square"/>
     </g>
     <g id="line2d_72">
      <g>
       <use xlink:href="#m5cc6438119" x="256.944358" y="293.76" style="stroke: #000000; stroke-width: 0.6"/>
      </g>
     </g>
    </g>
    <g id="xtick_22">
     <g id="line2d_73">
      <path d="M 291.501037 293.76 
L 291.501037 3.456 
" clip-path="url(#p9307a61485)" style="fill: none; stroke: #b0b0b0; stroke-width: 0.8; stroke-linecap: square"/>
     </g>
     <g id="line2d_74">
      <g>
       <use xlink:href="#m5cc6438119" x="291.501037" y="293.76" style="stroke: #000000; stroke-width: 0.6"/>
      </g>
     </g>
    </g>
    <g id="xtick_23">
     <g id="line2d_75">
      <path d="M 309.048179 293.76 
L 309.048179 3.456 
" clip-path="url(#p9307a61485)" style="fill: none; stroke: #b0b0b0; stroke-width: 0.8; stroke-linecap: square"/>
     </g>
     <g id="line2d_76">
      <g>
       <use xlink:href="#m5cc6438119" x="309.048179" y="293.76" style="stroke: #000000; stroke-width: 0.6"/>
      </g>
     </g>
    </g>
    <g id="xtick_24">
     <g id="line2d_77">
      <path d="M 321.498074 293.76 
L 321.498074 3.456 
" clip-path="url(#p9307a61485)" style="fill: none; stroke: #b0b0b0; stroke-width: 0.8; stroke-linecap: square"/>
     </g>
     <g id="line2d_78">
      <g>
       <use xlink:href="#m5cc6438119" x="321.498074" y="293.76" style="stroke: #000000; stroke-width: 0.6"/>
      </g>
     </g>
    </g>
    <g id="xtick_25">
     <g id="line2d_79">
      <path d="M 331.154963 293.76 
L 331.154963 3.456 
" clip-path="url(#p9307a61485)" style="fill: none; stroke: #b0b0b0; stroke-width: 0.8; stroke-linecap: square"/>
     </g>
     <g id="line2d_80">
      <g>
       <use xlink:href="#m5cc6438119" x="331.154963" y="293.76" style="stroke: #000000; stroke-width: 0.6"/>
      </g>
     </g>
    </g>
    <g id="xtick_26">
     <g id="line2d_81">
      <path d="M 339.045216 293.76 
L 339.045216 3.456 
" clip-path="url(#p9307a61485)" style="fill: none; stroke: #b0b0b0; stroke-width: 0.8; stroke-linecap: square"/>
     </g>
     <g id="line2d_82">
      <g>
       <use xlink:href="#m5cc6438119" x="339.045216" y="293.76" style="stroke: #000000; stroke-width: 0.6"/>
      </g>
     </g>
    </g>
    <g id="xtick_27">
     <g id="line2d_83">
      <path d="M 345.716329 293.76 
L 345.716329 3.456 
" clip-path="url(#p9307a61485)" style="fill: none; stroke: #b0b0b0; stroke-width: 0.8; stroke-linecap: square"/>
     </g>
     <g id="line2d_84">
      <g>
       <use xlink:href="#m5cc6438119" x="345.716329" y="293.76" style="stroke: #000000; stroke-width: 0.6"/>
      </g>
     </g>
    </g>
    <g id="xtick_28">
     <g id="line2d_85">
      <path d="M 351.495111 293.76 
L 351.495111 3.456 
" clip-path="url(#p9307a61485)" style="fill: none; stroke: #b0b0b0; stroke-width: 0.8; stroke-linecap: square"/>
     </g>
     <g id="line2d_86">
      <g>
       <use xlink:href="#m5cc6438119" x="351.495111" y="293.76" style="stroke: #000000; stroke-width: 0.6"/>
      </g>
     </g>
    </g>
    <g id="xtick_29">
     <g id="line2d_87">
      <path d="M 356.592358 293.76 
L 356.592358 3.456 
" clip-path="url(#p9307a61485)" style="fill: none; stroke: #b0b0b0; stroke-width: 0.8; stroke-linecap: square"/>
     </g>
     <g id="line2d_88">
      <g>
       <use xlink:href="#m5cc6438119" x="356.592358" y="293.76" style="stroke: #000000; stroke-width: 0.6"/>
      </g>
     </g>
    </g>
    <g id="xtick_30">
     <g id="line2d_89">
      <path d="M 391.149037 293.76 
L 391.149037 3.456 
" clip-path="url(#p9307a61485)" style="fill: none; stroke: #b0b0b0; stroke-width: 0.8; stroke-linecap: square"/>
     </g>
     <g id="line2d_90">
      <g>
       <use xlink:href="#m5cc6438119" x="391.149037" y="293.76" style="stroke: #000000; stroke-width: 0.6"/>
      </g>
     </g>
    </g>
    <g id="xtick_31">
     <g id="line2d_91">
      <path d="M 408.696179 293.76 
L 408.696179 3.456 
" clip-path="url(#p9307a61485)" style="fill: none; stroke: #b0b0b0; stroke-width: 0.8; stroke-linecap: square"/>
     </g>
     <g id="line2d_92">
      <g>
       <use xlink:href="#m5cc6438119" x="408.696179" y="293.76" style="stroke: #000000; stroke-width: 0.6"/>
      </g>
     </g>
    </g>
    <g id="xtick_32">
     <g id="line2d_93">
      <path d="M 421.146074 293.76 
L 421.146074 3.456 
" clip-path="url(#p9307a61485)" style="fill: none; stroke: #b0b0b0; stroke-width: 0.8; stroke-linecap: square"/>
     </g>
     <g id="line2d_94">
      <g>
       <use xlink:href="#m5cc6438119" x="421.146074" y="293.76" style="stroke: #000000; stroke-width: 0.6"/>
      </g>
     </g>
    </g>
    <g id="xtick_33">
     <g id="line2d_95">
      <path d="M 430.802963 293.76 
L 430.802963 3.456 
" clip-path="url(#p9307a61485)" style="fill: none; stroke: #b0b0b0; stroke-width: 0.8; stroke-linecap: square"/>
     </g>
     <g id="line2d_96">
      <g>
       <use xlink:href="#m5cc6438119" x="430.802963" y="293.76" style="stroke: #000000; stroke-width: 0.6"/>
      </g>
     </g>
    </g>
    <g id="xtick_34">
     <g id="line2d_97">
      <path d="M 438.693216 293.76 
L 438.693216 3.456 
" clip-path="url(#p9307a61485)" style="fill: none; stroke: #b0b0b0; stroke-width: 0.8; stroke-linecap: square"/>
     </g>
     <g id="line2d_98">
      <g>
       <use xlink:href="#m5cc6438119" x="438.693216" y="293.76" style="stroke: #000000; stroke-width: 0.6"/>
      </g>
     </g>
    </g>
    <g id="xtick_35">
     <g id="line2d_99">
      <path d="M 445.364329 293.76 
L 445.364329 3.456 
" clip-path="url(#p9307a61485)" style="fill: none; stroke: #b0b0b0; stroke-width: 0.8; stroke-linecap: square"/>
     </g>
     <g id="line2d_100">
      <g>
       <use xlink:href="#m5cc6438119" x="445.364329" y="293.76" style="stroke: #000000; stroke-width: 0.6"/>
      </g>
     </g>
    </g>
    <g id="xtick_36">
     <g id="line2d_101">
      <path d="M 451.143111 293.76 
L 451.143111 3.456 
" clip-path="url(#p9307a61485)" style="fill: none; stroke: #b0b0b0; stroke-width: 0.8; stroke-linecap: square"/>
     </g>
     <g id="line2d_102">
      <g>
       <use xlink:href="#m5cc6438119" x="451.143111" y="293.76" style="stroke: #000000; stroke-width: 0.6"/>
      </g>
     </g>
    </g>
    <g id="xtick_37">
     <g id="line2d_103">
      <path d="M 456.240358 293.76 
L 456.240358 3.456 
" clip-path="url(#p9307a61485)" style="fill: none; stroke: #b0b0b0; stroke-width: 0.8; stroke-linecap: square"/>
     </g>
     <g id="line2d_104">
      <g>
       <use xlink:href="#m5cc6438119" x="456.240358" y="293.76" style="stroke: #000000; stroke-width: 0.6"/>
      </g>
     </g>
    </g>
    <g id="text_6">
     <!-- log10 of FEvals / DIM -->
     <g transform="translate(156.430563 339.313125) scale(0.2 -0.2)">
      <defs>
       <path id="DejaVuSans-6c" d="M 603 4863 
L 1178 4863 
L 1178 0 
L 603 0 
L 603 4863 
z
" transform="scale(0.015625)"/>
       <path id="DejaVuSans-6f" d="M 1959 3097 
Q 1497 3097 1228 2736 
Q 959 2375 959 1747 
Q 959 1119 1226 758 
Q 1494 397 1959 397 
Q 2419 397 2687 759 
Q 2956 1122 2956 1747 
Q 2956 2369 2687 2733 
Q 2419 3097 1959 3097 
z
M 1959 3584 
Q 2709 3584 3137 3096 
Q 3566 2609 3566 1747 
Q 3566 888 3137 398 
Q 2709 -91 1959 -91 
Q 1206 -91 779 398 
Q 353 888 353 1747 
Q 353 2609 779 3096 
Q 1206 3584 1959 3584 
z
" transform="scale(0.015625)"/>
       <path id="DejaVuSans-67" d="M 2906 1791 
Q 2906 2416 2648 2759 
Q 2391 3103 1925 3103 
Q 1463 3103 1205 2759 
Q 947 2416 947 1791 
Q 947 1169 1205 825 
Q 1463 481 1925 481 
Q 2391 481 2648 825 
Q 2906 1169 2906 1791 
z
M 3481 434 
Q 3481 -459 3084 -895 
Q 2688 -1331 1869 -1331 
Q 1566 -1331 1297 -1286 
Q 1028 -1241 775 -1147 
L 775 -588 
Q 1028 -725 1275 -790 
Q 1522 -856 1778 -856 
Q 2344 -856 2625 -561 
Q 2906 -266 2906 331 
L 2906 616 
Q 2728 306 2450 153 
Q 2172 0 1784 0 
Q 1141 0 747 490 
Q 353 981 353 1791 
Q 353 2603 747 3093 
Q 1141 3584 1784 3584 
Q 2172 3584 2450 3431 
Q 2728 3278 2906 2969 
L 2906 3500 
L 3481 3500 
L 3481 434 
z
" transform="scale(0.015625)"/>
       <path id="DejaVuSans-20" transform="scale(0.015625)"/>
       <path id="DejaVuSans-66" d="M 2375 4863 
L 2375 4384 
L 1825 4384 
Q 1516 4384 1395 4259 
Q 1275 4134 1275 3809 
L 1275 3500 
L 2222 3500 
L 2222 3053 
L 1275 3053 
L 1275 0 
L 697 0 
L 697 3053 
L 147 3053 
L 147 3500 
L 697 3500 
L 697 3744 
Q 697 4328 969 4595 
Q 1241 4863 1831 4863 
L 2375 4863 
z
" transform="scale(0.015625)"/>
       <path id="DejaVuSans-46" d="M 628 4666 
L 3309 4666 
L 3309 4134 
L 1259 4134 
L 1259 2759 
L 3109 2759 
L 3109 2228 
L 1259 2228 
L 1259 0 
L 628 0 
L 628 4666 
z
" transform="scale(0.015625)"/>
       <path id="DejaVuSans-45" d="M 628 4666 
L 3578 4666 
L 3578 4134 
L 1259 4134 
L 1259 2753 
L 3481 2753 
L 3481 2222 
L 1259 2222 
L 1259 531 
L 3634 531 
L 3634 0 
L 628 0 
L 628 4666 
z
" transform="scale(0.015625)"/>
       <path id="DejaVuSans-76" d="M 191 3500 
L 800 3500 
L 1894 563 
L 2988 3500 
L 3597 3500 
L 2284 0 
L 1503 0 
L 191 3500 
z
" transform="scale(0.015625)"/>
       <path id="DejaVuSans-61" d="M 2194 1759 
Q 1497 1759 1228 1600 
Q 959 1441 959 1056 
Q 959 750 1161 570 
Q 1363 391 1709 391 
Q 2188 391 2477 730 
Q 2766 1069 2766 1631 
L 2766 1759 
L 2194 1759 
z
M 3341 1997 
L 3341 0 
L 2766 0 
L 2766 531 
Q 2569 213 2275 61 
Q 1981 -91 1556 -91 
Q 1019 -91 701 211 
Q 384 513 384 1019 
Q 384 1609 779 1909 
Q 1175 2209 1959 2209 
L 2766 2209 
L 2766 2266 
Q 2766 2663 2505 2880 
Q 2244 3097 1772 3097 
Q 1472 3097 1187 3025 
Q 903 2953 641 2809 
L 641 3341 
Q 956 3463 1253 3523 
Q 1550 3584 1831 3584 
Q 2591 3584 2966 3190 
Q 3341 2797 3341 1997 
z
" transform="scale(0.015625)"/>
       <path id="DejaVuSans-73" d="M 2834 3397 
L 2834 2853 
Q 2591 2978 2328 3040 
Q 2066 3103 1784 3103 
Q 1356 3103 1142 2972 
Q 928 2841 928 2578 
Q 928 2378 1081 2264 
Q 1234 2150 1697 2047 
L 1894 2003 
Q 2506 1872 2764 1633 
Q 3022 1394 3022 966 
Q 3022 478 2636 193 
Q 2250 -91 1575 -91 
Q 1294 -91 989 -36 
Q 684 19 347 128 
L 347 722 
Q 666 556 975 473 
Q 1284 391 1588 391 
Q 1994 391 2212 530 
Q 2431 669 2431 922 
Q 2431 1156 2273 1281 
Q 2116 1406 1581 1522 
L 1381 1569 
Q 847 1681 609 1914 
Q 372 2147 372 2553 
Q 372 3047 722 3315 
Q 1072 3584 1716 3584 
Q 2034 3584 2315 3537 
Q 2597 3491 2834 3397 
z
" transform="scale(0.015625)"/>
       <path id="DejaVuSans-2f" d="M 1625 4666 
L 2156 4666 
L 531 -594 
L 0 -594 
L 1625 4666 
z
" transform="scale(0.015625)"/>
       <path id="DejaVuSans-44" d="M 1259 4147 
L 1259 519 
L 2022 519 
Q 2988 519 3436 956 
Q 3884 1394 3884 2338 
Q 3884 3275 3436 3711 
Q 2988 4147 2022 4147 
L 1259 4147 
z
M 628 4666 
L 1925 4666 
Q 3281 4666 3915 4102 
Q 4550 3538 4550 2338 
Q 4550 1131 3912 565 
Q 3275 0 1925 0 
L 628 0 
L 628 4666 
z
" transform="scale(0.015625)"/>
       <path id="DejaVuSans-49" d="M 628 4666 
L 1259 4666 
L 1259 0 
L 628 0 
L 628 4666 
z
" transform="scale(0.015625)"/>
       <path id="DejaVuSans-4d" d="M 628 4666 
L 1569 4666 
L 2759 1491 
L 3956 4666 
L 4897 4666 
L 4897 0 
L 4281 0 
L 4281 4097 
L 3078 897 
L 2444 897 
L 1241 4097 
L 1241 0 
L 628 0 
L 628 4666 
z
" transform="scale(0.015625)"/>
      </defs>
      <use xlink:href="#DejaVuSans-6c"/>
      <use xlink:href="#DejaVuSans-6f" x="27.783203"/>
      <use xlink:href="#DejaVuSans-67" x="88.964844"/>
      <use xlink:href="#DejaVuSans-31" x="152.441406"/>
      <use xlink:href="#DejaVuSans-30" x="216.064453"/>
      <use xlink:href="#DejaVuSans-20" x="279.6875"/>
      <use xlink:href="#DejaVuSans-6f" x="311.474609"/>
      <use xlink:href="#DejaVuSans-66" x="372.65625"/>
      <use xlink:href="#DejaVuSans-20" x="407.861328"/>
      <use xlink:href="#DejaVuSans-46" x="439.648438"/>
      <use xlink:href="#DejaVuSans-45" x="497.167969"/>
      <use xlink:href="#DejaVuSans-76" x="560.351562"/>
      <use xlink:href="#DejaVuSans-61" x="619.53125"/>
      <use xlink:href="#DejaVuSans-6c" x="680.810547"/>
      <use xlink:href="#DejaVuSans-73" x="708.59375"/>
      <use xlink:href="#DejaVuSans-20" x="760.693359"/>
      <use xlink:href="#DejaVuSans-2f" x="792.480469"/>
      <use xlink:href="#DejaVuSans-20" x="826.171875"/>
      <use xlink:href="#DejaVuSans-44" x="857.958984"/>
      <use xlink:href="#DejaVuSans-49" x="934.960938"/>
      <use xlink:href="#DejaVuSans-4d" x="964.453125"/>
     </g>
    </g>
   </g>
   <g id="matplotlib.axis_2">
    <g id="ytick_1">
     <g id="line2d_105">
      <path d="M 62.208 293.76 
L 460.8 293.76 
" clip-path="url(#p9307a61485)" style="fill: none; stroke: #b0b0b0; stroke-width: 0.8; stroke-linecap: square"/>
     </g>
     <g id="line2d_106">
      <defs>
       <path id="m1e744c5e50" d="M 0 0 
L -3.5 0 
" style="stroke: #000000; stroke-width: 0.8"/>
      </defs>
      <g>
       <use xlink:href="#m1e744c5e50" x="62.208" y="293.76" style="stroke: #000000; stroke-width: 0.8"/>
      </g>
     </g>
     <g id="text_7">
      <!-- 0.0 -->
      <g transform="translate(29.763 299.83875) scale(0.16 -0.16)">
       <defs>
        <path id="DejaVuSans-2e" d="M 684 794 
L 1344 794 
L 1344 0 
L 684 0 
L 684 794 
z
" transform="scale(0.015625)"/>
       </defs>
       <use xlink:href="#DejaVuSans-30"/>
       <use xlink:href="#DejaVuSans-2e" x="63.623047"/>
       <use xlink:href="#DejaVuSans-30" x="95.410156"/>
      </g>
     </g>
    </g>
    <g id="ytick_2">
     <g id="line2d_107">
      <path d="M 62.208 236.274059 
L 460.8 236.274059 
" clip-path="url(#p9307a61485)" style="fill: none; stroke: #b0b0b0; stroke-width: 0.8; stroke-linecap: square"/>
     </g>
     <g id="line2d_108">
      <g>
       <use xlink:href="#m1e744c5e50" x="62.208" y="236.274059" style="stroke: #000000; stroke-width: 0.8"/>
      </g>
     </g>
     <g id="text_8">
      <!-- 0.2 -->
      <g transform="translate(29.763 242.352809) scale(0.16 -0.16)">
       <use xlink:href="#DejaVuSans-30"/>
       <use xlink:href="#DejaVuSans-2e" x="63.623047"/>
       <use xlink:href="#DejaVuSans-32" x="95.410156"/>
      </g>
     </g>
    </g>
    <g id="ytick_3">
     <g id="line2d_109">
      <path d="M 62.208 178.788119 
L 460.8 178.788119 
" clip-path="url(#p9307a61485)" style="fill: none; stroke: #b0b0b0; stroke-width: 0.8; stroke-linecap: square"/>
     </g>
     <g id="line2d_110">
      <g>
       <use xlink:href="#m1e744c5e50" x="62.208" y="178.788119" style="stroke: #000000; stroke-width: 0.8"/>
      </g>
     </g>
     <g id="text_9">
      <!-- 0.4 -->
      <g transform="translate(29.763 184.866869) scale(0.16 -0.16)">
       <use xlink:href="#DejaVuSans-30"/>
       <use xlink:href="#DejaVuSans-2e" x="63.623047"/>
       <use xlink:href="#DejaVuSans-34" x="95.410156"/>
      </g>
     </g>
    </g>
    <g id="ytick_4">
     <g id="line2d_111">
      <path d="M 62.208 121.302178 
L 460.8 121.302178 
" clip-path="url(#p9307a61485)" style="fill: none; stroke: #b0b0b0; stroke-width: 0.8; stroke-linecap: square"/>
     </g>
     <g id="line2d_112">
      <g>
       <use xlink:href="#m1e744c5e50" x="62.208" y="121.302178" style="stroke: #000000; stroke-width: 0.8"/>
      </g>
     </g>
     <g id="text_10">
      <!-- 0.6 -->
      <g transform="translate(29.763 127.380928) scale(0.16 -0.16)">
       <defs>
        <path id="DejaVuSans-36" d="M 2113 2584 
Q 1688 2584 1439 2293 
Q 1191 2003 1191 1497 
Q 1191 994 1439 701 
Q 1688 409 2113 409 
Q 2538 409 2786 701 
Q 3034 994 3034 1497 
Q 3034 2003 2786 2293 
Q 2538 2584 2113 2584 
z
M 3366 4563 
L 3366 3988 
Q 3128 4100 2886 4159 
Q 2644 4219 2406 4219 
Q 1781 4219 1451 3797 
Q 1122 3375 1075 2522 
Q 1259 2794 1537 2939 
Q 1816 3084 2150 3084 
Q 2853 3084 3261 2657 
Q 3669 2231 3669 1497 
Q 3669 778 3244 343 
Q 2819 -91 2113 -91 
Q 1303 -91 875 529 
Q 447 1150 447 2328 
Q 447 3434 972 4092 
Q 1497 4750 2381 4750 
Q 2619 4750 2861 4703 
Q 3103 4656 3366 4563 
z
" transform="scale(0.015625)"/>
       </defs>
       <use xlink:href="#DejaVuSans-30"/>
       <use xlink:href="#DejaVuSans-2e" x="63.623047"/>
       <use xlink:href="#DejaVuSans-36" x="95.410156"/>
      </g>
     </g>
    </g>
    <g id="ytick_5">
     <g id="line2d_113">
      <path d="M 62.208 63.816238 
L 460.8 63.816238 
" clip-path="url(#p9307a61485)" style="fill: none; stroke: #b0b0b0; stroke-width: 0.8; stroke-linecap: square"/>
     </g>
     <g id="line2d_114">
      <g>
       <use xlink:href="#m1e744c5e50" x="62.208" y="63.816238" style="stroke: #000000; stroke-width: 0.8"/>
      </g>
     </g>
     <g id="text_11">
      <!-- 0.8 -->
      <g transform="translate(29.763 69.894988) scale(0.16 -0.16)">
       <defs>
        <path id="DejaVuSans-38" d="M 2034 2216 
Q 1584 2216 1326 1975 
Q 1069 1734 1069 1313 
Q 1069 891 1326 650 
Q 1584 409 2034 409 
Q 2484 409 2743 651 
Q 3003 894 3003 1313 
Q 3003 1734 2745 1975 
Q 2488 2216 2034 2216 
z
M 1403 2484 
Q 997 2584 770 2862 
Q 544 3141 544 3541 
Q 544 4100 942 4425 
Q 1341 4750 2034 4750 
Q 2731 4750 3128 4425 
Q 3525 4100 3525 3541 
Q 3525 3141 3298 2862 
Q 3072 2584 2669 2484 
Q 3125 2378 3379 2068 
Q 3634 1759 3634 1313 
Q 3634 634 3220 271 
Q 2806 -91 2034 -91 
Q 1263 -91 848 271 
Q 434 634 434 1313 
Q 434 1759 690 2068 
Q 947 2378 1403 2484 
z
M 1172 3481 
Q 1172 3119 1398 2916 
Q 1625 2713 2034 2713 
Q 2441 2713 2670 2916 
Q 2900 3119 2900 3481 
Q 2900 3844 2670 4047 
Q 2441 4250 2034 4250 
Q 1625 4250 1398 4047 
Q 1172 3844 1172 3481 
z
" transform="scale(0.015625)"/>
       </defs>
       <use xlink:href="#DejaVuSans-30"/>
       <use xlink:href="#DejaVuSans-2e" x="63.623047"/>
       <use xlink:href="#DejaVuSans-38" x="95.410156"/>
      </g>
     </g>
    </g>
    <g id="ytick_6">
     <g id="line2d_115">
      <path d="M 62.208 6.330297 
L 460.8 6.330297 
" clip-path="url(#p9307a61485)" style="fill: none; stroke: #b0b0b0; stroke-width: 0.8; stroke-linecap: square"/>
     </g>
     <g id="line2d_116">
      <g>
       <use xlink:href="#m1e744c5e50" x="62.208" y="6.330297" style="stroke: #000000; stroke-width: 0.8"/>
      </g>
     </g>
     <g id="text_12">
      <!-- 1.0 -->
      <g transform="translate(29.763 12.409047) scale(0.16 -0.16)">
       <use xlink:href="#DejaVuSans-31"/>
       <use xlink:href="#DejaVuSans-2e" x="63.623047"/>
       <use xlink:href="#DejaVuSans-30" x="95.410156"/>
      </g>
     </g>
    </g>
    <g id="text_13">
     <!-- proportion of trials -->
     <g transform="translate(21.603625 241.61425) rotate(-90) scale(0.2 -0.2)">
      <defs>
       <path id="DejaVuSans-70" d="M 1159 525 
L 1159 -1331 
L 581 -1331 
L 581 3500 
L 1159 3500 
L 1159 2969 
Q 1341 3281 1617 3432 
Q 1894 3584 2278 3584 
Q 2916 3584 3314 3078 
Q 3713 2572 3713 1747 
Q 3713 922 3314 415 
Q 2916 -91 2278 -91 
Q 1894 -91 1617 61 
Q 1341 213 1159 525 
z
M 3116 1747 
Q 3116 2381 2855 2742 
Q 2594 3103 2138 3103 
Q 1681 3103 1420 2742 
Q 1159 2381 1159 1747 
Q 1159 1113 1420 752 
Q 1681 391 2138 391 
Q 2594 391 2855 752 
Q 3116 1113 3116 1747 
z
" transform="scale(0.015625)"/>
       <path id="DejaVuSans-72" d="M 2631 2963 
Q 2534 3019 2420 3045 
Q 2306 3072 2169 3072 
Q 1681 3072 1420 2755 
Q 1159 2438 1159 1844 
L 1159 0 
L 581 0 
L 581 3500 
L 1159 3500 
L 1159 2956 
Q 1341 3275 1631 3429 
Q 1922 3584 2338 3584 
Q 2397 3584 2469 3576 
Q 2541 3569 2628 3553 
L 2631 2963 
z
" transform="scale(0.015625)"/>
       <path id="DejaVuSans-74" d="M 1172 4494 
L 1172 3500 
L 2356 3500 
L 2356 3053 
L 1172 3053 
L 1172 1153 
Q 1172 725 1289 603 
Q 1406 481 1766 481 
L 2356 481 
L 2356 0 
L 1766 0 
Q 1100 0 847 248 
Q 594 497 594 1153 
L 594 3053 
L 172 3053 
L 172 3500 
L 594 3500 
L 594 4494 
L 1172 4494 
z
" transform="scale(0.015625)"/>
       <path id="DejaVuSans-69" d="M 603 3500 
L 1178 3500 
L 1178 0 
L 603 0 
L 603 3500 
z
M 603 4863 
L 1178 4863 
L 1178 4134 
L 603 4134 
L 603 4863 
z
" transform="scale(0.015625)"/>
       <path id="DejaVuSans-6e" d="M 3513 2113 
L 3513 0 
L 2938 0 
L 2938 2094 
Q 2938 2591 2744 2837 
Q 2550 3084 2163 3084 
Q 1697 3084 1428 2787 
Q 1159 2491 1159 1978 
L 1159 0 
L 581 0 
L 581 3500 
L 1159 3500 
L 1159 2956 
Q 1366 3272 1645 3428 
Q 1925 3584 2291 3584 
Q 2894 3584 3203 3211 
Q 3513 2838 3513 2113 
z
" transform="scale(0.015625)"/>
      </defs>
      <use xlink:href="#DejaVuSans-70"/>
      <use xlink:href="#DejaVuSans-72" x="63.476562"/>
      <use xlink:href="#DejaVuSans-6f" x="102.339844"/>
      <use xlink:href="#DejaVuSans-70" x="163.521484"/>
      <use xlink:href="#DejaVuSans-6f" x="226.998047"/>
      <use xlink:href="#DejaVuSans-72" x="288.179688"/>
      <use xlink:href="#DejaVuSans-74" x="329.292969"/>
      <use xlink:href="#DejaVuSans-69" x="368.501953"/>
      <use xlink:href="#DejaVuSans-6f" x="396.285156"/>
      <use xlink:href="#DejaVuSans-6e" x="457.466797"/>
      <use xlink:href="#DejaVuSans-20" x="520.845703"/>
      <use xlink:href="#DejaVuSans-6f" x="552.632812"/>
      <use xlink:href="#DejaVuSans-66" x="613.814453"/>
      <use xlink:href="#DejaVuSans-20" x="649.019531"/>
      <use xlink:href="#DejaVuSans-74" x="680.806641"/>
      <use xlink:href="#DejaVuSans-72" x="720.015625"/>
      <use xlink:href="#DejaVuSans-69" x="761.128906"/>
      <use xlink:href="#DejaVuSans-61" x="788.912109"/>
      <use xlink:href="#DejaVuSans-6c" x="850.191406"/>
      <use xlink:href="#DejaVuSans-73" x="877.974609"/>
     </g>
    </g>
   </g>
   <g id="line2d_117">
    <path d="M 10.104179 293.76 
L 10.104179 274.59802 
L 205.791708 274.59802 
L 205.791708 255.43604 
L 230.720889 255.43604 
L 230.720889 236.274059 
L 247.943639 236.274059 
L 247.943639 217.112079 
L 288.313867 217.112079 
L 288.313867 197.950099 
L 302.871906 197.950099 
L 302.871906 178.788119 
L 302.871906 178.788119 
L 302.871906 178.788119 
L 460.8 178.788119 
" clip-path="url(#p9307a61485)" style="fill: none; stroke: #000000; stroke-width: 1.5; stroke-linecap: square"/>
   </g>
   <g id="line2d_118">
    <path clip-path="url(#p9307a61485)" style="fill: none; stroke: #000000; stroke-width: 1.5; stroke-linecap: square"/>
   </g>
   <g id="line2d_119"/>
   <g id="line2d_120"/>
   <g id="line2d_121"/>
   <g id="line2d_122">
    <path d="M 460.8 293.76 
L 460.8 3.456 
" clip-path="url(#p9307a61485)" style="fill: none; stroke: #000000; stroke-width: 1.5; stroke-linecap: square"/>
   </g>
   <g id="patch_3">
    <path d="M 62.208 293.76 
L 62.208 3.456 
" style="fill: none; stroke: #000000; stroke-width: 0.8; stroke-linejoin: miter; stroke-linecap: square"/>
   </g>
   <g id="patch_4">
    <path d="M 460.8 293.76 
L 460.8 3.456 
" style="fill: none; stroke: #000000; stroke-width: 0.8; stroke-linejoin: miter; stroke-linecap: square"/>
   </g>
   <g id="patch_5">
    <path d="M 62.208 293.76 
L 460.8 293.76 
" style="fill: none; stroke: #000000; stroke-width: 0.8; stroke-linejoin: miter; stroke-linecap: square"/>
   </g>
   <g id="patch_6">
    <path d="M 62.208 3.456 
L 460.8 3.456 
" style="fill: none; stroke: #000000; stroke-width: 0.8; stroke-linejoin: miter; stroke-linecap: square"/>
   </g>
   <g id="text_14">
    <!-- {f1}, 10-D -->
    <g transform="translate(208.507125 24.458955) scale(0.2 -0.2)">
     <defs>
      <path id="DejaVuSans-7b" d="M 3272 -594 
L 3272 -1044 
L 3078 -1044 
Q 2300 -1044 2036 -812 
Q 1772 -581 1772 109 
L 1772 856 
Q 1772 1328 1603 1509 
Q 1434 1691 991 1691 
L 800 1691 
L 800 2138 
L 991 2138 
Q 1438 2138 1605 2317 
Q 1772 2497 1772 2963 
L 1772 3713 
Q 1772 4403 2036 4633 
Q 2300 4863 3078 4863 
L 3272 4863 
L 3272 4416 
L 3059 4416 
Q 2619 4416 2484 4278 
Q 2350 4141 2350 3700 
L 2350 2925 
Q 2350 2434 2208 2212 
Q 2066 1991 1722 1913 
Q 2069 1828 2209 1606 
Q 2350 1384 2350 897 
L 2350 122 
Q 2350 -319 2484 -456 
Q 2619 -594 3059 -594 
L 3272 -594 
z
" transform="scale(0.015625)"/>
      <path id="DejaVuSans-7d" d="M 800 -594 
L 1019 -594 
Q 1456 -594 1589 -459 
Q 1722 -325 1722 122 
L 1722 897 
Q 1722 1384 1862 1606 
Q 2003 1828 2350 1913 
Q 2003 1991 1862 2212 
Q 1722 2434 1722 2925 
L 1722 3700 
Q 1722 4144 1589 4280 
Q 1456 4416 1019 4416 
L 800 4416 
L 800 4863 
L 997 4863 
Q 1775 4863 2036 4633 
Q 2297 4403 2297 3713 
L 2297 2963 
Q 2297 2497 2465 2317 
Q 2634 2138 3078 2138 
L 3272 2138 
L 3272 1691 
L 3078 1691 
Q 2634 1691 2465 1509 
Q 2297 1328 2297 856 
L 2297 109 
Q 2297 -581 2036 -812 
Q 1775 -1044 997 -1044 
L 800 -1044 
L 800 -594 
z
" transform="scale(0.015625)"/>
      <path id="DejaVuSans-2c" d="M 750 794 
L 1409 794 
L 1409 256 
L 897 -744 
L 494 -744 
L 750 256 
L 750 794 
z
" transform="scale(0.015625)"/>
      <path id="DejaVuSans-2d" d="M 313 2009 
L 1997 2009 
L 1997 1497 
L 313 1497 
L 313 2009 
z
" transform="scale(0.015625)"/>
     </defs>
     <use xlink:href="#DejaVuSans-7b"/>
     <use xlink:href="#DejaVuSans-66" x="63.623047"/>
     <use xlink:href="#DejaVuSans-31" x="98.828125"/>
     <use xlink:href="#DejaVuSans-7d" x="162.451172"/>
     <use xlink:href="#DejaVuSans-2c" x="226.074219"/>
     <use xlink:href="#DejaVuSans-20" x="257.861328"/>
     <use xlink:href="#DejaVuSans-31" x="289.648438"/>
     <use xlink:href="#DejaVuSans-30" x="353.271484"/>
     <use xlink:href="#DejaVuSans-2d" x="416.894531"/>
     <use xlink:href="#DejaVuSans-44" x="452.978516"/>
    </g>
   </g>
   <g id="text_15">
    <!-- absolute targets -->
    <g transform="translate(62.208 609.932673) scale(0.14 -0.14)">
     <defs>
      <path id="DejaVuSans-62" d="M 3116 1747 
Q 3116 2381 2855 2742 
Q 2594 3103 2138 3103 
Q 1681 3103 1420 2742 
Q 1159 2381 1159 1747 
Q 1159 1113 1420 752 
Q 1681 391 2138 391 
Q 2594 391 2855 752 
Q 3116 1113 3116 1747 
z
M 1159 2969 
Q 1341 3281 1617 3432 
Q 1894 3584 2278 3584 
Q 2916 3584 3314 3078 
Q 3713 2572 3713 1747 
Q 3713 922 3314 415 
Q 2916 -91 2278 -91 
Q 1894 -91 1617 61 
Q 1341 213 1159 525 
L 1159 0 
L 581 0 
L 581 4863 
L 1159 4863 
L 1159 2969 
z
" transform="scale(0.015625)"/>
      <path id="DejaVuSans-75" d="M 544 1381 
L 544 3500 
L 1119 3500 
L 1119 1403 
Q 1119 906 1312 657 
Q 1506 409 1894 409 
Q 2359 409 2629 706 
Q 2900 1003 2900 1516 
L 2900 3500 
L 3475 3500 
L 3475 0 
L 2900 0 
L 2900 538 
Q 2691 219 2414 64 
Q 2138 -91 1772 -91 
Q 1169 -91 856 284 
Q 544 659 544 1381 
z
M 1991 3584 
L 1991 3584 
z
" transform="scale(0.015625)"/>
      <path id="DejaVuSans-65" d="M 3597 1894 
L 3597 1613 
L 953 1613 
Q 991 1019 1311 708 
Q 1631 397 2203 397 
Q 2534 397 2845 478 
Q 3156 559 3463 722 
L 3463 178 
Q 3153 47 2828 -22 
Q 2503 -91 2169 -91 
Q 1331 -91 842 396 
Q 353 884 353 1716 
Q 353 2575 817 3079 
Q 1281 3584 2069 3584 
Q 2775 3584 3186 3129 
Q 3597 2675 3597 1894 
z
M 3022 2063 
Q 3016 2534 2758 2815 
Q 2500 3097 2075 3097 
Q 1594 3097 1305 2825 
Q 1016 2553 972 2059 
L 3022 2063 
z
" transform="scale(0.015625)"/>
     </defs>
     <use xlink:href="#DejaVuSans-61"/>
     <use xlink:href="#DejaVuSans-62" x="61.279297"/>
     <use xlink:href="#DejaVuSans-73" x="124.755859"/>
     <use xlink:href="#DejaVuSans-6f" x="176.855469"/>
     <use xlink:href="#DejaVuSans-6c" x="238.037109"/>
     <use xlink:href="#DejaVuSans-75" x="265.820312"/>
     <use xlink:href="#DejaVuSans-74" x="329.199219"/>
     <use xlink:href="#DejaVuSans-65" x="368.408203"/>
     <use xlink:href="#DejaVuSans-20" x="429.931641"/>
     <use xlink:href="#DejaVuSans-74" x="461.71875"/>
     <use xlink:href="#DejaVuSans-61" x="500.927734"/>
     <use xlink:href="#DejaVuSans-72" x="562.207031"/>
     <use xlink:href="#DejaVuSans-67" x="601.570312"/>
     <use xlink:href="#DejaVuSans-65" x="665.046875"/>
     <use xlink:href="#DejaVuSans-74" x="726.570312"/>
     <use xlink:href="#DejaVuSans-73" x="765.779297"/>
    </g>
   </g>
   <g id="text_16">
    <!-- v2.6.4 -->
    <g style="fill: #808080" transform="translate(245.82275 288.777272) scale(0.1 -0.1)">
     <use xlink:href="#DejaVuSans-76"/>
     <use xlink:href="#DejaVuSans-32" x="59.179688"/>
     <use xlink:href="#DejaVuSans-2e" x="122.802734"/>
     <use xlink:href="#DejaVuSans-36" x="154.589844"/>
     <use xlink:href="#DejaVuSans-2e" x="218.212891"/>
     <use xlink:href="#DejaVuSans-34" x="250"/>
    </g>
   </g>
   <g id="text_17">
    <!-- F1 Sphere -->
    <g transform="translate(200.8815 -2.544) scale(0.24 -0.24)">
     <defs>
      <path id="DejaVuSans-53" d="M 3425 4513 
L 3425 3897 
Q 3066 4069 2747 4153 
Q 2428 4238 2131 4238 
Q 1616 4238 1336 4038 
Q 1056 3838 1056 3469 
Q 1056 3159 1242 3001 
Q 1428 2844 1947 2747 
L 2328 2669 
Q 3034 2534 3370 2195 
Q 3706 1856 3706 1288 
Q 3706 609 3251 259 
Q 2797 -91 1919 -91 
Q 1588 -91 1214 -16 
Q 841 59 441 206 
L 441 856 
Q 825 641 1194 531 
Q 1563 422 1919 422 
Q 2459 422 2753 634 
Q 3047 847 3047 1241 
Q 3047 1584 2836 1778 
Q 2625 1972 2144 2069 
L 1759 2144 
Q 1053 2284 737 2584 
Q 422 2884 422 3419 
Q 422 4038 858 4394 
Q 1294 4750 2059 4750 
Q 2388 4750 2728 4690 
Q 3069 4631 3425 4513 
z
" transform="scale(0.015625)"/>
      <path id="DejaVuSans-68" d="M 3513 2113 
L 3513 0 
L 2938 0 
L 2938 2094 
Q 2938 2591 2744 2837 
Q 2550 3084 2163 3084 
Q 1697 3084 1428 2787 
Q 1159 2491 1159 1978 
L 1159 0 
L 581 0 
L 581 4863 
L 1159 4863 
L 1159 2956 
Q 1366 3272 1645 3428 
Q 1925 3584 2291 3584 
Q 2894 3584 3203 3211 
Q 3513 2838 3513 2113 
z
" transform="scale(0.015625)"/>
     </defs>
     <use xlink:href="#DejaVuSans-46"/>
     <use xlink:href="#DejaVuSans-31" x="57.519531"/>
     <use xlink:href="#DejaVuSans-20" x="121.142578"/>
     <use xlink:href="#DejaVuSans-53" x="152.929688"/>
     <use xlink:href="#DejaVuSans-70" x="216.40625"/>
     <use xlink:href="#DejaVuSans-68" x="279.882812"/>
     <use xlink:href="#DejaVuSans-65" x="343.261719"/>
     <use xlink:href="#DejaVuSans-72" x="404.785156"/>
     <use xlink:href="#DejaVuSans-65" x="443.648438"/>
    </g>
   </g>
   <g id="legend_1">
    <g id="patch_7">
     <path d="M 76.208 210.3205 
L 205.429875 210.3205 
Q 209.429875 210.3205 209.429875 206.3205 
L 209.429875 90.8955 
Q 209.429875 86.8955 205.429875 86.8955 
L 76.208 86.8955 
Q 72.208 86.8955 72.208 90.8955 
L 72.208 206.3205 
Q 72.208 210.3205 76.208 210.3205 
z
" style="fill: #ffffff; opacity: 0.2; stroke: #cccccc; stroke-linejoin: miter"/>
    </g>
    <g id="line2d_123">
     <path d="M 80.208 103.092375 
L 80.208 103.092375 
L 100.208 103.092375 
L 100.208 103.092375 
L 120.208 103.092375 
" style="fill: none; stroke: #000000; stroke-width: 1.5; stroke-linecap: square"/>
    </g>
    <g id="text_18">
     <!-- 1: 1/1 -->
     <g transform="translate(136.208 110.092375) scale(0.2 -0.2)">
      <defs>
       <path id="DejaVuSans-3a" d="M 750 794 
L 1409 794 
L 1409 0 
L 750 0 
L 750 794 
z
M 750 3309 
L 1409 3309 
L 1409 2516 
L 750 2516 
L 750 3309 
z
" transform="scale(0.015625)"/>
      </defs>
      <use xlink:href="#DejaVuSans-31"/>
      <use xlink:href="#DejaVuSans-3a" x="63.623047"/>
      <use xlink:href="#DejaVuSans-20" x="97.314453"/>
      <use xlink:href="#DejaVuSans-31" x="129.101562"/>
      <use xlink:href="#DejaVuSans-2f" x="192.724609"/>
      <use xlink:href="#DejaVuSans-31" x="226.416016"/>
     </g>
    </g>
    <g id="line2d_124">
     <path d="M 80.208 132.448625 
L 100.208 132.448625 
L 120.208 132.448625 
" style="fill: none; stroke: #00bfbf; stroke-width: 1.5; stroke-linecap: square"/>
    </g>
    <g id="text_19">
     <!-- -1: 0/1 -->
     <g transform="translate(136.208 139.448625) scale(0.2 -0.2)">
      <use xlink:href="#DejaVuSans-2d"/>
      <use xlink:href="#DejaVuSans-31" x="36.083984"/>
      <use xlink:href="#DejaVuSans-3a" x="99.707031"/>
      <use xlink:href="#DejaVuSans-20" x="133.398438"/>
      <use xlink:href="#DejaVuSans-30" x="165.185547"/>
      <use xlink:href="#DejaVuSans-2f" x="228.808594"/>
      <use xlink:href="#DejaVuSans-31" x="262.5"/>
     </g>
    </g>
    <g id="line2d_125">
     <path d="M 80.208 161.804875 
L 100.208 161.804875 
L 120.208 161.804875 
" style="fill: none; stroke: #bf00bf; stroke-width: 1.5; stroke-linecap: square"/>
    </g>
    <g id="text_20">
     <!-- -4: 0/1 -->
     <g transform="translate(136.208 168.804875) scale(0.2 -0.2)">
      <use xlink:href="#DejaVuSans-2d"/>
      <use xlink:href="#DejaVuSans-34" x="36.083984"/>
      <use xlink:href="#DejaVuSans-3a" x="99.707031"/>
      <use xlink:href="#DejaVuSans-20" x="133.398438"/>
      <use xlink:href="#DejaVuSans-30" x="165.185547"/>
      <use xlink:href="#DejaVuSans-2f" x="228.808594"/>
      <use xlink:href="#DejaVuSans-31" x="262.5"/>
     </g>
    </g>
    <g id="line2d_126">
     <path d="M 80.208 191.161125 
L 100.208 191.161125 
L 120.208 191.161125 
" style="fill: none; stroke: #ff0000; stroke-width: 3; stroke-linecap: square"/>
    </g>
    <g id="text_21">
     <!-- -8: 0/1 -->
     <g transform="translate(136.208 198.161125) scale(0.2 -0.2)">
      <use xlink:href="#DejaVuSans-2d"/>
      <use xlink:href="#DejaVuSans-38" x="36.083984"/>
      <use xlink:href="#DejaVuSans-3a" x="99.707031"/>
      <use xlink:href="#DejaVuSans-20" x="133.398438"/>
      <use xlink:href="#DejaVuSans-30" x="165.185547"/>
      <use xlink:href="#DejaVuSans-2f" x="228.808594"/>
      <use xlink:href="#DejaVuSans-31" x="262.5"/>
     </g>
    </g>
   </g>
  </g>
 </g>
 <defs>
  <clipPath id="p9307a61485">
   <rect x="62.208" y="3.456" width="398.592" height="290.304"/>
  </clipPath>
 </defs>
</svg>
