<?xml version="1.0" encoding="utf-8" standalone="no"?>
<!DOCTYPE svg PUBLIC "-//W3C//DTD SVG 1.1//EN"
  "http://www.w3.org/Graphics/SVG/1.1/DTD/svg11.dtd">
<svg xmlns:xlink="http://www.w3.org/1999/xlink" width="460.8pt" height="345.6pt" viewBox="0 0 460.8 345.6" xmlns="http://www.w3.org/2000/svg" version="1.1">
 <metadata>
  <rdf:RDF xmlns:dc="http://purl.org/dc/elements/1.1/" xmlns:cc="http://creativecommons.org/ns#" xmlns:rdf="http://www.w3.org/1999/02/22-rdf-syntax-ns#">
   <cc:Work>
    <dc:type rdf:resource="http://purl.org/dc/dcmitype/StillImage"/>
    <dc:date>2024-10-16T16:36:05.508782</dc:date>
    <dc:format>image/svg+xml</dc:format>
    <dc:creator>
     <cc:Agent>
      <dc:title>Matplotlib v3.9.2, https://matplotlib.org/</dc:title>
     </cc:Agent>
    </dc:creator>
   </cc:Work>
  </rdf:RDF>
 </metadata>
 <defs>
  <style type="text/css">*{stroke-linejoin: round; stroke-linecap: butt}</style>
 </defs>
 <g id="figure_1">
  <g id="patch_1">
   <path d="M 0 345.6 
L 460.8 345.6 
L 460.8 0 
L 0 0 
z
" style="fill: #ffffff"/>
  </g>
  <g id="axes_1">
   <g id="patch_2">
    <path d="M 62.208 293.76 
L 460.8 293.76 
L 460.8 3.456 
L 62.208 3.456 
z
" style="fill: #ffffff"/>
   </g>
   <g id="line2d_1"/>
   <g id="line2d_2">
    <path d="M 253.803746 293.76 
L 253.803746 284.17901 
L 254.035793 284.17901 
L 254.035793 274.59802 
L 254.445273 274.59802 
L 254.445273 265.01703 
L 255.15267 265.01703 
L 255.15267 255.43604 
L 255.302762 255.43604 
L 255.302762 245.85505 
L 255.340204 245.85505 
L 255.340204 236.274059 
L 255.439891 236.274059 
L 255.439891 226.693069 
L 255.452336 226.693069 
L 255.452336 217.112079 
L 255.502079 217.112079 
L 255.502079 207.531089 
L 255.774649 207.531089 
L 255.774649 197.950099 
L 255.799343 197.950099 
L 255.799343 188.369109 
L 255.959513 188.369109 
L 255.959513 178.788119 
L 256.070054 178.788119 
L 256.070054 169.207129 
L 256.09458 169.207129 
L 256.09458 159.626139 
L 256.131343 159.626139 
L 256.131343 150.045149 
L 256.326889 150.045149 
L 256.326889 140.464158 
L 256.326889 140.464158 
L 256.326889 130.883168 
L 256.860127 130.883168 
L 256.860127 121.302178 
L 256.944358 121.302178 
L 256.944358 111.721188 
L 256.968393 111.721188 
L 256.968393 102.140198 
L 257.040421 102.140198 
L 257.040421 92.559208 
L 257.36307 92.559208 
L 257.36307 82.978218 
L 257.541285 82.978218 
L 257.541285 73.397228 
L 257.636034 73.397228 
L 257.636034 63.816238 
L 257.659689 63.816238 
L 257.659689 54.235248 
L 258.165166 54.235248 
L 258.165166 44.654257 
L 258.502766 44.654257 
L 258.502766 35.073267 
L 258.572287 35.073267 
L 258.572287 25.492277 
L 258.837753 25.492277 
L 258.837753 15.911287 
L 259.375215 15.911287 
L 259.375215 6.330297 
L 259.375215 6.330297 
L 259.375215 6.330297 
L 460.8 6.330297 
" clip-path="url(#p98a455de5f)" style="fill: none; stroke: #f5deb3; stroke-width: 1.5; stroke-linecap: square"/>
   </g>
   <g id="line2d_3"/>
   <g id="line2d_4"/>
   <g id="line2d_5">
    <path d="M 272.229501 293.76 
L 272.229501 274.59802 
L 272.313861 274.59802 
L 272.313861 255.43604 
L 272.423283 255.43604 
L 272.423283 236.274059 
L 272.456896 236.274059 
L 272.456896 217.112079 
L 273.040934 217.112079 
L 273.040934 197.950099 
L 273.30532 197.950099 
L 273.30532 178.788119 
L 273.395831 178.788119 
L 273.395831 159.626139 
L 273.428698 159.626139 
L 273.428698 140.464158 
L 273.43691 140.464158 
L 273.43691 121.302178 
L 273.445121 121.302178 
L 273.445121 102.140198 
L 273.576287 102.140198 
L 273.576287 82.978218 
L 274.12935 82.978218 
L 274.12935 63.816238 
L 274.193954 63.816238 
L 274.193954 44.654257 
L 275.309186 44.654257 
L 275.309186 25.492277 
L 277.013178 25.492277 
L 277.013178 6.330297 
L 277.013178 6.330297 
L 277.013178 6.330297 
L 460.8 6.330297 
" clip-path="url(#p98a455de5f)" style="fill: none; stroke: #f5deb3; stroke-width: 1.5; stroke-linecap: square"/>
   </g>
   <g id="line2d_6">
    <path d="M 245.162471 293.76 
L 245.162471 274.59802 
L 245.414263 274.59802 
L 245.414263 255.43604 
L 247.061481 255.43604 
L 247.061481 236.274059 
L 247.22732 236.274059 
L 247.22732 217.112079 
L 247.272439 217.112079 
L 247.272439 197.950099 
L 248.282718 197.950099 
L 248.282718 178.788119 
L 248.750103 178.788119 
L 248.750103 159.626139 
L 249.255592 159.626139 
L 249.255592 140.464158 
L 249.255592 140.464158 
L 249.255592 121.302178 
L 249.527548 121.302178 
L 249.527548 102.140198 
L 249.527548 102.140198 
L 249.527548 82.978218 
L 249.641546 82.978218 
L 249.641546 63.816238 
L 249.726848 63.816238 
L 249.726848 44.654257 
L 250.848429 44.654257 
L 250.848429 25.492277 
L 252.143619 25.492277 
L 252.143619 6.330297 
L 252.143619 6.330297 
L 252.143619 6.330297 
L 460.8 6.330297 
" clip-path="url(#p98a455de5f)" style="fill: none; stroke: #f5deb3; stroke-width: 1.5; stroke-linecap: square"/>
   </g>
   <g id="line2d_7">
    <path d="M 93.79822 293.76 
L 93.79822 284.17901 
L 93.79822 284.17901 
L 93.79822 274.59802 
L 93.79822 274.59802 
L 93.79822 265.01703 
L 93.79822 265.01703 
L 93.79822 255.43604 
L 93.79822 255.43604 
L 93.79822 245.85505 
L 93.79822 245.85505 
L 93.79822 236.274059 
L 93.79822 236.274059 
L 93.79822 226.693069 
L 93.79822 226.693069 
L 93.79822 217.112079 
L 93.79822 217.112079 
L 93.79822 207.531089 
L 93.79822 207.531089 
L 93.79822 197.950099 
L 93.79822 197.950099 
L 93.79822 188.369109 
L 93.79822 188.369109 
L 93.79822 178.788119 
L 93.79822 178.788119 
L 93.79822 169.207129 
L 93.79822 169.207129 
L 93.79822 159.626139 
L 93.79822 159.626139 
L 93.79822 150.045149 
L 93.79822 150.045149 
L 93.79822 140.464158 
L 93.79822 140.464158 
L 93.79822 130.883168 
L 93.79822 130.883168 
L 93.79822 121.302178 
L 93.79822 121.302178 
L 93.79822 111.721188 
L 93.79822 111.721188 
L 93.79822 102.140198 
L 93.79822 102.140198 
L 93.79822 92.559208 
L 93.79822 92.559208 
L 93.79822 82.978218 
L 93.79822 82.978218 
L 93.79822 73.397228 
L 93.79822 73.397228 
L 93.79822 63.816238 
L 93.79822 63.816238 
L 93.79822 54.235248 
L 93.79822 54.235248 
L 93.79822 44.654257 
L 111.17121 44.654257 
L 111.17121 35.073267 
L 111.17121 35.073267 
L 111.17121 25.492277 
L 111.17121 25.492277 
L 111.17121 15.911287 
L 111.17121 15.911287 
L 111.17121 6.330297 
L 111.17121 6.330297 
L 111.17121 6.330297 
L 460.8 6.330297 
" clip-path="url(#p98a455de5f)" style="fill: none; stroke: #f5deb3; stroke-width: 1.5; stroke-linecap: square"/>
   </g>
   <g id="line2d_8"/>
   <g id="line2d_9">
    <path d="M 221.524276 293.76 
L 221.524276 274.59802 
L 222.227097 274.59802 
L 222.227097 255.43604 
L 222.360956 255.43604 
L 222.360956 236.274059 
L 222.733573 236.274059 
L 222.733573 217.112079 
L 222.97143 217.112079 
L 222.97143 197.950099 
L 223.15553 197.950099 
L 223.15553 178.788119 
L 223.806709 178.788119 
L 223.806709 159.626139 
L 224.4737 159.626139 
L 224.4737 140.464158 
L 224.954697 140.464158 
L 224.954697 121.302178 
L 225.62915 121.302178 
L 225.62915 102.140198 
L 225.826986 102.140198 
L 225.826986 82.978218 
L 226.195509 82.978218 
L 226.195509 63.816238 
L 226.609409 63.816238 
L 226.609409 44.654257 
L 227.945507 44.654257 
L 227.945507 25.492277 
L 228.737031 25.492277 
L 228.737031 6.330297 
L 228.737031 6.330297 
L 228.737031 6.330297 
L 460.8 6.330297 
" clip-path="url(#p98a455de5f)" style="fill: none; stroke: #f5deb3; stroke-width: 1.5; stroke-linecap: square"/>
   </g>
   <g id="line2d_10"/>
   <g id="line2d_11">
    <path d="M 346.744209 293.76 
L 346.744209 274.59802 
L 349.109863 274.59802 
L 349.109863 255.43604 
L 349.621278 255.43604 
L 349.621278 236.274059 
L 350.094604 236.274059 
L 350.094604 217.112079 
L 350.11974 217.112079 
L 350.11974 197.950099 
L 350.773716 197.950099 
L 350.773716 178.788119 
L 350.952114 178.788119 
L 350.952114 159.626139 
L 351.002755 159.626139 
L 351.002755 140.464158 
L 351.024635 140.464158 
L 351.024635 121.302178 
L 351.97658 121.302178 
L 351.97658 102.140198 
L 352.379935 102.140198 
L 352.379935 82.978218 
L 352.779566 82.978218 
L 352.779566 63.816238 
L 353.549873 63.816238 
L 353.549873 44.654257 
L 355.300205 44.654257 
L 355.300205 25.492277 
L 355.357141 25.492277 
L 355.357141 6.330297 
L 355.357141 6.330297 
L 355.357141 6.330297 
L 460.8 6.330297 
" clip-path="url(#p98a455de5f)" style="fill: none; stroke: #f5deb3; stroke-width: 1.5; stroke-linecap: square"/>
   </g>
   <g id="line2d_12"/>
   <g id="line2d_13">
    <path d="M 93.79822 293.76 
L 93.79822 274.59802 
L 93.79822 274.59802 
L 93.79822 255.43604 
L 93.79822 255.43604 
L 93.79822 236.274059 
L 93.79822 236.274059 
L 93.79822 217.112079 
L 93.79822 217.112079 
L 93.79822 197.950099 
L 93.79822 197.950099 
L 93.79822 178.788119 
L 93.79822 178.788119 
L 93.79822 159.626139 
L 93.79822 159.626139 
L 93.79822 140.464158 
L 93.79822 140.464158 
L 93.79822 121.302178 
L 93.79822 121.302178 
L 93.79822 102.140198 
L 93.79822 102.140198 
L 93.79822 82.978218 
L 93.79822 82.978218 
L 93.79822 63.816238 
L 93.79822 63.816238 
L 93.79822 44.654257 
L 93.79822 44.654257 
L 93.79822 25.492277 
L 93.79822 25.492277 
L 93.79822 6.330297 
L 93.79822 6.330297 
L 93.79822 6.330297 
L 460.8 6.330297 
" clip-path="url(#p98a455de5f)" style="fill: none; stroke: #f5deb3; stroke-width: 1.5; stroke-linecap: square"/>
   </g>
   <g id="line2d_14">
    <path d="M 446.032254 293.76 
L 446.032254 274.59802 
L 447.809244 274.59802 
L 447.809244 255.43604 
L 448.269246 255.43604 
L 448.269246 236.274059 
L 449.360271 236.274059 
L 449.360271 217.112079 
L 449.770672 217.112079 
L 449.770672 197.950099 
L 450.216059 197.950099 
L 450.216059 178.788119 
L 450.429966 178.788119 
L 450.429966 159.626139 
L 450.681384 159.626139 
L 450.681384 140.464158 
L 451.327859 140.464158 
L 451.327859 121.302178 
L 451.430216 121.302178 
L 451.430216 102.140198 
L 451.975831 102.140198 
L 451.975831 82.978218 
L 451.984585 82.978218 
L 451.984585 63.816238 
L 452.305299 63.816238 
L 452.305299 44.654257 
L 456.346975 44.654257 
L 456.346975 25.492277 
L 460.876316 25.492277 
L 460.876316 6.330297 
L 460.876316 6.330297 
" clip-path="url(#p98a455de5f)" style="fill: none; stroke: #f5deb3; stroke-width: 1.5; stroke-linecap: square"/>
   </g>
   <g id="line2d_15">
    <path d="M 320.446769 293.76 
L 320.446769 274.59802 
L 320.446769 274.59802 
L 320.446769 255.43604 
L 320.449541 255.43604 
L 320.449541 236.274059 
L 320.449541 236.274059 
L 320.449541 217.112079 
L 320.449541 217.112079 
L 320.449541 197.950099 
L 320.452312 197.950099 
L 320.452312 178.788119 
L 320.452312 178.788119 
L 320.452312 159.626139 
L 320.452312 159.626139 
L 320.452312 140.464158 
L 320.452312 140.464158 
L 320.452312 121.302178 
L 320.452312 121.302178 
L 320.452312 102.140198 
L 320.452312 102.140198 
L 320.452312 82.978218 
L 320.452312 82.978218 
L 320.452312 63.816238 
L 320.452312 63.816238 
L 320.452312 44.654257 
L 320.452312 44.654257 
L 320.452312 25.492277 
L 320.452312 25.492277 
L 320.452312 6.330297 
L 320.452312 6.330297 
L 320.452312 6.330297 
L 460.8 6.330297 
" clip-path="url(#p98a455de5f)" style="fill: none; stroke: #f5deb3; stroke-width: 1.5; stroke-linecap: square"/>
   </g>
   <g id="line2d_16">
    <path d="M 274.507525 293.76 
L 274.507525 274.59802 
L 275.214713 274.59802 
L 275.214713 255.43604 
L 275.372054 255.43604 
L 275.372054 236.274059 
L 275.638228 236.274059 
L 275.638228 217.112079 
L 275.646032 217.112079 
L 275.646032 197.950099 
L 277.598919 197.950099 
L 277.598919 178.788119 
L 278.608911 178.788119 
L 278.608911 159.626139 
L 280.358347 159.626139 
L 280.358347 140.464158 
L 280.790072 140.464158 
L 280.790072 121.302178 
L 281.504722 121.302178 
L 281.504722 102.140198 
L 281.60003 102.140198 
L 281.60003 82.978218 
L 283.195507 82.978218 
L 283.195507 63.816238 
L 283.974935 63.816238 
L 283.974935 44.654257 
L 284.397711 44.654257 
L 284.397711 25.492277 
L 291.115243 25.492277 
L 291.115243 6.330297 
L 291.115243 6.330297 
L 291.115243 6.330297 
L 460.8 6.330297 
" clip-path="url(#p98a455de5f)" style="fill: none; stroke: #f5deb3; stroke-width: 1.5; stroke-linecap: square"/>
   </g>
   <g id="line2d_17">
    <path d="M 396.165425 293.76 
L 396.165425 274.59802 
L 398.007842 274.59802 
L 398.007842 255.43604 
L 400.048487 255.43604 
L 400.048487 236.274059 
L 402.977119 236.274059 
L 402.977119 217.112079 
L 403.292888 217.112079 
L 403.292888 197.950099 
L 404.12291 197.950099 
L 404.12291 178.788119 
L 404.722397 178.788119 
L 404.722397 159.626139 
L 405.573402 159.626139 
L 405.573402 140.464158 
L 406.206772 140.464158 
L 406.206772 121.302178 
L 407.288314 121.302178 
L 407.288314 102.140198 
L 408.251398 102.140198 
L 408.251398 82.978218 
L 409.619235 82.978218 
L 409.619235 63.816238 
L 412.919776 63.816238 
L 412.919776 44.654257 
L 415.284989 44.654257 
L 415.284989 25.492277 
L 415.586827 25.492277 
L 415.586827 6.330297 
L 415.586827 6.330297 
L 415.586827 6.330297 
L 460.8 6.330297 
" clip-path="url(#p98a455de5f)" style="fill: none; stroke: #f5deb3; stroke-width: 1.5; stroke-linecap: square"/>
   </g>
   <g id="line2d_18">
    <path d="M 279.524585 293.76 
L 279.524585 274.59802 
L 280.581711 274.59802 
L 280.581711 255.43604 
L 280.831624 255.43604 
L 280.831624 236.274059 
L 281.148872 236.274059 
L 281.148872 217.112079 
L 281.531974 217.112079 
L 281.531974 197.950099 
L 281.89821 197.950099 
L 281.89821 178.788119 
L 282.026337 178.788119 
L 282.026337 159.626139 
L 282.113785 159.626139 
L 282.113785 140.464158 
L 282.174222 140.464158 
L 282.174222 121.302178 
L 282.807078 121.302178 
L 282.807078 102.140198 
L 282.998436 102.140198 
L 282.998436 82.978218 
L 283.103652 82.978218 
L 283.103652 63.816238 
L 283.123352 63.816238 
L 283.123352 44.654257 
L 283.215165 44.654257 
L 283.215165 25.492277 
L 283.300245 25.492277 
L 283.300245 6.330297 
L 283.300245 6.330297 
L 283.300245 6.330297 
L 460.8 6.330297 
" clip-path="url(#p98a455de5f)" style="fill: none; stroke: #f5deb3; stroke-width: 1.5; stroke-linecap: square"/>
   </g>
   <g id="line2d_19">
    <path d="M 367.693399 293.76 
L 367.693399 274.59802 
L 367.982634 274.59802 
L 367.982634 255.43604 
L 368.13942 255.43604 
L 368.13942 236.274059 
L 368.14034 236.274059 
L 368.14034 217.112079 
L 368.149545 217.112079 
L 368.149545 197.950099 
L 368.219438 197.950099 
L 368.219438 178.788119 
L 368.367129 178.788119 
L 368.367129 159.626139 
L 368.494234 159.626139 
L 368.494234 140.464158 
L 368.579979 140.464158 
L 368.579979 121.302178 
L 368.600933 121.302178 
L 368.600933 102.140198 
L 368.620057 102.140198 
L 368.620057 82.978218 
L 368.621877 82.978218 
L 368.621877 63.816238 
L 368.644631 63.816238 
L 368.644631 44.654257 
L 369.066589 44.654257 
L 369.066589 25.492277 
L 369.452333 25.492277 
L 369.452333 6.330297 
L 369.452333 6.330297 
L 369.452333 6.330297 
L 460.8 6.330297 
" clip-path="url(#p98a455de5f)" style="fill: none; stroke: #f5deb3; stroke-width: 1.5; stroke-linecap: square"/>
   </g>
   <g id="line2d_20">
    <path d="M 194.882067 293.76 
L 194.882067 274.59802 
L 196.07598 274.59802 
L 196.07598 255.43604 
L 197.94847 255.43604 
L 197.94847 236.274059 
L 198.415824 236.274059 
L 198.415824 217.112079 
L 198.83217 217.112079 
L 198.83217 197.950099 
L 198.970067 197.950099 
L 198.970067 178.788119 
L 199.015935 178.788119 
L 199.015935 159.626139 
L 199.153249 159.626139 
L 199.153249 140.464158 
L 199.290128 140.464158 
L 199.290128 121.302178 
L 199.471962 121.302178 
L 199.471962 102.140198 
L 199.698187 102.140198 
L 199.698187 82.978218 
L 199.74329 82.978218 
L 199.74329 63.816238 
L 200.191756 63.816238 
L 200.191756 44.654257 
L 201.293 44.654257 
L 201.293 25.492277 
L 202.026154 25.492277 
L 202.026154 6.330297 
L 202.026154 6.330297 
L 202.026154 6.330297 
L 460.8 6.330297 
" clip-path="url(#p98a455de5f)" style="fill: none; stroke: #f5deb3; stroke-width: 1.5; stroke-linecap: square"/>
   </g>
   <g id="matplotlib.axis_1">
    <g id="xtick_1">
     <g id="line2d_21">
      <path d="M 62.208 293.76 
L 62.208 3.456 
" clip-path="url(#p98a455de5f)" style="fill: none; stroke: #b0b0b0; stroke-width: 0.8; stroke-linecap: square"/>
     </g>
     <g id="line2d_22">
      <defs>
       <path id="m743811652e" d="M 0 0 
L 0 3.5 
" style="stroke: #000000; stroke-width: 0.8"/>
      </defs>
      <g>
       <use xlink:href="#m743811652e" x="62.208" y="293.76" style="stroke: #000000; stroke-width: 0.8"/>
      </g>
     </g>
     <g id="text_1">
      <!-- 0 -->
      <g transform="translate(55.8455 315.956875) scale(0.2 -0.2)">
       <defs>
        <path id="DejaVuSans-30" d="M 2034 4250 
Q 1547 4250 1301 3770 
Q 1056 3291 1056 2328 
Q 1056 1369 1301 889 
Q 1547 409 2034 409 
Q 2525 409 2770 889 
Q 3016 1369 3016 2328 
Q 3016 3291 2770 3770 
Q 2525 4250 2034 4250 
z
M 2034 4750 
Q 2819 4750 3233 4129 
Q 3647 3509 3647 2328 
Q 3647 1150 3233 529 
Q 2819 -91 2034 -91 
Q 1250 -91 836 529 
Q 422 1150 422 2328 
Q 422 3509 836 4129 
Q 1250 4750 2034 4750 
z
" transform="scale(0.015625)"/>
       </defs>
       <use xlink:href="#DejaVuSans-30"/>
      </g>
     </g>
    </g>
    <g id="xtick_2">
     <g id="line2d_23">
      <path d="M 161.856 293.76 
L 161.856 3.456 
" clip-path="url(#p98a455de5f)" style="fill: none; stroke: #b0b0b0; stroke-width: 0.8; stroke-linecap: square"/>
     </g>
     <g id="line2d_24">
      <g>
       <use xlink:href="#m743811652e" x="161.856" y="293.76" style="stroke: #000000; stroke-width: 0.8"/>
      </g>
     </g>
     <g id="text_2">
      <!-- 1 -->
      <g transform="translate(155.4935 315.956875) scale(0.2 -0.2)">
       <defs>
        <path id="DejaVuSans-31" d="M 794 531 
L 1825 531 
L 1825 4091 
L 703 3866 
L 703 4441 
L 1819 4666 
L 2450 4666 
L 2450 531 
L 3481 531 
L 3481 0 
L 794 0 
L 794 531 
z
" transform="scale(0.015625)"/>
       </defs>
       <use xlink:href="#DejaVuSans-31"/>
      </g>
     </g>
    </g>
    <g id="xtick_3">
     <g id="line2d_25">
      <path d="M 261.504 293.76 
L 261.504 3.456 
" clip-path="url(#p98a455de5f)" style="fill: none; stroke: #b0b0b0; stroke-width: 0.8; stroke-linecap: square"/>
     </g>
     <g id="line2d_26">
      <g>
       <use xlink:href="#m743811652e" x="261.504" y="293.76" style="stroke: #000000; stroke-width: 0.8"/>
      </g>
     </g>
     <g id="text_3">
      <!-- 2 -->
      <g transform="translate(255.1415 315.956875) scale(0.2 -0.2)">
       <defs>
        <path id="DejaVuSans-32" d="M 1228 531 
L 3431 531 
L 3431 0 
L 469 0 
L 469 531 
Q 828 903 1448 1529 
Q 2069 2156 2228 2338 
Q 2531 2678 2651 2914 
Q 2772 3150 2772 3378 
Q 2772 3750 2511 3984 
Q 2250 4219 1831 4219 
Q 1534 4219 1204 4116 
Q 875 4013 500 3803 
L 500 4441 
Q 881 4594 1212 4672 
Q 1544 4750 1819 4750 
Q 2544 4750 2975 4387 
Q 3406 4025 3406 3419 
Q 3406 3131 3298 2873 
Q 3191 2616 2906 2266 
Q 2828 2175 2409 1742 
Q 1991 1309 1228 531 
z
" transform="scale(0.015625)"/>
       </defs>
       <use xlink:href="#DejaVuSans-32"/>
      </g>
     </g>
    </g>
    <g id="xtick_4">
     <g id="line2d_27">
      <path d="M 361.152 293.76 
L 361.152 3.456 
" clip-path="url(#p98a455de5f)" style="fill: none; stroke: #b0b0b0; stroke-width: 0.8; stroke-linecap: square"/>
     </g>
     <g id="line2d_28">
      <g>
       <use xlink:href="#m743811652e" x="361.152" y="293.76" style="stroke: #000000; stroke-width: 0.8"/>
      </g>
     </g>
     <g id="text_4">
      <!-- 3 -->
      <g transform="translate(354.7895 315.956875) scale(0.2 -0.2)">
       <defs>
        <path id="DejaVuSans-33" d="M 2597 2516 
Q 3050 2419 3304 2112 
Q 3559 1806 3559 1356 
Q 3559 666 3084 287 
Q 2609 -91 1734 -91 
Q 1441 -91 1130 -33 
Q 819 25 488 141 
L 488 750 
Q 750 597 1062 519 
Q 1375 441 1716 441 
Q 2309 441 2620 675 
Q 2931 909 2931 1356 
Q 2931 1769 2642 2001 
Q 2353 2234 1838 2234 
L 1294 2234 
L 1294 2753 
L 1863 2753 
Q 2328 2753 2575 2939 
Q 2822 3125 2822 3475 
Q 2822 3834 2567 4026 
Q 2313 4219 1838 4219 
Q 1578 4219 1281 4162 
Q 984 4106 628 3988 
L 628 4550 
Q 988 4650 1302 4700 
Q 1616 4750 1894 4750 
Q 2613 4750 3031 4423 
Q 3450 4097 3450 3541 
Q 3450 3153 3228 2886 
Q 3006 2619 2597 2516 
z
" transform="scale(0.015625)"/>
       </defs>
       <use xlink:href="#DejaVuSans-33"/>
      </g>
     </g>
    </g>
    <g id="xtick_5">
     <g id="line2d_29">
      <path d="M 460.8 293.76 
L 460.8 3.456 
" clip-path="url(#p98a455de5f)" style="fill: none; stroke: #b0b0b0; stroke-width: 0.8; stroke-linecap: square"/>
     </g>
     <g id="line2d_30">
      <g>
       <use xlink:href="#m743811652e" x="460.8" y="293.76" style="stroke: #000000; stroke-width: 0.8"/>
      </g>
     </g>
     <g id="text_5">
      <!-- 4 -->
      <g transform="translate(454.4375 315.956875) scale(0.2 -0.2)">
       <defs>
        <path id="DejaVuSans-34" d="M 2419 4116 
L 825 1625 
L 2419 1625 
L 2419 4116 
z
M 2253 4666 
L 3047 4666 
L 3047 1625 
L 3713 1625 
L 3713 1100 
L 3047 1100 
L 3047 0 
L 2419 0 
L 2419 1100 
L 313 1100 
L 313 1709 
L 2253 4666 
z
" transform="scale(0.015625)"/>
       </defs>
       <use xlink:href="#DejaVuSans-34"/>
      </g>
     </g>
    </g>
    <g id="xtick_6">
     <g id="line2d_31">
      <path d="M 92.205037 293.76 
L 92.205037 3.456 
" clip-path="url(#p98a455de5f)" style="fill: none; stroke: #b0b0b0; stroke-width: 0.8; stroke-linecap: square"/>
     </g>
     <g id="line2d_32">
      <defs>
       <path id="mca4b367b8d" d="M 0 0 
L 0 2 
" style="stroke: #000000; stroke-width: 0.6"/>
      </defs>
      <g>
       <use xlink:href="#mca4b367b8d" x="92.205037" y="293.76" style="stroke: #000000; stroke-width: 0.6"/>
      </g>
     </g>
    </g>
    <g id="xtick_7">
     <g id="line2d_33">
      <path d="M 109.752179 293.76 
L 109.752179 3.456 
" clip-path="url(#p98a455de5f)" style="fill: none; stroke: #b0b0b0; stroke-width: 0.8; stroke-linecap: square"/>
     </g>
     <g id="line2d_34">
      <g>
       <use xlink:href="#mca4b367b8d" x="109.752179" y="293.76" style="stroke: #000000; stroke-width: 0.6"/>
      </g>
     </g>
    </g>
    <g id="xtick_8">
     <g id="line2d_35">
      <path d="M 122.202074 293.76 
L 122.202074 3.456 
" clip-path="url(#p98a455de5f)" style="fill: none; stroke: #b0b0b0; stroke-width: 0.8; stroke-linecap: square"/>
     </g>
     <g id="line2d_36">
      <g>
       <use xlink:href="#mca4b367b8d" x="122.202074" y="293.76" style="stroke: #000000; stroke-width: 0.6"/>
      </g>
     </g>
    </g>
    <g id="xtick_9">
     <g id="line2d_37">
      <path d="M 131.858963 293.76 
L 131.858963 3.456 
" clip-path="url(#p98a455de5f)" style="fill: none; stroke: #b0b0b0; stroke-width: 0.8; stroke-linecap: square"/>
     </g>
     <g id="line2d_38">
      <g>
       <use xlink:href="#mca4b367b8d" x="131.858963" y="293.76" style="stroke: #000000; stroke-width: 0.6"/>
      </g>
     </g>
    </g>
    <g id="xtick_10">
     <g id="line2d_39">
      <path d="M 139.749216 293.76 
L 139.749216 3.456 
" clip-path="url(#p98a455de5f)" style="fill: none; stroke: #b0b0b0; stroke-width: 0.8; stroke-linecap: square"/>
     </g>
     <g id="line2d_40">
      <g>
       <use xlink:href="#mca4b367b8d" x="139.749216" y="293.76" style="stroke: #000000; stroke-width: 0.6"/>
      </g>
     </g>
    </g>
    <g id="xtick_11">
     <g id="line2d_41">
      <path d="M 146.420329 293.76 
L 146.420329 3.456 
" clip-path="url(#p98a455de5f)" style="fill: none; stroke: #b0b0b0; stroke-width: 0.8; stroke-linecap: square"/>
     </g>
     <g id="line2d_42">
      <g>
       <use xlink:href="#mca4b367b8d" x="146.420329" y="293.76" style="stroke: #000000; stroke-width: 0.6"/>
      </g>
     </g>
    </g>
    <g id="xtick_12">
     <g id="line2d_43">
      <path d="M 152.199111 293.76 
L 152.199111 3.456 
" clip-path="url(#p98a455de5f)" style="fill: none; stroke: #b0b0b0; stroke-width: 0.8; stroke-linecap: square"/>
     </g>
     <g id="line2d_44">
      <g>
       <use xlink:href="#mca4b367b8d" x="152.199111" y="293.76" style="stroke: #000000; stroke-width: 0.6"/>
      </g>
     </g>
    </g>
    <g id="xtick_13">
     <g id="line2d_45">
      <path d="M 157.296358 293.76 
L 157.296358 3.456 
" clip-path="url(#p98a455de5f)" style="fill: none; stroke: #b0b0b0; stroke-width: 0.8; stroke-linecap: square"/>
     </g>
     <g id="line2d_46">
      <g>
       <use xlink:href="#mca4b367b8d" x="157.296358" y="293.76" style="stroke: #000000; stroke-width: 0.6"/>
      </g>
     </g>
    </g>
    <g id="xtick_14">
     <g id="line2d_47">
      <path d="M 191.853037 293.76 
L 191.853037 3.456 
" clip-path="url(#p98a455de5f)" style="fill: none; stroke: #b0b0b0; stroke-width: 0.8; stroke-linecap: square"/>
     </g>
     <g id="line2d_48">
      <g>
       <use xlink:href="#mca4b367b8d" x="191.853037" y="293.76" style="stroke: #000000; stroke-width: 0.6"/>
      </g>
     </g>
    </g>
    <g id="xtick_15">
     <g id="line2d_49">
      <path d="M 209.400179 293.76 
L 209.400179 3.456 
" clip-path="url(#p98a455de5f)" style="fill: none; stroke: #b0b0b0; stroke-width: 0.8; stroke-linecap: square"/>
     </g>
     <g id="line2d_50">
      <g>
       <use xlink:href="#mca4b367b8d" x="209.400179" y="293.76" style="stroke: #000000; stroke-width: 0.6"/>
      </g>
     </g>
    </g>
    <g id="xtick_16">
     <g id="line2d_51">
      <path d="M 221.850074 293.76 
L 221.850074 3.456 
" clip-path="url(#p98a455de5f)" style="fill: none; stroke: #b0b0b0; stroke-width: 0.8; stroke-linecap: square"/>
     </g>
     <g id="line2d_52">
      <g>
       <use xlink:href="#mca4b367b8d" x="221.850074" y="293.76" style="stroke: #000000; stroke-width: 0.6"/>
      </g>
     </g>
    </g>
    <g id="xtick_17">
     <g id="line2d_53">
      <path d="M 231.506963 293.76 
L 231.506963 3.456 
" clip-path="url(#p98a455de5f)" style="fill: none; stroke: #b0b0b0; stroke-width: 0.8; stroke-linecap: square"/>
     </g>
     <g id="line2d_54">
      <g>
       <use xlink:href="#mca4b367b8d" x="231.506963" y="293.76" style="stroke: #000000; stroke-width: 0.6"/>
      </g>
     </g>
    </g>
    <g id="xtick_18">
     <g id="line2d_55">
      <path d="M 239.397216 293.76 
L 239.397216 3.456 
" clip-path="url(#p98a455de5f)" style="fill: none; stroke: #b0b0b0; stroke-width: 0.8; stroke-linecap: square"/>
     </g>
     <g id="line2d_56">
      <g>
       <use xlink:href="#mca4b367b8d" x="239.397216" y="293.76" style="stroke: #000000; stroke-width: 0.6"/>
      </g>
     </g>
    </g>
    <g id="xtick_19">
     <g id="line2d_57">
      <path d="M 246.068329 293.76 
L 246.068329 3.456 
" clip-path="url(#p98a455de5f)" style="fill: none; stroke: #b0b0b0; stroke-width: 0.8; stroke-linecap: square"/>
     </g>
     <g id="line2d_58">
      <g>
       <use xlink:href="#mca4b367b8d" x="246.068329" y="293.76" style="stroke: #000000; stroke-width: 0.6"/>
      </g>
     </g>
    </g>
    <g id="xtick_20">
     <g id="line2d_59">
      <path d="M 251.847111 293.76 
L 251.847111 3.456 
" clip-path="url(#p98a455de5f)" style="fill: none; stroke: #b0b0b0; stroke-width: 0.8; stroke-linecap: square"/>
     </g>
     <g id="line2d_60">
      <g>
       <use xlink:href="#mca4b367b8d" x="251.847111" y="293.76" style="stroke: #000000; stroke-width: 0.6"/>
      </g>
     </g>
    </g>
    <g id="xtick_21">
     <g id="line2d_61">
      <path d="M 256.944358 293.76 
L 256.944358 3.456 
" clip-path="url(#p98a455de5f)" style="fill: none; stroke: #b0b0b0; stroke-width: 0.8; stroke-linecap: square"/>
     </g>
     <g id="line2d_62">
      <g>
       <use xlink:href="#mca4b367b8d" x="256.944358" y="293.76" style="stroke: #000000; stroke-width: 0.6"/>
      </g>
     </g>
    </g>
    <g id="xtick_22">
     <g id="line2d_63">
      <path d="M 291.501037 293.76 
L 291.501037 3.456 
" clip-path="url(#p98a455de5f)" style="fill: none; stroke: #b0b0b0; stroke-width: 0.8; stroke-linecap: square"/>
     </g>
     <g id="line2d_64">
      <g>
       <use xlink:href="#mca4b367b8d" x="291.501037" y="293.76" style="stroke: #000000; stroke-width: 0.6"/>
      </g>
     </g>
    </g>
    <g id="xtick_23">
     <g id="line2d_65">
      <path d="M 309.048179 293.76 
L 309.048179 3.456 
" clip-path="url(#p98a455de5f)" style="fill: none; stroke: #b0b0b0; stroke-width: 0.8; stroke-linecap: square"/>
     </g>
     <g id="line2d_66">
      <g>
       <use xlink:href="#mca4b367b8d" x="309.048179" y="293.76" style="stroke: #000000; stroke-width: 0.6"/>
      </g>
     </g>
    </g>
    <g id="xtick_24">
     <g id="line2d_67">
      <path d="M 321.498074 293.76 
L 321.498074 3.456 
" clip-path="url(#p98a455de5f)" style="fill: none; stroke: #b0b0b0; stroke-width: 0.8; stroke-linecap: square"/>
     </g>
     <g id="line2d_68">
      <g>
       <use xlink:href="#mca4b367b8d" x="321.498074" y="293.76" style="stroke: #000000; stroke-width: 0.6"/>
      </g>
     </g>
    </g>
    <g id="xtick_25">
     <g id="line2d_69">
      <path d="M 331.154963 293.76 
L 331.154963 3.456 
" clip-path="url(#p98a455de5f)" style="fill: none; stroke: #b0b0b0; stroke-width: 0.8; stroke-linecap: square"/>
     </g>
     <g id="line2d_70">
      <g>
       <use xlink:href="#mca4b367b8d" x="331.154963" y="293.76" style="stroke: #000000; stroke-width: 0.6"/>
      </g>
     </g>
    </g>
    <g id="xtick_26">
     <g id="line2d_71">
      <path d="M 339.045216 293.76 
L 339.045216 3.456 
" clip-path="url(#p98a455de5f)" style="fill: none; stroke: #b0b0b0; stroke-width: 0.8; stroke-linecap: square"/>
     </g>
     <g id="line2d_72">
      <g>
       <use xlink:href="#mca4b367b8d" x="339.045216" y="293.76" style="stroke: #000000; stroke-width: 0.6"/>
      </g>
     </g>
    </g>
    <g id="xtick_27">
     <g id="line2d_73">
      <path d="M 345.716329 293.76 
L 345.716329 3.456 
" clip-path="url(#p98a455de5f)" style="fill: none; stroke: #b0b0b0; stroke-width: 0.8; stroke-linecap: square"/>
     </g>
     <g id="line2d_74">
      <g>
       <use xlink:href="#mca4b367b8d" x="345.716329" y="293.76" style="stroke: #000000; stroke-width: 0.6"/>
      </g>
     </g>
    </g>
    <g id="xtick_28">
     <g id="line2d_75">
      <path d="M 351.495111 293.76 
L 351.495111 3.456 
" clip-path="url(#p98a455de5f)" style="fill: none; stroke: #b0b0b0; stroke-width: 0.8; stroke-linecap: square"/>
     </g>
     <g id="line2d_76">
      <g>
       <use xlink:href="#mca4b367b8d" x="351.495111" y="293.76" style="stroke: #000000; stroke-width: 0.6"/>
      </g>
     </g>
    </g>
    <g id="xtick_29">
     <g id="line2d_77">
      <path d="M 356.592358 293.76 
L 356.592358 3.456 
" clip-path="url(#p98a455de5f)" style="fill: none; stroke: #b0b0b0; stroke-width: 0.8; stroke-linecap: square"/>
     </g>
     <g id="line2d_78">
      <g>
       <use xlink:href="#mca4b367b8d" x="356.592358" y="293.76" style="stroke: #000000; stroke-width: 0.6"/>
      </g>
     </g>
    </g>
    <g id="xtick_30">
     <g id="line2d_79">
      <path d="M 391.149037 293.76 
L 391.149037 3.456 
" clip-path="url(#p98a455de5f)" style="fill: none; stroke: #b0b0b0; stroke-width: 0.8; stroke-linecap: square"/>
     </g>
     <g id="line2d_80">
      <g>
       <use xlink:href="#mca4b367b8d" x="391.149037" y="293.76" style="stroke: #000000; stroke-width: 0.6"/>
      </g>
     </g>
    </g>
    <g id="xtick_31">
     <g id="line2d_81">
      <path d="M 408.696179 293.76 
L 408.696179 3.456 
" clip-path="url(#p98a455de5f)" style="fill: none; stroke: #b0b0b0; stroke-width: 0.8; stroke-linecap: square"/>
     </g>
     <g id="line2d_82">
      <g>
       <use xlink:href="#mca4b367b8d" x="408.696179" y="293.76" style="stroke: #000000; stroke-width: 0.6"/>
      </g>
     </g>
    </g>
    <g id="xtick_32">
     <g id="line2d_83">
      <path d="M 421.146074 293.76 
L 421.146074 3.456 
" clip-path="url(#p98a455de5f)" style="fill: none; stroke: #b0b0b0; stroke-width: 0.8; stroke-linecap: square"/>
     </g>
     <g id="line2d_84">
      <g>
       <use xlink:href="#mca4b367b8d" x="421.146074" y="293.76" style="stroke: #000000; stroke-width: 0.6"/>
      </g>
     </g>
    </g>
    <g id="xtick_33">
     <g id="line2d_85">
      <path d="M 430.802963 293.76 
L 430.802963 3.456 
" clip-path="url(#p98a455de5f)" style="fill: none; stroke: #b0b0b0; stroke-width: 0.8; stroke-linecap: square"/>
     </g>
     <g id="line2d_86">
      <g>
       <use xlink:href="#mca4b367b8d" x="430.802963" y="293.76" style="stroke: #000000; stroke-width: 0.6"/>
      </g>
     </g>
    </g>
    <g id="xtick_34">
     <g id="line2d_87">
      <path d="M 438.693216 293.76 
L 438.693216 3.456 
" clip-path="url(#p98a455de5f)" style="fill: none; stroke: #b0b0b0; stroke-width: 0.8; stroke-linecap: square"/>
     </g>
     <g id="line2d_88">
      <g>
       <use xlink:href="#mca4b367b8d" x="438.693216" y="293.76" style="stroke: #000000; stroke-width: 0.6"/>
      </g>
     </g>
    </g>
    <g id="xtick_35">
     <g id="line2d_89">
      <path d="M 445.364329 293.76 
L 445.364329 3.456 
" clip-path="url(#p98a455de5f)" style="fill: none; stroke: #b0b0b0; stroke-width: 0.8; stroke-linecap: square"/>
     </g>
     <g id="line2d_90">
      <g>
       <use xlink:href="#mca4b367b8d" x="445.364329" y="293.76" style="stroke: #000000; stroke-width: 0.6"/>
      </g>
     </g>
    </g>
    <g id="xtick_36">
     <g id="line2d_91">
      <path d="M 451.143111 293.76 
L 451.143111 3.456 
" clip-path="url(#p98a455de5f)" style="fill: none; stroke: #b0b0b0; stroke-width: 0.8; stroke-linecap: square"/>
     </g>
     <g id="line2d_92">
      <g>
       <use xlink:href="#mca4b367b8d" x="451.143111" y="293.76" style="stroke: #000000; stroke-width: 0.6"/>
      </g>
     </g>
    </g>
    <g id="xtick_37">
     <g id="line2d_93">
      <path d="M 456.240358 293.76 
L 456.240358 3.456 
" clip-path="url(#p98a455de5f)" style="fill: none; stroke: #b0b0b0; stroke-width: 0.8; stroke-linecap: square"/>
     </g>
     <g id="line2d_94">
      <g>
       <use xlink:href="#mca4b367b8d" x="456.240358" y="293.76" style="stroke: #000000; stroke-width: 0.6"/>
      </g>
     </g>
    </g>
    <g id="text_6">
     <!-- log10 of FEvals / DIM -->
     <g transform="translate(156.430563 339.313125) scale(0.2 -0.2)">
      <defs>
       <path id="DejaVuSans-6c" d="M 603 4863 
L 1178 4863 
L 1178 0 
L 603 0 
L 603 4863 
z
" transform="scale(0.015625)"/>
       <path id="DejaVuSans-6f" d="M 1959 3097 
Q 1497 3097 1228 2736 
Q 959 2375 959 1747 
Q 959 1119 1226 758 
Q 1494 397 1959 397 
Q 2419 397 2687 759 
Q 2956 1122 2956 1747 
Q 2956 2369 2687 2733 
Q 2419 3097 1959 3097 
z
M 1959 3584 
Q 2709 3584 3137 3096 
Q 3566 2609 3566 1747 
Q 3566 888 3137 398 
Q 2709 -91 1959 -91 
Q 1206 -91 779 398 
Q 353 888 353 1747 
Q 353 2609 779 3096 
Q 1206 3584 1959 3584 
z
" transform="scale(0.015625)"/>
       <path id="DejaVuSans-67" d="M 2906 1791 
Q 2906 2416 2648 2759 
Q 2391 3103 1925 3103 
Q 1463 3103 1205 2759 
Q 947 2416 947 1791 
Q 947 1169 1205 825 
Q 1463 481 1925 481 
Q 2391 481 2648 825 
Q 2906 1169 2906 1791 
z
M 3481 434 
Q 3481 -459 3084 -895 
Q 2688 -1331 1869 -1331 
Q 1566 -1331 1297 -1286 
Q 1028 -1241 775 -1147 
L 775 -588 
Q 1028 -725 1275 -790 
Q 1522 -856 1778 -856 
Q 2344 -856 2625 -561 
Q 2906 -266 2906 331 
L 2906 616 
Q 2728 306 2450 153 
Q 2172 0 1784 0 
Q 1141 0 747 490 
Q 353 981 353 1791 
Q 353 2603 747 3093 
Q 1141 3584 1784 3584 
Q 2172 3584 2450 3431 
Q 2728 3278 2906 2969 
L 2906 3500 
L 3481 3500 
L 3481 434 
z
" transform="scale(0.015625)"/>
       <path id="DejaVuSans-20" transform="scale(0.015625)"/>
       <path id="DejaVuSans-66" d="M 2375 4863 
L 2375 4384 
L 1825 4384 
Q 1516 4384 1395 4259 
Q 1275 4134 1275 3809 
L 1275 3500 
L 2222 3500 
L 2222 3053 
L 1275 3053 
L 1275 0 
L 697 0 
L 697 3053 
L 147 3053 
L 147 3500 
L 697 3500 
L 697 3744 
Q 697 4328 969 4595 
Q 1241 4863 1831 4863 
L 2375 4863 
z
" transform="scale(0.015625)"/>
       <path id="DejaVuSans-46" d="M 628 4666 
L 3309 4666 
L 3309 4134 
L 1259 4134 
L 1259 2759 
L 3109 2759 
L 3109 2228 
L 1259 2228 
L 1259 0 
L 628 0 
L 628 4666 
z
" transform="scale(0.015625)"/>
       <path id="DejaVuSans-45" d="M 628 4666 
L 3578 4666 
L 3578 4134 
L 1259 4134 
L 1259 2753 
L 3481 2753 
L 3481 2222 
L 1259 2222 
L 1259 531 
L 3634 531 
L 3634 0 
L 628 0 
L 628 4666 
z
" transform="scale(0.015625)"/>
       <path id="DejaVuSans-76" d="M 191 3500 
L 800 3500 
L 1894 563 
L 2988 3500 
L 3597 3500 
L 2284 0 
L 1503 0 
L 191 3500 
z
" transform="scale(0.015625)"/>
       <path id="DejaVuSans-61" d="M 2194 1759 
Q 1497 1759 1228 1600 
Q 959 1441 959 1056 
Q 959 750 1161 570 
Q 1363 391 1709 391 
Q 2188 391 2477 730 
Q 2766 1069 2766 1631 
L 2766 1759 
L 2194 1759 
z
M 3341 1997 
L 3341 0 
L 2766 0 
L 2766 531 
Q 2569 213 2275 61 
Q 1981 -91 1556 -91 
Q 1019 -91 701 211 
Q 384 513 384 1019 
Q 384 1609 779 1909 
Q 1175 2209 1959 2209 
L 2766 2209 
L 2766 2266 
Q 2766 2663 2505 2880 
Q 2244 3097 1772 3097 
Q 1472 3097 1187 3025 
Q 903 2953 641 2809 
L 641 3341 
Q 956 3463 1253 3523 
Q 1550 3584 1831 3584 
Q 2591 3584 2966 3190 
Q 3341 2797 3341 1997 
z
" transform="scale(0.015625)"/>
       <path id="DejaVuSans-73" d="M 2834 3397 
L 2834 2853 
Q 2591 2978 2328 3040 
Q 2066 3103 1784 3103 
Q 1356 3103 1142 2972 
Q 928 2841 928 2578 
Q 928 2378 1081 2264 
Q 1234 2150 1697 2047 
L 1894 2003 
Q 2506 1872 2764 1633 
Q 3022 1394 3022 966 
Q 3022 478 2636 193 
Q 2250 -91 1575 -91 
Q 1294 -91 989 -36 
Q 684 19 347 128 
L 347 722 
Q 666 556 975 473 
Q 1284 391 1588 391 
Q 1994 391 2212 530 
Q 2431 669 2431 922 
Q 2431 1156 2273 1281 
Q 2116 1406 1581 1522 
L 1381 1569 
Q 847 1681 609 1914 
Q 372 2147 372 2553 
Q 372 3047 722 3315 
Q 1072 3584 1716 3584 
Q 2034 3584 2315 3537 
Q 2597 3491 2834 3397 
z
" transform="scale(0.015625)"/>
       <path id="DejaVuSans-2f" d="M 1625 4666 
L 2156 4666 
L 531 -594 
L 0 -594 
L 1625 4666 
z
" transform="scale(0.015625)"/>
       <path id="DejaVuSans-44" d="M 1259 4147 
L 1259 519 
L 2022 519 
Q 2988 519 3436 956 
Q 3884 1394 3884 2338 
Q 3884 3275 3436 3711 
Q 2988 4147 2022 4147 
L 1259 4147 
z
M 628 4666 
L 1925 4666 
Q 3281 4666 3915 4102 
Q 4550 3538 4550 2338 
Q 4550 1131 3912 565 
Q 3275 0 1925 0 
L 628 0 
L 628 4666 
z
" transform="scale(0.015625)"/>
       <path id="DejaVuSans-49" d="M 628 4666 
L 1259 4666 
L 1259 0 
L 628 0 
L 628 4666 
z
" transform="scale(0.015625)"/>
       <path id="DejaVuSans-4d" d="M 628 4666 
L 1569 4666 
L 2759 1491 
L 3956 4666 
L 4897 4666 
L 4897 0 
L 4281 0 
L 4281 4097 
L 3078 897 
L 2444 897 
L 1241 4097 
L 1241 0 
L 628 0 
L 628 4666 
z
" transform="scale(0.015625)"/>
      </defs>
      <use xlink:href="#DejaVuSans-6c"/>
      <use xlink:href="#DejaVuSans-6f" x="27.783203"/>
      <use xlink:href="#DejaVuSans-67" x="88.964844"/>
      <use xlink:href="#DejaVuSans-31" x="152.441406"/>
      <use xlink:href="#DejaVuSans-30" x="216.064453"/>
      <use xlink:href="#DejaVuSans-20" x="279.6875"/>
      <use xlink:href="#DejaVuSans-6f" x="311.474609"/>
      <use xlink:href="#DejaVuSans-66" x="372.65625"/>
      <use xlink:href="#DejaVuSans-20" x="407.861328"/>
      <use xlink:href="#DejaVuSans-46" x="439.648438"/>
      <use xlink:href="#DejaVuSans-45" x="497.167969"/>
      <use xlink:href="#DejaVuSans-76" x="560.351562"/>
      <use xlink:href="#DejaVuSans-61" x="619.53125"/>
      <use xlink:href="#DejaVuSans-6c" x="680.810547"/>
      <use xlink:href="#DejaVuSans-73" x="708.59375"/>
      <use xlink:href="#DejaVuSans-20" x="760.693359"/>
      <use xlink:href="#DejaVuSans-2f" x="792.480469"/>
      <use xlink:href="#DejaVuSans-20" x="826.171875"/>
      <use xlink:href="#DejaVuSans-44" x="857.958984"/>
      <use xlink:href="#DejaVuSans-49" x="934.960938"/>
      <use xlink:href="#DejaVuSans-4d" x="964.453125"/>
     </g>
    </g>
   </g>
   <g id="matplotlib.axis_2">
    <g id="ytick_1">
     <g id="line2d_95">
      <path d="M 62.208 293.76 
L 460.8 293.76 
" clip-path="url(#p98a455de5f)" style="fill: none; stroke: #b0b0b0; stroke-width: 0.8; stroke-linecap: square"/>
     </g>
     <g id="line2d_96">
      <defs>
       <path id="m128fbdb94f" d="M 0 0 
L -3.5 0 
" style="stroke: #000000; stroke-width: 0.8"/>
      </defs>
      <g>
       <use xlink:href="#m128fbdb94f" x="62.208" y="293.76" style="stroke: #000000; stroke-width: 0.8"/>
      </g>
     </g>
     <g id="text_7">
      <!-- 0.0 -->
      <g transform="translate(29.763 299.83875) scale(0.16 -0.16)">
       <defs>
        <path id="DejaVuSans-2e" d="M 684 794 
L 1344 794 
L 1344 0 
L 684 0 
L 684 794 
z
" transform="scale(0.015625)"/>
       </defs>
       <use xlink:href="#DejaVuSans-30"/>
       <use xlink:href="#DejaVuSans-2e" x="63.623047"/>
       <use xlink:href="#DejaVuSans-30" x="95.410156"/>
      </g>
     </g>
    </g>
    <g id="ytick_2">
     <g id="line2d_97">
      <path d="M 62.208 236.274059 
L 460.8 236.274059 
" clip-path="url(#p98a455de5f)" style="fill: none; stroke: #b0b0b0; stroke-width: 0.8; stroke-linecap: square"/>
     </g>
     <g id="line2d_98">
      <g>
       <use xlink:href="#m128fbdb94f" x="62.208" y="236.274059" style="stroke: #000000; stroke-width: 0.8"/>
      </g>
     </g>
     <g id="text_8">
      <!-- 0.2 -->
      <g transform="translate(29.763 242.352809) scale(0.16 -0.16)">
       <use xlink:href="#DejaVuSans-30"/>
       <use xlink:href="#DejaVuSans-2e" x="63.623047"/>
       <use xlink:href="#DejaVuSans-32" x="95.410156"/>
      </g>
     </g>
    </g>
    <g id="ytick_3">
     <g id="line2d_99">
      <path d="M 62.208 178.788119 
L 460.8 178.788119 
" clip-path="url(#p98a455de5f)" style="fill: none; stroke: #b0b0b0; stroke-width: 0.8; stroke-linecap: square"/>
     </g>
     <g id="line2d_100">
      <g>
       <use xlink:href="#m128fbdb94f" x="62.208" y="178.788119" style="stroke: #000000; stroke-width: 0.8"/>
      </g>
     </g>
     <g id="text_9">
      <!-- 0.4 -->
      <g transform="translate(29.763 184.866869) scale(0.16 -0.16)">
       <use xlink:href="#DejaVuSans-30"/>
       <use xlink:href="#DejaVuSans-2e" x="63.623047"/>
       <use xlink:href="#DejaVuSans-34" x="95.410156"/>
      </g>
     </g>
    </g>
    <g id="ytick_4">
     <g id="line2d_101">
      <path d="M 62.208 121.302178 
L 460.8 121.302178 
" clip-path="url(#p98a455de5f)" style="fill: none; stroke: #b0b0b0; stroke-width: 0.8; stroke-linecap: square"/>
     </g>
     <g id="line2d_102">
      <g>
       <use xlink:href="#m128fbdb94f" x="62.208" y="121.302178" style="stroke: #000000; stroke-width: 0.8"/>
      </g>
     </g>
     <g id="text_10">
      <!-- 0.6 -->
      <g transform="translate(29.763 127.380928) scale(0.16 -0.16)">
       <defs>
        <path id="DejaVuSans-36" d="M 2113 2584 
Q 1688 2584 1439 2293 
Q 1191 2003 1191 1497 
Q 1191 994 1439 701 
Q 1688 409 2113 409 
Q 2538 409 2786 701 
Q 3034 994 3034 1497 
Q 3034 2003 2786 2293 
Q 2538 2584 2113 2584 
z
M 3366 4563 
L 3366 3988 
Q 3128 4100 2886 4159 
Q 2644 4219 2406 4219 
Q 1781 4219 1451 3797 
Q 1122 3375 1075 2522 
Q 1259 2794 1537 2939 
Q 1816 3084 2150 3084 
Q 2853 3084 3261 2657 
Q 3669 2231 3669 1497 
Q 3669 778 3244 343 
Q 2819 -91 2113 -91 
Q 1303 -91 875 529 
Q 447 1150 447 2328 
Q 447 3434 972 4092 
Q 1497 4750 2381 4750 
Q 2619 4750 2861 4703 
Q 3103 4656 3366 4563 
z
" transform="scale(0.015625)"/>
       </defs>
       <use xlink:href="#DejaVuSans-30"/>
       <use xlink:href="#DejaVuSans-2e" x="63.623047"/>
       <use xlink:href="#DejaVuSans-36" x="95.410156"/>
      </g>
     </g>
    </g>
    <g id="ytick_5">
     <g id="line2d_103">
      <path d="M 62.208 63.816238 
L 460.8 63.816238 
" clip-path="url(#p98a455de5f)" style="fill: none; stroke: #b0b0b0; stroke-width: 0.8; stroke-linecap: square"/>
     </g>
     <g id="line2d_104">
      <g>
       <use xlink:href="#m128fbdb94f" x="62.208" y="63.816238" style="stroke: #000000; stroke-width: 0.8"/>
      </g>
     </g>
     <g id="text_11">
      <!-- 0.8 -->
      <g transform="translate(29.763 69.894988) scale(0.16 -0.16)">
       <defs>
        <path id="DejaVuSans-38" d="M 2034 2216 
Q 1584 2216 1326 1975 
Q 1069 1734 1069 1313 
Q 1069 891 1326 650 
Q 1584 409 2034 409 
Q 2484 409 2743 651 
Q 3003 894 3003 1313 
Q 3003 1734 2745 1975 
Q 2488 2216 2034 2216 
z
M 1403 2484 
Q 997 2584 770 2862 
Q 544 3141 544 3541 
Q 544 4100 942 4425 
Q 1341 4750 2034 4750 
Q 2731 4750 3128 4425 
Q 3525 4100 3525 3541 
Q 3525 3141 3298 2862 
Q 3072 2584 2669 2484 
Q 3125 2378 3379 2068 
Q 3634 1759 3634 1313 
Q 3634 634 3220 271 
Q 2806 -91 2034 -91 
Q 1263 -91 848 271 
Q 434 634 434 1313 
Q 434 1759 690 2068 
Q 947 2378 1403 2484 
z
M 1172 3481 
Q 1172 3119 1398 2916 
Q 1625 2713 2034 2713 
Q 2441 2713 2670 2916 
Q 2900 3119 2900 3481 
Q 2900 3844 2670 4047 
Q 2441 4250 2034 4250 
Q 1625 4250 1398 4047 
Q 1172 3844 1172 3481 
z
" transform="scale(0.015625)"/>
       </defs>
       <use xlink:href="#DejaVuSans-30"/>
       <use xlink:href="#DejaVuSans-2e" x="63.623047"/>
       <use xlink:href="#DejaVuSans-38" x="95.410156"/>
      </g>
     </g>
    </g>
    <g id="ytick_6">
     <g id="line2d_105">
      <path d="M 62.208 6.330297 
L 460.8 6.330297 
" clip-path="url(#p98a455de5f)" style="fill: none; stroke: #b0b0b0; stroke-width: 0.8; stroke-linecap: square"/>
     </g>
     <g id="line2d_106">
      <g>
       <use xlink:href="#m128fbdb94f" x="62.208" y="6.330297" style="stroke: #000000; stroke-width: 0.8"/>
      </g>
     </g>
     <g id="text_12">
      <!-- 1.0 -->
      <g transform="translate(29.763 12.409047) scale(0.16 -0.16)">
       <use xlink:href="#DejaVuSans-31"/>
       <use xlink:href="#DejaVuSans-2e" x="63.623047"/>
       <use xlink:href="#DejaVuSans-30" x="95.410156"/>
      </g>
     </g>
    </g>
    <g id="text_13">
     <!-- proportion of trials -->
     <g transform="translate(21.603625 241.61425) rotate(-90) scale(0.2 -0.2)">
      <defs>
       <path id="DejaVuSans-70" d="M 1159 525 
L 1159 -1331 
L 581 -1331 
L 581 3500 
L 1159 3500 
L 1159 2969 
Q 1341 3281 1617 3432 
Q 1894 3584 2278 3584 
Q 2916 3584 3314 3078 
Q 3713 2572 3713 1747 
Q 3713 922 3314 415 
Q 2916 -91 2278 -91 
Q 1894 -91 1617 61 
Q 1341 213 1159 525 
z
M 3116 1747 
Q 3116 2381 2855 2742 
Q 2594 3103 2138 3103 
Q 1681 3103 1420 2742 
Q 1159 2381 1159 1747 
Q 1159 1113 1420 752 
Q 1681 391 2138 391 
Q 2594 391 2855 752 
Q 3116 1113 3116 1747 
z
" transform="scale(0.015625)"/>
       <path id="DejaVuSans-72" d="M 2631 2963 
Q 2534 3019 2420 3045 
Q 2306 3072 2169 3072 
Q 1681 3072 1420 2755 
Q 1159 2438 1159 1844 
L 1159 0 
L 581 0 
L 581 3500 
L 1159 3500 
L 1159 2956 
Q 1341 3275 1631 3429 
Q 1922 3584 2338 3584 
Q 2397 3584 2469 3576 
Q 2541 3569 2628 3553 
L 2631 2963 
z
" transform="scale(0.015625)"/>
       <path id="DejaVuSans-74" d="M 1172 4494 
L 1172 3500 
L 2356 3500 
L 2356 3053 
L 1172 3053 
L 1172 1153 
Q 1172 725 1289 603 
Q 1406 481 1766 481 
L 2356 481 
L 2356 0 
L 1766 0 
Q 1100 0 847 248 
Q 594 497 594 1153 
L 594 3053 
L 172 3053 
L 172 3500 
L 594 3500 
L 594 4494 
L 1172 4494 
z
" transform="scale(0.015625)"/>
       <path id="DejaVuSans-69" d="M 603 3500 
L 1178 3500 
L 1178 0 
L 603 0 
L 603 3500 
z
M 603 4863 
L 1178 4863 
L 1178 4134 
L 603 4134 
L 603 4863 
z
" transform="scale(0.015625)"/>
       <path id="DejaVuSans-6e" d="M 3513 2113 
L 3513 0 
L 2938 0 
L 2938 2094 
Q 2938 2591 2744 2837 
Q 2550 3084 2163 3084 
Q 1697 3084 1428 2787 
Q 1159 2491 1159 1978 
L 1159 0 
L 581 0 
L 581 3500 
L 1159 3500 
L 1159 2956 
Q 1366 3272 1645 3428 
Q 1925 3584 2291 3584 
Q 2894 3584 3203 3211 
Q 3513 2838 3513 2113 
z
" transform="scale(0.015625)"/>
      </defs>
      <use xlink:href="#DejaVuSans-70"/>
      <use xlink:href="#DejaVuSans-72" x="63.476562"/>
      <use xlink:href="#DejaVuSans-6f" x="102.339844"/>
      <use xlink:href="#DejaVuSans-70" x="163.521484"/>
      <use xlink:href="#DejaVuSans-6f" x="226.998047"/>
      <use xlink:href="#DejaVuSans-72" x="288.179688"/>
      <use xlink:href="#DejaVuSans-74" x="329.292969"/>
      <use xlink:href="#DejaVuSans-69" x="368.501953"/>
      <use xlink:href="#DejaVuSans-6f" x="396.285156"/>
      <use xlink:href="#DejaVuSans-6e" x="457.466797"/>
      <use xlink:href="#DejaVuSans-20" x="520.845703"/>
      <use xlink:href="#DejaVuSans-6f" x="552.632812"/>
      <use xlink:href="#DejaVuSans-66" x="613.814453"/>
      <use xlink:href="#DejaVuSans-20" x="649.019531"/>
      <use xlink:href="#DejaVuSans-74" x="680.806641"/>
      <use xlink:href="#DejaVuSans-72" x="720.015625"/>
      <use xlink:href="#DejaVuSans-69" x="761.128906"/>
      <use xlink:href="#DejaVuSans-61" x="788.912109"/>
      <use xlink:href="#DejaVuSans-6c" x="850.191406"/>
      <use xlink:href="#DejaVuSans-73" x="877.974609"/>
     </g>
    </g>
   </g>
   <g id="line2d_107">
    <path d="M 333.130208 293.76 
L 333.130208 274.59802 
L 340.383901 274.59802 
L 340.383901 255.43604 
L 356.230208 255.43604 
L 356.230208 236.274059 
L 356.399589 236.274059 
L 356.399589 217.112079 
L 359.345901 217.112079 
L 359.345901 197.950099 
L 360.581331 197.950099 
L 360.581331 178.788119 
L 363.114839 178.788119 
L 363.114839 159.626139 
L 367.498562 159.626139 
L 367.498562 140.464158 
L 367.498562 140.464158 
L 367.498562 140.464158 
L 460.8 140.464158 
" clip-path="url(#p98a455de5f)" style="fill: none; stroke: #000000; stroke-width: 1.5; stroke-linecap: square"/>
   </g>
   <g id="line2d_108">
    <path clip-path="url(#p98a455de5f)" style="fill: none; stroke: #000000; stroke-width: 1.5; stroke-linecap: square"/>
   </g>
   <g id="line2d_109"/>
   <g id="line2d_110"/>
   <g id="line2d_111"/>
   <g id="line2d_112">
    <path d="M 460.8 293.76 
L 460.8 3.456 
" clip-path="url(#p98a455de5f)" style="fill: none; stroke: #000000; stroke-width: 1.5; stroke-linecap: square"/>
   </g>
   <g id="patch_3">
    <path d="M 62.208 293.76 
L 62.208 3.456 
" style="fill: none; stroke: #000000; stroke-width: 0.8; stroke-linejoin: miter; stroke-linecap: square"/>
   </g>
   <g id="patch_4">
    <path d="M 460.8 293.76 
L 460.8 3.456 
" style="fill: none; stroke: #000000; stroke-width: 0.8; stroke-linejoin: miter; stroke-linecap: square"/>
   </g>
   <g id="patch_5">
    <path d="M 62.208 293.76 
L 460.8 293.76 
" style="fill: none; stroke: #000000; stroke-width: 0.8; stroke-linejoin: miter; stroke-linecap: square"/>
   </g>
   <g id="patch_6">
    <path d="M 62.208 3.456 
L 460.8 3.456 
" style="fill: none; stroke: #000000; stroke-width: 0.8; stroke-linejoin: miter; stroke-linecap: square"/>
   </g>
   <g id="text_14">
    <!-- {f1}, 40-D -->
    <g transform="translate(208.507125 24.458955) scale(0.2 -0.2)">
     <defs>
      <path id="DejaVuSans-7b" d="M 3272 -594 
L 3272 -1044 
L 3078 -1044 
Q 2300 -1044 2036 -812 
Q 1772 -581 1772 109 
L 1772 856 
Q 1772 1328 1603 1509 
Q 1434 1691 991 1691 
L 800 1691 
L 800 2138 
L 991 2138 
Q 1438 2138 1605 2317 
Q 1772 2497 1772 2963 
L 1772 3713 
Q 1772 4403 2036 4633 
Q 2300 4863 3078 4863 
L 3272 4863 
L 3272 4416 
L 3059 4416 
Q 2619 4416 2484 4278 
Q 2350 4141 2350 3700 
L 2350 2925 
Q 2350 2434 2208 2212 
Q 2066 1991 1722 1913 
Q 2069 1828 2209 1606 
Q 2350 1384 2350 897 
L 2350 122 
Q 2350 -319 2484 -456 
Q 2619 -594 3059 -594 
L 3272 -594 
z
" transform="scale(0.015625)"/>
      <path id="DejaVuSans-7d" d="M 800 -594 
L 1019 -594 
Q 1456 -594 1589 -459 
Q 1722 -325 1722 122 
L 1722 897 
Q 1722 1384 1862 1606 
Q 2003 1828 2350 1913 
Q 2003 1991 1862 2212 
Q 1722 2434 1722 2925 
L 1722 3700 
Q 1722 4144 1589 4280 
Q 1456 4416 1019 4416 
L 800 4416 
L 800 4863 
L 997 4863 
Q 1775 4863 2036 4633 
Q 2297 4403 2297 3713 
L 2297 2963 
Q 2297 2497 2465 2317 
Q 2634 2138 3078 2138 
L 3272 2138 
L 3272 1691 
L 3078 1691 
Q 2634 1691 2465 1509 
Q 2297 1328 2297 856 
L 2297 109 
Q 2297 -581 2036 -812 
Q 1775 -1044 997 -1044 
L 800 -1044 
L 800 -594 
z
" transform="scale(0.015625)"/>
      <path id="DejaVuSans-2c" d="M 750 794 
L 1409 794 
L 1409 256 
L 897 -744 
L 494 -744 
L 750 256 
L 750 794 
z
" transform="scale(0.015625)"/>
      <path id="DejaVuSans-2d" d="M 313 2009 
L 1997 2009 
L 1997 1497 
L 313 1497 
L 313 2009 
z
" transform="scale(0.015625)"/>
     </defs>
     <use xlink:href="#DejaVuSans-7b"/>
     <use xlink:href="#DejaVuSans-66" x="63.623047"/>
     <use xlink:href="#DejaVuSans-31" x="98.828125"/>
     <use xlink:href="#DejaVuSans-7d" x="162.451172"/>
     <use xlink:href="#DejaVuSans-2c" x="226.074219"/>
     <use xlink:href="#DejaVuSans-20" x="257.861328"/>
     <use xlink:href="#DejaVuSans-34" x="289.648438"/>
     <use xlink:href="#DejaVuSans-30" x="353.271484"/>
     <use xlink:href="#DejaVuSans-2d" x="416.894531"/>
     <use xlink:href="#DejaVuSans-44" x="452.978516"/>
    </g>
   </g>
   <g id="text_15">
    <!-- absolute targets -->
    <g transform="translate(62.208 609.932673) scale(0.14 -0.14)">
     <defs>
      <path id="DejaVuSans-62" d="M 3116 1747 
Q 3116 2381 2855 2742 
Q 2594 3103 2138 3103 
Q 1681 3103 1420 2742 
Q 1159 2381 1159 1747 
Q 1159 1113 1420 752 
Q 1681 391 2138 391 
Q 2594 391 2855 752 
Q 3116 1113 3116 1747 
z
M 1159 2969 
Q 1341 3281 1617 3432 
Q 1894 3584 2278 3584 
Q 2916 3584 3314 3078 
Q 3713 2572 3713 1747 
Q 3713 922 3314 415 
Q 2916 -91 2278 -91 
Q 1894 -91 1617 61 
Q 1341 213 1159 525 
L 1159 0 
L 581 0 
L 581 4863 
L 1159 4863 
L 1159 2969 
z
" transform="scale(0.015625)"/>
      <path id="DejaVuSans-75" d="M 544 1381 
L 544 3500 
L 1119 3500 
L 1119 1403 
Q 1119 906 1312 657 
Q 1506 409 1894 409 
Q 2359 409 2629 706 
Q 2900 1003 2900 1516 
L 2900 3500 
L 3475 3500 
L 3475 0 
L 2900 0 
L 2900 538 
Q 2691 219 2414 64 
Q 2138 -91 1772 -91 
Q 1169 -91 856 284 
Q 544 659 544 1381 
z
M 1991 3584 
L 1991 3584 
z
" transform="scale(0.015625)"/>
      <path id="DejaVuSans-65" d="M 3597 1894 
L 3597 1613 
L 953 1613 
Q 991 1019 1311 708 
Q 1631 397 2203 397 
Q 2534 397 2845 478 
Q 3156 559 3463 722 
L 3463 178 
Q 3153 47 2828 -22 
Q 2503 -91 2169 -91 
Q 1331 -91 842 396 
Q 353 884 353 1716 
Q 353 2575 817 3079 
Q 1281 3584 2069 3584 
Q 2775 3584 3186 3129 
Q 3597 2675 3597 1894 
z
M 3022 2063 
Q 3016 2534 2758 2815 
Q 2500 3097 2075 3097 
Q 1594 3097 1305 2825 
Q 1016 2553 972 2059 
L 3022 2063 
z
" transform="scale(0.015625)"/>
     </defs>
     <use xlink:href="#DejaVuSans-61"/>
     <use xlink:href="#DejaVuSans-62" x="61.279297"/>
     <use xlink:href="#DejaVuSans-73" x="124.755859"/>
     <use xlink:href="#DejaVuSans-6f" x="176.855469"/>
     <use xlink:href="#DejaVuSans-6c" x="238.037109"/>
     <use xlink:href="#DejaVuSans-75" x="265.820312"/>
     <use xlink:href="#DejaVuSans-74" x="329.199219"/>
     <use xlink:href="#DejaVuSans-65" x="368.408203"/>
     <use xlink:href="#DejaVuSans-20" x="429.931641"/>
     <use xlink:href="#DejaVuSans-74" x="461.71875"/>
     <use xlink:href="#DejaVuSans-61" x="500.927734"/>
     <use xlink:href="#DejaVuSans-72" x="562.207031"/>
     <use xlink:href="#DejaVuSans-67" x="601.570312"/>
     <use xlink:href="#DejaVuSans-65" x="665.046875"/>
     <use xlink:href="#DejaVuSans-74" x="726.570312"/>
     <use xlink:href="#DejaVuSans-73" x="765.779297"/>
    </g>
   </g>
   <g id="text_16">
    <!-- v2.6.4 -->
    <g style="fill: #808080" transform="translate(245.82275 288.777272) scale(0.1 -0.1)">
     <use xlink:href="#DejaVuSans-76"/>
     <use xlink:href="#DejaVuSans-32" x="59.179688"/>
     <use xlink:href="#DejaVuSans-2e" x="122.802734"/>
     <use xlink:href="#DejaVuSans-36" x="154.589844"/>
     <use xlink:href="#DejaVuSans-2e" x="218.212891"/>
     <use xlink:href="#DejaVuSans-34" x="250"/>
    </g>
   </g>
   <g id="text_17">
    <!-- F1 Sphere -->
    <g transform="translate(200.8815 -2.544) scale(0.24 -0.24)">
     <defs>
      <path id="DejaVuSans-53" d="M 3425 4513 
L 3425 3897 
Q 3066 4069 2747 4153 
Q 2428 4238 2131 4238 
Q 1616 4238 1336 4038 
Q 1056 3838 1056 3469 
Q 1056 3159 1242 3001 
Q 1428 2844 1947 2747 
L 2328 2669 
Q 3034 2534 3370 2195 
Q 3706 1856 3706 1288 
Q 3706 609 3251 259 
Q 2797 -91 1919 -91 
Q 1588 -91 1214 -16 
Q 841 59 441 206 
L 441 856 
Q 825 641 1194 531 
Q 1563 422 1919 422 
Q 2459 422 2753 634 
Q 3047 847 3047 1241 
Q 3047 1584 2836 1778 
Q 2625 1972 2144 2069 
L 1759 2144 
Q 1053 2284 737 2584 
Q 422 2884 422 3419 
Q 422 4038 858 4394 
Q 1294 4750 2059 4750 
Q 2388 4750 2728 4690 
Q 3069 4631 3425 4513 
z
" transform="scale(0.015625)"/>
      <path id="DejaVuSans-68" d="M 3513 2113 
L 3513 0 
L 2938 0 
L 2938 2094 
Q 2938 2591 2744 2837 
Q 2550 3084 2163 3084 
Q 1697 3084 1428 2787 
Q 1159 2491 1159 1978 
L 1159 0 
L 581 0 
L 581 4863 
L 1159 4863 
L 1159 2956 
Q 1366 3272 1645 3428 
Q 1925 3584 2291 3584 
Q 2894 3584 3203 3211 
Q 3513 2838 3513 2113 
z
" transform="scale(0.015625)"/>
     </defs>
     <use xlink:href="#DejaVuSans-46"/>
     <use xlink:href="#DejaVuSans-31" x="57.519531"/>
     <use xlink:href="#DejaVuSans-20" x="121.142578"/>
     <use xlink:href="#DejaVuSans-53" x="152.929688"/>
     <use xlink:href="#DejaVuSans-70" x="216.40625"/>
     <use xlink:href="#DejaVuSans-68" x="279.882812"/>
     <use xlink:href="#DejaVuSans-65" x="343.261719"/>
     <use xlink:href="#DejaVuSans-72" x="404.785156"/>
     <use xlink:href="#DejaVuSans-65" x="443.648438"/>
    </g>
   </g>
   <g id="legend_1">
    <g id="patch_7">
     <path d="M 76.208 283.76 
L 205.429875 283.76 
Q 209.429875 283.76 209.429875 279.76 
L 209.429875 164.335 
Q 209.429875 160.335 205.429875 160.335 
L 76.208 160.335 
Q 72.208 160.335 72.208 164.335 
L 72.208 279.76 
Q 72.208 283.76 76.208 283.76 
z
" style="fill: #ffffff; opacity: 0.2; stroke: #cccccc; stroke-linejoin: miter"/>
    </g>
    <g id="line2d_113">
     <path d="M 80.208 176.531875 
L 80.208 176.531875 
L 100.208 176.531875 
L 100.208 176.531875 
L 120.208 176.531875 
" style="fill: none; stroke: #000000; stroke-width: 1.5; stroke-linecap: square"/>
    </g>
    <g id="text_18">
     <!-- 1: 1/1 -->
     <g transform="translate(136.208 183.531875) scale(0.2 -0.2)">
      <defs>
       <path id="DejaVuSans-3a" d="M 750 794 
L 1409 794 
L 1409 0 
L 750 0 
L 750 794 
z
M 750 3309 
L 1409 3309 
L 1409 2516 
L 750 2516 
L 750 3309 
z
" transform="scale(0.015625)"/>
      </defs>
      <use xlink:href="#DejaVuSans-31"/>
      <use xlink:href="#DejaVuSans-3a" x="63.623047"/>
      <use xlink:href="#DejaVuSans-20" x="97.314453"/>
      <use xlink:href="#DejaVuSans-31" x="129.101562"/>
      <use xlink:href="#DejaVuSans-2f" x="192.724609"/>
      <use xlink:href="#DejaVuSans-31" x="226.416016"/>
     </g>
    </g>
    <g id="line2d_114">
     <path d="M 80.208 205.888125 
L 100.208 205.888125 
L 120.208 205.888125 
" style="fill: none; stroke: #00bfbf; stroke-width: 1.5; stroke-linecap: square"/>
    </g>
    <g id="text_19">
     <!-- -1: 0/1 -->
     <g transform="translate(136.208 212.888125) scale(0.2 -0.2)">
      <use xlink:href="#DejaVuSans-2d"/>
      <use xlink:href="#DejaVuSans-31" x="36.083984"/>
      <use xlink:href="#DejaVuSans-3a" x="99.707031"/>
      <use xlink:href="#DejaVuSans-20" x="133.398438"/>
      <use xlink:href="#DejaVuSans-30" x="165.185547"/>
      <use xlink:href="#DejaVuSans-2f" x="228.808594"/>
      <use xlink:href="#DejaVuSans-31" x="262.5"/>
     </g>
    </g>
    <g id="line2d_115">
     <path d="M 80.208 235.244375 
L 100.208 235.244375 
L 120.208 235.244375 
" style="fill: none; stroke: #bf00bf; stroke-width: 1.5; stroke-linecap: square"/>
    </g>
    <g id="text_20">
     <!-- -4: 0/1 -->
     <g transform="translate(136.208 242.244375) scale(0.2 -0.2)">
      <use xlink:href="#DejaVuSans-2d"/>
      <use xlink:href="#DejaVuSans-34" x="36.083984"/>
      <use xlink:href="#DejaVuSans-3a" x="99.707031"/>
      <use xlink:href="#DejaVuSans-20" x="133.398438"/>
      <use xlink:href="#DejaVuSans-30" x="165.185547"/>
      <use xlink:href="#DejaVuSans-2f" x="228.808594"/>
      <use xlink:href="#DejaVuSans-31" x="262.5"/>
     </g>
    </g>
    <g id="line2d_116">
     <path d="M 80.208 264.600625 
L 100.208 264.600625 
L 120.208 264.600625 
" style="fill: none; stroke: #ff0000; stroke-width: 3; stroke-linecap: square"/>
    </g>
    <g id="text_21">
     <!-- -8: 0/1 -->
     <g transform="translate(136.208 271.600625) scale(0.2 -0.2)">
      <use xlink:href="#DejaVuSans-2d"/>
      <use xlink:href="#DejaVuSans-38" x="36.083984"/>
      <use xlink:href="#DejaVuSans-3a" x="99.707031"/>
      <use xlink:href="#DejaVuSans-20" x="133.398438"/>
      <use xlink:href="#DejaVuSans-30" x="165.185547"/>
      <use xlink:href="#DejaVuSans-2f" x="228.808594"/>
      <use xlink:href="#DejaVuSans-31" x="262.5"/>
     </g>
    </g>
   </g>
  </g>
 </g>
 <defs>
  <clipPath id="p98a455de5f">
   <rect x="62.208" y="3.456" width="398.592" height="290.304"/>
  </clipPath>
 </defs>
</svg>
