<?xml version="1.0" encoding="utf-8" standalone="no"?>
<!DOCTYPE svg PUBLIC "-//W3C//DTD SVG 1.1//EN"
  "http://www.w3.org/Graphics/SVG/1.1/DTD/svg11.dtd">
<svg xmlns:xlink="http://www.w3.org/1999/xlink" width="460.8pt" height="345.6pt" viewBox="0 0 460.8 345.6" xmlns="http://www.w3.org/2000/svg" version="1.1">
 <metadata>
  <rdf:RDF xmlns:dc="http://purl.org/dc/elements/1.1/" xmlns:cc="http://creativecommons.org/ns#" xmlns:rdf="http://www.w3.org/1999/02/22-rdf-syntax-ns#">
   <cc:Work>
    <dc:type rdf:resource="http://purl.org/dc/dcmitype/StillImage"/>
    <dc:date>2024-10-11T15:13:43.675359</dc:date>
    <dc:format>image/svg+xml</dc:format>
    <dc:creator>
     <cc:Agent>
      <dc:title>Matplotlib v3.9.2, https://matplotlib.org/</dc:title>
     </cc:Agent>
    </dc:creator>
   </cc:Work>
  </rdf:RDF>
 </metadata>
 <defs>
  <style type="text/css">*{stroke-linejoin: round; stroke-linecap: butt}</style>
 </defs>
 <g id="figure_1">
  <g id="patch_1">
   <path d="M 0 345.6 
L 460.8 345.6 
L 460.8 0 
L 0 0 
z
" style="fill: #ffffff"/>
  </g>
  <g id="axes_1">
   <g id="patch_2">
    <path d="M 22.78 315.44 
L 445.514562 315.44 
L 445.514562 27.72 
L 22.78 27.72 
z
" style="fill: #ffffff"/>
   </g>
   <g id="matplotlib.axis_1">
    <g id="xtick_1">
     <g id="line2d_1">
      <defs>
       <path id="m1a2f63655e" d="M 0 0 
L 0 3.5 
" style="stroke: #000000; stroke-width: 0.8"/>
      </defs>
      <g>
       <use xlink:href="#m1a2f63655e" x="34.854" y="315.44" style="stroke: #000000; stroke-width: 0.8"/>
      </g>
     </g>
     <g id="text_1">
      <!-- 5 -->
      <g transform="translate(28.4915 337.636875) scale(0.2 -0.2)">
       <defs>
        <path id="DejaVuSans-35" d="M 691 4666 
L 3169 4666 
L 3169 4134 
L 1269 4134 
L 1269 2991 
Q 1406 3038 1543 3061 
Q 1681 3084 1819 3084 
Q 2600 3084 3056 2656 
Q 3513 2228 3513 1497 
Q 3513 744 3044 326 
Q 2575 -91 1722 -91 
Q 1428 -91 1123 -41 
Q 819 9 494 109 
L 494 744 
Q 775 591 1075 516 
Q 1375 441 1709 441 
Q 2250 441 2565 725 
Q 2881 1009 2881 1497 
Q 2881 1984 2565 2268 
Q 2250 2553 1709 2553 
Q 1456 2553 1204 2497 
Q 953 2441 691 2322 
L 691 4666 
z
" transform="scale(0.015625)"/>
       </defs>
       <use xlink:href="#DejaVuSans-35"/>
      </g>
     </g>
    </g>
    <g id="xtick_2">
     <g id="line2d_2">
      <g>
       <use xlink:href="#m1a2f63655e" x="114.286596" y="315.44" style="stroke: #000000; stroke-width: 0.8"/>
      </g>
     </g>
     <g id="text_2">
      <!-- 10 -->
      <g transform="translate(101.561596 337.636875) scale(0.2 -0.2)">
       <defs>
        <path id="DejaVuSans-31" d="M 794 531 
L 1825 531 
L 1825 4091 
L 703 3866 
L 703 4441 
L 1819 4666 
L 2450 4666 
L 2450 531 
L 3481 531 
L 3481 0 
L 794 0 
L 794 531 
z
" transform="scale(0.015625)"/>
        <path id="DejaVuSans-30" d="M 2034 4250 
Q 1547 4250 1301 3770 
Q 1056 3291 1056 2328 
Q 1056 1369 1301 889 
Q 1547 409 2034 409 
Q 2525 409 2770 889 
Q 3016 1369 3016 2328 
Q 3016 3291 2770 3770 
Q 2525 4250 2034 4250 
z
M 2034 4750 
Q 2819 4750 3233 4129 
Q 3647 3509 3647 2328 
Q 3647 1150 3233 529 
Q 2819 -91 2034 -91 
Q 1250 -91 836 529 
Q 422 1150 422 2328 
Q 422 3509 836 4129 
Q 1250 4750 2034 4750 
z
" transform="scale(0.015625)"/>
       </defs>
       <use xlink:href="#DejaVuSans-31"/>
       <use xlink:href="#DejaVuSans-30" x="63.623047"/>
      </g>
     </g>
    </g>
    <g id="xtick_3">
     <g id="line2d_3">
      <g>
       <use xlink:href="#m1a2f63655e" x="193.719191" y="315.44" style="stroke: #000000; stroke-width: 0.8"/>
      </g>
     </g>
     <g id="text_3">
      <!-- 20 -->
      <g transform="translate(180.994191 337.636875) scale(0.2 -0.2)">
       <defs>
        <path id="DejaVuSans-32" d="M 1228 531 
L 3431 531 
L 3431 0 
L 469 0 
L 469 531 
Q 828 903 1448 1529 
Q 2069 2156 2228 2338 
Q 2531 2678 2651 2914 
Q 2772 3150 2772 3378 
Q 2772 3750 2511 3984 
Q 2250 4219 1831 4219 
Q 1534 4219 1204 4116 
Q 875 4013 500 3803 
L 500 4441 
Q 881 4594 1212 4672 
Q 1544 4750 1819 4750 
Q 2544 4750 2975 4387 
Q 3406 4025 3406 3419 
Q 3406 3131 3298 2873 
Q 3191 2616 2906 2266 
Q 2828 2175 2409 1742 
Q 1991 1309 1228 531 
z
" transform="scale(0.015625)"/>
       </defs>
       <use xlink:href="#DejaVuSans-32"/>
       <use xlink:href="#DejaVuSans-30" x="63.623047"/>
      </g>
     </g>
    </g>
    <g id="xtick_4">
     <g id="line2d_4">
      <g>
       <use xlink:href="#m1a2f63655e" x="273.151787" y="315.44" style="stroke: #000000; stroke-width: 0.8"/>
      </g>
     </g>
     <g id="text_4">
      <!-- 40 -->
      <g transform="translate(260.426787 337.636875) scale(0.2 -0.2)">
       <defs>
        <path id="DejaVuSans-34" d="M 2419 4116 
L 825 1625 
L 2419 1625 
L 2419 4116 
z
M 2253 4666 
L 3047 4666 
L 3047 1625 
L 3713 1625 
L 3713 1100 
L 3047 1100 
L 3047 0 
L 2419 0 
L 2419 1100 
L 313 1100 
L 313 1709 
L 2253 4666 
z
" transform="scale(0.015625)"/>
       </defs>
       <use xlink:href="#DejaVuSans-34"/>
       <use xlink:href="#DejaVuSans-30" x="63.623047"/>
      </g>
     </g>
    </g>
    <g id="xtick_5">
     <g id="line2d_5">
      <g>
       <use xlink:href="#m1a2f63655e" x="352.584383" y="315.44" style="stroke: #000000; stroke-width: 0.8"/>
      </g>
     </g>
     <g id="text_5">
      <!-- 80 -->
      <g transform="translate(339.859383 337.636875) scale(0.2 -0.2)">
       <defs>
        <path id="DejaVuSans-38" d="M 2034 2216 
Q 1584 2216 1326 1975 
Q 1069 1734 1069 1313 
Q 1069 891 1326 650 
Q 1584 409 2034 409 
Q 2484 409 2743 651 
Q 3003 894 3003 1313 
Q 3003 1734 2745 1975 
Q 2488 2216 2034 2216 
z
M 1403 2484 
Q 997 2584 770 2862 
Q 544 3141 544 3541 
Q 544 4100 942 4425 
Q 1341 4750 2034 4750 
Q 2731 4750 3128 4425 
Q 3525 4100 3525 3541 
Q 3525 3141 3298 2862 
Q 3072 2584 2669 2484 
Q 3125 2378 3379 2068 
Q 3634 1759 3634 1313 
Q 3634 634 3220 271 
Q 2806 -91 2034 -91 
Q 1263 -91 848 271 
Q 434 634 434 1313 
Q 434 1759 690 2068 
Q 947 2378 1403 2484 
z
M 1172 3481 
Q 1172 3119 1398 2916 
Q 1625 2713 2034 2713 
Q 2441 2713 2670 2916 
Q 2900 3119 2900 3481 
Q 2900 3844 2670 4047 
Q 2441 4250 2034 4250 
Q 1625 4250 1398 4047 
Q 1172 3844 1172 3481 
z
" transform="scale(0.015625)"/>
       </defs>
       <use xlink:href="#DejaVuSans-38"/>
       <use xlink:href="#DejaVuSans-30" x="63.623047"/>
      </g>
     </g>
    </g>
    <g id="xtick_6">
     <g id="line2d_6">
      <g>
       <use xlink:href="#m1a2f63655e" x="432.016978" y="315.44" style="stroke: #000000; stroke-width: 0.8"/>
      </g>
     </g>
     <g id="text_6">
      <!-- 160 -->
      <g transform="translate(412.929478 337.636875) scale(0.2 -0.2)">
       <defs>
        <path id="DejaVuSans-36" d="M 2113 2584 
Q 1688 2584 1439 2293 
Q 1191 2003 1191 1497 
Q 1191 994 1439 701 
Q 1688 409 2113 409 
Q 2538 409 2786 701 
Q 3034 994 3034 1497 
Q 3034 2003 2786 2293 
Q 2538 2584 2113 2584 
z
M 3366 4563 
L 3366 3988 
Q 3128 4100 2886 4159 
Q 2644 4219 2406 4219 
Q 1781 4219 1451 3797 
Q 1122 3375 1075 2522 
Q 1259 2794 1537 2939 
Q 1816 3084 2150 3084 
Q 2853 3084 3261 2657 
Q 3669 2231 3669 1497 
Q 3669 778 3244 343 
Q 2819 -91 2113 -91 
Q 1303 -91 875 529 
Q 447 1150 447 2328 
Q 447 3434 972 4092 
Q 1497 4750 2381 4750 
Q 2619 4750 2861 4703 
Q 3103 4656 3366 4563 
z
" transform="scale(0.015625)"/>
       </defs>
       <use xlink:href="#DejaVuSans-31"/>
       <use xlink:href="#DejaVuSans-36" x="63.623047"/>
       <use xlink:href="#DejaVuSans-30" x="127.246094"/>
      </g>
     </g>
    </g>
    <g id="xtick_7">
     <g id="line2d_7">
      <defs>
       <path id="md95c452934" d="M 0 0 
L 0 2 
" style="stroke: #000000; stroke-width: 0.6"/>
      </defs>
      <g>
       <use xlink:href="#md95c452934" x="55.747506" y="315.44" style="stroke: #000000; stroke-width: 0.6"/>
      </g>
     </g>
    </g>
    <g id="xtick_8">
     <g id="line2d_8">
      <g>
       <use xlink:href="#md95c452934" x="73.412713" y="315.44" style="stroke: #000000; stroke-width: 0.6"/>
      </g>
     </g>
    </g>
    <g id="xtick_9">
     <g id="line2d_9">
      <g>
       <use xlink:href="#md95c452934" x="88.715012" y="315.44" style="stroke: #000000; stroke-width: 0.6"/>
      </g>
     </g>
    </g>
    <g id="xtick_10">
     <g id="line2d_10">
      <g>
       <use xlink:href="#md95c452934" x="102.212596" y="315.44" style="stroke: #000000; stroke-width: 0.6"/>
      </g>
     </g>
    </g>
    <g id="xtick_11">
     <g id="line2d_11">
      <g>
       <use xlink:href="#md95c452934" x="240.184281" y="315.44" style="stroke: #000000; stroke-width: 0.6"/>
      </g>
     </g>
    </g>
    <g id="xtick_12">
     <g id="line2d_12">
      <g>
       <use xlink:href="#md95c452934" x="298.723371" y="315.44" style="stroke: #000000; stroke-width: 0.6"/>
      </g>
     </g>
    </g>
    <g id="xtick_13">
     <g id="line2d_13">
      <g>
       <use xlink:href="#md95c452934" x="319.616877" y="315.44" style="stroke: #000000; stroke-width: 0.6"/>
      </g>
     </g>
    </g>
    <g id="xtick_14">
     <g id="line2d_14">
      <g>
       <use xlink:href="#md95c452934" x="337.282084" y="315.44" style="stroke: #000000; stroke-width: 0.6"/>
      </g>
     </g>
    </g>
    <g id="xtick_15">
     <g id="line2d_15">
      <g>
       <use xlink:href="#md95c452934" x="366.081967" y="315.44" style="stroke: #000000; stroke-width: 0.6"/>
      </g>
     </g>
    </g>
   </g>
   <g id="matplotlib.axis_2">
    <g id="ytick_1">
     <g id="line2d_16">
      <path d="M 22.78 297.457502 
L 445.514562 297.457502 
" clip-path="url(#pcf593b5cd8)" style="fill: none; stroke: #b0b0b0; stroke-width: 0.8; stroke-linecap: square"/>
     </g>
     <g id="line2d_17">
      <defs>
       <path id="me71c1e4c57" d="M 0 0 
L -3.5 0 
" style="stroke: #000000; stroke-width: 0.8"/>
      </defs>
      <g>
       <use xlink:href="#me71c1e4c57" x="22.78" y="297.457502" style="stroke: #000000; stroke-width: 0.8"/>
      </g>
     </g>
     <g id="text_7">
      <!-- 0 -->
      <g transform="translate(3.055 305.05594) scale(0.2 -0.2)">
       <use xlink:href="#DejaVuSans-30"/>
      </g>
     </g>
    </g>
    <g id="ytick_2">
     <g id="line2d_18">
      <path d="M 22.78 207.545015 
L 445.514562 207.545015 
" clip-path="url(#pcf593b5cd8)" style="fill: none; stroke: #b0b0b0; stroke-width: 0.8; stroke-linecap: square"/>
     </g>
     <g id="line2d_19">
      <g>
       <use xlink:href="#me71c1e4c57" x="22.78" y="207.545015" style="stroke: #000000; stroke-width: 0.8"/>
      </g>
     </g>
     <g id="text_8">
      <!-- 1 -->
      <g transform="translate(3.055 215.143452) scale(0.2 -0.2)">
       <use xlink:href="#DejaVuSans-31"/>
      </g>
     </g>
    </g>
    <g id="ytick_3">
     <g id="line2d_20">
      <path d="M 22.78 117.632527 
L 445.514562 117.632527 
" clip-path="url(#pcf593b5cd8)" style="fill: none; stroke: #b0b0b0; stroke-width: 0.8; stroke-linecap: square"/>
     </g>
     <g id="line2d_21">
      <g>
       <use xlink:href="#me71c1e4c57" x="22.78" y="117.632527" style="stroke: #000000; stroke-width: 0.8"/>
      </g>
     </g>
     <g id="text_9">
      <!-- 2 -->
      <g transform="translate(3.055 125.230964) scale(0.2 -0.2)">
       <use xlink:href="#DejaVuSans-32"/>
      </g>
     </g>
    </g>
    <g id="ytick_4">
     <g id="line2d_22">
      <path d="M 22.78 27.720039 
L 445.514562 27.720039 
" clip-path="url(#pcf593b5cd8)" style="fill: none; stroke: #b0b0b0; stroke-width: 0.8; stroke-linecap: square"/>
     </g>
     <g id="line2d_23">
      <g>
       <use xlink:href="#me71c1e4c57" x="22.78" y="27.720039" style="stroke: #000000; stroke-width: 0.8"/>
      </g>
     </g>
     <g id="text_10">
      <!-- 3 -->
      <g transform="translate(3.055 35.318477) scale(0.2 -0.2)">
       <defs>
        <path id="DejaVuSans-33" d="M 2597 2516 
Q 3050 2419 3304 2112 
Q 3559 1806 3559 1356 
Q 3559 666 3084 287 
Q 2609 -91 1734 -91 
Q 1441 -91 1130 -33 
Q 819 25 488 141 
L 488 750 
Q 750 597 1062 519 
Q 1375 441 1716 441 
Q 2309 441 2620 675 
Q 2931 909 2931 1356 
Q 2931 1769 2642 2001 
Q 2353 2234 1838 2234 
L 1294 2234 
L 1294 2753 
L 1863 2753 
Q 2328 2753 2575 2939 
Q 2822 3125 2822 3475 
Q 2822 3834 2567 4026 
Q 2313 4219 1838 4219 
Q 1578 4219 1281 4162 
Q 984 4106 628 3988 
L 628 4550 
Q 988 4650 1302 4700 
Q 1616 4750 1894 4750 
Q 2613 4750 3031 4423 
Q 3450 4097 3450 3541 
Q 3450 3153 3228 2886 
Q 3006 2619 2597 2516 
z
" transform="scale(0.015625)"/>
       </defs>
       <use xlink:href="#DejaVuSans-33"/>
      </g>
     </g>
    </g>
    <g id="ytick_5">
     <g id="line2d_24">
      <defs>
       <path id="mbc8432cdef" d="M 0 0 
L -2 0 
" style="stroke: #000000; stroke-width: 0.6"/>
      </defs>
      <g>
       <use xlink:href="#mbc8432cdef" x="22.78" y="311.385123" style="stroke: #000000; stroke-width: 0.6"/>
      </g>
     </g>
    </g>
    <g id="ytick_6">
     <g id="line2d_25">
      <g>
       <use xlink:href="#mbc8432cdef" x="22.78" y="306.170923" style="stroke: #000000; stroke-width: 0.6"/>
      </g>
     </g>
    </g>
    <g id="ytick_7">
     <g id="line2d_26">
      <g>
       <use xlink:href="#mbc8432cdef" x="22.78" y="301.571672" style="stroke: #000000; stroke-width: 0.6"/>
      </g>
     </g>
    </g>
    <g id="ytick_8">
     <g id="line2d_27">
      <g>
       <use xlink:href="#mbc8432cdef" x="22.78" y="270.391147" style="stroke: #000000; stroke-width: 0.6"/>
      </g>
     </g>
    </g>
    <g id="ytick_9">
     <g id="line2d_28">
      <g>
       <use xlink:href="#mbc8432cdef" x="22.78" y="254.558343" style="stroke: #000000; stroke-width: 0.6"/>
      </g>
     </g>
    </g>
    <g id="ytick_10">
     <g id="line2d_29">
      <g>
       <use xlink:href="#mbc8432cdef" x="22.78" y="243.324791" style="stroke: #000000; stroke-width: 0.6"/>
      </g>
     </g>
    </g>
    <g id="ytick_11">
     <g id="line2d_30">
      <g>
       <use xlink:href="#mbc8432cdef" x="22.78" y="234.61137" style="stroke: #000000; stroke-width: 0.6"/>
      </g>
     </g>
    </g>
    <g id="ytick_12">
     <g id="line2d_31">
      <g>
       <use xlink:href="#mbc8432cdef" x="22.78" y="227.491988" style="stroke: #000000; stroke-width: 0.6"/>
      </g>
     </g>
    </g>
    <g id="ytick_13">
     <g id="line2d_32">
      <g>
       <use xlink:href="#mbc8432cdef" x="22.78" y="221.472635" style="stroke: #000000; stroke-width: 0.6"/>
      </g>
     </g>
    </g>
    <g id="ytick_14">
     <g id="line2d_33">
      <g>
       <use xlink:href="#mbc8432cdef" x="22.78" y="216.258435" style="stroke: #000000; stroke-width: 0.6"/>
      </g>
     </g>
    </g>
    <g id="ytick_15">
     <g id="line2d_34">
      <g>
       <use xlink:href="#mbc8432cdef" x="22.78" y="211.659184" style="stroke: #000000; stroke-width: 0.6"/>
      </g>
     </g>
    </g>
    <g id="ytick_16">
     <g id="line2d_35">
      <g>
       <use xlink:href="#mbc8432cdef" x="22.78" y="180.478659" style="stroke: #000000; stroke-width: 0.6"/>
      </g>
     </g>
    </g>
    <g id="ytick_17">
     <g id="line2d_36">
      <g>
       <use xlink:href="#mbc8432cdef" x="22.78" y="164.645856" style="stroke: #000000; stroke-width: 0.6"/>
      </g>
     </g>
    </g>
    <g id="ytick_18">
     <g id="line2d_37">
      <g>
       <use xlink:href="#mbc8432cdef" x="22.78" y="153.412303" style="stroke: #000000; stroke-width: 0.6"/>
      </g>
     </g>
    </g>
    <g id="ytick_19">
     <g id="line2d_38">
      <g>
       <use xlink:href="#mbc8432cdef" x="22.78" y="144.698883" style="stroke: #000000; stroke-width: 0.6"/>
      </g>
     </g>
    </g>
    <g id="ytick_20">
     <g id="line2d_39">
      <g>
       <use xlink:href="#mbc8432cdef" x="22.78" y="137.5795" style="stroke: #000000; stroke-width: 0.6"/>
      </g>
     </g>
    </g>
    <g id="ytick_21">
     <g id="line2d_40">
      <g>
       <use xlink:href="#mbc8432cdef" x="22.78" y="131.560147" style="stroke: #000000; stroke-width: 0.6"/>
      </g>
     </g>
    </g>
    <g id="ytick_22">
     <g id="line2d_41">
      <g>
       <use xlink:href="#mbc8432cdef" x="22.78" y="126.345947" style="stroke: #000000; stroke-width: 0.6"/>
      </g>
     </g>
    </g>
    <g id="ytick_23">
     <g id="line2d_42">
      <g>
       <use xlink:href="#mbc8432cdef" x="22.78" y="121.746697" style="stroke: #000000; stroke-width: 0.6"/>
      </g>
     </g>
    </g>
    <g id="ytick_24">
     <g id="line2d_43">
      <g>
       <use xlink:href="#mbc8432cdef" x="22.78" y="90.566171" style="stroke: #000000; stroke-width: 0.6"/>
      </g>
     </g>
    </g>
    <g id="ytick_25">
     <g id="line2d_44">
      <g>
       <use xlink:href="#mbc8432cdef" x="22.78" y="74.733368" style="stroke: #000000; stroke-width: 0.6"/>
      </g>
     </g>
    </g>
    <g id="ytick_26">
     <g id="line2d_45">
      <g>
       <use xlink:href="#mbc8432cdef" x="22.78" y="63.499815" style="stroke: #000000; stroke-width: 0.6"/>
      </g>
     </g>
    </g>
    <g id="ytick_27">
     <g id="line2d_46">
      <g>
       <use xlink:href="#mbc8432cdef" x="22.78" y="54.786395" style="stroke: #000000; stroke-width: 0.6"/>
      </g>
     </g>
    </g>
    <g id="ytick_28">
     <g id="line2d_47">
      <g>
       <use xlink:href="#mbc8432cdef" x="22.78" y="47.667012" style="stroke: #000000; stroke-width: 0.6"/>
      </g>
     </g>
    </g>
    <g id="ytick_29">
     <g id="line2d_48">
      <g>
       <use xlink:href="#mbc8432cdef" x="22.78" y="41.64766" style="stroke: #000000; stroke-width: 0.6"/>
      </g>
     </g>
    </g>
    <g id="ytick_30">
     <g id="line2d_49">
      <g>
       <use xlink:href="#mbc8432cdef" x="22.78" y="36.433459" style="stroke: #000000; stroke-width: 0.6"/>
      </g>
     </g>
    </g>
    <g id="ytick_31">
     <g id="line2d_50">
      <g>
       <use xlink:href="#mbc8432cdef" x="22.78" y="31.834209" style="stroke: #000000; stroke-width: 0.6"/>
      </g>
     </g>
    </g>
   </g>
   <g id="line2d_51">
    <path d="M 32.123435 306.170923 
L 34.034831 257.252411 
L 32.123435 244.817272 
L 37.584566 244.817272 
L 35.67317 257.252411 
L 37.584566 306.170923 
L 32.123435 306.170923 
" clip-path="url(#pcf593b5cd8)" style="fill: none; stroke: #000000; stroke-linecap: square"/>
   </g>
   <g id="line2d_52">
    <path d="M 32.123435 306.170923 
L 37.584566 306.170923 
L 37.584566 244.817272 
L 32.123435 244.817272 
L 32.123435 306.170923 
" clip-path="url(#pcf593b5cd8)" style="fill: none"/>
    <defs>
     <path id="m39bb0d0038" d="M 0 3 
C 0.795609 3 1.55874 2.683901 2.12132 2.12132 
C 2.683901 1.55874 3 0.795609 3 0 
C 3 -0.795609 2.683901 -1.55874 2.12132 -2.12132 
C 1.55874 -2.683901 0.795609 -3 0 -3 
C -0.795609 -3 -1.55874 -2.683901 -2.12132 -2.12132 
C -2.683901 -1.55874 -3 -0.795609 -3 0 
C -3 0.795609 -2.683901 1.55874 -2.12132 2.12132 
C -1.55874 2.683901 -0.795609 3 0 3 
z
" style="stroke: #000000; stroke-width: 2"/>
    </defs>
    <g clip-path="url(#pcf593b5cd8)">
     <use xlink:href="#m39bb0d0038" x="32.123435" y="306.170923" style="stroke: #000000; stroke-width: 2"/>
     <use xlink:href="#m39bb0d0038" x="37.584566" y="306.170923" style="stroke: #000000; stroke-width: 2"/>
     <use xlink:href="#m39bb0d0038" x="37.584566" y="244.817272" style="stroke: #000000; stroke-width: 2"/>
     <use xlink:href="#m39bb0d0038" x="32.123435" y="244.817272" style="stroke: #000000; stroke-width: 2"/>
     <use xlink:href="#m39bb0d0038" x="32.123435" y="306.170923" style="stroke: #000000; stroke-width: 2"/>
    </g>
   </g>
   <g id="line2d_53">
    <path d="M 32.123435 257.252411 
L 37.584566 257.252411 
" clip-path="url(#pcf593b5cd8)" style="fill: none; stroke: #000000; stroke-width: 2; stroke-linecap: square"/>
   </g>
   <g id="line2d_54">
    <path d="M 111.55603 155.363883 
L 113.467426 140.76475 
L 111.55603 121.165319 
L 117.017161 121.165319 
L 115.105766 140.76475 
L 117.017161 155.363883 
L 111.55603 155.363883 
" clip-path="url(#pcf593b5cd8)" style="fill: none; stroke: #000000; stroke-linecap: square"/>
   </g>
   <g id="line2d_55">
    <path d="M 111.55603 155.363883 
L 117.017161 155.363883 
L 117.017161 121.165319 
L 111.55603 121.165319 
L 111.55603 155.363883 
" clip-path="url(#pcf593b5cd8)" style="fill: none"/>
    <g clip-path="url(#pcf593b5cd8)">
     <use xlink:href="#m39bb0d0038" x="111.55603" y="155.363883" style="stroke: #000000; stroke-width: 2"/>
     <use xlink:href="#m39bb0d0038" x="117.017161" y="155.363883" style="stroke: #000000; stroke-width: 2"/>
     <use xlink:href="#m39bb0d0038" x="117.017161" y="121.165319" style="stroke: #000000; stroke-width: 2"/>
     <use xlink:href="#m39bb0d0038" x="111.55603" y="121.165319" style="stroke: #000000; stroke-width: 2"/>
     <use xlink:href="#m39bb0d0038" x="111.55603" y="155.363883" style="stroke: #000000; stroke-width: 2"/>
    </g>
   </g>
   <g id="line2d_56">
    <path d="M 111.55603 140.76475 
L 117.017161 140.76475 
" clip-path="url(#pcf593b5cd8)" style="fill: none; stroke: #000000; stroke-width: 2; stroke-linecap: square"/>
   </g>
   <g id="line2d_57">
    <path d="M 34.854 253.194065 
L 114.286596 137.058012 
" clip-path="url(#pcf593b5cd8)" style="fill: none; stroke: #000000; stroke-width: 4; stroke-linecap: square"/>
   </g>
   <g id="line2d_58">
    <path d="M 34.854 253.194065 
L 114.286596 137.058012 
" clip-path="url(#pcf593b5cd8)" style="fill: none"/>
    <defs>
     <path id="me61d95aca6" d="M 0 10 
C 2.652031 10 5.195799 8.946337 7.071068 7.071068 
C 8.946337 5.195799 10 2.652031 10 0 
C 10 -2.652031 8.946337 -5.195799 7.071068 -7.071068 
C 5.195799 -8.946337 2.652031 -10 0 -10 
C -2.652031 -10 -5.195799 -8.946337 -7.071068 -7.071068 
C -8.946337 -5.195799 -10 -2.652031 -10 0 
C -10 2.652031 -8.946337 5.195799 -7.071068 7.071068 
C -5.195799 8.946337 -2.652031 10 0 10 
z
" style="stroke: #000000; stroke-width: 2"/>
    </defs>
    <g clip-path="url(#pcf593b5cd8)">
     <use xlink:href="#me61d95aca6" x="34.854" y="253.194065" style="stroke: #000000; stroke-width: 2"/>
     <use xlink:href="#me61d95aca6" x="114.286596" y="137.058012" style="stroke: #000000; stroke-width: 2"/>
    </g>
   </g>
   <g id="line2d_59">
    <path d="M 31.213246 145.968864 
L 33.761774 139.995641 
L 31.213246 114.393004 
L 38.494754 114.393004 
L 35.946226 139.995641 
L 38.494754 145.968864 
L 31.213246 145.968864 
" clip-path="url(#pcf593b5cd8)" style="fill: none; stroke: #0000ff; stroke-linecap: square"/>
   </g>
   <g id="line2d_60">
    <path d="M 31.213246 145.968864 
L 38.494754 145.968864 
L 38.494754 114.393004 
L 31.213246 114.393004 
L 31.213246 145.968864 
" clip-path="url(#pcf593b5cd8)" style="fill: none"/>
    <defs>
     <path id="me16a0fce35" d="M 0 1.5 
C 0.397805 1.5 0.77937 1.341951 1.06066 1.06066 
C 1.341951 0.77937 1.5 0.397805 1.5 0 
C 1.5 -0.397805 1.341951 -0.77937 1.06066 -1.06066 
C 0.77937 -1.341951 0.397805 -1.5 0 -1.5 
C -0.397805 -1.5 -0.77937 -1.341951 -1.06066 -1.06066 
C -1.341951 -0.77937 -1.5 -0.397805 -1.5 0 
C -1.5 0.397805 -1.341951 0.77937 -1.06066 1.06066 
C -0.77937 1.341951 -0.397805 1.5 0 1.5 
z
" style="stroke: #0000ff"/>
    </defs>
    <g clip-path="url(#pcf593b5cd8)">
     <use xlink:href="#me16a0fce35" x="31.213246" y="145.968864" style="fill: #0000ff; stroke: #0000ff"/>
     <use xlink:href="#me16a0fce35" x="38.494754" y="145.968864" style="fill: #0000ff; stroke: #0000ff"/>
     <use xlink:href="#me16a0fce35" x="38.494754" y="114.393004" style="fill: #0000ff; stroke: #0000ff"/>
     <use xlink:href="#me16a0fce35" x="31.213246" y="114.393004" style="fill: #0000ff; stroke: #0000ff"/>
     <use xlink:href="#me16a0fce35" x="31.213246" y="145.968864" style="fill: #0000ff; stroke: #0000ff"/>
    </g>
   </g>
   <g id="line2d_61">
    <path d="M 31.213246 139.995641 
L 38.494754 139.995641 
" clip-path="url(#pcf593b5cd8)" style="fill: none; stroke: #0000ff; stroke-width: 2; stroke-linecap: square"/>
   </g>
   <g id="line2d_62">
    <path d="M 110.645842 89.812054 
L 113.19437 87.524819 
L 110.645842 84.012184 
L 117.92735 84.012184 
L 115.378822 87.524819 
L 117.92735 89.812054 
L 110.645842 89.812054 
" clip-path="url(#pcf593b5cd8)" style="fill: none; stroke: #0000ff; stroke-linecap: square"/>
   </g>
   <g id="line2d_63">
    <path d="M 110.645842 89.812054 
L 117.92735 89.812054 
L 117.92735 84.012184 
L 110.645842 84.012184 
L 110.645842 89.812054 
" clip-path="url(#pcf593b5cd8)" style="fill: none"/>
    <g clip-path="url(#pcf593b5cd8)">
     <use xlink:href="#me16a0fce35" x="110.645842" y="89.812054" style="fill: #0000ff; stroke: #0000ff"/>
     <use xlink:href="#me16a0fce35" x="117.92735" y="89.812054" style="fill: #0000ff; stroke: #0000ff"/>
     <use xlink:href="#me16a0fce35" x="117.92735" y="84.012184" style="fill: #0000ff; stroke: #0000ff"/>
     <use xlink:href="#me16a0fce35" x="110.645842" y="84.012184" style="fill: #0000ff; stroke: #0000ff"/>
     <use xlink:href="#me16a0fce35" x="110.645842" y="89.812054" style="fill: #0000ff; stroke: #0000ff"/>
    </g>
   </g>
   <g id="line2d_64">
    <path d="M 110.645842 87.524819 
L 117.92735 87.524819 
" clip-path="url(#pcf593b5cd8)" style="fill: none; stroke: #0000ff; stroke-width: 2; stroke-linecap: square"/>
   </g>
   <g id="line2d_65">
    <path d="M 34.854 130.114553 
L 114.286596 88.079 
" clip-path="url(#pcf593b5cd8)" style="fill: none; stroke: #0000ff; stroke-width: 4; stroke-linecap: square"/>
   </g>
   <g id="line2d_66">
    <path d="M 34.854 130.114553 
L 114.286596 88.079 
" clip-path="url(#pcf593b5cd8)" style="fill: none"/>
    <defs>
     <path id="mc2260d2257" d="M 0 5 
C 1.326016 5 2.597899 4.473168 3.535534 3.535534 
C 4.473168 2.597899 5 1.326016 5 0 
C 5 -1.326016 4.473168 -2.597899 3.535534 -3.535534 
C 2.597899 -4.473168 1.326016 -5 0 -5 
C -1.326016 -5 -2.597899 -4.473168 -3.535534 -3.535534 
C -4.473168 -2.597899 -5 -1.326016 -5 0 
C -5 1.326016 -4.473168 2.597899 -3.535534 3.535534 
C -2.597899 4.473168 -1.326016 5 0 5 
z
" style="stroke: #0000ff"/>
    </defs>
    <g clip-path="url(#pcf593b5cd8)">
     <use xlink:href="#mc2260d2257" x="34.854" y="130.114553" style="fill: #0000ff; stroke: #0000ff"/>
     <use xlink:href="#mc2260d2257" x="114.286596" y="88.079" style="fill: #0000ff; stroke: #0000ff"/>
    </g>
   </g>
   <g id="line2d_67">
    <path d="M 30.303058 103.029387 
L 33.488718 94.854277 
L 30.303058 83.406134 
L 39.404943 83.406134 
L 36.219283 94.854277 
L 39.404943 103.029387 
L 30.303058 103.029387 
" clip-path="url(#pcf593b5cd8)" style="fill: none; stroke: #00bfbf; stroke-linecap: square"/>
   </g>
   <g id="line2d_68">
    <path d="M 30.303058 103.029387 
L 39.404943 103.029387 
L 39.404943 83.406134 
L 30.303058 83.406134 
L 30.303058 103.029387 
" clip-path="url(#pcf593b5cd8)" style="fill: none"/>
    <defs>
     <path id="mdcad9b0fc5" d="M -0 3 
L 3 -3 
L -3 -3 
z
" style="stroke: #00bfbf; stroke-width: 2; stroke-linejoin: miter"/>
    </defs>
    <g clip-path="url(#pcf593b5cd8)">
     <use xlink:href="#mdcad9b0fc5" x="30.303058" y="103.029387" style="fill: #00bfbf; stroke: #00bfbf; stroke-width: 2; stroke-linejoin: miter"/>
     <use xlink:href="#mdcad9b0fc5" x="39.404943" y="103.029387" style="fill: #00bfbf; stroke: #00bfbf; stroke-width: 2; stroke-linejoin: miter"/>
     <use xlink:href="#mdcad9b0fc5" x="39.404943" y="83.406134" style="fill: #00bfbf; stroke: #00bfbf; stroke-width: 2; stroke-linejoin: miter"/>
     <use xlink:href="#mdcad9b0fc5" x="30.303058" y="83.406134" style="fill: #00bfbf; stroke: #00bfbf; stroke-width: 2; stroke-linejoin: miter"/>
     <use xlink:href="#mdcad9b0fc5" x="30.303058" y="103.029387" style="fill: #00bfbf; stroke: #00bfbf; stroke-width: 2; stroke-linejoin: miter"/>
    </g>
   </g>
   <g id="line2d_69">
    <path d="M 30.303058 94.854277 
L 39.404943 94.854277 
" clip-path="url(#pcf593b5cd8)" style="fill: none; stroke: #00bfbf; stroke-width: 2; stroke-linecap: square"/>
   </g>
   <g id="line2d_70">
    <path d="M 109.735653 77.60215 
L 112.921313 73.289565 
L 109.735653 68.017393 
L 118.837538 68.017393 
L 115.651879 73.289565 
L 118.837538 77.60215 
L 109.735653 77.60215 
" clip-path="url(#pcf593b5cd8)" style="fill: none; stroke: #00bfbf; stroke-linecap: square"/>
   </g>
   <g id="line2d_71">
    <path d="M 109.735653 77.60215 
L 118.837538 77.60215 
L 118.837538 68.017393 
L 109.735653 68.017393 
L 109.735653 77.60215 
" clip-path="url(#pcf593b5cd8)" style="fill: none"/>
    <g clip-path="url(#pcf593b5cd8)">
     <use xlink:href="#mdcad9b0fc5" x="109.735653" y="77.60215" style="fill: #00bfbf; stroke: #00bfbf; stroke-width: 2; stroke-linejoin: miter"/>
     <use xlink:href="#mdcad9b0fc5" x="118.837538" y="77.60215" style="fill: #00bfbf; stroke: #00bfbf; stroke-width: 2; stroke-linejoin: miter"/>
     <use xlink:href="#mdcad9b0fc5" x="118.837538" y="68.017393" style="fill: #00bfbf; stroke: #00bfbf; stroke-width: 2; stroke-linejoin: miter"/>
     <use xlink:href="#mdcad9b0fc5" x="109.735653" y="68.017393" style="fill: #00bfbf; stroke: #00bfbf; stroke-width: 2; stroke-linejoin: miter"/>
     <use xlink:href="#mdcad9b0fc5" x="109.735653" y="77.60215" style="fill: #00bfbf; stroke: #00bfbf; stroke-width: 2; stroke-linejoin: miter"/>
    </g>
   </g>
   <g id="line2d_72">
    <path d="M 109.735653 73.289565 
L 118.837538 73.289565 
" clip-path="url(#pcf593b5cd8)" style="fill: none; stroke: #00bfbf; stroke-width: 2; stroke-linecap: square"/>
   </g>
   <g id="line2d_73">
    <path d="M 34.854 90.974402 
L 114.286596 73.031186 
" clip-path="url(#pcf593b5cd8)" style="fill: none; stroke: #00bfbf; stroke-width: 4; stroke-linecap: square"/>
   </g>
   <g id="line2d_74">
    <path d="M 34.854 90.974402 
L 114.286596 73.031186 
" clip-path="url(#pcf593b5cd8)" style="fill: none"/>
    <defs>
     <path id="me4c24b0c8d" d="M -0 10 
L 10 -10 
L -10 -10 
z
" style="stroke: #000000; stroke-width: 2; stroke-linejoin: miter"/>
    </defs>
    <g clip-path="url(#pcf593b5cd8)">
     <use xlink:href="#me4c24b0c8d" x="34.854" y="90.974402" style="fill: #00bfbf; stroke: #000000; stroke-width: 2; stroke-linejoin: miter"/>
     <use xlink:href="#me4c24b0c8d" x="114.286596" y="73.031186" style="fill: #00bfbf; stroke: #000000; stroke-width: 2; stroke-linejoin: miter"/>
    </g>
   </g>
   <g id="line2d_75">
    <path d="M 29.392869 92.538282 
L 33.215661 81.821524 
L 29.392869 77.518189 
L 40.315131 77.518189 
L 36.49234 81.821524 
L 40.315131 92.538282 
L 29.392869 92.538282 
" clip-path="url(#pcf593b5cd8)" style="fill: none; stroke: #008000; stroke-linecap: square"/>
   </g>
   <g id="line2d_76">
    <path d="M 29.392869 92.538282 
L 40.315131 92.538282 
L 40.315131 77.518189 
L 29.392869 77.518189 
L 29.392869 92.538282 
" clip-path="url(#pcf593b5cd8)" style="fill: none"/>
    <defs>
     <path id="mfff2e46334" d="M 0 1.5 
C 0.397805 1.5 0.77937 1.341951 1.06066 1.06066 
C 1.341951 0.77937 1.5 0.397805 1.5 0 
C 1.5 -0.397805 1.341951 -0.77937 1.06066 -1.06066 
C 0.77937 -1.341951 0.397805 -1.5 0 -1.5 
C -0.397805 -1.5 -0.77937 -1.341951 -1.06066 -1.06066 
C -1.341951 -0.77937 -1.5 -0.397805 -1.5 0 
C -1.5 0.397805 -1.341951 0.77937 -1.06066 1.06066 
C -0.77937 1.341951 -0.397805 1.5 0 1.5 
z
" style="stroke: #008000"/>
    </defs>
    <g clip-path="url(#pcf593b5cd8)">
     <use xlink:href="#mfff2e46334" x="29.392869" y="92.538282" style="fill: #008000; stroke: #008000"/>
     <use xlink:href="#mfff2e46334" x="40.315131" y="92.538282" style="fill: #008000; stroke: #008000"/>
     <use xlink:href="#mfff2e46334" x="40.315131" y="77.518189" style="fill: #008000; stroke: #008000"/>
     <use xlink:href="#mfff2e46334" x="29.392869" y="77.518189" style="fill: #008000; stroke: #008000"/>
     <use xlink:href="#mfff2e46334" x="29.392869" y="92.538282" style="fill: #008000; stroke: #008000"/>
    </g>
   </g>
   <g id="line2d_77">
    <path d="M 29.392869 81.821524 
L 40.315131 81.821524 
" clip-path="url(#pcf593b5cd8)" style="fill: none; stroke: #008000; stroke-width: 2; stroke-linecap: square"/>
   </g>
   <g id="line2d_78">
    <path d="M 108.825465 70.073422 
L 112.648257 62.336112 
L 108.825465 61.388315 
L 119.747727 61.388315 
L 115.924935 62.336112 
L 119.747727 70.073422 
L 108.825465 70.073422 
" clip-path="url(#pcf593b5cd8)" style="fill: none; stroke: #008000; stroke-linecap: square"/>
   </g>
   <g id="line2d_79">
    <path d="M 108.825465 70.073422 
L 119.747727 70.073422 
L 119.747727 61.388315 
L 108.825465 61.388315 
L 108.825465 70.073422 
" clip-path="url(#pcf593b5cd8)" style="fill: none"/>
    <g clip-path="url(#pcf593b5cd8)">
     <use xlink:href="#mfff2e46334" x="108.825465" y="70.073422" style="fill: #008000; stroke: #008000"/>
     <use xlink:href="#mfff2e46334" x="119.747727" y="70.073422" style="fill: #008000; stroke: #008000"/>
     <use xlink:href="#mfff2e46334" x="119.747727" y="61.388315" style="fill: #008000; stroke: #008000"/>
     <use xlink:href="#mfff2e46334" x="108.825465" y="61.388315" style="fill: #008000; stroke: #008000"/>
     <use xlink:href="#mfff2e46334" x="108.825465" y="70.073422" style="fill: #008000; stroke: #008000"/>
    </g>
   </g>
   <g id="line2d_80">
    <path d="M 108.825465 62.336112 
L 119.747727 62.336112 
" clip-path="url(#pcf593b5cd8)" style="fill: none; stroke: #008000; stroke-width: 2; stroke-linecap: square"/>
   </g>
   <g id="line2d_81">
    <path d="M 34.854 83.705799 
L 114.286596 65.327076 
" clip-path="url(#pcf593b5cd8)" style="fill: none; stroke: #008000; stroke-width: 4; stroke-linecap: square"/>
   </g>
   <g id="line2d_82">
    <path d="M 34.854 83.705799 
L 114.286596 65.327076 
" clip-path="url(#pcf593b5cd8)" style="fill: none"/>
    <defs>
     <path id="m87c61a3c0a" d="M 0 5 
C 1.326016 5 2.597899 4.473168 3.535534 3.535534 
C 4.473168 2.597899 5 1.326016 5 0 
C 5 -1.326016 4.473168 -2.597899 3.535534 -3.535534 
C 2.597899 -4.473168 1.326016 -5 0 -5 
C -1.326016 -5 -2.597899 -4.473168 -3.535534 -3.535534 
C -4.473168 -2.597899 -5 -1.326016 -5 0 
C -5 1.326016 -4.473168 2.597899 -3.535534 3.535534 
C -2.597899 4.473168 -1.326016 5 0 5 
z
" style="stroke: #008000"/>
    </defs>
    <g clip-path="url(#pcf593b5cd8)">
     <use xlink:href="#m87c61a3c0a" x="34.854" y="83.705799" style="fill: #008000; stroke: #008000"/>
     <use xlink:href="#m87c61a3c0a" x="114.286596" y="65.327076" style="fill: #008000; stroke: #008000"/>
    </g>
   </g>
   <g id="line2d_83">
    <path d="M 28.482681 90.400567 
L 32.942604 75.389661 
L 28.482681 70.599679 
L 41.22532 70.599679 
L 36.765396 75.389661 
L 41.22532 90.400567 
L 28.482681 90.400567 
" clip-path="url(#pcf593b5cd8)" style="fill: none; stroke: #bfbf00; stroke-linecap: square"/>
   </g>
   <g id="line2d_84">
    <path d="M 28.482681 90.400567 
L 41.22532 90.400567 
L 41.22532 70.599679 
L 28.482681 70.599679 
L 28.482681 90.400567 
" clip-path="url(#pcf593b5cd8)" style="fill: none"/>
    <defs>
     <path id="meb2aad8342" d="M 0 -3 
L -3 3 
L 3 3 
z
" style="stroke: #bfbf00; stroke-width: 2; stroke-linejoin: miter"/>
    </defs>
    <g clip-path="url(#pcf593b5cd8)">
     <use xlink:href="#meb2aad8342" x="28.482681" y="90.400567" style="fill: #bfbf00; stroke: #bfbf00; stroke-width: 2; stroke-linejoin: miter"/>
     <use xlink:href="#meb2aad8342" x="41.22532" y="90.400567" style="fill: #bfbf00; stroke: #bfbf00; stroke-width: 2; stroke-linejoin: miter"/>
     <use xlink:href="#meb2aad8342" x="41.22532" y="70.599679" style="fill: #bfbf00; stroke: #bfbf00; stroke-width: 2; stroke-linejoin: miter"/>
     <use xlink:href="#meb2aad8342" x="28.482681" y="70.599679" style="fill: #bfbf00; stroke: #bfbf00; stroke-width: 2; stroke-linejoin: miter"/>
     <use xlink:href="#meb2aad8342" x="28.482681" y="90.400567" style="fill: #bfbf00; stroke: #bfbf00; stroke-width: 2; stroke-linejoin: miter"/>
    </g>
   </g>
   <g id="line2d_85">
    <path d="M 28.482681 75.389661 
L 41.22532 75.389661 
" clip-path="url(#pcf593b5cd8)" style="fill: none; stroke: #bfbf00; stroke-width: 2; stroke-linecap: square"/>
   </g>
   <g id="line2d_86">
    <path d="M 107.915276 64.033035 
L 112.3752 58.178379 
L 107.915276 56.179606 
L 120.657915 56.179606 
L 116.197992 58.178379 
L 120.657915 64.033035 
L 107.915276 64.033035 
" clip-path="url(#pcf593b5cd8)" style="fill: none; stroke: #bfbf00; stroke-linecap: square"/>
   </g>
   <g id="line2d_87">
    <path d="M 107.915276 64.033035 
L 120.657915 64.033035 
L 120.657915 56.179606 
L 107.915276 56.179606 
L 107.915276 64.033035 
" clip-path="url(#pcf593b5cd8)" style="fill: none"/>
    <g clip-path="url(#pcf593b5cd8)">
     <use xlink:href="#meb2aad8342" x="107.915276" y="64.033035" style="fill: #bfbf00; stroke: #bfbf00; stroke-width: 2; stroke-linejoin: miter"/>
     <use xlink:href="#meb2aad8342" x="120.657915" y="64.033035" style="fill: #bfbf00; stroke: #bfbf00; stroke-width: 2; stroke-linejoin: miter"/>
     <use xlink:href="#meb2aad8342" x="120.657915" y="56.179606" style="fill: #bfbf00; stroke: #bfbf00; stroke-width: 2; stroke-linejoin: miter"/>
     <use xlink:href="#meb2aad8342" x="107.915276" y="56.179606" style="fill: #bfbf00; stroke: #bfbf00; stroke-width: 2; stroke-linejoin: miter"/>
     <use xlink:href="#meb2aad8342" x="107.915276" y="64.033035" style="fill: #bfbf00; stroke: #bfbf00; stroke-width: 2; stroke-linejoin: miter"/>
    </g>
   </g>
   <g id="line2d_88">
    <path d="M 107.915276 58.178379 
L 120.657915 58.178379 
" clip-path="url(#pcf593b5cd8)" style="fill: none; stroke: #bfbf00; stroke-width: 2; stroke-linecap: square"/>
   </g>
   <g id="line2d_89">
    <path d="M 34.854 78.288489 
L 114.286596 59.64933 
" clip-path="url(#pcf593b5cd8)" style="fill: none; stroke: #bfbf00; stroke-width: 4; stroke-linecap: square"/>
   </g>
   <g id="line2d_90">
    <path d="M 34.854 78.288489 
L 114.286596 59.64933 
" clip-path="url(#pcf593b5cd8)" style="fill: none"/>
    <defs>
     <path id="m4ace323de8" d="M 0 -10 
L -10 10 
L 10 10 
z
" style="stroke: #000000; stroke-width: 2; stroke-linejoin: miter"/>
    </defs>
    <g clip-path="url(#pcf593b5cd8)">
     <use xlink:href="#m4ace323de8" x="34.854" y="78.288489" style="fill: #bfbf00; stroke: #000000; stroke-width: 2; stroke-linejoin: miter"/>
     <use xlink:href="#m4ace323de8" x="114.286596" y="59.64933" style="fill: #bfbf00; stroke: #000000; stroke-width: 2; stroke-linejoin: miter"/>
    </g>
   </g>
   <g id="line2d_91">
    <path d="M 27.572492 61.790365 
L 32.669548 60.693968 
L 27.572492 58.443347 
L 42.135508 58.443347 
L 37.038453 60.693968 
L 42.135508 61.790365 
L 27.572492 61.790365 
" clip-path="url(#pcf593b5cd8)" style="fill: none; stroke: #bf00bf; stroke-linecap: square"/>
   </g>
   <g id="line2d_92">
    <path d="M 27.572492 61.790365 
L 42.135508 61.790365 
L 42.135508 58.443347 
L 27.572492 58.443347 
L 27.572492 61.790365 
" clip-path="url(#pcf593b5cd8)" style="fill: none"/>
    <defs>
     <path id="m5fb4c2ae2f" d="M 0 1.5 
C 0.397805 1.5 0.77937 1.341951 1.06066 1.06066 
C 1.341951 0.77937 1.5 0.397805 1.5 0 
C 1.5 -0.397805 1.341951 -0.77937 1.06066 -1.06066 
C 0.77937 -1.341951 0.397805 -1.5 0 -1.5 
C -0.397805 -1.5 -0.77937 -1.341951 -1.06066 -1.06066 
C -1.341951 -0.77937 -1.5 -0.397805 -1.5 0 
C -1.5 0.397805 -1.341951 0.77937 -1.06066 1.06066 
C -0.77937 1.341951 -0.397805 1.5 0 1.5 
z
" style="stroke: #bf00bf"/>
    </defs>
    <g clip-path="url(#pcf593b5cd8)">
     <use xlink:href="#m5fb4c2ae2f" x="27.572492" y="61.790365" style="fill: #bf00bf; stroke: #bf00bf"/>
     <use xlink:href="#m5fb4c2ae2f" x="42.135508" y="61.790365" style="fill: #bf00bf; stroke: #bf00bf"/>
     <use xlink:href="#m5fb4c2ae2f" x="42.135508" y="58.443347" style="fill: #bf00bf; stroke: #bf00bf"/>
     <use xlink:href="#m5fb4c2ae2f" x="27.572492" y="58.443347" style="fill: #bf00bf; stroke: #bf00bf"/>
     <use xlink:href="#m5fb4c2ae2f" x="27.572492" y="61.790365" style="fill: #bf00bf; stroke: #bf00bf"/>
    </g>
   </g>
   <g id="line2d_93">
    <path d="M 27.572492 60.693968 
L 42.135508 60.693968 
" clip-path="url(#pcf593b5cd8)" style="fill: none; stroke: #bf00bf; stroke-width: 2; stroke-linecap: square"/>
   </g>
   <g id="line2d_94">
    <path d="M 107.005088 51.763108 
L 112.102144 48.495763 
L 107.005088 44.44846 
L 121.568104 44.44846 
L 116.471048 48.495763 
L 121.568104 51.763108 
L 107.005088 51.763108 
" clip-path="url(#pcf593b5cd8)" style="fill: none; stroke: #bf00bf; stroke-linecap: square"/>
   </g>
   <g id="line2d_95">
    <path d="M 107.005088 51.763108 
L 121.568104 51.763108 
L 121.568104 44.44846 
L 107.005088 44.44846 
L 107.005088 51.763108 
" clip-path="url(#pcf593b5cd8)" style="fill: none"/>
    <g clip-path="url(#pcf593b5cd8)">
     <use xlink:href="#m5fb4c2ae2f" x="107.005088" y="51.763108" style="fill: #bf00bf; stroke: #bf00bf"/>
     <use xlink:href="#m5fb4c2ae2f" x="121.568104" y="51.763108" style="fill: #bf00bf; stroke: #bf00bf"/>
     <use xlink:href="#m5fb4c2ae2f" x="121.568104" y="44.44846" style="fill: #bf00bf; stroke: #bf00bf"/>
     <use xlink:href="#m5fb4c2ae2f" x="107.005088" y="44.44846" style="fill: #bf00bf; stroke: #bf00bf"/>
     <use xlink:href="#m5fb4c2ae2f" x="107.005088" y="51.763108" style="fill: #bf00bf; stroke: #bf00bf"/>
    </g>
   </g>
   <g id="line2d_96">
    <path d="M 107.005088 48.495763 
L 121.568104 48.495763 
" clip-path="url(#pcf593b5cd8)" style="fill: none; stroke: #bf00bf; stroke-width: 2; stroke-linecap: square"/>
   </g>
   <g id="line2d_97">
    <path d="M 34.854 60.703661 
L 114.286596 48.144577 
" clip-path="url(#pcf593b5cd8)" style="fill: none; stroke: #bf00bf; stroke-width: 4; stroke-linecap: square"/>
   </g>
   <g id="line2d_98">
    <path d="M 34.854 60.703661 
L 114.286596 48.144577 
" clip-path="url(#pcf593b5cd8)" style="fill: none"/>
    <defs>
     <path id="m66369d74b4" d="M 0 5 
C 1.326016 5 2.597899 4.473168 3.535534 3.535534 
C 4.473168 2.597899 5 1.326016 5 0 
C 5 -1.326016 4.473168 -2.597899 3.535534 -3.535534 
C 2.597899 -4.473168 1.326016 -5 0 -5 
C -1.326016 -5 -2.597899 -4.473168 -3.535534 -3.535534 
C -4.473168 -2.597899 -5 -1.326016 -5 0 
C -5 1.326016 -4.473168 2.597899 -3.535534 3.535534 
C -2.597899 4.473168 -1.326016 5 0 5 
z
" style="stroke: #bf00bf"/>
    </defs>
    <g clip-path="url(#pcf593b5cd8)">
     <use xlink:href="#m66369d74b4" x="34.854" y="60.703661" style="fill: #bf00bf; stroke: #bf00bf"/>
     <use xlink:href="#m66369d74b4" x="114.286596" y="48.144577" style="fill: #bf00bf; stroke: #bf00bf"/>
    </g>
   </g>
   <g id="line2d_99">
    <path d="M 26.662304 51.557656 
L 32.396491 48.151605 
L 26.662304 46.912895 
L 43.045697 46.912895 
L 37.311509 48.151605 
L 43.045697 51.557656 
L 26.662304 51.557656 
" clip-path="url(#pcf593b5cd8)" style="fill: none; stroke: #ff0000; stroke-linecap: square"/>
   </g>
   <g id="line2d_100">
    <path d="M 26.662304 51.557656 
L 43.045697 51.557656 
L 43.045697 46.912895 
L 26.662304 46.912895 
L 26.662304 51.557656 
" clip-path="url(#pcf593b5cd8)" style="fill: none"/>
    <defs>
     <path id="mae321256c1" d="M 0 3 
C 0.795609 3 1.55874 2.683901 2.12132 2.12132 
C 2.683901 1.55874 3 0.795609 3 0 
C 3 -0.795609 2.683901 -1.55874 2.12132 -2.12132 
C 1.55874 -2.683901 0.795609 -3 0 -3 
C -0.795609 -3 -1.55874 -2.683901 -2.12132 -2.12132 
C -2.683901 -1.55874 -3 -0.795609 -3 0 
C -3 0.795609 -2.683901 1.55874 -2.12132 2.12132 
C -1.55874 2.683901 -0.795609 3 0 3 
z
" style="stroke: #ff0000; stroke-width: 2"/>
    </defs>
    <g clip-path="url(#pcf593b5cd8)">
     <use xlink:href="#mae321256c1" x="26.662304" y="51.557656" style="fill: #ff0000; stroke: #ff0000; stroke-width: 2"/>
     <use xlink:href="#mae321256c1" x="43.045697" y="51.557656" style="fill: #ff0000; stroke: #ff0000; stroke-width: 2"/>
     <use xlink:href="#mae321256c1" x="43.045697" y="46.912895" style="fill: #ff0000; stroke: #ff0000; stroke-width: 2"/>
     <use xlink:href="#mae321256c1" x="26.662304" y="46.912895" style="fill: #ff0000; stroke: #ff0000; stroke-width: 2"/>
     <use xlink:href="#mae321256c1" x="26.662304" y="51.557656" style="fill: #ff0000; stroke: #ff0000; stroke-width: 2"/>
    </g>
   </g>
   <g id="line2d_101">
    <path d="M 26.662304 48.151605 
L 43.045697 48.151605 
" clip-path="url(#pcf593b5cd8)" style="fill: none; stroke: #ff0000; stroke-width: 2; stroke-linecap: square"/>
   </g>
   <g id="line2d_102">
    <path d="M 106.0949 36.531203 
L 111.829087 35.336141 
L 106.0949 33.778948 
L 122.478292 33.778948 
L 116.744105 35.336141 
L 122.478292 36.531203 
L 106.0949 36.531203 
" clip-path="url(#pcf593b5cd8)" style="fill: none; stroke: #ff0000; stroke-linecap: square"/>
   </g>
   <g id="line2d_103">
    <path d="M 106.0949 36.531203 
L 122.478292 36.531203 
L 122.478292 33.778948 
L 106.0949 33.778948 
L 106.0949 36.531203 
" clip-path="url(#pcf593b5cd8)" style="fill: none"/>
    <g clip-path="url(#pcf593b5cd8)">
     <use xlink:href="#mae321256c1" x="106.0949" y="36.531203" style="fill: #ff0000; stroke: #ff0000; stroke-width: 2"/>
     <use xlink:href="#mae321256c1" x="122.478292" y="36.531203" style="fill: #ff0000; stroke: #ff0000; stroke-width: 2"/>
     <use xlink:href="#mae321256c1" x="122.478292" y="33.778948" style="fill: #ff0000; stroke: #ff0000; stroke-width: 2"/>
     <use xlink:href="#mae321256c1" x="106.0949" y="33.778948" style="fill: #ff0000; stroke: #ff0000; stroke-width: 2"/>
     <use xlink:href="#mae321256c1" x="106.0949" y="36.531203" style="fill: #ff0000; stroke: #ff0000; stroke-width: 2"/>
    </g>
   </g>
   <g id="line2d_104">
    <path d="M 106.0949 35.336141 
L 122.478292 35.336141 
" clip-path="url(#pcf593b5cd8)" style="fill: none; stroke: #ff0000; stroke-width: 2; stroke-linecap: square"/>
   </g>
   <g id="line2d_105">
    <path d="M 34.854 48.648515 
L 114.286596 36.090368 
" clip-path="url(#pcf593b5cd8)" style="fill: none; stroke: #ff0000; stroke-width: 4; stroke-linecap: square"/>
   </g>
   <g id="line2d_106">
    <path d="M 34.854 48.648515 
L 114.286596 36.090368 
" clip-path="url(#pcf593b5cd8)" style="fill: none"/>
    <defs>
     <path id="m5fa341f993" d="M 0 10 
C 2.652031 10 5.195799 8.946337 7.071068 7.071068 
C 8.946337 5.195799 10 2.652031 10 0 
C 10 -2.652031 8.946337 -5.195799 7.071068 -7.071068 
C 5.195799 -8.946337 2.652031 -10 0 -10 
C -2.652031 -10 -5.195799 -8.946337 -7.071068 -7.071068 
C -8.946337 -5.195799 -10 -2.652031 -10 0 
C -10 2.652031 -8.946337 5.195799 -7.071068 7.071068 
C -5.195799 8.946337 -2.652031 10 0 10 
z
" style="stroke: #000000; stroke-width: 2"/>
    </defs>
    <g clip-path="url(#pcf593b5cd8)">
     <use xlink:href="#m5fa341f993" x="34.854" y="48.648515" style="fill: #ff0000; stroke: #000000; stroke-width: 2"/>
     <use xlink:href="#m5fa341f993" x="114.286596" y="36.090368" style="fill: #ff0000; stroke: #000000; stroke-width: 2"/>
    </g>
   </g>
   <g id="line2d_107"/>
   <g id="line2d_108"/>
   <g id="line2d_109"/>
   <g id="line2d_110"/>
   <g id="line2d_111"/>
   <g id="line2d_112"/>
   <g id="line2d_113"/>
   <g id="line2d_114">
    <defs>
     <path id="m3a296b89da" d="M -10 10 
L 10 -10 
M -10 -10 
L 10 10 
" style="stroke: #ff0000"/>
    </defs>
    <g clip-path="url(#pcf593b5cd8)">
     <use xlink:href="#m3a296b89da" x="34.854" y="39.646965" style="fill: #ff0000; stroke: #ff0000"/>
     <use xlink:href="#m3a296b89da" x="114.286596" y="32.530232" style="fill: #ff0000; stroke: #ff0000"/>
    </g>
   </g>
   <g id="line2d_115">
    <path d="M 49.498959 346.6 
L 461.8 206.109983 
" clip-path="url(#pcf593b5cd8)" style="fill: none; stroke-dasharray: 0.5,0.825; stroke-dashoffset: 0; stroke: #000000; stroke-width: 0.5"/>
   </g>
   <g id="line2d_116">
    <path d="M -1 273.894841 
L 461.8 116.197495 
" clip-path="url(#pcf593b5cd8)" style="fill: none; stroke-dasharray: 0.5,0.825; stroke-dashoffset: 0; stroke: #000000; stroke-width: 0.5"/>
   </g>
   <g id="line2d_117">
    <path d="M -1 183.982353 
L 461.8 26.285008 
" clip-path="url(#pcf593b5cd8)" style="fill: none; stroke-dasharray: 0.5,0.825; stroke-dashoffset: 0; stroke: #000000; stroke-width: 0.5"/>
   </g>
   <g id="line2d_118">
    <path d="M -1 94.069865 
L 278.00491 -1 
" clip-path="url(#pcf593b5cd8)" style="fill: none; stroke-dasharray: 0.5,0.825; stroke-dashoffset: 0; stroke: #000000; stroke-width: 0.5"/>
   </g>
   <g id="line2d_119">
    <path d="M -1 4.157378 
L 14.135539 -1 
" clip-path="url(#pcf593b5cd8)" style="fill: none; stroke-dasharray: 0.5,0.825; stroke-dashoffset: 0; stroke: #000000; stroke-width: 0.5"/>
   </g>
   <g id="line2d_120">
    <path clip-path="url(#pcf593b5cd8)" style="fill: none; stroke-dasharray: 0.5,0.825; stroke-dashoffset: 0; stroke: #000000; stroke-width: 0.5"/>
   </g>
   <g id="line2d_121">
    <path clip-path="url(#pcf593b5cd8)" style="fill: none; stroke-dasharray: 0.5,0.825; stroke-dashoffset: 0; stroke: #000000; stroke-width: 0.5"/>
   </g>
   <g id="line2d_122">
    <path clip-path="url(#pcf593b5cd8)" style="fill: none; stroke-dasharray: 0.5,0.825; stroke-dashoffset: 0; stroke: #000000; stroke-width: 0.5"/>
   </g>
   <g id="line2d_123">
    <path clip-path="url(#pcf593b5cd8)" style="fill: none; stroke-dasharray: 0.5,0.825; stroke-dashoffset: 0; stroke: #000000; stroke-width: 0.5"/>
   </g>
   <g id="patch_3">
    <path d="M 22.78 315.44 
L 22.78 27.72 
" style="fill: none; stroke: #000000; stroke-width: 0.8; stroke-linejoin: miter; stroke-linecap: square"/>
   </g>
   <g id="patch_4">
    <path d="M 445.514562 315.44 
L 445.514562 27.72 
" style="fill: none; stroke: #000000; stroke-width: 0.8; stroke-linejoin: miter; stroke-linecap: square"/>
   </g>
   <g id="patch_5">
    <path d="M 22.78 315.44 
L 445.514562 315.44 
" style="fill: none; stroke: #000000; stroke-width: 0.8; stroke-linejoin: miter; stroke-linecap: square"/>
   </g>
   <g id="patch_6">
    <path d="M 22.78 27.72 
L 445.514562 27.72 
" style="fill: none; stroke: #000000; stroke-width: 0.8; stroke-linejoin: miter; stroke-linecap: square"/>
   </g>
   <g id="text_11">
    <!-- 15 instances -->
    <g transform="translate(22.78 296.8515) scale(0.14 -0.14)">
     <defs>
      <path id="DejaVuSans-20" transform="scale(0.015625)"/>
      <path id="DejaVuSans-69" d="M 603 3500 
L 1178 3500 
L 1178 0 
L 603 0 
L 603 3500 
z
M 603 4863 
L 1178 4863 
L 1178 4134 
L 603 4134 
L 603 4863 
z
" transform="scale(0.015625)"/>
      <path id="DejaVuSans-6e" d="M 3513 2113 
L 3513 0 
L 2938 0 
L 2938 2094 
Q 2938 2591 2744 2837 
Q 2550 3084 2163 3084 
Q 1697 3084 1428 2787 
Q 1159 2491 1159 1978 
L 1159 0 
L 581 0 
L 581 3500 
L 1159 3500 
L 1159 2956 
Q 1366 3272 1645 3428 
Q 1925 3584 2291 3584 
Q 2894 3584 3203 3211 
Q 3513 2838 3513 2113 
z
" transform="scale(0.015625)"/>
      <path id="DejaVuSans-73" d="M 2834 3397 
L 2834 2853 
Q 2591 2978 2328 3040 
Q 2066 3103 1784 3103 
Q 1356 3103 1142 2972 
Q 928 2841 928 2578 
Q 928 2378 1081 2264 
Q 1234 2150 1697 2047 
L 1894 2003 
Q 2506 1872 2764 1633 
Q 3022 1394 3022 966 
Q 3022 478 2636 193 
Q 2250 -91 1575 -91 
Q 1294 -91 989 -36 
Q 684 19 347 128 
L 347 722 
Q 666 556 975 473 
Q 1284 391 1588 391 
Q 1994 391 2212 530 
Q 2431 669 2431 922 
Q 2431 1156 2273 1281 
Q 2116 1406 1581 1522 
L 1381 1569 
Q 847 1681 609 1914 
Q 372 2147 372 2553 
Q 372 3047 722 3315 
Q 1072 3584 1716 3584 
Q 2034 3584 2315 3537 
Q 2597 3491 2834 3397 
z
" transform="scale(0.015625)"/>
      <path id="DejaVuSans-74" d="M 1172 4494 
L 1172 3500 
L 2356 3500 
L 2356 3053 
L 1172 3053 
L 1172 1153 
Q 1172 725 1289 603 
Q 1406 481 1766 481 
L 2356 481 
L 2356 0 
L 1766 0 
Q 1100 0 847 248 
Q 594 497 594 1153 
L 594 3053 
L 172 3053 
L 172 3500 
L 594 3500 
L 594 4494 
L 1172 4494 
z
" transform="scale(0.015625)"/>
      <path id="DejaVuSans-61" d="M 2194 1759 
Q 1497 1759 1228 1600 
Q 959 1441 959 1056 
Q 959 750 1161 570 
Q 1363 391 1709 391 
Q 2188 391 2477 730 
Q 2766 1069 2766 1631 
L 2766 1759 
L 2194 1759 
z
M 3341 1997 
L 3341 0 
L 2766 0 
L 2766 531 
Q 2569 213 2275 61 
Q 1981 -91 1556 -91 
Q 1019 -91 701 211 
Q 384 513 384 1019 
Q 384 1609 779 1909 
Q 1175 2209 1959 2209 
L 2766 2209 
L 2766 2266 
Q 2766 2663 2505 2880 
Q 2244 3097 1772 3097 
Q 1472 3097 1187 3025 
Q 903 2953 641 2809 
L 641 3341 
Q 956 3463 1253 3523 
Q 1550 3584 1831 3584 
Q 2591 3584 2966 3190 
Q 3341 2797 3341 1997 
z
" transform="scale(0.015625)"/>
      <path id="DejaVuSans-63" d="M 3122 3366 
L 3122 2828 
Q 2878 2963 2633 3030 
Q 2388 3097 2138 3097 
Q 1578 3097 1268 2742 
Q 959 2388 959 1747 
Q 959 1106 1268 751 
Q 1578 397 2138 397 
Q 2388 397 2633 464 
Q 2878 531 3122 666 
L 3122 134 
Q 2881 22 2623 -34 
Q 2366 -91 2075 -91 
Q 1284 -91 818 406 
Q 353 903 353 1747 
Q 353 2603 823 3093 
Q 1294 3584 2113 3584 
Q 2378 3584 2631 3529 
Q 2884 3475 3122 3366 
z
" transform="scale(0.015625)"/>
      <path id="DejaVuSans-65" d="M 3597 1894 
L 3597 1613 
L 953 1613 
Q 991 1019 1311 708 
Q 1631 397 2203 397 
Q 2534 397 2845 478 
Q 3156 559 3463 722 
L 3463 178 
Q 3153 47 2828 -22 
Q 2503 -91 2169 -91 
Q 1331 -91 842 396 
Q 353 884 353 1716 
Q 353 2575 817 3079 
Q 1281 3584 2069 3584 
Q 2775 3584 3186 3129 
Q 3597 2675 3597 1894 
z
M 3022 2063 
Q 3016 2534 2758 2815 
Q 2500 3097 2075 3097 
Q 1594 3097 1305 2825 
Q 1016 2553 972 2059 
L 3022 2063 
z
" transform="scale(0.015625)"/>
     </defs>
     <use xlink:href="#DejaVuSans-31"/>
     <use xlink:href="#DejaVuSans-35" x="63.623047"/>
     <use xlink:href="#DejaVuSans-20" x="127.246094"/>
     <use xlink:href="#DejaVuSans-69" x="159.033203"/>
     <use xlink:href="#DejaVuSans-6e" x="186.816406"/>
     <use xlink:href="#DejaVuSans-73" x="250.195312"/>
     <use xlink:href="#DejaVuSans-74" x="302.294922"/>
     <use xlink:href="#DejaVuSans-61" x="341.503906"/>
     <use xlink:href="#DejaVuSans-6e" x="402.783203"/>
     <use xlink:href="#DejaVuSans-63" x="466.162109"/>
     <use xlink:href="#DejaVuSans-65" x="521.142578"/>
     <use xlink:href="#DejaVuSans-73" x="582.666016"/>
    </g>
    <!-- absolute targets -->
    <g transform="translate(22.78 312.528437) scale(0.14 -0.14)">
     <defs>
      <path id="DejaVuSans-62" d="M 3116 1747 
Q 3116 2381 2855 2742 
Q 2594 3103 2138 3103 
Q 1681 3103 1420 2742 
Q 1159 2381 1159 1747 
Q 1159 1113 1420 752 
Q 1681 391 2138 391 
Q 2594 391 2855 752 
Q 3116 1113 3116 1747 
z
M 1159 2969 
Q 1341 3281 1617 3432 
Q 1894 3584 2278 3584 
Q 2916 3584 3314 3078 
Q 3713 2572 3713 1747 
Q 3713 922 3314 415 
Q 2916 -91 2278 -91 
Q 1894 -91 1617 61 
Q 1341 213 1159 525 
L 1159 0 
L 581 0 
L 581 4863 
L 1159 4863 
L 1159 2969 
z
" transform="scale(0.015625)"/>
      <path id="DejaVuSans-6f" d="M 1959 3097 
Q 1497 3097 1228 2736 
Q 959 2375 959 1747 
Q 959 1119 1226 758 
Q 1494 397 1959 397 
Q 2419 397 2687 759 
Q 2956 1122 2956 1747 
Q 2956 2369 2687 2733 
Q 2419 3097 1959 3097 
z
M 1959 3584 
Q 2709 3584 3137 3096 
Q 3566 2609 3566 1747 
Q 3566 888 3137 398 
Q 2709 -91 1959 -91 
Q 1206 -91 779 398 
Q 353 888 353 1747 
Q 353 2609 779 3096 
Q 1206 3584 1959 3584 
z
" transform="scale(0.015625)"/>
      <path id="DejaVuSans-6c" d="M 603 4863 
L 1178 4863 
L 1178 0 
L 603 0 
L 603 4863 
z
" transform="scale(0.015625)"/>
      <path id="DejaVuSans-75" d="M 544 1381 
L 544 3500 
L 1119 3500 
L 1119 1403 
Q 1119 906 1312 657 
Q 1506 409 1894 409 
Q 2359 409 2629 706 
Q 2900 1003 2900 1516 
L 2900 3500 
L 3475 3500 
L 3475 0 
L 2900 0 
L 2900 538 
Q 2691 219 2414 64 
Q 2138 -91 1772 -91 
Q 1169 -91 856 284 
Q 544 659 544 1381 
z
M 1991 3584 
L 1991 3584 
z
" transform="scale(0.015625)"/>
      <path id="DejaVuSans-72" d="M 2631 2963 
Q 2534 3019 2420 3045 
Q 2306 3072 2169 3072 
Q 1681 3072 1420 2755 
Q 1159 2438 1159 1844 
L 1159 0 
L 581 0 
L 581 3500 
L 1159 3500 
L 1159 2956 
Q 1341 3275 1631 3429 
Q 1922 3584 2338 3584 
Q 2397 3584 2469 3576 
Q 2541 3569 2628 3553 
L 2631 2963 
z
" transform="scale(0.015625)"/>
      <path id="DejaVuSans-67" d="M 2906 1791 
Q 2906 2416 2648 2759 
Q 2391 3103 1925 3103 
Q 1463 3103 1205 2759 
Q 947 2416 947 1791 
Q 947 1169 1205 825 
Q 1463 481 1925 481 
Q 2391 481 2648 825 
Q 2906 1169 2906 1791 
z
M 3481 434 
Q 3481 -459 3084 -895 
Q 2688 -1331 1869 -1331 
Q 1566 -1331 1297 -1286 
Q 1028 -1241 775 -1147 
L 775 -588 
Q 1028 -725 1275 -790 
Q 1522 -856 1778 -856 
Q 2344 -856 2625 -561 
Q 2906 -266 2906 331 
L 2906 616 
Q 2728 306 2450 153 
Q 2172 0 1784 0 
Q 1141 0 747 490 
Q 353 981 353 1791 
Q 353 2603 747 3093 
Q 1141 3584 1784 3584 
Q 2172 3584 2450 3431 
Q 2728 3278 2906 2969 
L 2906 3500 
L 3481 3500 
L 3481 434 
z
" transform="scale(0.015625)"/>
     </defs>
     <use xlink:href="#DejaVuSans-61"/>
     <use xlink:href="#DejaVuSans-62" x="61.279297"/>
     <use xlink:href="#DejaVuSans-73" x="124.755859"/>
     <use xlink:href="#DejaVuSans-6f" x="176.855469"/>
     <use xlink:href="#DejaVuSans-6c" x="238.037109"/>
     <use xlink:href="#DejaVuSans-75" x="265.820312"/>
     <use xlink:href="#DejaVuSans-74" x="329.199219"/>
     <use xlink:href="#DejaVuSans-65" x="368.408203"/>
     <use xlink:href="#DejaVuSans-20" x="429.931641"/>
     <use xlink:href="#DejaVuSans-74" x="461.71875"/>
     <use xlink:href="#DejaVuSans-61" x="500.927734"/>
     <use xlink:href="#DejaVuSans-72" x="562.207031"/>
     <use xlink:href="#DejaVuSans-67" x="601.570312"/>
     <use xlink:href="#DejaVuSans-65" x="665.046875"/>
     <use xlink:href="#DejaVuSans-74" x="726.570312"/>
     <use xlink:href="#DejaVuSans-73" x="765.779297"/>
    </g>
   </g>
   <g id="text_12">
    <!-- v2.6.4 -->
    <g style="fill: #808080" transform="translate(218.466031 310.483113) scale(0.1 -0.1)">
     <defs>
      <path id="DejaVuSans-76" d="M 191 3500 
L 800 3500 
L 1894 563 
L 2988 3500 
L 3597 3500 
L 2284 0 
L 1503 0 
L 191 3500 
z
" transform="scale(0.015625)"/>
      <path id="DejaVuSans-2e" d="M 684 794 
L 1344 794 
L 1344 0 
L 684 0 
L 684 794 
z
" transform="scale(0.015625)"/>
     </defs>
     <use xlink:href="#DejaVuSans-76"/>
     <use xlink:href="#DejaVuSans-32" x="59.179688"/>
     <use xlink:href="#DejaVuSans-2e" x="122.802734"/>
     <use xlink:href="#DejaVuSans-36" x="154.589844"/>
     <use xlink:href="#DejaVuSans-2e" x="218.212891"/>
     <use xlink:href="#DejaVuSans-34" x="250"/>
    </g>
   </g>
   <g id="text_13">
    <!-- 1 Sphere -->
    <g transform="translate(180.426656 21.72) scale(0.24 -0.24)">
     <defs>
      <path id="DejaVuSans-53" d="M 3425 4513 
L 3425 3897 
Q 3066 4069 2747 4153 
Q 2428 4238 2131 4238 
Q 1616 4238 1336 4038 
Q 1056 3838 1056 3469 
Q 1056 3159 1242 3001 
Q 1428 2844 1947 2747 
L 2328 2669 
Q 3034 2534 3370 2195 
Q 3706 1856 3706 1288 
Q 3706 609 3251 259 
Q 2797 -91 1919 -91 
Q 1588 -91 1214 -16 
Q 841 59 441 206 
L 441 856 
Q 825 641 1194 531 
Q 1563 422 1919 422 
Q 2459 422 2753 634 
Q 3047 847 3047 1241 
Q 3047 1584 2836 1778 
Q 2625 1972 2144 2069 
L 1759 2144 
Q 1053 2284 737 2584 
Q 422 2884 422 3419 
Q 422 4038 858 4394 
Q 1294 4750 2059 4750 
Q 2388 4750 2728 4690 
Q 3069 4631 3425 4513 
z
" transform="scale(0.015625)"/>
      <path id="DejaVuSans-70" d="M 1159 525 
L 1159 -1331 
L 581 -1331 
L 581 3500 
L 1159 3500 
L 1159 2969 
Q 1341 3281 1617 3432 
Q 1894 3584 2278 3584 
Q 2916 3584 3314 3078 
Q 3713 2572 3713 1747 
Q 3713 922 3314 415 
Q 2916 -91 2278 -91 
Q 1894 -91 1617 61 
Q 1341 213 1159 525 
z
M 3116 1747 
Q 3116 2381 2855 2742 
Q 2594 3103 2138 3103 
Q 1681 3103 1420 2742 
Q 1159 2381 1159 1747 
Q 1159 1113 1420 752 
Q 1681 391 2138 391 
Q 2594 391 2855 752 
Q 3116 1113 3116 1747 
z
" transform="scale(0.015625)"/>
      <path id="DejaVuSans-68" d="M 3513 2113 
L 3513 0 
L 2938 0 
L 2938 2094 
Q 2938 2591 2744 2837 
Q 2550 3084 2163 3084 
Q 1697 3084 1428 2787 
Q 1159 2491 1159 1978 
L 1159 0 
L 581 0 
L 581 4863 
L 1159 4863 
L 1159 2956 
Q 1366 3272 1645 3428 
Q 1925 3584 2291 3584 
Q 2894 3584 3203 3211 
Q 3513 2838 3513 2113 
z
" transform="scale(0.015625)"/>
     </defs>
     <use xlink:href="#DejaVuSans-31"/>
     <use xlink:href="#DejaVuSans-20" x="63.623047"/>
     <use xlink:href="#DejaVuSans-53" x="95.410156"/>
     <use xlink:href="#DejaVuSans-70" x="158.886719"/>
     <use xlink:href="#DejaVuSans-68" x="222.363281"/>
     <use xlink:href="#DejaVuSans-65" x="285.742188"/>
     <use xlink:href="#DejaVuSans-72" x="347.265625"/>
     <use xlink:href="#DejaVuSans-65" x="386.128906"/>
    </g>
   </g>
   <g id="legend_1">
    <g id="patch_7">
     <path d="M 367.162062 204.915 
L 434.314562 204.915 
Q 437.514562 204.915 437.514562 201.715 
L 437.514562 38.92 
Q 437.514562 35.72 434.314562 35.72 
L 367.162062 35.72 
Q 363.962062 35.72 363.962062 38.92 
L 363.962062 201.715 
Q 363.962062 204.915 367.162062 204.915 
z
" style="fill: #ffffff; opacity: 0.2; stroke: #cccccc; stroke-linejoin: miter"/>
    </g>
    <g id="line2d_124">
     <path d="M 370.362062 48.6775 
L 386.362062 48.6775 
L 402.362062 48.6775 
" style="fill: none; stroke: #ff0000; stroke-width: 4; stroke-linecap: square"/>
     <defs>
      <path id="m4b3db37b64" d="M 0 5 
C 1.326016 5 2.597899 4.473168 3.535534 3.535534 
C 4.473168 2.597899 5 1.326016 5 0 
C 5 -1.326016 4.473168 -2.597899 3.535534 -3.535534 
C 2.597899 -4.473168 1.326016 -5 0 -5 
C -1.326016 -5 -2.597899 -4.473168 -3.535534 -3.535534 
C -4.473168 -2.597899 -5 -1.326016 -5 0 
C -5 1.326016 -4.473168 2.597899 -3.535534 3.535534 
C -2.597899 4.473168 -1.326016 5 0 5 
z
" style="stroke: #000000; stroke-width: 2"/>
     </defs>
     <g>
      <use xlink:href="#m4b3db37b64" x="386.362062" y="48.6775" style="fill: #ff0000; stroke: #000000; stroke-width: 2"/>
     </g>
    </g>
    <g id="text_14">
     <!-- -8 -->
     <g transform="translate(415.162062 54.2775) scale(0.16 -0.16)">
      <defs>
       <path id="DejaVuSans-2d" d="M 313 2009 
L 1997 2009 
L 1997 1497 
L 313 1497 
L 313 2009 
z
" transform="scale(0.015625)"/>
      </defs>
      <use xlink:href="#DejaVuSans-2d"/>
      <use xlink:href="#DejaVuSans-38" x="36.083984"/>
     </g>
    </g>
    <g id="line2d_125">
     <path d="M 370.362062 72.1625 
L 386.362062 72.1625 
L 402.362062 72.1625 
" style="fill: none; stroke: #bf00bf; stroke-width: 4; stroke-linecap: square"/>
     <defs>
      <path id="mabe86b3ad9" d="M 0 2.5 
C 0.663008 2.5 1.29895 2.236584 1.767767 1.767767 
C 2.236584 1.29895 2.5 0.663008 2.5 0 
C 2.5 -0.663008 2.236584 -1.29895 1.767767 -1.767767 
C 1.29895 -2.236584 0.663008 -2.5 0 -2.5 
C -0.663008 -2.5 -1.29895 -2.236584 -1.767767 -1.767767 
C -2.236584 -1.29895 -2.5 -0.663008 -2.5 0 
C -2.5 0.663008 -2.236584 1.29895 -1.767767 1.767767 
C -1.29895 2.236584 -0.663008 2.5 0 2.5 
z
" style="stroke: #bf00bf"/>
     </defs>
     <g>
      <use xlink:href="#mabe86b3ad9" x="386.362062" y="72.1625" style="fill: #bf00bf; stroke: #bf00bf"/>
     </g>
    </g>
    <g id="text_15">
     <!-- -5 -->
     <g transform="translate(415.162062 77.7625) scale(0.16 -0.16)">
      <use xlink:href="#DejaVuSans-2d"/>
      <use xlink:href="#DejaVuSans-35" x="36.083984"/>
     </g>
    </g>
    <g id="line2d_126">
     <path d="M 370.362062 95.6475 
L 386.362062 95.6475 
L 402.362062 95.6475 
" style="fill: none; stroke: #bfbf00; stroke-width: 4; stroke-linecap: square"/>
     <defs>
      <path id="mee2aa0d9b9" d="M 0 -5 
L -5 5 
L 5 5 
z
" style="stroke: #000000; stroke-width: 2; stroke-linejoin: miter"/>
     </defs>
     <g>
      <use xlink:href="#mee2aa0d9b9" x="386.362062" y="95.6475" style="fill: #bfbf00; stroke: #000000; stroke-width: 2; stroke-linejoin: miter"/>
     </g>
    </g>
    <g id="text_16">
     <!-- -3 -->
     <g transform="translate(415.162062 101.2475) scale(0.16 -0.16)">
      <use xlink:href="#DejaVuSans-2d"/>
      <use xlink:href="#DejaVuSans-33" x="36.083984"/>
     </g>
    </g>
    <g id="line2d_127">
     <path d="M 370.362062 119.1325 
L 386.362062 119.1325 
L 402.362062 119.1325 
" style="fill: none; stroke: #008000; stroke-width: 4; stroke-linecap: square"/>
     <defs>
      <path id="m5e29ebb8bc" d="M 0 2.5 
C 0.663008 2.5 1.29895 2.236584 1.767767 1.767767 
C 2.236584 1.29895 2.5 0.663008 2.5 0 
C 2.5 -0.663008 2.236584 -1.29895 1.767767 -1.767767 
C 1.29895 -2.236584 0.663008 -2.5 0 -2.5 
C -0.663008 -2.5 -1.29895 -2.236584 -1.767767 -1.767767 
C -2.236584 -1.29895 -2.5 -0.663008 -2.5 0 
C -2.5 0.663008 -2.236584 1.29895 -1.767767 1.767767 
C -1.29895 2.236584 -0.663008 2.5 0 2.5 
z
" style="stroke: #008000"/>
     </defs>
     <g>
      <use xlink:href="#m5e29ebb8bc" x="386.362062" y="119.1325" style="fill: #008000; stroke: #008000"/>
     </g>
    </g>
    <g id="text_17">
     <!-- -2 -->
     <g transform="translate(415.162062 124.7325) scale(0.16 -0.16)">
      <use xlink:href="#DejaVuSans-2d"/>
      <use xlink:href="#DejaVuSans-32" x="36.083984"/>
     </g>
    </g>
    <g id="line2d_128">
     <path d="M 370.362062 142.6175 
L 386.362062 142.6175 
L 402.362062 142.6175 
" style="fill: none; stroke: #00bfbf; stroke-width: 4; stroke-linecap: square"/>
     <defs>
      <path id="m9f79b96d06" d="M -0 5 
L 5 -5 
L -5 -5 
z
" style="stroke: #000000; stroke-width: 2; stroke-linejoin: miter"/>
     </defs>
     <g>
      <use xlink:href="#m9f79b96d06" x="386.362062" y="142.6175" style="fill: #00bfbf; stroke: #000000; stroke-width: 2; stroke-linejoin: miter"/>
     </g>
    </g>
    <g id="text_18">
     <!-- -1 -->
     <g transform="translate(415.162062 148.2175) scale(0.16 -0.16)">
      <use xlink:href="#DejaVuSans-2d"/>
      <use xlink:href="#DejaVuSans-31" x="36.083984"/>
     </g>
    </g>
    <g id="line2d_129">
     <path d="M 370.362062 166.1025 
L 386.362062 166.1025 
L 402.362062 166.1025 
" style="fill: none; stroke: #0000ff; stroke-width: 4; stroke-linecap: square"/>
     <defs>
      <path id="mbcd4919f98" d="M 0 2.5 
C 0.663008 2.5 1.29895 2.236584 1.767767 1.767767 
C 2.236584 1.29895 2.5 0.663008 2.5 0 
C 2.5 -0.663008 2.236584 -1.29895 1.767767 -1.767767 
C 1.29895 -2.236584 0.663008 -2.5 0 -2.5 
C -0.663008 -2.5 -1.29895 -2.236584 -1.767767 -1.767767 
C -2.236584 -1.29895 -2.5 -0.663008 -2.5 0 
C -2.5 0.663008 -2.236584 1.29895 -1.767767 1.767767 
C -1.29895 2.236584 -0.663008 2.5 0 2.5 
z
" style="stroke: #0000ff"/>
     </defs>
     <g>
      <use xlink:href="#mbcd4919f98" x="386.362062" y="166.1025" style="fill: #0000ff; stroke: #0000ff"/>
     </g>
    </g>
    <g id="text_19">
     <!-- 0 -->
     <g transform="translate(415.162062 171.7025) scale(0.16 -0.16)">
      <use xlink:href="#DejaVuSans-30"/>
     </g>
    </g>
    <g id="line2d_130">
     <path d="M 370.362062 189.5875 
L 386.362062 189.5875 
L 402.362062 189.5875 
" style="fill: none; stroke: #000000; stroke-width: 4; stroke-linecap: square"/>
     <defs>
      <path id="m4ec8240158" d="M 0 5 
C 1.326016 5 2.597899 4.473168 3.535534 3.535534 
C 4.473168 2.597899 5 1.326016 5 0 
C 5 -1.326016 4.473168 -2.597899 3.535534 -3.535534 
C 2.597899 -4.473168 1.326016 -5 0 -5 
C -1.326016 -5 -2.597899 -4.473168 -3.535534 -3.535534 
C -4.473168 -2.597899 -5 -1.326016 -5 0 
C -5 1.326016 -4.473168 2.597899 -3.535534 3.535534 
C -2.597899 4.473168 -1.326016 5 0 5 
z
" style="stroke: #000000; stroke-width: 2"/>
     </defs>
     <g>
      <use xlink:href="#m4ec8240158" x="386.362062" y="189.5875" style="stroke: #000000; stroke-width: 2"/>
     </g>
    </g>
    <g id="text_20">
     <!-- 1 -->
     <g transform="translate(415.162062 195.1875) scale(0.16 -0.16)">
      <use xlink:href="#DejaVuSans-31"/>
     </g>
    </g>
   </g>
  </g>
 </g>
 <defs>
  <clipPath id="pcf593b5cd8">
   <rect x="22.78" y="27.72" width="422.734562" height="287.72"/>
  </clipPath>
 </defs>
</svg>
