<?xml version="1.0" encoding="utf-8" standalone="no"?>
<!DOCTYPE svg PUBLIC "-//W3C//DTD SVG 1.1//EN"
  "http://www.w3.org/Graphics/SVG/1.1/DTD/svg11.dtd">
<svg xmlns:xlink="http://www.w3.org/1999/xlink" width="460.8pt" height="345.6pt" viewBox="0 0 460.8 345.6" xmlns="http://www.w3.org/2000/svg" version="1.1">
 <metadata>
  <rdf:RDF xmlns:dc="http://purl.org/dc/elements/1.1/" xmlns:cc="http://creativecommons.org/ns#" xmlns:rdf="http://www.w3.org/1999/02/22-rdf-syntax-ns#">
   <cc:Work>
    <dc:type rdf:resource="http://purl.org/dc/dcmitype/StillImage"/>
    <dc:date>2024-10-11T15:13:52.811225</dc:date>
    <dc:format>image/svg+xml</dc:format>
    <dc:creator>
     <cc:Agent>
      <dc:title>Matplotlib v3.9.2, https://matplotlib.org/</dc:title>
     </cc:Agent>
    </dc:creator>
   </cc:Work>
  </rdf:RDF>
 </metadata>
 <defs>
  <style type="text/css">*{stroke-linejoin: round; stroke-linecap: butt}</style>
 </defs>
 <g id="figure_1">
  <g id="patch_1">
   <path d="M 0 345.6 
L 460.8 345.6 
L 460.8 0 
L 0 0 
z
" style="fill: #ffffff"/>
  </g>
  <g id="axes_1">
   <g id="patch_2">
    <path d="M 0 293.76 
L 460.8 293.76 
L 460.8 3.456 
L 0 3.456 
z
" style="fill: #ffffff"/>
   </g>
   <g id="matplotlib.axis_1">
    <g id="xtick_1">
     <g id="line2d_1">
      <path d="M 102.630429 293.76 
L 102.630429 3.456 
" clip-path="url(#p5099a7f88c)" style="fill: none; stroke: #b0b0b0; stroke-width: 0.8; stroke-linecap: square"/>
     </g>
     <g id="line2d_2">
      <defs>
       <path id="maf4ab61dd1" d="M 0 0 
L 0 3.5 
" style="stroke: #000000; stroke-width: 0.8"/>
      </defs>
      <g>
       <use xlink:href="#maf4ab61dd1" x="102.630429" y="293.76" style="stroke: #000000; stroke-width: 0.8"/>
      </g>
     </g>
     <g id="text_1">
      <!-- -5 -->
      <g transform="translate(92.660117 315.956875) scale(0.2 -0.2)">
       <defs>
        <path id="DejaVuSans-2d" d="M 313 2009 
L 1997 2009 
L 1997 1497 
L 313 1497 
L 313 2009 
z
" transform="scale(0.015625)"/>
        <path id="DejaVuSans-35" d="M 691 4666 
L 3169 4666 
L 3169 4134 
L 1269 4134 
L 1269 2991 
Q 1406 3038 1543 3061 
Q 1681 3084 1819 3084 
Q 2600 3084 3056 2656 
Q 3513 2228 3513 1497 
Q 3513 744 3044 326 
Q 2575 -91 1722 -91 
Q 1428 -91 1123 -41 
Q 819 9 494 109 
L 494 744 
Q 775 591 1075 516 
Q 1375 441 1709 441 
Q 2250 441 2565 725 
Q 2881 1009 2881 1497 
Q 2881 1984 2565 2268 
Q 2250 2553 1709 2553 
Q 1456 2553 1204 2497 
Q 953 2441 691 2322 
L 691 4666 
z
" transform="scale(0.015625)"/>
       </defs>
       <use xlink:href="#DejaVuSans-2d"/>
       <use xlink:href="#DejaVuSans-35" x="36.083984"/>
      </g>
     </g>
    </g>
    <g id="xtick_2">
     <g id="line2d_3">
      <path d="M 205.408906 293.76 
L 205.408906 3.456 
" clip-path="url(#p5099a7f88c)" style="fill: none; stroke: #b0b0b0; stroke-width: 0.8; stroke-linecap: square"/>
     </g>
     <g id="line2d_4">
      <g>
       <use xlink:href="#maf4ab61dd1" x="205.408906" y="293.76" style="stroke: #000000; stroke-width: 0.8"/>
      </g>
     </g>
     <g id="text_2">
      <!-- -2 -->
      <g transform="translate(195.438594 315.956875) scale(0.2 -0.2)">
       <defs>
        <path id="DejaVuSans-32" d="M 1228 531 
L 3431 531 
L 3431 0 
L 469 0 
L 469 531 
Q 828 903 1448 1529 
Q 2069 2156 2228 2338 
Q 2531 2678 2651 2914 
Q 2772 3150 2772 3378 
Q 2772 3750 2511 3984 
Q 2250 4219 1831 4219 
Q 1534 4219 1204 4116 
Q 875 4013 500 3803 
L 500 4441 
Q 881 4594 1212 4672 
Q 1544 4750 1819 4750 
Q 2544 4750 2975 4387 
Q 3406 4025 3406 3419 
Q 3406 3131 3298 2873 
Q 3191 2616 2906 2266 
Q 2828 2175 2409 1742 
Q 1991 1309 1228 531 
z
" transform="scale(0.015625)"/>
       </defs>
       <use xlink:href="#DejaVuSans-2d"/>
       <use xlink:href="#DejaVuSans-32" x="36.083984"/>
      </g>
     </g>
    </g>
    <g id="xtick_3">
     <g id="line2d_5">
      <path d="M 308.187383 293.76 
L 308.187383 3.456 
" clip-path="url(#p5099a7f88c)" style="fill: none; stroke: #b0b0b0; stroke-width: 0.8; stroke-linecap: square"/>
     </g>
     <g id="line2d_6">
      <g>
       <use xlink:href="#maf4ab61dd1" x="308.187383" y="293.76" style="stroke: #000000; stroke-width: 0.8"/>
      </g>
     </g>
     <g id="text_3">
      <!-- 1 -->
      <g transform="translate(301.824883 315.956875) scale(0.2 -0.2)">
       <defs>
        <path id="DejaVuSans-31" d="M 794 531 
L 1825 531 
L 1825 4091 
L 703 3866 
L 703 4441 
L 1819 4666 
L 2450 4666 
L 2450 531 
L 3481 531 
L 3481 0 
L 794 0 
L 794 531 
z
" transform="scale(0.015625)"/>
       </defs>
       <use xlink:href="#DejaVuSans-31"/>
      </g>
     </g>
    </g>
    <g id="xtick_4">
     <g id="line2d_7">
      <path d="M 410.965861 293.76 
L 410.965861 3.456 
" clip-path="url(#p5099a7f88c)" style="fill: none; stroke: #b0b0b0; stroke-width: 0.8; stroke-linecap: square"/>
     </g>
     <g id="line2d_8">
      <g>
       <use xlink:href="#maf4ab61dd1" x="410.965861" y="293.76" style="stroke: #000000; stroke-width: 0.8"/>
      </g>
     </g>
     <g id="text_4">
      <!-- 4 -->
      <g transform="translate(404.603361 315.956875) scale(0.2 -0.2)">
       <defs>
        <path id="DejaVuSans-34" d="M 2419 4116 
L 825 1625 
L 2419 1625 
L 2419 4116 
z
M 2253 4666 
L 3047 4666 
L 3047 1625 
L 3713 1625 
L 3713 1100 
L 3047 1100 
L 3047 0 
L 2419 0 
L 2419 1100 
L 313 1100 
L 313 1709 
L 2253 4666 
z
" transform="scale(0.015625)"/>
       </defs>
       <use xlink:href="#DejaVuSans-34"/>
      </g>
     </g>
    </g>
    <g id="text_5">
     <!-- log10 of Df -->
     <g transform="translate(175.214063 339.313125) scale(0.2 -0.2)">
      <defs>
       <path id="DejaVuSans-6c" d="M 603 4863 
L 1178 4863 
L 1178 0 
L 603 0 
L 603 4863 
z
" transform="scale(0.015625)"/>
       <path id="DejaVuSans-6f" d="M 1959 3097 
Q 1497 3097 1228 2736 
Q 959 2375 959 1747 
Q 959 1119 1226 758 
Q 1494 397 1959 397 
Q 2419 397 2687 759 
Q 2956 1122 2956 1747 
Q 2956 2369 2687 2733 
Q 2419 3097 1959 3097 
z
M 1959 3584 
Q 2709 3584 3137 3096 
Q 3566 2609 3566 1747 
Q 3566 888 3137 398 
Q 2709 -91 1959 -91 
Q 1206 -91 779 398 
Q 353 888 353 1747 
Q 353 2609 779 3096 
Q 1206 3584 1959 3584 
z
" transform="scale(0.015625)"/>
       <path id="DejaVuSans-67" d="M 2906 1791 
Q 2906 2416 2648 2759 
Q 2391 3103 1925 3103 
Q 1463 3103 1205 2759 
Q 947 2416 947 1791 
Q 947 1169 1205 825 
Q 1463 481 1925 481 
Q 2391 481 2648 825 
Q 2906 1169 2906 1791 
z
M 3481 434 
Q 3481 -459 3084 -895 
Q 2688 -1331 1869 -1331 
Q 1566 -1331 1297 -1286 
Q 1028 -1241 775 -1147 
L 775 -588 
Q 1028 -725 1275 -790 
Q 1522 -856 1778 -856 
Q 2344 -856 2625 -561 
Q 2906 -266 2906 331 
L 2906 616 
Q 2728 306 2450 153 
Q 2172 0 1784 0 
Q 1141 0 747 490 
Q 353 981 353 1791 
Q 353 2603 747 3093 
Q 1141 3584 1784 3584 
Q 2172 3584 2450 3431 
Q 2728 3278 2906 2969 
L 2906 3500 
L 3481 3500 
L 3481 434 
z
" transform="scale(0.015625)"/>
       <path id="DejaVuSans-30" d="M 2034 4250 
Q 1547 4250 1301 3770 
Q 1056 3291 1056 2328 
Q 1056 1369 1301 889 
Q 1547 409 2034 409 
Q 2525 409 2770 889 
Q 3016 1369 3016 2328 
Q 3016 3291 2770 3770 
Q 2525 4250 2034 4250 
z
M 2034 4750 
Q 2819 4750 3233 4129 
Q 3647 3509 3647 2328 
Q 3647 1150 3233 529 
Q 2819 -91 2034 -91 
Q 1250 -91 836 529 
Q 422 1150 422 2328 
Q 422 3509 836 4129 
Q 1250 4750 2034 4750 
z
" transform="scale(0.015625)"/>
       <path id="DejaVuSans-20" transform="scale(0.015625)"/>
       <path id="DejaVuSans-66" d="M 2375 4863 
L 2375 4384 
L 1825 4384 
Q 1516 4384 1395 4259 
Q 1275 4134 1275 3809 
L 1275 3500 
L 2222 3500 
L 2222 3053 
L 1275 3053 
L 1275 0 
L 697 0 
L 697 3053 
L 147 3053 
L 147 3500 
L 697 3500 
L 697 3744 
Q 697 4328 969 4595 
Q 1241 4863 1831 4863 
L 2375 4863 
z
" transform="scale(0.015625)"/>
       <path id="DejaVuSans-44" d="M 1259 4147 
L 1259 519 
L 2022 519 
Q 2988 519 3436 956 
Q 3884 1394 3884 2338 
Q 3884 3275 3436 3711 
Q 2988 4147 2022 4147 
L 1259 4147 
z
M 628 4666 
L 1925 4666 
Q 3281 4666 3915 4102 
Q 4550 3538 4550 2338 
Q 4550 1131 3912 565 
Q 3275 0 1925 0 
L 628 0 
L 628 4666 
z
" transform="scale(0.015625)"/>
      </defs>
      <use xlink:href="#DejaVuSans-6c"/>
      <use xlink:href="#DejaVuSans-6f" x="27.783203"/>
      <use xlink:href="#DejaVuSans-67" x="88.964844"/>
      <use xlink:href="#DejaVuSans-31" x="152.441406"/>
      <use xlink:href="#DejaVuSans-30" x="216.064453"/>
      <use xlink:href="#DejaVuSans-20" x="279.6875"/>
      <use xlink:href="#DejaVuSans-6f" x="311.474609"/>
      <use xlink:href="#DejaVuSans-66" x="372.65625"/>
      <use xlink:href="#DejaVuSans-20" x="407.861328"/>
      <use xlink:href="#DejaVuSans-44" x="439.648438"/>
      <use xlink:href="#DejaVuSans-66" x="516.650391"/>
     </g>
    </g>
   </g>
   <g id="matplotlib.axis_2">
    <g id="ytick_1">
     <g id="line2d_9">
      <path d="M 0 293.76 
L 460.8 293.76 
" clip-path="url(#p5099a7f88c)" style="fill: none; stroke: #b0b0b0; stroke-width: 0.8; stroke-linecap: square"/>
     </g>
     <g id="line2d_10">
      <defs>
       <path id="md0cb3785c8" d="M 0 0 
L -3.5 0 
" style="stroke: #000000; stroke-width: 0.8"/>
      </defs>
      <g>
       <use xlink:href="#md0cb3785c8" x="0" y="293.76" style="stroke: #000000; stroke-width: 0.8"/>
      </g>
     </g>
    </g>
    <g id="ytick_2">
     <g id="line2d_11">
      <path d="M 0 236.274059 
L 460.8 236.274059 
" clip-path="url(#p5099a7f88c)" style="fill: none; stroke: #b0b0b0; stroke-width: 0.8; stroke-linecap: square"/>
     </g>
     <g id="line2d_12">
      <g>
       <use xlink:href="#md0cb3785c8" x="0" y="236.274059" style="stroke: #000000; stroke-width: 0.8"/>
      </g>
     </g>
    </g>
    <g id="ytick_3">
     <g id="line2d_13">
      <path d="M 0 178.788119 
L 460.8 178.788119 
" clip-path="url(#p5099a7f88c)" style="fill: none; stroke: #b0b0b0; stroke-width: 0.8; stroke-linecap: square"/>
     </g>
     <g id="line2d_14">
      <g>
       <use xlink:href="#md0cb3785c8" x="0" y="178.788119" style="stroke: #000000; stroke-width: 0.8"/>
      </g>
     </g>
    </g>
    <g id="ytick_4">
     <g id="line2d_15">
      <path d="M 0 121.302178 
L 460.8 121.302178 
" clip-path="url(#p5099a7f88c)" style="fill: none; stroke: #b0b0b0; stroke-width: 0.8; stroke-linecap: square"/>
     </g>
     <g id="line2d_16">
      <g>
       <use xlink:href="#md0cb3785c8" x="0" y="121.302178" style="stroke: #000000; stroke-width: 0.8"/>
      </g>
     </g>
    </g>
    <g id="ytick_5">
     <g id="line2d_17">
      <path d="M 0 63.816238 
L 460.8 63.816238 
" clip-path="url(#p5099a7f88c)" style="fill: none; stroke: #b0b0b0; stroke-width: 0.8; stroke-linecap: square"/>
     </g>
     <g id="line2d_18">
      <g>
       <use xlink:href="#md0cb3785c8" x="0" y="63.816238" style="stroke: #000000; stroke-width: 0.8"/>
      </g>
     </g>
    </g>
    <g id="ytick_6">
     <g id="line2d_19">
      <path d="M 0 6.330297 
L 460.8 6.330297 
" clip-path="url(#p5099a7f88c)" style="fill: none; stroke: #b0b0b0; stroke-width: 0.8; stroke-linecap: square"/>
     </g>
     <g id="line2d_20">
      <g>
       <use xlink:href="#md0cb3785c8" x="0" y="6.330297" style="stroke: #000000; stroke-width: 0.8"/>
      </g>
     </g>
    </g>
   </g>
   <g id="line2d_21">
    <path d="M -0.148048 293.76 
L -0.148048 94.954455 
L 19.961262 94.954455 
L 19.961262 94.15604 
L 201.333974 94.15604 
L 201.333974 93.357624 
L 207.926715 93.357624 
L 207.926715 92.559208 
L 211.885624 92.559208 
L 211.885624 91.760792 
L 212.21329 91.760792 
L 212.21329 90.962376 
L 213.418717 90.962376 
L 213.418717 90.16396 
L 218.194834 90.16396 
L 218.194834 89.365545 
L 219.295739 89.365545 
L 219.295739 88.567129 
L 221.511322 88.567129 
L 221.511322 87.768713 
L 223.754845 87.768713 
L 223.754845 86.970297 
L 226.366694 86.970297 
L 226.366694 86.171881 
L 226.853883 86.171881 
L 226.853883 85.373465 
L 227.961086 85.373465 
L 227.961086 84.57505 
L 231.535167 84.57505 
L 231.535167 83.776634 
L 231.766297 83.776634 
L 231.766297 82.978218 
L 232.556012 82.978218 
L 232.556012 82.179802 
L 233.763994 82.179802 
L 233.763994 81.381386 
L 238.176429 81.381386 
L 238.176429 80.58297 
L 238.53532 80.58297 
L 238.53532 79.784554 
L 240.91245 79.784554 
L 240.91245 78.986139 
L 241.426398 78.986139 
L 241.426398 78.187723 
L 243.032103 78.187723 
L 243.110512 76.590891 
L 243.698929 76.590891 
L 243.698929 75.792475 
L 244.237728 75.792475 
L 244.273588 74.195644 
L 244.477957 74.195644 
L 244.477957 73.397228 
L 244.883629 73.397228 
L 244.883629 72.598812 
L 247.534692 72.598812 
L 247.534692 71.800396 
L 248.911981 71.800396 
L 248.911981 71.00198 
L 249.323665 71.00198 
L 249.323665 70.203564 
L 249.809831 70.203564 
L 249.809831 69.405149 
L 250.657969 69.405149 
L 250.657969 68.606733 
L 251.649445 68.606733 
L 251.649445 67.808317 
L 252.263079 67.808317 
L 252.263079 67.009901 
L 255.58158 67.009901 
L 255.58158 66.211485 
L 257.187503 66.211485 
L 257.187503 65.413069 
L 259.989117 65.413069 
L 259.989117 64.614653 
L 261.398174 64.614653 
L 261.398174 63.816238 
L 264.38078 63.816238 
L 264.38078 63.017822 
L 266.689647 63.017822 
L 266.689647 62.219406 
L 268.122811 62.219406 
L 268.122811 61.42099 
L 268.298549 61.42099 
L 268.298549 60.622574 
L 275.913238 60.622574 
L 275.993961 59.025743 
L 277.127049 59.025743 
L 277.127049 58.227327 
L 280.897134 58.227327 
L 280.897134 57.428911 
L 282.020394 57.428911 
L 282.020394 56.630495 
L 282.189102 56.630495 
L 282.189102 55.832079 
L 283.406593 55.832079 
L 283.406593 55.033663 
L 283.860201 55.033663 
L 283.860201 54.235248 
L 284.616484 54.235248 
L 284.616484 53.436832 
L 287.293753 53.436832 
L 287.295036 51.84 
L 287.821754 51.84 
L 287.821754 51.041584 
L 288.208995 51.041584 
L 288.208995 50.243168 
L 288.762772 50.243168 
L 288.762772 49.444752 
L 288.955418 49.444752 
L 288.955418 48.646337 
L 290.091968 48.646337 
L 290.091968 47.847921 
L 291.804721 47.847921 
L 291.804721 47.049505 
L 292.742973 47.049505 
L 292.742973 46.251089 
L 293.759434 46.251089 
L 293.759785 44.654257 
L 294.95628 44.654257 
L 294.95628 43.855842 
L 300.602486 43.855842 
L 300.602486 43.057426 
L 300.975267 43.057426 
L 300.975267 42.25901 
L 301.212533 42.25901 
L 301.212533 41.460594 
L 301.972611 41.460594 
L 302.022213 39.863762 
L 302.594366 39.863762 
L 302.627229 38.266931 
L 302.852244 38.266931 
L 302.852244 37.468515 
L 303.529766 37.468515 
L 303.529766 36.670099 
L 303.736159 36.670099 
L 303.736159 35.871683 
L 304.452827 35.871683 
L 304.452827 35.073267 
L 304.883264 35.073267 
L 304.883264 34.274851 
L 305.013135 34.274851 
L 305.013135 33.476436 
L 305.213872 33.476436 
L 305.213872 32.67802 
L 306.570369 32.67802 
L 306.570369 31.879604 
L 307.190196 31.879604 
L 307.23112 30.282772 
L 308.746367 30.282772 
L 308.746367 29.484356 
L 308.90175 29.484356 
L 308.90175 28.685941 
L 309.159933 28.685941 
L 309.159933 27.887525 
L 309.359304 27.887525 
L 309.359304 27.089109 
L 309.573093 27.089109 
L 309.573093 26.290693 
L 309.78224 26.290693 
L 309.78224 25.492277 
L 310.815569 25.492277 
L 310.815569 24.693861 
L 311.005744 24.693861 
L 311.038061 23.09703 
L 311.201044 23.09703 
L 311.201044 22.298614 
L 312.659187 22.298614 
L 312.659187 21.500198 
L 313.42323 21.500198 
L 313.42323 20.701782 
L 314.111809 20.701782 
L 314.111809 19.903366 
L 314.278804 19.903366 
L 314.328543 18.306535 
L 314.467115 18.306535 
L 314.537999 16.709703 
L 314.82813 16.709703 
L 314.922142 15.112871 
L 315.085018 15.112871 
L 315.113207 13.51604 
L 316.174516 13.51604 
L 316.174516 12.717624 
L 316.374534 12.717624 
L 316.374534 11.919208 
L 316.668198 11.919208 
L 316.747375 10.322376 
L 317.29404 10.322376 
L 317.29404 9.52396 
L 318.182222 9.52396 
L 318.182222 8.725545 
L 318.920056 8.725545 
L 318.945428 7.128713 
L 319.339912 7.128713 
L 319.339912 6.330297 
L 319.339912 6.330297 
L 460.8 6.330297 
L 460.8 6.330297 
" clip-path="url(#p5099a7f88c)" style="fill: none; stroke: #ff0000; stroke-width: 3; stroke-linecap: square"/>
   </g>
   <g id="line2d_22">
    <path d="M 307.635664 293.76 
L 307.635664 292.961584 
L 311.443771 292.961584 
L 311.443771 292.163168 
L 311.965442 292.163168 
L 311.965442 291.364752 
L 312.659177 291.364752 
L 312.685906 289.767921 
L 313.073443 289.767921 
L 313.073443 288.969505 
L 314.327524 288.969505 
L 314.327524 288.171089 
L 314.920831 288.171089 
L 314.920831 287.372673 
L 315.423691 287.372673 
L 315.423691 286.574257 
L 315.906353 286.574257 
L 315.906353 285.775842 
L 316.769265 285.775842 
L 316.849337 284.17901 
L 317.051821 284.17901 
L 317.157751 282.582178 
L 317.442786 282.582178 
L 317.442786 281.783762 
L 317.639902 281.783762 
L 317.639902 280.985347 
L 317.825803 280.985347 
L 317.825803 280.186931 
L 318.143898 280.186931 
L 318.143898 279.388515 
L 318.272483 279.388515 
L 318.355901 276.993267 
L 318.551698 276.993267 
L 318.551698 276.194851 
L 318.848877 276.194851 
L 318.848877 275.396436 
L 319.013809 275.396436 
L 319.083334 273.799604 
L 319.306057 273.799604 
L 319.356318 272.202772 
L 319.7049 272.202772 
L 319.7049 271.404356 
L 319.81835 271.404356 
L 319.81835 270.605941 
L 320.047965 270.605941 
L 320.047965 269.807525 
L 320.327675 269.807525 
L 320.327675 269.009109 
L 320.830319 269.009109 
L 320.872918 267.412277 
L 321.158684 267.412277 
L 321.158684 266.613861 
L 321.584784 266.613861 
L 321.585028 265.01703 
L 321.847644 265.01703 
L 321.900455 263.420198 
L 322.413954 263.420198 
L 322.413954 262.621782 
L 322.866121 262.621782 
L 322.866121 261.823366 
L 322.988603 261.823366 
L 322.988603 261.02495 
L 323.402529 261.02495 
L 323.402529 260.226535 
L 323.959369 260.226535 
L 324.007515 258.629703 
L 324.117674 258.629703 
L 324.117674 257.831287 
L 324.344968 257.831287 
L 324.434772 256.234455 
L 324.557737 256.234455 
L 324.578993 254.637624 
L 324.700579 254.637624 
L 324.792053 253.040792 
L 324.952929 253.040792 
L 324.952929 252.242376 
L 325.077383 252.242376 
L 325.085129 250.645545 
L 325.228297 250.645545 
L 325.260909 249.048713 
L 325.342845 249.048713 
L 325.445836 247.451881 
L 325.50941 247.451881 
L 325.600573 245.85505 
L 325.884988 245.85505 
L 325.884988 245.056634 
L 326.067059 245.056634 
L 326.089387 243.459802 
L 326.389332 243.459802 
L 326.389332 242.661386 
L 326.508185 242.661386 
L 326.508185 241.86297 
L 326.627524 241.86297 
L 326.627524 241.064554 
L 326.786249 241.064554 
L 326.845103 239.467723 
L 326.924064 239.467723 
L 326.924064 238.669307 
L 327.450758 238.669307 
L 327.450758 237.870891 
L 327.825575 237.870891 
L 327.825575 237.072475 
L 328.375799 237.072475 
L 328.403079 235.475644 
L 328.52372 235.475644 
L 328.594768 233.878812 
L 328.670984 233.878812 
L 328.670984 233.080396 
L 329.289796 233.080396 
L 329.374112 231.483564 
L 329.403405 231.483564 
L 329.48838 229.886733 
L 329.875432 229.886733 
L 329.875432 229.088317 
L 329.996117 229.088317 
L 330.039016 227.491485 
L 330.137171 227.491485 
L 330.137171 226.693069 
L 330.322696 226.693069 
L 330.42271 225.096238 
L 330.502203 225.096238 
L 330.53061 223.499406 
L 330.6331 223.499406 
L 330.701205 221.902574 
L 330.985787 221.902574 
L 330.985787 221.104158 
L 331.319831 221.104158 
L 331.319831 220.305743 
L 331.596105 220.305743 
L 331.70129 217.910495 
L 331.792696 217.910495 
L 331.901572 214.716832 
L 331.994171 214.716832 
L 332.046896 211.523168 
L 332.148361 211.523168 
L 332.148361 210.724752 
L 332.471418 210.724752 
L 332.541085 209.127921 
L 332.830725 209.127921 
L 332.830725 208.329505 
L 333.214187 208.329505 
L 333.221594 206.732673 
L 333.650853 206.732673 
L 333.650853 205.934257 
L 334.021571 205.934257 
L 334.039379 204.337426 
L 334.582273 204.337426 
L 334.582273 203.53901 
L 334.740028 203.53901 
L 334.820901 201.942178 
L 334.867708 201.942178 
L 334.867708 201.143762 
L 335.032328 201.143762 
L 335.139559 197.950099 
L 335.179215 197.950099 
L 335.270664 194.756436 
L 335.409174 194.756436 
L 335.427369 193.159604 
L 335.636232 193.159604 
L 335.743245 191.562772 
L 335.876508 191.562772 
L 335.880129 189.965941 
L 336.06068 189.965941 
L 336.16063 187.570693 
L 336.359336 187.570693 
L 336.359336 186.772277 
L 336.496677 186.772277 
L 336.496677 185.973861 
L 336.611121 185.973861 
L 336.611121 185.175446 
L 336.892164 185.175446 
L 336.901034 183.578614 
L 337.063989 183.578614 
L 337.063989 182.780198 
L 337.218605 182.780198 
L 337.279347 181.183366 
L 337.437365 181.183366 
L 337.437365 180.38495 
L 337.555174 180.38495 
L 337.632394 178.788119 
L 337.679852 178.788119 
L 337.768801 176.392871 
L 337.883041 176.392871 
L 337.926888 174.79604 
L 338.046335 174.79604 
L 338.13646 173.199208 
L 338.168195 173.199208 
L 338.252814 171.602376 
L 338.344755 171.602376 
L 338.344755 170.80396 
L 338.60863 170.80396 
L 338.60863 170.005545 
L 338.876565 170.005545 
L 338.939392 168.408713 
L 339.061254 168.408713 
L 339.154236 166.811881 
L 339.211723 166.811881 
L 339.270971 164.416634 
L 339.460651 164.416634 
L 339.460651 163.618218 
L 339.746932 163.618218 
L 339.746932 162.819802 
L 340.24944 162.819802 
L 340.27821 161.22297 
L 340.578166 161.22297 
L 340.578166 160.424554 
L 340.94792 160.424554 
L 340.970901 158.827723 
L 341.169871 158.827723 
L 341.169871 158.029307 
L 341.376124 158.029307 
L 341.387091 156.432475 
L 341.573498 156.432475 
L 341.573498 155.634059 
L 341.708625 155.634059 
L 341.708625 154.835644 
L 341.903374 154.835644 
L 341.903374 154.037228 
L 342.127434 154.037228 
L 342.227831 150.843564 
L 342.307596 150.843564 
L 342.307596 150.045149 
L 342.936371 150.045149 
L 342.936371 149.246733 
L 343.449373 149.246733 
L 343.493829 147.649901 
L 343.57732 147.649901 
L 343.68197 145.254653 
L 343.894247 145.254653 
L 343.930746 143.657822 
L 344.151379 143.657822 
L 344.161346 142.06099 
L 344.392362 142.06099 
L 344.497649 140.464158 
L 344.519929 140.464158 
L 344.534628 138.867327 
L 344.864258 138.867327 
L 344.864258 138.068911 
L 345.015484 138.068911 
L 345.015484 137.270495 
L 345.152473 137.270495 
L 345.152473 136.472079 
L 345.267136 136.472079 
L 345.319656 134.875248 
L 345.430896 134.875248 
L 345.520655 133.278416 
L 345.562025 133.278416 
L 345.636803 131.681584 
L 345.730142 131.681584 
L 345.838947 129.286337 
L 345.842756 129.286337 
L 345.951983 127.689505 
L 346.138518 127.689505 
L 346.168984 125.294257 
L 346.335967 125.294257 
L 346.335967 124.495842 
L 346.696871 124.495842 
L 346.770256 122.100594 
L 347.103165 122.100594 
L 347.103165 121.302178 
L 347.432484 121.302178 
L 347.432484 120.503762 
L 347.616928 120.503762 
L 347.616928 119.705347 
L 347.772821 119.705347 
L 347.859705 118.108515 
L 348.035676 118.108515 
L 348.035676 117.310099 
L 348.280948 117.310099 
L 348.280948 116.511683 
L 348.470177 116.511683 
L 348.558461 114.914851 
L 348.724814 114.914851 
L 348.724814 114.116436 
L 348.87319 114.116436 
L 348.87319 113.31802 
L 349.022415 113.31802 
L 349.106377 110.922772 
L 349.521917 110.922772 
L 349.521917 110.124356 
L 349.911507 110.124356 
L 349.911507 109.325941 
L 350.262497 109.325941 
L 350.262497 108.527525 
L 350.501045 108.527525 
L 350.501045 107.729109 
L 351.065236 107.729109 
L 351.065236 106.930693 
L 351.28143 106.930693 
L 351.28143 106.132277 
L 351.409799 106.132277 
L 351.494463 104.535446 
L 352.20166 104.535446 
L 352.305562 102.938614 
L 352.392771 102.938614 
L 352.392771 102.140198 
L 352.822954 102.140198 
L 352.822954 101.341782 
L 352.985958 101.341782 
L 352.985958 100.543366 
L 353.125041 100.543366 
L 353.125041 99.74495 
L 354.03663 99.74495 
L 354.03663 98.946535 
L 354.484598 98.946535 
L 354.484598 98.148119 
L 354.729916 98.148119 
L 354.729916 97.349703 
L 356.442024 97.349703 
L 356.458764 95.752871 
L 356.865068 95.752871 
L 356.865068 94.954455 
L 357.172581 94.954455 
L 357.172581 94.15604 
L 357.805411 94.15604 
L 357.805411 93.357624 
L 358.316265 93.357624 
L 358.409599 91.760792 
L 359.078366 91.760792 
L 359.078366 90.962376 
L 359.259229 90.962376 
L 359.259229 90.16396 
L 359.390852 90.16396 
L 359.390852 89.365545 
L 360.12701 89.365545 
L 360.23573 87.768713 
L 360.794161 87.768713 
L 360.794161 86.970297 
L 361.105997 86.970297 
L 361.105997 86.171881 
L 362.134336 86.171881 
L 362.151176 84.57505 
L 362.509686 84.57505 
L 362.509686 83.776634 
L 363.209829 83.776634 
L 363.289059 81.381386 
L 363.622092 81.381386 
L 363.622092 80.58297 
L 364.296307 80.58297 
L 364.296307 79.784554 
L 366.132728 79.784554 
L 366.132728 78.986139 
L 367.050909 78.986139 
L 367.050909 78.187723 
L 367.830696 78.187723 
L 367.830696 77.389307 
L 368.113899 77.389307 
L 368.113899 76.590891 
L 368.812785 76.590891 
L 368.812785 75.792475 
L 369.381048 75.792475 
L 369.381048 74.994059 
L 370.287609 74.994059 
L 370.287609 74.195644 
L 370.93183 74.195644 
L 370.93183 73.397228 
L 371.048014 73.397228 
L 371.048014 72.598812 
L 371.980218 72.598812 
L 372.054515 71.00198 
L 372.639809 71.00198 
L 372.639809 70.203564 
L 373.08793 70.203564 
L 373.08793 69.405149 
L 373.782582 69.405149 
L 373.808513 67.808317 
L 374.633777 67.808317 
L 374.633777 67.009901 
L 377.906312 67.009901 
L 377.906312 66.211485 
L 378.60394 66.211485 
L 378.60394 65.413069 
L 378.991671 65.413069 
L 378.991671 64.614653 
L 379.19852 64.614653 
L 379.19852 63.816238 
L 381.438887 63.816238 
L 381.468848 62.219406 
L 383.365293 62.219406 
L 383.401582 60.622574 
L 384.229267 60.622574 
L 384.229267 59.824158 
L 384.642678 59.824158 
L 384.642678 59.025743 
L 384.780182 59.025743 
L 384.793453 57.428911 
L 385.597762 57.428911 
L 385.597762 56.630495 
L 385.79235 56.630495 
L 385.79235 55.832079 
L 386.190681 55.832079 
L 386.190681 55.033663 
L 386.334637 55.033663 
L 386.334637 54.235248 
L 386.617978 54.235248 
L 386.686604 52.638416 
L 388.485781 52.638416 
L 388.485781 51.84 
L 388.864546 51.84 
L 388.864546 51.041584 
L 389.067703 51.041584 
L 389.067703 50.243168 
L 389.19121 50.243168 
L 389.192308 48.646337 
L 389.781575 48.646337 
L 389.800288 47.049505 
L 390.245273 47.049505 
L 390.245273 46.251089 
L 390.741119 46.251089 
L 390.741119 45.452673 
L 391.368013 45.452673 
L 391.368013 44.654257 
L 391.621197 44.654257 
L 391.63598 43.057426 
L 391.755503 43.057426 
L 391.755503 42.25901 
L 392.351819 42.25901 
L 392.351819 41.460594 
L 392.640923 41.460594 
L 392.640923 40.662178 
L 395.319999 40.662178 
L 395.319999 39.863762 
L 395.599557 39.863762 
L 395.599557 39.065347 
L 396.022523 39.065347 
L 396.022523 38.266931 
L 396.69808 38.266931 
L 396.69808 37.468515 
L 396.862207 37.468515 
L 396.899337 35.871683 
L 397.083037 35.871683 
L 397.083037 35.073267 
L 397.780137 35.073267 
L 397.780137 34.274851 
L 398.504052 34.274851 
L 398.504052 33.476436 
L 399.202783 33.476436 
L 399.202783 32.67802 
L 400.100016 32.67802 
L 400.100016 31.879604 
L 400.64361 31.879604 
L 400.64361 31.081188 
L 401.01704 31.081188 
L 401.01704 30.282772 
L 401.209794 30.282772 
L 401.209794 29.484356 
L 401.328354 29.484356 
L 401.337208 27.887525 
L 401.440277 27.887525 
L 401.440277 27.089109 
L 401.748585 27.089109 
L 401.764896 25.492277 
L 403.115725 25.492277 
L 403.189366 23.895446 
L 403.928832 23.895446 
L 403.928832 23.09703 
L 404.05286 23.09703 
L 404.05286 22.298614 
L 404.214738 22.298614 
L 404.214738 21.500198 
L 404.406339 21.500198 
L 404.406339 20.701782 
L 404.634531 20.701782 
L 404.634531 19.903366 
L 406.197095 19.903366 
L 406.197095 19.10495 
L 407.724077 19.10495 
L 407.820115 17.508119 
L 410.404718 17.508119 
L 410.404718 16.709703 
L 411.037362 16.709703 
L 411.139427 15.112871 
L 411.59516 15.112871 
L 411.59516 14.314455 
L 412.096007 14.314455 
L 412.096007 13.51604 
L 414.669608 13.51604 
L 414.669608 12.717624 
L 415.998017 12.717624 
L 415.998017 11.919208 
L 417.98473 11.919208 
L 417.98473 11.120792 
L 421.50958 11.120792 
L 421.50958 10.322376 
L 422.74088 10.322376 
L 422.74088 9.52396 
L 423.497752 9.52396 
L 423.497752 8.725545 
L 427.308957 8.725545 
L 427.308957 7.927129 
L 428.179497 7.927129 
L 428.179497 7.128713 
L 429.310652 7.128713 
L 429.310652 6.330297 
L 429.310652 6.330297 
L 460.8 6.330297 
L 460.8 6.330297 
" clip-path="url(#p5099a7f88c)" style="fill: none; stroke: #00bfbf; stroke-width: 1.5; stroke-linecap: square"/>
   </g>
   <g id="line2d_23">
    <path d="M 307.131919 293.76 
L 307.131919 292.961584 
L 307.635664 292.961584 
L 307.635664 292.163168 
L 308.988785 292.163168 
L 308.988785 291.364752 
L 311.443771 291.364752 
L 311.443771 290.566337 
L 311.965442 290.566337 
L 311.965442 289.767921 
L 312.546555 289.767921 
L 312.546555 288.969505 
L 312.685906 288.969505 
L 312.685906 288.171089 
L 312.920703 288.171089 
L 312.920703 287.372673 
L 313.073443 287.372673 
L 313.073443 286.574257 
L 314.327524 286.574257 
L 314.327524 285.775842 
L 314.721878 285.775842 
L 314.721878 284.977426 
L 314.920831 284.977426 
L 314.920831 284.17901 
L 315.242996 284.17901 
L 315.242996 283.380594 
L 315.409075 283.380594 
L 315.423691 281.783762 
L 315.797515 281.783762 
L 315.906353 278.590099 
L 316.011404 278.590099 
L 316.011404 277.791683 
L 316.149313 277.791683 
L 316.196757 276.194851 
L 316.584355 276.194851 
L 316.584355 275.396436 
L 316.749701 275.396436 
L 316.849337 273.001188 
L 317.051821 273.001188 
L 317.157751 271.404356 
L 317.442786 271.404356 
L 317.548876 269.807525 
L 317.639902 269.807525 
L 317.639902 269.009109 
L 318.272483 269.009109 
L 318.348059 266.613861 
L 318.704203 266.613861 
L 318.704203 265.815446 
L 319.013809 265.815446 
L 319.083334 264.218614 
L 319.356318 264.218614 
L 319.356318 263.420198 
L 319.795557 263.420198 
L 319.795557 262.621782 
L 320.047965 262.621782 
L 320.047965 261.823366 
L 320.327675 261.823366 
L 320.37322 260.226535 
L 320.519065 260.226535 
L 320.519065 259.428119 
L 320.779151 259.428119 
L 320.830319 257.032871 
L 320.900382 257.032871 
L 320.900382 256.234455 
L 321.112025 256.234455 
L 321.158684 254.637624 
L 321.338359 254.637624 
L 321.338359 253.839208 
L 321.584784 253.839208 
L 321.584784 253.040792 
L 321.70162 253.040792 
L 321.70162 252.242376 
L 321.927172 252.242376 
L 321.927172 251.44396 
L 322.095228 251.44396 
L 322.153704 249.847129 
L 322.349107 249.847129 
L 322.413954 248.250297 
L 322.983936 248.250297 
L 322.988603 246.653465 
L 323.226948 246.653465 
L 323.226948 245.85505 
L 323.402529 245.85505 
L 323.402529 245.056634 
L 323.52183 245.056634 
L 323.629827 243.459802 
L 323.83473 243.459802 
L 323.83473 242.661386 
L 323.959369 242.661386 
L 324.007515 241.064554 
L 324.074027 241.064554 
L 324.135794 239.467723 
L 324.238384 239.467723 
L 324.344968 237.072475 
L 324.434772 237.072475 
L 324.50154 235.475644 
L 324.578993 235.475644 
L 324.578993 234.677228 
L 324.792053 234.677228 
L 324.792053 233.878812 
L 324.954879 233.878812 
L 324.954879 233.080396 
L 325.260909 233.080396 
L 325.260909 232.28198 
L 325.444681 232.28198 
L 325.444681 231.483564 
L 325.648926 231.483564 
L 325.703126 229.886733 
L 325.884988 229.886733 
L 325.920591 228.289901 
L 326.071439 228.289901 
L 326.071439 227.491485 
L 326.389332 227.491485 
L 326.453262 225.096238 
L 326.508185 225.096238 
L 326.508185 224.297822 
L 326.627524 224.297822 
L 326.627524 223.499406 
L 326.786249 223.499406 
L 326.845103 221.104158 
L 327.015615 221.104158 
L 327.015615 220.305743 
L 327.318871 220.305743 
L 327.344377 218.708911 
L 327.517117 218.708911 
L 327.626373 216.313663 
L 327.769035 216.313663 
L 327.769035 215.515248 
L 327.922054 215.515248 
L 328.028556 213.12 
L 328.04403 213.12 
L 328.106447 211.523168 
L 328.403079 211.523168 
L 328.403079 210.724752 
L 328.594768 210.724752 
L 328.670984 208.329505 
L 328.880578 208.329505 
L 328.96711 206.732673 
L 329.249298 206.732673 
L 329.294828 205.135842 
L 329.374112 205.135842 
L 329.435462 203.53901 
L 329.616251 203.53901 
L 329.703275 201.942178 
L 330.106235 201.942178 
L 330.106235 201.143762 
L 330.322696 201.143762 
L 330.322696 200.345347 
L 330.6331 200.345347 
L 330.6331 199.546931 
L 331.054228 199.546931 
L 331.054228 198.748515 
L 331.217714 198.748515 
L 331.319831 196.353267 
L 331.342478 196.353267 
L 331.342478 195.554851 
L 331.637403 195.554851 
L 331.637403 194.756436 
L 331.762407 194.756436 
L 331.818224 193.159604 
L 331.934294 193.159604 
L 332.024856 190.764356 
L 332.046896 190.764356 
L 332.07536 189.167525 
L 332.200651 189.167525 
L 332.200651 188.369109 
L 332.350942 188.369109 
L 332.350942 187.570693 
L 332.471418 187.570693 
L 332.471418 186.772277 
L 332.71511 186.772277 
L 332.71511 185.973861 
L 333.036254 185.973861 
L 333.036254 185.175446 
L 333.375174 185.175446 
L 333.375174 184.37703 
L 333.650853 184.37703 
L 333.760584 181.981782 
L 334.021571 181.981782 
L 334.021571 181.183366 
L 334.190222 181.183366 
L 334.190222 180.38495 
L 334.582273 180.38495 
L 334.582273 179.586535 
L 334.820901 179.586535 
L 334.867708 177.989703 
L 334.946111 177.989703 
L 334.946111 177.191287 
L 335.05969 177.191287 
L 335.139559 174.79604 
L 335.179215 174.79604 
L 335.232065 172.400792 
L 335.409174 172.400792 
L 335.520039 170.005545 
L 335.743245 170.005545 
L 335.743245 169.207129 
L 335.880129 169.207129 
L 335.880129 168.408713 
L 336.06068 168.408713 
L 336.06068 167.610297 
L 336.359336 167.610297 
L 336.359336 166.811881 
L 336.491574 166.811881 
L 336.496677 165.21505 
L 336.611121 165.21505 
L 336.625929 163.618218 
L 336.736024 163.618218 
L 336.736024 162.819802 
L 337.279347 162.819802 
L 337.279347 162.021386 
L 337.437365 162.021386 
L 337.437365 161.22297 
L 337.632394 161.22297 
L 337.719263 157.230891 
L 337.883041 157.230891 
L 337.926888 155.634059 
L 338.020526 155.634059 
L 338.020526 154.835644 
L 338.133804 154.835644 
L 338.215747 151.64198 
L 338.344755 151.64198 
L 338.414924 149.246733 
L 338.671201 149.246733 
L 338.671201 148.448317 
L 338.876565 148.448317 
L 338.876565 147.649901 
L 339.407701 147.649901 
L 339.513768 144.456238 
L 339.641535 144.456238 
L 339.641535 143.657822 
L 339.979246 143.657822 
L 339.979246 142.859406 
L 340.24944 142.859406 
L 340.27821 141.262574 
L 340.45738 141.262574 
L 340.45738 140.464158 
L 340.601977 140.464158 
L 340.659824 138.867327 
L 340.94792 138.867327 
L 340.94792 138.068911 
L 341.169871 138.068911 
L 341.169871 137.270495 
L 341.376124 137.270495 
L 341.376124 136.472079 
L 341.708625 136.472079 
L 341.754516 134.875248 
L 341.828034 134.875248 
L 341.903374 133.278416 
L 342.127434 133.278416 
L 342.234507 130.883168 
L 342.26203 130.883168 
L 342.350895 128.487921 
L 342.383338 128.487921 
L 342.475308 126.092673 
L 342.508471 126.092673 
L 342.508471 125.294257 
L 342.841319 125.294257 
L 342.865194 123.697426 
L 343.020439 123.697426 
L 343.03952 122.100594 
L 343.164134 122.100594 
L 343.237055 120.503762 
L 343.290818 120.503762 
L 343.290818 119.705347 
L 343.456364 119.705347 
L 343.561783 116.511683 
L 343.57732 116.511683 
L 343.68197 114.914851 
L 343.795158 114.914851 
L 343.795158 114.116436 
L 344.161346 114.116436 
L 344.16415 112.519604 
L 344.497649 112.519604 
L 344.497649 111.721188 
L 344.820886 111.721188 
L 344.838549 110.124356 
L 345.052152 110.124356 
L 345.095897 108.527525 
L 345.246166 108.527525 
L 345.346525 106.132277 
L 345.562025 106.132277 
L 345.562025 105.333861 
L 345.730142 105.333861 
L 345.730142 104.535446 
L 345.951983 104.535446 
L 345.951983 103.73703 
L 346.111247 103.73703 
L 346.143144 102.140198 
L 346.460771 102.140198 
L 346.494889 100.543366 
L 346.574138 100.543366 
L 346.574138 99.74495 
L 347.103165 99.74495 
L 347.103165 98.946535 
L 347.357183 98.946535 
L 347.38681 97.349703 
L 348.035676 97.349703 
L 348.119763 95.752871 
L 348.558461 95.752871 
L 348.558461 94.954455 
L 349.032623 94.954455 
L 349.032623 94.15604 
L 349.486135 94.15604 
L 349.486135 93.357624 
L 349.619019 93.357624 
L 349.659246 91.760792 
L 350.262497 91.760792 
L 350.262497 90.962376 
L 350.409522 90.962376 
L 350.409522 90.16396 
L 350.58119 90.16396 
L 350.58119 89.365545 
L 351.065236 89.365545 
L 351.065236 88.567129 
L 351.28143 88.567129 
L 351.28143 87.768713 
L 351.915975 87.768713 
L 352.026576 86.171881 
L 352.259684 86.171881 
L 352.259684 85.373465 
L 352.705924 85.373465 
L 352.705924 84.57505 
L 352.822954 84.57505 
L 352.822954 83.776634 
L 353.246759 83.776634 
L 353.246759 82.978218 
L 353.752685 82.978218 
L 353.752685 82.179802 
L 354.501971 82.179802 
L 354.501971 81.381386 
L 354.88522 81.381386 
L 354.88522 80.58297 
L 356.673175 80.58297 
L 356.673175 79.784554 
L 357.63535 79.784554 
L 357.63535 78.986139 
L 357.787713 78.986139 
L 357.846179 77.389307 
L 358.393385 77.389307 
L 358.409599 75.792475 
L 359.240235 75.792475 
L 359.240235 74.994059 
L 360.54248 74.994059 
L 360.54248 74.195644 
L 360.724509 74.195644 
L 360.794161 72.598812 
L 362.497138 72.598812 
L 362.497138 71.800396 
L 363.289059 71.800396 
L 363.365668 70.203564 
L 364.198984 70.203564 
L 364.296307 68.606733 
L 364.763074 68.606733 
L 364.763074 67.808317 
L 365.590257 67.808317 
L 365.590257 67.009901 
L 367.307436 67.009901 
L 367.307436 66.211485 
L 367.709713 66.211485 
L 367.709713 65.413069 
L 368.461285 65.413069 
L 368.461285 64.614653 
L 368.812785 64.614653 
L 368.812785 63.816238 
L 369.379985 63.816238 
L 369.381048 62.219406 
L 370.287609 62.219406 
L 370.287609 61.42099 
L 370.799507 61.42099 
L 370.799507 60.622574 
L 371.048014 60.622574 
L 371.048014 59.824158 
L 371.980218 59.824158 
L 372.054515 58.227327 
L 372.384044 58.227327 
L 372.384044 57.428911 
L 372.649395 57.428911 
L 372.649395 56.630495 
L 373.265926 56.630495 
L 373.265926 55.832079 
L 373.808513 55.832079 
L 373.808513 55.033663 
L 374.335554 55.033663 
L 374.335554 54.235248 
L 376.558163 54.235248 
L 376.558163 53.436832 
L 376.829705 53.436832 
L 376.829705 52.638416 
L 377.67091 52.638416 
L 377.67091 51.84 
L 377.906312 51.84 
L 377.906312 51.041584 
L 378.991671 51.041584 
L 378.991671 50.243168 
L 379.19852 50.243168 
L 379.19852 49.444752 
L 379.32268 49.444752 
L 379.32268 48.646337 
L 380.582289 48.646337 
L 380.582289 47.847921 
L 380.988089 47.847921 
L 380.988089 47.049505 
L 381.312774 47.049505 
L 381.312774 46.251089 
L 381.468848 46.251089 
L 381.468848 45.452673 
L 381.68351 45.452673 
L 381.68351 44.654257 
L 382.334324 44.654257 
L 382.334324 43.855842 
L 383.956467 43.855842 
L 383.956467 43.057426 
L 384.089312 43.057426 
L 384.089312 42.25901 
L 384.229267 42.25901 
L 384.229267 41.460594 
L 384.642678 41.460594 
L 384.642678 40.662178 
L 384.780182 40.662178 
L 384.793453 39.065347 
L 386.152789 39.065347 
L 386.190681 37.468515 
L 386.334637 37.468515 
L 386.334637 36.670099 
L 386.617978 36.670099 
L 386.686604 35.073267 
L 387.227987 35.073267 
L 387.227987 34.274851 
L 388.064404 34.274851 
L 388.064404 33.476436 
L 388.485781 33.476436 
L 388.485781 32.67802 
L 388.864546 32.67802 
L 388.864546 31.879604 
L 389.067703 31.879604 
L 389.067703 31.081188 
L 389.389091 31.081188 
L 389.389091 30.282772 
L 389.781575 30.282772 
L 389.800288 28.685941 
L 391.755503 28.685941 
L 391.755503 27.887525 
L 392.035482 27.887525 
L 392.035482 27.089109 
L 392.221209 27.089109 
L 392.221209 26.290693 
L 392.640923 26.290693 
L 392.640923 25.492277 
L 393.351099 25.492277 
L 393.351099 24.693861 
L 393.571338 24.693861 
L 393.571338 23.895446 
L 393.884008 23.895446 
L 393.884008 23.09703 
L 395.062561 23.09703 
L 395.062561 22.298614 
L 395.319999 22.298614 
L 395.319999 21.500198 
L 395.75622 21.500198 
L 395.75622 20.701782 
L 396.022523 20.701782 
L 396.08136 18.306535 
L 397.628779 18.306535 
L 397.628779 17.508119 
L 398.234668 17.508119 
L 398.234668 16.709703 
L 399.98197 16.709703 
L 399.98197 15.911287 
L 400.143694 15.911287 
L 400.143694 15.112871 
L 401.209794 15.112871 
L 401.209794 14.314455 
L 402.870127 14.314455 
L 402.870127 13.51604 
L 403.115725 13.51604 
L 403.115725 12.717624 
L 405.825062 12.717624 
L 405.825062 11.919208 
L 408.101908 11.919208 
L 408.101908 11.120792 
L 409.284896 11.120792 
L 409.327193 9.52396 
L 410.271453 9.52396 
L 410.271453 8.725545 
L 415.998017 8.725545 
L 415.998017 7.927129 
L 424.637474 7.927129 
L 424.637474 7.128713 
L 428.179497 7.128713 
L 428.179497 6.330297 
L 428.179497 6.330297 
L 460.8 6.330297 
L 460.8 6.330297 
" clip-path="url(#p5099a7f88c)" style="fill: none; stroke: #bf00bf; stroke-width: 1.5; stroke-linecap: square"/>
   </g>
   <g id="line2d_24">
    <path d="M 273.860455 293.76 
L 273.860455 292.961584 
L 285.734169 292.961584 
L 285.734169 292.163168 
L 289.317355 292.163168 
L 289.317355 291.364752 
L 300.10906 291.364752 
L 300.10906 290.566337 
L 304.194399 290.566337 
L 304.194399 289.767921 
L 307.635664 289.767921 
L 307.635664 288.969505 
L 308.399886 288.969505 
L 308.399886 288.171089 
L 308.988785 288.171089 
L 308.988785 287.372673 
L 310.829338 287.372673 
L 310.829338 286.574257 
L 311.348968 286.574257 
L 311.443771 283.380594 
L 312.15606 283.380594 
L 312.15606 282.582178 
L 312.546555 282.582178 
L 312.558972 280.985347 
L 312.685906 280.985347 
L 312.779213 279.388515 
L 312.872731 279.388515 
L 312.982044 276.993267 
L 313.750671 276.993267 
L 313.750671 276.194851 
L 313.935054 276.194851 
L 313.935054 275.396436 
L 314.327524 275.396436 
L 314.327524 274.59802 
L 314.507975 274.59802 
L 314.507975 273.799604 
L 314.692163 273.799604 
L 314.692163 273.001188 
L 314.911517 273.001188 
L 315.007307 270.605941 
L 315.187181 270.605941 
L 315.187181 269.807525 
L 315.301316 269.807525 
L 315.409075 268.210693 
L 315.423691 268.210693 
L 315.423691 267.412277 
L 315.841899 267.412277 
L 315.896031 265.01703 
L 316.011404 265.01703 
L 316.011404 264.218614 
L 316.149313 264.218614 
L 316.196757 262.621782 
L 316.769265 262.621782 
L 316.769265 261.823366 
L 317.051821 261.823366 
L 317.157751 260.226535 
L 317.228463 260.226535 
L 317.228463 259.428119 
L 317.442786 259.428119 
L 317.548876 257.831287 
L 317.882449 257.831287 
L 317.882449 257.032871 
L 318.142231 257.032871 
L 318.166673 255.43604 
L 318.272483 255.43604 
L 318.348059 253.839208 
L 318.489783 253.839208 
L 318.489783 253.040792 
L 318.827116 253.040792 
L 318.856276 250.645545 
L 319.013809 250.645545 
L 319.013809 249.847129 
L 319.356318 249.847129 
L 319.46708 248.250297 
L 319.833993 248.250297 
L 319.833993 247.451881 
L 320.047965 247.451881 
L 320.047965 246.653465 
L 320.327675 246.653465 
L 320.37322 245.056634 
L 320.471333 245.056634 
L 320.519065 243.459802 
L 320.601997 243.459802 
L 320.601997 242.661386 
L 320.774261 242.661386 
L 320.79224 240.266139 
L 321.112025 240.266139 
L 321.149867 238.669307 
L 321.263728 238.669307 
L 321.263728 237.870891 
L 321.54626 237.870891 
L 321.584784 236.274059 
L 321.70162 236.274059 
L 321.70162 235.475644 
L 321.927172 235.475644 
L 321.981699 233.878812 
L 322.060905 233.878812 
L 322.153704 231.483564 
L 322.349107 231.483564 
L 322.4186 229.088317 
L 322.667534 229.088317 
L 322.667534 228.289901 
L 322.988603 228.289901 
L 323.087232 226.693069 
L 323.121235 226.693069 
L 323.141432 225.096238 
L 323.402529 225.096238 
L 323.445861 223.499406 
L 323.624233 223.499406 
L 323.633315 221.104158 
L 323.959369 221.104158 
L 323.959369 220.305743 
L 324.074027 220.305743 
L 324.158389 218.708911 
L 324.238384 218.708911 
L 324.348336 216.313663 
L 324.50154 216.313663 
L 324.578993 214.716832 
L 324.612669 214.716832 
L 324.618312 213.12 
L 324.800775 213.12 
L 324.800775 212.321584 
L 324.933425 212.321584 
L 324.954879 209.926337 
L 325.444681 209.926337 
L 325.444681 209.127921 
L 325.878481 209.127921 
L 325.943523 206.732673 
L 326.147135 206.732673 
L 326.147135 205.934257 
L 326.423051 205.934257 
L 326.508185 204.337426 
L 326.627524 204.337426 
L 326.635876 202.740594 
L 326.860525 202.740594 
L 326.860525 201.942178 
L 327.344377 201.942178 
L 327.362293 200.345347 
L 327.517117 200.345347 
L 327.582505 198.748515 
L 327.733597 198.748515 
L 327.806888 197.151683 
L 327.872973 197.151683 
L 327.973724 195.554851 
L 328.106447 195.554851 
L 328.198049 193.159604 
L 328.236419 193.159604 
L 328.236419 192.361188 
L 328.670984 192.361188 
L 328.670984 191.562772 
L 328.880578 191.562772 
L 328.96711 189.965941 
L 329.033379 189.965941 
L 329.053266 188.369109 
L 329.292728 188.369109 
L 329.374112 185.973861 
L 329.46464 185.973861 
L 329.46464 185.175446 
L 329.883603 185.175446 
L 329.883603 184.37703 
L 330.106235 184.37703 
L 330.106235 183.578614 
L 330.6331 183.578614 
L 330.6331 182.780198 
L 331.078464 182.780198 
L 331.106639 181.183366 
L 331.276145 181.183366 
L 331.360899 178.788119 
L 331.720136 178.788119 
L 331.818224 176.392871 
L 331.934294 176.392871 
L 331.994171 174.79604 
L 332.399696 174.79604 
L 332.399696 173.997624 
L 332.71511 173.997624 
L 332.71511 173.199208 
L 333.036254 173.199208 
L 333.036254 172.400792 
L 333.330242 172.400792 
L 333.412077 170.005545 
L 333.654385 170.005545 
L 333.760584 168.408713 
L 334.021571 168.408713 
L 334.113583 166.811881 
L 334.582273 166.811881 
L 334.681165 164.416634 
L 334.820901 164.416634 
L 334.930822 162.021386 
L 334.946111 162.021386 
L 335.012867 160.424554 
L 335.130844 160.424554 
L 335.139559 158.827723 
L 335.481659 158.827723 
L 335.520039 157.230891 
L 335.63632 157.230891 
L 335.707603 155.634059 
L 336.06068 155.634059 
L 336.160877 154.037228 
L 336.491574 154.037228 
L 336.540341 151.64198 
L 336.828669 151.64198 
L 336.828669 150.843564 
L 337.537225 150.843564 
L 337.614095 147.649901 
L 337.67971 147.649901 
L 337.719263 144.456238 
L 337.824357 144.456238 
L 337.824357 143.657822 
L 338.133804 143.657822 
L 338.215747 141.262574 
L 338.322748 141.262574 
L 338.392337 138.068911 
L 338.452425 138.068911 
L 338.452425 137.270495 
L 338.616137 137.270495 
L 338.671201 135.673663 
L 338.734401 135.673663 
L 338.734401 134.875248 
L 338.907907 134.875248 
L 338.955731 133.278416 
L 339.035191 133.278416 
L 339.075086 130.883168 
L 339.166128 130.883168 
L 339.222781 128.487921 
L 339.407701 128.487921 
L 339.51507 124.495842 
L 339.641535 124.495842 
L 339.641535 123.697426 
L 339.979246 123.697426 
L 339.979246 122.89901 
L 340.24944 122.89901 
L 340.27821 121.302178 
L 340.421451 121.302178 
L 340.439113 119.705347 
L 340.659824 119.705347 
L 340.736197 118.108515 
L 340.834167 118.108515 
L 340.834167 117.310099 
L 341.023484 117.310099 
L 341.023484 116.511683 
L 341.220055 116.511683 
L 341.220055 115.713267 
L 341.412551 115.713267 
L 341.442571 113.31802 
L 341.708625 113.31802 
L 341.76013 110.922772 
L 341.917056 110.922772 
L 341.9381 109.325941 
L 342.075063 109.325941 
L 342.177373 106.930693 
L 342.383338 106.930693 
L 342.475308 103.73703 
L 342.508471 103.73703 
L 342.508471 102.938614 
L 342.841319 102.938614 
L 342.865194 101.341782 
L 343.020439 101.341782 
L 343.059256 98.946535 
L 343.164134 98.946535 
L 343.164134 98.148119 
L 343.359011 98.148119 
L 343.359011 97.349703 
L 343.55987 97.349703 
L 343.57732 95.752871 
L 343.795158 95.752871 
L 343.795158 94.954455 
L 343.991278 94.954455 
L 343.991278 94.15604 
L 344.161346 94.15604 
L 344.209551 91.760792 
L 344.447529 91.760792 
L 344.447529 90.962376 
L 344.838549 90.962376 
L 344.838549 90.16396 
L 345.052152 90.16396 
L 345.052152 89.365545 
L 345.287744 89.365545 
L 345.287744 88.567129 
L 345.562025 88.567129 
L 345.562025 87.768713 
L 345.730142 87.768713 
L 345.730142 86.970297 
L 346.007837 86.970297 
L 346.007837 86.171881 
L 346.574138 86.171881 
L 346.574138 85.373465 
L 346.913746 85.373465 
L 346.913746 84.57505 
L 347.02586 84.57505 
L 347.02586 83.776634 
L 347.280524 83.776634 
L 347.280524 82.978218 
L 347.593102 82.978218 
L 347.593102 82.179802 
L 347.786161 82.179802 
L 347.786161 81.381386 
L 348.734057 81.381386 
L 348.734057 80.58297 
L 349.486135 80.58297 
L 349.486135 79.784554 
L 349.659246 79.784554 
L 349.659246 78.986139 
L 349.945514 78.986139 
L 349.945514 78.187723 
L 350.262497 78.187723 
L 350.262497 77.389307 
L 351.125023 77.389307 
L 351.199623 75.792475 
L 352.259684 75.792475 
L 352.259684 74.994059 
L 352.705924 74.994059 
L 352.705924 74.195644 
L 352.822954 74.195644 
L 352.822954 73.397228 
L 353.246759 73.397228 
L 353.246759 72.598812 
L 353.553949 72.598812 
L 353.594422 71.00198 
L 353.910735 71.00198 
L 353.910735 70.203564 
L 354.501971 70.203564 
L 354.501971 69.405149 
L 356.113841 69.405149 
L 356.164021 67.808317 
L 357.22354 67.808317 
L 357.22354 67.009901 
L 357.447869 67.009901 
L 357.447869 66.211485 
L 357.63535 66.211485 
L 357.63535 65.413069 
L 357.787713 65.413069 
L 357.858897 63.816238 
L 358.393385 63.816238 
L 358.393385 63.017822 
L 358.708743 63.017822 
L 358.708743 62.219406 
L 359.628267 62.219406 
L 359.628267 61.42099 
L 360.54248 61.42099 
L 360.54248 60.622574 
L 362.889832 60.622574 
L 362.889832 59.824158 
L 363.365668 59.824158 
L 363.365668 59.025743 
L 363.827332 59.025743 
L 363.827332 58.227327 
L 364.296307 58.227327 
L 364.384278 56.630495 
L 364.553292 56.630495 
L 364.553292 55.832079 
L 364.722712 55.832079 
L 364.763074 54.235248 
L 365.561932 54.235248 
L 365.561932 53.436832 
L 365.725553 53.436832 
L 365.725553 52.638416 
L 367.098473 52.638416 
L 367.098473 51.84 
L 367.307436 51.84 
L 367.307436 51.041584 
L 367.709713 51.041584 
L 367.709713 50.243168 
L 368.461285 50.243168 
L 368.461285 49.444752 
L 368.812785 49.444752 
L 368.812785 48.646337 
L 369.377639 48.646337 
L 369.379985 47.049505 
L 369.568995 47.049505 
L 369.647627 45.452673 
L 369.869713 45.452673 
L 369.869713 44.654257 
L 370.725084 44.654257 
L 370.725084 43.855842 
L 371.980218 43.855842 
L 371.980218 43.057426 
L 372.384044 43.057426 
L 372.453252 41.460594 
L 372.564016 41.460594 
L 372.564016 40.662178 
L 373.265926 40.662178 
L 373.265926 39.863762 
L 373.378153 39.863762 
L 373.378153 39.065347 
L 374.107686 39.065347 
L 374.107686 38.266931 
L 374.335554 38.266931 
L 374.351568 36.670099 
L 376.107475 36.670099 
L 376.107475 35.871683 
L 376.579941 35.871683 
L 376.579941 35.073267 
L 377.67091 35.073267 
L 377.67091 34.274851 
L 378.224362 34.274851 
L 378.245676 32.67802 
L 378.430996 32.67802 
L 378.430996 31.879604 
L 379.001476 31.879604 
L 379.001476 31.081188 
L 379.386178 31.081188 
L 379.386178 30.282772 
L 380.091838 30.282772 
L 380.197735 27.887525 
L 381.68351 27.887525 
L 381.739965 26.290693 
L 381.952261 26.290693 
L 381.952261 25.492277 
L 382.204746 25.492277 
L 382.204746 24.693861 
L 382.334324 24.693861 
L 382.334324 23.895446 
L 383.683265 23.895446 
L 383.683265 23.09703 
L 384.089312 23.09703 
L 384.089312 22.298614 
L 386.686604 22.298614 
L 386.686604 21.500198 
L 387.702935 21.500198 
L 387.702935 20.701782 
L 388.064404 20.701782 
L 388.064404 19.903366 
L 388.485781 19.903366 
L 388.485781 19.10495 
L 389.238571 19.10495 
L 389.238571 18.306535 
L 390.457918 18.306535 
L 390.457918 17.508119 
L 392.486232 17.508119 
L 392.486232 16.709703 
L 392.640923 16.709703 
L 392.640923 15.911287 
L 395.319999 15.911287 
L 395.319999 15.112871 
L 395.816341 15.112871 
L 395.816341 14.314455 
L 396.168168 14.314455 
L 396.168168 13.51604 
L 397.193114 13.51604 
L 397.193114 12.717624 
L 398.234668 12.717624 
L 398.258239 11.120792 
L 400.143694 11.120792 
L 400.143694 10.322376 
L 401.209794 10.322376 
L 401.209794 9.52396 
L 402.730529 9.52396 
L 402.730529 8.725545 
L 404.171814 8.725545 
L 404.171814 7.927129 
L 408.101908 7.927129 
L 408.101908 7.128713 
L 415.998017 7.128713 
L 415.998017 6.330297 
L 415.998017 6.330297 
L 460.8 6.330297 
L 460.8 6.330297 
" clip-path="url(#p5099a7f88c)" style="fill: none; stroke: #000000; stroke-width: 1.5; stroke-linecap: square"/>
   </g>
   <g id="line2d_25">
    <path d="M 255.369402 293.76 
L 255.369402 292.961584 
L 258.826013 292.961584 
L 258.826013 292.163168 
L 265.341327 292.163168 
L 265.341327 291.364752 
L 270.686234 291.364752 
L 270.686234 290.566337 
L 271.992089 290.566337 
L 271.992089 289.767921 
L 273.860455 289.767921 
L 273.860455 288.969505 
L 275.809077 288.969505 
L 275.809077 288.171089 
L 277.553498 288.171089 
L 277.553498 287.372673 
L 280.057567 287.372673 
L 280.057567 286.574257 
L 285.734169 286.574257 
L 285.734169 285.775842 
L 289.317355 285.775842 
L 289.317355 284.977426 
L 295.419696 284.977426 
L 295.419696 284.17901 
L 300.10906 284.17901 
L 300.188177 282.582178 
L 300.848232 282.582178 
L 300.848232 281.783762 
L 301.340527 281.783762 
L 301.340527 280.985347 
L 303.884073 280.985347 
L 303.900056 279.388515 
L 304.194399 279.388515 
L 304.194399 278.590099 
L 304.465891 278.590099 
L 304.465891 277.791683 
L 306.412651 277.791683 
L 306.412651 276.993267 
L 307.152332 276.993267 
L 307.185108 275.396436 
L 307.277107 275.396436 
L 307.277107 274.59802 
L 308.023814 274.59802 
L 308.023814 273.799604 
L 308.290633 273.799604 
L 308.399886 272.202772 
L 309.335139 272.202772 
L 309.335139 271.404356 
L 309.551022 271.404356 
L 309.561047 269.807525 
L 310.149565 269.807525 
L 310.149565 269.009109 
L 310.411665 269.009109 
L 310.411665 268.210693 
L 310.829338 268.210693 
L 310.837001 266.613861 
L 310.954727 266.613861 
L 311.0403 265.01703 
L 311.066365 265.01703 
L 311.15887 263.420198 
L 311.225565 263.420198 
L 311.225565 262.621782 
L 311.348968 262.621782 
L 311.448661 259.428119 
L 311.685875 259.428119 
L 311.768783 257.831287 
L 312.021545 257.831287 
L 312.021545 257.032871 
L 312.15606 257.032871 
L 312.201856 255.43604 
L 312.546555 255.43604 
L 312.616384 253.040792 
L 312.676068 253.040792 
L 312.779213 250.645545 
L 312.872731 250.645545 
L 312.973459 248.250297 
L 313.246815 248.250297 
L 313.246815 247.451881 
L 313.935054 247.451881 
L 313.971723 245.056634 
L 314.295288 245.056634 
L 314.348985 243.459802 
L 314.635338 243.459802 
L 314.635338 242.661386 
L 314.938277 242.661386 
L 314.961921 240.266139 
L 315.084517 240.266139 
L 315.084517 239.467723 
L 315.561307 239.467723 
L 315.561307 238.669307 
L 315.735391 238.669307 
L 315.744509 237.072475 
L 315.883702 237.072475 
L 315.97008 235.475644 
L 316.011404 235.475644 
L 316.011404 234.677228 
L 316.149642 234.677228 
L 316.149642 233.878812 
L 316.475557 233.878812 
L 316.475557 233.080396 
L 316.714053 233.080396 
L 316.769265 231.483564 
L 316.834621 231.483564 
L 316.834621 230.685149 
L 317.258956 230.685149 
L 317.305561 229.088317 
L 317.442786 229.088317 
L 317.477694 227.491485 
L 317.76459 227.491485 
L 317.76459 226.693069 
L 318.077409 226.693069 
L 318.077409 225.894653 
L 318.272483 225.894653 
L 318.272483 225.096238 
L 318.396485 225.096238 
L 318.396485 224.297822 
L 318.585233 224.297822 
L 318.605046 222.70099 
L 318.703965 222.70099 
L 318.804051 221.104158 
L 318.838619 221.104158 
L 318.915844 217.910495 
L 319.078648 217.910495 
L 319.078648 217.112079 
L 319.262471 217.112079 
L 319.360453 214.716832 
L 319.438653 214.716832 
L 319.46708 213.12 
L 319.609231 213.12 
L 319.609231 212.321584 
L 319.794933 212.321584 
L 319.794933 211.523168 
L 319.945922 211.523168 
L 319.945922 210.724752 
L 320.27574 210.724752 
L 320.327675 209.127921 
L 320.631914 209.127921 
L 320.681644 207.531089 
L 320.771883 207.531089 
L 320.774261 205.934257 
L 321.491382 205.934257 
L 321.584784 201.942178 
L 321.624606 201.942178 
L 321.624606 201.143762 
L 321.760055 201.143762 
L 321.784627 199.546931 
L 321.874558 199.546931 
L 321.874558 198.748515 
L 322.003925 198.748515 
L 322.003925 197.950099 
L 322.153704 197.950099 
L 322.153704 197.151683 
L 322.354021 197.151683 
L 322.413954 195.554851 
L 322.817783 195.554851 
L 322.817783 194.756436 
L 323.087232 194.756436 
L 323.168086 193.159604 
L 323.464553 193.159604 
L 323.464553 192.361188 
L 323.624233 192.361188 
L 323.624233 191.562772 
L 323.747528 191.562772 
L 323.772357 189.965941 
L 324.074027 189.965941 
L 324.105276 188.369109 
L 324.205981 188.369109 
L 324.205981 187.570693 
L 324.341559 187.570693 
L 324.341559 186.772277 
L 324.518914 186.772277 
L 324.578993 185.175446 
L 324.65511 185.175446 
L 324.65511 184.37703 
L 324.800775 184.37703 
L 324.800775 183.578614 
L 324.933425 183.578614 
L 324.954879 181.981782 
L 325.249417 181.981782 
L 325.249417 181.183366 
L 325.444681 181.183366 
L 325.521455 178.788119 
L 325.561107 178.788119 
L 325.659885 177.191287 
L 325.879747 177.191287 
L 325.879747 176.392871 
L 326.203326 176.392871 
L 326.237935 174.79604 
L 326.53073 174.79604 
L 326.635876 170.80396 
L 327.3956 170.80396 
L 327.3956 170.005545 
L 327.553039 170.005545 
L 327.606144 168.408713 
L 327.946993 168.408713 
L 328.011206 166.811881 
L 328.106447 166.811881 
L 328.193488 165.21505 
L 328.245374 165.21505 
L 328.245374 164.416634 
L 328.554204 164.416634 
L 328.554204 163.618218 
L 328.670984 163.618218 
L 328.781854 162.021386 
L 328.876386 162.021386 
L 328.96711 159.626139 
L 329.128182 159.626139 
L 329.128182 158.827723 
L 329.298205 158.827723 
L 329.333797 157.230891 
L 329.733496 157.230891 
L 329.733496 156.432475 
L 330.280925 156.432475 
L 330.327772 154.835644 
L 330.515668 154.835644 
L 330.554688 153.238812 
L 330.898143 153.238812 
L 330.89994 151.64198 
L 331.106639 151.64198 
L 331.106639 150.843564 
L 331.254363 150.843564 
L 331.276145 149.246733 
L 331.674318 149.246733 
L 331.674318 148.448317 
L 331.891642 148.448317 
L 331.988423 146.053069 
L 332.076933 146.053069 
L 332.120822 144.456238 
L 332.49586 144.456238 
L 332.49586 143.657822 
L 332.608239 143.657822 
L 332.71511 142.06099 
L 332.737321 142.06099 
L 332.841091 139.665743 
L 332.995767 139.665743 
L 333.068918 138.068911 
L 333.330242 138.068911 
L 333.412077 135.673663 
L 333.544984 135.673663 
L 333.60075 133.278416 
L 334.131802 133.278416 
L 334.152916 131.681584 
L 334.433775 131.681584 
L 334.459358 130.084752 
L 334.570734 130.084752 
L 334.570734 129.286337 
L 334.683135 129.286337 
L 334.723146 127.689505 
L 334.945721 127.689505 
L 334.945721 126.891089 
L 335.130844 126.891089 
L 335.139559 125.294257 
L 335.637877 125.294257 
L 335.637877 124.495842 
L 335.814982 124.495842 
L 335.906722 122.100594 
L 335.959706 122.100594 
L 336.054191 119.705347 
L 336.082186 119.705347 
L 336.187125 116.511683 
L 336.232866 116.511683 
L 336.232866 115.713267 
L 336.432759 115.713267 
L 336.483704 113.31802 
L 336.827869 113.31802 
L 336.908836 111.721188 
L 337.036014 111.721188 
L 337.095025 110.124356 
L 337.256227 110.124356 
L 337.256227 109.325941 
L 337.387779 109.325941 
L 337.46237 107.729109 
L 337.509164 107.729109 
L 337.602587 104.535446 
L 337.719263 104.535446 
L 337.811562 102.140198 
L 338.020877 102.140198 
L 338.109074 100.543366 
L 338.132479 100.543366 
L 338.133804 98.946535 
L 338.334914 98.946535 
L 338.422696 96.551287 
L 338.538983 96.551287 
L 338.538983 95.752871 
L 338.734401 95.752871 
L 338.74772 93.357624 
L 339.035191 93.357624 
L 339.035191 92.559208 
L 339.151748 92.559208 
L 339.210408 90.962376 
L 339.503651 90.962376 
L 339.503651 90.16396 
L 339.641535 90.16396 
L 339.734319 86.970297 
L 340.168409 86.970297 
L 340.24944 84.57505 
L 340.439113 84.57505 
L 340.439113 83.776634 
L 340.682457 83.776634 
L 340.742078 81.381386 
L 340.834167 81.381386 
L 340.938608 79.784554 
L 340.955729 79.784554 
L 340.955729 78.986139 
L 341.116719 78.986139 
L 341.116719 78.187723 
L 341.509726 78.187723 
L 341.562463 76.590891 
L 341.917056 76.590891 
L 341.917056 75.792475 
L 342.100105 75.792475 
L 342.135941 74.195644 
L 342.338581 74.195644 
L 342.338581 73.397228 
L 342.841319 73.397228 
L 342.865194 71.800396 
L 343.059256 71.800396 
L 343.059256 71.00198 
L 343.356958 71.00198 
L 343.459023 69.405149 
L 343.604841 69.405149 
L 343.604841 68.606733 
L 344.271509 68.606733 
L 344.271509 67.808317 
L 344.651785 67.808317 
L 344.651785 67.009901 
L 344.840272 67.009901 
L 344.840272 66.211485 
L 347.589565 66.211485 
L 347.589565 65.413069 
L 347.786161 65.413069 
L 347.786161 64.614653 
L 348.369103 64.614653 
L 348.369103 63.816238 
L 349.377604 63.816238 
L 349.377604 63.017822 
L 349.663547 63.017822 
L 349.663547 62.219406 
L 349.945514 62.219406 
L 349.945514 61.42099 
L 351.221163 61.42099 
L 351.221163 60.622574 
L 351.473313 60.622574 
L 351.473313 59.824158 
L 352.15552 59.824158 
L 352.179745 58.227327 
L 352.822954 58.227327 
L 352.822954 57.428911 
L 352.987259 57.428911 
L 352.987259 56.630495 
L 353.553949 56.630495 
L 353.553949 55.832079 
L 354.501971 55.832079 
L 354.501971 55.033663 
L 355.109212 55.033663 
L 355.109212 54.235248 
L 355.480385 54.235248 
L 355.480385 53.436832 
L 357.22354 53.436832 
L 357.22354 52.638416 
L 358.097372 52.638416 
L 358.097372 51.84 
L 358.393385 51.84 
L 358.393385 51.041584 
L 358.727117 51.041584 
L 358.727117 50.243168 
L 358.851048 50.243168 
L 358.851048 49.444752 
L 358.987333 49.444752 
L 359.075568 47.847921 
L 359.798633 47.847921 
L 359.798633 47.049505 
L 360.709982 47.049505 
L 360.709982 46.251089 
L 361.222742 46.251089 
L 361.222742 45.452673 
L 361.703622 45.452673 
L 361.703622 44.654257 
L 361.946354 44.654257 
L 361.946354 43.855842 
L 363.405985 43.855842 
L 363.405985 43.057426 
L 363.707153 43.057426 
L 363.707153 42.25901 
L 363.827332 42.25901 
L 363.827332 41.460594 
L 364.087284 41.460594 
L 364.163295 39.863762 
L 364.296307 39.863762 
L 364.296307 39.065347 
L 364.53857 39.065347 
L 364.553292 37.468515 
L 364.722712 37.468515 
L 364.722712 36.670099 
L 365.095766 36.670099 
L 365.095766 35.871683 
L 365.725553 35.871683 
L 365.725553 35.073267 
L 365.941908 35.073267 
L 365.941908 34.274851 
L 367.286275 34.274851 
L 367.286275 33.476436 
L 367.694272 33.476436 
L 367.694272 32.67802 
L 368.121929 32.67802 
L 368.121929 31.879604 
L 368.451213 31.879604 
L 368.451213 31.081188 
L 369.377639 31.081188 
L 369.399034 28.685941 
L 370.371063 28.685941 
L 370.371063 27.887525 
L 372.384044 27.887525 
L 372.384044 27.089109 
L 373.215482 27.089109 
L 373.215482 26.290693 
L 373.548271 26.290693 
L 373.548271 25.492277 
L 374.107686 25.492277 
L 374.107686 24.693861 
L 374.335554 24.693861 
L 374.351568 23.09703 
L 374.601092 23.09703 
L 374.601092 22.298614 
L 376.295364 22.298614 
L 376.295364 21.500198 
L 376.579941 21.500198 
L 376.645412 19.903366 
L 377.30943 19.903366 
L 377.30943 19.10495 
L 377.832976 19.10495 
L 377.832976 18.306535 
L 379.329438 18.306535 
L 379.329438 17.508119 
L 379.640205 17.508119 
L 379.640205 16.709703 
L 381.68351 16.709703 
L 381.68351 15.911287 
L 381.952261 15.911287 
L 381.952261 15.112871 
L 384.383085 15.112871 
L 384.383085 14.314455 
L 384.743983 14.314455 
L 384.743983 13.51604 
L 385.128909 13.51604 
L 385.128909 12.717624 
L 386.224407 12.717624 
L 386.224407 11.919208 
L 387.06485 11.919208 
L 387.06485 11.120792 
L 389.593064 11.120792 
L 389.593064 10.322376 
L 390.457918 10.322376 
L 390.457918 9.52396 
L 391.32061 9.52396 
L 391.32061 8.725545 
L 392.965855 8.725545 
L 392.965855 7.927129 
L 394.555785 7.927129 
L 394.555785 7.128713 
L 395.967733 7.128713 
L 395.967733 6.330297 
L 395.967733 6.330297 
L 460.8 6.330297 
L 460.8 6.330297 
" clip-path="url(#p5099a7f88c)" style="fill: none; stroke: #00bfbf; stroke-width: 1.5; stroke-linecap: square"/>
   </g>
   <g id="line2d_26">
    <path d="M 251.367138 293.76 
L 251.367138 292.961584 
L 253.382889 292.961584 
L 253.382889 292.163168 
L 254.369464 292.163168 
L 254.369464 291.364752 
L 254.482851 291.364752 
L 254.571238 288.969505 
L 256.17949 288.969505 
L 256.17949 288.171089 
L 256.511273 288.171089 
L 256.511273 287.372673 
L 256.685525 287.372673 
L 256.685525 286.574257 
L 256.900023 286.574257 
L 256.941123 284.977426 
L 257.181289 284.977426 
L 257.181289 284.17901 
L 257.882845 284.17901 
L 257.882845 283.380594 
L 258.826013 283.380594 
L 258.826013 282.582178 
L 260.166676 282.582178 
L 260.166676 281.783762 
L 260.377769 281.783762 
L 260.377769 280.985347 
L 260.78499 280.985347 
L 260.78499 280.186931 
L 262.247365 280.186931 
L 262.247365 279.388515 
L 263.1365 279.388515 
L 263.184228 277.791683 
L 263.910352 277.791683 
L 263.910352 276.993267 
L 264.609541 276.993267 
L 264.609541 276.194851 
L 265.936588 276.194851 
L 266.031191 274.59802 
L 266.197478 274.59802 
L 266.197478 273.799604 
L 266.616917 273.799604 
L 266.616917 273.001188 
L 266.935199 273.001188 
L 267.040972 271.404356 
L 267.694807 271.404356 
L 267.694807 270.605941 
L 267.896963 270.605941 
L 267.896963 269.807525 
L 269.062898 269.807525 
L 269.062898 269.009109 
L 269.889304 269.009109 
L 269.889304 268.210693 
L 273.575 268.210693 
L 273.575 267.412277 
L 279.144536 267.412277 
L 279.144536 266.613861 
L 280.104961 266.613861 
L 280.18939 265.01703 
L 281.245969 265.01703 
L 281.245969 264.218614 
L 281.757338 264.218614 
L 281.757338 263.420198 
L 283.868724 263.420198 
L 283.951206 261.823366 
L 284.950887 261.823366 
L 284.950887 261.02495 
L 285.291564 261.02495 
L 285.291564 260.226535 
L 285.546419 260.226535 
L 285.546419 259.428119 
L 285.714814 259.428119 
L 285.714814 258.629703 
L 285.961556 258.629703 
L 285.961556 257.831287 
L 287.841529 257.831287 
L 287.861488 256.234455 
L 288.205714 256.234455 
L 288.205714 255.43604 
L 288.388125 255.43604 
L 288.489035 253.839208 
L 288.584181 253.839208 
L 288.584181 253.040792 
L 288.943493 253.040792 
L 288.976857 251.44396 
L 289.068925 251.44396 
L 289.068925 250.645545 
L 289.646372 250.645545 
L 289.646372 249.847129 
L 290.188608 249.847129 
L 290.188608 249.048713 
L 291.184856 249.048713 
L 291.184856 248.250297 
L 291.486299 248.250297 
L 291.571185 246.653465 
L 292.172987 246.653465 
L 292.172987 245.85505 
L 292.72968 245.85505 
L 292.7902 244.258218 
L 293.391705 244.258218 
L 293.450339 241.86297 
L 293.796103 241.86297 
L 293.796103 241.064554 
L 293.989338 241.064554 
L 293.989338 240.266139 
L 294.130422 240.266139 
L 294.181567 238.669307 
L 294.422513 238.669307 
L 294.422513 237.870891 
L 294.756355 237.870891 
L 294.756355 237.072475 
L 294.979517 237.072475 
L 294.979517 236.274059 
L 295.184543 236.274059 
L 295.184543 235.475644 
L 295.960283 235.475644 
L 295.984302 233.878812 
L 296.723582 233.878812 
L 296.723582 233.080396 
L 296.928005 233.080396 
L 296.928005 232.28198 
L 297.324991 232.28198 
L 297.361175 230.685149 
L 297.446376 230.685149 
L 297.446376 229.886733 
L 297.763044 229.886733 
L 297.763044 229.088317 
L 298.736967 229.088317 
L 298.83746 227.491485 
L 299.059934 227.491485 
L 299.115629 225.894653 
L 299.229599 225.894653 
L 299.323434 224.297822 
L 299.451608 224.297822 
L 299.519779 222.70099 
L 299.643811 222.70099 
L 299.643811 221.902574 
L 300.063378 221.902574 
L 300.119747 220.305743 
L 300.188177 220.305743 
L 300.188177 219.507327 
L 300.445099 219.507327 
L 300.445099 218.708911 
L 300.831201 218.708911 
L 300.915424 217.112079 
L 301.620508 217.112079 
L 301.620508 216.313663 
L 301.747764 216.313663 
L 301.747764 215.515248 
L 301.94969 215.515248 
L 302.032291 213.918416 
L 302.362044 213.918416 
L 302.456742 211.523168 
L 302.983466 211.523168 
L 303.028939 209.926337 
L 304.000082 209.926337 
L 304.088474 207.531089 
L 304.132685 207.531089 
L 304.222279 203.53901 
L 304.618259 203.53901 
L 304.728416 201.143762 
L 304.745246 201.143762 
L 304.828374 199.546931 
L 304.983715 199.546931 
L 305.083692 195.554851 
L 305.115745 195.554851 
L 305.115745 194.756436 
L 305.233445 194.756436 
L 305.331532 191.562772 
L 305.610205 191.562772 
L 305.709322 189.167525 
L 305.977186 189.167525 
L 305.992706 186.772277 
L 306.178981 186.772277 
L 306.178981 185.973861 
L 306.339116 185.973861 
L 306.339116 185.175446 
L 306.547542 185.175446 
L 306.547542 184.37703 
L 306.697574 184.37703 
L 306.807452 181.183366 
L 306.894614 181.183366 
L 306.894614 180.38495 
L 307.303582 180.38495 
L 307.392465 178.788119 
L 307.590831 178.788119 
L 307.679021 175.594455 
L 307.864538 175.594455 
L 307.883107 173.997624 
L 308.182928 173.997624 
L 308.182928 173.199208 
L 308.320905 173.199208 
L 308.320905 172.400792 
L 308.713037 172.400792 
L 308.734259 170.80396 
L 308.902774 170.80396 
L 308.981243 169.207129 
L 309.053312 169.207129 
L 309.053312 168.408713 
L 309.335139 168.408713 
L 309.398477 166.013465 
L 309.760594 166.013465 
L 309.831799 163.618218 
L 309.994766 163.618218 
L 310.052932 162.021386 
L 310.235419 162.021386 
L 310.235419 161.22297 
L 310.448209 161.22297 
L 310.550659 159.626139 
L 310.769699 159.626139 
L 310.813622 158.029307 
L 311.080164 158.029307 
L 311.080164 157.230891 
L 311.215841 157.230891 
L 311.290078 155.634059 
L 311.922928 155.634059 
L 312.001383 152.440396 
L 312.084432 152.440396 
L 312.187051 150.843564 
L 312.235987 150.843564 
L 312.235987 150.045149 
L 312.419799 150.045149 
L 312.419799 149.246733 
L 312.551229 149.246733 
L 312.659187 147.649901 
L 312.873033 147.649901 
L 312.873033 146.851485 
L 313.035536 146.851485 
L 313.035536 146.053069 
L 313.242619 146.053069 
L 313.242619 145.254653 
L 313.665668 145.254653 
L 313.665668 144.456238 
L 313.952054 144.456238 
L 313.952054 143.657822 
L 314.294616 143.657822 
L 314.301964 142.06099 
L 314.526603 142.06099 
L 314.526603 141.262574 
L 314.82813 141.262574 
L 314.938928 139.665743 
L 315.010099 139.665743 
L 315.096612 138.068911 
L 315.321066 138.068911 
L 315.345502 136.472079 
L 315.541648 136.472079 
L 315.597267 134.875248 
L 315.754054 134.875248 
L 315.754054 134.076832 
L 315.969825 134.076832 
L 315.969825 133.278416 
L 316.237032 133.278416 
L 316.237032 132.48 
L 316.376225 132.48 
L 316.376225 131.681584 
L 316.561635 131.681584 
L 316.561635 130.883168 
L 316.682032 130.883168 
L 316.682032 130.084752 
L 317.138653 130.084752 
L 317.138653 129.286337 
L 317.432855 129.286337 
L 317.432855 128.487921 
L 317.700326 128.487921 
L 317.766156 126.891089 
L 317.992635 126.891089 
L 318.061759 124.495842 
L 318.235209 124.495842 
L 318.245132 122.89901 
L 318.535707 122.89901 
L 318.535707 122.100594 
L 318.723659 122.100594 
L 318.728101 120.503762 
L 319.070349 120.503762 
L 319.070349 119.705347 
L 319.425821 119.705347 
L 319.428245 118.108515 
L 319.760894 118.108515 
L 319.760894 117.310099 
L 320.072748 117.310099 
L 320.162969 115.713267 
L 320.214163 115.713267 
L 320.308961 114.116436 
L 320.433759 114.116436 
L 320.492008 112.519604 
L 320.558785 112.519604 
L 320.658466 110.922772 
L 320.705221 110.922772 
L 320.756068 109.325941 
L 320.838372 109.325941 
L 320.838372 108.527525 
L 321.159775 108.527525 
L 321.241468 106.132277 
L 321.303825 106.132277 
L 321.410989 104.535446 
L 321.990305 104.535446 
L 321.990305 103.73703 
L 322.107711 103.73703 
L 322.133492 102.140198 
L 322.308396 102.140198 
L 322.361162 100.543366 
L 322.513749 100.543366 
L 322.614683 96.551287 
L 322.650826 96.551287 
L 322.650826 95.752871 
L 323.13117 95.752871 
L 323.13117 94.954455 
L 323.537797 94.954455 
L 323.638855 92.559208 
L 323.898058 92.559208 
L 323.898058 91.760792 
L 324.18384 91.760792 
L 324.247159 90.16396 
L 324.749695 90.16396 
L 324.757085 88.567129 
L 325.1135 88.567129 
L 325.1135 87.768713 
L 325.233024 87.768713 
L 325.233024 86.970297 
L 325.39966 86.970297 
L 325.444681 85.373465 
L 325.609643 85.373465 
L 325.609643 84.57505 
L 325.934012 84.57505 
L 326.003731 82.978218 
L 326.080475 82.978218 
L 326.080475 82.179802 
L 326.210686 82.179802 
L 326.301761 79.784554 
L 326.418149 79.784554 
L 326.466983 77.389307 
L 326.572185 77.389307 
L 326.644737 75.792475 
L 326.941199 75.792475 
L 326.941199 74.994059 
L 327.22516 74.994059 
L 327.28915 73.397228 
L 327.9567 73.397228 
L 328.016463 71.800396 
L 328.11486 71.800396 
L 328.199701 69.405149 
L 328.236635 69.405149 
L 328.314343 67.009901 
L 328.456441 67.009901 
L 328.456441 66.211485 
L 328.890924 66.211485 
L 328.977236 63.017822 
L 329.020841 63.017822 
L 329.091564 59.025743 
L 329.213706 59.025743 
L 329.213706 58.227327 
L 329.390926 58.227327 
L 329.476325 55.832079 
L 329.967951 55.832079 
L 329.967951 55.033663 
L 330.122395 55.033663 
L 330.183193 52.638416 
L 330.23367 52.638416 
L 330.23367 51.84 
L 330.360059 51.84 
L 330.435895 50.243168 
L 330.602626 50.243168 
L 330.658616 48.646337 
L 330.911851 48.646337 
L 330.966604 46.251089 
L 331.07389 46.251089 
L 331.098537 44.654257 
L 331.359675 44.654257 
L 331.359675 43.855842 
L 331.484642 43.855842 
L 331.484642 43.057426 
L 331.751783 43.057426 
L 331.751783 42.25901 
L 331.892851 42.25901 
L 331.892851 41.460594 
L 332.157852 41.460594 
L 332.157852 40.662178 
L 332.320122 40.662178 
L 332.320122 39.863762 
L 332.462355 39.863762 
L 332.49446 38.266931 
L 332.582066 38.266931 
L 332.66535 36.670099 
L 333.02858 36.670099 
L 333.02858 35.871683 
L 333.429828 35.871683 
L 333.499232 33.476436 
L 333.625356 33.476436 
L 333.625356 32.67802 
L 333.934897 32.67802 
L 333.934897 31.879604 
L 334.648892 31.879604 
L 334.648892 31.081188 
L 334.803837 31.081188 
L 334.803837 30.282772 
L 335.188182 30.282772 
L 335.229892 27.887525 
L 336.83884 27.887525 
L 336.83884 27.089109 
L 338.780649 27.089109 
L 338.780649 26.290693 
L 339.536939 26.290693 
L 339.536939 25.492277 
L 339.850701 25.492277 
L 339.850701 24.693861 
L 340.940685 24.693861 
L 340.940685 23.895446 
L 343.367921 23.895446 
L 343.446507 22.298614 
L 348.364421 22.298614 
L 348.364421 21.500198 
L 351.014597 21.500198 
L 351.014597 20.701782 
L 353.315035 20.701782 
L 353.315035 19.903366 
L 354.750852 19.903366 
L 354.750852 19.10495 
L 355.466596 19.10495 
L 355.466596 18.306535 
L 357.167365 18.306535 
L 357.167365 17.508119 
L 357.527339 17.508119 
L 357.527339 16.709703 
L 357.732016 16.709703 
L 357.732016 15.911287 
L 358.754355 15.911287 
L 358.754355 15.112871 
L 361.022035 15.112871 
L 361.113494 13.51604 
L 361.604599 13.51604 
L 361.604599 12.717624 
L 363.880672 12.717624 
L 363.880672 11.919208 
L 364.921233 11.919208 
L 364.921233 11.120792 
L 368.321832 11.120792 
L 368.321832 10.322376 
L 369.259856 10.322376 
L 369.259856 9.52396 
L 369.710781 9.52396 
L 369.710781 8.725545 
L 374.294786 8.725545 
L 374.294786 7.927129 
L 377.339766 7.927129 
L 377.339766 7.128713 
L 378.004785 7.128713 
L 378.004785 6.330297 
L 378.004785 6.330297 
L 460.8 6.330297 
L 460.8 6.330297 
" clip-path="url(#p5099a7f88c)" style="fill: none; stroke: #bf00bf; stroke-width: 1.5; stroke-linecap: square"/>
   </g>
   <g id="line2d_27">
    <path d="M -1 238.669307 
L -0.396637 238.669307 
L -0.396637 237.870891 
L 2.730821 237.870891 
L 2.730821 237.072475 
L 4.07261 237.072475 
L 4.07261 236.274059 
L 8.380386 236.274059 
L 8.380386 235.475644 
L 11.858948 235.475644 
L 11.858948 234.677228 
L 12.319531 234.677228 
L 12.319531 233.878812 
L 14.230584 233.878812 
L 14.230584 233.080396 
L 14.663675 233.080396 
L 14.663675 232.28198 
L 15.677405 232.28198 
L 15.677405 231.483564 
L 22.546444 231.483564 
L 22.546444 230.685149 
L 22.920974 230.685149 
L 22.920974 229.886733 
L 24.844475 229.886733 
L 24.844475 229.088317 
L 31.806086 229.088317 
L 31.806086 228.289901 
L 39.242249 228.289901 
L 39.242249 227.491485 
L 40.029654 227.491485 
L 40.029654 226.693069 
L 40.258862 226.693069 
L 40.258862 225.894653 
L 41.323957 225.894653 
L 41.323957 225.096238 
L 43.643844 225.096238 
L 43.643844 224.297822 
L 44.172937 224.297822 
L 44.172937 223.499406 
L 44.856246 223.499406 
L 44.856246 222.70099 
L 47.228321 222.70099 
L 47.228321 221.902574 
L 49.396587 221.902574 
L 49.396587 221.104158 
L 49.891697 221.104158 
L 49.891697 220.305743 
L 50.090799 220.305743 
L 50.141345 218.708911 
L 51.092184 218.708911 
L 51.092184 217.910495 
L 57.178687 217.910495 
L 57.178687 217.112079 
L 62.198083 217.112079 
L 62.267711 215.515248 
L 64.433612 215.515248 
L 64.433612 214.716832 
L 67.963346 214.716832 
L 67.963346 213.918416 
L 68.208849 213.918416 
L 68.208849 213.12 
L 72.389826 213.12 
L 72.389826 212.321584 
L 75.457376 212.321584 
L 75.457376 211.523168 
L 76.175374 211.523168 
L 76.175374 210.724752 
L 76.288377 210.724752 
L 76.288377 209.926337 
L 78.360732 209.926337 
L 78.360732 209.127921 
L 79.614225 209.127921 
L 79.614225 208.329505 
L 80.780159 208.329505 
L 80.780159 207.531089 
L 85.021495 207.531089 
L 85.021495 206.732673 
L 87.477697 206.732673 
L 87.477697 205.934257 
L 90.613998 205.934257 
L 90.613998 205.135842 
L 93.092066 205.135842 
L 93.092066 204.337426 
L 94.297223 204.337426 
L 94.297223 203.53901 
L 94.895623 203.53901 
L 94.895623 202.740594 
L 98.399208 202.740594 
L 98.399208 201.942178 
L 98.544665 201.942178 
L 98.544665 201.143762 
L 99.461457 201.143762 
L 99.461457 200.345347 
L 101.333498 200.345347 
L 101.333498 199.546931 
L 104.955955 199.546931 
L 104.955955 198.748515 
L 111.969557 198.748515 
L 111.969557 197.950099 
L 115.573733 197.950099 
L 115.573733 197.151683 
L 116.826748 197.151683 
L 116.826748 196.353267 
L 118.463748 196.353267 
L 118.463748 195.554851 
L 120.399322 195.554851 
L 120.399322 194.756436 
L 121.083088 194.756436 
L 121.083088 193.95802 
L 122.727653 193.95802 
L 122.727653 193.159604 
L 123.293918 193.159604 
L 123.293918 192.361188 
L 124.933476 192.361188 
L 124.933476 191.562772 
L 126.068841 191.562772 
L 126.068841 190.764356 
L 134.724186 190.764356 
L 134.724186 189.965941 
L 134.839969 189.965941 
L 134.839969 189.167525 
L 137.285723 189.167525 
L 137.285723 188.369109 
L 138.353534 188.369109 
L 138.353534 187.570693 
L 139.299819 187.570693 
L 139.299819 186.772277 
L 141.305659 186.772277 
L 141.305659 185.973861 
L 141.992124 185.973861 
L 141.992124 185.175446 
L 142.743642 185.175446 
L 142.743642 184.37703 
L 144.771615 184.37703 
L 144.771615 183.578614 
L 145.67412 183.578614 
L 145.728587 181.981782 
L 145.931764 181.981782 
L 146.013098 180.38495 
L 146.83629 180.38495 
L 146.848347 178.788119 
L 146.961552 178.788119 
L 146.961552 177.989703 
L 147.319424 177.989703 
L 147.319424 177.191287 
L 148.668396 177.191287 
L 148.668396 176.392871 
L 149.202206 176.392871 
L 149.202206 175.594455 
L 149.99178 175.594455 
L 149.99178 174.79604 
L 151.274062 174.79604 
L 151.274062 173.997624 
L 151.491195 173.997624 
L 151.491195 173.199208 
L 152.641264 173.199208 
L 152.641264 172.400792 
L 153.135419 172.400792 
L 153.135419 171.602376 
L 153.289296 171.602376 
L 153.289296 170.80396 
L 154.699938 170.80396 
L 154.720443 169.207129 
L 157.214932 169.207129 
L 157.214932 168.408713 
L 157.840324 168.408713 
L 157.840324 167.610297 
L 158.447023 167.610297 
L 158.447023 166.811881 
L 158.733922 166.811881 
L 158.733922 166.013465 
L 159.114977 166.013465 
L 159.155043 164.416634 
L 159.583567 164.416634 
L 159.583567 163.618218 
L 160.233591 163.618218 
L 160.233591 162.819802 
L 160.511188 162.819802 
L 160.511188 162.021386 
L 160.662022 162.021386 
L 160.662022 161.22297 
L 160.812763 161.22297 
L 160.812763 160.424554 
L 162.12637 160.424554 
L 162.12637 159.626139 
L 162.339903 159.626139 
L 162.339903 158.827723 
L 165.909796 158.827723 
L 165.909796 158.029307 
L 166.235198 158.029307 
L 166.235198 157.230891 
L 166.44339 157.230891 
L 166.44339 156.432475 
L 167.105776 156.432475 
L 167.105776 155.634059 
L 170.5976 155.634059 
L 170.5976 154.835644 
L 172.602467 154.835644 
L 172.602467 154.037228 
L 173.289559 154.037228 
L 173.289559 153.238812 
L 175.237171 153.238812 
L 175.237171 152.440396 
L 175.629674 152.440396 
L 175.629674 151.64198 
L 176.384561 151.64198 
L 176.384561 150.843564 
L 177.027704 150.843564 
L 177.027704 150.045149 
L 177.182849 150.045149 
L 177.182849 149.246733 
L 177.365496 149.246733 
L 177.365496 148.448317 
L 178.337866 148.448317 
L 178.337866 147.649901 
L 180.742315 147.649901 
L 180.742315 146.851485 
L 181.258264 146.851485 
L 181.258264 146.053069 
L 183.246753 146.053069 
L 183.246753 145.254653 
L 183.563219 145.254653 
L 183.563219 144.456238 
L 185.57953 144.456238 
L 185.57953 143.657822 
L 186.037642 143.657822 
L 186.037642 142.859406 
L 186.662303 142.859406 
L 186.662303 142.06099 
L 186.78926 142.06099 
L 186.78926 141.262574 
L 187.668144 141.262574 
L 187.668144 140.464158 
L 189.188341 140.464158 
L 189.188341 139.665743 
L 193.786369 139.665743 
L 193.786369 138.867327 
L 197.900342 138.867327 
L 197.900342 138.068911 
L 200.175036 138.068911 
L 200.175036 137.270495 
L 200.664326 137.270495 
L 200.664326 136.472079 
L 200.879267 136.472079 
L 200.879267 135.673663 
L 201.342449 135.673663 
L 201.342449 134.875248 
L 203.325039 134.875248 
L 203.325039 134.076832 
L 207.500474 134.076832 
L 207.500474 133.278416 
L 210.162347 133.278416 
L 210.162347 132.48 
L 210.979944 132.48 
L 210.979944 131.681584 
L 213.159354 131.681584 
L 213.159354 130.883168 
L 214.204832 130.883168 
L 214.204832 130.084752 
L 215.081719 130.084752 
L 215.081719 129.286337 
L 216.527048 129.286337 
L 216.527048 128.487921 
L 216.659072 128.487921 
L 216.659072 127.689505 
L 217.648176 127.689505 
L 217.648176 126.891089 
L 218.515787 126.891089 
L 218.515787 126.092673 
L 219.131668 126.092673 
L 219.131668 125.294257 
L 221.406558 125.294257 
L 221.406558 124.495842 
L 222.060709 124.495842 
L 222.060709 123.697426 
L 225.983844 123.697426 
L 225.983844 122.89901 
L 227.86726 122.89901 
L 227.86726 122.100594 
L 228.914408 122.100594 
L 228.914408 121.302178 
L 229.783315 121.302178 
L 229.783315 120.503762 
L 230.25817 120.503762 
L 230.25817 119.705347 
L 232.619281 119.705347 
L 232.619281 118.906931 
L 233.159916 118.906931 
L 233.159916 118.108515 
L 233.872907 118.108515 
L 233.872907 117.310099 
L 236.072828 117.310099 
L 236.072828 116.511683 
L 236.683398 116.511683 
L 236.683398 115.713267 
L 236.799979 115.713267 
L 236.799979 114.914851 
L 237.332347 114.914851 
L 237.332347 114.116436 
L 240.0402 114.116436 
L 240.131817 112.519604 
L 240.315721 112.519604 
L 240.315721 111.721188 
L 240.84839 111.721188 
L 240.91245 110.124356 
L 242.605091 110.124356 
L 242.605091 109.325941 
L 243.033028 109.325941 
L 243.111271 107.729109 
L 244.243648 107.729109 
L 244.243648 106.930693 
L 244.478146 106.930693 
L 244.478146 106.132277 
L 244.883725 106.132277 
L 244.883725 105.333861 
L 245.955465 105.333861 
L 245.955465 104.535446 
L 247.129934 104.535446 
L 247.237297 102.140198 
L 247.271768 102.140198 
L 247.271768 101.341782 
L 247.534735 101.341782 
L 247.534735 100.543366 
L 247.99687 100.543366 
L 247.99687 99.74495 
L 248.598876 99.74495 
L 248.598876 98.946535 
L 248.91332 98.946535 
L 248.91332 98.148119 
L 249.809842 98.148119 
L 249.809842 97.349703 
L 249.986759 97.349703 
L 249.986759 96.551287 
L 250.676318 96.551287 
L 250.676318 95.752871 
L 251.655586 95.752871 
L 251.655586 94.954455 
L 252.734951 94.954455 
L 252.734951 94.15604 
L 254.269511 94.15604 
L 254.269511 93.357624 
L 254.48672 93.357624 
L 254.48672 92.559208 
L 255.201367 92.559208 
L 255.201367 91.760792 
L 255.428838 91.760792 
L 255.428838 90.962376 
L 255.58158 90.962376 
L 255.58158 90.16396 
L 255.862767 90.16396 
L 255.862767 89.365545 
L 257.18763 89.365545 
L 257.18763 88.567129 
L 257.913947 88.567129 
L 257.913947 87.768713 
L 258.735355 87.768713 
L 258.735355 86.970297 
L 259.616303 86.970297 
L 259.616303 86.171881 
L 260.50845 86.171881 
L 260.50845 85.373465 
L 261.021721 85.373465 
L 261.021721 84.57505 
L 261.95957 84.57505 
L 261.95957 83.776634 
L 268.122811 83.776634 
L 268.122811 82.978218 
L 268.29855 82.978218 
L 268.29855 82.179802 
L 270.129732 82.179802 
L 270.129732 81.381386 
L 273.56797 81.381386 
L 273.56797 80.58297 
L 277.127051 80.58297 
L 277.127051 79.784554 
L 277.975819 79.784554 
L 277.975819 78.986139 
L 280.90585 78.986139 
L 280.90585 78.187723 
L 281.199485 78.187723 
L 281.199485 77.389307 
L 283.727523 77.389307 
L 283.727523 76.590891 
L 284.986605 76.590891 
L 284.986605 75.792475 
L 285.628846 75.792475 
L 285.628846 74.994059 
L 285.792333 74.994059 
L 285.792333 74.195644 
L 286.06811 74.195644 
L 286.06811 73.397228 
L 287.677618 73.397228 
L 287.677618 72.598812 
L 289.573837 72.598812 
L 289.573837 71.800396 
L 290.193856 71.800396 
L 290.193856 71.00198 
L 290.642733 71.00198 
L 290.642733 70.203564 
L 291.472774 70.203564 
L 291.472774 69.405149 
L 291.964129 69.405149 
L 291.964129 68.606733 
L 292.592014 68.606733 
L 292.611184 67.009901 
L 292.742973 67.009901 
L 292.742973 66.211485 
L 293.051117 66.211485 
L 293.146683 63.017822 
L 293.881573 63.017822 
L 293.881573 62.219406 
L 294.036622 62.219406 
L 294.036622 61.42099 
L 294.969387 61.42099 
L 294.969387 60.622574 
L 295.092698 60.622574 
L 295.143794 59.025743 
L 295.535468 59.025743 
L 295.535468 58.227327 
L 295.956521 58.227327 
L 295.956521 57.428911 
L 296.53238 57.428911 
L 296.53238 56.630495 
L 297.300728 56.630495 
L 297.300728 55.832079 
L 297.494667 55.832079 
L 297.587607 53.436832 
L 297.908049 53.436832 
L 297.908049 52.638416 
L 298.036298 52.638416 
L 298.063823 51.041584 
L 298.158419 51.041584 
L 298.158419 50.243168 
L 298.576251 50.243168 
L 298.576251 49.444752 
L 299.327087 49.444752 
L 299.35142 47.847921 
L 299.627473 47.847921 
L 299.627473 47.049505 
L 300.317003 47.049505 
L 300.317003 46.251089 
L 300.801167 46.251089 
L 300.801167 45.452673 
L 301.466748 45.452673 
L 301.466748 44.654257 
L 303.910011 44.654257 
L 303.910011 43.855842 
L 304.883264 43.855842 
L 304.883264 43.057426 
L 305.013135 43.057426 
L 305.013135 42.25901 
L 306.687907 42.25901 
L 306.687907 41.460594 
L 308.488336 41.460594 
L 308.488336 40.662178 
L 308.883065 40.662178 
L 308.883065 39.863762 
L 309.359601 39.863762 
L 309.393922 38.266931 
L 310.121004 38.266931 
L 310.121004 37.468515 
L 310.665779 37.468515 
L 310.665779 36.670099 
L 311.005753 36.670099 
L 311.113091 34.274851 
L 311.237429 34.274851 
L 311.237429 33.476436 
L 312.076163 33.476436 
L 312.076163 32.67802 
L 312.659187 32.67802 
L 312.659187 31.879604 
L 312.825287 31.879604 
L 312.916039 30.282772 
L 313.093546 30.282772 
L 313.093546 29.484356 
L 314.278804 29.484356 
L 314.294616 27.887525 
L 314.410574 27.887525 
L 314.410574 27.089109 
L 314.60876 27.089109 
L 314.60876 26.290693 
L 314.82813 26.290693 
L 314.82813 25.492277 
L 315.113207 25.492277 
L 315.113207 24.693861 
L 315.314898 24.693861 
L 315.314898 23.895446 
L 316.365308 23.895446 
L 316.365308 23.09703 
L 316.538567 23.09703 
L 316.538567 22.298614 
L 316.737001 22.298614 
L 316.737001 21.500198 
L 316.858821 21.500198 
L 316.858821 20.701782 
L 317.151262 20.701782 
L 317.151262 19.903366 
L 317.434475 19.903366 
L 317.434475 19.10495 
L 318.042324 19.10495 
L 318.042324 18.306535 
L 318.182222 18.306535 
L 318.182222 17.508119 
L 318.945428 17.508119 
L 318.945428 16.709703 
L 319.791666 16.709703 
L 319.827007 15.112871 
L 320.20825 15.112871 
L 320.20825 14.314455 
L 321.879423 14.314455 
L 321.959058 12.717624 
L 322.054317 12.717624 
L 322.054317 11.919208 
L 323.070511 11.919208 
L 323.070511 11.120792 
L 323.899466 11.120792 
L 323.899466 10.322376 
L 325.179614 10.322376 
L 325.179614 9.52396 
L 325.840633 9.52396 
L 325.840633 8.725545 
L 326.900213 8.725545 
L 326.900213 7.927129 
L 327.777453 7.927129 
L 327.777453 7.128713 
L 328.249667 7.128713 
L 328.249667 6.330297 
L 328.249667 6.330297 
L 460.8 6.330297 
L 460.8 6.330297 
" clip-path="url(#p5099a7f88c)" style="fill: none; stroke: #000000; stroke-width: 1.5; stroke-linecap: square"/>
   </g>
   <g id="line2d_28">
    <path d="M -0.148048 293.76 
L -0.148048 94.954455 
L 19.961262 94.954455 
L 19.961262 94.15604 
L 201.333974 94.15604 
L 201.333974 93.357624 
L 207.926715 93.357624 
L 207.926715 92.559208 
L 211.885624 92.559208 
L 211.885624 91.760792 
L 212.21329 91.760792 
L 212.21329 90.962376 
L 213.418717 90.962376 
L 213.418717 90.16396 
L 218.194834 90.16396 
L 218.194834 89.365545 
L 219.295739 89.365545 
L 219.295739 88.567129 
L 221.511322 88.567129 
L 221.511322 87.768713 
L 223.754845 87.768713 
L 223.754845 86.970297 
L 226.366694 86.970297 
L 226.366694 86.171881 
L 226.853883 86.171881 
L 226.853883 85.373465 
L 227.961086 85.373465 
L 227.961086 84.57505 
L 231.535167 84.57505 
L 231.535167 83.776634 
L 231.766297 83.776634 
L 231.766297 82.978218 
L 232.556012 82.978218 
L 232.556012 82.179802 
L 233.763994 82.179802 
L 233.763994 81.381386 
L 238.176429 81.381386 
L 238.176429 80.58297 
L 238.53532 80.58297 
L 238.53532 79.784554 
L 240.91245 79.784554 
L 240.91245 78.986139 
L 241.426398 78.986139 
L 241.426398 78.187723 
L 243.032103 78.187723 
L 243.110512 76.590891 
L 243.698929 76.590891 
L 243.698929 75.792475 
L 244.237728 75.792475 
L 244.273588 74.195644 
L 244.477957 74.195644 
L 244.477957 73.397228 
L 244.883629 73.397228 
L 244.883629 72.598812 
L 247.534692 72.598812 
L 247.534692 71.800396 
L 248.911981 71.800396 
L 248.911981 71.00198 
L 249.323665 71.00198 
L 249.323665 70.203564 
L 249.809831 70.203564 
L 249.809831 69.405149 
L 250.657969 69.405149 
L 250.657969 68.606733 
L 251.649445 68.606733 
L 251.649445 67.808317 
L 252.263079 67.808317 
L 252.263079 67.009901 
L 255.58158 67.009901 
L 255.58158 66.211485 
L 257.187503 66.211485 
L 257.187503 65.413069 
L 259.989117 65.413069 
L 259.989117 64.614653 
L 261.398174 64.614653 
L 261.398174 63.816238 
L 264.38078 63.816238 
L 264.38078 63.017822 
L 266.689647 63.017822 
L 266.689647 62.219406 
L 268.122811 62.219406 
L 268.122811 61.42099 
L 268.298549 61.42099 
L 268.298549 60.622574 
L 275.913238 60.622574 
L 275.993961 59.025743 
L 277.127049 59.025743 
L 277.127049 58.227327 
L 280.897134 58.227327 
L 280.897134 57.428911 
L 282.020394 57.428911 
L 282.020394 56.630495 
L 282.189102 56.630495 
L 282.189102 55.832079 
L 283.406593 55.832079 
L 283.406593 55.033663 
L 283.860201 55.033663 
L 283.860201 54.235248 
L 284.616484 54.235248 
L 284.616484 53.436832 
L 287.293753 53.436832 
L 287.295036 51.84 
L 287.821754 51.84 
L 287.821754 51.041584 
L 288.208995 51.041584 
L 288.208995 50.243168 
L 288.762772 50.243168 
L 288.762772 49.444752 
L 288.955418 49.444752 
L 288.955418 48.646337 
L 290.091968 48.646337 
L 290.091968 47.847921 
L 291.804721 47.847921 
L 291.804721 47.049505 
L 292.742973 47.049505 
L 292.742973 46.251089 
L 293.759434 46.251089 
L 293.759785 44.654257 
L 294.95628 44.654257 
L 294.95628 43.855842 
L 300.602486 43.855842 
L 300.602486 43.057426 
L 300.975267 43.057426 
L 300.975267 42.25901 
L 301.212533 42.25901 
L 301.212533 41.460594 
L 301.972611 41.460594 
L 302.022213 39.863762 
L 302.594366 39.863762 
L 302.627229 38.266931 
L 302.852244 38.266931 
L 302.852244 37.468515 
L 303.529766 37.468515 
L 303.529766 36.670099 
L 303.736159 36.670099 
L 303.736159 35.871683 
L 304.452827 35.871683 
L 304.452827 35.073267 
L 304.883264 35.073267 
L 304.883264 34.274851 
L 305.013135 34.274851 
L 305.013135 33.476436 
L 305.213872 33.476436 
L 305.213872 32.67802 
L 306.570369 32.67802 
L 306.570369 31.879604 
L 307.190196 31.879604 
L 307.23112 30.282772 
L 308.746367 30.282772 
L 308.746367 29.484356 
L 308.90175 29.484356 
L 308.90175 28.685941 
L 309.159933 28.685941 
L 309.159933 27.887525 
L 309.359304 27.887525 
L 309.359304 27.089109 
L 309.573093 27.089109 
L 309.573093 26.290693 
L 309.78224 26.290693 
L 309.78224 25.492277 
L 310.815569 25.492277 
L 310.815569 24.693861 
L 311.005744 24.693861 
L 311.038061 23.09703 
L 311.201044 23.09703 
L 311.201044 22.298614 
L 312.659187 22.298614 
L 312.659187 21.500198 
L 313.42323 21.500198 
L 313.42323 20.701782 
L 314.111809 20.701782 
L 314.111809 19.903366 
L 314.278804 19.903366 
L 314.328543 18.306535 
L 314.467115 18.306535 
L 314.537999 16.709703 
L 314.82813 16.709703 
L 314.922142 15.112871 
L 315.085018 15.112871 
L 315.113207 13.51604 
L 316.174516 13.51604 
L 316.174516 12.717624 
L 316.374534 12.717624 
L 316.374534 11.919208 
L 316.668198 11.919208 
L 316.747375 10.322376 
L 317.29404 10.322376 
L 317.29404 9.52396 
L 318.182222 9.52396 
L 318.182222 8.725545 
L 318.920056 8.725545 
L 318.945428 7.128713 
L 319.339912 7.128713 
L 319.339912 6.330297 
L 319.339912 6.330297 
L 460.8 6.330297 
L 460.8 6.330297 
" clip-path="url(#p5099a7f88c)" style="fill: none; stroke: #00bfbf; stroke-width: 1.5; stroke-linecap: square"/>
   </g>
   <g id="patch_3">
    <path d="M 0 293.76 
L 0 3.456 
" style="fill: none; stroke: #000000; stroke-width: 0.8; stroke-linejoin: miter; stroke-linecap: square"/>
   </g>
   <g id="patch_4">
    <path d="M 460.8 293.76 
L 460.8 3.456 
" style="fill: none; stroke: #000000; stroke-width: 0.8; stroke-linejoin: miter; stroke-linecap: square"/>
   </g>
   <g id="patch_5">
    <path d="M 0 293.76 
L 460.8 293.76 
" style="fill: none; stroke: #000000; stroke-width: 0.8; stroke-linejoin: miter; stroke-linecap: square"/>
   </g>
   <g id="patch_6">
    <path d="M 0 3.456 
L 460.8 3.456 
" style="fill: none; stroke: #000000; stroke-width: 0.8; stroke-linejoin: miter; stroke-linecap: square"/>
   </g>
   <g id="text_6">
    <!-- {f1-f24}, 10-D -->
    <g transform="translate(305.884 287.95392) scale(0.2 -0.2)">
     <defs>
      <path id="DejaVuSans-7b" d="M 3272 -594 
L 3272 -1044 
L 3078 -1044 
Q 2300 -1044 2036 -812 
Q 1772 -581 1772 109 
L 1772 856 
Q 1772 1328 1603 1509 
Q 1434 1691 991 1691 
L 800 1691 
L 800 2138 
L 991 2138 
Q 1438 2138 1605 2317 
Q 1772 2497 1772 2963 
L 1772 3713 
Q 1772 4403 2036 4633 
Q 2300 4863 3078 4863 
L 3272 4863 
L 3272 4416 
L 3059 4416 
Q 2619 4416 2484 4278 
Q 2350 4141 2350 3700 
L 2350 2925 
Q 2350 2434 2208 2212 
Q 2066 1991 1722 1913 
Q 2069 1828 2209 1606 
Q 2350 1384 2350 897 
L 2350 122 
Q 2350 -319 2484 -456 
Q 2619 -594 3059 -594 
L 3272 -594 
z
" transform="scale(0.015625)"/>
      <path id="DejaVuSans-7d" d="M 800 -594 
L 1019 -594 
Q 1456 -594 1589 -459 
Q 1722 -325 1722 122 
L 1722 897 
Q 1722 1384 1862 1606 
Q 2003 1828 2350 1913 
Q 2003 1991 1862 2212 
Q 1722 2434 1722 2925 
L 1722 3700 
Q 1722 4144 1589 4280 
Q 1456 4416 1019 4416 
L 800 4416 
L 800 4863 
L 997 4863 
Q 1775 4863 2036 4633 
Q 2297 4403 2297 3713 
L 2297 2963 
Q 2297 2497 2465 2317 
Q 2634 2138 3078 2138 
L 3272 2138 
L 3272 1691 
L 3078 1691 
Q 2634 1691 2465 1509 
Q 2297 1328 2297 856 
L 2297 109 
Q 2297 -581 2036 -812 
Q 1775 -1044 997 -1044 
L 800 -1044 
L 800 -594 
z
" transform="scale(0.015625)"/>
      <path id="DejaVuSans-2c" d="M 750 794 
L 1409 794 
L 1409 256 
L 897 -744 
L 494 -744 
L 750 256 
L 750 794 
z
" transform="scale(0.015625)"/>
     </defs>
     <use xlink:href="#DejaVuSans-7b"/>
     <use xlink:href="#DejaVuSans-66" x="63.623047"/>
     <use xlink:href="#DejaVuSans-31" x="98.828125"/>
     <use xlink:href="#DejaVuSans-2d" x="162.451172"/>
     <use xlink:href="#DejaVuSans-66" x="198.535156"/>
     <use xlink:href="#DejaVuSans-32" x="233.740234"/>
     <use xlink:href="#DejaVuSans-34" x="297.363281"/>
     <use xlink:href="#DejaVuSans-7d" x="360.986328"/>
     <use xlink:href="#DejaVuSans-2c" x="424.609375"/>
     <use xlink:href="#DejaVuSans-20" x="456.396484"/>
     <use xlink:href="#DejaVuSans-31" x="488.183594"/>
     <use xlink:href="#DejaVuSans-30" x="551.806641"/>
     <use xlink:href="#DejaVuSans-2d" x="615.429688"/>
     <use xlink:href="#DejaVuSans-44" x="651.513672"/>
    </g>
   </g>
   <g id="text_7">
    <!-- v2.6.4 -->
    <g style="fill: #808080" transform="translate(214.71875 288.777272) scale(0.1 -0.1)">
     <defs>
      <path id="DejaVuSans-76" d="M 191 3500 
L 800 3500 
L 1894 563 
L 2988 3500 
L 3597 3500 
L 2284 0 
L 1503 0 
L 191 3500 
z
" transform="scale(0.015625)"/>
      <path id="DejaVuSans-2e" d="M 684 794 
L 1344 794 
L 1344 0 
L 684 0 
L 684 794 
z
" transform="scale(0.015625)"/>
      <path id="DejaVuSans-36" d="M 2113 2584 
Q 1688 2584 1439 2293 
Q 1191 2003 1191 1497 
Q 1191 994 1439 701 
Q 1688 409 2113 409 
Q 2538 409 2786 701 
Q 3034 994 3034 1497 
Q 3034 2003 2786 2293 
Q 2538 2584 2113 2584 
z
M 3366 4563 
L 3366 3988 
Q 3128 4100 2886 4159 
Q 2644 4219 2406 4219 
Q 1781 4219 1451 3797 
Q 1122 3375 1075 2522 
Q 1259 2794 1537 2939 
Q 1816 3084 2150 3084 
Q 2853 3084 3261 2657 
Q 3669 2231 3669 1497 
Q 3669 778 3244 343 
Q 2819 -91 2113 -91 
Q 1303 -91 875 529 
Q 447 1150 447 2328 
Q 447 3434 972 4092 
Q 1497 4750 2381 4750 
Q 2619 4750 2861 4703 
Q 3103 4656 3366 4563 
z
" transform="scale(0.015625)"/>
     </defs>
     <use xlink:href="#DejaVuSans-76"/>
     <use xlink:href="#DejaVuSans-32" x="59.179688"/>
     <use xlink:href="#DejaVuSans-2e" x="122.802734"/>
     <use xlink:href="#DejaVuSans-36" x="154.589844"/>
     <use xlink:href="#DejaVuSans-2e" x="218.212891"/>
     <use xlink:href="#DejaVuSans-34" x="250"/>
    </g>
   </g>
  </g>
 </g>
 <defs>
  <clipPath id="p5099a7f88c">
   <rect x="0" y="3.456" width="460.8" height="290.304"/>
  </clipPath>
 </defs>
</svg>
