<?xml version="1.0" encoding="utf-8" standalone="no"?>
<!DOCTYPE svg PUBLIC "-//W3C//DTD SVG 1.1//EN"
  "http://www.w3.org/Graphics/SVG/1.1/DTD/svg11.dtd">
<svg xmlns:xlink="http://www.w3.org/1999/xlink" width="460.8pt" height="345.6pt" viewBox="0 0 460.8 345.6" xmlns="http://www.w3.org/2000/svg" version="1.1">
 <metadata>
  <rdf:RDF xmlns:dc="http://purl.org/dc/elements/1.1/" xmlns:cc="http://creativecommons.org/ns#" xmlns:rdf="http://www.w3.org/1999/02/22-rdf-syntax-ns#">
   <cc:Work>
    <dc:type rdf:resource="http://purl.org/dc/dcmitype/StillImage"/>
    <dc:date>2024-10-07T17:44:40.424670</dc:date>
    <dc:format>image/svg+xml</dc:format>
    <dc:creator>
     <cc:Agent>
      <dc:title>Matplotlib v3.9.2, https://matplotlib.org/</dc:title>
     </cc:Agent>
    </dc:creator>
   </cc:Work>
  </rdf:RDF>
 </metadata>
 <defs>
  <style type="text/css">*{stroke-linejoin: round; stroke-linecap: butt}</style>
 </defs>
 <g id="figure_1">
  <g id="patch_1">
   <path d="M 0 345.6 
L 460.8 345.6 
L 460.8 0 
L 0 0 
z
" style="fill: #ffffff"/>
  </g>
  <g id="axes_1">
   <g id="patch_2">
    <path d="M 0 293.76 
L 460.8 293.76 
L 460.8 3.456 
L 0 3.456 
z
" style="fill: #ffffff"/>
   </g>
   <g id="matplotlib.axis_1">
    <g id="xtick_1">
     <g id="line2d_1">
      <path d="M 106.410055 293.76 
L 106.410055 3.456 
" clip-path="url(#p4671785e06)" style="fill: none; stroke: #b0b0b0; stroke-width: 0.8; stroke-linecap: square"/>
     </g>
     <g id="line2d_2">
      <defs>
       <path id="mfecd73adb6" d="M 0 0 
L 0 3.5 
" style="stroke: #000000; stroke-width: 0.8"/>
      </defs>
      <g>
       <use xlink:href="#mfecd73adb6" x="106.410055" y="293.76" style="stroke: #000000; stroke-width: 0.8"/>
      </g>
     </g>
     <g id="text_1">
      <!-- -5 -->
      <g transform="translate(96.439743 315.956875) scale(0.2 -0.2)">
       <defs>
        <path id="DejaVuSans-2d" d="M 313 2009 
L 1997 2009 
L 1997 1497 
L 313 1497 
L 313 2009 
z
" transform="scale(0.015625)"/>
        <path id="DejaVuSans-35" d="M 691 4666 
L 3169 4666 
L 3169 4134 
L 1269 4134 
L 1269 2991 
Q 1406 3038 1543 3061 
Q 1681 3084 1819 3084 
Q 2600 3084 3056 2656 
Q 3513 2228 3513 1497 
Q 3513 744 3044 326 
Q 2575 -91 1722 -91 
Q 1428 -91 1123 -41 
Q 819 9 494 109 
L 494 744 
Q 775 591 1075 516 
Q 1375 441 1709 441 
Q 2250 441 2565 725 
Q 2881 1009 2881 1497 
Q 2881 1984 2565 2268 
Q 2250 2553 1709 2553 
Q 1456 2553 1204 2497 
Q 953 2441 691 2322 
L 691 4666 
z
" transform="scale(0.015625)"/>
       </defs>
       <use xlink:href="#DejaVuSans-2d"/>
       <use xlink:href="#DejaVuSans-35" x="36.083984"/>
      </g>
     </g>
    </g>
    <g id="xtick_2">
     <g id="line2d_3">
      <path d="M 212.97361 293.76 
L 212.97361 3.456 
" clip-path="url(#p4671785e06)" style="fill: none; stroke: #b0b0b0; stroke-width: 0.8; stroke-linecap: square"/>
     </g>
     <g id="line2d_4">
      <g>
       <use xlink:href="#mfecd73adb6" x="212.97361" y="293.76" style="stroke: #000000; stroke-width: 0.8"/>
      </g>
     </g>
     <g id="text_2">
      <!-- -2 -->
      <g transform="translate(203.003298 315.956875) scale(0.2 -0.2)">
       <defs>
        <path id="DejaVuSans-32" d="M 1228 531 
L 3431 531 
L 3431 0 
L 469 0 
L 469 531 
Q 828 903 1448 1529 
Q 2069 2156 2228 2338 
Q 2531 2678 2651 2914 
Q 2772 3150 2772 3378 
Q 2772 3750 2511 3984 
Q 2250 4219 1831 4219 
Q 1534 4219 1204 4116 
Q 875 4013 500 3803 
L 500 4441 
Q 881 4594 1212 4672 
Q 1544 4750 1819 4750 
Q 2544 4750 2975 4387 
Q 3406 4025 3406 3419 
Q 3406 3131 3298 2873 
Q 3191 2616 2906 2266 
Q 2828 2175 2409 1742 
Q 1991 1309 1228 531 
z
" transform="scale(0.015625)"/>
       </defs>
       <use xlink:href="#DejaVuSans-2d"/>
       <use xlink:href="#DejaVuSans-32" x="36.083984"/>
      </g>
     </g>
    </g>
    <g id="xtick_3">
     <g id="line2d_5">
      <path d="M 319.537166 293.76 
L 319.537166 3.456 
" clip-path="url(#p4671785e06)" style="fill: none; stroke: #b0b0b0; stroke-width: 0.8; stroke-linecap: square"/>
     </g>
     <g id="line2d_6">
      <g>
       <use xlink:href="#mfecd73adb6" x="319.537166" y="293.76" style="stroke: #000000; stroke-width: 0.8"/>
      </g>
     </g>
     <g id="text_3">
      <!-- 1 -->
      <g transform="translate(313.174666 315.956875) scale(0.2 -0.2)">
       <defs>
        <path id="DejaVuSans-31" d="M 794 531 
L 1825 531 
L 1825 4091 
L 703 3866 
L 703 4441 
L 1819 4666 
L 2450 4666 
L 2450 531 
L 3481 531 
L 3481 0 
L 794 0 
L 794 531 
z
" transform="scale(0.015625)"/>
       </defs>
       <use xlink:href="#DejaVuSans-31"/>
      </g>
     </g>
    </g>
    <g id="xtick_4">
     <g id="line2d_7">
      <path d="M 426.100721 293.76 
L 426.100721 3.456 
" clip-path="url(#p4671785e06)" style="fill: none; stroke: #b0b0b0; stroke-width: 0.8; stroke-linecap: square"/>
     </g>
     <g id="line2d_8">
      <g>
       <use xlink:href="#mfecd73adb6" x="426.100721" y="293.76" style="stroke: #000000; stroke-width: 0.8"/>
      </g>
     </g>
     <g id="text_4">
      <!-- 4 -->
      <g transform="translate(419.738221 315.956875) scale(0.2 -0.2)">
       <defs>
        <path id="DejaVuSans-34" d="M 2419 4116 
L 825 1625 
L 2419 1625 
L 2419 4116 
z
M 2253 4666 
L 3047 4666 
L 3047 1625 
L 3713 1625 
L 3713 1100 
L 3047 1100 
L 3047 0 
L 2419 0 
L 2419 1100 
L 313 1100 
L 313 1709 
L 2253 4666 
z
" transform="scale(0.015625)"/>
       </defs>
       <use xlink:href="#DejaVuSans-34"/>
      </g>
     </g>
    </g>
    <g id="text_5">
     <!-- log10 of Df -->
     <g transform="translate(175.214063 339.313125) scale(0.2 -0.2)">
      <defs>
       <path id="DejaVuSans-6c" d="M 603 4863 
L 1178 4863 
L 1178 0 
L 603 0 
L 603 4863 
z
" transform="scale(0.015625)"/>
       <path id="DejaVuSans-6f" d="M 1959 3097 
Q 1497 3097 1228 2736 
Q 959 2375 959 1747 
Q 959 1119 1226 758 
Q 1494 397 1959 397 
Q 2419 397 2687 759 
Q 2956 1122 2956 1747 
Q 2956 2369 2687 2733 
Q 2419 3097 1959 3097 
z
M 1959 3584 
Q 2709 3584 3137 3096 
Q 3566 2609 3566 1747 
Q 3566 888 3137 398 
Q 2709 -91 1959 -91 
Q 1206 -91 779 398 
Q 353 888 353 1747 
Q 353 2609 779 3096 
Q 1206 3584 1959 3584 
z
" transform="scale(0.015625)"/>
       <path id="DejaVuSans-67" d="M 2906 1791 
Q 2906 2416 2648 2759 
Q 2391 3103 1925 3103 
Q 1463 3103 1205 2759 
Q 947 2416 947 1791 
Q 947 1169 1205 825 
Q 1463 481 1925 481 
Q 2391 481 2648 825 
Q 2906 1169 2906 1791 
z
M 3481 434 
Q 3481 -459 3084 -895 
Q 2688 -1331 1869 -1331 
Q 1566 -1331 1297 -1286 
Q 1028 -1241 775 -1147 
L 775 -588 
Q 1028 -725 1275 -790 
Q 1522 -856 1778 -856 
Q 2344 -856 2625 -561 
Q 2906 -266 2906 331 
L 2906 616 
Q 2728 306 2450 153 
Q 2172 0 1784 0 
Q 1141 0 747 490 
Q 353 981 353 1791 
Q 353 2603 747 3093 
Q 1141 3584 1784 3584 
Q 2172 3584 2450 3431 
Q 2728 3278 2906 2969 
L 2906 3500 
L 3481 3500 
L 3481 434 
z
" transform="scale(0.015625)"/>
       <path id="DejaVuSans-30" d="M 2034 4250 
Q 1547 4250 1301 3770 
Q 1056 3291 1056 2328 
Q 1056 1369 1301 889 
Q 1547 409 2034 409 
Q 2525 409 2770 889 
Q 3016 1369 3016 2328 
Q 3016 3291 2770 3770 
Q 2525 4250 2034 4250 
z
M 2034 4750 
Q 2819 4750 3233 4129 
Q 3647 3509 3647 2328 
Q 3647 1150 3233 529 
Q 2819 -91 2034 -91 
Q 1250 -91 836 529 
Q 422 1150 422 2328 
Q 422 3509 836 4129 
Q 1250 4750 2034 4750 
z
" transform="scale(0.015625)"/>
       <path id="DejaVuSans-20" transform="scale(0.015625)"/>
       <path id="DejaVuSans-66" d="M 2375 4863 
L 2375 4384 
L 1825 4384 
Q 1516 4384 1395 4259 
Q 1275 4134 1275 3809 
L 1275 3500 
L 2222 3500 
L 2222 3053 
L 1275 3053 
L 1275 0 
L 697 0 
L 697 3053 
L 147 3053 
L 147 3500 
L 697 3500 
L 697 3744 
Q 697 4328 969 4595 
Q 1241 4863 1831 4863 
L 2375 4863 
z
" transform="scale(0.015625)"/>
       <path id="DejaVuSans-44" d="M 1259 4147 
L 1259 519 
L 2022 519 
Q 2988 519 3436 956 
Q 3884 1394 3884 2338 
Q 3884 3275 3436 3711 
Q 2988 4147 2022 4147 
L 1259 4147 
z
M 628 4666 
L 1925 4666 
Q 3281 4666 3915 4102 
Q 4550 3538 4550 2338 
Q 4550 1131 3912 565 
Q 3275 0 1925 0 
L 628 0 
L 628 4666 
z
" transform="scale(0.015625)"/>
      </defs>
      <use xlink:href="#DejaVuSans-6c"/>
      <use xlink:href="#DejaVuSans-6f" x="27.783203"/>
      <use xlink:href="#DejaVuSans-67" x="88.964844"/>
      <use xlink:href="#DejaVuSans-31" x="152.441406"/>
      <use xlink:href="#DejaVuSans-30" x="216.064453"/>
      <use xlink:href="#DejaVuSans-20" x="279.6875"/>
      <use xlink:href="#DejaVuSans-6f" x="311.474609"/>
      <use xlink:href="#DejaVuSans-66" x="372.65625"/>
      <use xlink:href="#DejaVuSans-20" x="407.861328"/>
      <use xlink:href="#DejaVuSans-44" x="439.648438"/>
      <use xlink:href="#DejaVuSans-66" x="516.650391"/>
     </g>
    </g>
   </g>
   <g id="matplotlib.axis_2">
    <g id="ytick_1">
     <g id="line2d_9">
      <path d="M 0 293.76 
L 460.8 293.76 
" clip-path="url(#p4671785e06)" style="fill: none; stroke: #b0b0b0; stroke-width: 0.8; stroke-linecap: square"/>
     </g>
     <g id="line2d_10">
      <defs>
       <path id="m4a256dba66" d="M 0 0 
L -3.5 0 
" style="stroke: #000000; stroke-width: 0.8"/>
      </defs>
      <g>
       <use xlink:href="#m4a256dba66" x="0" y="293.76" style="stroke: #000000; stroke-width: 0.8"/>
      </g>
     </g>
    </g>
    <g id="ytick_2">
     <g id="line2d_11">
      <path d="M 0 236.274059 
L 460.8 236.274059 
" clip-path="url(#p4671785e06)" style="fill: none; stroke: #b0b0b0; stroke-width: 0.8; stroke-linecap: square"/>
     </g>
     <g id="line2d_12">
      <g>
       <use xlink:href="#m4a256dba66" x="0" y="236.274059" style="stroke: #000000; stroke-width: 0.8"/>
      </g>
     </g>
    </g>
    <g id="ytick_3">
     <g id="line2d_13">
      <path d="M 0 178.788119 
L 460.8 178.788119 
" clip-path="url(#p4671785e06)" style="fill: none; stroke: #b0b0b0; stroke-width: 0.8; stroke-linecap: square"/>
     </g>
     <g id="line2d_14">
      <g>
       <use xlink:href="#m4a256dba66" x="0" y="178.788119" style="stroke: #000000; stroke-width: 0.8"/>
      </g>
     </g>
    </g>
    <g id="ytick_4">
     <g id="line2d_15">
      <path d="M 0 121.302178 
L 460.8 121.302178 
" clip-path="url(#p4671785e06)" style="fill: none; stroke: #b0b0b0; stroke-width: 0.8; stroke-linecap: square"/>
     </g>
     <g id="line2d_16">
      <g>
       <use xlink:href="#m4a256dba66" x="0" y="121.302178" style="stroke: #000000; stroke-width: 0.8"/>
      </g>
     </g>
    </g>
    <g id="ytick_5">
     <g id="line2d_17">
      <path d="M 0 63.816238 
L 460.8 63.816238 
" clip-path="url(#p4671785e06)" style="fill: none; stroke: #b0b0b0; stroke-width: 0.8; stroke-linecap: square"/>
     </g>
     <g id="line2d_18">
      <g>
       <use xlink:href="#m4a256dba66" x="0" y="63.816238" style="stroke: #000000; stroke-width: 0.8"/>
      </g>
     </g>
    </g>
    <g id="ytick_6">
     <g id="line2d_19">
      <path d="M 0 6.330297 
L 460.8 6.330297 
" clip-path="url(#p4671785e06)" style="fill: none; stroke: #b0b0b0; stroke-width: 0.8; stroke-linecap: square"/>
     </g>
     <g id="line2d_20">
      <g>
       <use xlink:href="#m4a256dba66" x="0" y="6.330297" style="stroke: #000000; stroke-width: 0.8"/>
      </g>
     </g>
    </g>
   </g>
   <g id="line2d_21">
    <path d="M 296.873956 293.76 
L 296.873956 289.927604 
L 297.884406 289.927604 
L 297.884406 286.095208 
L 300.682473 286.095208 
L 300.682473 282.262812 
L 300.969099 282.262812 
L 300.969099 278.430416 
L 304.304575 278.430416 
L 304.304575 274.59802 
L 308.638966 274.59802 
L 308.638966 270.765624 
L 311.177882 270.765624 
L 311.177882 266.933228 
L 313.652486 266.933228 
L 313.652486 263.100832 
L 318.06638 263.100832 
L 318.06638 259.268436 
L 318.557803 259.268436 
L 318.557803 255.43604 
L 321.598527 255.43604 
L 321.598527 251.603644 
L 322.029116 251.603644 
L 322.029116 247.771248 
L 337.392519 247.771248 
L 337.392519 243.938851 
L 338.173382 243.938851 
L 338.173382 240.106455 
L 339.838323 240.106455 
L 339.838323 236.274059 
L 340.557903 236.274059 
L 340.557903 232.441663 
L 340.6794 232.441663 
L 340.6794 228.609267 
L 341.516537 228.609267 
L 341.516537 224.776871 
L 342.190323 224.776871 
L 342.190323 220.944475 
L 342.719247 220.944475 
L 342.806876 213.279683 
L 343.765769 213.279683 
L 343.776024 205.614891 
L 344.270358 205.614891 
L 344.270358 201.782495 
L 348.296597 201.782495 
L 348.296597 197.950099 
L 348.493269 197.950099 
L 348.493269 194.117703 
L 350.594109 194.117703 
L 350.594109 190.285307 
L 354.146613 190.285307 
L 354.146613 186.452911 
L 359.480378 186.452911 
L 359.480378 182.620515 
L 362.613452 182.620515 
L 362.613452 178.788119 
L 365.943307 178.788119 
L 365.943307 174.955723 
L 367.329303 174.955723 
L 367.358751 167.290931 
L 367.981047 167.290931 
L 367.981047 163.458535 
L 368.11866 163.458535 
L 368.194683 155.793743 
L 368.912056 155.793743 
L 368.912056 151.961347 
L 369.420812 151.961347 
L 369.420812 148.12895 
L 369.538814 148.12895 
L 369.538814 144.296554 
L 369.781947 144.296554 
L 369.868748 136.631762 
L 369.997915 136.631762 
L 370.038082 128.96697 
L 370.62428 128.96697 
L 370.62428 125.134574 
L 371.067943 125.134574 
L 371.067943 121.302178 
L 403.727616 121.302178 
L 403.727616 117.469782 
L 404.920186 117.469782 
L 404.920186 113.637386 
L 408.302264 113.637386 
L 408.302264 109.80499 
L 412.869345 109.80499 
L 412.869345 105.972594 
L 414.163585 105.972594 
L 414.163585 102.140198 
L 414.468003 102.140198 
L 414.468003 98.307802 
L 414.674985 98.307802 
L 414.674985 94.475406 
L 415.193365 94.475406 
L 415.193365 90.64301 
L 415.40841 90.64301 
L 415.40841 86.810614 
L 415.661849 86.810614 
L 415.661849 82.978218 
L 417.645164 82.978218 
L 417.645164 79.145822 
L 417.870748 79.145822 
L 417.870748 75.313426 
L 420.592115 75.313426 
L 420.592115 71.48103 
L 423.192231 71.48103 
L 423.192231 67.648634 
L 425.294829 67.648634 
L 425.294829 63.816238 
L 434.904633 63.816238 
L 434.904633 59.983842 
L 435.42861 59.983842 
L 435.42861 56.151446 
L 436.180802 56.151446 
L 436.180802 52.31905 
L 436.99875 52.31905 
L 436.99875 48.486653 
L 438.633209 48.486653 
L 438.731301 40.821861 
L 439.872161 40.821861 
L 439.872161 36.989465 
L 441.090125 36.989465 
L 441.114097 29.324673 
L 441.202163 29.324673 
L 441.246806 21.659881 
L 442.133039 21.659881 
L 442.227302 10.162693 
L 451.007016 10.162693 
L 451.007016 6.330297 
L 451.007016 6.330297 
L 460.8 6.330297 
L 460.8 6.330297 
" clip-path="url(#p4671785e06)" style="fill: none; stroke: #ff0000; stroke-width: 3; stroke-linecap: square"/>
   </g>
   <g id="line2d_22">
    <path d="M 328.869081 293.76 
L 328.869081 289.927604 
L 334.684182 289.927604 
L 334.684182 286.095208 
L 337.567832 286.095208 
L 337.567832 282.262812 
L 340.3649 282.262812 
L 340.3649 278.430416 
L 344.307888 278.430416 
L 344.307888 274.59802 
L 345.832958 274.59802 
L 345.921911 266.933228 
L 347.365736 266.933228 
L 347.365736 263.100832 
L 348.986304 263.100832 
L 348.986304 259.268436 
L 349.119207 259.268436 
L 349.119207 255.43604 
L 349.283224 255.43604 
L 349.283224 251.603644 
L 349.701377 251.603644 
L 349.738638 243.938851 
L 350.308528 243.938851 
L 350.308528 240.106455 
L 350.882273 240.106455 
L 350.882273 236.274059 
L 352.003692 236.274059 
L 352.003692 232.441663 
L 353.652407 232.441663 
L 353.652407 228.609267 
L 354.865539 228.609267 
L 354.865539 224.776871 
L 355.063013 224.776871 
L 355.063013 220.944475 
L 358.059159 220.944475 
L 358.059159 217.112079 
L 359.480378 217.112079 
L 359.480378 213.279683 
L 362.901328 213.279683 
L 362.901328 209.447287 
L 367.329303 209.447287 
L 367.329303 205.614891 
L 369.164522 205.614891 
L 369.164522 201.782495 
L 369.490533 201.782495 
L 369.490533 197.950099 
L 370.151739 197.950099 
L 370.180718 190.285307 
L 370.433197 190.285307 
L 370.433197 186.452911 
L 371.060434 186.452911 
L 371.060434 182.620515 
L 371.599166 182.620515 
L 371.695493 171.123327 
L 371.76319 171.123327 
L 371.76319 167.290931 
L 372.429469 167.290931 
L 372.429469 163.458535 
L 373.134896 163.458535 
L 373.134896 159.626139 
L 373.297861 159.626139 
L 373.297861 155.793743 
L 373.582681 155.793743 
L 373.582681 151.961347 
L 380.469294 151.961347 
L 380.469294 148.12895 
L 388.310409 148.12895 
L 388.310409 144.296554 
L 390.801356 144.296554 
L 390.801356 140.464158 
L 391.886588 140.464158 
L 391.886588 136.631762 
L 396.448592 136.631762 
L 396.448592 132.799366 
L 408.467863 132.799366 
L 408.467863 128.96697 
L 415.661849 128.96697 
L 415.661849 125.134574 
L 416.340553 125.134574 
L 416.340553 121.302178 
L 417.645164 121.302178 
L 417.645164 117.469782 
L 418.602435 117.469782 
L 418.602435 113.637386 
L 419.187786 113.637386 
L 419.278622 105.972594 
L 421.316871 105.972594 
L 421.316871 102.140198 
L 421.770885 102.140198 
L 421.770885 98.307802 
L 422.251707 98.307802 
L 422.251707 94.475406 
L 425.392848 94.475406 
L 425.392848 90.64301 
L 426.522287 90.64301 
L 426.522287 86.810614 
L 429.360602 86.810614 
L 429.419486 79.145822 
L 431.714081 79.145822 
L 431.714081 75.313426 
L 432.070178 75.313426 
L 432.070178 71.48103 
L 436.071196 71.48103 
L 436.071196 67.648634 
L 436.867902 67.648634 
L 436.867902 63.816238 
L 436.99875 63.816238 
L 436.99875 59.983842 
L 438.731301 59.983842 
L 438.731301 56.151446 
L 440.694253 56.151446 
L 440.694253 52.31905 
L 442.649838 52.31905 
L 442.662114 44.654257 
L 443.103514 44.654257 
L 443.103514 40.821861 
L 444.038543 40.821861 
L 444.038543 36.989465 
L 446.540236 36.989465 
L 446.540236 33.157069 
L 446.666297 33.157069 
L 446.666297 29.324673 
L 446.897042 29.324673 
L 446.897042 25.492277 
L 448.304925 25.492277 
L 448.304925 21.659881 
L 449.464066 21.659881 
L 449.464066 17.827485 
L 449.785074 17.827485 
L 449.785074 13.995089 
L 449.945953 13.995089 
L 449.945953 10.162693 
L 452.993998 10.162693 
L 452.993998 6.330297 
L 452.993998 6.330297 
L 460.8 6.330297 
L 460.8 6.330297 
" clip-path="url(#p4671785e06)" style="fill: none; stroke: #00bfbf; stroke-width: 1.5; stroke-linecap: square"/>
   </g>
   <g id="line2d_23">
    <path d="M 300.969099 293.76 
L 300.969099 289.927604 
L 304.304575 289.927604 
L 304.304575 286.095208 
L 312.509296 286.095208 
L 312.509296 282.262812 
L 316.901608 282.262812 
L 316.901608 278.430416 
L 318.06638 278.430416 
L 318.06638 274.59802 
L 322.009524 274.59802 
L 322.009524 270.765624 
L 323.296058 270.765624 
L 323.296058 266.933228 
L 340.130282 266.933228 
L 340.130282 263.100832 
L 340.3649 263.100832 
L 340.3649 259.268436 
L 340.557903 259.268436 
L 340.557903 255.43604 
L 343.213625 255.43604 
L 343.213625 251.603644 
L 343.971655 251.603644 
L 343.971655 247.771248 
L 344.307888 247.771248 
L 344.307888 243.938851 
L 345.659885 243.938851 
L 345.659885 240.106455 
L 347.130598 240.106455 
L 347.130598 236.274059 
L 348.057198 236.274059 
L 348.057198 232.441663 
L 348.210532 232.441663 
L 348.210532 228.609267 
L 348.359301 228.609267 
L 348.364548 220.944475 
L 348.62525 220.944475 
L 348.62525 217.112079 
L 352.003692 217.112079 
L 352.003692 213.279683 
L 353.473746 213.279683 
L 353.473746 209.447287 
L 358.059159 209.447287 
L 358.059159 205.614891 
L 358.341736 205.614891 
L 358.341736 201.782495 
L 359.480378 201.782495 
L 359.480378 197.950099 
L 367.329303 197.950099 
L 367.329303 194.117703 
L 368.11866 194.117703 
L 368.11866 190.285307 
L 369.391681 190.285307 
L 369.490533 182.620515 
L 369.576981 182.620515 
L 369.576981 178.788119 
L 369.941486 178.788119 
L 369.941486 174.955723 
L 370.180718 174.955723 
L 370.180718 171.123327 
L 370.387521 171.123327 
L 370.387521 167.290931 
L 370.62428 167.290931 
L 370.672697 159.626139 
L 370.819043 159.626139 
L 370.919396 151.961347 
L 371.067943 151.961347 
L 371.067943 148.12895 
L 371.353536 148.12895 
L 371.353536 144.296554 
L 371.76319 144.296554 
L 371.76319 140.464158 
L 373.910199 140.464158 
L 373.910199 136.631762 
L 376.662228 136.631762 
L 376.662228 132.799366 
L 389.681053 132.799366 
L 389.681053 128.96697 
L 396.448592 128.96697 
L 396.448592 125.134574 
L 414.793276 125.134574 
L 414.793276 121.302178 
L 415.661849 121.302178 
L 415.661849 117.469782 
L 416.018612 117.469782 
L 416.122243 109.80499 
L 416.340553 109.80499 
L 416.340553 105.972594 
L 417.645164 105.972594 
L 417.645164 102.140198 
L 419.278622 102.140198 
L 419.278622 98.307802 
L 419.996565 98.307802 
L 419.996565 94.475406 
L 420.109663 94.475406 
L 420.109663 90.64301 
L 422.251707 90.64301 
L 422.251707 86.810614 
L 425.392848 86.810614 
L 425.392848 82.978218 
L 425.510042 82.978218 
L 425.510042 79.145822 
L 429.018939 79.145822 
L 429.018939 75.313426 
L 429.360602 75.313426 
L 429.360602 71.48103 
L 431.714081 71.48103 
L 431.714081 67.648634 
L 432.070178 67.648634 
L 432.070178 63.816238 
L 436.99875 63.816238 
L 436.99875 59.983842 
L 438.731301 59.983842 
L 438.731301 56.151446 
L 438.899737 56.151446 
L 438.899737 52.31905 
L 440.640611 52.31905 
L 440.640611 48.486653 
L 442.209511 48.486653 
L 442.253672 40.821861 
L 442.649838 40.821861 
L 442.649838 36.989465 
L 443.489244 36.989465 
L 443.489244 33.157069 
L 444.038543 33.157069 
L 444.041476 25.492277 
L 444.253988 25.492277 
L 444.362972 17.827485 
L 446.094204 17.827485 
L 446.094204 13.995089 
L 448.304925 13.995089 
L 448.304925 10.162693 
L 452.215788 10.162693 
L 452.215788 6.330297 
L 452.215788 6.330297 
L 460.8 6.330297 
L 460.8 6.330297 
" clip-path="url(#p4671785e06)" style="fill: none; stroke: #bf00bf; stroke-width: 1.5; stroke-linecap: square"/>
   </g>
   <g id="line2d_24">
    <path d="M 297.884406 293.76 
L 297.884406 289.927604 
L 300.969099 289.927604 
L 300.969099 286.095208 
L 304.304575 286.095208 
L 304.304575 282.262812 
L 308.638966 282.262812 
L 308.638966 278.430416 
L 311.177882 278.430416 
L 311.177882 274.59802 
L 312.509296 274.59802 
L 312.509296 270.765624 
L 316.901608 270.765624 
L 316.901608 266.933228 
L 318.06638 266.933228 
L 318.06638 263.100832 
L 337.392519 263.100832 
L 337.392519 259.268436 
L 338.062971 259.268436 
L 338.062971 255.43604 
L 339.838323 255.43604 
L 339.838323 251.603644 
L 340.130282 251.603644 
L 340.130282 247.771248 
L 340.557903 247.771248 
L 340.557903 243.938851 
L 341.258764 243.938851 
L 341.258764 240.106455 
L 341.516537 240.106455 
L 341.516537 236.274059 
L 342.190323 236.274059 
L 342.190323 232.441663 
L 342.806876 232.441663 
L 342.806876 228.609267 
L 343.874032 228.609267 
L 343.971655 220.944475 
L 344.091447 220.944475 
L 344.091447 217.112079 
L 344.215732 217.112079 
L 344.270358 209.447287 
L 348.296597 209.447287 
L 348.296597 205.614891 
L 351.257849 205.614891 
L 351.277005 197.950099 
L 353.247494 197.950099 
L 353.247494 194.117703 
L 354.462305 194.117703 
L 354.462305 190.285307 
L 359.480378 190.285307 
L 359.480378 186.452911 
L 367.329303 186.452911 
L 367.358751 178.788119 
L 367.981047 178.788119 
L 367.981047 174.955723 
L 368.11866 174.955723 
L 368.11866 171.123327 
L 369.391681 171.123327 
L 369.391681 167.290931 
L 369.626062 167.290931 
L 369.626062 163.458535 
L 369.941486 163.458535 
L 369.964455 155.793743 
L 370.366398 155.793743 
L 370.366398 151.961347 
L 370.62428 151.961347 
L 370.686201 140.464158 
L 370.837582 140.464158 
L 370.925741 132.799366 
L 371.067943 132.799366 
L 371.067943 128.96697 
L 376.225973 128.96697 
L 376.225973 125.134574 
L 380.717885 125.134574 
L 380.717885 121.302178 
L 403.727616 121.302178 
L 403.727616 117.469782 
L 404.920186 117.469782 
L 404.920186 113.637386 
L 411.56568 113.637386 
L 411.56568 109.80499 
L 412.869345 109.80499 
L 412.869345 105.972594 
L 414.468003 105.972594 
L 414.468003 102.140198 
L 414.793276 102.140198 
L 414.793276 98.307802 
L 415.661849 98.307802 
L 415.661849 94.475406 
L 415.948826 94.475406 
L 415.948826 90.64301 
L 417.645164 90.64301 
L 417.645164 86.810614 
L 417.870748 86.810614 
L 417.870748 82.978218 
L 419.135148 82.978218 
L 419.135148 79.145822 
L 420.592115 79.145822 
L 420.592115 75.313426 
L 423.192231 75.313426 
L 423.192231 71.48103 
L 425.294829 71.48103 
L 425.294829 67.648634 
L 427.893134 67.648634 
L 427.893134 63.816238 
L 434.904633 63.816238 
L 434.904633 59.983842 
L 436.180802 59.983842 
L 436.180802 56.151446 
L 436.99875 56.151446 
L 436.99875 52.31905 
L 438.633209 52.31905 
L 438.731301 44.654257 
L 439.872161 44.654257 
L 439.872161 40.821861 
L 441.246806 40.821861 
L 441.246806 36.989465 
L 442.214357 36.989465 
L 442.272082 25.492277 
L 443.706852 25.492277 
L 443.706852 21.659881 
L 443.915354 21.659881 
L 443.915354 17.827485 
L 444.038543 17.827485 
L 444.041476 10.162693 
L 452.215788 10.162693 
L 452.215788 6.330297 
L 452.215788 6.330297 
L 460.8 6.330297 
L 460.8 6.330297 
" clip-path="url(#p4671785e06)" style="fill: none; stroke: #000000; stroke-width: 1.5; stroke-linecap: square"/>
   </g>
   <g id="patch_3">
    <path d="M 0 293.76 
L 0 3.456 
" style="fill: none; stroke: #000000; stroke-width: 0.8; stroke-linejoin: miter; stroke-linecap: square"/>
   </g>
   <g id="patch_4">
    <path d="M 460.8 293.76 
L 460.8 3.456 
" style="fill: none; stroke: #000000; stroke-width: 0.8; stroke-linejoin: miter; stroke-linecap: square"/>
   </g>
   <g id="patch_5">
    <path d="M 0 293.76 
L 460.8 293.76 
" style="fill: none; stroke: #000000; stroke-width: 0.8; stroke-linejoin: miter; stroke-linecap: square"/>
   </g>
   <g id="patch_6">
    <path d="M 0 3.456 
L 460.8 3.456 
" style="fill: none; stroke: #000000; stroke-width: 0.8; stroke-linejoin: miter; stroke-linecap: square"/>
   </g>
   <g id="text_6">
    <!-- {f10-f14}, 40-D -->
    <g transform="translate(293.159 287.95392) scale(0.2 -0.2)">
     <defs>
      <path id="DejaVuSans-7b" d="M 3272 -594 
L 3272 -1044 
L 3078 -1044 
Q 2300 -1044 2036 -812 
Q 1772 -581 1772 109 
L 1772 856 
Q 1772 1328 1603 1509 
Q 1434 1691 991 1691 
L 800 1691 
L 800 2138 
L 991 2138 
Q 1438 2138 1605 2317 
Q 1772 2497 1772 2963 
L 1772 3713 
Q 1772 4403 2036 4633 
Q 2300 4863 3078 4863 
L 3272 4863 
L 3272 4416 
L 3059 4416 
Q 2619 4416 2484 4278 
Q 2350 4141 2350 3700 
L 2350 2925 
Q 2350 2434 2208 2212 
Q 2066 1991 1722 1913 
Q 2069 1828 2209 1606 
Q 2350 1384 2350 897 
L 2350 122 
Q 2350 -319 2484 -456 
Q 2619 -594 3059 -594 
L 3272 -594 
z
" transform="scale(0.015625)"/>
      <path id="DejaVuSans-7d" d="M 800 -594 
L 1019 -594 
Q 1456 -594 1589 -459 
Q 1722 -325 1722 122 
L 1722 897 
Q 1722 1384 1862 1606 
Q 2003 1828 2350 1913 
Q 2003 1991 1862 2212 
Q 1722 2434 1722 2925 
L 1722 3700 
Q 1722 4144 1589 4280 
Q 1456 4416 1019 4416 
L 800 4416 
L 800 4863 
L 997 4863 
Q 1775 4863 2036 4633 
Q 2297 4403 2297 3713 
L 2297 2963 
Q 2297 2497 2465 2317 
Q 2634 2138 3078 2138 
L 3272 2138 
L 3272 1691 
L 3078 1691 
Q 2634 1691 2465 1509 
Q 2297 1328 2297 856 
L 2297 109 
Q 2297 -581 2036 -812 
Q 1775 -1044 997 -1044 
L 800 -1044 
L 800 -594 
z
" transform="scale(0.015625)"/>
      <path id="DejaVuSans-2c" d="M 750 794 
L 1409 794 
L 1409 256 
L 897 -744 
L 494 -744 
L 750 256 
L 750 794 
z
" transform="scale(0.015625)"/>
     </defs>
     <use xlink:href="#DejaVuSans-7b"/>
     <use xlink:href="#DejaVuSans-66" x="63.623047"/>
     <use xlink:href="#DejaVuSans-31" x="98.828125"/>
     <use xlink:href="#DejaVuSans-30" x="162.451172"/>
     <use xlink:href="#DejaVuSans-2d" x="226.074219"/>
     <use xlink:href="#DejaVuSans-66" x="262.158203"/>
     <use xlink:href="#DejaVuSans-31" x="297.363281"/>
     <use xlink:href="#DejaVuSans-34" x="360.986328"/>
     <use xlink:href="#DejaVuSans-7d" x="424.609375"/>
     <use xlink:href="#DejaVuSans-2c" x="488.232422"/>
     <use xlink:href="#DejaVuSans-20" x="520.019531"/>
     <use xlink:href="#DejaVuSans-34" x="551.806641"/>
     <use xlink:href="#DejaVuSans-30" x="615.429688"/>
     <use xlink:href="#DejaVuSans-2d" x="679.052734"/>
     <use xlink:href="#DejaVuSans-44" x="715.136719"/>
    </g>
   </g>
   <g id="text_7">
    <!-- v2.6.4 -->
    <g style="fill: #808080" transform="translate(214.71875 288.777272) scale(0.1 -0.1)">
     <defs>
      <path id="DejaVuSans-76" d="M 191 3500 
L 800 3500 
L 1894 563 
L 2988 3500 
L 3597 3500 
L 2284 0 
L 1503 0 
L 191 3500 
z
" transform="scale(0.015625)"/>
      <path id="DejaVuSans-2e" d="M 684 794 
L 1344 794 
L 1344 0 
L 684 0 
L 684 794 
z
" transform="scale(0.015625)"/>
      <path id="DejaVuSans-36" d="M 2113 2584 
Q 1688 2584 1439 2293 
Q 1191 2003 1191 1497 
Q 1191 994 1439 701 
Q 1688 409 2113 409 
Q 2538 409 2786 701 
Q 3034 994 3034 1497 
Q 3034 2003 2786 2293 
Q 2538 2584 2113 2584 
z
M 3366 4563 
L 3366 3988 
Q 3128 4100 2886 4159 
Q 2644 4219 2406 4219 
Q 1781 4219 1451 3797 
Q 1122 3375 1075 2522 
Q 1259 2794 1537 2939 
Q 1816 3084 2150 3084 
Q 2853 3084 3261 2657 
Q 3669 2231 3669 1497 
Q 3669 778 3244 343 
Q 2819 -91 2113 -91 
Q 1303 -91 875 529 
Q 447 1150 447 2328 
Q 447 3434 972 4092 
Q 1497 4750 2381 4750 
Q 2619 4750 2861 4703 
Q 3103 4656 3366 4563 
z
" transform="scale(0.015625)"/>
     </defs>
     <use xlink:href="#DejaVuSans-76"/>
     <use xlink:href="#DejaVuSans-32" x="59.179688"/>
     <use xlink:href="#DejaVuSans-2e" x="122.802734"/>
     <use xlink:href="#DejaVuSans-36" x="154.589844"/>
     <use xlink:href="#DejaVuSans-2e" x="218.212891"/>
     <use xlink:href="#DejaVuSans-34" x="250"/>
    </g>
   </g>
  </g>
 </g>
 <defs>
  <clipPath id="p4671785e06">
   <rect x="0" y="3.456" width="460.8" height="290.304"/>
  </clipPath>
 </defs>
</svg>
