<?xml version="1.0" encoding="utf-8" standalone="no"?>
<!DOCTYPE svg PUBLIC "-//W3C//DTD SVG 1.1//EN"
  "http://www.w3.org/Graphics/SVG/1.1/DTD/svg11.dtd">
<svg xmlns:xlink="http://www.w3.org/1999/xlink" width="460.8pt" height="345.6pt" viewBox="0 0 460.8 345.6" xmlns="http://www.w3.org/2000/svg" version="1.1">
 <metadata>
  <rdf:RDF xmlns:dc="http://purl.org/dc/elements/1.1/" xmlns:cc="http://creativecommons.org/ns#" xmlns:rdf="http://www.w3.org/1999/02/22-rdf-syntax-ns#">
   <cc:Work>
    <dc:type rdf:resource="http://purl.org/dc/dcmitype/StillImage"/>
    <dc:date>2024-10-07T17:44:41.247993</dc:date>
    <dc:format>image/svg+xml</dc:format>
    <dc:creator>
     <cc:Agent>
      <dc:title>Matplotlib v3.9.2, https://matplotlib.org/</dc:title>
     </cc:Agent>
    </dc:creator>
   </cc:Work>
  </rdf:RDF>
 </metadata>
 <defs>
  <style type="text/css">*{stroke-linejoin: round; stroke-linecap: butt}</style>
 </defs>
 <g id="figure_1">
  <g id="patch_1">
   <path d="M 0 345.6 
L 460.8 345.6 
L 460.8 0 
L 0 0 
z
" style="fill: #ffffff"/>
  </g>
  <g id="axes_1">
   <g id="patch_2">
    <path d="M 0 293.76 
L 460.8 293.76 
L 460.8 3.456 
L 0 3.456 
z
" style="fill: #ffffff"/>
   </g>
   <g id="matplotlib.axis_1">
    <g id="xtick_1">
     <g id="line2d_1">
      <path d="M 106.410055 293.76 
L 106.410055 3.456 
" clip-path="url(#p0bd47ab899)" style="fill: none; stroke: #b0b0b0; stroke-width: 0.8; stroke-linecap: square"/>
     </g>
     <g id="line2d_2">
      <defs>
       <path id="mcc9d9cf62b" d="M 0 0 
L 0 3.5 
" style="stroke: #000000; stroke-width: 0.8"/>
      </defs>
      <g>
       <use xlink:href="#mcc9d9cf62b" x="106.410055" y="293.76" style="stroke: #000000; stroke-width: 0.8"/>
      </g>
     </g>
     <g id="text_1">
      <!-- -5 -->
      <g transform="translate(96.439743 315.956875) scale(0.2 -0.2)">
       <defs>
        <path id="DejaVuSans-2d" d="M 313 2009 
L 1997 2009 
L 1997 1497 
L 313 1497 
L 313 2009 
z
" transform="scale(0.015625)"/>
        <path id="DejaVuSans-35" d="M 691 4666 
L 3169 4666 
L 3169 4134 
L 1269 4134 
L 1269 2991 
Q 1406 3038 1543 3061 
Q 1681 3084 1819 3084 
Q 2600 3084 3056 2656 
Q 3513 2228 3513 1497 
Q 3513 744 3044 326 
Q 2575 -91 1722 -91 
Q 1428 -91 1123 -41 
Q 819 9 494 109 
L 494 744 
Q 775 591 1075 516 
Q 1375 441 1709 441 
Q 2250 441 2565 725 
Q 2881 1009 2881 1497 
Q 2881 1984 2565 2268 
Q 2250 2553 1709 2553 
Q 1456 2553 1204 2497 
Q 953 2441 691 2322 
L 691 4666 
z
" transform="scale(0.015625)"/>
       </defs>
       <use xlink:href="#DejaVuSans-2d"/>
       <use xlink:href="#DejaVuSans-35" x="36.083984"/>
      </g>
     </g>
    </g>
    <g id="xtick_2">
     <g id="line2d_3">
      <path d="M 212.97361 293.76 
L 212.97361 3.456 
" clip-path="url(#p0bd47ab899)" style="fill: none; stroke: #b0b0b0; stroke-width: 0.8; stroke-linecap: square"/>
     </g>
     <g id="line2d_4">
      <g>
       <use xlink:href="#mcc9d9cf62b" x="212.97361" y="293.76" style="stroke: #000000; stroke-width: 0.8"/>
      </g>
     </g>
     <g id="text_2">
      <!-- -2 -->
      <g transform="translate(203.003298 315.956875) scale(0.2 -0.2)">
       <defs>
        <path id="DejaVuSans-32" d="M 1228 531 
L 3431 531 
L 3431 0 
L 469 0 
L 469 531 
Q 828 903 1448 1529 
Q 2069 2156 2228 2338 
Q 2531 2678 2651 2914 
Q 2772 3150 2772 3378 
Q 2772 3750 2511 3984 
Q 2250 4219 1831 4219 
Q 1534 4219 1204 4116 
Q 875 4013 500 3803 
L 500 4441 
Q 881 4594 1212 4672 
Q 1544 4750 1819 4750 
Q 2544 4750 2975 4387 
Q 3406 4025 3406 3419 
Q 3406 3131 3298 2873 
Q 3191 2616 2906 2266 
Q 2828 2175 2409 1742 
Q 1991 1309 1228 531 
z
" transform="scale(0.015625)"/>
       </defs>
       <use xlink:href="#DejaVuSans-2d"/>
       <use xlink:href="#DejaVuSans-32" x="36.083984"/>
      </g>
     </g>
    </g>
    <g id="xtick_3">
     <g id="line2d_5">
      <path d="M 319.537166 293.76 
L 319.537166 3.456 
" clip-path="url(#p0bd47ab899)" style="fill: none; stroke: #b0b0b0; stroke-width: 0.8; stroke-linecap: square"/>
     </g>
     <g id="line2d_6">
      <g>
       <use xlink:href="#mcc9d9cf62b" x="319.537166" y="293.76" style="stroke: #000000; stroke-width: 0.8"/>
      </g>
     </g>
     <g id="text_3">
      <!-- 1 -->
      <g transform="translate(313.174666 315.956875) scale(0.2 -0.2)">
       <defs>
        <path id="DejaVuSans-31" d="M 794 531 
L 1825 531 
L 1825 4091 
L 703 3866 
L 703 4441 
L 1819 4666 
L 2450 4666 
L 2450 531 
L 3481 531 
L 3481 0 
L 794 0 
L 794 531 
z
" transform="scale(0.015625)"/>
       </defs>
       <use xlink:href="#DejaVuSans-31"/>
      </g>
     </g>
    </g>
    <g id="xtick_4">
     <g id="line2d_7">
      <path d="M 426.100721 293.76 
L 426.100721 3.456 
" clip-path="url(#p0bd47ab899)" style="fill: none; stroke: #b0b0b0; stroke-width: 0.8; stroke-linecap: square"/>
     </g>
     <g id="line2d_8">
      <g>
       <use xlink:href="#mcc9d9cf62b" x="426.100721" y="293.76" style="stroke: #000000; stroke-width: 0.8"/>
      </g>
     </g>
     <g id="text_4">
      <!-- 4 -->
      <g transform="translate(419.738221 315.956875) scale(0.2 -0.2)">
       <defs>
        <path id="DejaVuSans-34" d="M 2419 4116 
L 825 1625 
L 2419 1625 
L 2419 4116 
z
M 2253 4666 
L 3047 4666 
L 3047 1625 
L 3713 1625 
L 3713 1100 
L 3047 1100 
L 3047 0 
L 2419 0 
L 2419 1100 
L 313 1100 
L 313 1709 
L 2253 4666 
z
" transform="scale(0.015625)"/>
       </defs>
       <use xlink:href="#DejaVuSans-34"/>
      </g>
     </g>
    </g>
    <g id="text_5">
     <!-- log10 of Df -->
     <g transform="translate(175.214063 339.313125) scale(0.2 -0.2)">
      <defs>
       <path id="DejaVuSans-6c" d="M 603 4863 
L 1178 4863 
L 1178 0 
L 603 0 
L 603 4863 
z
" transform="scale(0.015625)"/>
       <path id="DejaVuSans-6f" d="M 1959 3097 
Q 1497 3097 1228 2736 
Q 959 2375 959 1747 
Q 959 1119 1226 758 
Q 1494 397 1959 397 
Q 2419 397 2687 759 
Q 2956 1122 2956 1747 
Q 2956 2369 2687 2733 
Q 2419 3097 1959 3097 
z
M 1959 3584 
Q 2709 3584 3137 3096 
Q 3566 2609 3566 1747 
Q 3566 888 3137 398 
Q 2709 -91 1959 -91 
Q 1206 -91 779 398 
Q 353 888 353 1747 
Q 353 2609 779 3096 
Q 1206 3584 1959 3584 
z
" transform="scale(0.015625)"/>
       <path id="DejaVuSans-67" d="M 2906 1791 
Q 2906 2416 2648 2759 
Q 2391 3103 1925 3103 
Q 1463 3103 1205 2759 
Q 947 2416 947 1791 
Q 947 1169 1205 825 
Q 1463 481 1925 481 
Q 2391 481 2648 825 
Q 2906 1169 2906 1791 
z
M 3481 434 
Q 3481 -459 3084 -895 
Q 2688 -1331 1869 -1331 
Q 1566 -1331 1297 -1286 
Q 1028 -1241 775 -1147 
L 775 -588 
Q 1028 -725 1275 -790 
Q 1522 -856 1778 -856 
Q 2344 -856 2625 -561 
Q 2906 -266 2906 331 
L 2906 616 
Q 2728 306 2450 153 
Q 2172 0 1784 0 
Q 1141 0 747 490 
Q 353 981 353 1791 
Q 353 2603 747 3093 
Q 1141 3584 1784 3584 
Q 2172 3584 2450 3431 
Q 2728 3278 2906 2969 
L 2906 3500 
L 3481 3500 
L 3481 434 
z
" transform="scale(0.015625)"/>
       <path id="DejaVuSans-30" d="M 2034 4250 
Q 1547 4250 1301 3770 
Q 1056 3291 1056 2328 
Q 1056 1369 1301 889 
Q 1547 409 2034 409 
Q 2525 409 2770 889 
Q 3016 1369 3016 2328 
Q 3016 3291 2770 3770 
Q 2525 4250 2034 4250 
z
M 2034 4750 
Q 2819 4750 3233 4129 
Q 3647 3509 3647 2328 
Q 3647 1150 3233 529 
Q 2819 -91 2034 -91 
Q 1250 -91 836 529 
Q 422 1150 422 2328 
Q 422 3509 836 4129 
Q 1250 4750 2034 4750 
z
" transform="scale(0.015625)"/>
       <path id="DejaVuSans-20" transform="scale(0.015625)"/>
       <path id="DejaVuSans-66" d="M 2375 4863 
L 2375 4384 
L 1825 4384 
Q 1516 4384 1395 4259 
Q 1275 4134 1275 3809 
L 1275 3500 
L 2222 3500 
L 2222 3053 
L 1275 3053 
L 1275 0 
L 697 0 
L 697 3053 
L 147 3053 
L 147 3500 
L 697 3500 
L 697 3744 
Q 697 4328 969 4595 
Q 1241 4863 1831 4863 
L 2375 4863 
z
" transform="scale(0.015625)"/>
       <path id="DejaVuSans-44" d="M 1259 4147 
L 1259 519 
L 2022 519 
Q 2988 519 3436 956 
Q 3884 1394 3884 2338 
Q 3884 3275 3436 3711 
Q 2988 4147 2022 4147 
L 1259 4147 
z
M 628 4666 
L 1925 4666 
Q 3281 4666 3915 4102 
Q 4550 3538 4550 2338 
Q 4550 1131 3912 565 
Q 3275 0 1925 0 
L 628 0 
L 628 4666 
z
" transform="scale(0.015625)"/>
      </defs>
      <use xlink:href="#DejaVuSans-6c"/>
      <use xlink:href="#DejaVuSans-6f" x="27.783203"/>
      <use xlink:href="#DejaVuSans-67" x="88.964844"/>
      <use xlink:href="#DejaVuSans-31" x="152.441406"/>
      <use xlink:href="#DejaVuSans-30" x="216.064453"/>
      <use xlink:href="#DejaVuSans-20" x="279.6875"/>
      <use xlink:href="#DejaVuSans-6f" x="311.474609"/>
      <use xlink:href="#DejaVuSans-66" x="372.65625"/>
      <use xlink:href="#DejaVuSans-20" x="407.861328"/>
      <use xlink:href="#DejaVuSans-44" x="439.648438"/>
      <use xlink:href="#DejaVuSans-66" x="516.650391"/>
     </g>
    </g>
   </g>
   <g id="matplotlib.axis_2">
    <g id="ytick_1">
     <g id="line2d_9">
      <path d="M 0 293.76 
L 460.8 293.76 
" clip-path="url(#p0bd47ab899)" style="fill: none; stroke: #b0b0b0; stroke-width: 0.8; stroke-linecap: square"/>
     </g>
     <g id="line2d_10">
      <defs>
       <path id="m1aadbf9a0f" d="M 0 0 
L -3.5 0 
" style="stroke: #000000; stroke-width: 0.8"/>
      </defs>
      <g>
       <use xlink:href="#m1aadbf9a0f" x="0" y="293.76" style="stroke: #000000; stroke-width: 0.8"/>
      </g>
     </g>
    </g>
    <g id="ytick_2">
     <g id="line2d_11">
      <path d="M 0 236.274059 
L 460.8 236.274059 
" clip-path="url(#p0bd47ab899)" style="fill: none; stroke: #b0b0b0; stroke-width: 0.8; stroke-linecap: square"/>
     </g>
     <g id="line2d_12">
      <g>
       <use xlink:href="#m1aadbf9a0f" x="0" y="236.274059" style="stroke: #000000; stroke-width: 0.8"/>
      </g>
     </g>
    </g>
    <g id="ytick_3">
     <g id="line2d_13">
      <path d="M 0 178.788119 
L 460.8 178.788119 
" clip-path="url(#p0bd47ab899)" style="fill: none; stroke: #b0b0b0; stroke-width: 0.8; stroke-linecap: square"/>
     </g>
     <g id="line2d_14">
      <g>
       <use xlink:href="#m1aadbf9a0f" x="0" y="178.788119" style="stroke: #000000; stroke-width: 0.8"/>
      </g>
     </g>
    </g>
    <g id="ytick_4">
     <g id="line2d_15">
      <path d="M 0 121.302178 
L 460.8 121.302178 
" clip-path="url(#p0bd47ab899)" style="fill: none; stroke: #b0b0b0; stroke-width: 0.8; stroke-linecap: square"/>
     </g>
     <g id="line2d_16">
      <g>
       <use xlink:href="#m1aadbf9a0f" x="0" y="121.302178" style="stroke: #000000; stroke-width: 0.8"/>
      </g>
     </g>
    </g>
    <g id="ytick_5">
     <g id="line2d_17">
      <path d="M 0 63.816238 
L 460.8 63.816238 
" clip-path="url(#p0bd47ab899)" style="fill: none; stroke: #b0b0b0; stroke-width: 0.8; stroke-linecap: square"/>
     </g>
     <g id="line2d_18">
      <g>
       <use xlink:href="#m1aadbf9a0f" x="0" y="63.816238" style="stroke: #000000; stroke-width: 0.8"/>
      </g>
     </g>
    </g>
    <g id="ytick_6">
     <g id="line2d_19">
      <path d="M 0 6.330297 
L 460.8 6.330297 
" clip-path="url(#p0bd47ab899)" style="fill: none; stroke: #b0b0b0; stroke-width: 0.8; stroke-linecap: square"/>
     </g>
     <g id="line2d_20">
      <g>
       <use xlink:href="#m1aadbf9a0f" x="0" y="6.330297" style="stroke: #000000; stroke-width: 0.8"/>
      </g>
     </g>
    </g>
   </g>
   <g id="line2d_21">
    <path d="M 339.061071 293.76 
L 339.061071 289.927604 
L 339.82983 289.927604 
L 339.872901 282.262812 
L 339.971057 282.262812 
L 339.971057 278.430416 
L 340.436163 278.430416 
L 340.436163 274.59802 
L 340.583678 274.59802 
L 340.583678 270.765624 
L 340.697191 270.765624 
L 340.697191 266.933228 
L 341.3292 266.933228 
L 341.3292 263.100832 
L 342.047023 263.100832 
L 342.082666 255.43604 
L 342.230179 255.43604 
L 342.230179 251.603644 
L 342.484827 251.603644 
L 342.484827 247.771248 
L 342.816733 247.771248 
L 342.816733 243.938851 
L 342.982402 243.938851 
L 343.004176 236.274059 
L 343.172489 236.274059 
L 343.253429 224.776871 
L 343.406408 224.776871 
L 343.406408 220.944475 
L 343.590041 220.944475 
L 343.590041 217.112079 
L 344.036728 217.112079 
L 344.053591 209.447287 
L 344.230097 209.447287 
L 344.230097 205.614891 
L 344.473182 205.614891 
L 344.473182 201.782495 
L 344.618513 201.782495 
L 344.618513 197.950099 
L 345.288213 197.950099 
L 345.288213 194.117703 
L 345.490265 194.117703 
L 345.550961 186.452911 
L 346.250059 186.452911 
L 346.250059 182.620515 
L 347.709415 182.620515 
L 347.709415 178.788119 
L 352.707268 178.788119 
L 352.707268 174.955723 
L 353.824806 174.955723 
L 353.824806 171.123327 
L 354.95529 171.123327 
L 354.985297 163.458535 
L 355.31085 163.458535 
L 355.31085 159.626139 
L 355.582369 159.626139 
L 355.582369 155.793743 
L 356.063869 155.793743 
L 356.063869 151.961347 
L 356.205665 151.961347 
L 356.205665 148.12895 
L 356.488821 148.12895 
L 356.530615 132.799366 
L 356.800981 132.799366 
L 356.800981 128.96697 
L 356.922769 128.96697 
L 356.922769 125.134574 
L 357.22347 125.134574 
L 357.293623 109.80499 
L 357.610824 109.80499 
L 357.610824 105.972594 
L 358.0145 105.972594 
L 358.0145 102.140198 
L 358.163904 102.140198 
L 358.165743 94.475406 
L 358.311395 94.475406 
L 358.372814 82.978218 
L 358.471056 82.978218 
L 358.471056 79.145822 
L 358.605841 79.145822 
L 358.614345 71.48103 
L 358.90416 71.48103 
L 358.978475 59.983842 
L 359.328346 59.983842 
L 359.333036 52.31905 
L 359.477051 52.31905 
L 359.477051 48.486653 
L 359.606607 48.486653 
L 359.668659 40.821861 
L 359.943691 40.821861 
L 359.957644 25.492277 
L 360.090265 25.492277 
L 360.163533 13.995089 
L 362.140262 13.995089 
L 362.140262 10.162693 
L 364.732967 10.162693 
L 364.732967 6.330297 
L 364.732967 6.330297 
L 460.8 6.330297 
L 460.8 6.330297 
" clip-path="url(#p0bd47ab899)" style="fill: none; stroke: #ff0000; stroke-width: 3; stroke-linecap: square"/>
   </g>
   <g id="line2d_22">
    <path d="M 342.998654 293.76 
L 342.998654 289.927604 
L 343.734724 289.927604 
L 343.734724 286.095208 
L 344.390069 286.095208 
L 344.390069 282.262812 
L 344.638855 282.262812 
L 344.653606 274.59802 
L 344.781508 274.59802 
L 344.781508 270.765624 
L 345.027278 270.765624 
L 345.027278 266.933228 
L 345.153118 266.933228 
L 345.153118 263.100832 
L 345.288213 263.100832 
L 345.288213 259.268436 
L 345.446996 259.268436 
L 345.446996 255.43604 
L 345.953183 255.43604 
L 345.953183 251.603644 
L 346.392173 251.603644 
L 346.427807 243.938851 
L 346.522558 243.938851 
L 346.546245 236.274059 
L 346.804355 236.274059 
L 346.804355 232.441663 
L 347.188709 232.441663 
L 347.188709 228.609267 
L 347.442721 228.609267 
L 347.442721 224.776871 
L 347.636091 224.776871 
L 347.636091 220.944475 
L 348.127789 220.944475 
L 348.127789 217.112079 
L 348.253504 217.112079 
L 348.253504 213.279683 
L 348.565334 213.279683 
L 348.580757 205.614891 
L 348.774083 205.614891 
L 348.774083 201.782495 
L 349.492735 201.782495 
L 349.492735 197.950099 
L 350.511912 197.950099 
L 350.511912 194.117703 
L 350.688379 194.117703 
L 350.688379 190.285307 
L 352.115074 190.285307 
L 352.115074 186.452911 
L 352.968558 186.452911 
L 352.968558 182.620515 
L 353.699651 182.620515 
L 353.699651 178.788119 
L 355.582369 178.788119 
L 355.582369 174.955723 
L 357.474203 174.955723 
L 357.474203 171.123327 
L 357.990913 171.123327 
L 357.990913 167.290931 
L 358.458198 167.290931 
L 358.458198 163.458535 
L 359.3285 163.458535 
L 359.371512 155.793743 
L 359.597803 155.793743 
L 359.673645 144.296554 
L 359.937318 144.296554 
L 360.043165 132.799366 
L 360.153249 132.799366 
L 360.179432 125.134574 
L 360.356108 125.134574 
L 360.356108 121.302178 
L 360.642955 121.302178 
L 360.642955 117.469782 
L 360.822363 117.469782 
L 360.922671 102.140198 
L 361.379744 102.140198 
L 361.424491 94.475406 
L 361.689063 94.475406 
L 361.689063 90.64301 
L 361.9633 90.64301 
L 362.03516 79.145822 
L 362.100346 79.145822 
L 362.141308 67.648634 
L 362.270688 67.648634 
L 362.270688 63.816238 
L 362.656909 63.816238 
L 362.712455 56.151446 
L 362.774454 56.151446 
L 362.848128 44.654257 
L 362.89583 44.654257 
L 362.89583 40.821861 
L 363.150268 40.821861 
L 363.150268 36.989465 
L 363.280336 36.989465 
L 363.280336 33.157069 
L 363.64478 33.157069 
L 363.70185 25.492277 
L 363.848421 25.492277 
L 363.848421 21.659881 
L 364.921869 21.659881 
L 364.921869 17.827485 
L 365.825944 17.827485 
L 365.825944 13.995089 
L 366.425562 13.995089 
L 366.425562 10.162693 
L 366.730454 10.162693 
L 366.730454 6.330297 
L 366.730454 6.330297 
L 460.8 6.330297 
L 460.8 6.330297 
" clip-path="url(#p0bd47ab899)" style="fill: none; stroke: #00bfbf; stroke-width: 1.5; stroke-linecap: square"/>
   </g>
   <g id="line2d_23">
    <path d="M 340.583678 293.76 
L 340.583678 289.927604 
L 341.3292 289.927604 
L 341.3292 286.095208 
L 342.047023 286.095208 
L 342.047023 282.262812 
L 342.816733 282.262812 
L 342.816733 278.430416 
L 342.998654 278.430416 
L 342.998654 274.59802 
L 343.182134 274.59802 
L 343.182134 270.765624 
L 343.590041 270.765624 
L 343.590041 266.933228 
L 343.734724 266.933228 
L 343.734724 263.100832 
L 343.940364 263.100832 
L 343.940364 259.268436 
L 344.308488 259.268436 
L 344.390069 247.771248 
L 344.465291 247.771248 
L 344.465291 243.938851 
L 344.576429 243.938851 
L 344.653606 232.441663 
L 344.775944 232.441663 
L 344.804116 220.944475 
L 345.119849 220.944475 
L 345.119849 217.112079 
L 345.288213 217.112079 
L 345.288213 213.279683 
L 345.550961 213.279683 
L 345.550961 209.447287 
L 345.953183 209.447287 
L 345.953183 205.614891 
L 346.392173 205.614891 
L 346.427807 197.950099 
L 346.546245 197.950099 
L 346.546245 194.117703 
L 347.220498 194.117703 
L 347.220498 190.285307 
L 347.442721 190.285307 
L 347.442721 186.452911 
L 348.801715 186.452911 
L 348.801715 182.620515 
L 349.49219 182.620515 
L 349.49219 178.788119 
L 352.707268 178.788119 
L 352.707268 174.955723 
L 355.582369 174.955723 
L 355.582369 171.123327 
L 356.205665 171.123327 
L 356.205665 167.290931 
L 356.530615 167.290931 
L 356.530615 163.458535 
L 357.474203 163.458535 
L 357.474203 159.626139 
L 357.990913 159.626139 
L 358.023569 151.961347 
L 358.311601 151.961347 
L 358.311601 148.12895 
L 358.458198 148.12895 
L 358.458198 144.296554 
L 358.614345 144.296554 
L 358.620822 136.631762 
L 359.126256 136.631762 
L 359.194196 128.96697 
L 359.245896 128.96697 
L 359.245896 125.134574 
L 359.477051 125.134574 
L 359.477051 121.302178 
L 359.597803 121.302178 
L 359.668659 109.80499 
L 360.022981 109.80499 
L 360.0315 102.140198 
L 360.153249 102.140198 
L 360.179432 94.475406 
L 360.310157 94.475406 
L 360.356108 82.978218 
L 360.537822 82.978218 
L 360.573953 75.313426 
L 360.716597 75.313426 
L 360.822363 63.816238 
L 360.906953 63.816238 
L 360.916363 56.151446 
L 361.379744 56.151446 
L 361.476964 48.486653 
L 361.767048 48.486653 
L 361.80454 40.821861 
L 361.941317 40.821861 
L 361.987375 33.157069 
L 362.140262 33.157069 
L 362.141308 25.492277 
L 362.399785 25.492277 
L 362.399785 21.659881 
L 362.768169 21.659881 
L 362.768169 17.827485 
L 363.243942 17.827485 
L 363.243942 13.995089 
L 363.528999 13.995089 
L 363.528999 10.162693 
L 366.381685 10.162693 
L 366.381685 6.330297 
L 366.381685 6.330297 
L 460.8 6.330297 
L 460.8 6.330297 
" clip-path="url(#p0bd47ab899)" style="fill: none; stroke: #bf00bf; stroke-width: 1.5; stroke-linecap: square"/>
   </g>
   <g id="line2d_24">
    <path d="M 339.872901 293.76 
L 339.872901 289.927604 
L 340.583678 289.927604 
L 340.583678 286.095208 
L 340.697191 286.095208 
L 340.697191 282.262812 
L 341.3292 282.262812 
L 341.3292 278.430416 
L 342.047023 278.430416 
L 342.082666 270.765624 
L 342.816733 270.765624 
L 342.816733 266.933228 
L 342.998654 266.933228 
L 343.080199 259.268436 
L 343.172489 259.268436 
L 343.182134 251.603644 
L 343.36881 251.603644 
L 343.406408 243.938851 
L 343.590041 243.938851 
L 343.590041 240.106455 
L 343.715361 240.106455 
L 343.715361 236.274059 
L 344.020573 236.274059 
L 344.020573 232.441663 
L 344.230097 232.441663 
L 344.308488 224.776871 
L 344.365459 224.776871 
L 344.365459 220.944475 
L 344.618513 220.944475 
L 344.630217 213.279683 
L 344.781536 213.279683 
L 344.781536 209.447287 
L 344.931798 209.447287 
L 344.931798 205.614891 
L 345.288213 205.614891 
L 345.333822 197.950099 
L 345.550961 197.950099 
L 345.550961 194.117703 
L 346.132889 194.117703 
L 346.132889 190.285307 
L 347.091091 190.285307 
L 347.091091 186.452911 
L 347.220498 186.452911 
L 347.220498 182.620515 
L 347.709415 182.620515 
L 347.709415 178.788119 
L 352.707268 178.788119 
L 352.707268 174.955723 
L 355.31085 174.955723 
L 355.31085 171.123327 
L 355.582369 171.123327 
L 355.582369 167.290931 
L 356.205665 167.290931 
L 356.205665 163.458535 
L 356.488821 163.458535 
L 356.530615 151.961347 
L 356.800981 151.961347 
L 356.900475 144.296554 
L 357.260686 144.296554 
L 357.293623 132.799366 
L 357.474203 132.799366 
L 357.474203 128.96697 
L 357.610824 128.96697 
L 357.610824 125.134574 
L 357.898759 125.134574 
L 357.977751 117.469782 
L 358.023569 117.469782 
L 358.023569 113.637386 
L 358.165743 113.637386 
L 358.165743 109.80499 
L 358.372814 109.80499 
L 358.475739 102.140198 
L 358.605841 102.140198 
L 358.614345 90.64301 
L 358.90416 90.64301 
L 358.915126 82.978218 
L 359.245896 82.978218 
L 359.245896 79.145822 
L 359.372023 79.145822 
L 359.477051 63.816238 
L 359.606607 63.816238 
L 359.717351 48.486653 
L 359.957473 48.486653 
L 359.957473 44.654257 
L 360.090265 44.654257 
L 360.127982 36.989465 
L 360.342904 36.989465 
L 360.342904 33.157069 
L 360.492546 33.157069 
L 360.573953 21.659881 
L 360.794212 21.659881 
L 360.794212 17.827485 
L 361.148666 17.827485 
L 361.148666 13.995089 
L 362.140262 13.995089 
L 362.140262 10.162693 
L 364.732967 10.162693 
L 364.732967 6.330297 
L 364.732967 6.330297 
L 460.8 6.330297 
L 460.8 6.330297 
" clip-path="url(#p0bd47ab899)" style="fill: none; stroke: #000000; stroke-width: 1.5; stroke-linecap: square"/>
   </g>
   <g id="patch_3">
    <path d="M 0 293.76 
L 0 3.456 
" style="fill: none; stroke: #000000; stroke-width: 0.8; stroke-linejoin: miter; stroke-linecap: square"/>
   </g>
   <g id="patch_4">
    <path d="M 460.8 293.76 
L 460.8 3.456 
" style="fill: none; stroke: #000000; stroke-width: 0.8; stroke-linejoin: miter; stroke-linecap: square"/>
   </g>
   <g id="patch_5">
    <path d="M 0 293.76 
L 460.8 293.76 
" style="fill: none; stroke: #000000; stroke-width: 0.8; stroke-linejoin: miter; stroke-linecap: square"/>
   </g>
   <g id="patch_6">
    <path d="M 0 3.456 
L 460.8 3.456 
" style="fill: none; stroke: #000000; stroke-width: 0.8; stroke-linejoin: miter; stroke-linecap: square"/>
   </g>
   <g id="text_6">
    <!-- {f15-f19}, 40-D -->
    <g transform="translate(293.159 287.95392) scale(0.2 -0.2)">
     <defs>
      <path id="DejaVuSans-7b" d="M 3272 -594 
L 3272 -1044 
L 3078 -1044 
Q 2300 -1044 2036 -812 
Q 1772 -581 1772 109 
L 1772 856 
Q 1772 1328 1603 1509 
Q 1434 1691 991 1691 
L 800 1691 
L 800 2138 
L 991 2138 
Q 1438 2138 1605 2317 
Q 1772 2497 1772 2963 
L 1772 3713 
Q 1772 4403 2036 4633 
Q 2300 4863 3078 4863 
L 3272 4863 
L 3272 4416 
L 3059 4416 
Q 2619 4416 2484 4278 
Q 2350 4141 2350 3700 
L 2350 2925 
Q 2350 2434 2208 2212 
Q 2066 1991 1722 1913 
Q 2069 1828 2209 1606 
Q 2350 1384 2350 897 
L 2350 122 
Q 2350 -319 2484 -456 
Q 2619 -594 3059 -594 
L 3272 -594 
z
" transform="scale(0.015625)"/>
      <path id="DejaVuSans-39" d="M 703 97 
L 703 672 
Q 941 559 1184 500 
Q 1428 441 1663 441 
Q 2288 441 2617 861 
Q 2947 1281 2994 2138 
Q 2813 1869 2534 1725 
Q 2256 1581 1919 1581 
Q 1219 1581 811 2004 
Q 403 2428 403 3163 
Q 403 3881 828 4315 
Q 1253 4750 1959 4750 
Q 2769 4750 3195 4129 
Q 3622 3509 3622 2328 
Q 3622 1225 3098 567 
Q 2575 -91 1691 -91 
Q 1453 -91 1209 -44 
Q 966 3 703 97 
z
M 1959 2075 
Q 2384 2075 2632 2365 
Q 2881 2656 2881 3163 
Q 2881 3666 2632 3958 
Q 2384 4250 1959 4250 
Q 1534 4250 1286 3958 
Q 1038 3666 1038 3163 
Q 1038 2656 1286 2365 
Q 1534 2075 1959 2075 
z
" transform="scale(0.015625)"/>
      <path id="DejaVuSans-7d" d="M 800 -594 
L 1019 -594 
Q 1456 -594 1589 -459 
Q 1722 -325 1722 122 
L 1722 897 
Q 1722 1384 1862 1606 
Q 2003 1828 2350 1913 
Q 2003 1991 1862 2212 
Q 1722 2434 1722 2925 
L 1722 3700 
Q 1722 4144 1589 4280 
Q 1456 4416 1019 4416 
L 800 4416 
L 800 4863 
L 997 4863 
Q 1775 4863 2036 4633 
Q 2297 4403 2297 3713 
L 2297 2963 
Q 2297 2497 2465 2317 
Q 2634 2138 3078 2138 
L 3272 2138 
L 3272 1691 
L 3078 1691 
Q 2634 1691 2465 1509 
Q 2297 1328 2297 856 
L 2297 109 
Q 2297 -581 2036 -812 
Q 1775 -1044 997 -1044 
L 800 -1044 
L 800 -594 
z
" transform="scale(0.015625)"/>
      <path id="DejaVuSans-2c" d="M 750 794 
L 1409 794 
L 1409 256 
L 897 -744 
L 494 -744 
L 750 256 
L 750 794 
z
" transform="scale(0.015625)"/>
     </defs>
     <use xlink:href="#DejaVuSans-7b"/>
     <use xlink:href="#DejaVuSans-66" x="63.623047"/>
     <use xlink:href="#DejaVuSans-31" x="98.828125"/>
     <use xlink:href="#DejaVuSans-35" x="162.451172"/>
     <use xlink:href="#DejaVuSans-2d" x="226.074219"/>
     <use xlink:href="#DejaVuSans-66" x="262.158203"/>
     <use xlink:href="#DejaVuSans-31" x="297.363281"/>
     <use xlink:href="#DejaVuSans-39" x="360.986328"/>
     <use xlink:href="#DejaVuSans-7d" x="424.609375"/>
     <use xlink:href="#DejaVuSans-2c" x="488.232422"/>
     <use xlink:href="#DejaVuSans-20" x="520.019531"/>
     <use xlink:href="#DejaVuSans-34" x="551.806641"/>
     <use xlink:href="#DejaVuSans-30" x="615.429688"/>
     <use xlink:href="#DejaVuSans-2d" x="679.052734"/>
     <use xlink:href="#DejaVuSans-44" x="715.136719"/>
    </g>
   </g>
   <g id="text_7">
    <!-- v2.6.4 -->
    <g style="fill: #808080" transform="translate(214.71875 288.777272) scale(0.1 -0.1)">
     <defs>
      <path id="DejaVuSans-76" d="M 191 3500 
L 800 3500 
L 1894 563 
L 2988 3500 
L 3597 3500 
L 2284 0 
L 1503 0 
L 191 3500 
z
" transform="scale(0.015625)"/>
      <path id="DejaVuSans-2e" d="M 684 794 
L 1344 794 
L 1344 0 
L 684 0 
L 684 794 
z
" transform="scale(0.015625)"/>
      <path id="DejaVuSans-36" d="M 2113 2584 
Q 1688 2584 1439 2293 
Q 1191 2003 1191 1497 
Q 1191 994 1439 701 
Q 1688 409 2113 409 
Q 2538 409 2786 701 
Q 3034 994 3034 1497 
Q 3034 2003 2786 2293 
Q 2538 2584 2113 2584 
z
M 3366 4563 
L 3366 3988 
Q 3128 4100 2886 4159 
Q 2644 4219 2406 4219 
Q 1781 4219 1451 3797 
Q 1122 3375 1075 2522 
Q 1259 2794 1537 2939 
Q 1816 3084 2150 3084 
Q 2853 3084 3261 2657 
Q 3669 2231 3669 1497 
Q 3669 778 3244 343 
Q 2819 -91 2113 -91 
Q 1303 -91 875 529 
Q 447 1150 447 2328 
Q 447 3434 972 4092 
Q 1497 4750 2381 4750 
Q 2619 4750 2861 4703 
Q 3103 4656 3366 4563 
z
" transform="scale(0.015625)"/>
     </defs>
     <use xlink:href="#DejaVuSans-76"/>
     <use xlink:href="#DejaVuSans-32" x="59.179688"/>
     <use xlink:href="#DejaVuSans-2e" x="122.802734"/>
     <use xlink:href="#DejaVuSans-36" x="154.589844"/>
     <use xlink:href="#DejaVuSans-2e" x="218.212891"/>
     <use xlink:href="#DejaVuSans-34" x="250"/>
    </g>
   </g>
  </g>
 </g>
 <defs>
  <clipPath id="p0bd47ab899">
   <rect x="0" y="3.456" width="460.8" height="290.304"/>
  </clipPath>
 </defs>
</svg>
