<?xml version="1.0" encoding="utf-8" standalone="no"?>
<!DOCTYPE svg PUBLIC "-//W3C//DTD SVG 1.1//EN"
  "http://www.w3.org/Graphics/SVG/1.1/DTD/svg11.dtd">
<svg xmlns:xlink="http://www.w3.org/1999/xlink" width="460.8pt" height="345.6pt" viewBox="0 0 460.8 345.6" xmlns="http://www.w3.org/2000/svg" version="1.1">
 <metadata>
  <rdf:RDF xmlns:dc="http://purl.org/dc/elements/1.1/" xmlns:cc="http://creativecommons.org/ns#" xmlns:rdf="http://www.w3.org/1999/02/22-rdf-syntax-ns#">
   <cc:Work>
    <dc:type rdf:resource="http://purl.org/dc/dcmitype/StillImage"/>
    <dc:date>2024-10-07T17:44:38.749975</dc:date>
    <dc:format>image/svg+xml</dc:format>
    <dc:creator>
     <cc:Agent>
      <dc:title>Matplotlib v3.9.2, https://matplotlib.org/</dc:title>
     </cc:Agent>
    </dc:creator>
   </cc:Work>
  </rdf:RDF>
 </metadata>
 <defs>
  <style type="text/css">*{stroke-linejoin: round; stroke-linecap: butt}</style>
 </defs>
 <g id="figure_1">
  <g id="patch_1">
   <path d="M 0 345.6 
L 460.8 345.6 
L 460.8 0 
L 0 0 
z
" style="fill: #ffffff"/>
  </g>
  <g id="axes_1">
   <g id="patch_2">
    <path d="M 0 293.76 
L 460.8 293.76 
L 460.8 3.456 
L 0 3.456 
z
" style="fill: #ffffff"/>
   </g>
   <g id="matplotlib.axis_1">
    <g id="xtick_1">
     <g id="line2d_1">
      <path d="M 106.282232 293.76 
L 106.282232 3.456 
" clip-path="url(#pe4c8824c87)" style="fill: none; stroke: #b0b0b0; stroke-width: 0.8; stroke-linecap: square"/>
     </g>
     <g id="line2d_2">
      <defs>
       <path id="m41f74fd722" d="M 0 0 
L 0 3.5 
" style="stroke: #000000; stroke-width: 0.8"/>
      </defs>
      <g>
       <use xlink:href="#m41f74fd722" x="106.282232" y="293.76" style="stroke: #000000; stroke-width: 0.8"/>
      </g>
     </g>
     <g id="text_1">
      <!-- -5 -->
      <g transform="translate(96.311919 315.956875) scale(0.2 -0.2)">
       <defs>
        <path id="DejaVuSans-2d" d="M 313 2009 
L 1997 2009 
L 1997 1497 
L 313 1497 
L 313 2009 
z
" transform="scale(0.015625)"/>
        <path id="DejaVuSans-35" d="M 691 4666 
L 3169 4666 
L 3169 4134 
L 1269 4134 
L 1269 2991 
Q 1406 3038 1543 3061 
Q 1681 3084 1819 3084 
Q 2600 3084 3056 2656 
Q 3513 2228 3513 1497 
Q 3513 744 3044 326 
Q 2575 -91 1722 -91 
Q 1428 -91 1123 -41 
Q 819 9 494 109 
L 494 744 
Q 775 591 1075 516 
Q 1375 441 1709 441 
Q 2250 441 2565 725 
Q 2881 1009 2881 1497 
Q 2881 1984 2565 2268 
Q 2250 2553 1709 2553 
Q 1456 2553 1204 2497 
Q 953 2441 691 2322 
L 691 4666 
z
" transform="scale(0.015625)"/>
       </defs>
       <use xlink:href="#DejaVuSans-2d"/>
       <use xlink:href="#DejaVuSans-35" x="36.083984"/>
      </g>
     </g>
    </g>
    <g id="xtick_2">
     <g id="line2d_3">
      <path d="M 212.71778 293.76 
L 212.71778 3.456 
" clip-path="url(#pe4c8824c87)" style="fill: none; stroke: #b0b0b0; stroke-width: 0.8; stroke-linecap: square"/>
     </g>
     <g id="line2d_4">
      <g>
       <use xlink:href="#m41f74fd722" x="212.71778" y="293.76" style="stroke: #000000; stroke-width: 0.8"/>
      </g>
     </g>
     <g id="text_2">
      <!-- -2 -->
      <g transform="translate(202.747467 315.956875) scale(0.2 -0.2)">
       <defs>
        <path id="DejaVuSans-32" d="M 1228 531 
L 3431 531 
L 3431 0 
L 469 0 
L 469 531 
Q 828 903 1448 1529 
Q 2069 2156 2228 2338 
Q 2531 2678 2651 2914 
Q 2772 3150 2772 3378 
Q 2772 3750 2511 3984 
Q 2250 4219 1831 4219 
Q 1534 4219 1204 4116 
Q 875 4013 500 3803 
L 500 4441 
Q 881 4594 1212 4672 
Q 1544 4750 1819 4750 
Q 2544 4750 2975 4387 
Q 3406 4025 3406 3419 
Q 3406 3131 3298 2873 
Q 3191 2616 2906 2266 
Q 2828 2175 2409 1742 
Q 1991 1309 1228 531 
z
" transform="scale(0.015625)"/>
       </defs>
       <use xlink:href="#DejaVuSans-2d"/>
       <use xlink:href="#DejaVuSans-32" x="36.083984"/>
      </g>
     </g>
    </g>
    <g id="xtick_3">
     <g id="line2d_5">
      <path d="M 319.153327 293.76 
L 319.153327 3.456 
" clip-path="url(#pe4c8824c87)" style="fill: none; stroke: #b0b0b0; stroke-width: 0.8; stroke-linecap: square"/>
     </g>
     <g id="line2d_6">
      <g>
       <use xlink:href="#m41f74fd722" x="319.153327" y="293.76" style="stroke: #000000; stroke-width: 0.8"/>
      </g>
     </g>
     <g id="text_3">
      <!-- 1 -->
      <g transform="translate(312.790827 315.956875) scale(0.2 -0.2)">
       <defs>
        <path id="DejaVuSans-31" d="M 794 531 
L 1825 531 
L 1825 4091 
L 703 3866 
L 703 4441 
L 1819 4666 
L 2450 4666 
L 2450 531 
L 3481 531 
L 3481 0 
L 794 0 
L 794 531 
z
" transform="scale(0.015625)"/>
       </defs>
       <use xlink:href="#DejaVuSans-31"/>
      </g>
     </g>
    </g>
    <g id="xtick_4">
     <g id="line2d_7">
      <path d="M 425.588875 293.76 
L 425.588875 3.456 
" clip-path="url(#pe4c8824c87)" style="fill: none; stroke: #b0b0b0; stroke-width: 0.8; stroke-linecap: square"/>
     </g>
     <g id="line2d_8">
      <g>
       <use xlink:href="#m41f74fd722" x="425.588875" y="293.76" style="stroke: #000000; stroke-width: 0.8"/>
      </g>
     </g>
     <g id="text_4">
      <!-- 4 -->
      <g transform="translate(419.226375 315.956875) scale(0.2 -0.2)">
       <defs>
        <path id="DejaVuSans-34" d="M 2419 4116 
L 825 1625 
L 2419 1625 
L 2419 4116 
z
M 2253 4666 
L 3047 4666 
L 3047 1625 
L 3713 1625 
L 3713 1100 
L 3047 1100 
L 3047 0 
L 2419 0 
L 2419 1100 
L 313 1100 
L 313 1709 
L 2253 4666 
z
" transform="scale(0.015625)"/>
       </defs>
       <use xlink:href="#DejaVuSans-34"/>
      </g>
     </g>
    </g>
    <g id="text_5">
     <!-- log10 of Df -->
     <g transform="translate(175.214063 339.313125) scale(0.2 -0.2)">
      <defs>
       <path id="DejaVuSans-6c" d="M 603 4863 
L 1178 4863 
L 1178 0 
L 603 0 
L 603 4863 
z
" transform="scale(0.015625)"/>
       <path id="DejaVuSans-6f" d="M 1959 3097 
Q 1497 3097 1228 2736 
Q 959 2375 959 1747 
Q 959 1119 1226 758 
Q 1494 397 1959 397 
Q 2419 397 2687 759 
Q 2956 1122 2956 1747 
Q 2956 2369 2687 2733 
Q 2419 3097 1959 3097 
z
M 1959 3584 
Q 2709 3584 3137 3096 
Q 3566 2609 3566 1747 
Q 3566 888 3137 398 
Q 2709 -91 1959 -91 
Q 1206 -91 779 398 
Q 353 888 353 1747 
Q 353 2609 779 3096 
Q 1206 3584 1959 3584 
z
" transform="scale(0.015625)"/>
       <path id="DejaVuSans-67" d="M 2906 1791 
Q 2906 2416 2648 2759 
Q 2391 3103 1925 3103 
Q 1463 3103 1205 2759 
Q 947 2416 947 1791 
Q 947 1169 1205 825 
Q 1463 481 1925 481 
Q 2391 481 2648 825 
Q 2906 1169 2906 1791 
z
M 3481 434 
Q 3481 -459 3084 -895 
Q 2688 -1331 1869 -1331 
Q 1566 -1331 1297 -1286 
Q 1028 -1241 775 -1147 
L 775 -588 
Q 1028 -725 1275 -790 
Q 1522 -856 1778 -856 
Q 2344 -856 2625 -561 
Q 2906 -266 2906 331 
L 2906 616 
Q 2728 306 2450 153 
Q 2172 0 1784 0 
Q 1141 0 747 490 
Q 353 981 353 1791 
Q 353 2603 747 3093 
Q 1141 3584 1784 3584 
Q 2172 3584 2450 3431 
Q 2728 3278 2906 2969 
L 2906 3500 
L 3481 3500 
L 3481 434 
z
" transform="scale(0.015625)"/>
       <path id="DejaVuSans-30" d="M 2034 4250 
Q 1547 4250 1301 3770 
Q 1056 3291 1056 2328 
Q 1056 1369 1301 889 
Q 1547 409 2034 409 
Q 2525 409 2770 889 
Q 3016 1369 3016 2328 
Q 3016 3291 2770 3770 
Q 2525 4250 2034 4250 
z
M 2034 4750 
Q 2819 4750 3233 4129 
Q 3647 3509 3647 2328 
Q 3647 1150 3233 529 
Q 2819 -91 2034 -91 
Q 1250 -91 836 529 
Q 422 1150 422 2328 
Q 422 3509 836 4129 
Q 1250 4750 2034 4750 
z
" transform="scale(0.015625)"/>
       <path id="DejaVuSans-20" transform="scale(0.015625)"/>
       <path id="DejaVuSans-66" d="M 2375 4863 
L 2375 4384 
L 1825 4384 
Q 1516 4384 1395 4259 
Q 1275 4134 1275 3809 
L 1275 3500 
L 2222 3500 
L 2222 3053 
L 1275 3053 
L 1275 0 
L 697 0 
L 697 3053 
L 147 3053 
L 147 3500 
L 697 3500 
L 697 3744 
Q 697 4328 969 4595 
Q 1241 4863 1831 4863 
L 2375 4863 
z
" transform="scale(0.015625)"/>
       <path id="DejaVuSans-44" d="M 1259 4147 
L 1259 519 
L 2022 519 
Q 2988 519 3436 956 
Q 3884 1394 3884 2338 
Q 3884 3275 3436 3711 
Q 2988 4147 2022 4147 
L 1259 4147 
z
M 628 4666 
L 1925 4666 
Q 3281 4666 3915 4102 
Q 4550 3538 4550 2338 
Q 4550 1131 3912 565 
Q 3275 0 1925 0 
L 628 0 
L 628 4666 
z
" transform="scale(0.015625)"/>
      </defs>
      <use xlink:href="#DejaVuSans-6c"/>
      <use xlink:href="#DejaVuSans-6f" x="27.783203"/>
      <use xlink:href="#DejaVuSans-67" x="88.964844"/>
      <use xlink:href="#DejaVuSans-31" x="152.441406"/>
      <use xlink:href="#DejaVuSans-30" x="216.064453"/>
      <use xlink:href="#DejaVuSans-20" x="279.6875"/>
      <use xlink:href="#DejaVuSans-6f" x="311.474609"/>
      <use xlink:href="#DejaVuSans-66" x="372.65625"/>
      <use xlink:href="#DejaVuSans-20" x="407.861328"/>
      <use xlink:href="#DejaVuSans-44" x="439.648438"/>
      <use xlink:href="#DejaVuSans-66" x="516.650391"/>
     </g>
    </g>
   </g>
   <g id="matplotlib.axis_2">
    <g id="ytick_1">
     <g id="line2d_9">
      <path d="M 0 293.76 
L 460.8 293.76 
" clip-path="url(#pe4c8824c87)" style="fill: none; stroke: #b0b0b0; stroke-width: 0.8; stroke-linecap: square"/>
     </g>
     <g id="line2d_10">
      <defs>
       <path id="m0c837ed498" d="M 0 0 
L -3.5 0 
" style="stroke: #000000; stroke-width: 0.8"/>
      </defs>
      <g>
       <use xlink:href="#m0c837ed498" x="0" y="293.76" style="stroke: #000000; stroke-width: 0.8"/>
      </g>
     </g>
    </g>
    <g id="ytick_2">
     <g id="line2d_11">
      <path d="M 0 236.274059 
L 460.8 236.274059 
" clip-path="url(#pe4c8824c87)" style="fill: none; stroke: #b0b0b0; stroke-width: 0.8; stroke-linecap: square"/>
     </g>
     <g id="line2d_12">
      <g>
       <use xlink:href="#m0c837ed498" x="0" y="236.274059" style="stroke: #000000; stroke-width: 0.8"/>
      </g>
     </g>
    </g>
    <g id="ytick_3">
     <g id="line2d_13">
      <path d="M 0 178.788119 
L 460.8 178.788119 
" clip-path="url(#pe4c8824c87)" style="fill: none; stroke: #b0b0b0; stroke-width: 0.8; stroke-linecap: square"/>
     </g>
     <g id="line2d_14">
      <g>
       <use xlink:href="#m0c837ed498" x="0" y="178.788119" style="stroke: #000000; stroke-width: 0.8"/>
      </g>
     </g>
    </g>
    <g id="ytick_4">
     <g id="line2d_15">
      <path d="M 0 121.302178 
L 460.8 121.302178 
" clip-path="url(#pe4c8824c87)" style="fill: none; stroke: #b0b0b0; stroke-width: 0.8; stroke-linecap: square"/>
     </g>
     <g id="line2d_16">
      <g>
       <use xlink:href="#m0c837ed498" x="0" y="121.302178" style="stroke: #000000; stroke-width: 0.8"/>
      </g>
     </g>
    </g>
    <g id="ytick_5">
     <g id="line2d_17">
      <path d="M 0 63.816238 
L 460.8 63.816238 
" clip-path="url(#pe4c8824c87)" style="fill: none; stroke: #b0b0b0; stroke-width: 0.8; stroke-linecap: square"/>
     </g>
     <g id="line2d_18">
      <g>
       <use xlink:href="#m0c837ed498" x="0" y="63.816238" style="stroke: #000000; stroke-width: 0.8"/>
      </g>
     </g>
    </g>
    <g id="ytick_6">
     <g id="line2d_19">
      <path d="M 0 6.330297 
L 460.8 6.330297 
" clip-path="url(#pe4c8824c87)" style="fill: none; stroke: #b0b0b0; stroke-width: 0.8; stroke-linecap: square"/>
     </g>
     <g id="line2d_20">
      <g>
       <use xlink:href="#m0c837ed498" x="0" y="6.330297" style="stroke: #000000; stroke-width: 0.8"/>
      </g>
     </g>
    </g>
   </g>
   <g id="line2d_21">
    <path d="M 268.035577 293.76 
L 268.035577 289.927604 
L 274.78272 289.927604 
L 274.78272 286.095208 
L 280.317809 286.095208 
L 280.317809 282.262812 
L 281.446791 282.262812 
L 281.446791 278.430416 
L 281.670129 278.430416 
L 281.670129 274.59802 
L 285.622934 274.59802 
L 285.622934 270.765624 
L 287.429425 270.765624 
L 287.429425 266.933228 
L 293.727266 266.933228 
L 293.727266 263.100832 
L 299.611864 263.100832 
L 299.611864 259.268436 
L 305.561941 259.268436 
L 305.561941 255.43604 
L 305.931339 255.43604 
L 305.931339 251.603644 
L 308.017284 251.603644 
L 308.017284 247.771248 
L 310.741465 247.771248 
L 310.78756 240.106455 
L 310.878761 240.106455 
L 310.878761 236.274059 
L 311.553033 236.274059 
L 311.553033 232.441663 
L 311.916909 232.441663 
L 311.916909 228.609267 
L 312.062845 228.609267 
L 312.062845 224.776871 
L 314.270449 224.776871 
L 314.270449 220.944475 
L 314.571984 220.944475 
L 314.571984 217.112079 
L 314.713448 217.112079 
L 314.713448 213.279683 
L 315.299417 213.279683 
L 315.299417 209.447287 
L 317.198635 209.447287 
L 317.198635 205.614891 
L 317.315446 205.614891 
L 317.315446 201.782495 
L 317.754214 201.782495 
L 317.754214 197.950099 
L 319.260251 197.950099 
L 319.260251 194.117703 
L 323.310643 194.117703 
L 323.310643 190.285307 
L 329.72569 190.285307 
L 329.72569 186.452911 
L 337.247537 186.452911 
L 337.247537 182.620515 
L 342.674044 182.620515 
L 342.674044 178.788119 
L 343.695883 178.788119 
L 343.695883 174.955723 
L 345.280245 174.955723 
L 345.280245 171.123327 
L 346.184417 171.123327 
L 346.184417 167.290931 
L 347.064517 167.290931 
L 347.064517 163.458535 
L 347.533167 163.458535 
L 347.533167 159.626139 
L 348.16263 159.626139 
L 348.16263 155.793743 
L 349.68696 155.793743 
L 349.68696 151.961347 
L 350.139693 151.961347 
L 350.141275 144.296554 
L 351.089436 144.296554 
L 351.089436 140.464158 
L 351.334484 140.464158 
L 351.343183 132.799366 
L 353.553077 132.799366 
L 353.553077 128.96697 
L 354.083171 128.96697 
L 354.083171 125.134574 
L 354.210719 125.134574 
L 354.309844 117.469782 
L 357.922236 117.469782 
L 357.922236 113.637386 
L 365.547275 113.637386 
L 365.547275 109.80499 
L 374.51016 109.80499 
L 374.51016 105.972594 
L 376.002513 105.972594 
L 376.002513 102.140198 
L 376.535073 102.140198 
L 376.535073 98.307802 
L 376.77306 98.307802 
L 376.77306 94.475406 
L 377.509606 94.475406 
L 377.509606 90.64301 
L 378.086627 90.64301 
L 378.086627 86.810614 
L 378.318817 86.810614 
L 378.318817 82.978218 
L 381.220468 82.978218 
L 381.220468 79.145822 
L 382.520858 79.145822 
L 382.523288 71.48103 
L 386.095492 71.48103 
L 386.095492 67.648634 
L 386.49526 67.648634 
L 386.49526 63.816238 
L 386.83989 63.816238 
L 386.83989 59.983842 
L 389.684731 59.983842 
L 389.684731 56.151446 
L 389.979433 56.151446 
L 389.979433 52.31905 
L 391.277054 52.31905 
L 391.277054 48.486653 
L 393.379792 48.486653 
L 393.379792 44.654257 
L 395.264598 44.654257 
L 395.264598 40.821861 
L 396.483277 40.821861 
L 396.483277 36.989465 
L 397.292961 36.989465 
L 397.292961 33.157069 
L 398.433968 33.157069 
L 398.433968 29.324673 
L 398.767145 29.324673 
L 398.767145 25.492277 
L 403.140519 25.492277 
L 403.140519 21.659881 
L 403.45559 21.659881 
L 403.45559 17.827485 
L 404.351217 17.827485 
L 404.351217 13.995089 
L 408.533105 13.995089 
L 408.594895 6.330297 
L 408.594895 6.330297 
L 460.8 6.330297 
L 460.8 6.330297 
" clip-path="url(#pe4c8824c87)" style="fill: none; stroke: #ff0000; stroke-width: 3; stroke-linecap: square"/>
   </g>
   <g id="line2d_22">
    <path d="M 317.782859 293.76 
L 317.782859 289.927604 
L 318.134937 289.927604 
L 318.134937 286.095208 
L 318.581977 286.095208 
L 318.581977 282.262812 
L 322.354787 282.262812 
L 322.354787 278.430416 
L 323.012916 278.430416 
L 323.012916 274.59802 
L 323.784237 274.59802 
L 323.784237 270.765624 
L 326.647118 270.765624 
L 326.647118 266.933228 
L 329.646471 266.933228 
L 329.646471 263.100832 
L 332.290239 263.100832 
L 332.290239 259.268436 
L 333.228084 259.268436 
L 333.228084 255.43604 
L 333.717294 255.43604 
L 333.717294 251.603644 
L 336.800591 251.603644 
L 336.800591 247.771248 
L 338.810946 247.771248 
L 338.810946 243.938851 
L 339.490287 243.938851 
L 339.490287 240.106455 
L 347.064517 240.106455 
L 347.064517 236.274059 
L 350.187166 236.274059 
L 350.187166 232.441663 
L 353.59423 232.441663 
L 353.59423 228.609267 
L 355.43534 228.609267 
L 355.43534 224.776871 
L 355.802511 224.776871 
L 355.802511 220.944475 
L 357.153121 220.944475 
L 357.153121 217.112079 
L 357.433712 217.112079 
L 357.433712 213.279683 
L 358.25411 213.279683 
L 358.25411 209.447287 
L 358.559563 209.447287 
L 358.559563 205.614891 
L 359.511082 205.614891 
L 359.511082 201.782495 
L 359.694706 201.782495 
L 359.790499 194.117703 
L 360.27491 194.117703 
L 360.27491 190.285307 
L 360.802465 190.285307 
L 360.802465 186.452911 
L 361.133164 186.452911 
L 361.133164 182.620515 
L 361.38484 182.620515 
L 361.38484 178.788119 
L 362.230652 178.788119 
L 362.230652 174.955723 
L 363.654496 174.955723 
L 363.654496 171.123327 
L 372.888864 171.123327 
L 372.888864 167.290931 
L 384.130351 167.290931 
L 384.130351 163.458535 
L 387.689326 163.458535 
L 387.689326 159.626139 
L 388.834117 159.626139 
L 388.834117 155.793743 
L 397.534716 155.793743 
L 397.534716 151.961347 
L 398.485199 151.961347 
L 398.485199 148.12895 
L 398.755206 148.12895 
L 398.755206 144.296554 
L 400.28477 144.296554 
L 400.327223 136.631762 
L 400.594055 136.631762 
L 400.594055 132.799366 
L 403.860083 132.799366 
L 403.860083 128.96697 
L 404.72355 128.96697 
L 404.72355 125.134574 
L 405.529868 125.134574 
L 405.529868 121.302178 
L 405.694973 121.302178 
L 405.694973 117.469782 
L 406.334228 117.469782 
L 406.334228 113.637386 
L 409.386301 113.637386 
L 409.386301 109.80499 
L 409.745974 109.80499 
L 409.745974 105.972594 
L 411.021835 105.972594 
L 411.021835 102.140198 
L 411.933976 102.140198 
L 411.933976 98.307802 
L 412.585875 98.307802 
L 412.585875 94.475406 
L 413.009591 94.475406 
L 413.009591 90.64301 
L 413.266942 90.64301 
L 413.266942 86.810614 
L 414.041098 86.810614 
L 414.091513 79.145822 
L 414.566345 79.145822 
L 414.566345 75.313426 
L 416.947512 75.313426 
L 416.947512 71.48103 
L 417.185206 71.48103 
L 417.185206 67.648634 
L 417.459415 67.648634 
L 417.558231 59.983842 
L 420.500561 59.983842 
L 420.500561 56.151446 
L 421.213937 56.151446 
L 421.264057 48.486653 
L 421.691298 48.486653 
L 421.691298 44.654257 
L 422.368479 44.654257 
L 422.368479 40.821861 
L 422.846228 40.821861 
L 422.846228 36.989465 
L 422.977842 36.989465 
L 422.977842 33.157069 
L 424.438906 33.157069 
L 424.438906 29.324673 
L 426.378942 29.324673 
L 426.378942 25.492277 
L 428.563161 25.492277 
L 428.563161 21.659881 
L 430.800086 21.659881 
L 430.800086 17.827485 
L 432.85749 17.827485 
L 432.85749 13.995089 
L 444.586412 13.995089 
L 444.586412 10.162693 
L 451.450284 10.162693 
L 451.450284 6.330297 
L 451.450284 6.330297 
L 460.8 6.330297 
L 460.8 6.330297 
" clip-path="url(#pe4c8824c87)" style="fill: none; stroke: #00bfbf; stroke-width: 1.5; stroke-linecap: square"/>
   </g>
   <g id="line2d_23">
    <path d="M 310.741465 293.76 
L 310.741465 289.927604 
L 317.14343 289.927604 
L 317.14343 286.095208 
L 317.782859 286.095208 
L 317.782859 282.262812 
L 318.134937 282.262812 
L 318.134937 278.430416 
L 318.413474 278.430416 
L 318.413474 274.59802 
L 318.581977 274.59802 
L 318.581977 270.765624 
L 320.085446 270.765624 
L 320.085446 266.933228 
L 322.354787 266.933228 
L 322.354787 263.100832 
L 325.511946 263.100832 
L 325.511946 259.268436 
L 326.647118 259.268436 
L 326.647118 255.43604 
L 328.854623 255.43604 
L 328.854623 251.603644 
L 329.646471 251.603644 
L 329.648126 243.938851 
L 332.290239 243.938851 
L 332.290239 240.106455 
L 333.521723 240.106455 
L 333.618996 232.441663 
L 335.775455 232.441663 
L 335.775455 228.609267 
L 336.800591 228.609267 
L 336.800591 224.776871 
L 341.181768 224.776871 
L 341.181768 220.944475 
L 347.064517 220.944475 
L 347.064517 217.112079 
L 351.089436 217.112079 
L 351.089436 213.279683 
L 351.68917 213.279683 
L 351.68917 209.447287 
L 353.103951 209.447287 
L 353.103951 205.614891 
L 354.344409 205.614891 
L 354.344409 201.782495 
L 354.967501 201.782495 
L 354.967501 197.950099 
L 355.43534 197.950099 
L 355.43534 194.117703 
L 355.786421 194.117703 
L 355.786421 190.285307 
L 356.184741 190.285307 
L 356.184741 186.452911 
L 357.153121 186.452911 
L 357.153121 182.620515 
L 358.261669 182.620515 
L 358.261669 178.788119 
L 359.567178 178.788119 
L 359.567178 174.955723 
L 359.694706 174.955723 
L 359.694706 171.123327 
L 360.615133 171.123327 
L 360.615133 167.290931 
L 362.230652 167.290931 
L 362.230652 163.458535 
L 363.346502 163.458535 
L 363.346502 159.626139 
L 363.654496 159.626139 
L 363.654496 155.793743 
L 371.886853 155.793743 
L 371.886853 151.961347 
L 372.888864 151.961347 
L 372.888864 148.12895 
L 377.258722 148.12895 
L 377.258722 144.296554 
L 381.670887 144.296554 
L 381.670887 140.464158 
L 384.130351 140.464158 
L 384.130351 136.631762 
L 384.272887 136.631762 
L 384.272887 132.799366 
L 385.292983 132.799366 
L 385.292983 128.96697 
L 387.689326 128.96697 
L 387.689326 125.134574 
L 389.95688 125.134574 
L 389.95688 121.302178 
L 390.386578 121.302178 
L 390.386578 117.469782 
L 392.691186 117.469782 
L 392.691186 113.637386 
L 395.156741 113.637386 
L 395.156741 109.80499 
L 396.219667 109.80499 
L 396.219667 105.972594 
L 398.485199 105.972594 
L 398.485199 102.140198 
L 398.755206 102.140198 
L 398.755206 98.307802 
L 400.119334 98.307802 
L 400.119334 94.475406 
L 400.327223 94.475406 
L 400.327223 90.64301 
L 406.334228 90.64301 
L 406.334228 86.810614 
L 406.611898 86.810614 
L 406.611898 82.978218 
L 409.386301 82.978218 
L 409.404876 75.313426 
L 409.759245 75.313426 
L 409.845791 67.648634 
L 410.113823 67.648634 
L 410.223827 59.983842 
L 411.933976 59.983842 
L 411.933976 56.151446 
L 412.54395 56.151446 
L 412.585875 48.486653 
L 413.266942 48.486653 
L 413.266942 44.654257 
L 414.041098 44.654257 
L 414.041098 40.821861 
L 414.566345 40.821861 
L 414.566345 36.989465 
L 416.043629 36.989465 
L 416.043629 33.157069 
L 417.459415 33.157069 
L 417.459415 29.324673 
L 420.108628 29.324673 
L 420.108628 25.492277 
L 420.500561 25.492277 
L 420.500561 21.659881 
L 424.438906 21.659881 
L 424.438906 17.827485 
L 427.064419 17.827485 
L 427.064419 13.995089 
L 430.800086 13.995089 
L 430.800086 10.162693 
L 432.85749 10.162693 
L 432.85749 6.330297 
L 432.85749 6.330297 
L 460.8 6.330297 
L 460.8 6.330297 
" clip-path="url(#pe4c8824c87)" style="fill: none; stroke: #bf00bf; stroke-width: 1.5; stroke-linecap: square"/>
   </g>
   <g id="line2d_24">
    <path d="M 283.604975 293.76 
L 283.604975 289.927604 
L 303.706084 289.927604 
L 303.706084 286.095208 
L 310.741465 286.095208 
L 310.741465 282.262812 
L 317.14343 282.262812 
L 317.14343 278.430416 
L 317.782859 278.430416 
L 317.782859 274.59802 
L 318.060307 274.59802 
L 318.134937 266.933228 
L 318.581977 266.933228 
L 318.581977 263.100832 
L 319.983244 263.100832 
L 320.085446 255.43604 
L 321.830576 255.43604 
L 321.830576 251.603644 
L 322.354787 251.603644 
L 322.354787 247.771248 
L 323.462646 247.771248 
L 323.462646 243.938851 
L 323.998073 243.938851 
L 324.055068 236.274059 
L 325.429333 236.274059 
L 325.511946 228.609267 
L 325.826608 228.609267 
L 325.826608 224.776871 
L 328.854623 224.776871 
L 328.854623 220.944475 
L 329.648126 220.944475 
L 329.648126 217.112079 
L 335.775455 217.112079 
L 335.775455 213.279683 
L 339.170853 213.279683 
L 339.170853 209.447287 
L 341.026691 209.447287 
L 341.026691 205.614891 
L 347.064517 205.614891 
L 347.064517 201.782495 
L 351.089436 201.782495 
L 351.089436 197.950099 
L 351.583892 197.950099 
L 351.594369 190.285307 
L 353.416712 190.285307 
L 353.416712 186.452911 
L 354.286455 186.452911 
L 354.344409 178.788119 
L 354.411918 178.788119 
L 354.411918 174.955723 
L 354.922213 174.955723 
L 354.967501 167.290931 
L 355.402872 167.290931 
L 355.43534 159.626139 
L 355.576434 159.626139 
L 355.576434 155.793743 
L 358.261669 155.793743 
L 358.261669 151.961347 
L 358.662519 151.961347 
L 358.662519 148.12895 
L 362.494015 148.12895 
L 362.494015 144.296554 
L 363.654496 144.296554 
L 363.654496 140.464158 
L 370.592256 140.464158 
L 370.592256 136.631762 
L 371.145762 136.631762 
L 371.145762 132.799366 
L 372.888864 132.799366 
L 372.888864 128.96697 
L 377.258722 128.96697 
L 377.258722 125.134574 
L 381.571899 125.134574 
L 381.670887 113.637386 
L 382.332758 113.637386 
L 382.332758 109.80499 
L 382.520858 109.80499 
L 382.523288 102.140198 
L 384.070175 102.140198 
L 384.070175 98.307802 
L 388.0942 98.307802 
L 388.0942 94.475406 
L 389.95688 94.475406 
L 389.95688 90.64301 
L 391.508733 90.64301 
L 391.508733 86.810614 
L 392.691186 86.810614 
L 392.691186 82.978218 
L 395.264598 82.978218 
L 395.264598 79.145822 
L 396.219667 79.145822 
L 396.219667 75.313426 
L 403.088483 75.313426 
L 403.088483 71.48103 
L 406.451703 71.48103 
L 406.497993 63.816238 
L 406.611898 63.816238 
L 406.71505 56.151446 
L 407.217397 56.151446 
L 407.217397 52.31905 
L 407.57542 52.31905 
L 407.57542 48.486653 
L 407.899215 48.486653 
L 407.899215 44.654257 
L 411.389475 44.654257 
L 411.389475 40.821861 
L 411.834184 40.821861 
L 411.834184 36.989465 
L 412.018305 36.989465 
L 412.018305 33.157069 
L 412.54395 33.157069 
L 412.54395 29.324673 
L 417.459415 29.324673 
L 417.459415 25.492277 
L 420.108628 25.492277 
L 420.108628 21.659881 
L 420.500561 21.659881 
L 420.500561 17.827485 
L 422.623017 17.827485 
L 422.623017 13.995089 
L 423.585494 13.995089 
L 423.585494 10.162693 
L 430.800086 10.162693 
L 430.800086 6.330297 
L 430.800086 6.330297 
L 460.8 6.330297 
L 460.8 6.330297 
" clip-path="url(#pe4c8824c87)" style="fill: none; stroke: #000000; stroke-width: 1.5; stroke-linecap: square"/>
   </g>
   <g id="line2d_25">
    <path d="M 283.604975 293.76 
L 283.604975 289.927604 
L 287.429425 289.927604 
L 287.429425 286.095208 
L 299.611864 286.095208 
L 299.611864 282.262812 
L 303.706084 282.262812 
L 303.706084 278.430416 
L 305.931339 278.430416 
L 305.931339 274.59802 
L 310.741465 274.59802 
L 310.78756 266.933228 
L 311.916909 266.933228 
L 311.916909 263.100832 
L 312.062845 263.100832 
L 312.062845 259.268436 
L 313.186433 259.268436 
L 313.186433 255.43604 
L 314.270449 255.43604 
L 314.270449 251.603644 
L 314.571984 251.603644 
L 314.571984 247.771248 
L 314.703966 247.771248 
L 314.703966 243.938851 
L 315.018264 243.938851 
L 315.018264 240.106455 
L 317.133976 240.106455 
L 317.14343 232.441663 
L 317.315446 232.441663 
L 317.315446 228.609267 
L 317.782859 228.609267 
L 317.782859 224.776871 
L 318.081447 224.776871 
L 318.081447 220.944475 
L 318.223715 220.944475 
L 318.223715 217.112079 
L 318.983938 217.112079 
L 318.983938 213.279683 
L 319.983244 213.279683 
L 319.983244 209.447287 
L 321.800304 209.447287 
L 321.800304 205.614891 
L 325.511946 205.614891 
L 325.511946 201.782495 
L 327.123497 201.782495 
L 327.123497 197.950099 
L 327.552586 197.950099 
L 327.552586 194.117703 
L 329.72569 194.117703 
L 329.72569 190.285307 
L 337.247537 190.285307 
L 337.247537 186.452911 
L 338.667726 186.452911 
L 338.667726 182.620515 
L 343.695883 182.620515 
L 343.695883 178.788119 
L 347.064517 178.788119 
L 347.064517 174.955723 
L 347.580566 174.955723 
L 347.580566 171.123327 
L 348.154102 171.123327 
L 348.16263 163.458535 
L 349.223117 163.458535 
L 349.223117 159.626139 
L 349.912515 159.626139 
L 349.912515 155.793743 
L 350.141275 155.793743 
L 350.141275 151.961347 
L 351.089436 151.961347 
L 351.089436 148.12895 
L 351.343183 148.12895 
L 351.343183 144.296554 
L 352.487949 144.296554 
L 352.487949 140.464158 
L 352.804643 140.464158 
L 352.804643 136.631762 
L 354.083171 136.631762 
L 354.083171 132.799366 
L 354.210719 132.799366 
L 354.309844 121.302178 
L 354.344409 121.302178 
L 354.344409 117.469782 
L 357.922236 117.469782 
L 357.922236 113.637386 
L 372.888864 113.637386 
L 372.888864 109.80499 
L 374.51016 109.80499 
L 374.51016 105.972594 
L 376.002513 105.972594 
L 376.002513 102.140198 
L 376.77306 102.140198 
L 376.77306 98.307802 
L 377.258722 98.307802 
L 377.258722 94.475406 
L 378.318817 94.475406 
L 378.318817 90.64301 
L 378.577065 90.64301 
L 378.577065 86.810614 
L 381.670887 86.810614 
L 381.670887 82.978218 
L 382.520858 82.978218 
L 382.523288 75.313426 
L 386.49526 75.313426 
L 386.49526 71.48103 
L 387.862542 71.48103 
L 387.862542 67.648634 
L 389.684731 67.648634 
L 389.684731 63.816238 
L 389.979433 63.816238 
L 389.979433 59.983842 
L 393.379792 59.983842 
L 393.379792 56.151446 
L 395.264598 56.151446 
L 395.264598 52.31905 
L 398.433968 52.31905 
L 398.433968 48.486653 
L 400.837417 48.486653 
L 400.837417 44.654257 
L 401.973187 44.654257 
L 401.973187 40.821861 
L 402.213862 40.821861 
L 402.213862 36.989465 
L 402.598265 36.989465 
L 402.598265 33.157069 
L 403.93959 33.157069 
L 403.93959 29.324673 
L 404.351217 29.324673 
L 404.351217 25.492277 
L 405.244605 25.492277 
L 405.244605 21.659881 
L 405.882972 21.659881 
L 405.882972 17.827485 
L 408.594895 17.827485 
L 408.594895 13.995089 
L 410.057083 13.995089 
L 410.057083 10.162693 
L 410.711384 10.162693 
L 410.711384 6.330297 
L 410.711384 6.330297 
L 460.8 6.330297 
L 460.8 6.330297 
" clip-path="url(#pe4c8824c87)" style="fill: none; stroke: #00bfbf; stroke-width: 1.5; stroke-linecap: square"/>
   </g>
   <g id="patch_3">
    <path d="M 0 293.76 
L 0 3.456 
" style="fill: none; stroke: #000000; stroke-width: 0.8; stroke-linejoin: miter; stroke-linecap: square"/>
   </g>
   <g id="patch_4">
    <path d="M 460.8 293.76 
L 460.8 3.456 
" style="fill: none; stroke: #000000; stroke-width: 0.8; stroke-linejoin: miter; stroke-linecap: square"/>
   </g>
   <g id="patch_5">
    <path d="M 0 293.76 
L 460.8 293.76 
" style="fill: none; stroke: #000000; stroke-width: 0.8; stroke-linejoin: miter; stroke-linecap: square"/>
   </g>
   <g id="patch_6">
    <path d="M 0 3.456 
L 460.8 3.456 
" style="fill: none; stroke: #000000; stroke-width: 0.8; stroke-linejoin: miter; stroke-linecap: square"/>
   </g>
   <g id="text_6">
    <!-- {f10-f14}, 10-D -->
    <g transform="translate(293.159 287.95392) scale(0.2 -0.2)">
     <defs>
      <path id="DejaVuSans-7b" d="M 3272 -594 
L 3272 -1044 
L 3078 -1044 
Q 2300 -1044 2036 -812 
Q 1772 -581 1772 109 
L 1772 856 
Q 1772 1328 1603 1509 
Q 1434 1691 991 1691 
L 800 1691 
L 800 2138 
L 991 2138 
Q 1438 2138 1605 2317 
Q 1772 2497 1772 2963 
L 1772 3713 
Q 1772 4403 2036 4633 
Q 2300 4863 3078 4863 
L 3272 4863 
L 3272 4416 
L 3059 4416 
Q 2619 4416 2484 4278 
Q 2350 4141 2350 3700 
L 2350 2925 
Q 2350 2434 2208 2212 
Q 2066 1991 1722 1913 
Q 2069 1828 2209 1606 
Q 2350 1384 2350 897 
L 2350 122 
Q 2350 -319 2484 -456 
Q 2619 -594 3059 -594 
L 3272 -594 
z
" transform="scale(0.015625)"/>
      <path id="DejaVuSans-7d" d="M 800 -594 
L 1019 -594 
Q 1456 -594 1589 -459 
Q 1722 -325 1722 122 
L 1722 897 
Q 1722 1384 1862 1606 
Q 2003 1828 2350 1913 
Q 2003 1991 1862 2212 
Q 1722 2434 1722 2925 
L 1722 3700 
Q 1722 4144 1589 4280 
Q 1456 4416 1019 4416 
L 800 4416 
L 800 4863 
L 997 4863 
Q 1775 4863 2036 4633 
Q 2297 4403 2297 3713 
L 2297 2963 
Q 2297 2497 2465 2317 
Q 2634 2138 3078 2138 
L 3272 2138 
L 3272 1691 
L 3078 1691 
Q 2634 1691 2465 1509 
Q 2297 1328 2297 856 
L 2297 109 
Q 2297 -581 2036 -812 
Q 1775 -1044 997 -1044 
L 800 -1044 
L 800 -594 
z
" transform="scale(0.015625)"/>
      <path id="DejaVuSans-2c" d="M 750 794 
L 1409 794 
L 1409 256 
L 897 -744 
L 494 -744 
L 750 256 
L 750 794 
z
" transform="scale(0.015625)"/>
     </defs>
     <use xlink:href="#DejaVuSans-7b"/>
     <use xlink:href="#DejaVuSans-66" x="63.623047"/>
     <use xlink:href="#DejaVuSans-31" x="98.828125"/>
     <use xlink:href="#DejaVuSans-30" x="162.451172"/>
     <use xlink:href="#DejaVuSans-2d" x="226.074219"/>
     <use xlink:href="#DejaVuSans-66" x="262.158203"/>
     <use xlink:href="#DejaVuSans-31" x="297.363281"/>
     <use xlink:href="#DejaVuSans-34" x="360.986328"/>
     <use xlink:href="#DejaVuSans-7d" x="424.609375"/>
     <use xlink:href="#DejaVuSans-2c" x="488.232422"/>
     <use xlink:href="#DejaVuSans-20" x="520.019531"/>
     <use xlink:href="#DejaVuSans-31" x="551.806641"/>
     <use xlink:href="#DejaVuSans-30" x="615.429688"/>
     <use xlink:href="#DejaVuSans-2d" x="679.052734"/>
     <use xlink:href="#DejaVuSans-44" x="715.136719"/>
    </g>
   </g>
   <g id="text_7">
    <!-- v2.6.4 -->
    <g style="fill: #808080" transform="translate(214.71875 288.777272) scale(0.1 -0.1)">
     <defs>
      <path id="DejaVuSans-76" d="M 191 3500 
L 800 3500 
L 1894 563 
L 2988 3500 
L 3597 3500 
L 2284 0 
L 1503 0 
L 191 3500 
z
" transform="scale(0.015625)"/>
      <path id="DejaVuSans-2e" d="M 684 794 
L 1344 794 
L 1344 0 
L 684 0 
L 684 794 
z
" transform="scale(0.015625)"/>
      <path id="DejaVuSans-36" d="M 2113 2584 
Q 1688 2584 1439 2293 
Q 1191 2003 1191 1497 
Q 1191 994 1439 701 
Q 1688 409 2113 409 
Q 2538 409 2786 701 
Q 3034 994 3034 1497 
Q 3034 2003 2786 2293 
Q 2538 2584 2113 2584 
z
M 3366 4563 
L 3366 3988 
Q 3128 4100 2886 4159 
Q 2644 4219 2406 4219 
Q 1781 4219 1451 3797 
Q 1122 3375 1075 2522 
Q 1259 2794 1537 2939 
Q 1816 3084 2150 3084 
Q 2853 3084 3261 2657 
Q 3669 2231 3669 1497 
Q 3669 778 3244 343 
Q 2819 -91 2113 -91 
Q 1303 -91 875 529 
Q 447 1150 447 2328 
Q 447 3434 972 4092 
Q 1497 4750 2381 4750 
Q 2619 4750 2861 4703 
Q 3103 4656 3366 4563 
z
" transform="scale(0.015625)"/>
     </defs>
     <use xlink:href="#DejaVuSans-76"/>
     <use xlink:href="#DejaVuSans-32" x="59.179688"/>
     <use xlink:href="#DejaVuSans-2e" x="122.802734"/>
     <use xlink:href="#DejaVuSans-36" x="154.589844"/>
     <use xlink:href="#DejaVuSans-2e" x="218.212891"/>
     <use xlink:href="#DejaVuSans-34" x="250"/>
    </g>
   </g>
  </g>
 </g>
 <defs>
  <clipPath id="pe4c8824c87">
   <rect x="0" y="3.456" width="460.8" height="290.304"/>
  </clipPath>
 </defs>
</svg>
