<?xml version="1.0" encoding="utf-8" standalone="no"?>
<!DOCTYPE svg PUBLIC "-//W3C//DTD SVG 1.1//EN"
  "http://www.w3.org/Graphics/SVG/1.1/DTD/svg11.dtd">
<svg xmlns:xlink="http://www.w3.org/1999/xlink" width="460.8pt" height="345.6pt" viewBox="0 0 460.8 345.6" xmlns="http://www.w3.org/2000/svg" version="1.1">
 <metadata>
  <rdf:RDF xmlns:dc="http://purl.org/dc/elements/1.1/" xmlns:cc="http://creativecommons.org/ns#" xmlns:rdf="http://www.w3.org/1999/02/22-rdf-syntax-ns#">
   <cc:Work>
    <dc:type rdf:resource="http://purl.org/dc/dcmitype/StillImage"/>
    <dc:date>2024-10-07T17:44:38.449498</dc:date>
    <dc:format>image/svg+xml</dc:format>
    <dc:creator>
     <cc:Agent>
      <dc:title>Matplotlib v3.9.2, https://matplotlib.org/</dc:title>
     </cc:Agent>
    </dc:creator>
   </cc:Work>
  </rdf:RDF>
 </metadata>
 <defs>
  <style type="text/css">*{stroke-linejoin: round; stroke-linecap: butt}</style>
 </defs>
 <g id="figure_1">
  <g id="patch_1">
   <path d="M 0 345.6 
L 460.8 345.6 
L 460.8 0 
L 0 0 
z
" style="fill: #ffffff"/>
  </g>
  <g id="axes_1">
   <g id="patch_2">
    <path d="M 0 293.76 
L 460.8 293.76 
L 460.8 3.456 
L 0 3.456 
z
" style="fill: #ffffff"/>
   </g>
   <g id="matplotlib.axis_1">
    <g id="xtick_1">
     <g id="line2d_1">
      <path d="M 106.282232 293.76 
L 106.282232 3.456 
" clip-path="url(#p3c57977091)" style="fill: none; stroke: #b0b0b0; stroke-width: 0.8; stroke-linecap: square"/>
     </g>
     <g id="line2d_2">
      <defs>
       <path id="m09179046c8" d="M 0 0 
L 0 3.5 
" style="stroke: #000000; stroke-width: 0.8"/>
      </defs>
      <g>
       <use xlink:href="#m09179046c8" x="106.282232" y="293.76" style="stroke: #000000; stroke-width: 0.8"/>
      </g>
     </g>
     <g id="text_1">
      <!-- -5 -->
      <g transform="translate(96.311919 315.956875) scale(0.2 -0.2)">
       <defs>
        <path id="DejaVuSans-2d" d="M 313 2009 
L 1997 2009 
L 1997 1497 
L 313 1497 
L 313 2009 
z
" transform="scale(0.015625)"/>
        <path id="DejaVuSans-35" d="M 691 4666 
L 3169 4666 
L 3169 4134 
L 1269 4134 
L 1269 2991 
Q 1406 3038 1543 3061 
Q 1681 3084 1819 3084 
Q 2600 3084 3056 2656 
Q 3513 2228 3513 1497 
Q 3513 744 3044 326 
Q 2575 -91 1722 -91 
Q 1428 -91 1123 -41 
Q 819 9 494 109 
L 494 744 
Q 775 591 1075 516 
Q 1375 441 1709 441 
Q 2250 441 2565 725 
Q 2881 1009 2881 1497 
Q 2881 1984 2565 2268 
Q 2250 2553 1709 2553 
Q 1456 2553 1204 2497 
Q 953 2441 691 2322 
L 691 4666 
z
" transform="scale(0.015625)"/>
       </defs>
       <use xlink:href="#DejaVuSans-2d"/>
       <use xlink:href="#DejaVuSans-35" x="36.083984"/>
      </g>
     </g>
    </g>
    <g id="xtick_2">
     <g id="line2d_3">
      <path d="M 212.71778 293.76 
L 212.71778 3.456 
" clip-path="url(#p3c57977091)" style="fill: none; stroke: #b0b0b0; stroke-width: 0.8; stroke-linecap: square"/>
     </g>
     <g id="line2d_4">
      <g>
       <use xlink:href="#m09179046c8" x="212.71778" y="293.76" style="stroke: #000000; stroke-width: 0.8"/>
      </g>
     </g>
     <g id="text_2">
      <!-- -2 -->
      <g transform="translate(202.747467 315.956875) scale(0.2 -0.2)">
       <defs>
        <path id="DejaVuSans-32" d="M 1228 531 
L 3431 531 
L 3431 0 
L 469 0 
L 469 531 
Q 828 903 1448 1529 
Q 2069 2156 2228 2338 
Q 2531 2678 2651 2914 
Q 2772 3150 2772 3378 
Q 2772 3750 2511 3984 
Q 2250 4219 1831 4219 
Q 1534 4219 1204 4116 
Q 875 4013 500 3803 
L 500 4441 
Q 881 4594 1212 4672 
Q 1544 4750 1819 4750 
Q 2544 4750 2975 4387 
Q 3406 4025 3406 3419 
Q 3406 3131 3298 2873 
Q 3191 2616 2906 2266 
Q 2828 2175 2409 1742 
Q 1991 1309 1228 531 
z
" transform="scale(0.015625)"/>
       </defs>
       <use xlink:href="#DejaVuSans-2d"/>
       <use xlink:href="#DejaVuSans-32" x="36.083984"/>
      </g>
     </g>
    </g>
    <g id="xtick_3">
     <g id="line2d_5">
      <path d="M 319.153327 293.76 
L 319.153327 3.456 
" clip-path="url(#p3c57977091)" style="fill: none; stroke: #b0b0b0; stroke-width: 0.8; stroke-linecap: square"/>
     </g>
     <g id="line2d_6">
      <g>
       <use xlink:href="#m09179046c8" x="319.153327" y="293.76" style="stroke: #000000; stroke-width: 0.8"/>
      </g>
     </g>
     <g id="text_3">
      <!-- 1 -->
      <g transform="translate(312.790827 315.956875) scale(0.2 -0.2)">
       <defs>
        <path id="DejaVuSans-31" d="M 794 531 
L 1825 531 
L 1825 4091 
L 703 3866 
L 703 4441 
L 1819 4666 
L 2450 4666 
L 2450 531 
L 3481 531 
L 3481 0 
L 794 0 
L 794 531 
z
" transform="scale(0.015625)"/>
       </defs>
       <use xlink:href="#DejaVuSans-31"/>
      </g>
     </g>
    </g>
    <g id="xtick_4">
     <g id="line2d_7">
      <path d="M 425.588875 293.76 
L 425.588875 3.456 
" clip-path="url(#p3c57977091)" style="fill: none; stroke: #b0b0b0; stroke-width: 0.8; stroke-linecap: square"/>
     </g>
     <g id="line2d_8">
      <g>
       <use xlink:href="#m09179046c8" x="425.588875" y="293.76" style="stroke: #000000; stroke-width: 0.8"/>
      </g>
     </g>
     <g id="text_4">
      <!-- 4 -->
      <g transform="translate(419.226375 315.956875) scale(0.2 -0.2)">
       <defs>
        <path id="DejaVuSans-34" d="M 2419 4116 
L 825 1625 
L 2419 1625 
L 2419 4116 
z
M 2253 4666 
L 3047 4666 
L 3047 1625 
L 3713 1625 
L 3713 1100 
L 3047 1100 
L 3047 0 
L 2419 0 
L 2419 1100 
L 313 1100 
L 313 1709 
L 2253 4666 
z
" transform="scale(0.015625)"/>
       </defs>
       <use xlink:href="#DejaVuSans-34"/>
      </g>
     </g>
    </g>
    <g id="text_5">
     <!-- log10 of Df -->
     <g transform="translate(175.214063 339.313125) scale(0.2 -0.2)">
      <defs>
       <path id="DejaVuSans-6c" d="M 603 4863 
L 1178 4863 
L 1178 0 
L 603 0 
L 603 4863 
z
" transform="scale(0.015625)"/>
       <path id="DejaVuSans-6f" d="M 1959 3097 
Q 1497 3097 1228 2736 
Q 959 2375 959 1747 
Q 959 1119 1226 758 
Q 1494 397 1959 397 
Q 2419 397 2687 759 
Q 2956 1122 2956 1747 
Q 2956 2369 2687 2733 
Q 2419 3097 1959 3097 
z
M 1959 3584 
Q 2709 3584 3137 3096 
Q 3566 2609 3566 1747 
Q 3566 888 3137 398 
Q 2709 -91 1959 -91 
Q 1206 -91 779 398 
Q 353 888 353 1747 
Q 353 2609 779 3096 
Q 1206 3584 1959 3584 
z
" transform="scale(0.015625)"/>
       <path id="DejaVuSans-67" d="M 2906 1791 
Q 2906 2416 2648 2759 
Q 2391 3103 1925 3103 
Q 1463 3103 1205 2759 
Q 947 2416 947 1791 
Q 947 1169 1205 825 
Q 1463 481 1925 481 
Q 2391 481 2648 825 
Q 2906 1169 2906 1791 
z
M 3481 434 
Q 3481 -459 3084 -895 
Q 2688 -1331 1869 -1331 
Q 1566 -1331 1297 -1286 
Q 1028 -1241 775 -1147 
L 775 -588 
Q 1028 -725 1275 -790 
Q 1522 -856 1778 -856 
Q 2344 -856 2625 -561 
Q 2906 -266 2906 331 
L 2906 616 
Q 2728 306 2450 153 
Q 2172 0 1784 0 
Q 1141 0 747 490 
Q 353 981 353 1791 
Q 353 2603 747 3093 
Q 1141 3584 1784 3584 
Q 2172 3584 2450 3431 
Q 2728 3278 2906 2969 
L 2906 3500 
L 3481 3500 
L 3481 434 
z
" transform="scale(0.015625)"/>
       <path id="DejaVuSans-30" d="M 2034 4250 
Q 1547 4250 1301 3770 
Q 1056 3291 1056 2328 
Q 1056 1369 1301 889 
Q 1547 409 2034 409 
Q 2525 409 2770 889 
Q 3016 1369 3016 2328 
Q 3016 3291 2770 3770 
Q 2525 4250 2034 4250 
z
M 2034 4750 
Q 2819 4750 3233 4129 
Q 3647 3509 3647 2328 
Q 3647 1150 3233 529 
Q 2819 -91 2034 -91 
Q 1250 -91 836 529 
Q 422 1150 422 2328 
Q 422 3509 836 4129 
Q 1250 4750 2034 4750 
z
" transform="scale(0.015625)"/>
       <path id="DejaVuSans-20" transform="scale(0.015625)"/>
       <path id="DejaVuSans-66" d="M 2375 4863 
L 2375 4384 
L 1825 4384 
Q 1516 4384 1395 4259 
Q 1275 4134 1275 3809 
L 1275 3500 
L 2222 3500 
L 2222 3053 
L 1275 3053 
L 1275 0 
L 697 0 
L 697 3053 
L 147 3053 
L 147 3500 
L 697 3500 
L 697 3744 
Q 697 4328 969 4595 
Q 1241 4863 1831 4863 
L 2375 4863 
z
" transform="scale(0.015625)"/>
       <path id="DejaVuSans-44" d="M 1259 4147 
L 1259 519 
L 2022 519 
Q 2988 519 3436 956 
Q 3884 1394 3884 2338 
Q 3884 3275 3436 3711 
Q 2988 4147 2022 4147 
L 1259 4147 
z
M 628 4666 
L 1925 4666 
Q 3281 4666 3915 4102 
Q 4550 3538 4550 2338 
Q 4550 1131 3912 565 
Q 3275 0 1925 0 
L 628 0 
L 628 4666 
z
" transform="scale(0.015625)"/>
      </defs>
      <use xlink:href="#DejaVuSans-6c"/>
      <use xlink:href="#DejaVuSans-6f" x="27.783203"/>
      <use xlink:href="#DejaVuSans-67" x="88.964844"/>
      <use xlink:href="#DejaVuSans-31" x="152.441406"/>
      <use xlink:href="#DejaVuSans-30" x="216.064453"/>
      <use xlink:href="#DejaVuSans-20" x="279.6875"/>
      <use xlink:href="#DejaVuSans-6f" x="311.474609"/>
      <use xlink:href="#DejaVuSans-66" x="372.65625"/>
      <use xlink:href="#DejaVuSans-20" x="407.861328"/>
      <use xlink:href="#DejaVuSans-44" x="439.648438"/>
      <use xlink:href="#DejaVuSans-66" x="516.650391"/>
     </g>
    </g>
   </g>
   <g id="matplotlib.axis_2">
    <g id="ytick_1">
     <g id="line2d_9">
      <path d="M 0 293.76 
L 460.8 293.76 
" clip-path="url(#p3c57977091)" style="fill: none; stroke: #b0b0b0; stroke-width: 0.8; stroke-linecap: square"/>
     </g>
     <g id="line2d_10">
      <defs>
       <path id="m0ac5a9d873" d="M 0 0 
L -3.5 0 
" style="stroke: #000000; stroke-width: 0.8"/>
      </defs>
      <g>
       <use xlink:href="#m0ac5a9d873" x="0" y="293.76" style="stroke: #000000; stroke-width: 0.8"/>
      </g>
     </g>
    </g>
    <g id="ytick_2">
     <g id="line2d_11">
      <path d="M 0 236.274059 
L 460.8 236.274059 
" clip-path="url(#p3c57977091)" style="fill: none; stroke: #b0b0b0; stroke-width: 0.8; stroke-linecap: square"/>
     </g>
     <g id="line2d_12">
      <g>
       <use xlink:href="#m0ac5a9d873" x="0" y="236.274059" style="stroke: #000000; stroke-width: 0.8"/>
      </g>
     </g>
    </g>
    <g id="ytick_3">
     <g id="line2d_13">
      <path d="M 0 178.788119 
L 460.8 178.788119 
" clip-path="url(#p3c57977091)" style="fill: none; stroke: #b0b0b0; stroke-width: 0.8; stroke-linecap: square"/>
     </g>
     <g id="line2d_14">
      <g>
       <use xlink:href="#m0ac5a9d873" x="0" y="178.788119" style="stroke: #000000; stroke-width: 0.8"/>
      </g>
     </g>
    </g>
    <g id="ytick_4">
     <g id="line2d_15">
      <path d="M 0 121.302178 
L 460.8 121.302178 
" clip-path="url(#p3c57977091)" style="fill: none; stroke: #b0b0b0; stroke-width: 0.8; stroke-linecap: square"/>
     </g>
     <g id="line2d_16">
      <g>
       <use xlink:href="#m0ac5a9d873" x="0" y="121.302178" style="stroke: #000000; stroke-width: 0.8"/>
      </g>
     </g>
    </g>
    <g id="ytick_5">
     <g id="line2d_17">
      <path d="M 0 63.816238 
L 460.8 63.816238 
" clip-path="url(#p3c57977091)" style="fill: none; stroke: #b0b0b0; stroke-width: 0.8; stroke-linecap: square"/>
     </g>
     <g id="line2d_18">
      <g>
       <use xlink:href="#m0ac5a9d873" x="0" y="63.816238" style="stroke: #000000; stroke-width: 0.8"/>
      </g>
     </g>
    </g>
    <g id="ytick_6">
     <g id="line2d_19">
      <path d="M 0 6.330297 
L 460.8 6.330297 
" clip-path="url(#p3c57977091)" style="fill: none; stroke: #b0b0b0; stroke-width: 0.8; stroke-linecap: square"/>
     </g>
     <g id="line2d_20">
      <g>
       <use xlink:href="#m0ac5a9d873" x="0" y="6.330297" style="stroke: #000000; stroke-width: 0.8"/>
      </g>
     </g>
    </g>
   </g>
   <g id="line2d_21">
    <path d="M 264.455973 293.76 
L 264.455973 292.961584 
L 268.035577 292.961584 
L 268.035577 292.163168 
L 274.78272 292.163168 
L 274.78272 291.364752 
L 280.317809 291.364752 
L 280.317809 290.566337 
L 281.446791 290.566337 
L 281.446791 289.767921 
L 281.670129 289.767921 
L 281.670129 288.969505 
L 285.622934 288.969505 
L 285.622934 288.171089 
L 287.429425 288.171089 
L 287.429425 287.372673 
L 290.022593 287.372673 
L 290.022593 286.574257 
L 293.727266 286.574257 
L 293.727266 285.775842 
L 295.901181 285.775842 
L 295.901181 284.977426 
L 299.611864 284.977426 
L 299.611864 284.17901 
L 302.320227 284.17901 
L 302.320227 283.380594 
L 305.561941 283.380594 
L 305.561941 282.582178 
L 305.931339 282.582178 
L 305.931339 281.783762 
L 308.017284 281.783762 
L 308.017284 280.985347 
L 310.741465 280.985347 
L 310.78756 279.388515 
L 310.869493 279.388515 
L 310.878761 277.791683 
L 311.553033 277.791683 
L 311.553033 276.993267 
L 311.916909 276.993267 
L 311.916909 276.194851 
L 312.062845 276.194851 
L 312.062845 275.396436 
L 314.270449 275.396436 
L 314.270449 274.59802 
L 314.571984 274.59802 
L 314.571984 273.799604 
L 314.696896 273.799604 
L 314.713448 272.202772 
L 315.256441 272.202772 
L 315.299417 270.605941 
L 317.198635 270.605941 
L 317.198635 269.807525 
L 317.315446 269.807525 
L 317.413199 268.210693 
L 317.754214 268.210693 
L 317.754214 267.412277 
L 317.878281 267.412277 
L 317.878281 266.613861 
L 318.162405 266.613861 
L 318.162405 265.815446 
L 318.312079 265.815446 
L 318.312079 265.01703 
L 319.016305 265.01703 
L 319.016305 264.218614 
L 319.260251 264.218614 
L 319.260251 263.420198 
L 319.614019 263.420198 
L 319.654156 261.823366 
L 319.958123 261.823366 
L 319.958123 261.02495 
L 320.107162 261.02495 
L 320.107162 260.226535 
L 320.302083 260.226535 
L 320.341922 258.629703 
L 320.575868 258.629703 
L 320.575868 257.831287 
L 321.185327 257.831287 
L 321.185327 257.032871 
L 321.456753 257.032871 
L 321.556148 254.637624 
L 321.607956 254.637624 
L 321.607956 253.839208 
L 321.79524 253.839208 
L 321.9053 251.44396 
L 322.019138 251.44396 
L 322.107756 249.847129 
L 322.134749 249.847129 
L 322.134749 249.048713 
L 322.257972 249.048713 
L 322.330563 245.85505 
L 322.517678 245.85505 
L 322.628042 243.459802 
L 322.723736 243.459802 
L 322.723736 242.661386 
L 322.86216 242.661386 
L 322.86216 241.86297 
L 323.049121 241.86297 
L 323.049121 241.064554 
L 323.263218 241.064554 
L 323.373955 237.870891 
L 323.451872 237.870891 
L 323.451872 237.072475 
L 323.653458 237.072475 
L 323.680466 234.677228 
L 323.816084 234.677228 
L 323.816084 233.878812 
L 324.005389 233.878812 
L 324.109702 232.28198 
L 324.19216 232.28198 
L 324.19216 231.483564 
L 325.105512 231.483564 
L 325.207117 229.088317 
L 325.534171 229.088317 
L 325.618721 227.491485 
L 325.693682 227.491485 
L 325.702979 225.894653 
L 325.829465 225.894653 
L 325.830713 224.297822 
L 326.118659 224.297822 
L 326.212779 220.305743 
L 326.335798 220.305743 
L 326.335798 219.507327 
L 326.78963 219.507327 
L 326.851871 217.910495 
L 326.965217 217.910495 
L 327.039939 215.515248 
L 327.212948 215.515248 
L 327.212948 214.716832 
L 327.3989 214.716832 
L 327.456665 213.12 
L 327.789326 213.12 
L 327.864945 210.724752 
L 327.983393 210.724752 
L 328.04057 209.127921 
L 328.413793 209.127921 
L 328.413793 208.329505 
L 328.548709 208.329505 
L 328.618565 206.732673 
L 328.703937 206.732673 
L 328.774206 203.53901 
L 328.892555 203.53901 
L 328.892555 202.740594 
L 329.138315 202.740594 
L 329.185823 200.345347 
L 329.36536 200.345347 
L 329.44213 197.950099 
L 329.723458 197.950099 
L 329.72569 196.353267 
L 329.894332 196.353267 
L 329.941672 194.756436 
L 330.044111 194.756436 
L 330.117864 192.361188 
L 330.161276 192.361188 
L 330.263529 189.965941 
L 330.277427 189.965941 
L 330.277427 189.167525 
L 330.492122 189.167525 
L 330.497873 187.570693 
L 330.730398 187.570693 
L 330.804941 185.973861 
L 330.981587 185.973861 
L 330.981587 185.175446 
L 331.725596 185.175446 
L 331.725596 184.37703 
L 332.04066 184.37703 
L 332.09216 182.780198 
L 332.309551 182.780198 
L 332.309551 181.981782 
L 332.955552 181.981782 
L 332.998262 180.38495 
L 333.208943 180.38495 
L 333.318221 177.989703 
L 333.46149 177.989703 
L 333.564831 176.392871 
L 333.824043 176.392871 
L 333.886108 173.997624 
L 334.667075 173.997624 
L 334.667075 173.199208 
L 335.046255 173.199208 
L 335.069549 171.602376 
L 335.497091 171.602376 
L 335.60525 169.207129 
L 335.637611 169.207129 
L 335.7419 167.610297 
L 335.853831 167.610297 
L 335.86591 166.013465 
L 336.069989 166.013465 
L 336.069989 165.21505 
L 336.207009 165.21505 
L 336.207009 164.416634 
L 336.321874 164.416634 
L 336.321874 163.618218 
L 336.495228 163.618218 
L 336.517445 161.22297 
L 336.614635 161.22297 
L 336.614635 160.424554 
L 336.7259 160.424554 
L 336.7259 159.626139 
L 336.884457 159.626139 
L 336.884457 158.827723 
L 337.024675 158.827723 
L 337.083222 157.230891 
L 337.232024 157.230891 
L 337.24767 154.835644 
L 337.932851 154.835644 
L 337.932851 154.037228 
L 338.099669 154.037228 
L 338.149368 152.440396 
L 338.323998 152.440396 
L 338.323998 151.64198 
L 338.523383 151.64198 
L 338.549299 150.045149 
L 339.162435 150.045149 
L 339.263047 148.448317 
L 339.450828 148.448317 
L 339.450828 147.649901 
L 339.642382 147.649901 
L 339.642382 146.851485 
L 340.244842 146.851485 
L 340.244842 146.053069 
L 340.578487 146.053069 
L 340.672439 144.456238 
L 340.839243 144.456238 
L 340.914365 142.859406 
L 341.015315 142.859406 
L 341.121645 140.464158 
L 341.736884 140.464158 
L 341.838829 138.867327 
L 342.017599 138.867327 
L 342.10857 135.673663 
L 342.316507 135.673663 
L 342.316507 134.875248 
L 342.464905 134.875248 
L 342.470166 133.278416 
L 342.674044 133.278416 
L 342.674044 132.48 
L 343.063635 132.48 
L 343.063635 131.681584 
L 343.322745 131.681584 
L 343.373817 130.084752 
L 343.441728 130.084752 
L 343.475976 128.487921 
L 343.695883 128.487921 
L 343.801257 126.891089 
L 343.892917 126.891089 
L 343.938367 125.294257 
L 344.156012 125.294257 
L 344.156012 124.495842 
L 344.268683 124.495842 
L 344.321929 122.89901 
L 344.553801 122.89901 
L 344.619398 120.503762 
L 344.762975 120.503762 
L 344.79928 118.906931 
L 344.920199 118.906931 
L 344.920199 118.108515 
L 345.237351 118.108515 
L 345.280245 115.713267 
L 345.70101 115.713267 
L 345.70101 114.914851 
L 345.821542 114.914851 
L 345.821542 114.116436 
L 346.057206 114.116436 
L 346.057206 113.31802 
L 346.184417 113.31802 
L 346.184417 112.519604 
L 346.33362 112.519604 
L 346.33362 111.721188 
L 346.475452 111.721188 
L 346.475452 110.922772 
L 346.633288 110.922772 
L 346.633288 110.124356 
L 347.055492 110.124356 
L 347.064517 108.527525 
L 347.312069 108.527525 
L 347.312069 107.729109 
L 347.533167 107.729109 
L 347.533167 106.930693 
L 347.763973 106.930693 
L 347.859094 102.938614 
L 347.913846 102.938614 
L 348.011694 99.74495 
L 348.145947 99.74495 
L 348.234027 96.551287 
L 348.402431 96.551287 
L 348.45649 94.954455 
L 348.597424 94.954455 
L 348.597424 94.15604 
L 348.8129 94.15604 
L 348.889958 90.962376 
L 349.048656 90.962376 
L 349.089563 89.365545 
L 349.205728 89.365545 
L 349.205728 88.567129 
L 349.392733 88.567129 
L 349.39817 86.970297 
L 349.564788 86.970297 
L 349.577232 85.373465 
L 349.68696 85.373465 
L 349.748357 82.978218 
L 349.831595 82.978218 
L 349.831595 82.179802 
L 350.048358 82.179802 
L 350.141275 79.784554 
L 350.163931 79.784554 
L 350.226518 77.389307 
L 350.373569 77.389307 
L 350.373569 76.590891 
L 350.516362 76.590891 
L 350.516362 75.792475 
L 350.792784 75.792475 
L 350.792784 74.994059 
L 351.01496 74.994059 
L 351.089436 73.397228 
L 351.219468 73.397228 
L 351.280215 71.800396 
L 351.334484 71.800396 
L 351.343183 70.203564 
L 351.668127 70.203564 
L 351.761682 67.009901 
L 352.272303 67.009901 
L 352.356218 65.413069 
L 352.451941 65.413069 
L 352.55264 63.816238 
L 352.900343 63.816238 
L 352.900343 63.017822 
L 353.087638 63.017822 
L 353.087638 62.219406 
L 353.331806 62.219406 
L 353.362871 60.622574 
L 353.46434 60.622574 
L 353.553077 59.025743 
L 354.083171 59.025743 
L 354.083171 58.227327 
L 354.210719 58.227327 
L 354.309844 56.630495 
L 355.852881 56.630495 
L 355.852881 55.832079 
L 357.499557 55.832079 
L 357.499557 55.033663 
L 357.922236 55.033663 
L 357.922236 54.235248 
L 358.133069 54.235248 
L 358.133069 53.436832 
L 359.57729 53.436832 
L 359.57729 52.638416 
L 359.832944 52.638416 
L 359.832944 51.84 
L 359.957519 51.84 
L 359.957519 51.041584 
L 360.665243 51.041584 
L 360.665243 50.243168 
L 362.096604 50.243168 
L 362.105299 48.646337 
L 363.458603 48.646337 
L 363.458603 47.847921 
L 363.718338 47.847921 
L 363.718338 47.049505 
L 364.685941 47.049505 
L 364.685941 46.251089 
L 365.289771 46.251089 
L 365.393964 43.855842 
L 365.547275 43.855842 
L 365.547275 43.057426 
L 365.829535 43.057426 
L 365.829535 42.25901 
L 366.134129 42.25901 
L 366.134129 41.460594 
L 366.42316 41.460594 
L 366.42316 40.662178 
L 367.782005 40.662178 
L 367.782005 39.863762 
L 369.409103 39.863762 
L 369.409103 39.065347 
L 371.61971 39.065347 
L 371.61971 38.266931 
L 371.760844 38.266931 
L 371.760844 37.468515 
L 372.193543 37.468515 
L 372.193543 36.670099 
L 372.307374 36.670099 
L 372.307374 35.871683 
L 374.51016 35.871683 
L 374.51016 35.073267 
L 374.825153 35.073267 
L 374.825153 34.274851 
L 376.002513 34.274851 
L 376.002513 33.476436 
L 376.535073 33.476436 
L 376.535073 32.67802 
L 376.77306 32.67802 
L 376.77306 31.879604 
L 377.120977 31.879604 
L 377.120977 31.081188 
L 377.509606 31.081188 
L 377.509606 30.282772 
L 378.086627 30.282772 
L 378.086627 29.484356 
L 378.249899 29.484356 
L 378.318817 27.887525 
L 378.738824 27.887525 
L 378.738824 27.089109 
L 381.220468 27.089109 
L 381.220468 26.290693 
L 381.355828 26.290693 
L 381.355828 25.492277 
L 382.520858 25.492277 
L 382.523288 23.895446 
L 385.634238 23.895446 
L 385.687944 22.298614 
L 386.095492 22.298614 
L 386.095492 21.500198 
L 386.49526 21.500198 
L 386.49526 20.701782 
L 386.83989 20.701782 
L 386.83989 19.903366 
L 389.684731 19.903366 
L 389.684731 19.10495 
L 389.862808 19.10495 
L 389.862808 18.306535 
L 389.979433 18.306535 
L 389.979433 17.508119 
L 391.277054 17.508119 
L 391.277054 16.709703 
L 392.636607 16.709703 
L 392.636607 15.911287 
L 393.379792 15.911287 
L 393.379792 15.112871 
L 394.890156 15.112871 
L 394.890156 14.314455 
L 395.264598 14.314455 
L 395.264598 13.51604 
L 396.483277 13.51604 
L 396.483277 12.717624 
L 397.292961 12.717624 
L 397.292961 11.919208 
L 398.433968 11.919208 
L 398.433968 11.120792 
L 398.767145 11.120792 
L 398.767145 10.322376 
L 403.140519 10.322376 
L 403.140519 9.52396 
L 403.45559 9.52396 
L 403.45559 8.725545 
L 404.351217 8.725545 
L 404.351217 7.927129 
L 408.533105 7.927129 
L 408.594895 6.330297 
L 408.594895 6.330297 
L 460.8 6.330297 
L 460.8 6.330297 
" clip-path="url(#p3c57977091)" style="fill: none; stroke: #ff0000; stroke-width: 3; stroke-linecap: square"/>
   </g>
   <g id="line2d_22">
    <path d="M 317.782859 293.76 
L 317.782859 292.961584 
L 318.134937 292.961584 
L 318.134937 292.163168 
L 318.581977 292.163168 
L 318.581977 291.364752 
L 322.354787 291.364752 
L 322.354787 290.566337 
L 322.525584 290.566337 
L 322.525584 289.767921 
L 323.012916 289.767921 
L 323.012916 288.969505 
L 323.784237 288.969505 
L 323.833855 287.372673 
L 324.213243 287.372673 
L 324.213243 286.574257 
L 326.170325 286.574257 
L 326.170325 285.775842 
L 326.647118 285.775842 
L 326.647118 284.977426 
L 327.146953 284.977426 
L 327.146953 284.17901 
L 328.04057 284.17901 
L 328.123491 282.582178 
L 328.241601 282.582178 
L 328.33318 280.985347 
L 328.738056 280.985347 
L 328.738056 280.186931 
L 329.359685 280.186931 
L 329.359685 279.388515 
L 329.597275 279.388515 
L 329.646471 277.791683 
L 330.194178 277.791683 
L 330.194178 276.993267 
L 330.436978 276.993267 
L 330.436978 276.194851 
L 330.719676 276.194851 
L 330.719676 275.396436 
L 330.862014 275.396436 
L 330.972134 273.799604 
L 331.086382 273.799604 
L 331.086382 273.001188 
L 331.270699 273.001188 
L 331.270699 272.202772 
L 331.435933 272.202772 
L 331.447287 270.605941 
L 331.725596 270.605941 
L 331.725596 269.807525 
L 332.045449 269.807525 
L 332.045449 269.009109 
L 332.246125 269.009109 
L 332.290239 267.412277 
L 332.586173 267.412277 
L 332.586173 266.613861 
L 333.027435 266.613861 
L 333.027688 265.01703 
L 333.228084 265.01703 
L 333.318221 263.420198 
L 333.401321 263.420198 
L 333.401321 262.621782 
L 333.717294 262.621782 
L 333.717294 261.823366 
L 333.886108 261.823366 
L 333.886108 261.02495 
L 334.213829 261.02495 
L 334.213829 260.226535 
L 334.367983 260.226535 
L 334.367983 259.428119 
L 334.481205 259.428119 
L 334.481205 258.629703 
L 334.600331 258.629703 
L 334.600331 257.831287 
L 334.909859 257.831287 
L 334.909859 257.032871 
L 335.19625 257.032871 
L 335.3031 255.43604 
L 335.462765 255.43604 
L 335.516026 253.040792 
L 335.797072 253.040792 
L 335.885832 251.44396 
L 335.978832 251.44396 
L 335.978832 250.645545 
L 336.128184 250.645545 
L 336.128184 249.847129 
L 336.515425 249.847129 
L 336.515425 249.048713 
L 336.644308 249.048713 
L 336.644308 248.250297 
L 336.800591 248.250297 
L 336.834364 246.653465 
L 337.091707 246.653465 
L 337.186114 245.056634 
L 337.646831 245.056634 
L 337.74054 242.661386 
L 337.819199 242.661386 
L 337.901513 241.064554 
L 338.002939 241.064554 
L 338.002939 240.266139 
L 338.126021 240.266139 
L 338.126021 239.467723 
L 338.249606 239.467723 
L 338.249606 238.669307 
L 338.446621 238.669307 
L 338.480263 236.274059 
L 338.590066 236.274059 
L 338.590066 235.475644 
L 338.810946 235.475644 
L 338.810946 234.677228 
L 339.102132 234.677228 
L 339.193346 233.080396 
L 339.228287 233.080396 
L 339.256901 231.483564 
L 339.490287 231.483564 
L 339.490287 230.685149 
L 339.776685 230.685149 
L 339.87991 229.088317 
L 340.088339 229.088317 
L 340.088339 228.289901 
L 340.704769 228.289901 
L 340.704769 227.491485 
L 341.006607 227.491485 
L 341.093923 225.894653 
L 341.424929 225.894653 
L 341.515271 224.297822 
L 341.613081 224.297822 
L 341.613081 223.499406 
L 342.262154 223.499406 
L 342.291572 221.902574 
L 342.397708 221.902574 
L 342.468237 220.305743 
L 343.44816 220.305743 
L 343.503907 218.708911 
L 343.639763 218.708911 
L 343.711316 217.112079 
L 343.807209 217.112079 
L 343.853389 215.515248 
L 343.966886 215.515248 
L 343.966886 214.716832 
L 344.301438 214.716832 
L 344.373583 212.321584 
L 344.498209 212.321584 
L 344.498209 211.523168 
L 345.078306 211.523168 
L 345.078306 210.724752 
L 345.52284 210.724752 
L 345.52284 209.926337 
L 345.906749 209.926337 
L 345.920834 208.329505 
L 346.35267 208.329505 
L 346.35267 207.531089 
L 346.487402 207.531089 
L 346.530816 205.135842 
L 346.65077 205.135842 
L 346.73452 203.53901 
L 346.762327 203.53901 
L 346.782993 201.942178 
L 346.95347 201.942178 
L 347.064517 200.345347 
L 347.200287 200.345347 
L 347.200287 199.546931 
L 347.343726 199.546931 
L 347.343726 198.748515 
L 347.578863 198.748515 
L 347.609447 196.353267 
L 347.69927 196.353267 
L 347.69927 195.554851 
L 347.827688 195.554851 
L 347.827688 194.756436 
L 348.018413 194.756436 
L 348.082625 191.562772 
L 348.228861 191.562772 
L 348.327696 189.167525 
L 348.476817 189.167525 
L 348.5331 187.570693 
L 348.58844 187.570693 
L 348.58844 186.772277 
L 348.817957 186.772277 
L 348.888668 185.175446 
L 349.21754 185.175446 
L 349.302042 182.780198 
L 349.600704 182.780198 
L 349.704114 177.191287 
L 349.736012 177.191287 
L 349.835701 175.594455 
L 349.905618 175.594455 
L 349.991833 173.199208 
L 350.074577 173.199208 
L 350.162634 170.80396 
L 350.187166 170.80396 
L 350.292787 167.610297 
L 350.366647 167.610297 
L 350.400331 165.21505 
L 350.588195 165.21505 
L 350.657025 162.819802 
L 350.956247 162.819802 
L 350.956247 162.021386 
L 351.086961 162.021386 
L 351.086961 161.22297 
L 351.217998 161.22297 
L 351.222044 159.626139 
L 351.375623 159.626139 
L 351.375623 158.827723 
L 351.539362 158.827723 
L 351.544173 157.230891 
L 352.018228 157.230891 
L 352.055667 155.634059 
L 352.834206 155.634059 
L 352.834206 154.835644 
L 353.079552 154.835644 
L 353.10335 153.238812 
L 353.3094 153.238812 
L 353.3094 152.440396 
L 353.447671 152.440396 
L 353.522992 150.843564 
L 353.59423 150.843564 
L 353.59423 150.045149 
L 354.207189 150.045149 
L 354.315152 148.448317 
L 354.380121 148.448317 
L 354.477661 146.851485 
L 355.194687 146.851485 
L 355.194687 146.053069 
L 355.43534 146.053069 
L 355.460591 144.456238 
L 355.670011 144.456238 
L 355.670011 143.657822 
L 355.802511 143.657822 
L 355.802511 142.859406 
L 355.976844 142.859406 
L 355.976844 142.06099 
L 356.407317 142.06099 
L 356.407317 141.262574 
L 356.755587 141.262574 
L 356.77866 139.665743 
L 357.024219 139.665743 
L 357.135241 138.068911 
L 357.153121 138.068911 
L 357.153121 137.270495 
L 357.275798 137.270495 
L 357.275798 136.472079 
L 357.433712 136.472079 
L 357.433712 135.673663 
L 357.814994 135.673663 
L 357.922724 134.076832 
L 358.031935 134.076832 
L 358.031935 133.278416 
L 358.25411 133.278416 
L 358.25411 132.48 
L 358.389885 132.48 
L 358.486392 129.286337 
L 358.559563 129.286337 
L 358.559563 128.487921 
L 358.695504 128.487921 
L 358.695504 127.689505 
L 359.109058 127.689505 
L 359.204327 126.092673 
L 359.418295 126.092673 
L 359.511082 123.697426 
L 359.694706 123.697426 
L 359.790499 122.100594 
L 359.884626 122.100594 
L 359.884626 121.302178 
L 360.220708 121.302178 
L 360.27491 119.705347 
L 360.340036 119.705347 
L 360.340036 118.906931 
L 360.644826 118.906931 
L 360.693669 116.511683 
L 360.802465 116.511683 
L 360.802465 115.713267 
L 360.960891 115.713267 
L 360.960891 114.914851 
L 361.133164 114.914851 
L 361.133164 114.116436 
L 361.38484 114.116436 
L 361.451925 112.519604 
L 361.95291 112.519604 
L 361.95291 111.721188 
L 362.230652 111.721188 
L 362.310122 109.325941 
L 362.582507 109.325941 
L 362.683703 107.729109 
L 362.863421 107.729109 
L 362.863421 106.930693 
L 363.556862 106.930693 
L 363.654496 105.333861 
L 363.780749 105.333861 
L 363.780749 104.535446 
L 364.075285 104.535446 
L 364.075285 103.73703 
L 364.572751 103.73703 
L 364.572751 102.938614 
L 364.841322 102.938614 
L 364.841322 102.140198 
L 364.978197 102.140198 
L 364.978197 101.341782 
L 365.377123 101.341782 
L 365.454775 99.74495 
L 365.686072 99.74495 
L 365.72579 97.349703 
L 366.056036 97.349703 
L 366.078435 95.752871 
L 366.553397 95.752871 
L 366.553397 94.954455 
L 367.097893 94.954455 
L 367.097893 94.15604 
L 367.304852 94.15604 
L 367.406032 92.559208 
L 369.142303 92.559208 
L 369.142303 91.760792 
L 369.683401 91.760792 
L 369.683401 90.962376 
L 371.162553 90.962376 
L 371.162553 90.16396 
L 372.014292 90.16396 
L 372.042414 88.567129 
L 372.888864 88.567129 
L 372.888864 87.768713 
L 373.010858 87.768713 
L 373.037175 86.171881 
L 373.256605 86.171881 
L 373.256605 85.373465 
L 373.631963 85.373465 
L 373.631963 84.57505 
L 375.019824 84.57505 
L 375.037263 82.978218 
L 375.40853 82.978218 
L 375.40853 82.179802 
L 376.300879 82.179802 
L 376.300879 81.381386 
L 377.041528 81.381386 
L 377.041528 80.58297 
L 377.32226 80.58297 
L 377.32226 79.784554 
L 378.089349 79.784554 
L 378.089349 78.986139 
L 378.608088 78.986139 
L 378.608088 78.187723 
L 380.322358 78.187723 
L 380.322358 77.389307 
L 380.822845 77.389307 
L 380.882328 75.792475 
L 381.212153 75.792475 
L 381.212153 74.994059 
L 381.358264 74.994059 
L 381.358264 74.195644 
L 382.147059 74.195644 
L 382.147059 73.397228 
L 382.524389 73.397228 
L 382.524389 72.598812 
L 383.463207 72.598812 
L 383.463207 71.800396 
L 384.130351 71.800396 
L 384.130351 71.00198 
L 384.562866 71.00198 
L 384.562866 70.203564 
L 385.216043 70.203564 
L 385.216043 69.405149 
L 385.978613 69.405149 
L 385.978613 68.606733 
L 386.36317 68.606733 
L 386.36317 67.808317 
L 387.109392 67.808317 
L 387.109392 67.009901 
L 387.689326 67.009901 
L 387.689326 66.211485 
L 388.834117 66.211485 
L 388.834117 65.413069 
L 390.803085 65.413069 
L 390.803085 64.614653 
L 391.353 64.614653 
L 391.353 63.816238 
L 392.07545 63.816238 
L 392.07545 63.017822 
L 392.580144 63.017822 
L 392.580144 62.219406 
L 394.092818 62.219406 
L 394.092818 61.42099 
L 395.042297 61.42099 
L 395.042297 60.622574 
L 397.043803 60.622574 
L 397.043803 59.824158 
L 397.161495 59.824158 
L 397.161495 59.025743 
L 397.534716 59.025743 
L 397.534716 58.227327 
L 398.485199 58.227327 
L 398.485199 57.428911 
L 398.755206 57.428911 
L 398.755206 56.630495 
L 398.896138 56.630495 
L 398.896138 55.832079 
L 399.266198 55.832079 
L 399.266198 55.033663 
L 399.519639 55.033663 
L 399.519639 54.235248 
L 399.769635 54.235248 
L 399.769635 53.436832 
L 399.900663 53.436832 
L 399.900663 52.638416 
L 400.28477 52.638416 
L 400.374644 50.243168 
L 400.594055 50.243168 
L 400.594055 49.444752 
L 402.70115 49.444752 
L 402.735695 47.847921 
L 402.911536 47.847921 
L 402.911536 47.049505 
L 403.040574 47.049505 
L 403.128989 45.452673 
L 403.670187 45.452673 
L 403.670187 44.654257 
L 403.790068 44.654257 
L 403.860083 42.25901 
L 404.72355 42.25901 
L 404.72355 41.460594 
L 405.529868 41.460594 
L 405.529868 40.662178 
L 405.694973 40.662178 
L 405.694973 39.863762 
L 406.312507 39.863762 
L 406.334228 38.266931 
L 407.913931 38.266931 
L 407.913931 37.468515 
L 409.386301 37.468515 
L 409.386301 36.670099 
L 409.745974 36.670099 
L 409.745974 35.871683 
L 410.573219 35.871683 
L 410.573219 35.073267 
L 410.782636 35.073267 
L 410.782636 34.274851 
L 411.021835 34.274851 
L 411.021835 33.476436 
L 411.351412 33.476436 
L 411.351412 32.67802 
L 411.843573 32.67802 
L 411.933976 31.081188 
L 412.585875 31.081188 
L 412.585875 30.282772 
L 413.009591 30.282772 
L 413.009591 29.484356 
L 413.266942 29.484356 
L 413.266942 28.685941 
L 413.872214 28.685941 
L 413.872214 27.887525 
L 414.041098 27.887525 
L 414.091513 26.290693 
L 414.566345 26.290693 
L 414.566345 25.492277 
L 415.213547 25.492277 
L 415.213547 24.693861 
L 416.187459 24.693861 
L 416.187459 23.895446 
L 416.367397 23.895446 
L 416.367397 23.09703 
L 416.891958 23.09703 
L 416.947512 21.500198 
L 417.185206 21.500198 
L 417.185206 20.701782 
L 417.459415 20.701782 
L 417.558231 19.10495 
L 420.500561 19.10495 
L 420.500561 18.306535 
L 421.213937 18.306535 
L 421.264057 16.709703 
L 421.691298 16.709703 
L 421.691298 15.911287 
L 422.368479 15.911287 
L 422.368479 15.112871 
L 422.846228 15.112871 
L 422.846228 14.314455 
L 422.977842 14.314455 
L 422.977842 13.51604 
L 424.438906 13.51604 
L 424.480253 11.919208 
L 426.378942 11.919208 
L 426.378942 11.120792 
L 426.663585 11.120792 
L 426.663585 10.322376 
L 428.563161 10.322376 
L 428.563161 9.52396 
L 430.800086 9.52396 
L 430.800086 8.725545 
L 432.85749 8.725545 
L 432.85749 7.927129 
L 444.586412 7.927129 
L 444.586412 7.128713 
L 451.450284 7.128713 
L 451.450284 6.330297 
L 451.450284 6.330297 
L 460.8 6.330297 
L 460.8 6.330297 
" clip-path="url(#p3c57977091)" style="fill: none; stroke: #00bfbf; stroke-width: 1.5; stroke-linecap: square"/>
   </g>
   <g id="line2d_23">
    <path d="M 310.741465 293.76 
L 310.741465 292.961584 
L 317.14343 292.961584 
L 317.14343 292.163168 
L 317.782859 292.163168 
L 317.782859 291.364752 
L 318.134937 291.364752 
L 318.134937 290.566337 
L 318.413474 290.566337 
L 318.413474 289.767921 
L 318.581977 289.767921 
L 318.581977 288.969505 
L 320.085446 288.969505 
L 320.085446 288.171089 
L 322.354787 288.171089 
L 322.354787 287.372673 
L 322.525584 287.372673 
L 322.525584 286.574257 
L 323.065817 286.574257 
L 323.065817 285.775842 
L 323.181989 285.775842 
L 323.181989 284.977426 
L 323.811916 284.977426 
L 323.833855 283.380594 
L 324.177556 283.380594 
L 324.213243 281.783762 
L 325.511946 281.783762 
L 325.511946 280.985347 
L 326.126365 280.985347 
L 326.170325 279.388515 
L 326.459993 279.388515 
L 326.459993 278.590099 
L 326.647118 278.590099 
L 326.647118 277.791683 
L 327.080206 277.791683 
L 327.080206 276.993267 
L 327.398558 276.993267 
L 327.447691 275.396436 
L 327.5999 275.396436 
L 327.5999 274.59802 
L 327.864945 274.59802 
L 327.864945 273.799604 
L 328.020309 273.799604 
L 328.123491 271.404356 
L 328.442879 271.404356 
L 328.442879 270.605941 
L 328.738056 270.605941 
L 328.738056 269.807525 
L 328.854623 269.807525 
L 328.942186 268.210693 
L 329.169748 268.210693 
L 329.169748 267.412277 
L 329.404259 267.412277 
L 329.404259 266.613861 
L 329.597275 266.613861 
L 329.675541 263.420198 
L 329.987867 263.420198 
L 329.987867 262.621782 
L 330.355825 262.621782 
L 330.436978 260.226535 
L 330.526017 260.226535 
L 330.526017 259.428119 
L 330.719676 259.428119 
L 330.719676 258.629703 
L 331.270478 258.629703 
L 331.270478 257.831287 
L 331.670525 257.831287 
L 331.725596 256.234455 
L 331.894889 256.234455 
L 331.894889 255.43604 
L 332.144736 255.43604 
L 332.144736 254.637624 
L 332.290239 254.637624 
L 332.290239 253.839208 
L 332.424532 253.839208 
L 332.424532 253.040792 
L 332.537855 253.040792 
L 332.597173 251.44396 
L 333.027435 251.44396 
L 333.049135 249.847129 
L 333.318221 249.847129 
L 333.318221 249.048713 
L 333.449596 249.048713 
L 333.537576 246.653465 
L 333.618996 246.653465 
L 333.618996 245.85505 
L 333.886108 245.85505 
L 333.886108 245.056634 
L 334.354364 245.056634 
L 334.354364 244.258218 
L 334.481205 244.258218 
L 334.481205 243.459802 
L 334.600331 243.459802 
L 334.600331 242.661386 
L 334.7507 242.661386 
L 334.831147 241.064554 
L 334.909859 241.064554 
L 334.925576 239.467723 
L 335.19625 239.467723 
L 335.3031 236.274059 
L 335.486513 236.274059 
L 335.486513 235.475644 
L 335.60525 235.475644 
L 335.60525 234.677228 
L 335.775455 234.677228 
L 335.885832 232.28198 
L 335.951741 232.28198 
L 335.978832 230.685149 
L 336.128184 230.685149 
L 336.128184 229.886733 
L 336.258558 229.886733 
L 336.258558 229.088317 
L 336.457932 229.088317 
L 336.517445 226.693069 
L 336.645805 226.693069 
L 336.645805 225.894653 
L 336.800591 225.894653 
L 336.834364 224.297822 
L 336.95966 224.297822 
L 336.95966 223.499406 
L 337.091707 223.499406 
L 337.091707 222.70099 
L 337.669199 222.70099 
L 337.692321 221.104158 
L 337.819199 221.104158 
L 337.901513 219.507327 
L 338.002939 219.507327 
L 338.002939 218.708911 
L 338.126021 218.708911 
L 338.126021 217.910495 
L 338.239114 217.910495 
L 338.249606 215.515248 
L 338.413979 215.515248 
L 338.474927 213.918416 
L 338.790528 213.918416 
L 338.790528 213.12 
L 339.142384 213.12 
L 339.142384 212.321584 
L 339.642382 212.321584 
L 339.642382 211.523168 
L 339.776685 211.523168 
L 339.776685 210.724752 
L 339.940579 210.724752 
L 339.98635 209.127921 
L 340.088339 209.127921 
L 340.196858 207.531089 
L 340.365776 207.531089 
L 340.376198 205.934257 
L 340.568753 205.934257 
L 340.568753 205.135842 
L 340.704769 205.135842 
L 340.704769 204.337426 
L 341.006607 204.337426 
L 341.006607 203.53901 
L 341.181768 203.53901 
L 341.181768 202.740594 
L 341.323682 202.740594 
L 341.323682 201.942178 
L 341.515271 201.942178 
L 341.515271 201.143762 
L 341.71541 201.143762 
L 341.738061 199.546931 
L 341.852097 199.546931 
L 341.852097 198.748515 
L 341.990223 198.748515 
L 342.07626 197.151683 
L 342.397708 197.151683 
L 342.397708 196.353267 
L 343.108875 196.353267 
L 343.108875 195.554851 
L 343.540666 195.554851 
L 343.639763 193.159604 
L 343.711316 193.159604 
L 343.807209 191.562772 
L 343.853389 191.562772 
L 343.923744 189.965941 
L 344.301438 189.965941 
L 344.301438 189.167525 
L 344.591945 189.167525 
L 344.591945 188.369109 
L 345.52284 188.369109 
L 345.570059 186.772277 
L 345.672721 186.772277 
L 345.70101 185.175446 
L 345.906749 185.175446 
L 345.932918 182.780198 
L 346.35267 182.780198 
L 346.35267 181.981782 
L 346.487402 181.981782 
L 346.487402 181.183366 
L 346.65077 181.183366 
L 346.73452 179.586535 
L 346.762327 179.586535 
L 346.762327 178.788119 
L 346.95347 178.788119 
L 347.064517 176.392871 
L 347.160315 176.392871 
L 347.200287 174.79604 
L 347.343726 174.79604 
L 347.425715 172.400792 
L 347.522571 172.400792 
L 347.587803 170.80396 
L 347.806602 170.80396 
L 347.831438 168.408713 
L 348.018413 168.408713 
L 348.018413 167.610297 
L 348.228861 167.610297 
L 348.242205 166.013465 
L 348.469924 166.013465 
L 348.5331 164.416634 
L 348.58844 164.416634 
L 348.698392 162.819802 
L 348.817957 162.819802 
L 348.888668 161.22297 
L 349.069346 161.22297 
L 349.069346 160.424554 
L 349.182524 160.424554 
L 349.280443 158.827723 
L 349.577232 158.827723 
L 349.659024 156.432475 
L 349.704114 156.432475 
L 349.780864 154.037228 
L 349.835701 154.037228 
L 349.905618 152.440396 
L 349.951025 152.440396 
L 349.951025 151.64198 
L 350.130979 151.64198 
L 350.200918 149.246733 
L 350.292787 149.246733 
L 350.382714 147.649901 
L 350.561668 147.649901 
L 350.561668 146.851485 
L 350.758236 146.851485 
L 350.758236 146.053069 
L 351.089436 146.053069 
L 351.089436 145.254653 
L 351.222044 145.254653 
L 351.222044 144.456238 
L 351.375623 144.456238 
L 351.375623 143.657822 
L 351.539362 143.657822 
L 351.624592 141.262574 
L 351.68917 141.262574 
L 351.726285 139.665743 
L 351.929647 139.665743 
L 351.929647 138.867327 
L 352.055667 138.867327 
L 352.060252 137.270495 
L 352.356218 137.270495 
L 352.356218 136.472079 
L 352.696641 136.472079 
L 352.749406 134.875248 
L 352.834206 134.875248 
L 352.836622 133.278416 
L 353.103951 133.278416 
L 353.161421 131.681584 
L 353.3094 131.681584 
L 353.3094 130.883168 
L 353.447671 130.883168 
L 353.447671 130.084752 
L 353.596341 130.084752 
L 353.596341 129.286337 
L 353.922753 129.286337 
L 353.922753 128.487921 
L 354.069003 128.487921 
L 354.069003 127.689505 
L 354.315152 127.689505 
L 354.380121 125.294257 
L 354.477661 125.294257 
L 354.477661 124.495842 
L 354.862842 124.495842 
L 354.967501 122.89901 
L 355.138756 122.89901 
L 355.138756 122.100594 
L 355.43534 122.100594 
L 355.43534 121.302178 
L 355.670011 121.302178 
L 355.716049 119.705347 
L 355.786421 119.705347 
L 355.876578 117.310099 
L 355.973573 117.310099 
L 355.976844 115.713267 
L 356.184741 115.713267 
L 356.184741 114.914851 
L 356.407317 114.914851 
L 356.407317 114.116436 
L 356.755587 114.116436 
L 356.77866 112.519604 
L 357.024219 112.519604 
L 357.024219 111.721188 
L 357.153121 111.721188 
L 357.264191 110.124356 
L 357.392497 110.124356 
L 357.421011 107.729109 
L 357.566493 107.729109 
L 357.566493 106.930693 
L 357.814994 106.930693 
L 357.922724 104.535446 
L 358.031935 104.535446 
L 358.031935 103.73703 
L 358.261669 103.73703 
L 358.261669 102.938614 
L 358.45305 102.938614 
L 358.486392 101.341782 
L 358.905962 101.341782 
L 358.905962 100.543366 
L 359.42863 100.543366 
L 359.453813 98.946535 
L 359.567178 98.946535 
L 359.567178 98.148119 
L 359.694706 98.148119 
L 359.694706 97.349703 
L 360.110767 97.349703 
L 360.110767 96.551287 
L 360.419504 96.551287 
L 360.419504 95.752871 
L 360.615133 95.752871 
L 360.693669 94.15604 
L 361.34974 94.15604 
L 361.451925 91.760792 
L 362.230652 91.760792 
L 362.230652 90.962376 
L 363.027231 90.962376 
L 363.027231 90.16396 
L 363.346502 90.16396 
L 363.346502 89.365545 
L 363.654496 89.365545 
L 363.654496 88.567129 
L 363.780749 88.567129 
L 363.780749 87.768713 
L 363.92484 87.768713 
L 363.92484 86.970297 
L 364.075285 86.970297 
L 364.075285 86.171881 
L 364.552409 86.171881 
L 364.552409 85.373465 
L 365.039085 85.373465 
L 365.069158 83.776634 
L 365.289771 83.776634 
L 365.377123 82.179802 
L 365.686072 82.179802 
L 365.689959 80.58297 
L 365.829535 80.58297 
L 365.829535 79.784554 
L 366.553397 79.784554 
L 366.553397 78.986139 
L 367.51277 78.986139 
L 367.51277 78.187723 
L 367.850401 78.187723 
L 367.850401 77.389307 
L 369.683401 77.389307 
L 369.683401 76.590891 
L 370.536867 76.590891 
L 370.536867 75.792475 
L 371.886853 75.792475 
L 371.886853 74.994059 
L 372.178721 74.994059 
L 372.178721 74.195644 
L 372.566125 74.195644 
L 372.566125 73.397228 
L 372.888864 73.397228 
L 372.888864 72.598812 
L 373.010858 72.598812 
L 373.010858 71.800396 
L 373.631963 71.800396 
L 373.631963 71.00198 
L 374.406353 71.00198 
L 374.406353 70.203564 
L 375.019824 70.203564 
L 375.037263 68.606733 
L 376.215634 68.606733 
L 376.300879 67.009901 
L 376.612724 67.009901 
L 376.612724 66.211485 
L 377.258722 66.211485 
L 377.258722 65.413069 
L 377.442817 65.413069 
L 377.442817 64.614653 
L 380.02236 64.614653 
L 380.02236 63.816238 
L 380.322358 63.816238 
L 380.322358 63.017822 
L 381.212153 63.017822 
L 381.212153 62.219406 
L 381.596176 62.219406 
L 381.670887 60.622574 
L 381.816298 60.622574 
L 381.816298 59.824158 
L 381.935906 59.824158 
L 381.935906 59.025743 
L 382.118897 59.025743 
L 382.118897 58.227327 
L 382.986695 58.227327 
L 382.986695 57.428911 
L 383.463207 57.428911 
L 383.463207 56.630495 
L 384.130351 56.630495 
L 384.130351 55.832079 
L 384.272887 55.832079 
L 384.272887 55.033663 
L 385.216043 55.033663 
L 385.292983 53.436832 
L 385.784823 53.436832 
L 385.784823 52.638416 
L 385.978613 52.638416 
L 385.978613 51.84 
L 386.36317 51.84 
L 386.36317 51.041584 
L 387.689326 51.041584 
L 387.689326 50.243168 
L 389.95688 50.243168 
L 389.95688 49.444752 
L 390.386578 49.444752 
L 390.386578 48.646337 
L 390.803085 48.646337 
L 390.803085 47.847921 
L 392.022067 47.847921 
L 392.07545 46.251089 
L 392.580144 46.251089 
L 392.691186 44.654257 
L 393.575955 44.654257 
L 393.575955 43.855842 
L 394.092818 43.855842 
L 394.092818 43.057426 
L 395.156741 43.057426 
L 395.156741 42.25901 
L 395.614077 42.25901 
L 395.614077 41.460594 
L 396.219667 41.460594 
L 396.219667 40.662178 
L 397.161495 40.662178 
L 397.161495 39.863762 
L 398.329059 39.863762 
L 398.329059 39.065347 
L 398.471456 39.065347 
L 398.485199 37.468515 
L 398.755206 37.468515 
L 398.755206 36.670099 
L 399.001375 36.670099 
L 399.001375 35.871683 
L 399.266198 35.871683 
L 399.266198 35.073267 
L 400.119334 35.073267 
L 400.119334 34.274851 
L 400.280698 34.274851 
L 400.374644 31.879604 
L 401.006358 31.879604 
L 401.006358 31.081188 
L 402.735695 31.081188 
L 402.735695 30.282772 
L 402.911536 30.282772 
L 402.911536 29.484356 
L 403.040574 29.484356 
L 403.040574 28.685941 
L 403.650808 28.685941 
L 403.670187 27.089109 
L 404.131639 27.089109 
L 404.131639 26.290693 
L 406.092369 26.290693 
L 406.092369 25.492277 
L 406.312507 25.492277 
L 406.334228 23.895446 
L 406.611898 23.895446 
L 406.611898 23.09703 
L 409.386301 23.09703 
L 409.404876 21.500198 
L 409.759245 21.500198 
L 409.845791 19.903366 
L 410.113823 19.903366 
L 410.223827 18.306535 
L 411.933976 18.306535 
L 411.933976 17.508119 
L 412.54395 17.508119 
L 412.585875 15.911287 
L 413.266942 15.911287 
L 413.266942 15.112871 
L 414.041098 15.112871 
L 414.041098 14.314455 
L 414.566345 14.314455 
L 414.623341 12.717624 
L 416.043629 12.717624 
L 416.043629 11.919208 
L 417.459415 11.919208 
L 417.459415 11.120792 
L 420.108628 11.120792 
L 420.108628 10.322376 
L 420.500561 10.322376 
L 420.500561 9.52396 
L 424.438906 9.52396 
L 424.438906 8.725545 
L 427.064419 8.725545 
L 427.064419 7.927129 
L 430.800086 7.927129 
L 430.800086 7.128713 
L 432.85749 7.128713 
L 432.85749 6.330297 
L 432.85749 6.330297 
L 460.8 6.330297 
L 460.8 6.330297 
" clip-path="url(#p3c57977091)" style="fill: none; stroke: #bf00bf; stroke-width: 1.5; stroke-linecap: square"/>
   </g>
   <g id="line2d_24">
    <path d="M 283.604975 293.76 
L 283.604975 292.961584 
L 303.706084 292.961584 
L 303.706084 292.163168 
L 310.741465 292.163168 
L 310.741465 291.364752 
L 317.14343 291.364752 
L 317.14343 290.566337 
L 317.782859 290.566337 
L 317.782859 289.767921 
L 318.060307 289.767921 
L 318.162405 287.372673 
L 318.581977 287.372673 
L 318.581977 286.574257 
L 319.983244 286.574257 
L 320.085446 284.977426 
L 320.538798 284.977426 
L 320.538798 284.17901 
L 321.830576 284.17901 
L 321.830576 283.380594 
L 322.257972 283.380594 
L 322.354787 280.985347 
L 322.523043 280.985347 
L 322.549231 278.590099 
L 323.181989 278.590099 
L 323.181989 277.791683 
L 323.462646 277.791683 
L 323.462646 276.993267 
L 323.667607 276.993267 
L 323.667607 276.194851 
L 323.811916 276.194851 
L 323.833855 274.59802 
L 323.998073 274.59802 
L 324.055068 273.001188 
L 324.177556 273.001188 
L 324.213243 271.404356 
L 325.105512 271.404356 
L 325.105512 270.605941 
L 325.280625 270.605941 
L 325.340516 269.009109 
L 325.429333 269.009109 
L 325.511946 267.412277 
L 325.826608 267.412277 
L 325.826608 266.613861 
L 326.126365 266.613861 
L 326.126365 265.815446 
L 326.459993 265.815446 
L 326.544006 264.218614 
L 326.873952 264.218614 
L 326.873952 263.420198 
L 327.039939 263.420198 
L 327.143975 261.823366 
L 327.398558 261.823366 
L 327.398558 261.02495 
L 327.864945 261.02495 
L 327.864945 260.226535 
L 327.983155 260.226535 
L 328.04057 258.629703 
L 328.123491 258.629703 
L 328.123491 257.831287 
L 328.286885 257.831287 
L 328.286885 257.032871 
L 328.413793 257.032871 
L 328.516108 253.839208 
L 328.703937 253.839208 
L 328.738056 251.44396 
L 328.847922 251.44396 
L 328.942186 249.048713 
L 329.139173 249.048713 
L 329.193364 246.653465 
L 329.36536 246.653465 
L 329.404259 245.056634 
L 329.597275 245.056634 
L 329.702142 242.661386 
L 329.800509 242.661386 
L 329.800509 241.86297 
L 330.061463 241.86297 
L 330.171643 240.266139 
L 330.183556 240.266139 
L 330.183556 239.467723 
L 330.307115 239.467723 
L 330.410653 237.072475 
L 330.730398 237.072475 
L 330.730398 236.274059 
L 331.270478 236.274059 
L 331.273298 234.677228 
L 331.670525 234.677228 
L 331.772761 232.28198 
L 331.874366 232.28198 
L 331.923795 230.685149 
L 332.424532 230.685149 
L 332.534566 229.088317 
L 332.537855 229.088317 
L 332.537855 228.289901 
L 333.027435 228.289901 
L 333.046552 226.693069 
L 333.318221 226.693069 
L 333.415403 225.096238 
L 333.556042 225.096238 
L 333.584191 222.70099 
L 333.886108 222.70099 
L 333.886108 221.902574 
L 334.476371 221.902574 
L 334.535665 219.507327 
L 334.600331 219.507327 
L 334.639472 217.910495 
L 334.7507 217.910495 
L 334.7507 217.112079 
L 335.19625 217.112079 
L 335.3031 215.515248 
L 335.60525 215.515248 
L 335.60525 214.716832 
L 335.775455 214.716832 
L 335.775455 213.918416 
L 335.951741 213.918416 
L 336.047975 212.321584 
L 336.065292 212.321584 
L 336.128184 210.724752 
L 336.258558 210.724752 
L 336.258558 209.926337 
L 336.517445 209.926337 
L 336.517445 209.127921 
L 336.834364 209.127921 
L 336.843216 207.531089 
L 336.95966 207.531089 
L 337.024675 205.135842 
L 337.179355 205.135842 
L 337.179355 204.337426 
L 337.398014 204.337426 
L 337.398014 203.53901 
L 337.673734 203.53901 
L 337.673734 202.740594 
L 337.846537 202.740594 
L 337.927739 201.143762 
L 338.002939 201.143762 
L 338.069143 198.748515 
L 338.249606 198.748515 
L 338.249606 197.950099 
L 338.726855 197.950099 
L 338.790528 196.353267 
L 338.991967 196.353267 
L 338.991967 195.554851 
L 339.170853 195.554851 
L 339.170853 194.756436 
L 339.470934 194.756436 
L 339.470934 193.95802 
L 339.590199 193.95802 
L 339.642382 192.361188 
L 339.940579 192.361188 
L 339.98635 190.764356 
L 340.365776 190.764356 
L 340.376198 189.167525 
L 340.568753 189.167525 
L 340.672439 187.570693 
L 341.026691 187.570693 
L 341.121645 185.973861 
L 341.344678 185.973861 
L 341.344678 185.175446 
L 341.515271 185.175446 
L 341.610019 183.578614 
L 341.852097 183.578614 
L 341.927955 181.981782 
L 342.064148 181.981782 
L 342.064148 181.183366 
L 342.397708 181.183366 
L 342.397708 180.38495 
L 342.888097 180.38495 
L 342.904045 178.788119 
L 343.063635 178.788119 
L 343.108875 177.191287 
L 343.178731 177.191287 
L 343.178731 176.392871 
L 343.517429 176.392871 
L 343.625002 173.997624 
L 343.745202 173.997624 
L 343.807209 172.400792 
L 343.923744 172.400792 
L 344.021036 170.80396 
L 344.227164 170.80396 
L 344.227164 170.005545 
L 344.553801 170.005545 
L 344.563427 168.408713 
L 344.886372 168.408713 
L 344.886372 167.610297 
L 345.237351 167.610297 
L 345.237351 166.811881 
L 345.52284 166.811881 
L 345.570059 164.416634 
L 345.672721 164.416634 
L 345.70101 162.819802 
L 345.906749 162.819802 
L 345.932918 161.22297 
L 346.081401 161.22297 
L 346.081401 160.424554 
L 346.477415 160.424554 
L 346.487402 158.827723 
L 346.73452 158.827723 
L 346.762327 157.230891 
L 346.864185 157.230891 
L 346.864185 156.432475 
L 346.981806 156.432475 
L 347.064517 154.037228 
L 347.114137 154.037228 
L 347.160315 152.440396 
L 347.425715 152.440396 
L 347.522571 150.843564 
L 347.587803 150.843564 
L 347.652773 149.246733 
L 347.831438 149.246733 
L 347.831438 148.448317 
L 348.018413 148.448317 
L 348.018413 147.649901 
L 348.236698 147.649901 
L 348.236698 146.851485 
L 348.37575 146.851485 
L 348.469924 145.254653 
L 348.5331 145.254653 
L 348.58844 143.657822 
L 348.761738 143.657822 
L 348.817957 142.06099 
L 349.144817 142.06099 
L 349.144817 141.262574 
L 349.280443 141.262574 
L 349.280443 140.464158 
L 349.577232 140.464158 
L 349.659024 138.867327 
L 349.696893 138.867327 
L 349.736012 137.270495 
L 349.835701 137.270495 
L 349.905618 135.673663 
L 350.002064 135.673663 
L 350.017963 134.076832 
L 350.127337 134.076832 
L 350.226518 130.084752 
L 350.250162 130.084752 
L 350.292787 128.487921 
L 350.664835 128.487921 
L 350.664835 127.689505 
L 351.089436 127.689505 
L 351.140078 125.294257 
L 351.375623 125.294257 
L 351.484528 123.697426 
L 351.539362 123.697426 
L 351.624592 120.503762 
L 351.668127 120.503762 
L 351.726683 118.108515 
L 352.07641 118.108515 
L 352.07641 117.310099 
L 352.356218 117.310099 
L 352.356218 116.511683 
L 352.834206 116.511683 
L 352.836622 114.914851 
L 353.023025 114.914851 
L 353.023025 114.116436 
L 353.161421 114.116436 
L 353.161421 113.31802 
L 353.3094 113.31802 
L 353.416712 111.721188 
L 353.569243 111.721188 
L 353.656205 108.527525 
L 353.914848 108.527525 
L 353.922753 106.930693 
L 354.286455 106.930693 
L 354.352751 103.73703 
L 354.411918 103.73703 
L 354.411918 102.938614 
L 354.661287 102.938614 
L 354.725344 101.341782 
L 354.782279 101.341782 
L 354.862842 99.74495 
L 354.922213 99.74495 
L 354.967501 97.349703 
L 355.034328 97.349703 
L 355.065046 95.752871 
L 355.402872 95.752871 
L 355.497089 93.357624 
L 355.576434 93.357624 
L 355.677251 91.760792 
L 355.733532 91.760792 
L 355.78444 89.365545 
L 356.063754 89.365545 
L 356.063754 88.567129 
L 356.410221 88.567129 
L 356.410221 87.768713 
L 356.755587 87.768713 
L 356.755587 86.970297 
L 357.116289 86.970297 
L 357.116289 86.171881 
L 357.241326 86.171881 
L 357.241326 85.373465 
L 357.421011 85.373465 
L 357.421011 84.57505 
L 358.261669 84.57505 
L 358.261669 83.776634 
L 358.45305 83.776634 
L 358.45305 82.978218 
L 358.662519 82.978218 
L 358.662519 82.179802 
L 359.42863 82.179802 
L 359.42863 81.381386 
L 359.57729 81.381386 
L 359.57729 80.58297 
L 361.212886 80.58297 
L 361.212886 79.784554 
L 361.915067 79.784554 
L 361.915067 78.986139 
L 362.100845 78.986139 
L 362.100845 78.187723 
L 362.494015 78.187723 
L 362.494015 77.389307 
L 363.055593 77.389307 
L 363.055593 76.590891 
L 363.458603 76.590891 
L 363.458603 75.792475 
L 363.654496 75.792475 
L 363.696031 74.195644 
L 363.780749 74.195644 
L 363.780749 73.397228 
L 364.793812 73.397228 
L 364.793812 72.598812 
L 365.039085 72.598812 
L 365.069158 71.00198 
L 365.255929 71.00198 
L 365.357762 68.606733 
L 365.377123 68.606733 
L 365.393964 67.009901 
L 365.686072 67.009901 
L 365.686072 66.211485 
L 365.829535 66.211485 
L 365.829535 65.413069 
L 367.190227 65.413069 
L 367.190227 64.614653 
L 367.51277 64.614653 
L 367.51277 63.816238 
L 368.677747 63.816238 
L 368.677747 63.017822 
L 369.683401 63.017822 
L 369.683401 62.219406 
L 370.518539 62.219406 
L 370.592256 59.824158 
L 371.145762 59.824158 
L 371.145762 59.025743 
L 372.888864 59.025743 
L 372.888864 58.227327 
L 373.559832 58.227327 
L 373.631963 56.630495 
L 377.258722 56.630495 
L 377.258722 55.832079 
L 377.442817 55.832079 
L 377.442817 55.033663 
L 377.742097 55.033663 
L 377.742097 54.235248 
L 378.450497 54.235248 
L 378.450497 53.436832 
L 380.02236 53.436832 
L 380.02236 52.638416 
L 381.302438 52.638416 
L 381.302438 51.84 
L 381.571899 51.84 
L 381.670887 48.646337 
L 381.935906 48.646337 
L 381.935906 47.847921 
L 382.118897 47.847921 
L 382.118897 47.049505 
L 382.332758 47.049505 
L 382.332758 46.251089 
L 382.520858 46.251089 
L 382.57663 43.855842 
L 382.986695 43.855842 
L 382.986695 43.057426 
L 384.070175 43.057426 
L 384.070175 42.25901 
L 384.27653 42.25901 
L 384.27653 41.460594 
L 385.634238 41.460594 
L 385.634238 40.662178 
L 385.784823 40.662178 
L 385.784823 39.863762 
L 387.145378 39.863762 
L 387.156438 38.266931 
L 387.655186 38.266931 
L 387.655186 37.468515 
L 388.0942 37.468515 
L 388.0942 36.670099 
L 389.95688 36.670099 
L 389.95688 35.871683 
L 391.508733 35.871683 
L 391.508733 35.073267 
L 392.478436 35.073267 
L 392.580144 33.476436 
L 392.691186 33.476436 
L 392.691186 32.67802 
L 394.092818 32.67802 
L 394.092818 31.879604 
L 394.428743 31.879604 
L 394.428743 31.081188 
L 394.544432 31.081188 
L 394.544432 30.282772 
L 394.880671 30.282772 
L 394.880671 29.484356 
L 395.264598 29.484356 
L 395.264598 28.685941 
L 395.377788 28.685941 
L 395.377788 27.887525 
L 395.614077 27.887525 
L 395.65262 26.290693 
L 396.219667 26.290693 
L 396.219667 25.492277 
L 398.329059 25.492277 
L 398.329059 24.693861 
L 398.471456 24.693861 
L 398.471456 23.895446 
L 400.021552 23.895446 
L 400.021552 23.09703 
L 401.872537 23.09703 
L 401.872537 22.298614 
L 402.163935 22.298614 
L 402.163935 21.500198 
L 403.088483 21.500198 
L 403.088483 20.701782 
L 403.244359 20.701782 
L 403.244359 19.903366 
L 406.451703 19.903366 
L 406.497993 18.306535 
L 406.611898 18.306535 
L 406.71505 16.709703 
L 407.217397 16.709703 
L 407.217397 15.911287 
L 407.57542 15.911287 
L 407.57542 15.112871 
L 407.899215 15.112871 
L 407.899215 14.314455 
L 411.389475 14.314455 
L 411.389475 13.51604 
L 411.834184 13.51604 
L 411.834184 12.717624 
L 412.018305 12.717624 
L 412.018305 11.919208 
L 412.54395 11.919208 
L 412.54395 11.120792 
L 417.459415 11.120792 
L 417.459415 10.322376 
L 420.108628 10.322376 
L 420.108628 9.52396 
L 420.500561 9.52396 
L 420.500561 8.725545 
L 422.623017 8.725545 
L 422.623017 7.927129 
L 423.585494 7.927129 
L 423.585494 7.128713 
L 430.800086 7.128713 
L 430.800086 6.330297 
L 430.800086 6.330297 
L 460.8 6.330297 
L 460.8 6.330297 
" clip-path="url(#p3c57977091)" style="fill: none; stroke: #000000; stroke-width: 1.5; stroke-linecap: square"/>
   </g>
   <g id="line2d_25">
    <path d="M 264.455973 293.76 
L 264.455973 292.961584 
L 283.604975 292.961584 
L 283.604975 292.163168 
L 287.429425 292.163168 
L 287.429425 291.364752 
L 295.901181 291.364752 
L 295.901181 290.566337 
L 299.611864 290.566337 
L 299.611864 289.767921 
L 303.706084 289.767921 
L 303.706084 288.969505 
L 305.931339 288.969505 
L 305.931339 288.171089 
L 310.741465 288.171089 
L 310.78756 286.574257 
L 311.916909 286.574257 
L 311.916909 285.775842 
L 312.062845 285.775842 
L 312.062845 284.977426 
L 313.186433 284.977426 
L 313.186433 284.17901 
L 314.270449 284.17901 
L 314.270449 283.380594 
L 314.571984 283.380594 
L 314.571984 282.582178 
L 314.703966 282.582178 
L 314.703966 281.783762 
L 315.018264 281.783762 
L 315.018264 280.985347 
L 317.133976 280.985347 
L 317.14343 279.388515 
L 317.315446 279.388515 
L 317.413199 277.791683 
L 317.782859 277.791683 
L 317.878281 276.194851 
L 318.081447 276.194851 
L 318.162405 274.59802 
L 318.223715 274.59802 
L 318.223715 273.799604 
L 318.983938 273.799604 
L 318.983938 273.001188 
L 319.614019 273.001188 
L 319.614019 272.202772 
L 319.958123 272.202772 
L 319.983244 270.605941 
L 320.107162 270.605941 
L 320.107162 269.807525 
L 320.302083 269.807525 
L 320.302083 269.009109 
L 320.538798 269.009109 
L 320.538798 268.210693 
L 321.800304 268.210693 
L 321.9053 265.815446 
L 322.257972 265.815446 
L 322.330563 263.420198 
L 322.448066 263.420198 
L 322.549231 260.226535 
L 322.628042 260.226535 
L 322.628042 259.428119 
L 322.86216 259.428119 
L 322.86216 258.629703 
L 323.019907 258.629703 
L 323.019907 257.831287 
L 323.263218 257.831287 
L 323.263218 257.032871 
L 323.513421 257.032871 
L 323.513421 256.234455 
L 323.667607 256.234455 
L 323.680466 253.839208 
L 323.811916 253.839208 
L 323.833855 251.44396 
L 324.005389 251.44396 
L 324.005389 250.645545 
L 324.196938 250.645545 
L 324.298168 249.048713 
L 324.534649 249.048713 
L 324.534649 248.250297 
L 324.772736 248.250297 
L 324.772736 247.451881 
L 325.105512 247.451881 
L 325.143486 245.85505 
L 325.511946 245.85505 
L 325.511946 245.056634 
L 325.623733 245.056634 
L 325.693682 243.459802 
L 325.830713 243.459802 
L 325.830713 242.661386 
L 326.168761 242.661386 
L 326.168917 241.064554 
L 326.335798 241.064554 
L 326.335798 240.266139 
L 326.544006 240.266139 
L 326.544006 239.467723 
L 326.78963 239.467723 
L 326.78963 238.669307 
L 326.979351 238.669307 
L 327.039939 237.072475 
L 327.123497 237.072475 
L 327.123497 236.274059 
L 327.552586 236.274059 
L 327.552586 235.475644 
L 327.864945 235.475644 
L 327.864945 234.677228 
L 327.982505 234.677228 
L 328.090986 231.483564 
L 328.108252 231.483564 
L 328.108252 230.685149 
L 328.286885 230.685149 
L 328.286885 229.886733 
L 328.413793 229.886733 
L 328.516108 228.289901 
L 328.552856 228.289901 
L 328.618565 226.693069 
L 328.703937 226.693069 
L 328.738056 223.499406 
L 328.847922 223.499406 
L 328.892555 221.902574 
L 329.138315 221.902574 
L 329.185823 219.507327 
L 329.36536 219.507327 
L 329.430852 217.112079 
L 329.72569 217.112079 
L 329.72569 216.313663 
L 329.858659 216.313663 
L 329.858659 215.515248 
L 330.061463 215.515248 
L 330.168993 213.918416 
L 330.201841 213.918416 
L 330.307115 212.321584 
L 330.497873 212.321584 
L 330.497873 211.523168 
L 330.730398 211.523168 
L 330.753495 209.926337 
L 330.848426 209.926337 
L 330.848426 209.127921 
L 331.671812 209.127921 
L 331.725596 206.732673 
L 331.923795 206.732673 
L 331.923795 205.934257 
L 332.09216 205.934257 
L 332.188071 204.337426 
L 332.309551 204.337426 
L 332.405864 201.942178 
L 332.534566 201.942178 
L 332.577043 200.345347 
L 332.93071 200.345347 
L 333.026153 198.748515 
L 333.208943 198.748515 
L 333.318221 197.151683 
L 333.32752 197.151683 
L 333.438473 194.756436 
L 333.46149 194.756436 
L 333.564831 193.159604 
L 333.824043 193.159604 
L 333.921263 189.965941 
L 334.683292 189.965941 
L 334.738729 187.570693 
L 335.046255 187.570693 
L 335.139452 185.175446 
L 335.267134 185.175446 
L 335.267134 184.37703 
L 335.60525 184.37703 
L 335.60525 183.578614 
L 335.88056 183.578614 
L 335.952957 181.183366 
L 336.069989 181.183366 
L 336.07425 179.586535 
L 336.495228 179.586535 
L 336.517445 177.191287 
L 336.614635 177.191287 
L 336.674617 175.594455 
L 336.7259 175.594455 
L 336.7259 174.79604 
L 336.838397 174.79604 
L 336.884457 173.199208 
L 337.024675 173.199208 
L 337.083222 171.602376 
L 337.168521 171.602376 
L 337.247537 170.005545 
L 337.665092 170.005545 
L 337.665092 169.207129 
L 337.810314 169.207129 
L 337.810314 168.408713 
L 338.149368 168.408713 
L 338.258255 165.21505 
L 338.323998 165.21505 
L 338.323998 164.416634 
L 338.667726 164.416634 
L 338.726855 162.819802 
L 339.162435 162.819802 
L 339.263047 161.22297 
L 339.450828 161.22297 
L 339.470934 159.626139 
L 339.642382 159.626139 
L 339.642382 158.827723 
L 339.87129 158.827723 
L 339.87129 158.029307 
L 340.336138 158.029307 
L 340.336138 157.230891 
L 340.672439 157.230891 
L 340.672439 156.432475 
L 341.015315 156.432475 
L 341.121645 154.037228 
L 341.358849 154.037228 
L 341.358849 153.238812 
L 341.515271 153.238812 
L 341.515271 152.440396 
L 341.736884 152.440396 
L 341.736884 151.64198 
L 342.007889 151.64198 
L 342.10857 147.649901 
L 342.185297 147.649901 
L 342.185297 146.851485 
L 342.410318 146.851485 
L 342.410318 146.053069 
L 342.85892 146.053069 
L 342.888097 144.456238 
L 343.063635 144.456238 
L 343.063635 143.657822 
L 343.178731 143.657822 
L 343.178731 142.859406 
L 343.321768 142.859406 
L 343.321768 142.06099 
L 343.441728 142.06099 
L 343.517429 139.665743 
L 343.695883 139.665743 
L 343.745202 138.068911 
L 343.860426 138.068911 
L 343.935266 136.472079 
L 344.162429 136.472079 
L 344.268683 134.875248 
L 344.321929 134.875248 
L 344.326749 133.278416 
L 344.471386 133.278416 
L 344.563427 130.084752 
L 344.886372 130.084752 
L 344.886372 129.286337 
L 345.19082 129.286337 
L 345.275567 126.891089 
L 345.526515 126.891089 
L 345.526515 126.092673 
L 345.70101 126.092673 
L 345.709538 124.495842 
L 346.477415 124.495842 
L 346.477415 123.697426 
L 346.864185 123.697426 
L 346.864185 122.89901 
L 347.055492 122.89901 
L 347.064517 121.302178 
L 347.522571 121.302178 
L 347.580566 119.705347 
L 347.645372 119.705347 
L 347.645372 118.906931 
L 347.775212 118.906931 
L 347.859094 116.511683 
L 347.913846 116.511683 
L 347.976092 114.914851 
L 348.122176 114.914851 
L 348.168965 111.721188 
L 348.273487 111.721188 
L 348.273487 110.922772 
L 348.402431 110.922772 
L 348.402431 110.124356 
L 348.72851 110.124356 
L 348.72851 109.325941 
L 348.88216 109.325941 
L 348.88216 108.527525 
L 349.048656 108.527525 
L 349.157045 106.930693 
L 349.175862 106.930693 
L 349.2565 104.535446 
L 349.564788 104.535446 
L 349.644128 101.341782 
L 349.736012 101.341782 
L 349.736012 100.543366 
L 349.912515 100.543366 
L 349.912515 99.74495 
L 350.141275 99.74495 
L 350.250162 94.954455 
L 350.5849 94.954455 
L 350.5849 94.15604 
L 350.792784 94.15604 
L 350.792784 93.357624 
L 351.089436 93.357624 
L 351.098763 91.760792 
L 351.293028 91.760792 
L 351.382819 88.567129 
L 351.484528 88.567129 
L 351.577218 86.171881 
L 351.668127 86.171881 
L 351.769731 82.179802 
L 351.800023 82.179802 
L 351.800023 81.381386 
L 352.272303 81.381386 
L 352.356218 79.784554 
L 352.487949 79.784554 
L 352.55264 77.389307 
L 352.610562 77.389307 
L 352.610562 76.590891 
L 352.804643 76.590891 
L 352.831496 74.994059 
L 353.087638 74.994059 
L 353.187665 73.397228 
L 353.403087 73.397228 
L 353.403087 72.598812 
L 353.694431 72.598812 
L 353.694431 71.800396 
L 354.083171 71.800396 
L 354.083171 71.00198 
L 354.210719 71.00198 
L 354.309844 67.808317 
L 354.344409 67.808317 
L 354.344409 67.009901 
L 354.993672 67.009901 
L 355.065046 65.413069 
L 356.410221 65.413069 
L 356.410221 64.614653 
L 357.184779 64.614653 
L 357.184779 63.816238 
L 357.922236 63.816238 
L 357.922236 63.017822 
L 358.45305 63.017822 
L 358.505902 61.42099 
L 359.57729 61.42099 
L 359.57729 60.622574 
L 359.832944 60.622574 
L 359.832944 59.824158 
L 359.957519 59.824158 
L 359.957519 59.025743 
L 361.037445 59.025743 
L 361.037445 58.227327 
L 361.266832 58.227327 
L 361.266832 57.428911 
L 361.391018 57.428911 
L 361.391018 56.630495 
L 363.368308 56.630495 
L 363.458603 55.033663 
L 363.696031 55.033663 
L 363.696031 54.235248 
L 364.685941 54.235248 
L 364.685941 53.436832 
L 365.289771 53.436832 
L 365.393964 51.041584 
L 365.686072 51.041584 
L 365.686072 50.243168 
L 365.829535 50.243168 
L 365.829535 49.444752 
L 366.134129 49.444752 
L 366.13828 47.847921 
L 366.42316 47.847921 
L 366.42316 47.049505 
L 368.677747 47.049505 
L 368.677747 46.251089 
L 369.409103 46.251089 
L 369.409103 45.452673 
L 370.518539 45.452673 
L 370.518539 44.654257 
L 370.930179 44.654257 
L 370.930179 43.855842 
L 371.455681 43.855842 
L 371.491369 42.25901 
L 371.760844 42.25901 
L 371.760844 41.460594 
L 372.193543 41.460594 
L 372.193543 40.662178 
L 372.307374 40.662178 
L 372.307374 39.863762 
L 372.888864 39.863762 
L 372.920386 38.266931 
L 374.51016 38.266931 
L 374.573784 36.670099 
L 375.170503 36.670099 
L 375.170503 35.871683 
L 376.002513 35.871683 
L 376.002513 35.073267 
L 376.77306 35.073267 
L 376.77306 34.274851 
L 377.258722 34.274851 
L 377.258722 33.476436 
L 377.742097 33.476436 
L 377.742097 32.67802 
L 378.318817 32.67802 
L 378.318817 31.879604 
L 378.577065 31.879604 
L 378.577065 31.081188 
L 378.738824 31.081188 
L 378.738824 30.282772 
L 380.899194 30.282772 
L 380.899194 29.484356 
L 381.355828 29.484356 
L 381.355828 28.685941 
L 381.596176 28.685941 
L 381.670887 27.089109 
L 382.520858 27.089109 
L 382.523288 25.492277 
L 385.634238 25.492277 
L 385.634238 24.693861 
L 386.49526 24.693861 
L 386.49526 23.895446 
L 387.655186 23.895446 
L 387.655186 23.09703 
L 387.862542 23.09703 
L 387.862542 22.298614 
L 389.684731 22.298614 
L 389.684731 21.500198 
L 389.979433 21.500198 
L 389.979433 20.701782 
L 390.300262 20.701782 
L 390.300262 19.903366 
L 393.379792 19.903366 
L 393.379792 19.10495 
L 393.523988 19.10495 
L 393.523988 18.306535 
L 393.697096 18.306535 
L 393.697096 17.508119 
L 395.264598 17.508119 
L 395.264598 16.709703 
L 395.614077 16.709703 
L 395.614077 15.911287 
L 398.433968 15.911287 
L 398.433968 15.112871 
L 400.837417 15.112871 
L 400.837417 14.314455 
L 401.973187 14.314455 
L 401.973187 13.51604 
L 402.213862 13.51604 
L 402.213862 12.717624 
L 402.598265 12.717624 
L 402.598265 11.919208 
L 403.93959 11.919208 
L 403.93959 11.120792 
L 404.351217 11.120792 
L 404.351217 10.322376 
L 405.244605 10.322376 
L 405.244605 9.52396 
L 405.882972 9.52396 
L 405.882972 8.725545 
L 408.594895 8.725545 
L 408.594895 7.927129 
L 410.057083 7.927129 
L 410.057083 7.128713 
L 410.711384 7.128713 
L 410.711384 6.330297 
L 410.711384 6.330297 
L 460.8 6.330297 
L 460.8 6.330297 
" clip-path="url(#p3c57977091)" style="fill: none; stroke: #00bfbf; stroke-width: 1.5; stroke-linecap: square"/>
   </g>
   <g id="patch_3">
    <path d="M 0 293.76 
L 0 3.456 
" style="fill: none; stroke: #000000; stroke-width: 0.8; stroke-linejoin: miter; stroke-linecap: square"/>
   </g>
   <g id="patch_4">
    <path d="M 460.8 293.76 
L 460.8 3.456 
" style="fill: none; stroke: #000000; stroke-width: 0.8; stroke-linejoin: miter; stroke-linecap: square"/>
   </g>
   <g id="patch_5">
    <path d="M 0 293.76 
L 460.8 293.76 
" style="fill: none; stroke: #000000; stroke-width: 0.8; stroke-linejoin: miter; stroke-linecap: square"/>
   </g>
   <g id="patch_6">
    <path d="M 0 3.456 
L 460.8 3.456 
" style="fill: none; stroke: #000000; stroke-width: 0.8; stroke-linejoin: miter; stroke-linecap: square"/>
   </g>
   <g id="text_6">
    <!-- {f1-f24}, 10-D -->
    <g transform="translate(305.884 287.95392) scale(0.2 -0.2)">
     <defs>
      <path id="DejaVuSans-7b" d="M 3272 -594 
L 3272 -1044 
L 3078 -1044 
Q 2300 -1044 2036 -812 
Q 1772 -581 1772 109 
L 1772 856 
Q 1772 1328 1603 1509 
Q 1434 1691 991 1691 
L 800 1691 
L 800 2138 
L 991 2138 
Q 1438 2138 1605 2317 
Q 1772 2497 1772 2963 
L 1772 3713 
Q 1772 4403 2036 4633 
Q 2300 4863 3078 4863 
L 3272 4863 
L 3272 4416 
L 3059 4416 
Q 2619 4416 2484 4278 
Q 2350 4141 2350 3700 
L 2350 2925 
Q 2350 2434 2208 2212 
Q 2066 1991 1722 1913 
Q 2069 1828 2209 1606 
Q 2350 1384 2350 897 
L 2350 122 
Q 2350 -319 2484 -456 
Q 2619 -594 3059 -594 
L 3272 -594 
z
" transform="scale(0.015625)"/>
      <path id="DejaVuSans-7d" d="M 800 -594 
L 1019 -594 
Q 1456 -594 1589 -459 
Q 1722 -325 1722 122 
L 1722 897 
Q 1722 1384 1862 1606 
Q 2003 1828 2350 1913 
Q 2003 1991 1862 2212 
Q 1722 2434 1722 2925 
L 1722 3700 
Q 1722 4144 1589 4280 
Q 1456 4416 1019 4416 
L 800 4416 
L 800 4863 
L 997 4863 
Q 1775 4863 2036 4633 
Q 2297 4403 2297 3713 
L 2297 2963 
Q 2297 2497 2465 2317 
Q 2634 2138 3078 2138 
L 3272 2138 
L 3272 1691 
L 3078 1691 
Q 2634 1691 2465 1509 
Q 2297 1328 2297 856 
L 2297 109 
Q 2297 -581 2036 -812 
Q 1775 -1044 997 -1044 
L 800 -1044 
L 800 -594 
z
" transform="scale(0.015625)"/>
      <path id="DejaVuSans-2c" d="M 750 794 
L 1409 794 
L 1409 256 
L 897 -744 
L 494 -744 
L 750 256 
L 750 794 
z
" transform="scale(0.015625)"/>
     </defs>
     <use xlink:href="#DejaVuSans-7b"/>
     <use xlink:href="#DejaVuSans-66" x="63.623047"/>
     <use xlink:href="#DejaVuSans-31" x="98.828125"/>
     <use xlink:href="#DejaVuSans-2d" x="162.451172"/>
     <use xlink:href="#DejaVuSans-66" x="198.535156"/>
     <use xlink:href="#DejaVuSans-32" x="233.740234"/>
     <use xlink:href="#DejaVuSans-34" x="297.363281"/>
     <use xlink:href="#DejaVuSans-7d" x="360.986328"/>
     <use xlink:href="#DejaVuSans-2c" x="424.609375"/>
     <use xlink:href="#DejaVuSans-20" x="456.396484"/>
     <use xlink:href="#DejaVuSans-31" x="488.183594"/>
     <use xlink:href="#DejaVuSans-30" x="551.806641"/>
     <use xlink:href="#DejaVuSans-2d" x="615.429688"/>
     <use xlink:href="#DejaVuSans-44" x="651.513672"/>
    </g>
   </g>
   <g id="text_7">
    <!-- v2.6.4 -->
    <g style="fill: #808080" transform="translate(214.71875 288.777272) scale(0.1 -0.1)">
     <defs>
      <path id="DejaVuSans-76" d="M 191 3500 
L 800 3500 
L 1894 563 
L 2988 3500 
L 3597 3500 
L 2284 0 
L 1503 0 
L 191 3500 
z
" transform="scale(0.015625)"/>
      <path id="DejaVuSans-2e" d="M 684 794 
L 1344 794 
L 1344 0 
L 684 0 
L 684 794 
z
" transform="scale(0.015625)"/>
      <path id="DejaVuSans-36" d="M 2113 2584 
Q 1688 2584 1439 2293 
Q 1191 2003 1191 1497 
Q 1191 994 1439 701 
Q 1688 409 2113 409 
Q 2538 409 2786 701 
Q 3034 994 3034 1497 
Q 3034 2003 2786 2293 
Q 2538 2584 2113 2584 
z
M 3366 4563 
L 3366 3988 
Q 3128 4100 2886 4159 
Q 2644 4219 2406 4219 
Q 1781 4219 1451 3797 
Q 1122 3375 1075 2522 
Q 1259 2794 1537 2939 
Q 1816 3084 2150 3084 
Q 2853 3084 3261 2657 
Q 3669 2231 3669 1497 
Q 3669 778 3244 343 
Q 2819 -91 2113 -91 
Q 1303 -91 875 529 
Q 447 1150 447 2328 
Q 447 3434 972 4092 
Q 1497 4750 2381 4750 
Q 2619 4750 2861 4703 
Q 3103 4656 3366 4563 
z
" transform="scale(0.015625)"/>
     </defs>
     <use xlink:href="#DejaVuSans-76"/>
     <use xlink:href="#DejaVuSans-32" x="59.179688"/>
     <use xlink:href="#DejaVuSans-2e" x="122.802734"/>
     <use xlink:href="#DejaVuSans-36" x="154.589844"/>
     <use xlink:href="#DejaVuSans-2e" x="218.212891"/>
     <use xlink:href="#DejaVuSans-34" x="250"/>
    </g>
   </g>
  </g>
 </g>
 <defs>
  <clipPath id="p3c57977091">
   <rect x="0" y="3.456" width="460.8" height="290.304"/>
  </clipPath>
 </defs>
</svg>
