<?xml version="1.0" encoding="utf-8" standalone="no"?>
<!DOCTYPE svg PUBLIC "-//W3C//DTD SVG 1.1//EN"
  "http://www.w3.org/Graphics/SVG/1.1/DTD/svg11.dtd">
<svg xmlns:xlink="http://www.w3.org/1999/xlink" width="460.8pt" height="345.6pt" viewBox="0 0 460.8 345.6" xmlns="http://www.w3.org/2000/svg" version="1.1">
 <metadata>
  <rdf:RDF xmlns:dc="http://purl.org/dc/elements/1.1/" xmlns:cc="http://creativecommons.org/ns#" xmlns:rdf="http://www.w3.org/1999/02/22-rdf-syntax-ns#">
   <cc:Work>
    <dc:type rdf:resource="http://purl.org/dc/dcmitype/StillImage"/>
    <dc:date>2024-10-11T15:13:53.845138</dc:date>
    <dc:format>image/svg+xml</dc:format>
    <dc:creator>
     <cc:Agent>
      <dc:title>Matplotlib v3.9.2, https://matplotlib.org/</dc:title>
     </cc:Agent>
    </dc:creator>
   </cc:Work>
  </rdf:RDF>
 </metadata>
 <defs>
  <style type="text/css">*{stroke-linejoin: round; stroke-linecap: butt}</style>
 </defs>
 <g id="figure_1">
  <g id="patch_1">
   <path d="M 0 345.6 
L 460.8 345.6 
L 460.8 0 
L 0 0 
z
" style="fill: #ffffff"/>
  </g>
  <g id="axes_1">
   <g id="patch_2">
    <path d="M 0 293.76 
L 460.8 293.76 
L 460.8 3.456 
L 0 3.456 
z
" style="fill: #ffffff"/>
   </g>
   <g id="matplotlib.axis_1">
    <g id="xtick_1">
     <g id="line2d_1">
      <path d="M 102.630429 293.76 
L 102.630429 3.456 
" clip-path="url(#p277d6cc912)" style="fill: none; stroke: #b0b0b0; stroke-width: 0.8; stroke-linecap: square"/>
     </g>
     <g id="line2d_2">
      <defs>
       <path id="m4c79b35adf" d="M 0 0 
L 0 3.5 
" style="stroke: #000000; stroke-width: 0.8"/>
      </defs>
      <g>
       <use xlink:href="#m4c79b35adf" x="102.630429" y="293.76" style="stroke: #000000; stroke-width: 0.8"/>
      </g>
     </g>
     <g id="text_1">
      <!-- -5 -->
      <g transform="translate(92.660117 315.956875) scale(0.2 -0.2)">
       <defs>
        <path id="DejaVuSans-2d" d="M 313 2009 
L 1997 2009 
L 1997 1497 
L 313 1497 
L 313 2009 
z
" transform="scale(0.015625)"/>
        <path id="DejaVuSans-35" d="M 691 4666 
L 3169 4666 
L 3169 4134 
L 1269 4134 
L 1269 2991 
Q 1406 3038 1543 3061 
Q 1681 3084 1819 3084 
Q 2600 3084 3056 2656 
Q 3513 2228 3513 1497 
Q 3513 744 3044 326 
Q 2575 -91 1722 -91 
Q 1428 -91 1123 -41 
Q 819 9 494 109 
L 494 744 
Q 775 591 1075 516 
Q 1375 441 1709 441 
Q 2250 441 2565 725 
Q 2881 1009 2881 1497 
Q 2881 1984 2565 2268 
Q 2250 2553 1709 2553 
Q 1456 2553 1204 2497 
Q 953 2441 691 2322 
L 691 4666 
z
" transform="scale(0.015625)"/>
       </defs>
       <use xlink:href="#DejaVuSans-2d"/>
       <use xlink:href="#DejaVuSans-35" x="36.083984"/>
      </g>
     </g>
    </g>
    <g id="xtick_2">
     <g id="line2d_3">
      <path d="M 205.408906 293.76 
L 205.408906 3.456 
" clip-path="url(#p277d6cc912)" style="fill: none; stroke: #b0b0b0; stroke-width: 0.8; stroke-linecap: square"/>
     </g>
     <g id="line2d_4">
      <g>
       <use xlink:href="#m4c79b35adf" x="205.408906" y="293.76" style="stroke: #000000; stroke-width: 0.8"/>
      </g>
     </g>
     <g id="text_2">
      <!-- -2 -->
      <g transform="translate(195.438594 315.956875) scale(0.2 -0.2)">
       <defs>
        <path id="DejaVuSans-32" d="M 1228 531 
L 3431 531 
L 3431 0 
L 469 0 
L 469 531 
Q 828 903 1448 1529 
Q 2069 2156 2228 2338 
Q 2531 2678 2651 2914 
Q 2772 3150 2772 3378 
Q 2772 3750 2511 3984 
Q 2250 4219 1831 4219 
Q 1534 4219 1204 4116 
Q 875 4013 500 3803 
L 500 4441 
Q 881 4594 1212 4672 
Q 1544 4750 1819 4750 
Q 2544 4750 2975 4387 
Q 3406 4025 3406 3419 
Q 3406 3131 3298 2873 
Q 3191 2616 2906 2266 
Q 2828 2175 2409 1742 
Q 1991 1309 1228 531 
z
" transform="scale(0.015625)"/>
       </defs>
       <use xlink:href="#DejaVuSans-2d"/>
       <use xlink:href="#DejaVuSans-32" x="36.083984"/>
      </g>
     </g>
    </g>
    <g id="xtick_3">
     <g id="line2d_5">
      <path d="M 308.187383 293.76 
L 308.187383 3.456 
" clip-path="url(#p277d6cc912)" style="fill: none; stroke: #b0b0b0; stroke-width: 0.8; stroke-linecap: square"/>
     </g>
     <g id="line2d_6">
      <g>
       <use xlink:href="#m4c79b35adf" x="308.187383" y="293.76" style="stroke: #000000; stroke-width: 0.8"/>
      </g>
     </g>
     <g id="text_3">
      <!-- 1 -->
      <g transform="translate(301.824883 315.956875) scale(0.2 -0.2)">
       <defs>
        <path id="DejaVuSans-31" d="M 794 531 
L 1825 531 
L 1825 4091 
L 703 3866 
L 703 4441 
L 1819 4666 
L 2450 4666 
L 2450 531 
L 3481 531 
L 3481 0 
L 794 0 
L 794 531 
z
" transform="scale(0.015625)"/>
       </defs>
       <use xlink:href="#DejaVuSans-31"/>
      </g>
     </g>
    </g>
    <g id="xtick_4">
     <g id="line2d_7">
      <path d="M 410.965861 293.76 
L 410.965861 3.456 
" clip-path="url(#p277d6cc912)" style="fill: none; stroke: #b0b0b0; stroke-width: 0.8; stroke-linecap: square"/>
     </g>
     <g id="line2d_8">
      <g>
       <use xlink:href="#m4c79b35adf" x="410.965861" y="293.76" style="stroke: #000000; stroke-width: 0.8"/>
      </g>
     </g>
     <g id="text_4">
      <!-- 4 -->
      <g transform="translate(404.603361 315.956875) scale(0.2 -0.2)">
       <defs>
        <path id="DejaVuSans-34" d="M 2419 4116 
L 825 1625 
L 2419 1625 
L 2419 4116 
z
M 2253 4666 
L 3047 4666 
L 3047 1625 
L 3713 1625 
L 3713 1100 
L 3047 1100 
L 3047 0 
L 2419 0 
L 2419 1100 
L 313 1100 
L 313 1709 
L 2253 4666 
z
" transform="scale(0.015625)"/>
       </defs>
       <use xlink:href="#DejaVuSans-34"/>
      </g>
     </g>
    </g>
    <g id="text_5">
     <!-- log10 of Df -->
     <g transform="translate(175.214063 339.313125) scale(0.2 -0.2)">
      <defs>
       <path id="DejaVuSans-6c" d="M 603 4863 
L 1178 4863 
L 1178 0 
L 603 0 
L 603 4863 
z
" transform="scale(0.015625)"/>
       <path id="DejaVuSans-6f" d="M 1959 3097 
Q 1497 3097 1228 2736 
Q 959 2375 959 1747 
Q 959 1119 1226 758 
Q 1494 397 1959 397 
Q 2419 397 2687 759 
Q 2956 1122 2956 1747 
Q 2956 2369 2687 2733 
Q 2419 3097 1959 3097 
z
M 1959 3584 
Q 2709 3584 3137 3096 
Q 3566 2609 3566 1747 
Q 3566 888 3137 398 
Q 2709 -91 1959 -91 
Q 1206 -91 779 398 
Q 353 888 353 1747 
Q 353 2609 779 3096 
Q 1206 3584 1959 3584 
z
" transform="scale(0.015625)"/>
       <path id="DejaVuSans-67" d="M 2906 1791 
Q 2906 2416 2648 2759 
Q 2391 3103 1925 3103 
Q 1463 3103 1205 2759 
Q 947 2416 947 1791 
Q 947 1169 1205 825 
Q 1463 481 1925 481 
Q 2391 481 2648 825 
Q 2906 1169 2906 1791 
z
M 3481 434 
Q 3481 -459 3084 -895 
Q 2688 -1331 1869 -1331 
Q 1566 -1331 1297 -1286 
Q 1028 -1241 775 -1147 
L 775 -588 
Q 1028 -725 1275 -790 
Q 1522 -856 1778 -856 
Q 2344 -856 2625 -561 
Q 2906 -266 2906 331 
L 2906 616 
Q 2728 306 2450 153 
Q 2172 0 1784 0 
Q 1141 0 747 490 
Q 353 981 353 1791 
Q 353 2603 747 3093 
Q 1141 3584 1784 3584 
Q 2172 3584 2450 3431 
Q 2728 3278 2906 2969 
L 2906 3500 
L 3481 3500 
L 3481 434 
z
" transform="scale(0.015625)"/>
       <path id="DejaVuSans-30" d="M 2034 4250 
Q 1547 4250 1301 3770 
Q 1056 3291 1056 2328 
Q 1056 1369 1301 889 
Q 1547 409 2034 409 
Q 2525 409 2770 889 
Q 3016 1369 3016 2328 
Q 3016 3291 2770 3770 
Q 2525 4250 2034 4250 
z
M 2034 4750 
Q 2819 4750 3233 4129 
Q 3647 3509 3647 2328 
Q 3647 1150 3233 529 
Q 2819 -91 2034 -91 
Q 1250 -91 836 529 
Q 422 1150 422 2328 
Q 422 3509 836 4129 
Q 1250 4750 2034 4750 
z
" transform="scale(0.015625)"/>
       <path id="DejaVuSans-20" transform="scale(0.015625)"/>
       <path id="DejaVuSans-66" d="M 2375 4863 
L 2375 4384 
L 1825 4384 
Q 1516 4384 1395 4259 
Q 1275 4134 1275 3809 
L 1275 3500 
L 2222 3500 
L 2222 3053 
L 1275 3053 
L 1275 0 
L 697 0 
L 697 3053 
L 147 3053 
L 147 3500 
L 697 3500 
L 697 3744 
Q 697 4328 969 4595 
Q 1241 4863 1831 4863 
L 2375 4863 
z
" transform="scale(0.015625)"/>
       <path id="DejaVuSans-44" d="M 1259 4147 
L 1259 519 
L 2022 519 
Q 2988 519 3436 956 
Q 3884 1394 3884 2338 
Q 3884 3275 3436 3711 
Q 2988 4147 2022 4147 
L 1259 4147 
z
M 628 4666 
L 1925 4666 
Q 3281 4666 3915 4102 
Q 4550 3538 4550 2338 
Q 4550 1131 3912 565 
Q 3275 0 1925 0 
L 628 0 
L 628 4666 
z
" transform="scale(0.015625)"/>
      </defs>
      <use xlink:href="#DejaVuSans-6c"/>
      <use xlink:href="#DejaVuSans-6f" x="27.783203"/>
      <use xlink:href="#DejaVuSans-67" x="88.964844"/>
      <use xlink:href="#DejaVuSans-31" x="152.441406"/>
      <use xlink:href="#DejaVuSans-30" x="216.064453"/>
      <use xlink:href="#DejaVuSans-20" x="279.6875"/>
      <use xlink:href="#DejaVuSans-6f" x="311.474609"/>
      <use xlink:href="#DejaVuSans-66" x="372.65625"/>
      <use xlink:href="#DejaVuSans-20" x="407.861328"/>
      <use xlink:href="#DejaVuSans-44" x="439.648438"/>
      <use xlink:href="#DejaVuSans-66" x="516.650391"/>
     </g>
    </g>
   </g>
   <g id="matplotlib.axis_2">
    <g id="ytick_1">
     <g id="line2d_9">
      <path d="M 0 293.76 
L 460.8 293.76 
" clip-path="url(#p277d6cc912)" style="fill: none; stroke: #b0b0b0; stroke-width: 0.8; stroke-linecap: square"/>
     </g>
     <g id="line2d_10">
      <defs>
       <path id="mbedfc8ed17" d="M 0 0 
L -3.5 0 
" style="stroke: #000000; stroke-width: 0.8"/>
      </defs>
      <g>
       <use xlink:href="#mbedfc8ed17" x="0" y="293.76" style="stroke: #000000; stroke-width: 0.8"/>
      </g>
     </g>
    </g>
    <g id="ytick_2">
     <g id="line2d_11">
      <path d="M 0 236.274059 
L 460.8 236.274059 
" clip-path="url(#p277d6cc912)" style="fill: none; stroke: #b0b0b0; stroke-width: 0.8; stroke-linecap: square"/>
     </g>
     <g id="line2d_12">
      <g>
       <use xlink:href="#mbedfc8ed17" x="0" y="236.274059" style="stroke: #000000; stroke-width: 0.8"/>
      </g>
     </g>
    </g>
    <g id="ytick_3">
     <g id="line2d_13">
      <path d="M 0 178.788119 
L 460.8 178.788119 
" clip-path="url(#p277d6cc912)" style="fill: none; stroke: #b0b0b0; stroke-width: 0.8; stroke-linecap: square"/>
     </g>
     <g id="line2d_14">
      <g>
       <use xlink:href="#mbedfc8ed17" x="0" y="178.788119" style="stroke: #000000; stroke-width: 0.8"/>
      </g>
     </g>
    </g>
    <g id="ytick_4">
     <g id="line2d_15">
      <path d="M 0 121.302178 
L 460.8 121.302178 
" clip-path="url(#p277d6cc912)" style="fill: none; stroke: #b0b0b0; stroke-width: 0.8; stroke-linecap: square"/>
     </g>
     <g id="line2d_16">
      <g>
       <use xlink:href="#mbedfc8ed17" x="0" y="121.302178" style="stroke: #000000; stroke-width: 0.8"/>
      </g>
     </g>
    </g>
    <g id="ytick_5">
     <g id="line2d_17">
      <path d="M 0 63.816238 
L 460.8 63.816238 
" clip-path="url(#p277d6cc912)" style="fill: none; stroke: #b0b0b0; stroke-width: 0.8; stroke-linecap: square"/>
     </g>
     <g id="line2d_18">
      <g>
       <use xlink:href="#mbedfc8ed17" x="0" y="63.816238" style="stroke: #000000; stroke-width: 0.8"/>
      </g>
     </g>
    </g>
    <g id="ytick_6">
     <g id="line2d_19">
      <path d="M 0 6.330297 
L 460.8 6.330297 
" clip-path="url(#p277d6cc912)" style="fill: none; stroke: #b0b0b0; stroke-width: 0.8; stroke-linecap: square"/>
     </g>
     <g id="line2d_20">
      <g>
       <use xlink:href="#mbedfc8ed17" x="0" y="6.330297" style="stroke: #000000; stroke-width: 0.8"/>
      </g>
     </g>
    </g>
   </g>
   <g id="line2d_21">
    <path d="M -0.148048 293.76 
L -0.148048 151.961347 
L 19.961262 151.961347 
L 19.961262 148.12895 
L 207.926715 148.12895 
L 207.926715 144.296554 
L 218.194834 144.296554 
L 218.194834 140.464158 
L 226.853883 140.464158 
L 226.853883 136.631762 
L 249.323665 136.631762 
L 249.323665 132.799366 
L 252.263079 132.799366 
L 252.263079 128.96697 
L 259.989117 128.96697 
L 259.989117 125.134574 
L 275.913238 125.134574 
L 275.913238 121.302178 
L 280.897134 121.302178 
L 280.897134 117.469782 
L 283.406593 117.469782 
L 283.406593 113.637386 
L 283.860201 113.637386 
L 283.860201 109.80499 
L 284.616484 109.80499 
L 284.616484 105.972594 
L 287.293753 105.972594 
L 287.295036 98.307802 
L 287.821754 98.307802 
L 287.821754 94.475406 
L 288.955418 94.475406 
L 288.955418 90.64301 
L 290.091968 90.64301 
L 290.091968 86.810614 
L 291.804721 86.810614 
L 291.804721 82.978218 
L 293.759434 82.978218 
L 293.759434 79.145822 
L 294.95628 79.145822 
L 294.95628 75.313426 
L 301.212533 75.313426 
L 301.212533 71.48103 
L 306.570369 71.48103 
L 306.570369 67.648634 
L 307.23112 67.648634 
L 307.23112 63.816238 
L 308.746367 63.816238 
L 308.746367 59.983842 
L 308.90175 59.983842 
L 308.90175 56.151446 
L 309.159933 56.151446 
L 309.159933 52.31905 
L 309.359304 52.31905 
L 309.359304 48.486653 
L 309.573093 48.486653 
L 309.573093 44.654257 
L 309.78224 44.654257 
L 309.78224 40.821861 
L 310.815569 40.821861 
L 310.815569 36.989465 
L 311.005744 36.989465 
L 311.038061 29.324673 
L 311.201044 29.324673 
L 311.201044 25.492277 
L 312.659187 25.492277 
L 312.659187 21.659881 
L 313.42323 21.659881 
L 313.42323 17.827485 
L 314.278804 17.827485 
L 314.278804 13.995089 
L 314.82813 13.995089 
L 314.82813 10.162693 
L 318.945428 10.162693 
L 318.945428 6.330297 
L 318.945428 6.330297 
L 460.8 6.330297 
L 460.8 6.330297 
" clip-path="url(#p277d6cc912)" style="fill: none; stroke: #ff0000; stroke-width: 3; stroke-linecap: square"/>
   </g>
   <g id="line2d_22">
    <path d="M 311.443771 293.76 
L 311.443771 289.927604 
L 314.920831 289.927604 
L 314.920831 286.095208 
L 315.906353 286.095208 
L 315.906353 282.262812 
L 317.051821 282.262812 
L 317.157751 274.59802 
L 317.639902 274.59802 
L 317.639902 270.765624 
L 317.825803 270.765624 
L 317.825803 266.933228 
L 318.143898 266.933228 
L 318.143898 263.100832 
L 318.355901 263.100832 
L 318.355901 259.268436 
L 318.848877 259.268436 
L 318.848877 255.43604 
L 319.306057 255.43604 
L 319.306057 251.603644 
L 319.7049 251.603644 
L 319.7049 247.771248 
L 321.585028 247.771248 
L 321.585028 243.938851 
L 321.847644 243.938851 
L 321.900455 236.274059 
L 328.670984 236.274059 
L 328.670984 232.441663 
L 330.6331 232.441663 
L 330.6331 228.609267 
L 331.319831 228.609267 
L 331.319831 224.776871 
L 331.832478 224.776871 
L 331.832478 220.944475 
L 334.021571 220.944475 
L 334.021571 217.112079 
L 334.582273 217.112079 
L 334.582273 213.279683 
L 334.820901 213.279683 
L 334.867708 205.614891 
L 335.032328 205.614891 
L 335.032328 201.782495 
L 335.232065 201.782495 
L 335.269787 194.117703 
L 335.427369 194.117703 
L 335.427369 190.285307 
L 335.636232 190.285307 
L 335.636232 186.452911 
L 335.876508 186.452911 
L 335.880129 178.788119 
L 336.06068 178.788119 
L 336.06068 174.955723 
L 336.496677 174.955723 
L 336.496677 171.123327 
L 336.901034 171.123327 
L 336.901034 167.290931 
L 337.063989 167.290931 
L 337.063989 163.458535 
L 337.279347 163.458535 
L 337.279347 159.626139 
L 337.437365 159.626139 
L 337.437365 155.793743 
L 337.555174 155.793743 
L 337.632394 148.12895 
L 337.679852 148.12895 
L 337.679852 144.296554 
L 337.926888 144.296554 
L 337.926888 140.464158 
L 338.046335 140.464158 
L 338.13646 132.799366 
L 338.168195 132.799366 
L 338.252814 125.134574 
L 338.344755 125.134574 
L 338.344755 121.302178 
L 338.60863 121.302178 
L 338.60863 117.469782 
L 338.876565 117.469782 
L 338.939392 109.80499 
L 339.061254 109.80499 
L 339.154236 102.140198 
L 339.211723 102.140198 
L 339.23058 94.475406 
L 339.746932 94.475406 
L 339.746932 90.64301 
L 340.24944 90.64301 
L 340.24944 86.810614 
L 340.94792 86.810614 
L 340.94792 82.978218 
L 341.376124 82.978218 
L 341.387091 75.313426 
L 342.141066 75.313426 
L 342.141066 71.48103 
L 343.664529 71.48103 
L 343.664529 67.648634 
L 344.534628 67.648634 
L 344.534628 63.816238 
L 346.770256 63.816238 
L 346.770256 59.983842 
L 368.812785 59.983842 
L 368.812785 56.151446 
L 370.287609 56.151446 
L 370.287609 52.31905 
L 381.468848 52.31905 
L 381.468848 48.486653 
L 383.365293 48.486653 
L 383.365293 44.654257 
L 385.79235 44.654257 
L 385.79235 40.821861 
L 388.864546 40.821861 
L 388.864546 36.989465 
L 389.192308 36.989465 
L 389.192308 33.157069 
L 389.781575 33.157069 
L 389.781575 29.324673 
L 390.741119 29.324673 
L 390.741119 25.492277 
L 391.368013 25.492277 
L 391.368013 21.659881 
L 391.621197 21.659881 
L 391.63598 13.995089 
L 396.69808 13.995089 
L 396.69808 10.162693 
L 403.928832 10.162693 
L 403.928832 6.330297 
L 403.928832 6.330297 
L 460.8 6.330297 
L 460.8 6.330297 
" clip-path="url(#p277d6cc912)" style="fill: none; stroke: #00bfbf; stroke-width: 1.5; stroke-linecap: square"/>
   </g>
   <g id="line2d_23">
    <path d="M 311.443771 293.76 
L 311.443771 289.927604 
L 312.546555 289.927604 
L 312.546555 286.095208 
L 314.920831 286.095208 
L 314.920831 282.262812 
L 315.242996 282.262812 
L 315.242996 278.430416 
L 315.797515 278.430416 
L 315.906353 263.100832 
L 316.011404 263.100832 
L 316.011404 259.268436 
L 316.149313 259.268436 
L 316.196757 251.603644 
L 316.749701 251.603644 
L 316.749701 247.771248 
L 317.051821 247.771248 
L 317.157751 240.106455 
L 317.639902 240.106455 
L 317.639902 236.274059 
L 324.954879 236.274059 
L 324.954879 232.441663 
L 325.444681 232.441663 
L 325.444681 228.609267 
L 328.106447 228.609267 
L 328.106447 224.776871 
L 328.670984 224.776871 
L 328.670984 220.944475 
L 330.6331 220.944475 
L 330.6331 217.112079 
L 331.276145 217.112079 
L 331.319831 209.447287 
L 331.762407 209.447287 
L 331.762407 205.614891 
L 333.036254 205.614891 
L 333.036254 201.782495 
L 333.375174 201.782495 
L 333.375174 197.950099 
L 333.760584 197.950099 
L 333.760584 194.117703 
L 334.021571 194.117703 
L 334.021571 190.285307 
L 334.190222 190.285307 
L 334.190222 186.452911 
L 334.582273 186.452911 
L 334.582273 182.620515 
L 334.820901 182.620515 
L 334.867708 174.955723 
L 334.946111 174.955723 
L 334.946111 171.123327 
L 335.05969 171.123327 
L 335.05969 167.290931 
L 335.187474 167.290931 
L 335.232065 159.626139 
L 335.49132 159.626139 
L 335.520039 151.961347 
L 335.880129 151.961347 
L 335.880129 148.12895 
L 336.06068 148.12895 
L 336.06068 144.296554 
L 336.491574 144.296554 
L 336.496677 136.631762 
L 336.625929 136.631762 
L 336.625929 132.799366 
L 337.279347 132.799366 
L 337.279347 128.96697 
L 337.437365 128.96697 
L 337.437365 125.134574 
L 337.632394 125.134574 
L 337.688007 109.80499 
L 337.926888 109.80499 
L 338.020526 102.140198 
L 338.13646 102.140198 
L 338.168195 94.475406 
L 338.344755 94.475406 
L 338.414924 82.978218 
L 338.876565 82.978218 
L 338.876565 79.145822 
L 340.24944 79.145822 
L 340.24944 75.313426 
L 340.45738 75.313426 
L 340.45738 71.48103 
L 340.659824 71.48103 
L 340.659824 67.648634 
L 340.94792 67.648634 
L 340.94792 63.816238 
L 341.376124 63.816238 
L 341.376124 59.983842 
L 360.724509 59.983842 
L 360.724509 56.151446 
L 367.709713 56.151446 
L 367.709713 52.31905 
L 368.812785 52.31905 
L 368.812785 48.486653 
L 370.287609 48.486653 
L 370.287609 44.654257 
L 373.265926 44.654257 
L 373.265926 40.821861 
L 379.32268 40.821861 
L 379.32268 36.989465 
L 380.582289 36.989465 
L 380.582289 33.157069 
L 380.988089 33.157069 
L 380.988089 29.324673 
L 381.312774 29.324673 
L 381.312774 25.492277 
L 381.468848 25.492277 
L 381.468848 21.659881 
L 383.956467 21.659881 
L 383.956467 17.827485 
L 384.089312 17.827485 
L 384.089312 13.995089 
L 388.864546 13.995089 
L 388.864546 10.162693 
L 389.781575 10.162693 
L 389.781575 6.330297 
L 389.781575 6.330297 
L 460.8 6.330297 
L 460.8 6.330297 
" clip-path="url(#p277d6cc912)" style="fill: none; stroke: #bf00bf; stroke-width: 1.5; stroke-linecap: square"/>
   </g>
   <g id="line2d_24">
    <path d="M 285.734169 293.76 
L 285.734169 289.927604 
L 311.348968 289.927604 
L 311.443771 282.262812 
L 312.546555 282.262812 
L 312.546555 278.430416 
L 313.750671 278.430416 
L 313.750671 274.59802 
L 314.507975 274.59802 
L 314.507975 270.765624 
L 314.920831 270.765624 
L 314.920831 266.933228 
L 315.187181 266.933228 
L 315.187181 263.100832 
L 315.301316 263.100832 
L 315.301316 259.268436 
L 315.841899 259.268436 
L 315.896031 251.603644 
L 316.011404 251.603644 
L 316.011404 247.771248 
L 316.149313 247.771248 
L 316.196757 240.106455 
L 317.051821 240.106455 
L 317.157751 232.441663 
L 324.933425 232.441663 
L 324.954879 224.776871 
L 325.444681 224.776871 
L 325.444681 220.944475 
L 328.106447 220.944475 
L 328.193488 213.279683 
L 328.670984 213.279683 
L 328.670984 209.447287 
L 329.298205 209.447287 
L 329.298205 205.614891 
L 329.883603 205.614891 
L 329.883603 201.782495 
L 330.6331 201.782495 
L 330.6331 197.950099 
L 331.078464 197.950099 
L 331.078464 194.117703 
L 331.276145 194.117703 
L 331.276145 190.285307 
L 331.762407 190.285307 
L 331.762407 186.452911 
L 333.036254 186.452911 
L 333.036254 182.620515 
L 333.330242 182.620515 
L 333.412077 171.123327 
L 333.760584 171.123327 
L 333.760584 167.290931 
L 334.021571 167.290931 
L 334.021571 163.458535 
L 334.582273 163.458535 
L 334.681165 151.961347 
L 334.820901 151.961347 
L 334.930822 140.464158 
L 334.946111 140.464158 
L 334.946111 136.631762 
L 335.481659 136.631762 
L 335.520039 128.96697 
L 335.63632 128.96697 
L 335.707603 121.302178 
L 336.06068 121.302178 
L 336.06068 117.469782 
L 336.491574 117.469782 
L 336.540341 105.972594 
L 336.828669 105.972594 
L 336.828669 102.140198 
L 337.537225 102.140198 
L 337.614095 94.475406 
L 337.67971 94.475406 
L 337.679852 86.810614 
L 338.322748 86.810614 
L 338.390695 75.313426 
L 338.616137 75.313426 
L 338.616137 71.48103 
L 338.734401 71.48103 
L 338.734401 67.648634 
L 338.907907 67.648634 
L 338.907907 63.816238 
L 339.166128 63.816238 
L 339.166128 59.983842 
L 340.24944 59.983842 
L 340.24944 56.151446 
L 340.659824 56.151446 
L 340.659824 52.31905 
L 347.786161 52.31905 
L 347.786161 48.486653 
L 357.22354 48.486653 
L 357.22354 44.654257 
L 359.628267 44.654257 
L 359.628267 40.821861 
L 364.722712 40.821861 
L 364.722712 36.989465 
L 367.709713 36.989465 
L 367.709713 33.157069 
L 368.812785 33.157069 
L 368.812785 29.324673 
L 369.647627 29.324673 
L 369.647627 25.492277 
L 373.265926 25.492277 
L 373.265926 21.659881 
L 378.245676 21.659881 
L 378.245676 17.827485 
L 379.386178 17.827485 
L 379.386178 13.995089 
L 382.204746 13.995089 
L 382.204746 10.162693 
L 384.089312 10.162693 
L 384.089312 6.330297 
L 384.089312 6.330297 
L 460.8 6.330297 
L 460.8 6.330297 
" clip-path="url(#p277d6cc912)" style="fill: none; stroke: #000000; stroke-width: 1.5; stroke-linecap: square"/>
   </g>
   <g id="line2d_25">
    <path d="M 255.369402 293.76 
L 255.369402 289.927604 
L 285.734169 289.927604 
L 285.734169 286.095208 
L 309.335139 286.095208 
L 309.335139 282.262812 
L 309.561047 282.262812 
L 309.561047 278.430416 
L 310.411665 278.430416 
L 310.411665 274.59802 
L 311.15887 274.59802 
L 311.225565 266.933228 
L 311.348968 266.933228 
L 311.448661 255.43604 
L 311.685875 255.43604 
L 311.768783 247.771248 
L 312.021545 247.771248 
L 312.021545 243.938851 
L 312.546555 243.938851 
L 312.616384 236.274059 
L 312.676068 236.274059 
L 312.676068 232.441663 
L 313.954515 232.441663 
L 313.954515 228.609267 
L 316.011404 228.609267 
L 316.011404 224.776871 
L 319.609231 224.776871 
L 319.609231 220.944475 
L 321.784627 220.944475 
L 321.784627 217.112079 
L 322.003925 217.112079 
L 322.003925 213.279683 
L 324.205981 213.279683 
L 324.205981 209.447287 
L 324.933425 209.447287 
L 324.954879 201.782495 
L 325.444681 201.782495 
L 325.501216 194.117703 
L 326.203326 194.117703 
L 326.203326 190.285307 
L 326.53073 190.285307 
L 326.53073 186.452911 
L 327.946993 186.452911 
L 327.946993 182.620515 
L 328.106447 182.620515 
L 328.193488 174.955723 
L 328.554204 174.955723 
L 328.554204 171.123327 
L 328.670984 171.123327 
L 328.670984 167.290931 
L 328.876386 167.290931 
L 328.927278 159.626139 
L 329.298205 159.626139 
L 329.298205 155.793743 
L 329.733496 155.793743 
L 329.733496 151.961347 
L 330.280925 151.961347 
L 330.280925 148.12895 
L 330.515668 148.12895 
L 330.554688 140.464158 
L 330.898143 140.464158 
L 330.898143 136.631762 
L 331.276145 136.631762 
L 331.276145 132.799366 
L 331.674318 132.799366 
L 331.674318 128.96697 
L 331.891642 128.96697 
L 331.988423 121.302178 
L 332.49586 121.302178 
L 332.49586 117.469782 
L 332.608239 117.469782 
L 332.608239 113.637386 
L 332.737321 113.637386 
L 332.841091 102.140198 
L 333.330242 102.140198 
L 333.412077 90.64301 
L 333.60075 90.64301 
L 333.60075 86.810614 
L 334.131802 86.810614 
L 334.131802 82.978218 
L 334.459358 82.978218 
L 334.459358 79.145822 
L 334.945721 79.145822 
L 334.945721 75.313426 
L 336.042575 75.313426 
L 336.082186 67.648634 
L 336.232866 67.648634 
L 336.232866 63.816238 
L 336.455701 63.816238 
L 336.455701 59.983842 
L 337.036014 59.983842 
L 337.036014 56.151446 
L 338.734401 56.151446 
L 338.734401 52.31905 
L 339.675332 52.31905 
L 339.675332 48.486653 
L 340.24944 48.486653 
L 340.24944 44.654257 
L 347.786161 44.654257 
L 347.786161 40.821861 
L 355.480385 40.821861 
L 355.480385 36.989465 
L 357.22354 36.989465 
L 357.22354 33.157069 
L 358.097372 33.157069 
L 358.097372 29.324673 
L 359.075568 29.324673 
L 359.075568 25.492277 
L 360.709982 25.492277 
L 360.709982 21.659881 
L 361.703622 21.659881 
L 361.703622 17.827485 
L 363.707153 17.827485 
L 363.707153 13.995089 
L 364.722712 13.995089 
L 364.722712 10.162693 
L 370.371063 10.162693 
L 370.371063 6.330297 
L 370.371063 6.330297 
L 460.8 6.330297 
L 460.8 6.330297 
" clip-path="url(#p277d6cc912)" style="fill: none; stroke: #00bfbf; stroke-width: 1.5; stroke-linecap: square"/>
   </g>
   <g id="line2d_26">
    <path d="M 251.367138 293.76 
L 251.367138 289.927604 
L 253.382889 289.927604 
L 253.382889 286.095208 
L 254.369464 286.095208 
L 254.369464 282.262812 
L 254.482851 282.262812 
L 254.571238 270.765624 
L 256.17949 270.765624 
L 256.17949 266.933228 
L 256.511273 266.933228 
L 256.511273 263.100832 
L 256.685525 263.100832 
L 256.685525 259.268436 
L 256.900023 259.268436 
L 256.941123 251.603644 
L 257.882845 251.603644 
L 257.882845 247.771248 
L 260.166676 247.771248 
L 260.166676 243.938851 
L 260.377769 243.938851 
L 260.377769 240.106455 
L 262.247365 240.106455 
L 262.247365 236.274059 
L 291.184856 236.274059 
L 291.184856 232.441663 
L 293.450339 232.441663 
L 293.450339 228.609267 
L 299.229599 228.609267 
L 299.323434 220.944475 
L 301.620508 220.944475 
L 301.620508 217.112079 
L 302.402631 217.112079 
L 302.402631 213.279683 
L 303.028939 213.279683 
L 303.028939 209.447287 
L 304.057597 209.447287 
L 304.088474 201.782495 
L 304.222279 201.782495 
L 304.222279 197.950099 
L 304.618259 197.950099 
L 304.618259 194.117703 
L 304.745246 194.117703 
L 304.828374 186.452911 
L 305.070888 186.452911 
L 305.070888 182.620515 
L 305.233445 182.620515 
L 305.331532 171.123327 
L 305.653509 171.123327 
L 305.709322 163.458535 
L 306.697574 163.458535 
L 306.697574 159.626139 
L 306.894614 159.626139 
L 306.894614 155.793743 
L 307.303582 155.793743 
L 307.303582 151.961347 
L 307.590831 151.961347 
L 307.590831 148.12895 
L 308.981243 148.12895 
L 308.981243 144.296554 
L 309.335139 144.296554 
L 309.335139 140.464158 
L 311.290078 140.464158 
L 311.290078 136.631762 
L 311.922928 136.631762 
L 312.001383 125.134574 
L 312.659187 125.134574 
L 312.659187 121.302178 
L 312.873033 121.302178 
L 312.873033 117.469782 
L 314.294616 117.469782 
L 314.294616 113.637386 
L 314.82813 113.637386 
L 314.82813 109.80499 
L 315.754054 109.80499 
L 315.754054 105.972594 
L 317.432855 105.972594 
L 317.432855 102.140198 
L 318.535707 102.140198 
L 318.535707 98.307802 
L 319.760894 98.307802 
L 319.760894 94.475406 
L 320.072748 94.475406 
L 320.072748 90.64301 
L 320.658466 90.64301 
L 320.756068 79.145822 
L 321.159775 79.145822 
L 321.241468 71.48103 
L 321.303825 71.48103 
L 321.410989 63.816238 
L 322.107711 63.816238 
L 322.133492 56.151446 
L 322.308396 56.151446 
L 322.308396 52.31905 
L 322.568728 52.31905 
L 322.614683 40.821861 
L 323.638855 40.821861 
L 323.638855 36.989465 
L 323.898058 36.989465 
L 323.898058 33.157069 
L 324.18384 33.157069 
L 324.247159 25.492277 
L 324.749695 25.492277 
L 324.749695 21.659881 
L 325.444681 21.659881 
L 325.444681 17.827485 
L 326.941199 17.827485 
L 326.941199 13.995089 
L 328.955184 13.995089 
L 328.955184 10.162693 
L 333.934897 10.162693 
L 333.934897 6.330297 
L 333.934897 6.330297 
L 460.8 6.330297 
L 460.8 6.330297 
" clip-path="url(#p277d6cc912)" style="fill: none; stroke: #bf00bf; stroke-width: 1.5; stroke-linecap: square"/>
   </g>
   <g id="line2d_27">
    <path d="M -1 236.274059 
L 2.730821 236.274059 
L 2.730821 232.441663 
L 22.920974 232.441663 
L 22.920974 228.609267 
L 41.323957 228.609267 
L 41.323957 224.776871 
L 67.963346 224.776871 
L 67.963346 220.944475 
L 68.208849 220.944475 
L 68.208849 217.112079 
L 76.288377 217.112079 
L 76.288377 213.279683 
L 116.826748 213.279683 
L 116.826748 209.447287 
L 153.289296 209.447287 
L 153.289296 205.614891 
L 157.840324 205.614891 
L 157.840324 201.782495 
L 159.155043 201.782495 
L 159.155043 197.950099 
L 160.812763 197.950099 
L 160.812763 194.117703 
L 167.105776 194.117703 
L 167.105776 190.285307 
L 177.027704 190.285307 
L 177.027704 186.452911 
L 187.668144 186.452911 
L 187.668144 182.620515 
L 189.188341 182.620515 
L 189.188341 178.788119 
L 193.786369 178.788119 
L 193.786369 174.955723 
L 197.900342 174.955723 
L 197.900342 171.123327 
L 210.162347 171.123327 
L 210.162347 167.290931 
L 215.081719 167.290931 
L 215.081719 163.458535 
L 216.659072 163.458535 
L 216.659072 159.626139 
L 218.515787 159.626139 
L 218.515787 155.793743 
L 219.131668 155.793743 
L 219.131668 151.961347 
L 222.060709 151.961347 
L 222.060709 148.12895 
L 236.072828 148.12895 
L 236.072828 144.296554 
L 255.428838 144.296554 
L 255.428838 140.464158 
L 280.90585 140.464158 
L 280.90585 136.631762 
L 295.092698 136.631762 
L 295.092698 132.799366 
L 295.535468 132.799366 
L 295.535468 128.96697 
L 295.956521 128.96697 
L 295.956521 125.134574 
L 296.53238 125.134574 
L 296.53238 121.302178 
L 297.300728 121.302178 
L 297.300728 117.469782 
L 297.494667 117.469782 
L 297.587607 105.972594 
L 297.908049 105.972594 
L 297.908049 102.140198 
L 298.158419 102.140198 
L 298.158419 98.307802 
L 298.576251 98.307802 
L 298.576251 94.475406 
L 299.327087 94.475406 
L 299.35142 86.810614 
L 299.627473 86.810614 
L 299.627473 82.978218 
L 300.317003 82.978218 
L 300.317003 79.145822 
L 300.801167 79.145822 
L 300.801167 75.313426 
L 310.665779 75.313426 
L 310.665779 71.48103 
L 311.005753 71.48103 
L 311.038061 63.816238 
L 312.659187 63.816238 
L 312.659187 59.983842 
L 312.825287 59.983842 
L 312.825287 56.151446 
L 314.278804 56.151446 
L 314.294616 48.486653 
L 314.410574 48.486653 
L 314.410574 44.654257 
L 314.82813 44.654257 
L 314.82813 40.821861 
L 315.314898 40.821861 
L 315.314898 36.989465 
L 316.365308 36.989465 
L 316.365308 33.157069 
L 316.538567 33.157069 
L 316.538567 29.324673 
L 316.737001 29.324673 
L 316.737001 25.492277 
L 317.151262 25.492277 
L 317.151262 21.659881 
L 317.434475 21.659881 
L 317.434475 17.827485 
L 318.042324 17.827485 
L 318.042324 13.995089 
L 318.945428 13.995089 
L 318.945428 10.162693 
L 319.791666 10.162693 
L 319.791666 6.330297 
L 319.791666 6.330297 
L 460.8 6.330297 
L 460.8 6.330297 
" clip-path="url(#p277d6cc912)" style="fill: none; stroke: #000000; stroke-width: 1.5; stroke-linecap: square"/>
   </g>
   <g id="line2d_28">
    <path d="M -0.148048 293.76 
L -0.148048 151.961347 
L 19.961262 151.961347 
L 19.961262 148.12895 
L 207.926715 148.12895 
L 207.926715 144.296554 
L 218.194834 144.296554 
L 218.194834 140.464158 
L 226.853883 140.464158 
L 226.853883 136.631762 
L 249.323665 136.631762 
L 249.323665 132.799366 
L 252.263079 132.799366 
L 252.263079 128.96697 
L 259.989117 128.96697 
L 259.989117 125.134574 
L 275.913238 125.134574 
L 275.913238 121.302178 
L 280.897134 121.302178 
L 280.897134 117.469782 
L 283.406593 117.469782 
L 283.406593 113.637386 
L 283.860201 113.637386 
L 283.860201 109.80499 
L 284.616484 109.80499 
L 284.616484 105.972594 
L 287.293753 105.972594 
L 287.295036 98.307802 
L 287.821754 98.307802 
L 287.821754 94.475406 
L 288.955418 94.475406 
L 288.955418 90.64301 
L 290.091968 90.64301 
L 290.091968 86.810614 
L 291.804721 86.810614 
L 291.804721 82.978218 
L 293.759434 82.978218 
L 293.759434 79.145822 
L 294.95628 79.145822 
L 294.95628 75.313426 
L 301.212533 75.313426 
L 301.212533 71.48103 
L 306.570369 71.48103 
L 306.570369 67.648634 
L 307.23112 67.648634 
L 307.23112 63.816238 
L 308.746367 63.816238 
L 308.746367 59.983842 
L 308.90175 59.983842 
L 308.90175 56.151446 
L 309.159933 56.151446 
L 309.159933 52.31905 
L 309.359304 52.31905 
L 309.359304 48.486653 
L 309.573093 48.486653 
L 309.573093 44.654257 
L 309.78224 44.654257 
L 309.78224 40.821861 
L 310.815569 40.821861 
L 310.815569 36.989465 
L 311.005744 36.989465 
L 311.038061 29.324673 
L 311.201044 29.324673 
L 311.201044 25.492277 
L 312.659187 25.492277 
L 312.659187 21.659881 
L 313.42323 21.659881 
L 313.42323 17.827485 
L 314.278804 17.827485 
L 314.278804 13.995089 
L 314.82813 13.995089 
L 314.82813 10.162693 
L 318.945428 10.162693 
L 318.945428 6.330297 
L 318.945428 6.330297 
L 460.8 6.330297 
L 460.8 6.330297 
" clip-path="url(#p277d6cc912)" style="fill: none; stroke: #00bfbf; stroke-width: 1.5; stroke-linecap: square"/>
   </g>
   <g id="patch_3">
    <path d="M 0 293.76 
L 0 3.456 
" style="fill: none; stroke: #000000; stroke-width: 0.8; stroke-linejoin: miter; stroke-linecap: square"/>
   </g>
   <g id="patch_4">
    <path d="M 460.8 293.76 
L 460.8 3.456 
" style="fill: none; stroke: #000000; stroke-width: 0.8; stroke-linejoin: miter; stroke-linecap: square"/>
   </g>
   <g id="patch_5">
    <path d="M 0 293.76 
L 460.8 293.76 
" style="fill: none; stroke: #000000; stroke-width: 0.8; stroke-linejoin: miter; stroke-linecap: square"/>
   </g>
   <g id="patch_6">
    <path d="M 0 3.456 
L 460.8 3.456 
" style="fill: none; stroke: #000000; stroke-width: 0.8; stroke-linejoin: miter; stroke-linecap: square"/>
   </g>
   <g id="text_6">
    <!-- {f20-f24}, 10-D -->
    <g transform="translate(293.159 287.95392) scale(0.2 -0.2)">
     <defs>
      <path id="DejaVuSans-7b" d="M 3272 -594 
L 3272 -1044 
L 3078 -1044 
Q 2300 -1044 2036 -812 
Q 1772 -581 1772 109 
L 1772 856 
Q 1772 1328 1603 1509 
Q 1434 1691 991 1691 
L 800 1691 
L 800 2138 
L 991 2138 
Q 1438 2138 1605 2317 
Q 1772 2497 1772 2963 
L 1772 3713 
Q 1772 4403 2036 4633 
Q 2300 4863 3078 4863 
L 3272 4863 
L 3272 4416 
L 3059 4416 
Q 2619 4416 2484 4278 
Q 2350 4141 2350 3700 
L 2350 2925 
Q 2350 2434 2208 2212 
Q 2066 1991 1722 1913 
Q 2069 1828 2209 1606 
Q 2350 1384 2350 897 
L 2350 122 
Q 2350 -319 2484 -456 
Q 2619 -594 3059 -594 
L 3272 -594 
z
" transform="scale(0.015625)"/>
      <path id="DejaVuSans-7d" d="M 800 -594 
L 1019 -594 
Q 1456 -594 1589 -459 
Q 1722 -325 1722 122 
L 1722 897 
Q 1722 1384 1862 1606 
Q 2003 1828 2350 1913 
Q 2003 1991 1862 2212 
Q 1722 2434 1722 2925 
L 1722 3700 
Q 1722 4144 1589 4280 
Q 1456 4416 1019 4416 
L 800 4416 
L 800 4863 
L 997 4863 
Q 1775 4863 2036 4633 
Q 2297 4403 2297 3713 
L 2297 2963 
Q 2297 2497 2465 2317 
Q 2634 2138 3078 2138 
L 3272 2138 
L 3272 1691 
L 3078 1691 
Q 2634 1691 2465 1509 
Q 2297 1328 2297 856 
L 2297 109 
Q 2297 -581 2036 -812 
Q 1775 -1044 997 -1044 
L 800 -1044 
L 800 -594 
z
" transform="scale(0.015625)"/>
      <path id="DejaVuSans-2c" d="M 750 794 
L 1409 794 
L 1409 256 
L 897 -744 
L 494 -744 
L 750 256 
L 750 794 
z
" transform="scale(0.015625)"/>
     </defs>
     <use xlink:href="#DejaVuSans-7b"/>
     <use xlink:href="#DejaVuSans-66" x="63.623047"/>
     <use xlink:href="#DejaVuSans-32" x="98.828125"/>
     <use xlink:href="#DejaVuSans-30" x="162.451172"/>
     <use xlink:href="#DejaVuSans-2d" x="226.074219"/>
     <use xlink:href="#DejaVuSans-66" x="262.158203"/>
     <use xlink:href="#DejaVuSans-32" x="297.363281"/>
     <use xlink:href="#DejaVuSans-34" x="360.986328"/>
     <use xlink:href="#DejaVuSans-7d" x="424.609375"/>
     <use xlink:href="#DejaVuSans-2c" x="488.232422"/>
     <use xlink:href="#DejaVuSans-20" x="520.019531"/>
     <use xlink:href="#DejaVuSans-31" x="551.806641"/>
     <use xlink:href="#DejaVuSans-30" x="615.429688"/>
     <use xlink:href="#DejaVuSans-2d" x="679.052734"/>
     <use xlink:href="#DejaVuSans-44" x="715.136719"/>
    </g>
   </g>
   <g id="text_7">
    <!-- v2.6.4 -->
    <g style="fill: #808080" transform="translate(214.71875 288.777272) scale(0.1 -0.1)">
     <defs>
      <path id="DejaVuSans-76" d="M 191 3500 
L 800 3500 
L 1894 563 
L 2988 3500 
L 3597 3500 
L 2284 0 
L 1503 0 
L 191 3500 
z
" transform="scale(0.015625)"/>
      <path id="DejaVuSans-2e" d="M 684 794 
L 1344 794 
L 1344 0 
L 684 0 
L 684 794 
z
" transform="scale(0.015625)"/>
      <path id="DejaVuSans-36" d="M 2113 2584 
Q 1688 2584 1439 2293 
Q 1191 2003 1191 1497 
Q 1191 994 1439 701 
Q 1688 409 2113 409 
Q 2538 409 2786 701 
Q 3034 994 3034 1497 
Q 3034 2003 2786 2293 
Q 2538 2584 2113 2584 
z
M 3366 4563 
L 3366 3988 
Q 3128 4100 2886 4159 
Q 2644 4219 2406 4219 
Q 1781 4219 1451 3797 
Q 1122 3375 1075 2522 
Q 1259 2794 1537 2939 
Q 1816 3084 2150 3084 
Q 2853 3084 3261 2657 
Q 3669 2231 3669 1497 
Q 3669 778 3244 343 
Q 2819 -91 2113 -91 
Q 1303 -91 875 529 
Q 447 1150 447 2328 
Q 447 3434 972 4092 
Q 1497 4750 2381 4750 
Q 2619 4750 2861 4703 
Q 3103 4656 3366 4563 
z
" transform="scale(0.015625)"/>
     </defs>
     <use xlink:href="#DejaVuSans-76"/>
     <use xlink:href="#DejaVuSans-32" x="59.179688"/>
     <use xlink:href="#DejaVuSans-2e" x="122.802734"/>
     <use xlink:href="#DejaVuSans-36" x="154.589844"/>
     <use xlink:href="#DejaVuSans-2e" x="218.212891"/>
     <use xlink:href="#DejaVuSans-34" x="250"/>
    </g>
   </g>
  </g>
 </g>
 <defs>
  <clipPath id="p277d6cc912">
   <rect x="0" y="3.456" width="460.8" height="290.304"/>
  </clipPath>
 </defs>
</svg>
