<?xml version="1.0" encoding="utf-8" standalone="no"?>
<!DOCTYPE svg PUBLIC "-//W3C//DTD SVG 1.1//EN"
  "http://www.w3.org/Graphics/SVG/1.1/DTD/svg11.dtd">
<svg xmlns:xlink="http://www.w3.org/1999/xlink" width="460.8pt" height="345.6pt" viewBox="0 0 460.8 345.6" xmlns="http://www.w3.org/2000/svg" version="1.1">
 <metadata>
  <rdf:RDF xmlns:dc="http://purl.org/dc/elements/1.1/" xmlns:cc="http://creativecommons.org/ns#" xmlns:rdf="http://www.w3.org/1999/02/22-rdf-syntax-ns#">
   <cc:Work>
    <dc:type rdf:resource="http://purl.org/dc/dcmitype/StillImage"/>
    <dc:date>2024-10-07T17:44:39.811473</dc:date>
    <dc:format>image/svg+xml</dc:format>
    <dc:creator>
     <cc:Agent>
      <dc:title>Matplotlib v3.9.2, https://matplotlib.org/</dc:title>
     </cc:Agent>
    </dc:creator>
   </cc:Work>
  </rdf:RDF>
 </metadata>
 <defs>
  <style type="text/css">*{stroke-linejoin: round; stroke-linecap: butt}</style>
 </defs>
 <g id="figure_1">
  <g id="patch_1">
   <path d="M 0 345.6 
L 460.8 345.6 
L 460.8 0 
L 0 0 
z
" style="fill: #ffffff"/>
  </g>
  <g id="axes_1">
   <g id="patch_2">
    <path d="M 0 293.76 
L 460.8 293.76 
L 460.8 3.456 
L 0 3.456 
z
" style="fill: #ffffff"/>
   </g>
   <g id="matplotlib.axis_1">
    <g id="xtick_1">
     <g id="line2d_1">
      <path d="M 106.282232 293.76 
L 106.282232 3.456 
" clip-path="url(#p20ef12336d)" style="fill: none; stroke: #b0b0b0; stroke-width: 0.8; stroke-linecap: square"/>
     </g>
     <g id="line2d_2">
      <defs>
       <path id="m4ad39308b6" d="M 0 0 
L 0 3.5 
" style="stroke: #000000; stroke-width: 0.8"/>
      </defs>
      <g>
       <use xlink:href="#m4ad39308b6" x="106.282232" y="293.76" style="stroke: #000000; stroke-width: 0.8"/>
      </g>
     </g>
     <g id="text_1">
      <!-- -5 -->
      <g transform="translate(96.311919 315.956875) scale(0.2 -0.2)">
       <defs>
        <path id="DejaVuSans-2d" d="M 313 2009 
L 1997 2009 
L 1997 1497 
L 313 1497 
L 313 2009 
z
" transform="scale(0.015625)"/>
        <path id="DejaVuSans-35" d="M 691 4666 
L 3169 4666 
L 3169 4134 
L 1269 4134 
L 1269 2991 
Q 1406 3038 1543 3061 
Q 1681 3084 1819 3084 
Q 2600 3084 3056 2656 
Q 3513 2228 3513 1497 
Q 3513 744 3044 326 
Q 2575 -91 1722 -91 
Q 1428 -91 1123 -41 
Q 819 9 494 109 
L 494 744 
Q 775 591 1075 516 
Q 1375 441 1709 441 
Q 2250 441 2565 725 
Q 2881 1009 2881 1497 
Q 2881 1984 2565 2268 
Q 2250 2553 1709 2553 
Q 1456 2553 1204 2497 
Q 953 2441 691 2322 
L 691 4666 
z
" transform="scale(0.015625)"/>
       </defs>
       <use xlink:href="#DejaVuSans-2d"/>
       <use xlink:href="#DejaVuSans-35" x="36.083984"/>
      </g>
     </g>
    </g>
    <g id="xtick_2">
     <g id="line2d_3">
      <path d="M 212.71778 293.76 
L 212.71778 3.456 
" clip-path="url(#p20ef12336d)" style="fill: none; stroke: #b0b0b0; stroke-width: 0.8; stroke-linecap: square"/>
     </g>
     <g id="line2d_4">
      <g>
       <use xlink:href="#m4ad39308b6" x="212.71778" y="293.76" style="stroke: #000000; stroke-width: 0.8"/>
      </g>
     </g>
     <g id="text_2">
      <!-- -2 -->
      <g transform="translate(202.747467 315.956875) scale(0.2 -0.2)">
       <defs>
        <path id="DejaVuSans-32" d="M 1228 531 
L 3431 531 
L 3431 0 
L 469 0 
L 469 531 
Q 828 903 1448 1529 
Q 2069 2156 2228 2338 
Q 2531 2678 2651 2914 
Q 2772 3150 2772 3378 
Q 2772 3750 2511 3984 
Q 2250 4219 1831 4219 
Q 1534 4219 1204 4116 
Q 875 4013 500 3803 
L 500 4441 
Q 881 4594 1212 4672 
Q 1544 4750 1819 4750 
Q 2544 4750 2975 4387 
Q 3406 4025 3406 3419 
Q 3406 3131 3298 2873 
Q 3191 2616 2906 2266 
Q 2828 2175 2409 1742 
Q 1991 1309 1228 531 
z
" transform="scale(0.015625)"/>
       </defs>
       <use xlink:href="#DejaVuSans-2d"/>
       <use xlink:href="#DejaVuSans-32" x="36.083984"/>
      </g>
     </g>
    </g>
    <g id="xtick_3">
     <g id="line2d_5">
      <path d="M 319.153327 293.76 
L 319.153327 3.456 
" clip-path="url(#p20ef12336d)" style="fill: none; stroke: #b0b0b0; stroke-width: 0.8; stroke-linecap: square"/>
     </g>
     <g id="line2d_6">
      <g>
       <use xlink:href="#m4ad39308b6" x="319.153327" y="293.76" style="stroke: #000000; stroke-width: 0.8"/>
      </g>
     </g>
     <g id="text_3">
      <!-- 1 -->
      <g transform="translate(312.790827 315.956875) scale(0.2 -0.2)">
       <defs>
        <path id="DejaVuSans-31" d="M 794 531 
L 1825 531 
L 1825 4091 
L 703 3866 
L 703 4441 
L 1819 4666 
L 2450 4666 
L 2450 531 
L 3481 531 
L 3481 0 
L 794 0 
L 794 531 
z
" transform="scale(0.015625)"/>
       </defs>
       <use xlink:href="#DejaVuSans-31"/>
      </g>
     </g>
    </g>
    <g id="xtick_4">
     <g id="line2d_7">
      <path d="M 425.588875 293.76 
L 425.588875 3.456 
" clip-path="url(#p20ef12336d)" style="fill: none; stroke: #b0b0b0; stroke-width: 0.8; stroke-linecap: square"/>
     </g>
     <g id="line2d_8">
      <g>
       <use xlink:href="#m4ad39308b6" x="425.588875" y="293.76" style="stroke: #000000; stroke-width: 0.8"/>
      </g>
     </g>
     <g id="text_4">
      <!-- 4 -->
      <g transform="translate(419.226375 315.956875) scale(0.2 -0.2)">
       <defs>
        <path id="DejaVuSans-34" d="M 2419 4116 
L 825 1625 
L 2419 1625 
L 2419 4116 
z
M 2253 4666 
L 3047 4666 
L 3047 1625 
L 3713 1625 
L 3713 1100 
L 3047 1100 
L 3047 0 
L 2419 0 
L 2419 1100 
L 313 1100 
L 313 1709 
L 2253 4666 
z
" transform="scale(0.015625)"/>
       </defs>
       <use xlink:href="#DejaVuSans-34"/>
      </g>
     </g>
    </g>
    <g id="text_5">
     <!-- log10 of Df -->
     <g transform="translate(175.214063 339.313125) scale(0.2 -0.2)">
      <defs>
       <path id="DejaVuSans-6c" d="M 603 4863 
L 1178 4863 
L 1178 0 
L 603 0 
L 603 4863 
z
" transform="scale(0.015625)"/>
       <path id="DejaVuSans-6f" d="M 1959 3097 
Q 1497 3097 1228 2736 
Q 959 2375 959 1747 
Q 959 1119 1226 758 
Q 1494 397 1959 397 
Q 2419 397 2687 759 
Q 2956 1122 2956 1747 
Q 2956 2369 2687 2733 
Q 2419 3097 1959 3097 
z
M 1959 3584 
Q 2709 3584 3137 3096 
Q 3566 2609 3566 1747 
Q 3566 888 3137 398 
Q 2709 -91 1959 -91 
Q 1206 -91 779 398 
Q 353 888 353 1747 
Q 353 2609 779 3096 
Q 1206 3584 1959 3584 
z
" transform="scale(0.015625)"/>
       <path id="DejaVuSans-67" d="M 2906 1791 
Q 2906 2416 2648 2759 
Q 2391 3103 1925 3103 
Q 1463 3103 1205 2759 
Q 947 2416 947 1791 
Q 947 1169 1205 825 
Q 1463 481 1925 481 
Q 2391 481 2648 825 
Q 2906 1169 2906 1791 
z
M 3481 434 
Q 3481 -459 3084 -895 
Q 2688 -1331 1869 -1331 
Q 1566 -1331 1297 -1286 
Q 1028 -1241 775 -1147 
L 775 -588 
Q 1028 -725 1275 -790 
Q 1522 -856 1778 -856 
Q 2344 -856 2625 -561 
Q 2906 -266 2906 331 
L 2906 616 
Q 2728 306 2450 153 
Q 2172 0 1784 0 
Q 1141 0 747 490 
Q 353 981 353 1791 
Q 353 2603 747 3093 
Q 1141 3584 1784 3584 
Q 2172 3584 2450 3431 
Q 2728 3278 2906 2969 
L 2906 3500 
L 3481 3500 
L 3481 434 
z
" transform="scale(0.015625)"/>
       <path id="DejaVuSans-30" d="M 2034 4250 
Q 1547 4250 1301 3770 
Q 1056 3291 1056 2328 
Q 1056 1369 1301 889 
Q 1547 409 2034 409 
Q 2525 409 2770 889 
Q 3016 1369 3016 2328 
Q 3016 3291 2770 3770 
Q 2525 4250 2034 4250 
z
M 2034 4750 
Q 2819 4750 3233 4129 
Q 3647 3509 3647 2328 
Q 3647 1150 3233 529 
Q 2819 -91 2034 -91 
Q 1250 -91 836 529 
Q 422 1150 422 2328 
Q 422 3509 836 4129 
Q 1250 4750 2034 4750 
z
" transform="scale(0.015625)"/>
       <path id="DejaVuSans-20" transform="scale(0.015625)"/>
       <path id="DejaVuSans-66" d="M 2375 4863 
L 2375 4384 
L 1825 4384 
Q 1516 4384 1395 4259 
Q 1275 4134 1275 3809 
L 1275 3500 
L 2222 3500 
L 2222 3053 
L 1275 3053 
L 1275 0 
L 697 0 
L 697 3053 
L 147 3053 
L 147 3500 
L 697 3500 
L 697 3744 
Q 697 4328 969 4595 
Q 1241 4863 1831 4863 
L 2375 4863 
z
" transform="scale(0.015625)"/>
       <path id="DejaVuSans-44" d="M 1259 4147 
L 1259 519 
L 2022 519 
Q 2988 519 3436 956 
Q 3884 1394 3884 2338 
Q 3884 3275 3436 3711 
Q 2988 4147 2022 4147 
L 1259 4147 
z
M 628 4666 
L 1925 4666 
Q 3281 4666 3915 4102 
Q 4550 3538 4550 2338 
Q 4550 1131 3912 565 
Q 3275 0 1925 0 
L 628 0 
L 628 4666 
z
" transform="scale(0.015625)"/>
      </defs>
      <use xlink:href="#DejaVuSans-6c"/>
      <use xlink:href="#DejaVuSans-6f" x="27.783203"/>
      <use xlink:href="#DejaVuSans-67" x="88.964844"/>
      <use xlink:href="#DejaVuSans-31" x="152.441406"/>
      <use xlink:href="#DejaVuSans-30" x="216.064453"/>
      <use xlink:href="#DejaVuSans-20" x="279.6875"/>
      <use xlink:href="#DejaVuSans-6f" x="311.474609"/>
      <use xlink:href="#DejaVuSans-66" x="372.65625"/>
      <use xlink:href="#DejaVuSans-20" x="407.861328"/>
      <use xlink:href="#DejaVuSans-44" x="439.648438"/>
      <use xlink:href="#DejaVuSans-66" x="516.650391"/>
     </g>
    </g>
   </g>
   <g id="matplotlib.axis_2">
    <g id="ytick_1">
     <g id="line2d_9">
      <path d="M 0 293.76 
L 460.8 293.76 
" clip-path="url(#p20ef12336d)" style="fill: none; stroke: #b0b0b0; stroke-width: 0.8; stroke-linecap: square"/>
     </g>
     <g id="line2d_10">
      <defs>
       <path id="m01676eb852" d="M 0 0 
L -3.5 0 
" style="stroke: #000000; stroke-width: 0.8"/>
      </defs>
      <g>
       <use xlink:href="#m01676eb852" x="0" y="293.76" style="stroke: #000000; stroke-width: 0.8"/>
      </g>
     </g>
    </g>
    <g id="ytick_2">
     <g id="line2d_11">
      <path d="M 0 236.274059 
L 460.8 236.274059 
" clip-path="url(#p20ef12336d)" style="fill: none; stroke: #b0b0b0; stroke-width: 0.8; stroke-linecap: square"/>
     </g>
     <g id="line2d_12">
      <g>
       <use xlink:href="#m01676eb852" x="0" y="236.274059" style="stroke: #000000; stroke-width: 0.8"/>
      </g>
     </g>
    </g>
    <g id="ytick_3">
     <g id="line2d_13">
      <path d="M 0 178.788119 
L 460.8 178.788119 
" clip-path="url(#p20ef12336d)" style="fill: none; stroke: #b0b0b0; stroke-width: 0.8; stroke-linecap: square"/>
     </g>
     <g id="line2d_14">
      <g>
       <use xlink:href="#m01676eb852" x="0" y="178.788119" style="stroke: #000000; stroke-width: 0.8"/>
      </g>
     </g>
    </g>
    <g id="ytick_4">
     <g id="line2d_15">
      <path d="M 0 121.302178 
L 460.8 121.302178 
" clip-path="url(#p20ef12336d)" style="fill: none; stroke: #b0b0b0; stroke-width: 0.8; stroke-linecap: square"/>
     </g>
     <g id="line2d_16">
      <g>
       <use xlink:href="#m01676eb852" x="0" y="121.302178" style="stroke: #000000; stroke-width: 0.8"/>
      </g>
     </g>
    </g>
    <g id="ytick_5">
     <g id="line2d_17">
      <path d="M 0 63.816238 
L 460.8 63.816238 
" clip-path="url(#p20ef12336d)" style="fill: none; stroke: #b0b0b0; stroke-width: 0.8; stroke-linecap: square"/>
     </g>
     <g id="line2d_18">
      <g>
       <use xlink:href="#m01676eb852" x="0" y="63.816238" style="stroke: #000000; stroke-width: 0.8"/>
      </g>
     </g>
    </g>
    <g id="ytick_6">
     <g id="line2d_19">
      <path d="M 0 6.330297 
L 460.8 6.330297 
" clip-path="url(#p20ef12336d)" style="fill: none; stroke: #b0b0b0; stroke-width: 0.8; stroke-linecap: square"/>
     </g>
     <g id="line2d_20">
      <g>
       <use xlink:href="#m01676eb852" x="0" y="6.330297" style="stroke: #000000; stroke-width: 0.8"/>
      </g>
     </g>
    </g>
   </g>
   <g id="line2d_21">
    <path d="M 314.696896 293.76 
L 314.696896 289.927604 
L 315.256441 289.927604 
L 315.256441 286.095208 
L 317.413199 286.095208 
L 317.413199 282.262812 
L 319.016305 282.262812 
L 319.016305 278.430416 
L 320.107162 278.430416 
L 320.107162 274.59802 
L 321.607956 274.59802 
L 321.607956 270.765624 
L 321.86959 270.765624 
L 321.86959 266.933228 
L 322.107756 266.933228 
L 322.107756 263.100832 
L 322.330563 263.100832 
L 322.330563 259.268436 
L 322.523043 259.268436 
L 322.523043 255.43604 
L 323.263218 255.43604 
L 323.263218 251.603644 
L 323.451872 251.603644 
L 323.451872 247.771248 
L 323.680466 247.771248 
L 323.680466 243.938851 
L 323.816084 243.938851 
L 323.816084 240.106455 
L 324.005389 240.106455 
L 324.109702 232.441663 
L 324.19216 232.441663 
L 324.19216 228.609267 
L 325.105512 228.609267 
L 325.207117 220.944475 
L 325.534171 220.944475 
L 325.534171 217.112079 
L 325.829465 217.112079 
L 325.830713 209.447287 
L 326.168917 209.447287 
L 326.212779 201.782495 
L 326.78963 201.782495 
L 326.851871 194.117703 
L 327.3989 194.117703 
L 327.3989 190.285307 
L 327.864863 190.285307 
L 327.864945 182.620515 
L 327.983393 182.620515 
L 328.04057 174.955723 
L 328.413793 174.955723 
L 328.413793 171.123327 
L 328.731781 171.123327 
L 328.774206 163.458535 
L 329.139173 163.458535 
L 329.139173 159.626139 
L 329.36536 159.626139 
L 329.44213 148.12895 
L 329.894332 148.12895 
L 329.894332 144.296554 
L 330.044111 144.296554 
L 330.117864 132.799366 
L 330.492122 132.799366 
L 330.492122 128.96697 
L 332.955552 128.96697 
L 332.998262 121.302178 
L 338.099669 121.302178 
L 338.099669 117.469782 
L 341.121645 117.469782 
L 341.121645 113.637386 
L 343.892917 113.637386 
L 343.892917 109.80499 
L 344.156012 109.80499 
L 344.156012 105.972594 
L 344.553801 105.972594 
L 344.553801 102.140198 
L 346.057206 102.140198 
L 346.057206 98.307802 
L 347.312069 98.307802 
L 347.312069 94.475406 
L 347.775212 94.475406 
L 347.859094 82.978218 
L 347.963319 82.978218 
L 347.963319 79.145822 
L 348.45649 79.145822 
L 348.45649 75.313426 
L 349.39817 75.313426 
L 349.39817 71.48103 
L 349.736012 71.48103 
L 349.736012 67.648634 
L 350.048358 67.648634 
L 350.048358 63.816238 
L 350.163931 63.816238 
L 350.163931 59.983842 
L 353.087638 59.983842 
L 353.087638 56.151446 
L 359.832944 56.151446 
L 359.832944 52.31905 
L 363.458603 52.31905 
L 363.458603 48.486653 
L 364.685941 48.486653 
L 364.685941 44.654257 
L 365.289771 44.654257 
L 365.377123 36.989465 
L 366.42316 36.989465 
L 366.42316 33.157069 
L 371.61971 33.157069 
L 371.61971 29.324673 
L 371.760844 29.324673 
L 371.760844 25.492277 
L 372.193543 25.492277 
L 372.193543 21.659881 
L 372.307374 21.659881 
L 372.307374 17.827485 
L 374.825153 17.827485 
L 374.825153 13.995089 
L 378.249899 13.995089 
L 378.249899 10.162693 
L 378.738824 10.162693 
L 378.738824 6.330297 
L 378.738824 6.330297 
L 460.8 6.330297 
L 460.8 6.330297 
" clip-path="url(#p20ef12336d)" style="fill: none; stroke: #ff0000; stroke-width: 3; stroke-linecap: square"/>
   </g>
   <g id="line2d_22">
    <path d="M 324.213243 293.76 
L 324.213243 289.927604 
L 328.04057 289.927604 
L 328.123491 282.262812 
L 329.597275 282.262812 
L 329.597275 278.430416 
L 330.436978 278.430416 
L 330.436978 274.59802 
L 331.435933 274.59802 
L 331.435933 270.765624 
L 332.246125 270.765624 
L 332.246125 266.933228 
L 333.027435 266.933228 
L 333.027435 263.100832 
L 334.213829 263.100832 
L 334.213829 259.268436 
L 334.481205 259.268436 
L 334.481205 255.43604 
L 334.909859 255.43604 
L 334.909859 251.603644 
L 335.19625 251.603644 
L 335.19625 247.771248 
L 335.462765 247.771248 
L 335.516026 240.106455 
L 336.515425 240.106455 
L 336.515425 236.274059 
L 337.091707 236.274059 
L 337.186114 228.609267 
L 337.819199 228.609267 
L 337.819199 224.776871 
L 338.446621 224.776871 
L 338.480263 213.279683 
L 338.590066 213.279683 
L 338.590066 209.447287 
L 339.193346 209.447287 
L 339.228287 201.782495 
L 339.776685 201.782495 
L 339.87991 194.117703 
L 340.088339 194.117703 
L 340.088339 190.285307 
L 341.006607 190.285307 
L 341.093923 182.620515 
L 341.424929 182.620515 
L 341.424929 178.788119 
L 341.613081 178.788119 
L 341.613081 174.955723 
L 342.262154 174.955723 
L 342.262154 171.123327 
L 343.966886 171.123327 
L 343.966886 167.290931 
L 344.301438 167.290931 
L 344.301438 163.458535 
L 345.078306 163.458535 
L 345.078306 159.626139 
L 347.343726 159.626139 
L 347.343726 155.793743 
L 347.598866 155.793743 
L 347.598866 151.961347 
L 348.027068 151.961347 
L 348.027068 148.12895 
L 348.327696 148.12895 
L 348.327696 144.296554 
L 348.58844 144.296554 
L 348.58844 140.464158 
L 349.21754 140.464158 
L 349.21754 136.631762 
L 349.600704 136.631762 
L 349.659024 128.96697 
L 349.736012 128.96697 
L 349.736012 125.134574 
L 349.905618 125.134574 
L 349.991833 117.469782 
L 350.130979 117.469782 
L 350.162634 109.80499 
L 350.956247 109.80499 
L 350.956247 105.972594 
L 351.375623 105.972594 
L 351.375623 102.140198 
L 352.018228 102.140198 
L 352.018228 98.307802 
L 354.207189 98.307802 
L 354.207189 94.475406 
L 354.380121 94.475406 
L 354.477661 86.810614 
L 355.670011 86.810614 
L 355.670011 82.978218 
L 355.976844 82.978218 
L 355.976844 79.145822 
L 356.407317 79.145822 
L 356.407317 75.313426 
L 357.814994 75.313426 
L 357.814994 71.48103 
L 360.220708 71.48103 
L 360.220708 67.648634 
L 360.644826 67.648634 
L 360.644826 63.816238 
L 365.377123 63.816238 
L 365.377123 59.983842 
L 369.683401 59.983842 
L 369.683401 56.151446 
L 385.216043 56.151446 
L 385.216043 52.31905 
L 387.109392 52.31905 
L 387.109392 48.486653 
L 391.353 48.486653 
L 391.353 44.654257 
L 392.580144 44.654257 
L 392.580144 40.821861 
L 394.092818 40.821861 
L 394.092818 36.989465 
L 402.735695 36.989465 
L 402.735695 33.157069 
L 403.670187 33.157069 
L 403.670187 29.324673 
L 410.573219 29.324673 
L 410.573219 25.492277 
L 413.872214 25.492277 
L 413.872214 21.659881 
L 415.213547 21.659881 
L 415.213547 17.827485 
L 416.187459 17.827485 
L 416.187459 13.995089 
L 416.367397 13.995089 
L 416.367397 10.162693 
L 426.663585 10.162693 
L 426.663585 6.330297 
L 426.663585 6.330297 
L 460.8 6.330297 
L 460.8 6.330297 
" clip-path="url(#p20ef12336d)" style="fill: none; stroke: #00bfbf; stroke-width: 1.5; stroke-linecap: square"/>
   </g>
   <g id="line2d_23">
    <path d="M 323.065817 293.76 
L 323.065817 289.927604 
L 324.177556 289.927604 
L 324.213243 282.262812 
L 327.864945 282.262812 
L 327.864945 278.430416 
L 328.04057 278.430416 
L 328.123491 270.765624 
L 329.404259 270.765624 
L 329.404259 266.933228 
L 329.597275 266.933228 
L 329.597275 263.100832 
L 330.355825 263.100832 
L 330.436978 251.603644 
L 331.670525 251.603644 
L 331.670525 247.771248 
L 331.894889 247.771248 
L 331.894889 243.938851 
L 332.144736 243.938851 
L 332.144736 240.106455 
L 332.424532 240.106455 
L 332.424532 236.274059 
L 332.537855 236.274059 
L 332.597173 228.609267 
L 333.027435 228.609267 
L 333.027435 224.776871 
L 333.537576 224.776871 
L 333.537576 220.944475 
L 334.354364 220.944475 
L 334.354364 217.112079 
L 334.481205 217.112079 
L 334.481205 213.279683 
L 334.831147 213.279683 
L 334.909859 205.614891 
L 335.19625 205.614891 
L 335.232823 197.950099 
L 335.951741 197.950099 
L 335.951741 194.117703 
L 336.457932 194.117703 
L 336.477904 186.452911 
L 336.95966 186.452911 
L 336.95966 182.620515 
L 337.091707 182.620515 
L 337.091707 178.788119 
L 337.669199 178.788119 
L 337.669199 174.955723 
L 337.819199 174.955723 
L 337.819199 171.123327 
L 338.248076 171.123327 
L 338.248076 167.290931 
L 338.413979 167.290931 
L 338.474927 159.626139 
L 339.776685 159.626139 
L 339.776685 155.793743 
L 340.088339 155.793743 
L 340.088339 151.961347 
L 341.006607 151.961347 
L 341.006607 148.12895 
L 341.323682 148.12895 
L 341.323682 144.296554 
L 341.71541 144.296554 
L 341.738061 136.631762 
L 343.540666 136.631762 
L 343.540666 132.799366 
L 344.301438 132.799366 
L 344.301438 128.96697 
L 347.343726 128.96697 
L 347.343726 125.134574 
L 348.242205 125.134574 
L 348.242205 121.302178 
L 348.58844 121.302178 
L 348.58844 117.469782 
L 349.659024 117.469782 
L 349.736012 109.80499 
L 349.905618 109.80499 
L 349.905618 105.972594 
L 350.130979 105.972594 
L 350.130979 102.140198 
L 351.375623 102.140198 
L 351.375623 98.307802 
L 352.696641 98.307802 
L 352.696641 94.475406 
L 353.161421 94.475406 
L 353.161421 90.64301 
L 354.380121 90.64301 
L 354.477661 82.978218 
L 355.670011 82.978218 
L 355.670011 79.145822 
L 355.973573 79.145822 
L 355.976844 71.48103 
L 356.407317 71.48103 
L 356.407317 67.648634 
L 357.814994 67.648634 
L 357.814994 63.816238 
L 365.289771 63.816238 
L 365.377123 56.151446 
L 369.683401 56.151446 
L 369.683401 52.31905 
L 381.596176 52.31905 
L 381.596176 48.486653 
L 381.816298 48.486653 
L 381.816298 44.654257 
L 385.216043 44.654257 
L 385.216043 40.821861 
L 385.784823 40.821861 
L 385.784823 36.989465 
L 392.580144 36.989465 
L 392.580144 33.157069 
L 393.575955 33.157069 
L 393.575955 29.324673 
L 394.092818 29.324673 
L 394.092818 25.492277 
L 398.471456 25.492277 
L 398.471456 21.659881 
L 402.735695 21.659881 
L 402.735695 17.827485 
L 403.670187 17.827485 
L 403.670187 13.995089 
L 406.092369 13.995089 
L 406.092369 10.162693 
L 414.623341 10.162693 
L 414.623341 6.330297 
L 414.623341 6.330297 
L 460.8 6.330297 
L 460.8 6.330297 
" clip-path="url(#p20ef12336d)" style="fill: none; stroke: #bf00bf; stroke-width: 1.5; stroke-linecap: square"/>
   </g>
   <g id="line2d_24">
    <path d="M 322.523043 293.76 
L 322.523043 289.927604 
L 324.177556 289.927604 
L 324.213243 282.262812 
L 325.105512 282.262812 
L 325.105512 278.430416 
L 326.544006 278.430416 
L 326.544006 274.59802 
L 327.864945 274.59802 
L 327.864945 270.765624 
L 328.04057 270.765624 
L 328.123491 263.100832 
L 328.286885 263.100832 
L 328.286885 259.268436 
L 328.413793 259.268436 
L 328.479248 247.771248 
L 328.847922 247.771248 
L 328.847922 243.938851 
L 329.139173 243.938851 
L 329.193364 236.274059 
L 329.36536 236.274059 
L 329.404259 228.609267 
L 329.597275 228.609267 
L 329.597275 224.776871 
L 329.800509 224.776871 
L 329.800509 220.944475 
L 330.061463 220.944475 
L 330.171643 213.279683 
L 330.355825 213.279683 
L 330.410653 205.614891 
L 331.273298 205.614891 
L 331.273298 201.782495 
L 331.670525 201.782495 
L 331.772761 194.117703 
L 331.874366 194.117703 
L 331.874366 190.285307 
L 332.424532 190.285307 
L 332.534566 182.620515 
L 332.537855 182.620515 
L 332.537855 178.788119 
L 333.027435 178.788119 
L 333.027435 174.955723 
L 333.415403 174.955723 
L 333.415403 171.123327 
L 333.556042 171.123327 
L 333.556042 167.290931 
L 334.481205 167.290931 
L 334.481205 163.458535 
L 335.19625 163.458535 
L 335.19625 159.626139 
L 335.951741 159.626139 
L 335.951741 155.793743 
L 336.065292 155.793743 
L 336.065292 151.961347 
L 336.95966 151.961347 
L 337.024586 144.296554 
L 337.398014 144.296554 
L 337.398014 140.464158 
L 337.673734 140.464158 
L 337.673734 136.631762 
L 337.927739 136.631762 
L 337.927739 132.799366 
L 338.726855 132.799366 
L 338.726855 128.96697 
L 339.470934 128.96697 
L 339.470934 125.134574 
L 339.590199 125.134574 
L 339.590199 121.302178 
L 341.121645 121.302178 
L 341.121645 117.469782 
L 343.745202 117.469782 
L 343.745202 113.637386 
L 344.553801 113.637386 
L 344.553801 109.80499 
L 346.477415 109.80499 
L 346.477415 105.972594 
L 348.58844 105.972594 
L 348.58844 102.140198 
L 349.659024 102.140198 
L 349.736012 94.475406 
L 349.905618 94.475406 
L 349.905618 90.64301 
L 350.171903 90.64301 
L 350.250162 82.978218 
L 350.664835 82.978218 
L 350.664835 79.145822 
L 351.375623 79.145822 
L 351.375623 75.313426 
L 353.161421 75.313426 
L 353.161421 71.48103 
L 353.569243 71.48103 
L 353.569243 67.648634 
L 354.33833 67.648634 
L 354.33833 63.816238 
L 356.063754 63.816238 
L 356.063754 59.983842 
L 363.458603 59.983842 
L 363.458603 56.151446 
L 365.289771 56.151446 
L 365.377123 48.486653 
L 369.683401 48.486653 
L 369.683401 44.654257 
L 381.302438 44.654257 
L 381.302438 40.821861 
L 381.596176 40.821861 
L 381.596176 36.989465 
L 382.57663 36.989465 
L 382.57663 33.157069 
L 385.784823 33.157069 
L 385.784823 29.324673 
L 392.478436 29.324673 
L 392.580144 21.659881 
L 394.092818 21.659881 
L 394.092818 17.827485 
L 398.471456 17.827485 
L 398.471456 13.995089 
L 401.872537 13.995089 
L 401.872537 10.162693 
L 403.244359 10.162693 
L 403.244359 6.330297 
L 403.244359 6.330297 
L 460.8 6.330297 
L 460.8 6.330297 
" clip-path="url(#p20ef12336d)" style="fill: none; stroke: #000000; stroke-width: 1.5; stroke-linecap: square"/>
   </g>
   <g id="line2d_25">
    <path d="M 317.413199 293.76 
L 317.413199 289.927604 
L 320.107162 289.927604 
L 320.107162 286.095208 
L 322.330563 286.095208 
L 322.330563 282.262812 
L 322.448066 282.262812 
L 322.523043 274.59802 
L 323.263218 274.59802 
L 323.263218 270.765624 
L 323.680466 270.765624 
L 323.680466 266.933228 
L 323.816084 266.933228 
L 323.816084 263.100832 
L 324.005389 263.100832 
L 324.005389 259.268436 
L 324.298168 259.268436 
L 324.298168 255.43604 
L 325.105512 255.43604 
L 325.105512 251.603644 
L 325.623733 251.603644 
L 325.623733 247.771248 
L 325.830713 247.771248 
L 325.830713 243.938851 
L 326.168917 243.938851 
L 326.168917 240.106455 
L 326.544006 240.106455 
L 326.544006 236.274059 
L 326.78963 236.274059 
L 326.78963 232.441663 
L 327.864945 232.441663 
L 327.864945 228.609267 
L 327.982505 228.609267 
L 328.090986 217.112079 
L 328.286885 217.112079 
L 328.286885 213.279683 
L 328.413793 213.279683 
L 328.413793 209.447287 
L 328.552856 209.447287 
L 328.552856 205.614891 
L 328.731781 205.614891 
L 328.731781 201.782495 
L 328.847922 201.782495 
L 328.847922 197.950099 
L 329.139173 197.950099 
L 329.139173 194.117703 
L 329.36536 194.117703 
L 329.430852 182.620515 
L 330.061463 182.620515 
L 330.061463 178.788119 
L 330.753495 178.788119 
L 330.848426 171.123327 
L 331.671812 171.123327 
L 331.69976 163.458535 
L 332.188071 163.458535 
L 332.188071 159.626139 
L 332.399924 159.626139 
L 332.405864 151.961347 
L 332.534566 151.961347 
L 332.577043 144.296554 
L 332.93071 144.296554 
L 333.026153 136.631762 
L 333.32752 136.631762 
L 333.32752 132.799366 
L 335.951741 132.799366 
L 335.951741 128.96697 
L 338.726855 128.96697 
L 338.726855 125.134574 
L 339.470934 125.134574 
L 339.470934 121.302178 
L 341.121645 121.302178 
L 341.121645 117.469782 
L 343.745202 117.469782 
L 343.745202 113.637386 
L 344.471386 113.637386 
L 344.553801 105.972594 
L 346.477415 105.972594 
L 346.477415 102.140198 
L 347.775212 102.140198 
L 347.859094 90.64301 
L 348.122176 90.64301 
L 348.122176 86.810614 
L 349.604213 86.810614 
L 349.644128 79.145822 
L 349.736012 79.145822 
L 349.736012 75.313426 
L 350.163931 75.313426 
L 350.250162 63.816238 
L 351.800023 63.816238 
L 351.800023 59.983842 
L 353.087638 59.983842 
L 353.087638 56.151446 
L 359.832944 56.151446 
L 359.832944 52.31905 
L 363.458603 52.31905 
L 363.458603 48.486653 
L 364.685941 48.486653 
L 364.685941 44.654257 
L 365.289771 44.654257 
L 365.377123 36.989465 
L 366.42316 36.989465 
L 366.42316 33.157069 
L 371.760844 33.157069 
L 371.760844 29.324673 
L 372.193543 29.324673 
L 372.193543 25.492277 
L 372.307374 25.492277 
L 372.307374 21.659881 
L 375.170503 21.659881 
L 375.170503 17.827485 
L 378.738824 17.827485 
L 378.738824 13.995089 
L 380.899194 13.995089 
L 380.899194 10.162693 
L 381.596176 10.162693 
L 381.596176 6.330297 
L 381.596176 6.330297 
L 460.8 6.330297 
L 460.8 6.330297 
" clip-path="url(#p20ef12336d)" style="fill: none; stroke: #00bfbf; stroke-width: 1.5; stroke-linecap: square"/>
   </g>
   <g id="patch_3">
    <path d="M 0 293.76 
L 0 3.456 
" style="fill: none; stroke: #000000; stroke-width: 0.8; stroke-linejoin: miter; stroke-linecap: square"/>
   </g>
   <g id="patch_4">
    <path d="M 460.8 293.76 
L 460.8 3.456 
" style="fill: none; stroke: #000000; stroke-width: 0.8; stroke-linejoin: miter; stroke-linecap: square"/>
   </g>
   <g id="patch_5">
    <path d="M 0 293.76 
L 460.8 293.76 
" style="fill: none; stroke: #000000; stroke-width: 0.8; stroke-linejoin: miter; stroke-linecap: square"/>
   </g>
   <g id="patch_6">
    <path d="M 0 3.456 
L 460.8 3.456 
" style="fill: none; stroke: #000000; stroke-width: 0.8; stroke-linejoin: miter; stroke-linecap: square"/>
   </g>
   <g id="text_6">
    <!-- {f1-f5}, 10-D -->
    <g transform="translate(318.609 287.95392) scale(0.2 -0.2)">
     <defs>
      <path id="DejaVuSans-7b" d="M 3272 -594 
L 3272 -1044 
L 3078 -1044 
Q 2300 -1044 2036 -812 
Q 1772 -581 1772 109 
L 1772 856 
Q 1772 1328 1603 1509 
Q 1434 1691 991 1691 
L 800 1691 
L 800 2138 
L 991 2138 
Q 1438 2138 1605 2317 
Q 1772 2497 1772 2963 
L 1772 3713 
Q 1772 4403 2036 4633 
Q 2300 4863 3078 4863 
L 3272 4863 
L 3272 4416 
L 3059 4416 
Q 2619 4416 2484 4278 
Q 2350 4141 2350 3700 
L 2350 2925 
Q 2350 2434 2208 2212 
Q 2066 1991 1722 1913 
Q 2069 1828 2209 1606 
Q 2350 1384 2350 897 
L 2350 122 
Q 2350 -319 2484 -456 
Q 2619 -594 3059 -594 
L 3272 -594 
z
" transform="scale(0.015625)"/>
      <path id="DejaVuSans-7d" d="M 800 -594 
L 1019 -594 
Q 1456 -594 1589 -459 
Q 1722 -325 1722 122 
L 1722 897 
Q 1722 1384 1862 1606 
Q 2003 1828 2350 1913 
Q 2003 1991 1862 2212 
Q 1722 2434 1722 2925 
L 1722 3700 
Q 1722 4144 1589 4280 
Q 1456 4416 1019 4416 
L 800 4416 
L 800 4863 
L 997 4863 
Q 1775 4863 2036 4633 
Q 2297 4403 2297 3713 
L 2297 2963 
Q 2297 2497 2465 2317 
Q 2634 2138 3078 2138 
L 3272 2138 
L 3272 1691 
L 3078 1691 
Q 2634 1691 2465 1509 
Q 2297 1328 2297 856 
L 2297 109 
Q 2297 -581 2036 -812 
Q 1775 -1044 997 -1044 
L 800 -1044 
L 800 -594 
z
" transform="scale(0.015625)"/>
      <path id="DejaVuSans-2c" d="M 750 794 
L 1409 794 
L 1409 256 
L 897 -744 
L 494 -744 
L 750 256 
L 750 794 
z
" transform="scale(0.015625)"/>
     </defs>
     <use xlink:href="#DejaVuSans-7b"/>
     <use xlink:href="#DejaVuSans-66" x="63.623047"/>
     <use xlink:href="#DejaVuSans-31" x="98.828125"/>
     <use xlink:href="#DejaVuSans-2d" x="162.451172"/>
     <use xlink:href="#DejaVuSans-66" x="198.535156"/>
     <use xlink:href="#DejaVuSans-35" x="233.740234"/>
     <use xlink:href="#DejaVuSans-7d" x="297.363281"/>
     <use xlink:href="#DejaVuSans-2c" x="360.986328"/>
     <use xlink:href="#DejaVuSans-20" x="392.773438"/>
     <use xlink:href="#DejaVuSans-31" x="424.560547"/>
     <use xlink:href="#DejaVuSans-30" x="488.183594"/>
     <use xlink:href="#DejaVuSans-2d" x="551.806641"/>
     <use xlink:href="#DejaVuSans-44" x="587.890625"/>
    </g>
   </g>
   <g id="text_7">
    <!-- v2.6.4 -->
    <g style="fill: #808080" transform="translate(214.71875 288.777272) scale(0.1 -0.1)">
     <defs>
      <path id="DejaVuSans-76" d="M 191 3500 
L 800 3500 
L 1894 563 
L 2988 3500 
L 3597 3500 
L 2284 0 
L 1503 0 
L 191 3500 
z
" transform="scale(0.015625)"/>
      <path id="DejaVuSans-2e" d="M 684 794 
L 1344 794 
L 1344 0 
L 684 0 
L 684 794 
z
" transform="scale(0.015625)"/>
      <path id="DejaVuSans-36" d="M 2113 2584 
Q 1688 2584 1439 2293 
Q 1191 2003 1191 1497 
Q 1191 994 1439 701 
Q 1688 409 2113 409 
Q 2538 409 2786 701 
Q 3034 994 3034 1497 
Q 3034 2003 2786 2293 
Q 2538 2584 2113 2584 
z
M 3366 4563 
L 3366 3988 
Q 3128 4100 2886 4159 
Q 2644 4219 2406 4219 
Q 1781 4219 1451 3797 
Q 1122 3375 1075 2522 
Q 1259 2794 1537 2939 
Q 1816 3084 2150 3084 
Q 2853 3084 3261 2657 
Q 3669 2231 3669 1497 
Q 3669 778 3244 343 
Q 2819 -91 2113 -91 
Q 1303 -91 875 529 
Q 447 1150 447 2328 
Q 447 3434 972 4092 
Q 1497 4750 2381 4750 
Q 2619 4750 2861 4703 
Q 3103 4656 3366 4563 
z
" transform="scale(0.015625)"/>
     </defs>
     <use xlink:href="#DejaVuSans-76"/>
     <use xlink:href="#DejaVuSans-32" x="59.179688"/>
     <use xlink:href="#DejaVuSans-2e" x="122.802734"/>
     <use xlink:href="#DejaVuSans-36" x="154.589844"/>
     <use xlink:href="#DejaVuSans-2e" x="218.212891"/>
     <use xlink:href="#DejaVuSans-34" x="250"/>
    </g>
   </g>
  </g>
 </g>
 <defs>
  <clipPath id="p20ef12336d">
   <rect x="0" y="3.456" width="460.8" height="290.304"/>
  </clipPath>
 </defs>
</svg>
