<?xml version="1.0" encoding="utf-8" standalone="no"?>
<!DOCTYPE svg PUBLIC "-//W3C//DTD SVG 1.1//EN"
  "http://www.w3.org/Graphics/SVG/1.1/DTD/svg11.dtd">
<svg xmlns:xlink="http://www.w3.org/1999/xlink" width="460.8pt" height="345.6pt" viewBox="0 0 460.8 345.6" xmlns="http://www.w3.org/2000/svg" version="1.1">
 <metadata>
  <rdf:RDF xmlns:dc="http://purl.org/dc/elements/1.1/" xmlns:cc="http://creativecommons.org/ns#" xmlns:rdf="http://www.w3.org/1999/02/22-rdf-syntax-ns#">
   <cc:Work>
    <dc:type rdf:resource="http://purl.org/dc/dcmitype/StillImage"/>
    <dc:date>2024-10-11T15:13:53.160892</dc:date>
    <dc:format>image/svg+xml</dc:format>
    <dc:creator>
     <cc:Agent>
      <dc:title>Matplotlib v3.9.2, https://matplotlib.org/</dc:title>
     </cc:Agent>
    </dc:creator>
   </cc:Work>
  </rdf:RDF>
 </metadata>
 <defs>
  <style type="text/css">*{stroke-linejoin: round; stroke-linecap: butt}</style>
 </defs>
 <g id="figure_1">
  <g id="patch_1">
   <path d="M 0 345.6 
L 460.8 345.6 
L 460.8 0 
L 0 0 
z
" style="fill: #ffffff"/>
  </g>
  <g id="axes_1">
   <g id="patch_2">
    <path d="M 0 293.76 
L 460.8 293.76 
L 460.8 3.456 
L 0 3.456 
z
" style="fill: #ffffff"/>
   </g>
   <g id="matplotlib.axis_1">
    <g id="xtick_1">
     <g id="line2d_1">
      <path d="M 102.630429 293.76 
L 102.630429 3.456 
" clip-path="url(#pd853de4a6d)" style="fill: none; stroke: #b0b0b0; stroke-width: 0.8; stroke-linecap: square"/>
     </g>
     <g id="line2d_2">
      <defs>
       <path id="m6829c0ad9f" d="M 0 0 
L 0 3.5 
" style="stroke: #000000; stroke-width: 0.8"/>
      </defs>
      <g>
       <use xlink:href="#m6829c0ad9f" x="102.630429" y="293.76" style="stroke: #000000; stroke-width: 0.8"/>
      </g>
     </g>
     <g id="text_1">
      <!-- -5 -->
      <g transform="translate(92.660117 315.956875) scale(0.2 -0.2)">
       <defs>
        <path id="DejaVuSans-2d" d="M 313 2009 
L 1997 2009 
L 1997 1497 
L 313 1497 
L 313 2009 
z
" transform="scale(0.015625)"/>
        <path id="DejaVuSans-35" d="M 691 4666 
L 3169 4666 
L 3169 4134 
L 1269 4134 
L 1269 2991 
Q 1406 3038 1543 3061 
Q 1681 3084 1819 3084 
Q 2600 3084 3056 2656 
Q 3513 2228 3513 1497 
Q 3513 744 3044 326 
Q 2575 -91 1722 -91 
Q 1428 -91 1123 -41 
Q 819 9 494 109 
L 494 744 
Q 775 591 1075 516 
Q 1375 441 1709 441 
Q 2250 441 2565 725 
Q 2881 1009 2881 1497 
Q 2881 1984 2565 2268 
Q 2250 2553 1709 2553 
Q 1456 2553 1204 2497 
Q 953 2441 691 2322 
L 691 4666 
z
" transform="scale(0.015625)"/>
       </defs>
       <use xlink:href="#DejaVuSans-2d"/>
       <use xlink:href="#DejaVuSans-35" x="36.083984"/>
      </g>
     </g>
    </g>
    <g id="xtick_2">
     <g id="line2d_3">
      <path d="M 205.408906 293.76 
L 205.408906 3.456 
" clip-path="url(#pd853de4a6d)" style="fill: none; stroke: #b0b0b0; stroke-width: 0.8; stroke-linecap: square"/>
     </g>
     <g id="line2d_4">
      <g>
       <use xlink:href="#m6829c0ad9f" x="205.408906" y="293.76" style="stroke: #000000; stroke-width: 0.8"/>
      </g>
     </g>
     <g id="text_2">
      <!-- -2 -->
      <g transform="translate(195.438594 315.956875) scale(0.2 -0.2)">
       <defs>
        <path id="DejaVuSans-32" d="M 1228 531 
L 3431 531 
L 3431 0 
L 469 0 
L 469 531 
Q 828 903 1448 1529 
Q 2069 2156 2228 2338 
Q 2531 2678 2651 2914 
Q 2772 3150 2772 3378 
Q 2772 3750 2511 3984 
Q 2250 4219 1831 4219 
Q 1534 4219 1204 4116 
Q 875 4013 500 3803 
L 500 4441 
Q 881 4594 1212 4672 
Q 1544 4750 1819 4750 
Q 2544 4750 2975 4387 
Q 3406 4025 3406 3419 
Q 3406 3131 3298 2873 
Q 3191 2616 2906 2266 
Q 2828 2175 2409 1742 
Q 1991 1309 1228 531 
z
" transform="scale(0.015625)"/>
       </defs>
       <use xlink:href="#DejaVuSans-2d"/>
       <use xlink:href="#DejaVuSans-32" x="36.083984"/>
      </g>
     </g>
    </g>
    <g id="xtick_3">
     <g id="line2d_5">
      <path d="M 308.187383 293.76 
L 308.187383 3.456 
" clip-path="url(#pd853de4a6d)" style="fill: none; stroke: #b0b0b0; stroke-width: 0.8; stroke-linecap: square"/>
     </g>
     <g id="line2d_6">
      <g>
       <use xlink:href="#m6829c0ad9f" x="308.187383" y="293.76" style="stroke: #000000; stroke-width: 0.8"/>
      </g>
     </g>
     <g id="text_3">
      <!-- 1 -->
      <g transform="translate(301.824883 315.956875) scale(0.2 -0.2)">
       <defs>
        <path id="DejaVuSans-31" d="M 794 531 
L 1825 531 
L 1825 4091 
L 703 3866 
L 703 4441 
L 1819 4666 
L 2450 4666 
L 2450 531 
L 3481 531 
L 3481 0 
L 794 0 
L 794 531 
z
" transform="scale(0.015625)"/>
       </defs>
       <use xlink:href="#DejaVuSans-31"/>
      </g>
     </g>
    </g>
    <g id="xtick_4">
     <g id="line2d_7">
      <path d="M 410.965861 293.76 
L 410.965861 3.456 
" clip-path="url(#pd853de4a6d)" style="fill: none; stroke: #b0b0b0; stroke-width: 0.8; stroke-linecap: square"/>
     </g>
     <g id="line2d_8">
      <g>
       <use xlink:href="#m6829c0ad9f" x="410.965861" y="293.76" style="stroke: #000000; stroke-width: 0.8"/>
      </g>
     </g>
     <g id="text_4">
      <!-- 4 -->
      <g transform="translate(404.603361 315.956875) scale(0.2 -0.2)">
       <defs>
        <path id="DejaVuSans-34" d="M 2419 4116 
L 825 1625 
L 2419 1625 
L 2419 4116 
z
M 2253 4666 
L 3047 4666 
L 3047 1625 
L 3713 1625 
L 3713 1100 
L 3047 1100 
L 3047 0 
L 2419 0 
L 2419 1100 
L 313 1100 
L 313 1709 
L 2253 4666 
z
" transform="scale(0.015625)"/>
       </defs>
       <use xlink:href="#DejaVuSans-34"/>
      </g>
     </g>
    </g>
    <g id="text_5">
     <!-- log10 of Df -->
     <g transform="translate(175.214063 339.313125) scale(0.2 -0.2)">
      <defs>
       <path id="DejaVuSans-6c" d="M 603 4863 
L 1178 4863 
L 1178 0 
L 603 0 
L 603 4863 
z
" transform="scale(0.015625)"/>
       <path id="DejaVuSans-6f" d="M 1959 3097 
Q 1497 3097 1228 2736 
Q 959 2375 959 1747 
Q 959 1119 1226 758 
Q 1494 397 1959 397 
Q 2419 397 2687 759 
Q 2956 1122 2956 1747 
Q 2956 2369 2687 2733 
Q 2419 3097 1959 3097 
z
M 1959 3584 
Q 2709 3584 3137 3096 
Q 3566 2609 3566 1747 
Q 3566 888 3137 398 
Q 2709 -91 1959 -91 
Q 1206 -91 779 398 
Q 353 888 353 1747 
Q 353 2609 779 3096 
Q 1206 3584 1959 3584 
z
" transform="scale(0.015625)"/>
       <path id="DejaVuSans-67" d="M 2906 1791 
Q 2906 2416 2648 2759 
Q 2391 3103 1925 3103 
Q 1463 3103 1205 2759 
Q 947 2416 947 1791 
Q 947 1169 1205 825 
Q 1463 481 1925 481 
Q 2391 481 2648 825 
Q 2906 1169 2906 1791 
z
M 3481 434 
Q 3481 -459 3084 -895 
Q 2688 -1331 1869 -1331 
Q 1566 -1331 1297 -1286 
Q 1028 -1241 775 -1147 
L 775 -588 
Q 1028 -725 1275 -790 
Q 1522 -856 1778 -856 
Q 2344 -856 2625 -561 
Q 2906 -266 2906 331 
L 2906 616 
Q 2728 306 2450 153 
Q 2172 0 1784 0 
Q 1141 0 747 490 
Q 353 981 353 1791 
Q 353 2603 747 3093 
Q 1141 3584 1784 3584 
Q 2172 3584 2450 3431 
Q 2728 3278 2906 2969 
L 2906 3500 
L 3481 3500 
L 3481 434 
z
" transform="scale(0.015625)"/>
       <path id="DejaVuSans-30" d="M 2034 4250 
Q 1547 4250 1301 3770 
Q 1056 3291 1056 2328 
Q 1056 1369 1301 889 
Q 1547 409 2034 409 
Q 2525 409 2770 889 
Q 3016 1369 3016 2328 
Q 3016 3291 2770 3770 
Q 2525 4250 2034 4250 
z
M 2034 4750 
Q 2819 4750 3233 4129 
Q 3647 3509 3647 2328 
Q 3647 1150 3233 529 
Q 2819 -91 2034 -91 
Q 1250 -91 836 529 
Q 422 1150 422 2328 
Q 422 3509 836 4129 
Q 1250 4750 2034 4750 
z
" transform="scale(0.015625)"/>
       <path id="DejaVuSans-20" transform="scale(0.015625)"/>
       <path id="DejaVuSans-66" d="M 2375 4863 
L 2375 4384 
L 1825 4384 
Q 1516 4384 1395 4259 
Q 1275 4134 1275 3809 
L 1275 3500 
L 2222 3500 
L 2222 3053 
L 1275 3053 
L 1275 0 
L 697 0 
L 697 3053 
L 147 3053 
L 147 3500 
L 697 3500 
L 697 3744 
Q 697 4328 969 4595 
Q 1241 4863 1831 4863 
L 2375 4863 
z
" transform="scale(0.015625)"/>
       <path id="DejaVuSans-44" d="M 1259 4147 
L 1259 519 
L 2022 519 
Q 2988 519 3436 956 
Q 3884 1394 3884 2338 
Q 3884 3275 3436 3711 
Q 2988 4147 2022 4147 
L 1259 4147 
z
M 628 4666 
L 1925 4666 
Q 3281 4666 3915 4102 
Q 4550 3538 4550 2338 
Q 4550 1131 3912 565 
Q 3275 0 1925 0 
L 628 0 
L 628 4666 
z
" transform="scale(0.015625)"/>
      </defs>
      <use xlink:href="#DejaVuSans-6c"/>
      <use xlink:href="#DejaVuSans-6f" x="27.783203"/>
      <use xlink:href="#DejaVuSans-67" x="88.964844"/>
      <use xlink:href="#DejaVuSans-31" x="152.441406"/>
      <use xlink:href="#DejaVuSans-30" x="216.064453"/>
      <use xlink:href="#DejaVuSans-20" x="279.6875"/>
      <use xlink:href="#DejaVuSans-6f" x="311.474609"/>
      <use xlink:href="#DejaVuSans-66" x="372.65625"/>
      <use xlink:href="#DejaVuSans-20" x="407.861328"/>
      <use xlink:href="#DejaVuSans-44" x="439.648438"/>
      <use xlink:href="#DejaVuSans-66" x="516.650391"/>
     </g>
    </g>
   </g>
   <g id="matplotlib.axis_2">
    <g id="ytick_1">
     <g id="line2d_9">
      <path d="M 0 293.76 
L 460.8 293.76 
" clip-path="url(#pd853de4a6d)" style="fill: none; stroke: #b0b0b0; stroke-width: 0.8; stroke-linecap: square"/>
     </g>
     <g id="line2d_10">
      <defs>
       <path id="mb29a70a3fe" d="M 0 0 
L -3.5 0 
" style="stroke: #000000; stroke-width: 0.8"/>
      </defs>
      <g>
       <use xlink:href="#mb29a70a3fe" x="0" y="293.76" style="stroke: #000000; stroke-width: 0.8"/>
      </g>
     </g>
    </g>
    <g id="ytick_2">
     <g id="line2d_11">
      <path d="M 0 236.274059 
L 460.8 236.274059 
" clip-path="url(#pd853de4a6d)" style="fill: none; stroke: #b0b0b0; stroke-width: 0.8; stroke-linecap: square"/>
     </g>
     <g id="line2d_12">
      <g>
       <use xlink:href="#mb29a70a3fe" x="0" y="236.274059" style="stroke: #000000; stroke-width: 0.8"/>
      </g>
     </g>
    </g>
    <g id="ytick_3">
     <g id="line2d_13">
      <path d="M 0 178.788119 
L 460.8 178.788119 
" clip-path="url(#pd853de4a6d)" style="fill: none; stroke: #b0b0b0; stroke-width: 0.8; stroke-linecap: square"/>
     </g>
     <g id="line2d_14">
      <g>
       <use xlink:href="#mb29a70a3fe" x="0" y="178.788119" style="stroke: #000000; stroke-width: 0.8"/>
      </g>
     </g>
    </g>
    <g id="ytick_4">
     <g id="line2d_15">
      <path d="M 0 121.302178 
L 460.8 121.302178 
" clip-path="url(#pd853de4a6d)" style="fill: none; stroke: #b0b0b0; stroke-width: 0.8; stroke-linecap: square"/>
     </g>
     <g id="line2d_16">
      <g>
       <use xlink:href="#mb29a70a3fe" x="0" y="121.302178" style="stroke: #000000; stroke-width: 0.8"/>
      </g>
     </g>
    </g>
    <g id="ytick_5">
     <g id="line2d_17">
      <path d="M 0 63.816238 
L 460.8 63.816238 
" clip-path="url(#pd853de4a6d)" style="fill: none; stroke: #b0b0b0; stroke-width: 0.8; stroke-linecap: square"/>
     </g>
     <g id="line2d_18">
      <g>
       <use xlink:href="#mb29a70a3fe" x="0" y="63.816238" style="stroke: #000000; stroke-width: 0.8"/>
      </g>
     </g>
    </g>
    <g id="ytick_6">
     <g id="line2d_19">
      <path d="M 0 6.330297 
L 460.8 6.330297 
" clip-path="url(#pd853de4a6d)" style="fill: none; stroke: #b0b0b0; stroke-width: 0.8; stroke-linecap: square"/>
     </g>
     <g id="line2d_20">
      <g>
       <use xlink:href="#mb29a70a3fe" x="0" y="6.330297" style="stroke: #000000; stroke-width: 0.8"/>
      </g>
     </g>
    </g>
   </g>
   <g id="line2d_21">
    <path d="M -0.148048 293.76 
L -0.148048 90.64301 
L 212.21329 90.64301 
L 212.21329 86.810614 
L 213.418717 86.810614 
L 213.418717 82.978218 
L 219.295739 82.978218 
L 219.295739 79.145822 
L 221.511322 79.145822 
L 221.511322 75.313426 
L 223.754845 75.313426 
L 223.754845 71.48103 
L 226.366694 71.48103 
L 226.366694 67.648634 
L 227.961086 67.648634 
L 227.961086 63.816238 
L 231.535167 63.816238 
L 231.535167 59.983842 
L 231.766297 59.983842 
L 231.766297 56.151446 
L 233.763994 56.151446 
L 233.763994 52.31905 
L 238.176429 52.31905 
L 238.176429 48.486653 
L 238.53532 48.486653 
L 238.53532 44.654257 
L 241.426398 44.654257 
L 241.426398 40.821861 
L 243.698929 40.821861 
L 243.698929 36.989465 
L 244.273588 36.989465 
L 244.273588 33.157069 
L 261.398174 33.157069 
L 261.398174 29.324673 
L 264.38078 29.324673 
L 264.38078 25.492277 
L 266.689647 25.492277 
L 266.689647 21.659881 
L 275.993961 21.659881 
L 275.993961 17.827485 
L 282.189102 17.827485 
L 282.189102 13.995089 
L 288.208995 13.995089 
L 288.208995 10.162693 
L 288.762772 10.162693 
L 288.762772 6.330297 
L 288.762772 6.330297 
L 460.8 6.330297 
L 460.8 6.330297 
" clip-path="url(#pd853de4a6d)" style="fill: none; stroke: #ff0000; stroke-width: 3; stroke-linecap: square"/>
   </g>
   <g id="line2d_22">
    <path d="M 307.635664 293.76 
L 307.635664 289.927604 
L 312.659177 289.927604 
L 312.659177 286.095208 
L 314.327524 286.095208 
L 314.327524 282.262812 
L 315.423691 282.262812 
L 315.423691 278.430416 
L 318.321586 278.430416 
L 318.321586 274.59802 
L 318.551698 274.59802 
L 318.551698 270.765624 
L 319.81835 270.765624 
L 319.81835 266.933228 
L 320.872918 266.933228 
L 320.872918 263.100832 
L 324.007515 263.100832 
L 324.117674 255.43604 
L 324.700579 255.43604 
L 324.700579 251.603644 
L 325.085129 251.603644 
L 325.085129 247.771248 
L 325.228297 247.771248 
L 325.228297 243.938851 
L 326.924064 243.938851 
L 326.924064 240.106455 
L 327.825575 240.106455 
L 327.825575 236.274059 
L 335.139559 236.274059 
L 335.139559 232.441663 
L 343.57732 232.441663 
L 343.57732 228.609267 
L 344.151379 228.609267 
L 344.151379 224.776871 
L 344.392362 224.776871 
L 344.392362 220.944475 
L 345.152473 220.944475 
L 345.152473 217.112079 
L 345.430896 217.112079 
L 345.430896 213.279683 
L 345.842756 213.279683 
L 345.951983 205.614891 
L 346.143144 205.614891 
L 346.143144 201.782495 
L 347.616928 201.782495 
L 347.616928 197.950099 
L 347.859705 197.950099 
L 347.859705 194.117703 
L 348.724814 194.117703 
L 348.724814 190.285307 
L 348.87319 190.285307 
L 348.87319 186.452911 
L 349.106377 186.452911 
L 349.106377 182.620515 
L 349.521917 182.620515 
L 349.521917 178.788119 
L 350.501045 178.788119 
L 350.501045 174.955723 
L 364.296307 174.955723 
L 364.296307 171.123327 
L 370.93183 171.123327 
L 370.93183 167.290931 
L 371.048014 167.290931 
L 371.048014 163.458535 
L 372.054515 163.458535 
L 372.054515 159.626139 
L 374.633777 159.626139 
L 374.633777 155.793743 
L 379.19852 155.793743 
L 379.19852 151.961347 
L 384.793453 151.961347 
L 384.793453 148.12895 
L 386.334637 148.12895 
L 386.334637 144.296554 
L 389.19121 144.296554 
L 389.19121 140.464158 
L 391.755503 140.464158 
L 391.755503 136.631762 
L 392.640923 136.631762 
L 392.640923 132.799366 
L 395.319999 132.799366 
L 395.319999 128.96697 
L 395.599557 128.96697 
L 395.599557 125.134574 
L 396.022523 125.134574 
L 396.022523 121.302178 
L 396.862207 121.302178 
L 396.899337 113.637386 
L 397.083037 113.637386 
L 397.083037 109.80499 
L 397.780137 109.80499 
L 397.780137 105.972594 
L 398.504052 105.972594 
L 398.504052 102.140198 
L 400.100016 102.140198 
L 400.100016 98.307802 
L 400.64361 98.307802 
L 400.64361 94.475406 
L 401.209794 94.475406 
L 401.209794 90.64301 
L 401.748585 90.64301 
L 401.764896 82.978218 
L 403.115725 82.978218 
L 403.189366 75.313426 
L 404.05286 75.313426 
L 404.05286 71.48103 
L 404.406339 71.48103 
L 404.406339 67.648634 
L 404.634531 67.648634 
L 404.634531 63.816238 
L 406.197095 63.816238 
L 406.197095 59.983842 
L 407.724077 59.983842 
L 407.820115 52.31905 
L 411.037362 52.31905 
L 411.037362 48.486653 
L 411.59516 48.486653 
L 411.59516 44.654257 
L 412.096007 44.654257 
L 412.096007 40.821861 
L 414.669608 40.821861 
L 414.669608 36.989465 
L 415.998017 36.989465 
L 415.998017 33.157069 
L 417.98473 33.157069 
L 417.98473 29.324673 
L 421.50958 29.324673 
L 421.50958 25.492277 
L 422.74088 25.492277 
L 422.74088 21.659881 
L 423.497752 21.659881 
L 423.497752 17.827485 
L 427.308957 17.827485 
L 427.308957 13.995089 
L 428.179497 13.995089 
L 428.179497 10.162693 
L 429.310652 10.162693 
L 429.310652 6.330297 
L 429.310652 6.330297 
L 460.8 6.330297 
L 460.8 6.330297 
" clip-path="url(#pd853de4a6d)" style="fill: none; stroke: #00bfbf; stroke-width: 1.5; stroke-linecap: square"/>
   </g>
   <g id="line2d_23">
    <path d="M 307.131919 293.76 
L 307.131919 289.927604 
L 307.635664 289.927604 
L 307.635664 286.095208 
L 308.988785 286.095208 
L 308.988785 282.262812 
L 312.920703 282.262812 
L 312.920703 278.430416 
L 314.327524 278.430416 
L 314.327524 274.59802 
L 314.721878 274.59802 
L 314.721878 270.765624 
L 315.409075 270.765624 
L 315.423691 263.100832 
L 316.584355 263.100832 
L 316.584355 259.268436 
L 318.321586 259.268436 
L 318.321586 255.43604 
L 318.704203 255.43604 
L 318.704203 251.603644 
L 319.795557 251.603644 
L 319.795557 247.771248 
L 320.779151 247.771248 
L 320.779151 243.938851 
L 324.007515 243.938851 
L 324.007515 240.106455 
L 324.238384 240.106455 
L 324.238384 236.274059 
L 325.648926 236.274059 
L 325.648926 232.441663 
L 327.015615 232.441663 
L 327.015615 228.609267 
L 327.517117 228.609267 
L 327.517117 224.776871 
L 335.139559 224.776871 
L 335.139559 220.944475 
L 339.503651 220.944475 
L 339.513768 213.279683 
L 342.234507 213.279683 
L 342.234507 209.447287 
L 342.383338 209.447287 
L 342.383338 205.614891 
L 343.561783 205.614891 
L 343.57732 197.950099 
L 343.795158 197.950099 
L 343.795158 194.117703 
L 344.838549 194.117703 
L 344.838549 190.285307 
L 345.052152 190.285307 
L 345.095897 182.620515 
L 345.951983 182.620515 
L 345.951983 178.788119 
L 346.143144 178.788119 
L 346.143144 174.955723 
L 346.460771 174.955723 
L 346.494889 167.290931 
L 347.38681 167.290931 
L 347.38681 163.458535 
L 353.752685 163.458535 
L 353.752685 159.626139 
L 358.393385 159.626139 
L 358.393385 155.793743 
L 363.365668 155.793743 
L 363.365668 151.961347 
L 364.296307 151.961347 
L 364.296307 148.12895 
L 367.307436 148.12895 
L 367.307436 144.296554 
L 368.461285 144.296554 
L 368.461285 140.464158 
L 369.379985 140.464158 
L 369.379985 136.631762 
L 370.799507 136.631762 
L 370.799507 132.799366 
L 371.048014 132.799366 
L 371.048014 128.96697 
L 372.054515 128.96697 
L 372.054515 125.134574 
L 376.558163 125.134574 
L 376.558163 121.302178 
L 379.19852 121.302178 
L 379.19852 117.469782 
L 381.68351 117.469782 
L 381.68351 113.637386 
L 382.334324 113.637386 
L 382.334324 109.80499 
L 384.793453 109.80499 
L 384.793453 105.972594 
L 386.334637 105.972594 
L 386.334637 102.140198 
L 391.755503 102.140198 
L 391.755503 98.307802 
L 392.640923 98.307802 
L 392.640923 94.475406 
L 393.351099 94.475406 
L 393.351099 90.64301 
L 393.571338 90.64301 
L 393.571338 86.810614 
L 393.884008 86.810614 
L 393.884008 82.978218 
L 395.062561 82.978218 
L 395.062561 79.145822 
L 395.319999 79.145822 
L 395.319999 75.313426 
L 395.75622 75.313426 
L 395.75622 71.48103 
L 396.022523 71.48103 
L 396.064612 63.816238 
L 397.628779 63.816238 
L 397.628779 59.983842 
L 398.234668 59.983842 
L 398.234668 56.151446 
L 399.98197 56.151446 
L 399.98197 52.31905 
L 400.143694 52.31905 
L 400.143694 48.486653 
L 401.209794 48.486653 
L 401.209794 44.654257 
L 402.870127 44.654257 
L 402.870127 40.821861 
L 403.115725 40.821861 
L 403.115725 36.989465 
L 405.825062 36.989465 
L 405.825062 33.157069 
L 408.101908 33.157069 
L 408.101908 29.324673 
L 409.284896 29.324673 
L 409.327193 21.659881 
L 410.271453 21.659881 
L 410.271453 17.827485 
L 415.998017 17.827485 
L 415.998017 13.995089 
L 424.637474 13.995089 
L 424.637474 10.162693 
L 428.179497 10.162693 
L 428.179497 6.330297 
L 428.179497 6.330297 
L 460.8 6.330297 
L 460.8 6.330297 
" clip-path="url(#pd853de4a6d)" style="fill: none; stroke: #bf00bf; stroke-width: 1.5; stroke-linecap: square"/>
   </g>
   <g id="line2d_24">
    <path d="M 273.860455 293.76 
L 273.860455 289.927604 
L 289.317355 289.927604 
L 289.317355 286.095208 
L 300.10906 286.095208 
L 300.10906 282.262812 
L 304.194399 282.262812 
L 304.194399 278.430416 
L 307.635664 278.430416 
L 307.635664 274.59802 
L 308.399886 274.59802 
L 308.399886 270.765624 
L 308.988785 270.765624 
L 308.988785 266.933228 
L 311.397552 266.933228 
L 311.397552 263.100832 
L 312.920703 263.100832 
L 312.982044 255.43604 
L 314.327524 255.43604 
L 314.327524 251.603644 
L 314.911517 251.603644 
L 315.007307 243.938851 
L 315.409075 243.938851 
L 315.423691 236.274059 
L 315.883702 236.274059 
L 315.883702 232.441663 
L 318.166673 232.441663 
L 318.166673 228.609267 
L 318.489783 228.609267 
L 318.489783 224.776871 
L 320.779151 224.776871 
L 320.779151 220.944475 
L 323.445861 220.944475 
L 323.445861 217.112079 
L 324.238384 217.112079 
L 324.238384 213.279683 
L 324.612669 213.279683 
L 324.612669 209.447287 
L 327.517117 209.447287 
L 327.517117 205.614891 
L 335.139559 205.614891 
L 335.139559 201.782495 
L 338.392337 201.782495 
L 338.392337 197.950099 
L 338.955731 197.950099 
L 338.955731 194.117703 
L 339.503651 194.117703 
L 339.513768 186.452911 
L 341.442571 186.452911 
L 341.442571 182.620515 
L 341.917056 182.620515 
L 341.9381 174.955723 
L 342.124616 174.955723 
L 342.124616 171.123327 
L 342.383338 171.123327 
L 342.383338 167.290931 
L 343.359011 167.290931 
L 343.359011 163.458535 
L 343.57732 163.458535 
L 343.57732 159.626139 
L 343.795158 159.626139 
L 343.795158 155.793743 
L 344.838549 155.793743 
L 344.838549 151.961347 
L 345.052152 151.961347 
L 345.052152 148.12895 
L 346.007837 148.12895 
L 346.007837 144.296554 
L 347.02586 144.296554 
L 347.02586 140.464158 
L 357.447869 140.464158 
L 357.447869 136.631762 
L 357.858897 136.631762 
L 357.858897 132.799366 
L 358.393385 132.799366 
L 358.393385 128.96697 
L 363.365668 128.96697 
L 363.365668 125.134574 
L 363.827332 125.134574 
L 363.827332 121.302178 
L 364.296307 121.302178 
L 364.296307 117.469782 
L 367.307436 117.469782 
L 367.307436 113.637386 
L 368.461285 113.637386 
L 368.461285 109.80499 
L 369.377639 109.80499 
L 369.379985 102.140198 
L 369.568995 102.140198 
L 369.568995 98.307802 
L 372.453252 98.307802 
L 372.564016 90.64301 
L 376.579941 90.64301 
L 376.579941 86.810614 
L 379.001476 86.810614 
L 379.001476 82.978218 
L 381.68351 82.978218 
L 381.68351 79.145822 
L 381.952261 79.145822 
L 381.952261 75.313426 
L 382.334324 75.313426 
L 382.334324 71.48103 
L 387.702935 71.48103 
L 387.702935 67.648634 
L 389.238571 67.648634 
L 389.238571 63.816238 
L 390.457918 63.816238 
L 390.457918 59.983842 
L 392.486232 59.983842 
L 392.486232 56.151446 
L 392.640923 56.151446 
L 392.640923 52.31905 
L 395.319999 52.31905 
L 395.319999 48.486653 
L 395.816341 48.486653 
L 395.816341 44.654257 
L 396.168168 44.654257 
L 396.168168 40.821861 
L 397.193114 40.821861 
L 397.193114 36.989465 
L 398.234668 36.989465 
L 398.258239 29.324673 
L 400.143694 29.324673 
L 400.143694 25.492277 
L 401.209794 25.492277 
L 401.209794 21.659881 
L 402.730529 21.659881 
L 402.730529 17.827485 
L 404.171814 17.827485 
L 404.171814 13.995089 
L 408.101908 13.995089 
L 408.101908 10.162693 
L 415.998017 10.162693 
L 415.998017 6.330297 
L 415.998017 6.330297 
L 460.8 6.330297 
L 460.8 6.330297 
" clip-path="url(#pd853de4a6d)" style="fill: none; stroke: #000000; stroke-width: 1.5; stroke-linecap: square"/>
   </g>
   <g id="line2d_25">
    <path d="M 258.826013 293.76 
L 258.826013 289.927604 
L 265.341327 289.927604 
L 265.341327 286.095208 
L 270.686234 286.095208 
L 270.686234 282.262812 
L 271.992089 282.262812 
L 271.992089 278.430416 
L 273.860455 278.430416 
L 273.860455 274.59802 
L 275.809077 274.59802 
L 275.809077 270.765624 
L 277.553498 270.765624 
L 277.553498 266.933228 
L 289.317355 266.933228 
L 289.317355 263.100832 
L 295.419696 263.100832 
L 295.419696 259.268436 
L 300.10906 259.268436 
L 300.10906 255.43604 
L 300.848232 255.43604 
L 300.848232 251.603644 
L 301.340527 251.603644 
L 301.340527 247.771248 
L 303.900056 247.771248 
L 303.900056 243.938851 
L 304.194399 243.938851 
L 304.194399 240.106455 
L 304.465891 240.106455 
L 304.465891 236.274059 
L 306.412651 236.274059 
L 306.412651 232.441663 
L 307.152332 232.441663 
L 307.185108 224.776871 
L 307.277107 224.776871 
L 307.277107 220.944475 
L 308.023814 220.944475 
L 308.023814 217.112079 
L 308.290633 217.112079 
L 308.399886 209.447287 
L 310.837001 209.447287 
L 310.837001 205.614891 
L 312.201856 205.614891 
L 312.201856 201.782495 
L 312.723149 201.782495 
L 312.723149 197.950099 
L 315.084517 197.950099 
L 315.084517 194.117703 
L 315.883702 194.117703 
L 315.883702 190.285307 
L 318.396485 190.285307 
L 318.396485 186.452911 
L 325.659885 186.452911 
L 325.659885 182.620515 
L 330.89994 182.620515 
L 330.89994 178.788119 
L 335.139559 178.788119 
L 335.139559 174.955723 
L 335.637877 174.955723 
L 335.637877 171.123327 
L 338.109074 171.123327 
L 338.109074 167.290931 
L 338.392337 167.290931 
L 338.392337 163.458535 
L 339.503651 163.458535 
L 339.503651 159.626139 
L 339.669468 159.626139 
L 339.734319 151.961347 
L 340.219819 151.961347 
L 340.219819 148.12895 
L 340.682457 148.12895 
L 340.742078 140.464158 
L 341.917056 140.464158 
L 341.917056 136.631762 
L 342.100105 136.631762 
L 342.135941 128.96697 
L 343.356958 128.96697 
L 343.356958 125.134574 
L 344.651785 125.134574 
L 344.651785 121.302178 
L 352.987259 121.302178 
L 352.987259 117.469782 
L 358.393385 117.469782 
L 358.393385 113.637386 
L 363.827332 113.637386 
L 363.827332 109.80499 
L 364.296307 109.80499 
L 364.296307 105.972594 
L 364.53857 105.972594 
L 364.53857 102.140198 
L 365.095766 102.140198 
L 365.095766 98.307802 
L 367.286275 98.307802 
L 367.286275 94.475406 
L 367.694272 94.475406 
L 367.694272 90.64301 
L 368.121929 90.64301 
L 368.121929 86.810614 
L 369.377639 86.810614 
L 369.399034 75.313426 
L 373.215482 75.313426 
L 373.215482 71.48103 
L 373.548271 71.48103 
L 373.548271 67.648634 
L 376.295364 67.648634 
L 376.295364 63.816238 
L 376.579941 63.816238 
L 376.579941 59.983842 
L 377.832976 59.983842 
L 377.832976 56.151446 
L 379.329438 56.151446 
L 379.329438 52.31905 
L 381.68351 52.31905 
L 381.68351 48.486653 
L 381.952261 48.486653 
L 381.952261 44.654257 
L 384.743983 44.654257 
L 384.743983 40.821861 
L 385.128909 40.821861 
L 385.128909 36.989465 
L 386.224407 36.989465 
L 386.224407 33.157069 
L 387.06485 33.157069 
L 387.06485 29.324673 
L 389.593064 29.324673 
L 389.593064 25.492277 
L 390.457918 25.492277 
L 390.457918 21.659881 
L 391.32061 21.659881 
L 391.32061 17.827485 
L 392.965855 17.827485 
L 392.965855 13.995089 
L 394.555785 13.995089 
L 394.555785 10.162693 
L 395.967733 10.162693 
L 395.967733 6.330297 
L 395.967733 6.330297 
L 460.8 6.330297 
L 460.8 6.330297 
" clip-path="url(#pd853de4a6d)" style="fill: none; stroke: #00bfbf; stroke-width: 1.5; stroke-linecap: square"/>
   </g>
   <g id="line2d_26">
    <path d="M 257.181289 293.76 
L 257.181289 289.927604 
L 258.826013 289.927604 
L 258.826013 286.095208 
L 260.78499 286.095208 
L 260.78499 282.262812 
L 263.184228 282.262812 
L 263.184228 278.430416 
L 263.910352 278.430416 
L 263.910352 274.59802 
L 265.936588 274.59802 
L 265.936588 270.765624 
L 266.197478 270.765624 
L 266.197478 266.933228 
L 266.616917 266.933228 
L 266.616917 263.100832 
L 266.935199 263.100832 
L 267.040972 255.43604 
L 267.896963 255.43604 
L 267.896963 251.603644 
L 269.889304 251.603644 
L 269.889304 247.771248 
L 273.575 247.771248 
L 273.575 243.938851 
L 280.104961 243.938851 
L 280.18939 236.274059 
L 284.950887 236.274059 
L 284.950887 232.441663 
L 285.546419 232.441663 
L 285.546419 228.609267 
L 285.714814 228.609267 
L 285.714814 224.776871 
L 287.861488 224.776871 
L 287.861488 220.944475 
L 288.388125 220.944475 
L 288.489035 213.279683 
L 288.943493 213.279683 
L 288.976857 205.614891 
L 289.068925 205.614891 
L 289.068925 201.782495 
L 289.646372 201.782495 
L 289.646372 197.950099 
L 292.172987 197.950099 
L 292.172987 194.117703 
L 292.72968 194.117703 
L 292.72968 190.285307 
L 294.979517 190.285307 
L 294.979517 186.452911 
L 297.763044 186.452911 
L 297.763044 182.620515 
L 309.364999 182.620515 
L 309.364999 178.788119 
L 312.235987 178.788119 
L 312.235987 174.955723 
L 318.728101 174.955723 
L 318.728101 171.123327 
L 319.428245 171.123327 
L 319.428245 167.290931 
L 323.13117 167.290931 
L 323.13117 163.458535 
L 325.1135 163.458535 
L 325.1135 159.626139 
L 326.003731 159.626139 
L 326.003731 155.793743 
L 326.572185 155.793743 
L 326.572185 151.961347 
L 327.28915 151.961347 
L 327.28915 148.12895 
L 328.016463 148.12895 
L 328.016463 144.296554 
L 328.199701 144.296554 
L 328.199701 140.464158 
L 328.314343 140.464158 
L 328.314343 136.631762 
L 328.890924 136.631762 
L 328.935998 128.96697 
L 329.020841 128.96697 
L 329.020841 125.134574 
L 330.122395 125.134574 
L 330.183193 117.469782 
L 330.435895 117.469782 
L 330.435895 113.637386 
L 330.966604 113.637386 
L 330.966604 109.80499 
L 331.751783 109.80499 
L 331.751783 105.972594 
L 332.49446 105.972594 
L 332.49446 102.140198 
L 333.429828 102.140198 
L 333.429828 98.307802 
L 334.648892 98.307802 
L 334.648892 94.475406 
L 334.803837 94.475406 
L 334.803837 90.64301 
L 335.20752 90.64301 
L 335.229892 82.978218 
L 339.536939 82.978218 
L 339.536939 79.145822 
L 340.940685 79.145822 
L 340.940685 75.313426 
L 343.367921 75.313426 
L 343.367921 71.48103 
L 351.014597 71.48103 
L 351.014597 67.648634 
L 354.750852 67.648634 
L 354.750852 63.816238 
L 355.466596 63.816238 
L 355.466596 59.983842 
L 357.167365 59.983842 
L 357.167365 56.151446 
L 357.527339 56.151446 
L 357.527339 52.31905 
L 357.732016 52.31905 
L 357.732016 48.486653 
L 358.754355 48.486653 
L 358.754355 44.654257 
L 361.022035 44.654257 
L 361.113494 36.989465 
L 363.880672 36.989465 
L 363.880672 33.157069 
L 364.921233 33.157069 
L 364.921233 29.324673 
L 368.321832 29.324673 
L 368.321832 25.492277 
L 369.259856 25.492277 
L 369.259856 21.659881 
L 369.710781 21.659881 
L 369.710781 17.827485 
L 374.294786 17.827485 
L 374.294786 13.995089 
L 377.339766 13.995089 
L 377.339766 10.162693 
L 378.004785 10.162693 
L 378.004785 6.330297 
L 378.004785 6.330297 
L 460.8 6.330297 
L 460.8 6.330297 
" clip-path="url(#pd853de4a6d)" style="fill: none; stroke: #bf00bf; stroke-width: 1.5; stroke-linecap: square"/>
   </g>
   <g id="line2d_27">
    <path d="M -1 266.933228 
L -0.396637 266.933228 
L -0.396637 263.100832 
L 11.858948 263.100832 
L 11.858948 259.268436 
L 12.319531 259.268436 
L 12.319531 255.43604 
L 14.230584 255.43604 
L 14.230584 251.603644 
L 15.677405 251.603644 
L 15.677405 247.771248 
L 22.546444 247.771248 
L 22.546444 243.938851 
L 39.242249 243.938851 
L 39.242249 240.106455 
L 40.258862 240.106455 
L 40.258862 236.274059 
L 43.643844 236.274059 
L 43.643844 232.441663 
L 47.228321 232.441663 
L 47.228321 228.609267 
L 49.396587 228.609267 
L 49.396587 224.776871 
L 49.891697 224.776871 
L 49.891697 220.944475 
L 50.090799 220.944475 
L 50.090799 217.112079 
L 57.178687 217.112079 
L 57.178687 213.279683 
L 62.267711 213.279683 
L 62.267711 209.447287 
L 64.433612 209.447287 
L 64.433612 205.614891 
L 72.389826 205.614891 
L 72.389826 201.782495 
L 76.175374 201.782495 
L 76.175374 197.950099 
L 80.780159 197.950099 
L 80.780159 194.117703 
L 87.477697 194.117703 
L 87.477697 190.285307 
L 93.092066 190.285307 
L 93.092066 186.452911 
L 94.895623 186.452911 
L 94.895623 182.620515 
L 99.461457 182.620515 
L 99.461457 178.788119 
L 121.083088 178.788119 
L 121.083088 174.955723 
L 124.933476 174.955723 
L 124.933476 171.123327 
L 134.839969 171.123327 
L 134.839969 167.290931 
L 137.285723 167.290931 
L 137.285723 163.458535 
L 142.743642 163.458535 
L 142.743642 159.626139 
L 144.771615 159.626139 
L 144.771615 155.793743 
L 145.67412 155.793743 
L 145.67412 151.961347 
L 145.931764 151.961347 
L 145.931764 148.12895 
L 146.83629 148.12895 
L 146.83629 144.296554 
L 152.641264 144.296554 
L 152.641264 140.464158 
L 158.733922 140.464158 
L 158.733922 136.631762 
L 162.339903 136.631762 
L 162.339903 132.799366 
L 166.44339 132.799366 
L 166.44339 128.96697 
L 172.602467 128.96697 
L 172.602467 125.134574 
L 186.662303 125.134574 
L 186.662303 121.302178 
L 186.78926 121.302178 
L 186.78926 117.469782 
L 245.955465 117.469782 
L 245.955465 113.637386 
L 247.129934 113.637386 
L 247.237297 105.972594 
L 247.271768 105.972594 
L 247.271768 102.140198 
L 248.598876 102.140198 
L 248.598876 98.307802 
L 249.986759 98.307802 
L 249.986759 94.475406 
L 252.734951 94.475406 
L 252.734951 90.64301 
L 254.269511 90.64301 
L 254.269511 86.810614 
L 254.48672 86.810614 
L 254.48672 82.978218 
L 255.201367 82.978218 
L 255.201367 79.145822 
L 257.913947 79.145822 
L 257.913947 75.313426 
L 258.735355 75.313426 
L 258.735355 71.48103 
L 259.616303 71.48103 
L 259.616303 67.648634 
L 260.50845 67.648634 
L 260.50845 63.816238 
L 261.021721 63.816238 
L 261.021721 59.983842 
L 261.95957 59.983842 
L 261.95957 56.151446 
L 270.129732 56.151446 
L 270.129732 52.31905 
L 273.56797 52.31905 
L 273.56797 48.486653 
L 277.975819 48.486653 
L 277.975819 44.654257 
L 281.199485 44.654257 
L 281.199485 40.821861 
L 285.628846 40.821861 
L 285.628846 36.989465 
L 285.792333 36.989465 
L 285.792333 33.157069 
L 286.06811 33.157069 
L 286.06811 29.324673 
L 290.193856 29.324673 
L 290.193856 25.492277 
L 291.472774 25.492277 
L 291.472774 21.659881 
L 291.964129 21.659881 
L 291.964129 17.827485 
L 292.592014 17.827485 
L 292.592014 13.995089 
L 298.036298 13.995089 
L 298.036298 10.162693 
L 301.466748 10.162693 
L 301.466748 6.330297 
L 301.466748 6.330297 
L 460.8 6.330297 
L 460.8 6.330297 
" clip-path="url(#pd853de4a6d)" style="fill: none; stroke: #000000; stroke-width: 1.5; stroke-linecap: square"/>
   </g>
   <g id="line2d_28">
    <path d="M -0.148048 293.76 
L -0.148048 90.64301 
L 212.21329 90.64301 
L 212.21329 86.810614 
L 213.418717 86.810614 
L 213.418717 82.978218 
L 219.295739 82.978218 
L 219.295739 79.145822 
L 221.511322 79.145822 
L 221.511322 75.313426 
L 223.754845 75.313426 
L 223.754845 71.48103 
L 226.366694 71.48103 
L 226.366694 67.648634 
L 227.961086 67.648634 
L 227.961086 63.816238 
L 231.535167 63.816238 
L 231.535167 59.983842 
L 231.766297 59.983842 
L 231.766297 56.151446 
L 233.763994 56.151446 
L 233.763994 52.31905 
L 238.176429 52.31905 
L 238.176429 48.486653 
L 238.53532 48.486653 
L 238.53532 44.654257 
L 241.426398 44.654257 
L 241.426398 40.821861 
L 243.698929 40.821861 
L 243.698929 36.989465 
L 244.273588 36.989465 
L 244.273588 33.157069 
L 261.398174 33.157069 
L 261.398174 29.324673 
L 264.38078 29.324673 
L 264.38078 25.492277 
L 266.689647 25.492277 
L 266.689647 21.659881 
L 275.993961 21.659881 
L 275.993961 17.827485 
L 282.189102 17.827485 
L 282.189102 13.995089 
L 288.208995 13.995089 
L 288.208995 10.162693 
L 288.762772 10.162693 
L 288.762772 6.330297 
L 288.762772 6.330297 
L 460.8 6.330297 
L 460.8 6.330297 
" clip-path="url(#pd853de4a6d)" style="fill: none; stroke: #00bfbf; stroke-width: 1.5; stroke-linecap: square"/>
   </g>
   <g id="patch_3">
    <path d="M 0 293.76 
L 0 3.456 
" style="fill: none; stroke: #000000; stroke-width: 0.8; stroke-linejoin: miter; stroke-linecap: square"/>
   </g>
   <g id="patch_4">
    <path d="M 460.8 293.76 
L 460.8 3.456 
" style="fill: none; stroke: #000000; stroke-width: 0.8; stroke-linejoin: miter; stroke-linecap: square"/>
   </g>
   <g id="patch_5">
    <path d="M 0 293.76 
L 460.8 293.76 
" style="fill: none; stroke: #000000; stroke-width: 0.8; stroke-linejoin: miter; stroke-linecap: square"/>
   </g>
   <g id="patch_6">
    <path d="M 0 3.456 
L 460.8 3.456 
" style="fill: none; stroke: #000000; stroke-width: 0.8; stroke-linejoin: miter; stroke-linecap: square"/>
   </g>
   <g id="text_6">
    <!-- {f10-f14}, 10-D -->
    <g transform="translate(293.159 287.95392) scale(0.2 -0.2)">
     <defs>
      <path id="DejaVuSans-7b" d="M 3272 -594 
L 3272 -1044 
L 3078 -1044 
Q 2300 -1044 2036 -812 
Q 1772 -581 1772 109 
L 1772 856 
Q 1772 1328 1603 1509 
Q 1434 1691 991 1691 
L 800 1691 
L 800 2138 
L 991 2138 
Q 1438 2138 1605 2317 
Q 1772 2497 1772 2963 
L 1772 3713 
Q 1772 4403 2036 4633 
Q 2300 4863 3078 4863 
L 3272 4863 
L 3272 4416 
L 3059 4416 
Q 2619 4416 2484 4278 
Q 2350 4141 2350 3700 
L 2350 2925 
Q 2350 2434 2208 2212 
Q 2066 1991 1722 1913 
Q 2069 1828 2209 1606 
Q 2350 1384 2350 897 
L 2350 122 
Q 2350 -319 2484 -456 
Q 2619 -594 3059 -594 
L 3272 -594 
z
" transform="scale(0.015625)"/>
      <path id="DejaVuSans-7d" d="M 800 -594 
L 1019 -594 
Q 1456 -594 1589 -459 
Q 1722 -325 1722 122 
L 1722 897 
Q 1722 1384 1862 1606 
Q 2003 1828 2350 1913 
Q 2003 1991 1862 2212 
Q 1722 2434 1722 2925 
L 1722 3700 
Q 1722 4144 1589 4280 
Q 1456 4416 1019 4416 
L 800 4416 
L 800 4863 
L 997 4863 
Q 1775 4863 2036 4633 
Q 2297 4403 2297 3713 
L 2297 2963 
Q 2297 2497 2465 2317 
Q 2634 2138 3078 2138 
L 3272 2138 
L 3272 1691 
L 3078 1691 
Q 2634 1691 2465 1509 
Q 2297 1328 2297 856 
L 2297 109 
Q 2297 -581 2036 -812 
Q 1775 -1044 997 -1044 
L 800 -1044 
L 800 -594 
z
" transform="scale(0.015625)"/>
      <path id="DejaVuSans-2c" d="M 750 794 
L 1409 794 
L 1409 256 
L 897 -744 
L 494 -744 
L 750 256 
L 750 794 
z
" transform="scale(0.015625)"/>
     </defs>
     <use xlink:href="#DejaVuSans-7b"/>
     <use xlink:href="#DejaVuSans-66" x="63.623047"/>
     <use xlink:href="#DejaVuSans-31" x="98.828125"/>
     <use xlink:href="#DejaVuSans-30" x="162.451172"/>
     <use xlink:href="#DejaVuSans-2d" x="226.074219"/>
     <use xlink:href="#DejaVuSans-66" x="262.158203"/>
     <use xlink:href="#DejaVuSans-31" x="297.363281"/>
     <use xlink:href="#DejaVuSans-34" x="360.986328"/>
     <use xlink:href="#DejaVuSans-7d" x="424.609375"/>
     <use xlink:href="#DejaVuSans-2c" x="488.232422"/>
     <use xlink:href="#DejaVuSans-20" x="520.019531"/>
     <use xlink:href="#DejaVuSans-31" x="551.806641"/>
     <use xlink:href="#DejaVuSans-30" x="615.429688"/>
     <use xlink:href="#DejaVuSans-2d" x="679.052734"/>
     <use xlink:href="#DejaVuSans-44" x="715.136719"/>
    </g>
   </g>
   <g id="text_7">
    <!-- v2.6.4 -->
    <g style="fill: #808080" transform="translate(214.71875 288.777272) scale(0.1 -0.1)">
     <defs>
      <path id="DejaVuSans-76" d="M 191 3500 
L 800 3500 
L 1894 563 
L 2988 3500 
L 3597 3500 
L 2284 0 
L 1503 0 
L 191 3500 
z
" transform="scale(0.015625)"/>
      <path id="DejaVuSans-2e" d="M 684 794 
L 1344 794 
L 1344 0 
L 684 0 
L 684 794 
z
" transform="scale(0.015625)"/>
      <path id="DejaVuSans-36" d="M 2113 2584 
Q 1688 2584 1439 2293 
Q 1191 2003 1191 1497 
Q 1191 994 1439 701 
Q 1688 409 2113 409 
Q 2538 409 2786 701 
Q 3034 994 3034 1497 
Q 3034 2003 2786 2293 
Q 2538 2584 2113 2584 
z
M 3366 4563 
L 3366 3988 
Q 3128 4100 2886 4159 
Q 2644 4219 2406 4219 
Q 1781 4219 1451 3797 
Q 1122 3375 1075 2522 
Q 1259 2794 1537 2939 
Q 1816 3084 2150 3084 
Q 2853 3084 3261 2657 
Q 3669 2231 3669 1497 
Q 3669 778 3244 343 
Q 2819 -91 2113 -91 
Q 1303 -91 875 529 
Q 447 1150 447 2328 
Q 447 3434 972 4092 
Q 1497 4750 2381 4750 
Q 2619 4750 2861 4703 
Q 3103 4656 3366 4563 
z
" transform="scale(0.015625)"/>
     </defs>
     <use xlink:href="#DejaVuSans-76"/>
     <use xlink:href="#DejaVuSans-32" x="59.179688"/>
     <use xlink:href="#DejaVuSans-2e" x="122.802734"/>
     <use xlink:href="#DejaVuSans-36" x="154.589844"/>
     <use xlink:href="#DejaVuSans-2e" x="218.212891"/>
     <use xlink:href="#DejaVuSans-34" x="250"/>
    </g>
   </g>
  </g>
 </g>
 <defs>
  <clipPath id="pd853de4a6d">
   <rect x="0" y="3.456" width="460.8" height="290.304"/>
  </clipPath>
 </defs>
</svg>
