<?xml version="1.0" encoding="utf-8" standalone="no"?>
<!DOCTYPE svg PUBLIC "-//W3C//DTD SVG 1.1//EN"
  "http://www.w3.org/Graphics/SVG/1.1/DTD/svg11.dtd">
<svg xmlns:xlink="http://www.w3.org/1999/xlink" width="460.8pt" height="345.6pt" viewBox="0 0 460.8 345.6" xmlns="http://www.w3.org/2000/svg" version="1.1">
 <metadata>
  <rdf:RDF xmlns:dc="http://purl.org/dc/elements/1.1/" xmlns:cc="http://creativecommons.org/ns#" xmlns:rdf="http://www.w3.org/1999/02/22-rdf-syntax-ns#">
   <cc:Work>
    <dc:type rdf:resource="http://purl.org/dc/dcmitype/StillImage"/>
    <dc:date>2024-10-07T17:44:40.689009</dc:date>
    <dc:format>image/svg+xml</dc:format>
    <dc:creator>
     <cc:Agent>
      <dc:title>Matplotlib v3.9.2, https://matplotlib.org/</dc:title>
     </cc:Agent>
    </dc:creator>
   </cc:Work>
  </rdf:RDF>
 </metadata>
 <defs>
  <style type="text/css">*{stroke-linejoin: round; stroke-linecap: butt}</style>
 </defs>
 <g id="figure_1">
  <g id="patch_1">
   <path d="M 0 345.6 
L 460.8 345.6 
L 460.8 0 
L 0 0 
z
" style="fill: #ffffff"/>
  </g>
  <g id="axes_1">
   <g id="patch_2">
    <path d="M 0 293.76 
L 460.8 293.76 
L 460.8 3.456 
L 0 3.456 
z
" style="fill: #ffffff"/>
   </g>
   <g id="matplotlib.axis_1">
    <g id="xtick_1">
     <g id="line2d_1">
      <path d="M 106.410055 293.76 
L 106.410055 3.456 
" clip-path="url(#p8dcc8de18e)" style="fill: none; stroke: #b0b0b0; stroke-width: 0.8; stroke-linecap: square"/>
     </g>
     <g id="line2d_2">
      <defs>
       <path id="m7349050c4a" d="M 0 0 
L 0 3.5 
" style="stroke: #000000; stroke-width: 0.8"/>
      </defs>
      <g>
       <use xlink:href="#m7349050c4a" x="106.410055" y="293.76" style="stroke: #000000; stroke-width: 0.8"/>
      </g>
     </g>
     <g id="text_1">
      <!-- -5 -->
      <g transform="translate(96.439743 315.956875) scale(0.2 -0.2)">
       <defs>
        <path id="DejaVuSans-2d" d="M 313 2009 
L 1997 2009 
L 1997 1497 
L 313 1497 
L 313 2009 
z
" transform="scale(0.015625)"/>
        <path id="DejaVuSans-35" d="M 691 4666 
L 3169 4666 
L 3169 4134 
L 1269 4134 
L 1269 2991 
Q 1406 3038 1543 3061 
Q 1681 3084 1819 3084 
Q 2600 3084 3056 2656 
Q 3513 2228 3513 1497 
Q 3513 744 3044 326 
Q 2575 -91 1722 -91 
Q 1428 -91 1123 -41 
Q 819 9 494 109 
L 494 744 
Q 775 591 1075 516 
Q 1375 441 1709 441 
Q 2250 441 2565 725 
Q 2881 1009 2881 1497 
Q 2881 1984 2565 2268 
Q 2250 2553 1709 2553 
Q 1456 2553 1204 2497 
Q 953 2441 691 2322 
L 691 4666 
z
" transform="scale(0.015625)"/>
       </defs>
       <use xlink:href="#DejaVuSans-2d"/>
       <use xlink:href="#DejaVuSans-35" x="36.083984"/>
      </g>
     </g>
    </g>
    <g id="xtick_2">
     <g id="line2d_3">
      <path d="M 212.97361 293.76 
L 212.97361 3.456 
" clip-path="url(#p8dcc8de18e)" style="fill: none; stroke: #b0b0b0; stroke-width: 0.8; stroke-linecap: square"/>
     </g>
     <g id="line2d_4">
      <g>
       <use xlink:href="#m7349050c4a" x="212.97361" y="293.76" style="stroke: #000000; stroke-width: 0.8"/>
      </g>
     </g>
     <g id="text_2">
      <!-- -2 -->
      <g transform="translate(203.003298 315.956875) scale(0.2 -0.2)">
       <defs>
        <path id="DejaVuSans-32" d="M 1228 531 
L 3431 531 
L 3431 0 
L 469 0 
L 469 531 
Q 828 903 1448 1529 
Q 2069 2156 2228 2338 
Q 2531 2678 2651 2914 
Q 2772 3150 2772 3378 
Q 2772 3750 2511 3984 
Q 2250 4219 1831 4219 
Q 1534 4219 1204 4116 
Q 875 4013 500 3803 
L 500 4441 
Q 881 4594 1212 4672 
Q 1544 4750 1819 4750 
Q 2544 4750 2975 4387 
Q 3406 4025 3406 3419 
Q 3406 3131 3298 2873 
Q 3191 2616 2906 2266 
Q 2828 2175 2409 1742 
Q 1991 1309 1228 531 
z
" transform="scale(0.015625)"/>
       </defs>
       <use xlink:href="#DejaVuSans-2d"/>
       <use xlink:href="#DejaVuSans-32" x="36.083984"/>
      </g>
     </g>
    </g>
    <g id="xtick_3">
     <g id="line2d_5">
      <path d="M 319.537166 293.76 
L 319.537166 3.456 
" clip-path="url(#p8dcc8de18e)" style="fill: none; stroke: #b0b0b0; stroke-width: 0.8; stroke-linecap: square"/>
     </g>
     <g id="line2d_6">
      <g>
       <use xlink:href="#m7349050c4a" x="319.537166" y="293.76" style="stroke: #000000; stroke-width: 0.8"/>
      </g>
     </g>
     <g id="text_3">
      <!-- 1 -->
      <g transform="translate(313.174666 315.956875) scale(0.2 -0.2)">
       <defs>
        <path id="DejaVuSans-31" d="M 794 531 
L 1825 531 
L 1825 4091 
L 703 3866 
L 703 4441 
L 1819 4666 
L 2450 4666 
L 2450 531 
L 3481 531 
L 3481 0 
L 794 0 
L 794 531 
z
" transform="scale(0.015625)"/>
       </defs>
       <use xlink:href="#DejaVuSans-31"/>
      </g>
     </g>
    </g>
    <g id="xtick_4">
     <g id="line2d_7">
      <path d="M 426.100721 293.76 
L 426.100721 3.456 
" clip-path="url(#p8dcc8de18e)" style="fill: none; stroke: #b0b0b0; stroke-width: 0.8; stroke-linecap: square"/>
     </g>
     <g id="line2d_8">
      <g>
       <use xlink:href="#m7349050c4a" x="426.100721" y="293.76" style="stroke: #000000; stroke-width: 0.8"/>
      </g>
     </g>
     <g id="text_4">
      <!-- 4 -->
      <g transform="translate(419.738221 315.956875) scale(0.2 -0.2)">
       <defs>
        <path id="DejaVuSans-34" d="M 2419 4116 
L 825 1625 
L 2419 1625 
L 2419 4116 
z
M 2253 4666 
L 3047 4666 
L 3047 1625 
L 3713 1625 
L 3713 1100 
L 3047 1100 
L 3047 0 
L 2419 0 
L 2419 1100 
L 313 1100 
L 313 1709 
L 2253 4666 
z
" transform="scale(0.015625)"/>
       </defs>
       <use xlink:href="#DejaVuSans-34"/>
      </g>
     </g>
    </g>
    <g id="text_5">
     <!-- log10 of Df -->
     <g transform="translate(175.214063 339.313125) scale(0.2 -0.2)">
      <defs>
       <path id="DejaVuSans-6c" d="M 603 4863 
L 1178 4863 
L 1178 0 
L 603 0 
L 603 4863 
z
" transform="scale(0.015625)"/>
       <path id="DejaVuSans-6f" d="M 1959 3097 
Q 1497 3097 1228 2736 
Q 959 2375 959 1747 
Q 959 1119 1226 758 
Q 1494 397 1959 397 
Q 2419 397 2687 759 
Q 2956 1122 2956 1747 
Q 2956 2369 2687 2733 
Q 2419 3097 1959 3097 
z
M 1959 3584 
Q 2709 3584 3137 3096 
Q 3566 2609 3566 1747 
Q 3566 888 3137 398 
Q 2709 -91 1959 -91 
Q 1206 -91 779 398 
Q 353 888 353 1747 
Q 353 2609 779 3096 
Q 1206 3584 1959 3584 
z
" transform="scale(0.015625)"/>
       <path id="DejaVuSans-67" d="M 2906 1791 
Q 2906 2416 2648 2759 
Q 2391 3103 1925 3103 
Q 1463 3103 1205 2759 
Q 947 2416 947 1791 
Q 947 1169 1205 825 
Q 1463 481 1925 481 
Q 2391 481 2648 825 
Q 2906 1169 2906 1791 
z
M 3481 434 
Q 3481 -459 3084 -895 
Q 2688 -1331 1869 -1331 
Q 1566 -1331 1297 -1286 
Q 1028 -1241 775 -1147 
L 775 -588 
Q 1028 -725 1275 -790 
Q 1522 -856 1778 -856 
Q 2344 -856 2625 -561 
Q 2906 -266 2906 331 
L 2906 616 
Q 2728 306 2450 153 
Q 2172 0 1784 0 
Q 1141 0 747 490 
Q 353 981 353 1791 
Q 353 2603 747 3093 
Q 1141 3584 1784 3584 
Q 2172 3584 2450 3431 
Q 2728 3278 2906 2969 
L 2906 3500 
L 3481 3500 
L 3481 434 
z
" transform="scale(0.015625)"/>
       <path id="DejaVuSans-30" d="M 2034 4250 
Q 1547 4250 1301 3770 
Q 1056 3291 1056 2328 
Q 1056 1369 1301 889 
Q 1547 409 2034 409 
Q 2525 409 2770 889 
Q 3016 1369 3016 2328 
Q 3016 3291 2770 3770 
Q 2525 4250 2034 4250 
z
M 2034 4750 
Q 2819 4750 3233 4129 
Q 3647 3509 3647 2328 
Q 3647 1150 3233 529 
Q 2819 -91 2034 -91 
Q 1250 -91 836 529 
Q 422 1150 422 2328 
Q 422 3509 836 4129 
Q 1250 4750 2034 4750 
z
" transform="scale(0.015625)"/>
       <path id="DejaVuSans-20" transform="scale(0.015625)"/>
       <path id="DejaVuSans-66" d="M 2375 4863 
L 2375 4384 
L 1825 4384 
Q 1516 4384 1395 4259 
Q 1275 4134 1275 3809 
L 1275 3500 
L 2222 3500 
L 2222 3053 
L 1275 3053 
L 1275 0 
L 697 0 
L 697 3053 
L 147 3053 
L 147 3500 
L 697 3500 
L 697 3744 
Q 697 4328 969 4595 
Q 1241 4863 1831 4863 
L 2375 4863 
z
" transform="scale(0.015625)"/>
       <path id="DejaVuSans-44" d="M 1259 4147 
L 1259 519 
L 2022 519 
Q 2988 519 3436 956 
Q 3884 1394 3884 2338 
Q 3884 3275 3436 3711 
Q 2988 4147 2022 4147 
L 1259 4147 
z
M 628 4666 
L 1925 4666 
Q 3281 4666 3915 4102 
Q 4550 3538 4550 2338 
Q 4550 1131 3912 565 
Q 3275 0 1925 0 
L 628 0 
L 628 4666 
z
" transform="scale(0.015625)"/>
      </defs>
      <use xlink:href="#DejaVuSans-6c"/>
      <use xlink:href="#DejaVuSans-6f" x="27.783203"/>
      <use xlink:href="#DejaVuSans-67" x="88.964844"/>
      <use xlink:href="#DejaVuSans-31" x="152.441406"/>
      <use xlink:href="#DejaVuSans-30" x="216.064453"/>
      <use xlink:href="#DejaVuSans-20" x="279.6875"/>
      <use xlink:href="#DejaVuSans-6f" x="311.474609"/>
      <use xlink:href="#DejaVuSans-66" x="372.65625"/>
      <use xlink:href="#DejaVuSans-20" x="407.861328"/>
      <use xlink:href="#DejaVuSans-44" x="439.648438"/>
      <use xlink:href="#DejaVuSans-66" x="516.650391"/>
     </g>
    </g>
   </g>
   <g id="matplotlib.axis_2">
    <g id="ytick_1">
     <g id="line2d_9">
      <path d="M 0 293.76 
L 460.8 293.76 
" clip-path="url(#p8dcc8de18e)" style="fill: none; stroke: #b0b0b0; stroke-width: 0.8; stroke-linecap: square"/>
     </g>
     <g id="line2d_10">
      <defs>
       <path id="m96e8c83105" d="M 0 0 
L -3.5 0 
" style="stroke: #000000; stroke-width: 0.8"/>
      </defs>
      <g>
       <use xlink:href="#m96e8c83105" x="0" y="293.76" style="stroke: #000000; stroke-width: 0.8"/>
      </g>
     </g>
    </g>
    <g id="ytick_2">
     <g id="line2d_11">
      <path d="M 0 236.274059 
L 460.8 236.274059 
" clip-path="url(#p8dcc8de18e)" style="fill: none; stroke: #b0b0b0; stroke-width: 0.8; stroke-linecap: square"/>
     </g>
     <g id="line2d_12">
      <g>
       <use xlink:href="#m96e8c83105" x="0" y="236.274059" style="stroke: #000000; stroke-width: 0.8"/>
      </g>
     </g>
    </g>
    <g id="ytick_3">
     <g id="line2d_13">
      <path d="M 0 178.788119 
L 460.8 178.788119 
" clip-path="url(#p8dcc8de18e)" style="fill: none; stroke: #b0b0b0; stroke-width: 0.8; stroke-linecap: square"/>
     </g>
     <g id="line2d_14">
      <g>
       <use xlink:href="#m96e8c83105" x="0" y="178.788119" style="stroke: #000000; stroke-width: 0.8"/>
      </g>
     </g>
    </g>
    <g id="ytick_4">
     <g id="line2d_15">
      <path d="M 0 121.302178 
L 460.8 121.302178 
" clip-path="url(#p8dcc8de18e)" style="fill: none; stroke: #b0b0b0; stroke-width: 0.8; stroke-linecap: square"/>
     </g>
     <g id="line2d_16">
      <g>
       <use xlink:href="#m96e8c83105" x="0" y="121.302178" style="stroke: #000000; stroke-width: 0.8"/>
      </g>
     </g>
    </g>
    <g id="ytick_5">
     <g id="line2d_17">
      <path d="M 0 63.816238 
L 460.8 63.816238 
" clip-path="url(#p8dcc8de18e)" style="fill: none; stroke: #b0b0b0; stroke-width: 0.8; stroke-linecap: square"/>
     </g>
     <g id="line2d_18">
      <g>
       <use xlink:href="#m96e8c83105" x="0" y="63.816238" style="stroke: #000000; stroke-width: 0.8"/>
      </g>
     </g>
    </g>
    <g id="ytick_6">
     <g id="line2d_19">
      <path d="M 0 6.330297 
L 460.8 6.330297 
" clip-path="url(#p8dcc8de18e)" style="fill: none; stroke: #b0b0b0; stroke-width: 0.8; stroke-linecap: square"/>
     </g>
     <g id="line2d_20">
      <g>
       <use xlink:href="#m96e8c83105" x="0" y="6.330297" style="stroke: #000000; stroke-width: 0.8"/>
      </g>
     </g>
    </g>
   </g>
   <g id="line2d_21">
    <path d="M 372.562194 293.76 
L 372.562194 288.969505 
L 373.562633 288.969505 
L 373.562633 284.17901 
L 377.222368 284.17901 
L 377.222368 279.388515 
L 378.220515 279.388515 
L 378.220515 274.59802 
L 379.601897 274.59802 
L 379.601897 269.807525 
L 380.050188 269.807525 
L 380.050188 265.01703 
L 380.473526 265.01703 
L 380.473526 260.226535 
L 380.800246 260.226535 
L 380.800246 255.43604 
L 381.647448 255.43604 
L 381.647448 250.645545 
L 382.1661 250.645545 
L 382.1661 245.85505 
L 382.788839 245.85505 
L 382.788839 241.064554 
L 383.902809 241.064554 
L 383.902809 236.274059 
L 384.041937 236.274059 
L 384.041937 231.483564 
L 384.739182 231.483564 
L 384.739182 226.693069 
L 384.760849 226.693069 
L 384.760849 221.902574 
L 385.23866 221.902574 
L 385.23866 217.112079 
L 385.881263 217.112079 
L 385.881263 212.321584 
L 386.256425 212.321584 
L 386.256425 207.531089 
L 389.11684 207.531089 
L 389.11684 202.740594 
L 389.264443 202.740594 
L 389.264443 197.950099 
L 389.500178 197.950099 
L 389.500178 193.159604 
L 391.380488 193.159604 
L 391.380488 188.369109 
L 391.440855 188.369109 
L 391.440855 183.578614 
L 392.402014 183.578614 
L 392.402014 178.788119 
L 392.677781 178.788119 
L 392.677781 173.997624 
L 393.478037 173.997624 
L 393.478037 169.207129 
L 394.164821 169.207129 
L 394.164821 164.416634 
L 394.801115 164.416634 
L 394.801115 159.626139 
L 395.689403 159.626139 
L 395.689403 154.835644 
L 395.95776 154.835644 
L 395.95776 150.045149 
L 396.084884 150.045149 
L 396.084884 145.254653 
L 396.633728 145.254653 
L 396.633728 140.464158 
L 397.037519 140.464158 
L 397.037519 135.673663 
L 398.178544 135.673663 
L 398.178544 130.883168 
L 398.352684 130.883168 
L 398.352684 126.092673 
L 398.360092 126.092673 
L 398.360092 121.302178 
L 398.830145 121.302178 
L 398.830145 116.511683 
L 398.958713 116.511683 
L 398.958713 111.721188 
L 399.813521 111.721188 
L 399.813521 106.930693 
L 400.125252 106.930693 
L 400.125252 102.140198 
L 400.206009 102.140198 
L 400.206009 97.349703 
L 400.739468 97.349703 
L 400.739468 92.559208 
L 402.812536 92.559208 
L 402.812536 87.768713 
L 403.322695 87.768713 
L 403.322695 82.978218 
L 403.451788 82.978218 
L 403.451788 78.187723 
L 404.30076 78.187723 
L 404.30076 73.397228 
L 407.835889 73.397228 
L 407.835889 68.606733 
L 408.374664 68.606733 
L 408.374664 63.816238 
L 408.6275 63.816238 
L 408.6275 59.025743 
L 412.377806 59.025743 
L 412.377806 54.235248 
L 413.386642 54.235248 
L 413.386642 49.444752 
L 416.884438 49.444752 
L 416.884438 44.654257 
L 416.971324 44.654257 
L 416.971324 39.863762 
L 417.265878 39.863762 
L 417.265878 35.073267 
L 417.467962 35.073267 
L 417.467962 30.282772 
L 417.562213 30.282772 
L 417.562213 25.492277 
L 417.619414 25.492277 
L 417.619414 20.701782 
L 417.866792 20.701782 
L 417.866792 15.911287 
L 418.283884 15.911287 
L 418.283884 11.120792 
L 419.041464 11.120792 
L 419.041464 6.330297 
L 419.041464 6.330297 
L 419.041464 6.330297 
L 460.8 6.330297 
" clip-path="url(#p8dcc8de18e)" style="fill: none; stroke: #ff0000; stroke-width: 3; stroke-linecap: square"/>
   </g>
   <g id="line2d_22">
    <path d="M 382.91528 293.76 
L 382.91528 288.969505 
L 384.892318 288.969505 
L 384.892318 284.17901 
L 385.437265 284.17901 
L 385.437265 279.388515 
L 387.767154 279.388515 
L 387.767154 274.59802 
L 388.824706 274.59802 
L 388.824706 269.807525 
L 389.184108 269.807525 
L 389.184108 265.01703 
L 389.264443 265.01703 
L 389.264443 260.226535 
L 389.311408 260.226535 
L 389.311408 255.43604 
L 389.605741 255.43604 
L 389.605741 250.645545 
L 389.74104 250.645545 
L 389.74104 245.85505 
L 389.894216 245.85505 
L 389.894216 241.064554 
L 390.093865 241.064554 
L 390.093865 236.274059 
L 390.966958 236.274059 
L 390.966958 231.483564 
L 391.718954 231.483564 
L 391.718954 226.693069 
L 391.987117 226.693069 
L 391.987117 221.902574 
L 392.465789 221.902574 
L 392.465789 217.112079 
L 393.486522 217.112079 
L 393.486522 212.321584 
L 394.419517 212.321584 
L 394.419517 207.531089 
L 395.165781 207.531089 
L 395.165781 202.740594 
L 395.334845 202.740594 
L 395.334845 197.950099 
L 395.95776 197.950099 
L 395.95776 193.159604 
L 396.61524 193.159604 
L 396.61524 188.369109 
L 396.835191 188.369109 
L 396.835191 183.578614 
L 397.206917 183.578614 
L 397.206917 178.788119 
L 398.03743 178.788119 
L 398.03743 173.997624 
L 398.830145 173.997624 
L 398.830145 169.207129 
L 398.97826 169.207129 
L 398.97826 164.416634 
L 399.016356 164.416634 
L 399.016356 159.626139 
L 399.26666 159.626139 
L 399.26666 154.835644 
L 399.354347 154.835644 
L 399.354347 150.045149 
L 399.672291 150.045149 
L 399.672291 145.254653 
L 401.048224 145.254653 
L 401.048224 140.464158 
L 401.381697 140.464158 
L 401.381697 135.673663 
L 402.466693 135.673663 
L 402.466693 130.883168 
L 403.650768 130.883168 
L 403.650768 126.092673 
L 403.730641 126.092673 
L 403.730641 121.302178 
L 404.665225 121.302178 
L 404.665225 116.511683 
L 404.696966 116.511683 
L 404.696966 111.721188 
L 406.235283 111.721188 
L 406.235283 106.930693 
L 406.966607 106.930693 
L 406.966607 102.140198 
L 408.235168 102.140198 
L 408.235168 97.349703 
L 408.324033 97.349703 
L 408.324033 92.559208 
L 408.459258 92.559208 
L 408.459258 87.768713 
L 408.564171 87.768713 
L 408.564171 82.978218 
L 408.67096 82.978218 
L 408.67096 78.187723 
L 411.126945 78.187723 
L 411.126945 73.397228 
L 412.377806 73.397228 
L 412.377806 68.606733 
L 414.364783 68.606733 
L 414.364783 63.816238 
L 416.523321 63.816238 
L 416.523321 59.025743 
L 417.033134 59.025743 
L 417.033134 54.235248 
L 417.619414 54.235248 
L 417.619414 49.444752 
L 418.182072 49.444752 
L 418.182072 44.654257 
L 418.441909 44.654257 
L 418.441909 39.863762 
L 418.643358 39.863762 
L 418.643358 35.073267 
L 420.578027 35.073267 
L 420.578027 30.282772 
L 422.03433 30.282772 
L 422.03433 25.492277 
L 422.171929 25.492277 
L 422.171929 20.701782 
L 423.02691 20.701782 
L 423.02691 15.911287 
L 427.22311 15.911287 
L 427.22311 11.120792 
L 427.340201 11.120792 
L 427.340201 6.330297 
L 427.340201 6.330297 
L 427.340201 6.330297 
L 460.8 6.330297 
" clip-path="url(#p8dcc8de18e)" style="fill: none; stroke: #00bfbf; stroke-width: 1.5; stroke-linecap: square"/>
   </g>
   <g id="line2d_23">
    <path d="M 380.473526 293.76 
L 380.473526 288.969505 
L 381.116775 288.969505 
L 381.116775 284.17901 
L 381.273487 284.17901 
L 381.273487 279.388515 
L 383.545615 279.388515 
L 383.545615 274.59802 
L 384.365736 274.59802 
L 384.365736 269.807525 
L 384.998442 269.807525 
L 384.998442 265.01703 
L 385.830904 265.01703 
L 385.830904 260.226535 
L 386.813156 260.226535 
L 386.813156 255.43604 
L 387.767154 255.43604 
L 387.767154 250.645545 
L 389.264443 250.645545 
L 389.264443 245.85505 
L 389.311408 245.85505 
L 389.311408 241.064554 
L 389.536297 241.064554 
L 389.536297 236.274059 
L 389.605741 236.274059 
L 389.605741 231.483564 
L 389.74104 231.483564 
L 389.74104 226.693069 
L 390.090095 226.693069 
L 390.090095 221.902574 
L 390.273263 221.902574 
L 390.273263 217.112079 
L 391.380488 217.112079 
L 391.380488 212.321584 
L 391.718954 212.321584 
L 391.718954 207.531089 
L 392.296063 207.531089 
L 392.296063 202.740594 
L 392.936296 202.740594 
L 392.936296 197.950099 
L 394.140663 197.950099 
L 394.140663 193.159604 
L 395.165781 193.159604 
L 395.165781 188.369109 
L 395.182573 188.369109 
L 395.182573 183.578614 
L 395.662328 183.578614 
L 395.662328 178.788119 
L 395.95776 178.788119 
L 395.95776 173.997624 
L 396.61524 173.997624 
L 396.61524 169.207129 
L 396.794495 169.207129 
L 396.794495 164.416634 
L 396.835191 164.416634 
L 396.835191 159.626139 
L 397.156464 159.626139 
L 397.156464 154.835644 
L 397.459016 154.835644 
L 397.459016 150.045149 
L 398.03743 150.045149 
L 398.03743 145.254653 
L 398.375603 145.254653 
L 398.375603 140.464158 
L 398.427818 140.464158 
L 398.427818 135.673663 
L 398.830145 135.673663 
L 398.830145 130.883168 
L 399.422001 130.883168 
L 399.422001 126.092673 
L 399.824187 126.092673 
L 399.824187 121.302178 
L 400.739468 121.302178 
L 400.739468 116.511683 
L 401.048224 116.511683 
L 401.048224 111.721188 
L 402.466693 111.721188 
L 402.466693 106.930693 
L 403.730641 106.930693 
L 403.730641 102.140198 
L 404.696966 102.140198 
L 404.696966 97.349703 
L 406.752711 97.349703 
L 406.752711 92.559208 
L 407.54697 92.559208 
L 407.54697 87.768713 
L 407.620293 87.768713 
L 407.620293 82.978218 
L 408.459258 82.978218 
L 408.459258 78.187723 
L 411.126945 78.187723 
L 411.126945 73.397228 
L 412.115084 73.397228 
L 412.115084 68.606733 
L 412.377806 68.606733 
L 412.377806 63.816238 
L 414.283075 63.816238 
L 414.283075 59.025743 
L 416.523321 59.025743 
L 416.523321 54.235248 
L 417.265878 54.235248 
L 417.265878 49.444752 
L 417.619414 49.444752 
L 417.619414 44.654257 
L 417.828031 44.654257 
L 417.828031 39.863762 
L 418.182072 39.863762 
L 418.182072 35.073267 
L 418.643358 35.073267 
L 418.643358 30.282772 
L 419.042935 30.282772 
L 419.042935 25.492277 
L 420.030969 25.492277 
L 420.030969 20.701782 
L 423.02691 20.701782 
L 423.02691 15.911287 
L 425.37528 15.911287 
L 425.37528 11.120792 
L 427.340201 11.120792 
L 427.340201 6.330297 
L 427.340201 6.330297 
L 427.340201 6.330297 
L 460.8 6.330297 
" clip-path="url(#p8dcc8de18e)" style="fill: none; stroke: #bf00bf; stroke-width: 1.5; stroke-linecap: square"/>
   </g>
   <g id="line2d_24">
    <path d="M 376.043562 293.76 
L 376.043562 288.969505 
L 380.050188 288.969505 
L 380.050188 284.17901 
L 380.473526 284.17901 
L 380.473526 279.388515 
L 380.800246 279.388515 
L 380.800246 274.59802 
L 381.116775 274.59802 
L 381.116775 269.807525 
L 381.273487 269.807525 
L 381.273487 265.01703 
L 382.788839 265.01703 
L 382.788839 260.226535 
L 384.739182 260.226535 
L 384.739182 255.43604 
L 384.998442 255.43604 
L 384.998442 250.645545 
L 385.296676 250.645545 
L 385.296676 245.85505 
L 385.776234 245.85505 
L 385.776234 241.064554 
L 385.830904 241.064554 
L 385.830904 236.274059 
L 385.881263 236.274059 
L 385.881263 231.483564 
L 386.018498 231.483564 
L 386.018498 226.693069 
L 386.813156 226.693069 
L 386.813156 221.902574 
L 388.026533 221.902574 
L 388.026533 217.112079 
L 389.11684 217.112079 
L 389.11684 212.321584 
L 389.264443 212.321584 
L 389.264443 207.531089 
L 389.531361 207.531089 
L 389.531361 202.740594 
L 389.689155 202.740594 
L 389.689155 197.950099 
L 391.108821 197.950099 
L 391.108821 193.159604 
L 391.380488 193.159604 
L 391.380488 188.369109 
L 391.440855 188.369109 
L 391.440855 183.578614 
L 392.677781 183.578614 
L 392.677781 178.788119 
L 394.071831 178.788119 
L 394.071831 173.997624 
L 394.164821 173.997624 
L 394.164821 169.207129 
L 395.017707 169.207129 
L 395.017707 164.416634 
L 395.95776 164.416634 
L 395.95776 159.626139 
L 396.61524 159.626139 
L 396.61524 154.835644 
L 396.835191 154.835644 
L 396.835191 150.045149 
L 398.03743 150.045149 
L 398.03743 145.254653 
L 398.178544 145.254653 
L 398.178544 140.464158 
L 398.375603 140.464158 
L 398.375603 135.673663 
L 398.427818 135.673663 
L 398.427818 130.883168 
L 398.830145 130.883168 
L 398.830145 126.092673 
L 398.958713 126.092673 
L 398.958713 121.302178 
L 399.124725 121.302178 
L 399.124725 116.511683 
L 399.824187 116.511683 
L 399.824187 111.721188 
L 400.739468 111.721188 
L 400.739468 106.930693 
L 401.048224 106.930693 
L 401.048224 102.140198 
L 401.393406 102.140198 
L 401.393406 97.349703 
L 402.466693 97.349703 
L 402.466693 92.559208 
L 403.322695 92.559208 
L 403.322695 87.768713 
L 404.936869 87.768713 
L 404.936869 82.978218 
L 407.54697 82.978218 
L 407.54697 78.187723 
L 408.6275 78.187723 
L 408.6275 73.397228 
L 411.126945 73.397228 
L 411.126945 68.606733 
L 411.167313 68.606733 
L 411.167313 63.816238 
L 412.115084 63.816238 
L 412.115084 59.025743 
L 412.377806 59.025743 
L 412.377806 54.235248 
L 413.386642 54.235248 
L 413.386642 49.444752 
L 417.265878 49.444752 
L 417.265878 44.654257 
L 417.404775 44.654257 
L 417.404775 39.863762 
L 417.467962 39.863762 
L 417.467962 35.073267 
L 417.619414 35.073267 
L 417.619414 30.282772 
L 417.866792 30.282772 
L 417.866792 25.492277 
L 417.996891 25.492277 
L 417.996891 20.701782 
L 418.283884 20.701782 
L 418.283884 15.911287 
L 422.76383 15.911287 
L 422.76383 11.120792 
L 423.02691 11.120792 
L 423.02691 6.330297 
L 423.02691 6.330297 
L 423.02691 6.330297 
L 460.8 6.330297 
" clip-path="url(#p8dcc8de18e)" style="fill: none; stroke: #000000; stroke-width: 1.5; stroke-linecap: square"/>
   </g>
   <g id="patch_3">
    <path d="M 0 293.76 
L 0 3.456 
" style="fill: none; stroke: #000000; stroke-width: 0.8; stroke-linejoin: miter; stroke-linecap: square"/>
   </g>
   <g id="patch_4">
    <path d="M 460.8 293.76 
L 460.8 3.456 
" style="fill: none; stroke: #000000; stroke-width: 0.8; stroke-linejoin: miter; stroke-linecap: square"/>
   </g>
   <g id="patch_5">
    <path d="M 0 293.76 
L 460.8 293.76 
" style="fill: none; stroke: #000000; stroke-width: 0.8; stroke-linejoin: miter; stroke-linecap: square"/>
   </g>
   <g id="patch_6">
    <path d="M 0 3.456 
L 460.8 3.456 
" style="fill: none; stroke: #000000; stroke-width: 0.8; stroke-linejoin: miter; stroke-linecap: square"/>
   </g>
   <g id="text_6">
    <!-- {f6-f9}, 40-D -->
    <g transform="translate(318.609 287.95392) scale(0.2 -0.2)">
     <defs>
      <path id="DejaVuSans-7b" d="M 3272 -594 
L 3272 -1044 
L 3078 -1044 
Q 2300 -1044 2036 -812 
Q 1772 -581 1772 109 
L 1772 856 
Q 1772 1328 1603 1509 
Q 1434 1691 991 1691 
L 800 1691 
L 800 2138 
L 991 2138 
Q 1438 2138 1605 2317 
Q 1772 2497 1772 2963 
L 1772 3713 
Q 1772 4403 2036 4633 
Q 2300 4863 3078 4863 
L 3272 4863 
L 3272 4416 
L 3059 4416 
Q 2619 4416 2484 4278 
Q 2350 4141 2350 3700 
L 2350 2925 
Q 2350 2434 2208 2212 
Q 2066 1991 1722 1913 
Q 2069 1828 2209 1606 
Q 2350 1384 2350 897 
L 2350 122 
Q 2350 -319 2484 -456 
Q 2619 -594 3059 -594 
L 3272 -594 
z
" transform="scale(0.015625)"/>
      <path id="DejaVuSans-36" d="M 2113 2584 
Q 1688 2584 1439 2293 
Q 1191 2003 1191 1497 
Q 1191 994 1439 701 
Q 1688 409 2113 409 
Q 2538 409 2786 701 
Q 3034 994 3034 1497 
Q 3034 2003 2786 2293 
Q 2538 2584 2113 2584 
z
M 3366 4563 
L 3366 3988 
Q 3128 4100 2886 4159 
Q 2644 4219 2406 4219 
Q 1781 4219 1451 3797 
Q 1122 3375 1075 2522 
Q 1259 2794 1537 2939 
Q 1816 3084 2150 3084 
Q 2853 3084 3261 2657 
Q 3669 2231 3669 1497 
Q 3669 778 3244 343 
Q 2819 -91 2113 -91 
Q 1303 -91 875 529 
Q 447 1150 447 2328 
Q 447 3434 972 4092 
Q 1497 4750 2381 4750 
Q 2619 4750 2861 4703 
Q 3103 4656 3366 4563 
z
" transform="scale(0.015625)"/>
      <path id="DejaVuSans-39" d="M 703 97 
L 703 672 
Q 941 559 1184 500 
Q 1428 441 1663 441 
Q 2288 441 2617 861 
Q 2947 1281 2994 2138 
Q 2813 1869 2534 1725 
Q 2256 1581 1919 1581 
Q 1219 1581 811 2004 
Q 403 2428 403 3163 
Q 403 3881 828 4315 
Q 1253 4750 1959 4750 
Q 2769 4750 3195 4129 
Q 3622 3509 3622 2328 
Q 3622 1225 3098 567 
Q 2575 -91 1691 -91 
Q 1453 -91 1209 -44 
Q 966 3 703 97 
z
M 1959 2075 
Q 2384 2075 2632 2365 
Q 2881 2656 2881 3163 
Q 2881 3666 2632 3958 
Q 2384 4250 1959 4250 
Q 1534 4250 1286 3958 
Q 1038 3666 1038 3163 
Q 1038 2656 1286 2365 
Q 1534 2075 1959 2075 
z
" transform="scale(0.015625)"/>
      <path id="DejaVuSans-7d" d="M 800 -594 
L 1019 -594 
Q 1456 -594 1589 -459 
Q 1722 -325 1722 122 
L 1722 897 
Q 1722 1384 1862 1606 
Q 2003 1828 2350 1913 
Q 2003 1991 1862 2212 
Q 1722 2434 1722 2925 
L 1722 3700 
Q 1722 4144 1589 4280 
Q 1456 4416 1019 4416 
L 800 4416 
L 800 4863 
L 997 4863 
Q 1775 4863 2036 4633 
Q 2297 4403 2297 3713 
L 2297 2963 
Q 2297 2497 2465 2317 
Q 2634 2138 3078 2138 
L 3272 2138 
L 3272 1691 
L 3078 1691 
Q 2634 1691 2465 1509 
Q 2297 1328 2297 856 
L 2297 109 
Q 2297 -581 2036 -812 
Q 1775 -1044 997 -1044 
L 800 -1044 
L 800 -594 
z
" transform="scale(0.015625)"/>
      <path id="DejaVuSans-2c" d="M 750 794 
L 1409 794 
L 1409 256 
L 897 -744 
L 494 -744 
L 750 256 
L 750 794 
z
" transform="scale(0.015625)"/>
     </defs>
     <use xlink:href="#DejaVuSans-7b"/>
     <use xlink:href="#DejaVuSans-66" x="63.623047"/>
     <use xlink:href="#DejaVuSans-36" x="98.828125"/>
     <use xlink:href="#DejaVuSans-2d" x="162.451172"/>
     <use xlink:href="#DejaVuSans-66" x="198.535156"/>
     <use xlink:href="#DejaVuSans-39" x="233.740234"/>
     <use xlink:href="#DejaVuSans-7d" x="297.363281"/>
     <use xlink:href="#DejaVuSans-2c" x="360.986328"/>
     <use xlink:href="#DejaVuSans-20" x="392.773438"/>
     <use xlink:href="#DejaVuSans-34" x="424.560547"/>
     <use xlink:href="#DejaVuSans-30" x="488.183594"/>
     <use xlink:href="#DejaVuSans-2d" x="551.806641"/>
     <use xlink:href="#DejaVuSans-44" x="587.890625"/>
    </g>
   </g>
   <g id="text_7">
    <!-- v2.6.4 -->
    <g style="fill: #808080" transform="translate(214.71875 288.777272) scale(0.1 -0.1)">
     <defs>
      <path id="DejaVuSans-76" d="M 191 3500 
L 800 3500 
L 1894 563 
L 2988 3500 
L 3597 3500 
L 2284 0 
L 1503 0 
L 191 3500 
z
" transform="scale(0.015625)"/>
      <path id="DejaVuSans-2e" d="M 684 794 
L 1344 794 
L 1344 0 
L 684 0 
L 684 794 
z
" transform="scale(0.015625)"/>
     </defs>
     <use xlink:href="#DejaVuSans-76"/>
     <use xlink:href="#DejaVuSans-32" x="59.179688"/>
     <use xlink:href="#DejaVuSans-2e" x="122.802734"/>
     <use xlink:href="#DejaVuSans-36" x="154.589844"/>
     <use xlink:href="#DejaVuSans-2e" x="218.212891"/>
     <use xlink:href="#DejaVuSans-34" x="250"/>
    </g>
   </g>
  </g>
 </g>
 <defs>
  <clipPath id="p8dcc8de18e">
   <rect x="0" y="3.456" width="460.8" height="290.304"/>
  </clipPath>
 </defs>
</svg>
