<?xml version="1.0" encoding="utf-8" standalone="no"?>
<!DOCTYPE svg PUBLIC "-//W3C//DTD SVG 1.1//EN"
  "http://www.w3.org/Graphics/SVG/1.1/DTD/svg11.dtd">
<svg xmlns:xlink="http://www.w3.org/1999/xlink" width="460.8pt" height="345.6pt" viewBox="0 0 460.8 345.6" xmlns="http://www.w3.org/2000/svg" version="1.1">
 <metadata>
  <rdf:RDF xmlns:dc="http://purl.org/dc/elements/1.1/" xmlns:cc="http://creativecommons.org/ns#" xmlns:rdf="http://www.w3.org/1999/02/22-rdf-syntax-ns#">
   <cc:Work>
    <dc:type rdf:resource="http://purl.org/dc/dcmitype/StillImage"/>
    <dc:date>2024-10-11T15:13:53.503162</dc:date>
    <dc:format>image/svg+xml</dc:format>
    <dc:creator>
     <cc:Agent>
      <dc:title>Matplotlib v3.9.2, https://matplotlib.org/</dc:title>
     </cc:Agent>
    </dc:creator>
   </cc:Work>
  </rdf:RDF>
 </metadata>
 <defs>
  <style type="text/css">*{stroke-linejoin: round; stroke-linecap: butt}</style>
 </defs>
 <g id="figure_1">
  <g id="patch_1">
   <path d="M 0 345.6 
L 460.8 345.6 
L 460.8 0 
L 0 0 
z
" style="fill: #ffffff"/>
  </g>
  <g id="axes_1">
   <g id="patch_2">
    <path d="M 0 293.76 
L 460.8 293.76 
L 460.8 3.456 
L 0 3.456 
z
" style="fill: #ffffff"/>
   </g>
   <g id="matplotlib.axis_1">
    <g id="xtick_1">
     <g id="line2d_1">
      <path d="M 102.630429 293.76 
L 102.630429 3.456 
" clip-path="url(#pb6eeeac7fd)" style="fill: none; stroke: #b0b0b0; stroke-width: 0.8; stroke-linecap: square"/>
     </g>
     <g id="line2d_2">
      <defs>
       <path id="mf755ded56c" d="M 0 0 
L 0 3.5 
" style="stroke: #000000; stroke-width: 0.8"/>
      </defs>
      <g>
       <use xlink:href="#mf755ded56c" x="102.630429" y="293.76" style="stroke: #000000; stroke-width: 0.8"/>
      </g>
     </g>
     <g id="text_1">
      <!-- -5 -->
      <g transform="translate(92.660117 315.956875) scale(0.2 -0.2)">
       <defs>
        <path id="DejaVuSans-2d" d="M 313 2009 
L 1997 2009 
L 1997 1497 
L 313 1497 
L 313 2009 
z
" transform="scale(0.015625)"/>
        <path id="DejaVuSans-35" d="M 691 4666 
L 3169 4666 
L 3169 4134 
L 1269 4134 
L 1269 2991 
Q 1406 3038 1543 3061 
Q 1681 3084 1819 3084 
Q 2600 3084 3056 2656 
Q 3513 2228 3513 1497 
Q 3513 744 3044 326 
Q 2575 -91 1722 -91 
Q 1428 -91 1123 -41 
Q 819 9 494 109 
L 494 744 
Q 775 591 1075 516 
Q 1375 441 1709 441 
Q 2250 441 2565 725 
Q 2881 1009 2881 1497 
Q 2881 1984 2565 2268 
Q 2250 2553 1709 2553 
Q 1456 2553 1204 2497 
Q 953 2441 691 2322 
L 691 4666 
z
" transform="scale(0.015625)"/>
       </defs>
       <use xlink:href="#DejaVuSans-2d"/>
       <use xlink:href="#DejaVuSans-35" x="36.083984"/>
      </g>
     </g>
    </g>
    <g id="xtick_2">
     <g id="line2d_3">
      <path d="M 205.408906 293.76 
L 205.408906 3.456 
" clip-path="url(#pb6eeeac7fd)" style="fill: none; stroke: #b0b0b0; stroke-width: 0.8; stroke-linecap: square"/>
     </g>
     <g id="line2d_4">
      <g>
       <use xlink:href="#mf755ded56c" x="205.408906" y="293.76" style="stroke: #000000; stroke-width: 0.8"/>
      </g>
     </g>
     <g id="text_2">
      <!-- -2 -->
      <g transform="translate(195.438594 315.956875) scale(0.2 -0.2)">
       <defs>
        <path id="DejaVuSans-32" d="M 1228 531 
L 3431 531 
L 3431 0 
L 469 0 
L 469 531 
Q 828 903 1448 1529 
Q 2069 2156 2228 2338 
Q 2531 2678 2651 2914 
Q 2772 3150 2772 3378 
Q 2772 3750 2511 3984 
Q 2250 4219 1831 4219 
Q 1534 4219 1204 4116 
Q 875 4013 500 3803 
L 500 4441 
Q 881 4594 1212 4672 
Q 1544 4750 1819 4750 
Q 2544 4750 2975 4387 
Q 3406 4025 3406 3419 
Q 3406 3131 3298 2873 
Q 3191 2616 2906 2266 
Q 2828 2175 2409 1742 
Q 1991 1309 1228 531 
z
" transform="scale(0.015625)"/>
       </defs>
       <use xlink:href="#DejaVuSans-2d"/>
       <use xlink:href="#DejaVuSans-32" x="36.083984"/>
      </g>
     </g>
    </g>
    <g id="xtick_3">
     <g id="line2d_5">
      <path d="M 308.187383 293.76 
L 308.187383 3.456 
" clip-path="url(#pb6eeeac7fd)" style="fill: none; stroke: #b0b0b0; stroke-width: 0.8; stroke-linecap: square"/>
     </g>
     <g id="line2d_6">
      <g>
       <use xlink:href="#mf755ded56c" x="308.187383" y="293.76" style="stroke: #000000; stroke-width: 0.8"/>
      </g>
     </g>
     <g id="text_3">
      <!-- 1 -->
      <g transform="translate(301.824883 315.956875) scale(0.2 -0.2)">
       <defs>
        <path id="DejaVuSans-31" d="M 794 531 
L 1825 531 
L 1825 4091 
L 703 3866 
L 703 4441 
L 1819 4666 
L 2450 4666 
L 2450 531 
L 3481 531 
L 3481 0 
L 794 0 
L 794 531 
z
" transform="scale(0.015625)"/>
       </defs>
       <use xlink:href="#DejaVuSans-31"/>
      </g>
     </g>
    </g>
    <g id="xtick_4">
     <g id="line2d_7">
      <path d="M 410.965861 293.76 
L 410.965861 3.456 
" clip-path="url(#pb6eeeac7fd)" style="fill: none; stroke: #b0b0b0; stroke-width: 0.8; stroke-linecap: square"/>
     </g>
     <g id="line2d_8">
      <g>
       <use xlink:href="#mf755ded56c" x="410.965861" y="293.76" style="stroke: #000000; stroke-width: 0.8"/>
      </g>
     </g>
     <g id="text_4">
      <!-- 4 -->
      <g transform="translate(404.603361 315.956875) scale(0.2 -0.2)">
       <defs>
        <path id="DejaVuSans-34" d="M 2419 4116 
L 825 1625 
L 2419 1625 
L 2419 4116 
z
M 2253 4666 
L 3047 4666 
L 3047 1625 
L 3713 1625 
L 3713 1100 
L 3047 1100 
L 3047 0 
L 2419 0 
L 2419 1100 
L 313 1100 
L 313 1709 
L 2253 4666 
z
" transform="scale(0.015625)"/>
       </defs>
       <use xlink:href="#DejaVuSans-34"/>
      </g>
     </g>
    </g>
    <g id="text_5">
     <!-- log10 of Df -->
     <g transform="translate(175.214063 339.313125) scale(0.2 -0.2)">
      <defs>
       <path id="DejaVuSans-6c" d="M 603 4863 
L 1178 4863 
L 1178 0 
L 603 0 
L 603 4863 
z
" transform="scale(0.015625)"/>
       <path id="DejaVuSans-6f" d="M 1959 3097 
Q 1497 3097 1228 2736 
Q 959 2375 959 1747 
Q 959 1119 1226 758 
Q 1494 397 1959 397 
Q 2419 397 2687 759 
Q 2956 1122 2956 1747 
Q 2956 2369 2687 2733 
Q 2419 3097 1959 3097 
z
M 1959 3584 
Q 2709 3584 3137 3096 
Q 3566 2609 3566 1747 
Q 3566 888 3137 398 
Q 2709 -91 1959 -91 
Q 1206 -91 779 398 
Q 353 888 353 1747 
Q 353 2609 779 3096 
Q 1206 3584 1959 3584 
z
" transform="scale(0.015625)"/>
       <path id="DejaVuSans-67" d="M 2906 1791 
Q 2906 2416 2648 2759 
Q 2391 3103 1925 3103 
Q 1463 3103 1205 2759 
Q 947 2416 947 1791 
Q 947 1169 1205 825 
Q 1463 481 1925 481 
Q 2391 481 2648 825 
Q 2906 1169 2906 1791 
z
M 3481 434 
Q 3481 -459 3084 -895 
Q 2688 -1331 1869 -1331 
Q 1566 -1331 1297 -1286 
Q 1028 -1241 775 -1147 
L 775 -588 
Q 1028 -725 1275 -790 
Q 1522 -856 1778 -856 
Q 2344 -856 2625 -561 
Q 2906 -266 2906 331 
L 2906 616 
Q 2728 306 2450 153 
Q 2172 0 1784 0 
Q 1141 0 747 490 
Q 353 981 353 1791 
Q 353 2603 747 3093 
Q 1141 3584 1784 3584 
Q 2172 3584 2450 3431 
Q 2728 3278 2906 2969 
L 2906 3500 
L 3481 3500 
L 3481 434 
z
" transform="scale(0.015625)"/>
       <path id="DejaVuSans-30" d="M 2034 4250 
Q 1547 4250 1301 3770 
Q 1056 3291 1056 2328 
Q 1056 1369 1301 889 
Q 1547 409 2034 409 
Q 2525 409 2770 889 
Q 3016 1369 3016 2328 
Q 3016 3291 2770 3770 
Q 2525 4250 2034 4250 
z
M 2034 4750 
Q 2819 4750 3233 4129 
Q 3647 3509 3647 2328 
Q 3647 1150 3233 529 
Q 2819 -91 2034 -91 
Q 1250 -91 836 529 
Q 422 1150 422 2328 
Q 422 3509 836 4129 
Q 1250 4750 2034 4750 
z
" transform="scale(0.015625)"/>
       <path id="DejaVuSans-20" transform="scale(0.015625)"/>
       <path id="DejaVuSans-66" d="M 2375 4863 
L 2375 4384 
L 1825 4384 
Q 1516 4384 1395 4259 
Q 1275 4134 1275 3809 
L 1275 3500 
L 2222 3500 
L 2222 3053 
L 1275 3053 
L 1275 0 
L 697 0 
L 697 3053 
L 147 3053 
L 147 3500 
L 697 3500 
L 697 3744 
Q 697 4328 969 4595 
Q 1241 4863 1831 4863 
L 2375 4863 
z
" transform="scale(0.015625)"/>
       <path id="DejaVuSans-44" d="M 1259 4147 
L 1259 519 
L 2022 519 
Q 2988 519 3436 956 
Q 3884 1394 3884 2338 
Q 3884 3275 3436 3711 
Q 2988 4147 2022 4147 
L 1259 4147 
z
M 628 4666 
L 1925 4666 
Q 3281 4666 3915 4102 
Q 4550 3538 4550 2338 
Q 4550 1131 3912 565 
Q 3275 0 1925 0 
L 628 0 
L 628 4666 
z
" transform="scale(0.015625)"/>
      </defs>
      <use xlink:href="#DejaVuSans-6c"/>
      <use xlink:href="#DejaVuSans-6f" x="27.783203"/>
      <use xlink:href="#DejaVuSans-67" x="88.964844"/>
      <use xlink:href="#DejaVuSans-31" x="152.441406"/>
      <use xlink:href="#DejaVuSans-30" x="216.064453"/>
      <use xlink:href="#DejaVuSans-20" x="279.6875"/>
      <use xlink:href="#DejaVuSans-6f" x="311.474609"/>
      <use xlink:href="#DejaVuSans-66" x="372.65625"/>
      <use xlink:href="#DejaVuSans-20" x="407.861328"/>
      <use xlink:href="#DejaVuSans-44" x="439.648438"/>
      <use xlink:href="#DejaVuSans-66" x="516.650391"/>
     </g>
    </g>
   </g>
   <g id="matplotlib.axis_2">
    <g id="ytick_1">
     <g id="line2d_9">
      <path d="M 0 293.76 
L 460.8 293.76 
" clip-path="url(#pb6eeeac7fd)" style="fill: none; stroke: #b0b0b0; stroke-width: 0.8; stroke-linecap: square"/>
     </g>
     <g id="line2d_10">
      <defs>
       <path id="m58cb8e5a0a" d="M 0 0 
L -3.5 0 
" style="stroke: #000000; stroke-width: 0.8"/>
      </defs>
      <g>
       <use xlink:href="#m58cb8e5a0a" x="0" y="293.76" style="stroke: #000000; stroke-width: 0.8"/>
      </g>
     </g>
    </g>
    <g id="ytick_2">
     <g id="line2d_11">
      <path d="M 0 236.274059 
L 460.8 236.274059 
" clip-path="url(#pb6eeeac7fd)" style="fill: none; stroke: #b0b0b0; stroke-width: 0.8; stroke-linecap: square"/>
     </g>
     <g id="line2d_12">
      <g>
       <use xlink:href="#m58cb8e5a0a" x="0" y="236.274059" style="stroke: #000000; stroke-width: 0.8"/>
      </g>
     </g>
    </g>
    <g id="ytick_3">
     <g id="line2d_13">
      <path d="M 0 178.788119 
L 460.8 178.788119 
" clip-path="url(#pb6eeeac7fd)" style="fill: none; stroke: #b0b0b0; stroke-width: 0.8; stroke-linecap: square"/>
     </g>
     <g id="line2d_14">
      <g>
       <use xlink:href="#m58cb8e5a0a" x="0" y="178.788119" style="stroke: #000000; stroke-width: 0.8"/>
      </g>
     </g>
    </g>
    <g id="ytick_4">
     <g id="line2d_15">
      <path d="M 0 121.302178 
L 460.8 121.302178 
" clip-path="url(#pb6eeeac7fd)" style="fill: none; stroke: #b0b0b0; stroke-width: 0.8; stroke-linecap: square"/>
     </g>
     <g id="line2d_16">
      <g>
       <use xlink:href="#m58cb8e5a0a" x="0" y="121.302178" style="stroke: #000000; stroke-width: 0.8"/>
      </g>
     </g>
    </g>
    <g id="ytick_5">
     <g id="line2d_17">
      <path d="M 0 63.816238 
L 460.8 63.816238 
" clip-path="url(#pb6eeeac7fd)" style="fill: none; stroke: #b0b0b0; stroke-width: 0.8; stroke-linecap: square"/>
     </g>
     <g id="line2d_18">
      <g>
       <use xlink:href="#m58cb8e5a0a" x="0" y="63.816238" style="stroke: #000000; stroke-width: 0.8"/>
      </g>
     </g>
    </g>
    <g id="ytick_6">
     <g id="line2d_19">
      <path d="M 0 6.330297 
L 460.8 6.330297 
" clip-path="url(#pb6eeeac7fd)" style="fill: none; stroke: #b0b0b0; stroke-width: 0.8; stroke-linecap: square"/>
     </g>
     <g id="line2d_20">
      <g>
       <use xlink:href="#m58cb8e5a0a" x="0" y="6.330297" style="stroke: #000000; stroke-width: 0.8"/>
      </g>
     </g>
    </g>
   </g>
   <g id="line2d_21">
    <path d="M -0.148048 293.76 
L -0.148048 288.969505 
L -0.148048 288.969505 
L -0.148048 284.17901 
L -0.148048 284.17901 
L -0.148048 279.388515 
L -0.148048 279.388515 
L -0.148048 274.59802 
L -0.148048 274.59802 
L -0.148048 269.807525 
L -0.148048 269.807525 
L -0.148048 265.01703 
L -0.148048 265.01703 
L -0.148048 260.226535 
L -0.148048 260.226535 
L -0.148048 255.43604 
L -0.148048 255.43604 
L -0.148048 250.645545 
L -0.148048 250.645545 
L -0.148048 245.85505 
L -0.148048 245.85505 
L -0.148048 241.064554 
L -0.148048 241.064554 
L -0.148048 236.274059 
L -0.148048 236.274059 
L -0.148048 231.483564 
L -0.148048 231.483564 
L -0.148048 226.693069 
L -0.148048 226.693069 
L -0.148048 221.902574 
L -0.148048 221.902574 
L -0.148048 217.112079 
L -0.148048 217.112079 
L -0.148048 212.321584 
L -0.148048 212.321584 
L -0.148048 207.531089 
L -0.148048 207.531089 
L -0.148048 202.740594 
L -0.148048 202.740594 
L -0.148048 197.950099 
L -0.148048 197.950099 
L -0.148048 193.159604 
L -0.148048 193.159604 
L -0.148048 188.369109 
L -0.148048 188.369109 
L -0.148048 183.578614 
L -0.148048 183.578614 
L -0.148048 178.788119 
L -0.148048 178.788119 
L -0.148048 173.997624 
L -0.148048 173.997624 
L -0.148048 169.207129 
L -0.148048 169.207129 
L -0.148048 164.416634 
L -0.148048 164.416634 
L -0.148048 159.626139 
L -0.148048 159.626139 
L -0.148048 154.835644 
L -0.148048 154.835644 
L -0.148048 150.045149 
L -0.148048 150.045149 
L -0.148048 145.254653 
L -0.148048 145.254653 
L -0.148048 140.464158 
L -0.148048 140.464158 
L -0.148048 135.673663 
L -0.148048 135.673663 
L -0.148048 130.883168 
L -0.148048 130.883168 
L -0.148048 126.092673 
L -0.148048 126.092673 
L -0.148048 121.302178 
L -0.148048 121.302178 
L -0.148048 116.511683 
L -0.148048 116.511683 
L -0.148048 111.721188 
L -0.148048 111.721188 
L -0.148048 106.930693 
L -0.148048 106.930693 
L -0.148048 102.140198 
L 201.333974 102.140198 
L 201.333974 97.349703 
L 211.885624 97.349703 
L 211.885624 92.559208 
L 232.556012 92.559208 
L 232.556012 87.768713 
L 240.91245 87.768713 
L 240.91245 82.978218 
L 243.032103 82.978218 
L 243.032103 78.187723 
L 243.110512 78.187723 
L 243.110512 73.397228 
L 244.237728 73.397228 
L 244.237728 68.606733 
L 244.477957 68.606733 
L 244.477957 63.816238 
L 244.883629 63.816238 
L 244.883629 59.025743 
L 247.534692 59.025743 
L 247.534692 54.235248 
L 248.911981 54.235248 
L 248.911981 49.444752 
L 249.809831 49.444752 
L 249.809831 44.654257 
L 250.657969 44.654257 
L 250.657969 39.863762 
L 251.649445 39.863762 
L 251.649445 35.073267 
L 255.58158 35.073267 
L 255.58158 30.282772 
L 257.187503 30.282772 
L 257.187503 25.492277 
L 268.122811 25.492277 
L 268.122811 20.701782 
L 268.298549 20.701782 
L 268.298549 15.911287 
L 277.127049 15.911287 
L 277.127049 11.120792 
L 292.742973 11.120792 
L 292.742973 6.330297 
L 292.742973 6.330297 
L 292.742973 6.330297 
L 460.8 6.330297 
" clip-path="url(#pb6eeeac7fd)" style="fill: none; stroke: #ff0000; stroke-width: 3; stroke-linecap: square"/>
   </g>
   <g id="line2d_22">
    <path d="M 324.578993 293.76 
L 324.578993 288.969505 
L 326.627524 288.969505 
L 326.627524 284.17901 
L 331.818224 284.17901 
L 331.818224 279.388515 
L 331.994171 279.388515 
L 331.994171 274.59802 
L 333.650853 274.59802 
L 333.650853 269.807525 
L 335.130844 269.807525 
L 335.130844 265.01703 
L 341.903374 265.01703 
L 341.903374 260.226535 
L 342.307596 260.226535 
L 342.307596 255.43604 
L 343.68197 255.43604 
L 343.68197 250.645545 
L 345.015484 250.645545 
L 345.015484 245.85505 
L 345.730142 245.85505 
L 345.730142 241.064554 
L 348.280948 241.064554 
L 348.280948 236.274059 
L 348.558461 236.274059 
L 348.558461 231.483564 
L 350.262497 231.483564 
L 350.262497 226.693069 
L 351.065236 226.693069 
L 351.065236 221.902574 
L 351.28143 221.902574 
L 351.28143 217.112079 
L 352.305562 217.112079 
L 352.305562 212.321584 
L 352.392771 212.321584 
L 352.392771 207.531089 
L 353.125041 207.531089 
L 353.125041 202.740594 
L 354.03663 202.740594 
L 354.03663 197.950099 
L 356.458764 197.950099 
L 356.458764 193.159604 
L 356.865068 193.159604 
L 356.865068 188.369109 
L 357.172581 188.369109 
L 357.172581 183.578614 
L 357.805411 183.578614 
L 357.805411 178.788119 
L 358.316265 178.788119 
L 358.316265 173.997624 
L 358.409599 173.997624 
L 358.409599 169.207129 
L 359.078366 169.207129 
L 359.078366 164.416634 
L 359.259229 164.416634 
L 359.259229 159.626139 
L 359.390852 159.626139 
L 359.390852 154.835644 
L 360.12701 154.835644 
L 360.12701 150.045149 
L 360.23573 150.045149 
L 360.23573 145.254653 
L 360.794161 145.254653 
L 360.794161 140.464158 
L 361.105997 140.464158 
L 361.105997 135.673663 
L 362.151176 135.673663 
L 362.151176 130.883168 
L 362.509686 130.883168 
L 362.509686 126.092673 
L 363.209829 126.092673 
L 363.209829 121.302178 
L 363.288266 121.302178 
L 363.288266 116.511683 
L 363.289059 116.511683 
L 363.289059 111.721188 
L 363.622092 111.721188 
L 363.622092 106.930693 
L 366.132728 106.930693 
L 366.132728 102.140198 
L 367.050909 102.140198 
L 367.050909 97.349703 
L 367.830696 97.349703 
L 367.830696 92.559208 
L 368.113899 92.559208 
L 368.113899 87.768713 
L 369.381048 87.768713 
L 369.381048 82.978218 
L 372.639809 82.978218 
L 372.639809 78.187723 
L 373.08793 78.187723 
L 373.08793 73.397228 
L 373.782582 73.397228 
L 373.782582 68.606733 
L 378.60394 68.606733 
L 378.60394 63.816238 
L 378.991671 63.816238 
L 378.991671 59.025743 
L 381.438887 59.025743 
L 381.438887 54.235248 
L 383.401582 54.235248 
L 383.401582 49.444752 
L 384.642678 49.444752 
L 384.642678 44.654257 
L 385.597762 44.654257 
L 385.597762 39.863762 
L 386.617978 39.863762 
L 386.617978 35.073267 
L 388.485781 35.073267 
L 388.485781 30.282772 
L 389.067703 30.282772 
L 389.067703 25.492277 
L 390.245273 25.492277 
L 390.245273 20.701782 
L 392.351819 20.701782 
L 392.351819 15.911287 
L 399.202783 15.911287 
L 399.202783 11.120792 
L 401.01704 11.120792 
L 401.01704 6.330297 
L 401.01704 6.330297 
L 401.01704 6.330297 
L 460.8 6.330297 
" clip-path="url(#pb6eeeac7fd)" style="fill: none; stroke: #00bfbf; stroke-width: 1.5; stroke-linecap: square"/>
   </g>
   <g id="line2d_23">
    <path d="M 324.578993 293.76 
L 324.578993 288.969505 
L 326.423051 288.969505 
L 326.423051 284.17901 
L 326.627524 284.17901 
L 326.627524 279.388515 
L 328.880578 279.388515 
L 328.880578 274.59802 
L 331.217714 274.59802 
L 331.217714 269.807525 
L 331.818224 269.807525 
L 331.818224 265.01703 
L 331.994171 265.01703 
L 331.994171 260.226535 
L 333.650853 260.226535 
L 333.650853 255.43604 
L 333.654385 255.43604 
L 333.654385 250.645545 
L 335.130844 250.645545 
L 335.130844 245.85505 
L 336.736024 245.85505 
L 336.736024 241.064554 
L 341.903374 241.064554 
L 341.903374 236.274059 
L 342.307596 236.274059 
L 342.307596 231.483564 
L 342.350895 231.483564 
L 342.350895 226.693069 
L 342.508471 226.693069 
L 342.508471 221.902574 
L 342.865194 221.902574 
L 342.865194 217.112079 
L 343.456364 217.112079 
L 343.456364 212.321584 
L 343.68197 212.321584 
L 343.68197 207.531089 
L 344.16415 207.531089 
L 344.16415 202.740594 
L 345.730142 202.740594 
L 345.730142 197.950099 
L 347.357183 197.950099 
L 347.357183 193.159604 
L 348.558461 193.159604 
L 348.558461 188.369109 
L 349.486135 188.369109 
L 349.486135 183.578614 
L 349.619019 183.578614 
L 349.619019 178.788119 
L 349.659246 178.788119 
L 349.659246 173.997624 
L 350.262497 173.997624 
L 350.262497 169.207129 
L 350.409522 169.207129 
L 350.409522 164.416634 
L 350.58119 164.416634 
L 350.58119 159.626139 
L 351.065236 159.626139 
L 351.065236 154.835644 
L 351.28143 154.835644 
L 351.28143 150.045149 
L 351.915975 150.045149 
L 351.915975 145.254653 
L 352.259684 145.254653 
L 352.259684 140.464158 
L 353.246759 140.464158 
L 353.246759 135.673663 
L 354.501971 135.673663 
L 354.501971 130.883168 
L 354.88522 130.883168 
L 354.88522 126.092673 
L 356.673175 126.092673 
L 356.673175 121.302178 
L 357.63535 121.302178 
L 357.63535 116.511683 
L 357.787713 116.511683 
L 357.787713 111.721188 
L 357.846179 111.721188 
L 357.846179 106.930693 
L 358.409599 106.930693 
L 358.409599 102.140198 
L 359.240235 102.140198 
L 359.240235 97.349703 
L 360.54248 97.349703 
L 360.54248 92.559208 
L 360.794161 92.559208 
L 360.794161 87.768713 
L 362.497138 87.768713 
L 362.497138 82.978218 
L 363.289059 82.978218 
L 363.289059 78.187723 
L 364.198984 78.187723 
L 364.198984 73.397228 
L 364.763074 73.397228 
L 364.763074 68.606733 
L 365.590257 68.606733 
L 365.590257 63.816238 
L 369.381048 63.816238 
L 369.381048 59.025743 
L 372.384044 59.025743 
L 372.384044 54.235248 
L 372.649395 54.235248 
L 372.649395 49.444752 
L 374.335554 49.444752 
L 374.335554 44.654257 
L 377.67091 44.654257 
L 377.67091 39.863762 
L 378.991671 39.863762 
L 378.991671 35.073267 
L 384.642678 35.073267 
L 384.642678 30.282772 
L 386.152789 30.282772 
L 386.152789 25.492277 
L 386.617978 25.492277 
L 386.617978 20.701782 
L 387.227987 20.701782 
L 387.227987 15.911287 
L 388.485781 15.911287 
L 388.485781 11.120792 
L 389.067703 11.120792 
L 389.067703 6.330297 
L 389.067703 6.330297 
L 389.067703 6.330297 
L 460.8 6.330297 
" clip-path="url(#pb6eeeac7fd)" style="fill: none; stroke: #bf00bf; stroke-width: 1.5; stroke-linecap: square"/>
   </g>
   <g id="line2d_24">
    <path d="M 324.578993 293.76 
L 324.578993 288.969505 
L 326.423051 288.969505 
L 326.423051 284.17901 
L 326.627524 284.17901 
L 326.627524 279.388515 
L 328.880578 279.388515 
L 328.880578 274.59802 
L 331.106639 274.59802 
L 331.106639 269.807525 
L 331.360899 269.807525 
L 331.360899 265.01703 
L 331.818224 265.01703 
L 331.818224 260.226535 
L 331.994171 260.226535 
L 331.994171 255.43604 
L 332.399696 255.43604 
L 332.399696 250.645545 
L 333.654385 250.645545 
L 333.654385 245.85505 
L 335.012867 245.85505 
L 335.012867 241.064554 
L 335.130844 241.064554 
L 335.130844 236.274059 
L 337.553922 236.274059 
L 337.553922 231.483564 
L 337.7134 231.483564 
L 337.7134 226.693069 
L 337.824357 226.693069 
L 337.824357 221.902574 
L 339.035191 221.902574 
L 339.035191 217.112079 
L 339.075086 217.112079 
L 339.075086 212.321584 
L 339.51507 212.321584 
L 339.51507 207.531089 
L 340.736197 207.531089 
L 340.736197 202.740594 
L 341.76013 202.740594 
L 341.76013 197.950099 
L 342.075063 197.950099 
L 342.075063 193.159604 
L 342.508471 193.159604 
L 342.508471 188.369109 
L 342.865194 188.369109 
L 342.865194 183.578614 
L 343.991278 183.578614 
L 343.991278 178.788119 
L 344.16415 178.788119 
L 344.16415 173.997624 
L 344.209551 173.997624 
L 344.209551 169.207129 
L 345.730142 169.207129 
L 345.730142 164.416634 
L 347.280524 164.416634 
L 347.280524 159.626139 
L 348.734057 159.626139 
L 348.734057 154.835644 
L 349.486135 154.835644 
L 349.486135 150.045149 
L 349.659246 150.045149 
L 349.659246 145.254653 
L 349.945514 145.254653 
L 349.945514 140.464158 
L 350.262497 140.464158 
L 350.262497 135.673663 
L 351.125023 135.673663 
L 351.125023 130.883168 
L 351.199623 130.883168 
L 351.199623 126.092673 
L 352.259684 126.092673 
L 352.259684 121.302178 
L 353.246759 121.302178 
L 353.246759 116.511683 
L 353.553949 116.511683 
L 353.553949 111.721188 
L 353.594422 111.721188 
L 353.594422 106.930693 
L 353.910735 106.930693 
L 353.910735 102.140198 
L 354.501971 102.140198 
L 354.501971 97.349703 
L 356.113841 97.349703 
L 356.113841 92.559208 
L 356.164021 92.559208 
L 356.164021 87.768713 
L 357.63535 87.768713 
L 357.63535 82.978218 
L 357.787713 82.978218 
L 357.787713 78.187723 
L 358.708743 78.187723 
L 358.708743 73.397228 
L 360.54248 73.397228 
L 360.54248 68.606733 
L 362.889832 68.606733 
L 362.889832 63.816238 
L 364.384278 63.816238 
L 364.384278 59.025743 
L 364.763074 59.025743 
L 364.763074 54.235248 
L 365.561932 54.235248 
L 365.561932 49.444752 
L 372.384044 49.444752 
L 372.384044 44.654257 
L 374.335554 44.654257 
L 374.335554 39.863762 
L 377.67091 39.863762 
L 377.67091 35.073267 
L 378.224362 35.073267 
L 378.224362 30.282772 
L 378.430996 30.282772 
L 378.430996 25.492277 
L 380.091838 25.492277 
L 380.091838 20.701782 
L 380.169867 20.701782 
L 380.169867 15.911287 
L 381.739965 15.911287 
L 381.739965 11.120792 
L 388.485781 11.120792 
L 388.485781 6.330297 
L 388.485781 6.330297 
L 388.485781 6.330297 
L 460.8 6.330297 
" clip-path="url(#pb6eeeac7fd)" style="fill: none; stroke: #000000; stroke-width: 1.5; stroke-linecap: square"/>
   </g>
   <g id="line2d_25">
    <path d="M 280.057567 293.76 
L 280.057567 288.969505 
L 300.188177 288.969505 
L 300.188177 284.17901 
L 309.551022 284.17901 
L 309.551022 279.388515 
L 310.954727 279.388515 
L 310.954727 274.59802 
L 314.938277 274.59802 
L 314.938277 269.807525 
L 321.760055 269.807525 
L 321.760055 265.01703 
L 324.578993 265.01703 
L 324.578993 260.226535 
L 324.65511 260.226535 
L 324.65511 255.43604 
L 325.521455 255.43604 
L 325.521455 250.645545 
L 326.237935 250.645545 
L 326.237935 245.85505 
L 326.549973 245.85505 
L 326.549973 241.064554 
L 326.607892 241.064554 
L 326.607892 236.274059 
L 327.606144 236.274059 
L 327.606144 231.483564 
L 328.245374 231.483564 
L 328.245374 226.693069 
L 329.128182 226.693069 
L 329.128182 221.902574 
L 329.333797 221.902574 
L 329.333797 217.112079 
L 330.327772 217.112079 
L 330.327772 212.321584 
L 331.106639 212.321584 
L 331.106639 207.531089 
L 331.254363 207.531089 
L 331.254363 202.740594 
L 332.120822 202.740594 
L 332.120822 197.950099 
L 332.995767 197.950099 
L 332.995767 193.159604 
L 334.152916 193.159604 
L 334.152916 188.369109 
L 334.683135 188.369109 
L 334.683135 183.578614 
L 334.723146 183.578614 
L 334.723146 178.788119 
L 335.130844 178.788119 
L 335.130844 173.997624 
L 335.906722 173.997624 
L 335.906722 169.207129 
L 336.827869 169.207129 
L 336.827869 164.416634 
L 336.908836 164.416634 
L 336.908836 159.626139 
L 337.387779 159.626139 
L 337.387779 154.835644 
L 337.553922 154.835644 
L 337.553922 150.045149 
L 338.739725 150.045149 
L 338.739725 145.254653 
L 338.74772 145.254653 
L 338.74772 140.464158 
L 339.035191 140.464158 
L 339.035191 135.673663 
L 339.210408 135.673663 
L 339.210408 130.883168 
L 342.338581 130.883168 
L 342.338581 126.092673 
L 342.865194 126.092673 
L 342.865194 121.302178 
L 343.459023 121.302178 
L 343.459023 116.511683 
L 344.271509 116.511683 
L 344.271509 111.721188 
L 344.840272 111.721188 
L 344.840272 106.930693 
L 347.589565 106.930693 
L 347.589565 102.140198 
L 348.369103 102.140198 
L 348.369103 97.349703 
L 349.377604 97.349703 
L 349.377604 92.559208 
L 349.663547 92.559208 
L 349.663547 87.768713 
L 349.945514 87.768713 
L 349.945514 82.978218 
L 351.221163 82.978218 
L 351.221163 78.187723 
L 351.473313 78.187723 
L 351.473313 73.397228 
L 352.179745 73.397228 
L 352.179745 68.606733 
L 353.553949 68.606733 
L 353.553949 63.816238 
L 354.501971 63.816238 
L 354.501971 59.025743 
L 358.727117 59.025743 
L 358.727117 54.235248 
L 359.798633 54.235248 
L 359.798633 49.444752 
L 361.222742 49.444752 
L 361.222742 44.654257 
L 363.405985 44.654257 
L 363.405985 39.863762 
L 364.163295 39.863762 
L 364.163295 35.073267 
L 372.384044 35.073267 
L 372.384044 30.282772 
L 374.335554 30.282772 
L 374.335554 25.492277 
L 376.645412 25.492277 
L 376.645412 20.701782 
L 377.30943 20.701782 
L 377.30943 15.911287 
L 379.640205 15.911287 
L 379.640205 11.120792 
L 384.383085 11.120792 
L 384.383085 6.330297 
L 384.383085 6.330297 
L 384.383085 6.330297 
L 460.8 6.330297 
" clip-path="url(#pb6eeeac7fd)" style="fill: none; stroke: #00bfbf; stroke-width: 1.5; stroke-linecap: square"/>
   </g>
   <g id="line2d_26">
    <path d="M 263.1365 293.76 
L 263.1365 288.969505 
L 264.609541 288.969505 
L 264.609541 284.17901 
L 266.031191 284.17901 
L 266.031191 279.388515 
L 267.694807 279.388515 
L 267.694807 274.59802 
L 269.062898 274.59802 
L 269.062898 269.807525 
L 279.144536 269.807525 
L 279.144536 265.01703 
L 281.245969 265.01703 
L 281.245969 260.226535 
L 281.757338 260.226535 
L 281.757338 255.43604 
L 283.951206 255.43604 
L 283.951206 250.645545 
L 285.961556 250.645545 
L 285.961556 245.85505 
L 287.841529 245.85505 
L 287.841529 241.064554 
L 288.205714 241.064554 
L 288.205714 236.274059 
L 292.7902 236.274059 
L 292.7902 231.483564 
L 293.391705 231.483564 
L 293.391705 226.693069 
L 293.796103 226.693069 
L 293.796103 221.902574 
L 293.989338 221.902574 
L 293.989338 217.112079 
L 294.130422 217.112079 
L 294.130422 212.321584 
L 294.756355 212.321584 
L 294.756355 207.531089 
L 295.184543 207.531089 
L 295.184543 202.740594 
L 295.984302 202.740594 
L 295.984302 197.950099 
L 296.723582 197.950099 
L 296.723582 193.159604 
L 297.361175 193.159604 
L 297.361175 188.369109 
L 298.736967 188.369109 
L 298.736967 183.578614 
L 299.115629 183.578614 
L 299.115629 178.788119 
L 299.451608 178.788119 
L 299.451608 173.997624 
L 300.119747 173.997624 
L 300.119747 169.207129 
L 300.188177 169.207129 
L 300.188177 164.416634 
L 300.445099 164.416634 
L 300.445099 159.626139 
L 301.747764 159.626139 
L 301.747764 154.835644 
L 302.362044 154.835644 
L 302.362044 150.045149 
L 304.221231 150.045149 
L 304.221231 145.254653 
L 305.977186 145.254653 
L 305.977186 140.464158 
L 307.864538 140.464158 
L 307.864538 135.673663 
L 308.902774 135.673663 
L 308.902774 130.883168 
L 309.788986 130.883168 
L 309.788986 126.092673 
L 309.831799 126.092673 
L 309.831799 121.302178 
L 312.419799 121.302178 
L 312.419799 116.511683 
L 313.035536 116.511683 
L 313.035536 111.721188 
L 314.938928 111.721188 
L 314.938928 106.930693 
L 315.010099 106.930693 
L 315.010099 102.140198 
L 315.321066 102.140198 
L 315.321066 97.349703 
L 316.561635 97.349703 
L 316.561635 92.559208 
L 317.992635 92.559208 
L 317.992635 87.768713 
L 320.162969 87.768713 
L 320.162969 82.978218 
L 320.433759 82.978218 
L 320.433759 78.187723 
L 320.492008 78.187723 
L 320.492008 73.397228 
L 320.838372 73.397228 
L 320.838372 68.606733 
L 321.208112 68.606733 
L 321.208112 63.816238 
L 321.990305 63.816238 
L 321.990305 59.025743 
L 323.542917 59.025743 
L 323.542917 54.235248 
L 324.757085 54.235248 
L 324.757085 49.444752 
L 326.644737 49.444752 
L 326.644737 44.654257 
L 328.236635 44.654257 
L 328.236635 39.863762 
L 330.137476 39.863762 
L 330.137476 35.073267 
L 332.66535 35.073267 
L 332.66535 30.282772 
L 336.83884 30.282772 
L 336.83884 25.492277 
L 343.446507 25.492277 
L 343.446507 20.701782 
L 348.364421 20.701782 
L 348.364421 15.911287 
L 353.315035 15.911287 
L 353.315035 11.120792 
L 361.604599 11.120792 
L 361.604599 6.330297 
L 361.604599 6.330297 
L 361.604599 6.330297 
L 460.8 6.330297 
" clip-path="url(#pb6eeeac7fd)" style="fill: none; stroke: #bf00bf; stroke-width: 1.5; stroke-linecap: square"/>
   </g>
   <g id="line2d_27">
    <path d="M -1 212.321584 
L 4.07261 212.321584 
L 4.07261 207.531089 
L 8.380386 207.531089 
L 8.380386 202.740594 
L 14.663675 202.740594 
L 14.663675 197.950099 
L 24.844475 197.950099 
L 24.844475 193.159604 
L 31.806086 193.159604 
L 31.806086 188.369109 
L 40.029654 188.369109 
L 40.029654 183.578614 
L 44.172937 183.578614 
L 44.172937 178.788119 
L 44.856246 178.788119 
L 44.856246 173.997624 
L 50.141345 173.997624 
L 50.141345 169.207129 
L 51.092184 169.207129 
L 51.092184 164.416634 
L 62.198083 164.416634 
L 62.198083 159.626139 
L 75.457376 159.626139 
L 75.457376 154.835644 
L 78.360732 154.835644 
L 78.360732 150.045149 
L 79.614225 150.045149 
L 79.614225 145.254653 
L 85.021495 145.254653 
L 85.021495 140.464158 
L 101.333498 140.464158 
L 101.333498 135.673663 
L 104.955955 135.673663 
L 104.955955 130.883168 
L 111.969557 130.883168 
L 111.969557 126.092673 
L 146.013098 126.092673 
L 146.013098 121.302178 
L 160.662022 121.302178 
L 160.662022 116.511683 
L 201.342449 116.511683 
L 201.342449 111.721188 
L 217.648176 111.721188 
L 217.648176 106.930693 
L 221.406558 106.930693 
L 221.406558 102.140198 
L 227.86726 102.140198 
L 227.86726 97.349703 
L 232.619281 97.349703 
L 232.619281 92.559208 
L 240.91245 92.559208 
L 240.91245 87.768713 
L 243.033028 87.768713 
L 243.033028 82.978218 
L 243.111271 82.978218 
L 243.111271 78.187723 
L 244.243648 78.187723 
L 244.243648 73.397228 
L 244.478146 73.397228 
L 244.478146 68.606733 
L 244.883725 68.606733 
L 244.883725 63.816238 
L 247.534735 63.816238 
L 247.534735 59.025743 
L 248.91332 59.025743 
L 248.91332 54.235248 
L 249.809842 54.235248 
L 249.809842 49.444752 
L 250.676318 49.444752 
L 250.676318 44.654257 
L 251.655586 44.654257 
L 251.655586 39.863762 
L 255.58158 39.863762 
L 255.58158 35.073267 
L 255.862767 35.073267 
L 255.862767 30.282772 
L 257.18763 30.282772 
L 257.18763 25.492277 
L 268.122811 25.492277 
L 268.122811 20.701782 
L 268.29855 20.701782 
L 268.29855 15.911287 
L 277.127051 15.911287 
L 277.127051 11.120792 
L 292.742973 11.120792 
L 292.742973 6.330297 
L 292.742973 6.330297 
L 292.742973 6.330297 
L 460.8 6.330297 
" clip-path="url(#pb6eeeac7fd)" style="fill: none; stroke: #000000; stroke-width: 1.5; stroke-linecap: square"/>
   </g>
   <g id="line2d_28">
    <path d="M -0.148048 293.76 
L -0.148048 288.969505 
L -0.148048 288.969505 
L -0.148048 284.17901 
L -0.148048 284.17901 
L -0.148048 279.388515 
L -0.148048 279.388515 
L -0.148048 274.59802 
L -0.148048 274.59802 
L -0.148048 269.807525 
L -0.148048 269.807525 
L -0.148048 265.01703 
L -0.148048 265.01703 
L -0.148048 260.226535 
L -0.148048 260.226535 
L -0.148048 255.43604 
L -0.148048 255.43604 
L -0.148048 250.645545 
L -0.148048 250.645545 
L -0.148048 245.85505 
L -0.148048 245.85505 
L -0.148048 241.064554 
L -0.148048 241.064554 
L -0.148048 236.274059 
L -0.148048 236.274059 
L -0.148048 231.483564 
L -0.148048 231.483564 
L -0.148048 226.693069 
L -0.148048 226.693069 
L -0.148048 221.902574 
L -0.148048 221.902574 
L -0.148048 217.112079 
L -0.148048 217.112079 
L -0.148048 212.321584 
L -0.148048 212.321584 
L -0.148048 207.531089 
L -0.148048 207.531089 
L -0.148048 202.740594 
L -0.148048 202.740594 
L -0.148048 197.950099 
L -0.148048 197.950099 
L -0.148048 193.159604 
L -0.148048 193.159604 
L -0.148048 188.369109 
L -0.148048 188.369109 
L -0.148048 183.578614 
L -0.148048 183.578614 
L -0.148048 178.788119 
L -0.148048 178.788119 
L -0.148048 173.997624 
L -0.148048 173.997624 
L -0.148048 169.207129 
L -0.148048 169.207129 
L -0.148048 164.416634 
L -0.148048 164.416634 
L -0.148048 159.626139 
L -0.148048 159.626139 
L -0.148048 154.835644 
L -0.148048 154.835644 
L -0.148048 150.045149 
L -0.148048 150.045149 
L -0.148048 145.254653 
L -0.148048 145.254653 
L -0.148048 140.464158 
L -0.148048 140.464158 
L -0.148048 135.673663 
L -0.148048 135.673663 
L -0.148048 130.883168 
L -0.148048 130.883168 
L -0.148048 126.092673 
L -0.148048 126.092673 
L -0.148048 121.302178 
L -0.148048 121.302178 
L -0.148048 116.511683 
L -0.148048 116.511683 
L -0.148048 111.721188 
L -0.148048 111.721188 
L -0.148048 106.930693 
L -0.148048 106.930693 
L -0.148048 102.140198 
L 201.333974 102.140198 
L 201.333974 97.349703 
L 211.885624 97.349703 
L 211.885624 92.559208 
L 232.556012 92.559208 
L 232.556012 87.768713 
L 240.91245 87.768713 
L 240.91245 82.978218 
L 243.032103 82.978218 
L 243.032103 78.187723 
L 243.110512 78.187723 
L 243.110512 73.397228 
L 244.237728 73.397228 
L 244.237728 68.606733 
L 244.477957 68.606733 
L 244.477957 63.816238 
L 244.883629 63.816238 
L 244.883629 59.025743 
L 247.534692 59.025743 
L 247.534692 54.235248 
L 248.911981 54.235248 
L 248.911981 49.444752 
L 249.809831 49.444752 
L 249.809831 44.654257 
L 250.657969 44.654257 
L 250.657969 39.863762 
L 251.649445 39.863762 
L 251.649445 35.073267 
L 255.58158 35.073267 
L 255.58158 30.282772 
L 257.187503 30.282772 
L 257.187503 25.492277 
L 268.122811 25.492277 
L 268.122811 20.701782 
L 268.298549 20.701782 
L 268.298549 15.911287 
L 277.127049 15.911287 
L 277.127049 11.120792 
L 292.742973 11.120792 
L 292.742973 6.330297 
L 292.742973 6.330297 
L 292.742973 6.330297 
L 460.8 6.330297 
" clip-path="url(#pb6eeeac7fd)" style="fill: none; stroke: #00bfbf; stroke-width: 1.5; stroke-linecap: square"/>
   </g>
   <g id="patch_3">
    <path d="M 0 293.76 
L 0 3.456 
" style="fill: none; stroke: #000000; stroke-width: 0.8; stroke-linejoin: miter; stroke-linecap: square"/>
   </g>
   <g id="patch_4">
    <path d="M 460.8 293.76 
L 460.8 3.456 
" style="fill: none; stroke: #000000; stroke-width: 0.8; stroke-linejoin: miter; stroke-linecap: square"/>
   </g>
   <g id="patch_5">
    <path d="M 0 293.76 
L 460.8 293.76 
" style="fill: none; stroke: #000000; stroke-width: 0.8; stroke-linejoin: miter; stroke-linecap: square"/>
   </g>
   <g id="patch_6">
    <path d="M 0 3.456 
L 460.8 3.456 
" style="fill: none; stroke: #000000; stroke-width: 0.8; stroke-linejoin: miter; stroke-linecap: square"/>
   </g>
   <g id="text_6">
    <!-- {f6-f9}, 10-D -->
    <g transform="translate(318.609 287.95392) scale(0.2 -0.2)">
     <defs>
      <path id="DejaVuSans-7b" d="M 3272 -594 
L 3272 -1044 
L 3078 -1044 
Q 2300 -1044 2036 -812 
Q 1772 -581 1772 109 
L 1772 856 
Q 1772 1328 1603 1509 
Q 1434 1691 991 1691 
L 800 1691 
L 800 2138 
L 991 2138 
Q 1438 2138 1605 2317 
Q 1772 2497 1772 2963 
L 1772 3713 
Q 1772 4403 2036 4633 
Q 2300 4863 3078 4863 
L 3272 4863 
L 3272 4416 
L 3059 4416 
Q 2619 4416 2484 4278 
Q 2350 4141 2350 3700 
L 2350 2925 
Q 2350 2434 2208 2212 
Q 2066 1991 1722 1913 
Q 2069 1828 2209 1606 
Q 2350 1384 2350 897 
L 2350 122 
Q 2350 -319 2484 -456 
Q 2619 -594 3059 -594 
L 3272 -594 
z
" transform="scale(0.015625)"/>
      <path id="DejaVuSans-36" d="M 2113 2584 
Q 1688 2584 1439 2293 
Q 1191 2003 1191 1497 
Q 1191 994 1439 701 
Q 1688 409 2113 409 
Q 2538 409 2786 701 
Q 3034 994 3034 1497 
Q 3034 2003 2786 2293 
Q 2538 2584 2113 2584 
z
M 3366 4563 
L 3366 3988 
Q 3128 4100 2886 4159 
Q 2644 4219 2406 4219 
Q 1781 4219 1451 3797 
Q 1122 3375 1075 2522 
Q 1259 2794 1537 2939 
Q 1816 3084 2150 3084 
Q 2853 3084 3261 2657 
Q 3669 2231 3669 1497 
Q 3669 778 3244 343 
Q 2819 -91 2113 -91 
Q 1303 -91 875 529 
Q 447 1150 447 2328 
Q 447 3434 972 4092 
Q 1497 4750 2381 4750 
Q 2619 4750 2861 4703 
Q 3103 4656 3366 4563 
z
" transform="scale(0.015625)"/>
      <path id="DejaVuSans-39" d="M 703 97 
L 703 672 
Q 941 559 1184 500 
Q 1428 441 1663 441 
Q 2288 441 2617 861 
Q 2947 1281 2994 2138 
Q 2813 1869 2534 1725 
Q 2256 1581 1919 1581 
Q 1219 1581 811 2004 
Q 403 2428 403 3163 
Q 403 3881 828 4315 
Q 1253 4750 1959 4750 
Q 2769 4750 3195 4129 
Q 3622 3509 3622 2328 
Q 3622 1225 3098 567 
Q 2575 -91 1691 -91 
Q 1453 -91 1209 -44 
Q 966 3 703 97 
z
M 1959 2075 
Q 2384 2075 2632 2365 
Q 2881 2656 2881 3163 
Q 2881 3666 2632 3958 
Q 2384 4250 1959 4250 
Q 1534 4250 1286 3958 
Q 1038 3666 1038 3163 
Q 1038 2656 1286 2365 
Q 1534 2075 1959 2075 
z
" transform="scale(0.015625)"/>
      <path id="DejaVuSans-7d" d="M 800 -594 
L 1019 -594 
Q 1456 -594 1589 -459 
Q 1722 -325 1722 122 
L 1722 897 
Q 1722 1384 1862 1606 
Q 2003 1828 2350 1913 
Q 2003 1991 1862 2212 
Q 1722 2434 1722 2925 
L 1722 3700 
Q 1722 4144 1589 4280 
Q 1456 4416 1019 4416 
L 800 4416 
L 800 4863 
L 997 4863 
Q 1775 4863 2036 4633 
Q 2297 4403 2297 3713 
L 2297 2963 
Q 2297 2497 2465 2317 
Q 2634 2138 3078 2138 
L 3272 2138 
L 3272 1691 
L 3078 1691 
Q 2634 1691 2465 1509 
Q 2297 1328 2297 856 
L 2297 109 
Q 2297 -581 2036 -812 
Q 1775 -1044 997 -1044 
L 800 -1044 
L 800 -594 
z
" transform="scale(0.015625)"/>
      <path id="DejaVuSans-2c" d="M 750 794 
L 1409 794 
L 1409 256 
L 897 -744 
L 494 -744 
L 750 256 
L 750 794 
z
" transform="scale(0.015625)"/>
     </defs>
     <use xlink:href="#DejaVuSans-7b"/>
     <use xlink:href="#DejaVuSans-66" x="63.623047"/>
     <use xlink:href="#DejaVuSans-36" x="98.828125"/>
     <use xlink:href="#DejaVuSans-2d" x="162.451172"/>
     <use xlink:href="#DejaVuSans-66" x="198.535156"/>
     <use xlink:href="#DejaVuSans-39" x="233.740234"/>
     <use xlink:href="#DejaVuSans-7d" x="297.363281"/>
     <use xlink:href="#DejaVuSans-2c" x="360.986328"/>
     <use xlink:href="#DejaVuSans-20" x="392.773438"/>
     <use xlink:href="#DejaVuSans-31" x="424.560547"/>
     <use xlink:href="#DejaVuSans-30" x="488.183594"/>
     <use xlink:href="#DejaVuSans-2d" x="551.806641"/>
     <use xlink:href="#DejaVuSans-44" x="587.890625"/>
    </g>
   </g>
   <g id="text_7">
    <!-- v2.6.4 -->
    <g style="fill: #808080" transform="translate(214.71875 288.777272) scale(0.1 -0.1)">
     <defs>
      <path id="DejaVuSans-76" d="M 191 3500 
L 800 3500 
L 1894 563 
L 2988 3500 
L 3597 3500 
L 2284 0 
L 1503 0 
L 191 3500 
z
" transform="scale(0.015625)"/>
      <path id="DejaVuSans-2e" d="M 684 794 
L 1344 794 
L 1344 0 
L 684 0 
L 684 794 
z
" transform="scale(0.015625)"/>
     </defs>
     <use xlink:href="#DejaVuSans-76"/>
     <use xlink:href="#DejaVuSans-32" x="59.179688"/>
     <use xlink:href="#DejaVuSans-2e" x="122.802734"/>
     <use xlink:href="#DejaVuSans-36" x="154.589844"/>
     <use xlink:href="#DejaVuSans-2e" x="218.212891"/>
     <use xlink:href="#DejaVuSans-34" x="250"/>
    </g>
   </g>
  </g>
 </g>
 <defs>
  <clipPath id="pb6eeeac7fd">
   <rect x="0" y="3.456" width="460.8" height="290.304"/>
  </clipPath>
 </defs>
</svg>
