<?xml version="1.0" encoding="utf-8" standalone="no"?>
<!DOCTYPE svg PUBLIC "-//W3C//DTD SVG 1.1//EN"
  "http://www.w3.org/Graphics/SVG/1.1/DTD/svg11.dtd">
<svg xmlns:xlink="http://www.w3.org/1999/xlink" width="460.8pt" height="345.6pt" viewBox="0 0 460.8 345.6" xmlns="http://www.w3.org/2000/svg" version="1.1">
 <metadata>
  <rdf:RDF xmlns:dc="http://purl.org/dc/elements/1.1/" xmlns:cc="http://creativecommons.org/ns#" xmlns:rdf="http://www.w3.org/1999/02/22-rdf-syntax-ns#">
   <cc:Work>
    <dc:type rdf:resource="http://purl.org/dc/dcmitype/StillImage"/>
    <dc:date>2024-10-07T17:44:39.512533</dc:date>
    <dc:format>image/svg+xml</dc:format>
    <dc:creator>
     <cc:Agent>
      <dc:title>Matplotlib v3.9.2, https://matplotlib.org/</dc:title>
     </cc:Agent>
    </dc:creator>
   </cc:Work>
  </rdf:RDF>
 </metadata>
 <defs>
  <style type="text/css">*{stroke-linejoin: round; stroke-linecap: butt}</style>
 </defs>
 <g id="figure_1">
  <g id="patch_1">
   <path d="M 0 345.6 
L 460.8 345.6 
L 460.8 0 
L 0 0 
z
" style="fill: #ffffff"/>
  </g>
  <g id="axes_1">
   <g id="patch_2">
    <path d="M 0 293.76 
L 460.8 293.76 
L 460.8 3.456 
L 0 3.456 
z
" style="fill: #ffffff"/>
   </g>
   <g id="matplotlib.axis_1">
    <g id="xtick_1">
     <g id="line2d_1">
      <path d="M 106.282232 293.76 
L 106.282232 3.456 
" clip-path="url(#p581b0c067c)" style="fill: none; stroke: #b0b0b0; stroke-width: 0.8; stroke-linecap: square"/>
     </g>
     <g id="line2d_2">
      <defs>
       <path id="m02fe3e4df7" d="M 0 0 
L 0 3.5 
" style="stroke: #000000; stroke-width: 0.8"/>
      </defs>
      <g>
       <use xlink:href="#m02fe3e4df7" x="106.282232" y="293.76" style="stroke: #000000; stroke-width: 0.8"/>
      </g>
     </g>
     <g id="text_1">
      <!-- -5 -->
      <g transform="translate(96.311919 315.956875) scale(0.2 -0.2)">
       <defs>
        <path id="DejaVuSans-2d" d="M 313 2009 
L 1997 2009 
L 1997 1497 
L 313 1497 
L 313 2009 
z
" transform="scale(0.015625)"/>
        <path id="DejaVuSans-35" d="M 691 4666 
L 3169 4666 
L 3169 4134 
L 1269 4134 
L 1269 2991 
Q 1406 3038 1543 3061 
Q 1681 3084 1819 3084 
Q 2600 3084 3056 2656 
Q 3513 2228 3513 1497 
Q 3513 744 3044 326 
Q 2575 -91 1722 -91 
Q 1428 -91 1123 -41 
Q 819 9 494 109 
L 494 744 
Q 775 591 1075 516 
Q 1375 441 1709 441 
Q 2250 441 2565 725 
Q 2881 1009 2881 1497 
Q 2881 1984 2565 2268 
Q 2250 2553 1709 2553 
Q 1456 2553 1204 2497 
Q 953 2441 691 2322 
L 691 4666 
z
" transform="scale(0.015625)"/>
       </defs>
       <use xlink:href="#DejaVuSans-2d"/>
       <use xlink:href="#DejaVuSans-35" x="36.083984"/>
      </g>
     </g>
    </g>
    <g id="xtick_2">
     <g id="line2d_3">
      <path d="M 212.71778 293.76 
L 212.71778 3.456 
" clip-path="url(#p581b0c067c)" style="fill: none; stroke: #b0b0b0; stroke-width: 0.8; stroke-linecap: square"/>
     </g>
     <g id="line2d_4">
      <g>
       <use xlink:href="#m02fe3e4df7" x="212.71778" y="293.76" style="stroke: #000000; stroke-width: 0.8"/>
      </g>
     </g>
     <g id="text_2">
      <!-- -2 -->
      <g transform="translate(202.747467 315.956875) scale(0.2 -0.2)">
       <defs>
        <path id="DejaVuSans-32" d="M 1228 531 
L 3431 531 
L 3431 0 
L 469 0 
L 469 531 
Q 828 903 1448 1529 
Q 2069 2156 2228 2338 
Q 2531 2678 2651 2914 
Q 2772 3150 2772 3378 
Q 2772 3750 2511 3984 
Q 2250 4219 1831 4219 
Q 1534 4219 1204 4116 
Q 875 4013 500 3803 
L 500 4441 
Q 881 4594 1212 4672 
Q 1544 4750 1819 4750 
Q 2544 4750 2975 4387 
Q 3406 4025 3406 3419 
Q 3406 3131 3298 2873 
Q 3191 2616 2906 2266 
Q 2828 2175 2409 1742 
Q 1991 1309 1228 531 
z
" transform="scale(0.015625)"/>
       </defs>
       <use xlink:href="#DejaVuSans-2d"/>
       <use xlink:href="#DejaVuSans-32" x="36.083984"/>
      </g>
     </g>
    </g>
    <g id="xtick_3">
     <g id="line2d_5">
      <path d="M 319.153327 293.76 
L 319.153327 3.456 
" clip-path="url(#p581b0c067c)" style="fill: none; stroke: #b0b0b0; stroke-width: 0.8; stroke-linecap: square"/>
     </g>
     <g id="line2d_6">
      <g>
       <use xlink:href="#m02fe3e4df7" x="319.153327" y="293.76" style="stroke: #000000; stroke-width: 0.8"/>
      </g>
     </g>
     <g id="text_3">
      <!-- 1 -->
      <g transform="translate(312.790827 315.956875) scale(0.2 -0.2)">
       <defs>
        <path id="DejaVuSans-31" d="M 794 531 
L 1825 531 
L 1825 4091 
L 703 3866 
L 703 4441 
L 1819 4666 
L 2450 4666 
L 2450 531 
L 3481 531 
L 3481 0 
L 794 0 
L 794 531 
z
" transform="scale(0.015625)"/>
       </defs>
       <use xlink:href="#DejaVuSans-31"/>
      </g>
     </g>
    </g>
    <g id="xtick_4">
     <g id="line2d_7">
      <path d="M 425.588875 293.76 
L 425.588875 3.456 
" clip-path="url(#p581b0c067c)" style="fill: none; stroke: #b0b0b0; stroke-width: 0.8; stroke-linecap: square"/>
     </g>
     <g id="line2d_8">
      <g>
       <use xlink:href="#m02fe3e4df7" x="425.588875" y="293.76" style="stroke: #000000; stroke-width: 0.8"/>
      </g>
     </g>
     <g id="text_4">
      <!-- 4 -->
      <g transform="translate(419.226375 315.956875) scale(0.2 -0.2)">
       <defs>
        <path id="DejaVuSans-34" d="M 2419 4116 
L 825 1625 
L 2419 1625 
L 2419 4116 
z
M 2253 4666 
L 3047 4666 
L 3047 1625 
L 3713 1625 
L 3713 1100 
L 3047 1100 
L 3047 0 
L 2419 0 
L 2419 1100 
L 313 1100 
L 313 1709 
L 2253 4666 
z
" transform="scale(0.015625)"/>
       </defs>
       <use xlink:href="#DejaVuSans-34"/>
      </g>
     </g>
    </g>
    <g id="text_5">
     <!-- log10 of Df -->
     <g transform="translate(175.214063 339.313125) scale(0.2 -0.2)">
      <defs>
       <path id="DejaVuSans-6c" d="M 603 4863 
L 1178 4863 
L 1178 0 
L 603 0 
L 603 4863 
z
" transform="scale(0.015625)"/>
       <path id="DejaVuSans-6f" d="M 1959 3097 
Q 1497 3097 1228 2736 
Q 959 2375 959 1747 
Q 959 1119 1226 758 
Q 1494 397 1959 397 
Q 2419 397 2687 759 
Q 2956 1122 2956 1747 
Q 2956 2369 2687 2733 
Q 2419 3097 1959 3097 
z
M 1959 3584 
Q 2709 3584 3137 3096 
Q 3566 2609 3566 1747 
Q 3566 888 3137 398 
Q 2709 -91 1959 -91 
Q 1206 -91 779 398 
Q 353 888 353 1747 
Q 353 2609 779 3096 
Q 1206 3584 1959 3584 
z
" transform="scale(0.015625)"/>
       <path id="DejaVuSans-67" d="M 2906 1791 
Q 2906 2416 2648 2759 
Q 2391 3103 1925 3103 
Q 1463 3103 1205 2759 
Q 947 2416 947 1791 
Q 947 1169 1205 825 
Q 1463 481 1925 481 
Q 2391 481 2648 825 
Q 2906 1169 2906 1791 
z
M 3481 434 
Q 3481 -459 3084 -895 
Q 2688 -1331 1869 -1331 
Q 1566 -1331 1297 -1286 
Q 1028 -1241 775 -1147 
L 775 -588 
Q 1028 -725 1275 -790 
Q 1522 -856 1778 -856 
Q 2344 -856 2625 -561 
Q 2906 -266 2906 331 
L 2906 616 
Q 2728 306 2450 153 
Q 2172 0 1784 0 
Q 1141 0 747 490 
Q 353 981 353 1791 
Q 353 2603 747 3093 
Q 1141 3584 1784 3584 
Q 2172 3584 2450 3431 
Q 2728 3278 2906 2969 
L 2906 3500 
L 3481 3500 
L 3481 434 
z
" transform="scale(0.015625)"/>
       <path id="DejaVuSans-30" d="M 2034 4250 
Q 1547 4250 1301 3770 
Q 1056 3291 1056 2328 
Q 1056 1369 1301 889 
Q 1547 409 2034 409 
Q 2525 409 2770 889 
Q 3016 1369 3016 2328 
Q 3016 3291 2770 3770 
Q 2525 4250 2034 4250 
z
M 2034 4750 
Q 2819 4750 3233 4129 
Q 3647 3509 3647 2328 
Q 3647 1150 3233 529 
Q 2819 -91 2034 -91 
Q 1250 -91 836 529 
Q 422 1150 422 2328 
Q 422 3509 836 4129 
Q 1250 4750 2034 4750 
z
" transform="scale(0.015625)"/>
       <path id="DejaVuSans-20" transform="scale(0.015625)"/>
       <path id="DejaVuSans-66" d="M 2375 4863 
L 2375 4384 
L 1825 4384 
Q 1516 4384 1395 4259 
Q 1275 4134 1275 3809 
L 1275 3500 
L 2222 3500 
L 2222 3053 
L 1275 3053 
L 1275 0 
L 697 0 
L 697 3053 
L 147 3053 
L 147 3500 
L 697 3500 
L 697 3744 
Q 697 4328 969 4595 
Q 1241 4863 1831 4863 
L 2375 4863 
z
" transform="scale(0.015625)"/>
       <path id="DejaVuSans-44" d="M 1259 4147 
L 1259 519 
L 2022 519 
Q 2988 519 3436 956 
Q 3884 1394 3884 2338 
Q 3884 3275 3436 3711 
Q 2988 4147 2022 4147 
L 1259 4147 
z
M 628 4666 
L 1925 4666 
Q 3281 4666 3915 4102 
Q 4550 3538 4550 2338 
Q 4550 1131 3912 565 
Q 3275 0 1925 0 
L 628 0 
L 628 4666 
z
" transform="scale(0.015625)"/>
      </defs>
      <use xlink:href="#DejaVuSans-6c"/>
      <use xlink:href="#DejaVuSans-6f" x="27.783203"/>
      <use xlink:href="#DejaVuSans-67" x="88.964844"/>
      <use xlink:href="#DejaVuSans-31" x="152.441406"/>
      <use xlink:href="#DejaVuSans-30" x="216.064453"/>
      <use xlink:href="#DejaVuSans-20" x="279.6875"/>
      <use xlink:href="#DejaVuSans-6f" x="311.474609"/>
      <use xlink:href="#DejaVuSans-66" x="372.65625"/>
      <use xlink:href="#DejaVuSans-20" x="407.861328"/>
      <use xlink:href="#DejaVuSans-44" x="439.648438"/>
      <use xlink:href="#DejaVuSans-66" x="516.650391"/>
     </g>
    </g>
   </g>
   <g id="matplotlib.axis_2">
    <g id="ytick_1">
     <g id="line2d_9">
      <path d="M 0 293.76 
L 460.8 293.76 
" clip-path="url(#p581b0c067c)" style="fill: none; stroke: #b0b0b0; stroke-width: 0.8; stroke-linecap: square"/>
     </g>
     <g id="line2d_10">
      <defs>
       <path id="m129b633567" d="M 0 0 
L -3.5 0 
" style="stroke: #000000; stroke-width: 0.8"/>
      </defs>
      <g>
       <use xlink:href="#m129b633567" x="0" y="293.76" style="stroke: #000000; stroke-width: 0.8"/>
      </g>
     </g>
    </g>
    <g id="ytick_2">
     <g id="line2d_11">
      <path d="M 0 236.274059 
L 460.8 236.274059 
" clip-path="url(#p581b0c067c)" style="fill: none; stroke: #b0b0b0; stroke-width: 0.8; stroke-linecap: square"/>
     </g>
     <g id="line2d_12">
      <g>
       <use xlink:href="#m129b633567" x="0" y="236.274059" style="stroke: #000000; stroke-width: 0.8"/>
      </g>
     </g>
    </g>
    <g id="ytick_3">
     <g id="line2d_13">
      <path d="M 0 178.788119 
L 460.8 178.788119 
" clip-path="url(#p581b0c067c)" style="fill: none; stroke: #b0b0b0; stroke-width: 0.8; stroke-linecap: square"/>
     </g>
     <g id="line2d_14">
      <g>
       <use xlink:href="#m129b633567" x="0" y="178.788119" style="stroke: #000000; stroke-width: 0.8"/>
      </g>
     </g>
    </g>
    <g id="ytick_4">
     <g id="line2d_15">
      <path d="M 0 121.302178 
L 460.8 121.302178 
" clip-path="url(#p581b0c067c)" style="fill: none; stroke: #b0b0b0; stroke-width: 0.8; stroke-linecap: square"/>
     </g>
     <g id="line2d_16">
      <g>
       <use xlink:href="#m129b633567" x="0" y="121.302178" style="stroke: #000000; stroke-width: 0.8"/>
      </g>
     </g>
    </g>
    <g id="ytick_5">
     <g id="line2d_17">
      <path d="M 0 63.816238 
L 460.8 63.816238 
" clip-path="url(#p581b0c067c)" style="fill: none; stroke: #b0b0b0; stroke-width: 0.8; stroke-linecap: square"/>
     </g>
     <g id="line2d_18">
      <g>
       <use xlink:href="#m129b633567" x="0" y="63.816238" style="stroke: #000000; stroke-width: 0.8"/>
      </g>
     </g>
    </g>
    <g id="ytick_6">
     <g id="line2d_19">
      <path d="M 0 6.330297 
L 460.8 6.330297 
" clip-path="url(#p581b0c067c)" style="fill: none; stroke: #b0b0b0; stroke-width: 0.8; stroke-linecap: square"/>
     </g>
     <g id="line2d_20">
      <g>
       <use xlink:href="#m129b633567" x="0" y="6.330297" style="stroke: #000000; stroke-width: 0.8"/>
      </g>
     </g>
    </g>
   </g>
   <g id="line2d_21">
    <path d="M 321.185327 293.76 
L 321.185327 289.927604 
L 321.9053 289.927604 
L 321.9053 286.095208 
L 322.134749 286.095208 
L 322.134749 282.262812 
L 322.723736 282.262812 
L 322.723736 278.430416 
L 323.373955 278.430416 
L 323.373955 274.59802 
L 325.143486 274.59802 
L 325.143486 270.765624 
L 325.618721 270.765624 
L 325.618721 266.933228 
L 326.118659 266.933228 
L 326.168761 255.43604 
L 326.335798 255.43604 
L 326.335798 251.603644 
L 326.979351 251.603644 
L 327.039939 243.938851 
L 327.212948 243.938851 
L 327.212948 240.106455 
L 327.456665 240.106455 
L 327.456665 236.274059 
L 327.789326 236.274059 
L 327.789326 232.441663 
L 328.548709 232.441663 
L 328.618565 224.776871 
L 328.703937 224.776871 
L 328.738056 217.112079 
L 328.892555 217.112079 
L 328.892555 213.279683 
L 329.185823 213.279683 
L 329.185823 209.447287 
L 329.941672 209.447287 
L 329.941672 205.614891 
L 330.161276 205.614891 
L 330.263529 194.117703 
L 330.497873 194.117703 
L 330.497873 190.285307 
L 330.730398 190.285307 
L 330.804941 182.620515 
L 331.725596 182.620515 
L 331.725596 178.788119 
L 332.04066 178.788119 
L 332.09216 171.123327 
L 333.318221 171.123327 
L 333.318221 167.290931 
L 333.564831 167.290931 
L 333.564831 163.458535 
L 333.824043 163.458535 
L 333.886108 155.793743 
L 334.667075 155.793743 
L 334.667075 151.961347 
L 335.069549 151.961347 
L 335.069549 148.12895 
L 335.557009 148.12895 
L 335.637611 136.631762 
L 335.853831 136.631762 
L 335.853831 132.799366 
L 336.884457 132.799366 
L 336.884457 128.96697 
L 338.323998 128.96697 
L 338.323998 125.134574 
L 340.672439 125.134574 
L 340.672439 121.302178 
L 341.736884 121.302178 
L 341.736884 117.469782 
L 344.268683 117.469782 
L 344.268683 113.637386 
L 344.920199 113.637386 
L 344.920199 109.80499 
L 345.821542 109.80499 
L 345.821542 105.972594 
L 346.33362 105.972594 
L 346.33362 102.140198 
L 346.475452 102.140198 
L 346.475452 98.307802 
L 347.763973 98.307802 
L 347.763973 94.475406 
L 347.913846 94.475406 
L 348.011694 82.978218 
L 348.189104 82.978218 
L 348.234027 75.313426 
L 348.597424 75.313426 
L 348.597424 71.48103 
L 348.86032 71.48103 
L 348.88216 63.816238 
L 349.048656 63.816238 
L 349.089563 56.151446 
L 349.748357 56.151446 
L 349.831595 48.486653 
L 350.165303 48.486653 
L 350.226518 40.821861 
L 350.373569 40.821861 
L 350.373569 36.989465 
L 350.516362 36.989465 
L 350.516362 33.157069 
L 351.219468 33.157069 
L 351.219468 29.324673 
L 351.668127 29.324673 
L 351.726683 17.827485 
L 352.272303 17.827485 
L 352.272303 13.995089 
L 352.451941 13.995089 
L 352.55264 6.330297 
L 352.55264 6.330297 
L 460.8 6.330297 
L 460.8 6.330297 
" clip-path="url(#p581b0c067c)" style="fill: none; stroke: #ff0000; stroke-width: 3; stroke-linecap: square"/>
   </g>
   <g id="line2d_22">
    <path d="M 328.738056 293.76 
L 328.738056 289.927604 
L 330.719676 289.927604 
L 330.719676 286.095208 
L 330.972134 286.095208 
L 330.972134 282.262812 
L 331.725596 282.262812 
L 331.725596 278.430416 
L 332.586173 278.430416 
L 332.586173 274.59802 
L 333.318221 274.59802 
L 333.318221 270.765624 
L 333.886108 270.765624 
L 333.886108 266.933228 
L 334.367983 266.933228 
L 334.367983 263.100832 
L 334.600331 263.100832 
L 334.600331 259.268436 
L 335.3031 259.268436 
L 335.3031 255.43604 
L 335.486513 255.43604 
L 335.486513 251.603644 
L 335.797072 251.603644 
L 335.885832 243.938851 
L 335.978832 243.938851 
L 335.978832 240.106455 
L 336.644308 240.106455 
L 336.644308 236.274059 
L 336.834364 236.274059 
L 336.834364 232.441663 
L 337.646831 232.441663 
L 337.74054 220.944475 
L 337.901513 220.944475 
L 338.002939 213.279683 
L 338.126021 213.279683 
L 338.126021 209.447287 
L 339.102132 209.447287 
L 339.102132 205.614891 
L 339.256901 205.614891 
L 339.256901 201.782495 
L 340.704769 201.782495 
L 340.704769 197.950099 
L 342.291572 197.950099 
L 342.291572 194.117703 
L 342.468237 194.117703 
L 342.468237 190.285307 
L 343.44816 190.285307 
L 343.503907 182.620515 
L 343.711316 182.620515 
L 343.711316 178.788119 
L 343.853389 178.788119 
L 343.853389 174.955723 
L 344.324691 174.955723 
L 344.373583 167.290931 
L 345.920834 167.290931 
L 345.920834 163.458535 
L 346.35267 163.458535 
L 346.35267 159.626139 
L 346.5096 159.626139 
L 346.530816 151.961347 
L 346.65077 151.961347 
L 346.65077 148.12895 
L 347.200287 148.12895 
L 347.200287 144.296554 
L 348.476817 144.296554 
L 348.476817 140.464158 
L 349.302042 140.464158 
L 349.302042 136.631762 
L 349.692917 136.631762 
L 349.692917 132.799366 
L 349.985836 132.799366 
L 349.985836 128.96697 
L 351.539362 128.96697 
L 351.544173 121.302178 
L 353.10335 121.302178 
L 353.10335 117.469782 
L 353.3094 117.469782 
L 353.3094 113.637386 
L 353.447671 113.637386 
L 353.447671 109.80499 
L 356.755587 109.80499 
L 356.77866 102.140198 
L 357.024219 102.140198 
L 357.135241 94.475406 
L 357.922724 94.475406 
L 357.922724 90.64301 
L 358.389885 90.64301 
L 358.486392 79.145822 
L 358.695504 79.145822 
L 358.695504 75.313426 
L 359.204327 75.313426 
L 359.204327 71.48103 
L 359.418295 71.48103 
L 359.453813 63.816238 
L 360.340036 63.816238 
L 360.340036 59.983842 
L 360.693669 59.983842 
L 360.693669 56.151446 
L 361.451925 56.151446 
L 361.451925 52.31905 
L 361.95291 52.31905 
L 361.95291 48.486653 
L 362.582507 48.486653 
L 362.683703 40.821861 
L 362.863421 40.821861 
L 362.863421 36.989465 
L 364.978197 36.989465 
L 364.978197 33.157069 
L 365.72579 33.157069 
L 365.72579 29.324673 
L 366.056036 29.324673 
L 366.078435 21.659881 
L 367.097893 21.659881 
L 367.097893 17.827485 
L 367.304852 17.827485 
L 367.304852 13.995089 
L 372.014292 13.995089 
L 372.014292 10.162693 
L 375.019824 10.162693 
L 375.019824 6.330297 
L 375.019824 6.330297 
L 460.8 6.330297 
L 460.8 6.330297 
" clip-path="url(#p581b0c067c)" style="fill: none; stroke: #00bfbf; stroke-width: 1.5; stroke-linecap: square"/>
   </g>
   <g id="line2d_23">
    <path d="M 323.811916 293.76 
L 323.811916 289.927604 
L 328.738056 289.927604 
L 328.738056 286.095208 
L 329.675541 286.095208 
L 329.675541 282.262812 
L 329.987867 282.262812 
L 329.987867 278.430416 
L 330.719676 278.430416 
L 330.719676 274.59802 
L 331.270478 274.59802 
L 331.270478 270.765624 
L 331.725596 270.765624 
L 331.725596 266.933228 
L 333.049135 266.933228 
L 333.049135 263.100832 
L 333.318221 263.100832 
L 333.318221 259.268436 
L 333.449596 259.268436 
L 333.449596 255.43604 
L 333.886108 255.43604 
L 333.886108 251.603644 
L 334.600331 251.603644 
L 334.600331 247.771248 
L 335.225798 247.771248 
L 335.3031 240.106455 
L 335.486513 240.106455 
L 335.486513 236.274059 
L 335.60525 236.274059 
L 335.60525 232.441663 
L 335.797072 232.441663 
L 335.885832 224.776871 
L 335.978832 224.776871 
L 335.978832 220.944475 
L 336.258558 220.944475 
L 336.258558 217.112079 
L 336.645805 217.112079 
L 336.645805 213.279683 
L 336.834364 213.279683 
L 336.834364 209.447287 
L 337.692321 209.447287 
L 337.692321 205.614891 
L 337.901513 205.614891 
L 338.002939 197.950099 
L 338.126021 197.950099 
L 338.126021 194.117703 
L 338.239114 194.117703 
L 338.239114 190.285307 
L 338.790528 190.285307 
L 338.790528 186.452911 
L 339.142384 186.452911 
L 339.142384 182.620515 
L 339.940579 182.620515 
L 339.98635 174.955723 
L 340.196858 174.955723 
L 340.196858 171.123327 
L 340.376198 171.123327 
L 340.376198 167.290931 
L 340.704769 167.290931 
L 340.704769 163.458535 
L 341.852097 163.458535 
L 341.852097 159.626139 
L 341.990223 159.626139 
L 342.07626 151.961347 
L 343.711316 151.961347 
L 343.711316 148.12895 
L 343.853389 148.12895 
L 343.853389 144.296554 
L 345.920834 144.296554 
L 345.920834 140.464158 
L 346.35267 140.464158 
L 346.35267 136.631762 
L 346.65077 136.631762 
L 346.65077 132.799366 
L 347.200287 132.799366 
L 347.200287 128.96697 
L 347.522571 128.96697 
L 347.522571 125.134574 
L 350.561668 125.134574 
L 350.561668 121.302178 
L 351.539362 121.302178 
L 351.624592 109.80499 
L 353.3094 109.80499 
L 353.3094 105.972594 
L 353.447671 105.972594 
L 353.447671 102.140198 
L 353.596341 102.140198 
L 353.596341 98.307802 
L 353.922753 98.307802 
L 353.922753 94.475406 
L 354.862842 94.475406 
L 354.862842 90.64301 
L 355.138756 90.64301 
L 355.138756 86.810614 
L 355.716049 86.810614 
L 355.792262 79.145822 
L 355.876578 79.145822 
L 355.876578 75.313426 
L 356.755587 75.313426 
L 356.77866 67.648634 
L 357.024219 67.648634 
L 357.024219 63.816238 
L 357.264191 63.816238 
L 357.264191 59.983842 
L 357.392497 59.983842 
L 357.41182 52.31905 
L 357.857836 52.31905 
L 357.922724 44.654257 
L 358.486392 44.654257 
L 358.486392 40.821861 
L 358.905962 40.821861 
L 358.905962 36.989465 
L 359.453813 36.989465 
L 359.453813 33.157069 
L 360.419504 33.157069 
L 360.419504 29.324673 
L 360.693669 29.324673 
L 360.693669 25.492277 
L 361.441354 25.492277 
L 361.451925 17.827485 
L 363.92484 17.827485 
L 363.92484 13.995089 
L 364.552409 13.995089 
L 364.552409 10.162693 
L 375.019824 10.162693 
L 375.019824 6.330297 
L 375.019824 6.330297 
L 460.8 6.330297 
L 460.8 6.330297 
" clip-path="url(#p581b0c067c)" style="fill: none; stroke: #bf00bf; stroke-width: 1.5; stroke-linecap: square"/>
   </g>
   <g id="line2d_24">
    <path d="M 323.811916 293.76 
L 323.811916 289.927604 
L 327.039939 289.927604 
L 327.039939 286.095208 
L 327.983155 286.095208 
L 327.983155 282.262812 
L 328.516108 282.262812 
L 328.516108 278.430416 
L 328.703937 278.430416 
L 328.738056 266.933228 
L 329.185823 266.933228 
L 329.185823 263.100832 
L 329.702142 263.100832 
L 329.702142 259.268436 
L 330.183556 259.268436 
L 330.183556 255.43604 
L 330.307115 255.43604 
L 330.307115 251.603644 
L 330.730398 251.603644 
L 330.730398 247.771248 
L 331.270478 247.771248 
L 331.270478 243.938851 
L 331.725596 243.938851 
L 331.725596 240.106455 
L 331.923795 240.106455 
L 331.923795 236.274059 
L 333.046552 236.274059 
L 333.046552 232.441663 
L 333.318221 232.441663 
L 333.318221 228.609267 
L 333.564831 228.609267 
L 333.584191 220.944475 
L 333.886108 220.944475 
L 333.886108 217.112079 
L 334.476371 217.112079 
L 334.535665 209.447287 
L 334.600331 209.447287 
L 334.639472 201.782495 
L 335.3031 201.782495 
L 335.3031 197.950099 
L 335.60525 197.950099 
L 335.60525 194.117703 
L 336.047975 194.117703 
L 336.047975 190.285307 
L 336.258558 190.285307 
L 336.258558 186.452911 
L 336.834364 186.452911 
L 336.834364 182.620515 
L 337.179355 182.620515 
L 337.179355 178.788119 
L 338.002939 178.788119 
L 338.069143 171.123327 
L 338.790528 171.123327 
L 338.790528 167.290931 
L 338.991967 167.290931 
L 338.991967 163.458535 
L 339.940579 163.458535 
L 339.98635 155.793743 
L 340.376198 155.793743 
L 340.376198 151.961347 
L 340.672439 151.961347 
L 340.672439 148.12895 
L 341.344678 148.12895 
L 341.344678 144.296554 
L 341.610019 144.296554 
L 341.610019 140.464158 
L 341.852097 140.464158 
L 341.927955 132.799366 
L 342.064148 132.799366 
L 342.064148 128.96697 
L 342.904045 128.96697 
L 342.904045 125.134574 
L 344.021036 125.134574 
L 344.021036 121.302178 
L 347.522571 121.302178 
L 347.522571 117.469782 
L 350.165303 117.469782 
L 350.226518 109.80499 
L 351.484528 109.80499 
L 351.539362 102.140198 
L 351.624592 102.140198 
L 351.726683 86.810614 
L 352.07641 86.810614 
L 352.07641 82.978218 
L 353.023025 82.978218 
L 353.023025 79.145822 
L 353.3094 79.145822 
L 353.3094 75.313426 
L 353.596341 75.313426 
L 353.656205 63.816238 
L 353.914848 63.816238 
L 353.922753 56.151446 
L 354.352751 56.151446 
L 354.352751 52.31905 
L 354.661287 52.31905 
L 354.725344 44.654257 
L 354.782279 44.654257 
L 354.862842 36.989465 
L 355.497089 36.989465 
L 355.497089 33.157069 
L 355.733532 33.157069 
L 355.78444 21.659881 
L 356.755587 21.659881 
L 356.755587 17.827485 
L 357.116289 17.827485 
L 357.116289 13.995089 
L 361.212886 13.995089 
L 361.212886 10.162693 
L 365.255929 10.162693 
L 365.255929 6.330297 
L 365.255929 6.330297 
L 460.8 6.330297 
L 460.8 6.330297 
" clip-path="url(#p581b0c067c)" style="fill: none; stroke: #000000; stroke-width: 1.5; stroke-linecap: square"/>
   </g>
   <g id="line2d_25">
    <path d="M 321.9053 293.76 
L 321.9053 289.927604 
L 323.811916 289.927604 
L 323.811916 286.095208 
L 324.196938 286.095208 
L 324.196938 282.262812 
L 325.143486 282.262812 
L 325.143486 278.430416 
L 326.168761 278.430416 
L 326.168761 274.59802 
L 326.335798 274.59802 
L 326.335798 270.765624 
L 326.979351 270.765624 
L 327.039939 263.100832 
L 327.983155 263.100832 
L 327.983155 259.268436 
L 328.108252 259.268436 
L 328.108252 255.43604 
L 328.516108 255.43604 
L 328.618565 247.771248 
L 328.703937 247.771248 
L 328.738056 236.274059 
L 328.892555 236.274059 
L 328.892555 232.441663 
L 329.185823 232.441663 
L 329.185823 228.609267 
L 330.168993 228.609267 
L 330.201841 220.944475 
L 330.307115 220.944475 
L 330.307115 217.112079 
L 330.497873 217.112079 
L 330.497873 213.279683 
L 330.730398 213.279683 
L 330.730398 209.447287 
L 331.725596 209.447287 
L 331.725596 205.614891 
L 331.923795 205.614891 
L 331.923795 201.782495 
L 332.09216 201.782495 
L 332.09216 197.950099 
L 333.318221 197.950099 
L 333.318221 194.117703 
L 333.438473 194.117703 
L 333.438473 190.285307 
L 333.564831 190.285307 
L 333.564831 186.452911 
L 333.824043 186.452911 
L 333.921263 174.955723 
L 334.721088 174.955723 
L 334.738729 167.290931 
L 335.069549 167.290931 
L 335.139452 159.626139 
L 335.267134 159.626139 
L 335.267134 155.793743 
L 335.60525 155.793743 
L 335.60525 151.961347 
L 335.88056 151.961347 
L 335.952957 144.296554 
L 336.838397 144.296554 
L 336.884457 136.631762 
L 337.665092 136.631762 
L 337.665092 132.799366 
L 338.258255 132.799366 
L 338.323998 125.134574 
L 340.672439 125.134574 
L 340.672439 121.302178 
L 341.736884 121.302178 
L 341.736884 117.469782 
L 344.268683 117.469782 
L 344.268683 113.637386 
L 347.522571 113.637386 
L 347.522571 109.80499 
L 347.913846 109.80499 
L 347.976092 102.140198 
L 348.273487 102.140198 
L 348.273487 98.307802 
L 348.88216 98.307802 
L 348.88216 94.475406 
L 349.048656 94.475406 
L 349.157045 86.810614 
L 349.175862 86.810614 
L 349.2565 79.145822 
L 350.165303 79.145822 
L 350.226518 71.48103 
L 350.5849 71.48103 
L 350.5849 67.648634 
L 351.293028 67.648634 
L 351.382819 56.151446 
L 351.484528 56.151446 
L 351.577218 44.654257 
L 351.668127 44.654257 
L 351.726683 33.157069 
L 352.272303 33.157069 
L 352.272303 29.324673 
L 352.55264 29.324673 
L 352.610562 21.659881 
L 352.831496 21.659881 
L 352.831496 17.827485 
L 353.187665 17.827485 
L 353.187665 13.995089 
L 354.298902 13.995089 
L 354.298902 10.162693 
L 354.993672 10.162693 
L 354.993672 6.330297 
L 354.993672 6.330297 
L 460.8 6.330297 
L 460.8 6.330297 
" clip-path="url(#p581b0c067c)" style="fill: none; stroke: #00bfbf; stroke-width: 1.5; stroke-linecap: square"/>
   </g>
   <g id="patch_3">
    <path d="M 0 293.76 
L 0 3.456 
" style="fill: none; stroke: #000000; stroke-width: 0.8; stroke-linejoin: miter; stroke-linecap: square"/>
   </g>
   <g id="patch_4">
    <path d="M 460.8 293.76 
L 460.8 3.456 
" style="fill: none; stroke: #000000; stroke-width: 0.8; stroke-linejoin: miter; stroke-linecap: square"/>
   </g>
   <g id="patch_5">
    <path d="M 0 293.76 
L 460.8 293.76 
" style="fill: none; stroke: #000000; stroke-width: 0.8; stroke-linejoin: miter; stroke-linecap: square"/>
   </g>
   <g id="patch_6">
    <path d="M 0 3.456 
L 460.8 3.456 
" style="fill: none; stroke: #000000; stroke-width: 0.8; stroke-linejoin: miter; stroke-linecap: square"/>
   </g>
   <g id="text_6">
    <!-- {f15-f19}, 10-D -->
    <g transform="translate(293.159 287.95392) scale(0.2 -0.2)">
     <defs>
      <path id="DejaVuSans-7b" d="M 3272 -594 
L 3272 -1044 
L 3078 -1044 
Q 2300 -1044 2036 -812 
Q 1772 -581 1772 109 
L 1772 856 
Q 1772 1328 1603 1509 
Q 1434 1691 991 1691 
L 800 1691 
L 800 2138 
L 991 2138 
Q 1438 2138 1605 2317 
Q 1772 2497 1772 2963 
L 1772 3713 
Q 1772 4403 2036 4633 
Q 2300 4863 3078 4863 
L 3272 4863 
L 3272 4416 
L 3059 4416 
Q 2619 4416 2484 4278 
Q 2350 4141 2350 3700 
L 2350 2925 
Q 2350 2434 2208 2212 
Q 2066 1991 1722 1913 
Q 2069 1828 2209 1606 
Q 2350 1384 2350 897 
L 2350 122 
Q 2350 -319 2484 -456 
Q 2619 -594 3059 -594 
L 3272 -594 
z
" transform="scale(0.015625)"/>
      <path id="DejaVuSans-39" d="M 703 97 
L 703 672 
Q 941 559 1184 500 
Q 1428 441 1663 441 
Q 2288 441 2617 861 
Q 2947 1281 2994 2138 
Q 2813 1869 2534 1725 
Q 2256 1581 1919 1581 
Q 1219 1581 811 2004 
Q 403 2428 403 3163 
Q 403 3881 828 4315 
Q 1253 4750 1959 4750 
Q 2769 4750 3195 4129 
Q 3622 3509 3622 2328 
Q 3622 1225 3098 567 
Q 2575 -91 1691 -91 
Q 1453 -91 1209 -44 
Q 966 3 703 97 
z
M 1959 2075 
Q 2384 2075 2632 2365 
Q 2881 2656 2881 3163 
Q 2881 3666 2632 3958 
Q 2384 4250 1959 4250 
Q 1534 4250 1286 3958 
Q 1038 3666 1038 3163 
Q 1038 2656 1286 2365 
Q 1534 2075 1959 2075 
z
" transform="scale(0.015625)"/>
      <path id="DejaVuSans-7d" d="M 800 -594 
L 1019 -594 
Q 1456 -594 1589 -459 
Q 1722 -325 1722 122 
L 1722 897 
Q 1722 1384 1862 1606 
Q 2003 1828 2350 1913 
Q 2003 1991 1862 2212 
Q 1722 2434 1722 2925 
L 1722 3700 
Q 1722 4144 1589 4280 
Q 1456 4416 1019 4416 
L 800 4416 
L 800 4863 
L 997 4863 
Q 1775 4863 2036 4633 
Q 2297 4403 2297 3713 
L 2297 2963 
Q 2297 2497 2465 2317 
Q 2634 2138 3078 2138 
L 3272 2138 
L 3272 1691 
L 3078 1691 
Q 2634 1691 2465 1509 
Q 2297 1328 2297 856 
L 2297 109 
Q 2297 -581 2036 -812 
Q 1775 -1044 997 -1044 
L 800 -1044 
L 800 -594 
z
" transform="scale(0.015625)"/>
      <path id="DejaVuSans-2c" d="M 750 794 
L 1409 794 
L 1409 256 
L 897 -744 
L 494 -744 
L 750 256 
L 750 794 
z
" transform="scale(0.015625)"/>
     </defs>
     <use xlink:href="#DejaVuSans-7b"/>
     <use xlink:href="#DejaVuSans-66" x="63.623047"/>
     <use xlink:href="#DejaVuSans-31" x="98.828125"/>
     <use xlink:href="#DejaVuSans-35" x="162.451172"/>
     <use xlink:href="#DejaVuSans-2d" x="226.074219"/>
     <use xlink:href="#DejaVuSans-66" x="262.158203"/>
     <use xlink:href="#DejaVuSans-31" x="297.363281"/>
     <use xlink:href="#DejaVuSans-39" x="360.986328"/>
     <use xlink:href="#DejaVuSans-7d" x="424.609375"/>
     <use xlink:href="#DejaVuSans-2c" x="488.232422"/>
     <use xlink:href="#DejaVuSans-20" x="520.019531"/>
     <use xlink:href="#DejaVuSans-31" x="551.806641"/>
     <use xlink:href="#DejaVuSans-30" x="615.429688"/>
     <use xlink:href="#DejaVuSans-2d" x="679.052734"/>
     <use xlink:href="#DejaVuSans-44" x="715.136719"/>
    </g>
   </g>
   <g id="text_7">
    <!-- v2.6.4 -->
    <g style="fill: #808080" transform="translate(214.71875 288.777272) scale(0.1 -0.1)">
     <defs>
      <path id="DejaVuSans-76" d="M 191 3500 
L 800 3500 
L 1894 563 
L 2988 3500 
L 3597 3500 
L 2284 0 
L 1503 0 
L 191 3500 
z
" transform="scale(0.015625)"/>
      <path id="DejaVuSans-2e" d="M 684 794 
L 1344 794 
L 1344 0 
L 684 0 
L 684 794 
z
" transform="scale(0.015625)"/>
      <path id="DejaVuSans-36" d="M 2113 2584 
Q 1688 2584 1439 2293 
Q 1191 2003 1191 1497 
Q 1191 994 1439 701 
Q 1688 409 2113 409 
Q 2538 409 2786 701 
Q 3034 994 3034 1497 
Q 3034 2003 2786 2293 
Q 2538 2584 2113 2584 
z
M 3366 4563 
L 3366 3988 
Q 3128 4100 2886 4159 
Q 2644 4219 2406 4219 
Q 1781 4219 1451 3797 
Q 1122 3375 1075 2522 
Q 1259 2794 1537 2939 
Q 1816 3084 2150 3084 
Q 2853 3084 3261 2657 
Q 3669 2231 3669 1497 
Q 3669 778 3244 343 
Q 2819 -91 2113 -91 
Q 1303 -91 875 529 
Q 447 1150 447 2328 
Q 447 3434 972 4092 
Q 1497 4750 2381 4750 
Q 2619 4750 2861 4703 
Q 3103 4656 3366 4563 
z
" transform="scale(0.015625)"/>
     </defs>
     <use xlink:href="#DejaVuSans-76"/>
     <use xlink:href="#DejaVuSans-32" x="59.179688"/>
     <use xlink:href="#DejaVuSans-2e" x="122.802734"/>
     <use xlink:href="#DejaVuSans-36" x="154.589844"/>
     <use xlink:href="#DejaVuSans-2e" x="218.212891"/>
     <use xlink:href="#DejaVuSans-34" x="250"/>
    </g>
   </g>
  </g>
 </g>
 <defs>
  <clipPath id="p581b0c067c">
   <rect x="0" y="3.456" width="460.8" height="290.304"/>
  </clipPath>
 </defs>
</svg>
