<?xml version="1.0" encoding="utf-8" standalone="no"?>
<!DOCTYPE svg PUBLIC "-//W3C//DTD SVG 1.1//EN"
  "http://www.w3.org/Graphics/SVG/1.1/DTD/svg11.dtd">
<svg xmlns:xlink="http://www.w3.org/1999/xlink" width="460.8pt" height="345.6pt" viewBox="0 0 460.8 345.6" xmlns="http://www.w3.org/2000/svg" version="1.1">
 <metadata>
  <rdf:RDF xmlns:dc="http://purl.org/dc/elements/1.1/" xmlns:cc="http://creativecommons.org/ns#" xmlns:rdf="http://www.w3.org/1999/02/22-rdf-syntax-ns#">
   <cc:Work>
    <dc:type rdf:resource="http://purl.org/dc/dcmitype/StillImage"/>
    <dc:date>2024-10-07T17:44:39.273121</dc:date>
    <dc:format>image/svg+xml</dc:format>
    <dc:creator>
     <cc:Agent>
      <dc:title>Matplotlib v3.9.2, https://matplotlib.org/</dc:title>
     </cc:Agent>
    </dc:creator>
   </cc:Work>
  </rdf:RDF>
 </metadata>
 <defs>
  <style type="text/css">*{stroke-linejoin: round; stroke-linecap: butt}</style>
 </defs>
 <g id="figure_1">
  <g id="patch_1">
   <path d="M 0 345.6 
L 460.8 345.6 
L 460.8 0 
L 0 0 
z
" style="fill: #ffffff"/>
  </g>
  <g id="axes_1">
   <g id="patch_2">
    <path d="M 0 293.76 
L 460.8 293.76 
L 460.8 3.456 
L 0 3.456 
z
" style="fill: #ffffff"/>
   </g>
   <g id="matplotlib.axis_1">
    <g id="xtick_1">
     <g id="line2d_1">
      <path d="M 106.282232 293.76 
L 106.282232 3.456 
" clip-path="url(#pf08b19e2f3)" style="fill: none; stroke: #b0b0b0; stroke-width: 0.8; stroke-linecap: square"/>
     </g>
     <g id="line2d_2">
      <defs>
       <path id="m2e8ce692f3" d="M 0 0 
L 0 3.5 
" style="stroke: #000000; stroke-width: 0.8"/>
      </defs>
      <g>
       <use xlink:href="#m2e8ce692f3" x="106.282232" y="293.76" style="stroke: #000000; stroke-width: 0.8"/>
      </g>
     </g>
     <g id="text_1">
      <!-- -5 -->
      <g transform="translate(96.311919 315.956875) scale(0.2 -0.2)">
       <defs>
        <path id="DejaVuSans-2d" d="M 313 2009 
L 1997 2009 
L 1997 1497 
L 313 1497 
L 313 2009 
z
" transform="scale(0.015625)"/>
        <path id="DejaVuSans-35" d="M 691 4666 
L 3169 4666 
L 3169 4134 
L 1269 4134 
L 1269 2991 
Q 1406 3038 1543 3061 
Q 1681 3084 1819 3084 
Q 2600 3084 3056 2656 
Q 3513 2228 3513 1497 
Q 3513 744 3044 326 
Q 2575 -91 1722 -91 
Q 1428 -91 1123 -41 
Q 819 9 494 109 
L 494 744 
Q 775 591 1075 516 
Q 1375 441 1709 441 
Q 2250 441 2565 725 
Q 2881 1009 2881 1497 
Q 2881 1984 2565 2268 
Q 2250 2553 1709 2553 
Q 1456 2553 1204 2497 
Q 953 2441 691 2322 
L 691 4666 
z
" transform="scale(0.015625)"/>
       </defs>
       <use xlink:href="#DejaVuSans-2d"/>
       <use xlink:href="#DejaVuSans-35" x="36.083984"/>
      </g>
     </g>
    </g>
    <g id="xtick_2">
     <g id="line2d_3">
      <path d="M 212.71778 293.76 
L 212.71778 3.456 
" clip-path="url(#pf08b19e2f3)" style="fill: none; stroke: #b0b0b0; stroke-width: 0.8; stroke-linecap: square"/>
     </g>
     <g id="line2d_4">
      <g>
       <use xlink:href="#m2e8ce692f3" x="212.71778" y="293.76" style="stroke: #000000; stroke-width: 0.8"/>
      </g>
     </g>
     <g id="text_2">
      <!-- -2 -->
      <g transform="translate(202.747467 315.956875) scale(0.2 -0.2)">
       <defs>
        <path id="DejaVuSans-32" d="M 1228 531 
L 3431 531 
L 3431 0 
L 469 0 
L 469 531 
Q 828 903 1448 1529 
Q 2069 2156 2228 2338 
Q 2531 2678 2651 2914 
Q 2772 3150 2772 3378 
Q 2772 3750 2511 3984 
Q 2250 4219 1831 4219 
Q 1534 4219 1204 4116 
Q 875 4013 500 3803 
L 500 4441 
Q 881 4594 1212 4672 
Q 1544 4750 1819 4750 
Q 2544 4750 2975 4387 
Q 3406 4025 3406 3419 
Q 3406 3131 3298 2873 
Q 3191 2616 2906 2266 
Q 2828 2175 2409 1742 
Q 1991 1309 1228 531 
z
" transform="scale(0.015625)"/>
       </defs>
       <use xlink:href="#DejaVuSans-2d"/>
       <use xlink:href="#DejaVuSans-32" x="36.083984"/>
      </g>
     </g>
    </g>
    <g id="xtick_3">
     <g id="line2d_5">
      <path d="M 319.153327 293.76 
L 319.153327 3.456 
" clip-path="url(#pf08b19e2f3)" style="fill: none; stroke: #b0b0b0; stroke-width: 0.8; stroke-linecap: square"/>
     </g>
     <g id="line2d_6">
      <g>
       <use xlink:href="#m2e8ce692f3" x="319.153327" y="293.76" style="stroke: #000000; stroke-width: 0.8"/>
      </g>
     </g>
     <g id="text_3">
      <!-- 1 -->
      <g transform="translate(312.790827 315.956875) scale(0.2 -0.2)">
       <defs>
        <path id="DejaVuSans-31" d="M 794 531 
L 1825 531 
L 1825 4091 
L 703 3866 
L 703 4441 
L 1819 4666 
L 2450 4666 
L 2450 531 
L 3481 531 
L 3481 0 
L 794 0 
L 794 531 
z
" transform="scale(0.015625)"/>
       </defs>
       <use xlink:href="#DejaVuSans-31"/>
      </g>
     </g>
    </g>
    <g id="xtick_4">
     <g id="line2d_7">
      <path d="M 425.588875 293.76 
L 425.588875 3.456 
" clip-path="url(#pf08b19e2f3)" style="fill: none; stroke: #b0b0b0; stroke-width: 0.8; stroke-linecap: square"/>
     </g>
     <g id="line2d_8">
      <g>
       <use xlink:href="#m2e8ce692f3" x="425.588875" y="293.76" style="stroke: #000000; stroke-width: 0.8"/>
      </g>
     </g>
     <g id="text_4">
      <!-- 4 -->
      <g transform="translate(419.226375 315.956875) scale(0.2 -0.2)">
       <defs>
        <path id="DejaVuSans-34" d="M 2419 4116 
L 825 1625 
L 2419 1625 
L 2419 4116 
z
M 2253 4666 
L 3047 4666 
L 3047 1625 
L 3713 1625 
L 3713 1100 
L 3047 1100 
L 3047 0 
L 2419 0 
L 2419 1100 
L 313 1100 
L 313 1709 
L 2253 4666 
z
" transform="scale(0.015625)"/>
       </defs>
       <use xlink:href="#DejaVuSans-34"/>
      </g>
     </g>
    </g>
    <g id="text_5">
     <!-- log10 of Df -->
     <g transform="translate(175.214063 339.313125) scale(0.2 -0.2)">
      <defs>
       <path id="DejaVuSans-6c" d="M 603 4863 
L 1178 4863 
L 1178 0 
L 603 0 
L 603 4863 
z
" transform="scale(0.015625)"/>
       <path id="DejaVuSans-6f" d="M 1959 3097 
Q 1497 3097 1228 2736 
Q 959 2375 959 1747 
Q 959 1119 1226 758 
Q 1494 397 1959 397 
Q 2419 397 2687 759 
Q 2956 1122 2956 1747 
Q 2956 2369 2687 2733 
Q 2419 3097 1959 3097 
z
M 1959 3584 
Q 2709 3584 3137 3096 
Q 3566 2609 3566 1747 
Q 3566 888 3137 398 
Q 2709 -91 1959 -91 
Q 1206 -91 779 398 
Q 353 888 353 1747 
Q 353 2609 779 3096 
Q 1206 3584 1959 3584 
z
" transform="scale(0.015625)"/>
       <path id="DejaVuSans-67" d="M 2906 1791 
Q 2906 2416 2648 2759 
Q 2391 3103 1925 3103 
Q 1463 3103 1205 2759 
Q 947 2416 947 1791 
Q 947 1169 1205 825 
Q 1463 481 1925 481 
Q 2391 481 2648 825 
Q 2906 1169 2906 1791 
z
M 3481 434 
Q 3481 -459 3084 -895 
Q 2688 -1331 1869 -1331 
Q 1566 -1331 1297 -1286 
Q 1028 -1241 775 -1147 
L 775 -588 
Q 1028 -725 1275 -790 
Q 1522 -856 1778 -856 
Q 2344 -856 2625 -561 
Q 2906 -266 2906 331 
L 2906 616 
Q 2728 306 2450 153 
Q 2172 0 1784 0 
Q 1141 0 747 490 
Q 353 981 353 1791 
Q 353 2603 747 3093 
Q 1141 3584 1784 3584 
Q 2172 3584 2450 3431 
Q 2728 3278 2906 2969 
L 2906 3500 
L 3481 3500 
L 3481 434 
z
" transform="scale(0.015625)"/>
       <path id="DejaVuSans-30" d="M 2034 4250 
Q 1547 4250 1301 3770 
Q 1056 3291 1056 2328 
Q 1056 1369 1301 889 
Q 1547 409 2034 409 
Q 2525 409 2770 889 
Q 3016 1369 3016 2328 
Q 3016 3291 2770 3770 
Q 2525 4250 2034 4250 
z
M 2034 4750 
Q 2819 4750 3233 4129 
Q 3647 3509 3647 2328 
Q 3647 1150 3233 529 
Q 2819 -91 2034 -91 
Q 1250 -91 836 529 
Q 422 1150 422 2328 
Q 422 3509 836 4129 
Q 1250 4750 2034 4750 
z
" transform="scale(0.015625)"/>
       <path id="DejaVuSans-20" transform="scale(0.015625)"/>
       <path id="DejaVuSans-66" d="M 2375 4863 
L 2375 4384 
L 1825 4384 
Q 1516 4384 1395 4259 
Q 1275 4134 1275 3809 
L 1275 3500 
L 2222 3500 
L 2222 3053 
L 1275 3053 
L 1275 0 
L 697 0 
L 697 3053 
L 147 3053 
L 147 3500 
L 697 3500 
L 697 3744 
Q 697 4328 969 4595 
Q 1241 4863 1831 4863 
L 2375 4863 
z
" transform="scale(0.015625)"/>
       <path id="DejaVuSans-44" d="M 1259 4147 
L 1259 519 
L 2022 519 
Q 2988 519 3436 956 
Q 3884 1394 3884 2338 
Q 3884 3275 3436 3711 
Q 2988 4147 2022 4147 
L 1259 4147 
z
M 628 4666 
L 1925 4666 
Q 3281 4666 3915 4102 
Q 4550 3538 4550 2338 
Q 4550 1131 3912 565 
Q 3275 0 1925 0 
L 628 0 
L 628 4666 
z
" transform="scale(0.015625)"/>
      </defs>
      <use xlink:href="#DejaVuSans-6c"/>
      <use xlink:href="#DejaVuSans-6f" x="27.783203"/>
      <use xlink:href="#DejaVuSans-67" x="88.964844"/>
      <use xlink:href="#DejaVuSans-31" x="152.441406"/>
      <use xlink:href="#DejaVuSans-30" x="216.064453"/>
      <use xlink:href="#DejaVuSans-20" x="279.6875"/>
      <use xlink:href="#DejaVuSans-6f" x="311.474609"/>
      <use xlink:href="#DejaVuSans-66" x="372.65625"/>
      <use xlink:href="#DejaVuSans-20" x="407.861328"/>
      <use xlink:href="#DejaVuSans-44" x="439.648438"/>
      <use xlink:href="#DejaVuSans-66" x="516.650391"/>
     </g>
    </g>
   </g>
   <g id="matplotlib.axis_2">
    <g id="ytick_1">
     <g id="line2d_9">
      <path d="M 0 293.76 
L 460.8 293.76 
" clip-path="url(#pf08b19e2f3)" style="fill: none; stroke: #b0b0b0; stroke-width: 0.8; stroke-linecap: square"/>
     </g>
     <g id="line2d_10">
      <defs>
       <path id="m86caf25e29" d="M 0 0 
L -3.5 0 
" style="stroke: #000000; stroke-width: 0.8"/>
      </defs>
      <g>
       <use xlink:href="#m86caf25e29" x="0" y="293.76" style="stroke: #000000; stroke-width: 0.8"/>
      </g>
     </g>
    </g>
    <g id="ytick_2">
     <g id="line2d_11">
      <path d="M 0 236.274059 
L 460.8 236.274059 
" clip-path="url(#pf08b19e2f3)" style="fill: none; stroke: #b0b0b0; stroke-width: 0.8; stroke-linecap: square"/>
     </g>
     <g id="line2d_12">
      <g>
       <use xlink:href="#m86caf25e29" x="0" y="236.274059" style="stroke: #000000; stroke-width: 0.8"/>
      </g>
     </g>
    </g>
    <g id="ytick_3">
     <g id="line2d_13">
      <path d="M 0 178.788119 
L 460.8 178.788119 
" clip-path="url(#pf08b19e2f3)" style="fill: none; stroke: #b0b0b0; stroke-width: 0.8; stroke-linecap: square"/>
     </g>
     <g id="line2d_14">
      <g>
       <use xlink:href="#m86caf25e29" x="0" y="178.788119" style="stroke: #000000; stroke-width: 0.8"/>
      </g>
     </g>
    </g>
    <g id="ytick_4">
     <g id="line2d_15">
      <path d="M 0 121.302178 
L 460.8 121.302178 
" clip-path="url(#pf08b19e2f3)" style="fill: none; stroke: #b0b0b0; stroke-width: 0.8; stroke-linecap: square"/>
     </g>
     <g id="line2d_16">
      <g>
       <use xlink:href="#m86caf25e29" x="0" y="121.302178" style="stroke: #000000; stroke-width: 0.8"/>
      </g>
     </g>
    </g>
    <g id="ytick_5">
     <g id="line2d_17">
      <path d="M 0 63.816238 
L 460.8 63.816238 
" clip-path="url(#pf08b19e2f3)" style="fill: none; stroke: #b0b0b0; stroke-width: 0.8; stroke-linecap: square"/>
     </g>
     <g id="line2d_18">
      <g>
       <use xlink:href="#m86caf25e29" x="0" y="63.816238" style="stroke: #000000; stroke-width: 0.8"/>
      </g>
     </g>
    </g>
    <g id="ytick_6">
     <g id="line2d_19">
      <path d="M 0 6.330297 
L 460.8 6.330297 
" clip-path="url(#pf08b19e2f3)" style="fill: none; stroke: #b0b0b0; stroke-width: 0.8; stroke-linecap: square"/>
     </g>
     <g id="line2d_20">
      <g>
       <use xlink:href="#m86caf25e29" x="0" y="6.330297" style="stroke: #000000; stroke-width: 0.8"/>
      </g>
     </g>
    </g>
   </g>
   <g id="line2d_21">
    <path d="M 264.455973 293.76 
L 264.455973 289.927604 
L 295.901181 289.927604 
L 295.901181 286.095208 
L 317.878281 286.095208 
L 317.878281 282.262812 
L 318.312079 282.262812 
L 318.312079 278.430416 
L 319.654156 278.430416 
L 319.654156 274.59802 
L 319.958123 274.59802 
L 319.958123 270.765624 
L 320.302083 270.765624 
L 320.341922 263.100832 
L 320.575868 263.100832 
L 320.575868 259.268436 
L 321.456753 259.268436 
L 321.556148 251.603644 
L 321.79524 251.603644 
L 321.79524 247.771248 
L 322.257972 247.771248 
L 322.299613 240.106455 
L 322.517678 240.106455 
L 322.628042 232.441663 
L 322.86216 232.441663 
L 322.86216 228.609267 
L 323.356183 228.609267 
L 323.356183 224.776871 
L 323.653458 224.776871 
L 323.653458 220.944475 
L 325.693682 220.944475 
L 325.693682 217.112079 
L 330.277427 217.112079 
L 330.277427 213.279683 
L 330.981587 213.279683 
L 330.981587 209.447287 
L 333.234388 209.447287 
L 333.234388 205.614891 
L 333.46149 205.614891 
L 333.46149 201.782495 
L 333.851243 201.782495 
L 333.851243 197.950099 
L 335.046255 197.950099 
L 335.046255 194.117703 
L 335.7419 194.117703 
L 335.7419 190.285307 
L 336.069989 190.285307 
L 336.069989 186.452911 
L 336.321874 186.452911 
L 336.321874 182.620515 
L 336.495228 182.620515 
L 336.517445 171.123327 
L 336.614635 171.123327 
L 336.614635 167.290931 
L 337.024675 167.290931 
L 337.083222 159.626139 
L 337.24767 159.626139 
L 337.24767 155.793743 
L 337.932851 155.793743 
L 337.932851 151.961347 
L 338.149368 151.961347 
L 338.149368 148.12895 
L 338.523383 148.12895 
L 338.523383 144.296554 
L 339.162435 144.296554 
L 339.162435 140.464158 
L 339.450828 140.464158 
L 339.450828 136.631762 
L 340.244842 136.631762 
L 340.244842 132.799366 
L 340.578487 132.799366 
L 340.578487 128.96697 
L 340.914365 128.96697 
L 341.015315 121.302178 
L 341.044744 121.302178 
L 341.044744 117.469782 
L 341.838829 117.469782 
L 341.838829 113.637386 
L 342.033003 113.637386 
L 342.10857 105.972594 
L 342.316507 105.972594 
L 342.316507 102.140198 
L 342.464905 102.140198 
L 342.470166 94.475406 
L 343.063635 94.475406 
L 343.063635 90.64301 
L 343.322745 90.64301 
L 343.373817 82.978218 
L 343.475976 82.978218 
L 343.475976 79.145822 
L 343.801257 79.145822 
L 343.801257 75.313426 
L 344.321929 75.313426 
L 344.321929 71.48103 
L 344.576892 71.48103 
L 344.619398 63.816238 
L 345.237351 63.816238 
L 345.275567 56.151446 
L 345.70101 56.151446 
L 345.70101 52.31905 
L 348.402431 52.31905 
L 348.402431 48.486653 
L 348.889958 48.486653 
L 348.889958 44.654257 
L 351.761682 44.654257 
L 351.761682 40.821861 
L 352.356218 40.821861 
L 352.356218 36.989465 
L 353.331806 36.989465 
L 353.362871 29.324673 
L 353.46434 29.324673 
L 353.46434 25.492277 
L 358.133069 25.492277 
L 358.133069 21.659881 
L 360.665243 21.659881 
L 360.665243 17.827485 
L 365.393964 17.827485 
L 365.393964 13.995089 
L 365.829535 13.995089 
L 365.829535 10.162693 
L 369.409103 10.162693 
L 369.409103 6.330297 
L 369.409103 6.330297 
L 460.8 6.330297 
L 460.8 6.330297 
" clip-path="url(#pf08b19e2f3)" style="fill: none; stroke: #ff0000; stroke-width: 3; stroke-linecap: square"/>
   </g>
   <g id="line2d_22">
    <path d="M 322.525584 293.76 
L 322.525584 289.927604 
L 323.833855 289.927604 
L 323.833855 286.095208 
L 326.170325 286.095208 
L 326.170325 282.262812 
L 327.146953 282.262812 
L 327.146953 278.430416 
L 328.241601 278.430416 
L 328.33318 270.765624 
L 329.359685 270.765624 
L 329.359685 266.933228 
L 330.194178 266.933228 
L 330.194178 263.100832 
L 330.862014 263.100832 
L 330.862014 259.268436 
L 331.086382 259.268436 
L 331.086382 255.43604 
L 331.270699 255.43604 
L 331.270699 251.603644 
L 331.447287 251.603644 
L 331.447287 247.771248 
L 332.045449 247.771248 
L 332.045449 243.938851 
L 333.027688 243.938851 
L 333.027688 240.106455 
L 333.401321 240.106455 
L 333.401321 236.274059 
L 341.515271 236.274059 
L 341.515271 232.441663 
L 342.397708 232.441663 
L 342.397708 228.609267 
L 343.639763 228.609267 
L 343.639763 224.776871 
L 344.498209 224.776871 
L 344.498209 220.944475 
L 345.906749 220.944475 
L 345.906749 217.112079 
L 346.487402 217.112079 
L 346.487402 213.279683 
L 346.73452 213.279683 
L 346.782993 205.614891 
L 346.95347 205.614891 
L 346.95347 201.782495 
L 347.578863 201.782495 
L 347.609447 194.117703 
L 347.69927 194.117703 
L 347.69927 190.285307 
L 347.827688 190.285307 
L 347.827688 186.452911 
L 348.018413 186.452911 
L 348.082625 174.955723 
L 348.228861 174.955723 
L 348.318248 167.290931 
L 348.5331 167.290931 
L 348.5331 163.458535 
L 348.817957 163.458535 
L 348.888668 155.793743 
L 349.280443 155.793743 
L 349.280443 151.961347 
L 349.607267 151.961347 
L 349.704114 136.631762 
L 349.835701 136.631762 
L 349.835701 132.799366 
L 350.074577 132.799366 
L 350.074577 128.96697 
L 350.212399 128.96697 
L 350.288548 121.302178 
L 350.366647 121.302178 
L 350.400331 109.80499 
L 350.588195 109.80499 
L 350.657025 98.307802 
L 351.086961 98.307802 
L 351.086961 94.475406 
L 351.222044 94.475406 
L 351.222044 90.64301 
L 353.079552 90.64301 
L 353.079552 86.810614 
L 353.522992 86.810614 
L 353.522992 82.978218 
L 354.315152 82.978218 
L 354.315152 79.145822 
L 357.275798 79.145822 
L 357.275798 75.313426 
L 358.45305 75.313426 
L 358.45305 71.48103 
L 359.109058 71.48103 
L 359.109058 67.648634 
L 359.884626 67.648634 
L 359.884626 63.816238 
L 362.23934 63.816238 
L 362.23934 59.983842 
L 377.041528 59.983842 
L 377.041528 56.151446 
L 383.463207 56.151446 
L 383.463207 52.31905 
L 395.042297 52.31905 
L 395.042297 48.486653 
L 399.266198 48.486653 
L 399.266198 44.654257 
L 399.519639 44.654257 
L 399.519639 40.821861 
L 402.70115 40.821861 
L 402.70115 36.989465 
L 403.040574 36.989465 
L 403.128989 29.324673 
L 403.790068 29.324673 
L 403.838714 21.659881 
L 410.782636 21.659881 
L 410.782636 17.827485 
L 411.843573 17.827485 
L 411.843573 13.995089 
L 416.891958 13.995089 
L 416.891958 10.162693 
L 424.480253 10.162693 
L 424.480253 6.330297 
L 424.480253 6.330297 
L 460.8 6.330297 
L 460.8 6.330297 
" clip-path="url(#pf08b19e2f3)" style="fill: none; stroke: #00bfbf; stroke-width: 1.5; stroke-linecap: square"/>
   </g>
   <g id="line2d_23">
    <path d="M 322.525584 293.76 
L 322.525584 289.927604 
L 323.181989 289.927604 
L 323.181989 286.095208 
L 323.833855 286.095208 
L 323.833855 282.262812 
L 326.126365 282.262812 
L 326.170325 274.59802 
L 326.459993 274.59802 
L 326.459993 270.765624 
L 327.080206 270.765624 
L 327.080206 266.933228 
L 327.398558 266.933228 
L 327.447691 259.268436 
L 327.5999 259.268436 
L 327.5999 255.43604 
L 328.020309 255.43604 
L 328.020309 251.603644 
L 328.442879 251.603644 
L 328.442879 247.771248 
L 328.942186 247.771248 
L 328.942186 243.938851 
L 329.169748 243.938851 
L 329.169748 240.106455 
L 330.526017 240.106455 
L 330.526017 236.274059 
L 334.7507 236.274059 
L 334.7507 232.441663 
L 336.517445 232.441663 
L 336.517445 228.609267 
L 340.365776 228.609267 
L 340.365776 224.776871 
L 341.515271 224.776871 
L 341.515271 220.944475 
L 342.397708 220.944475 
L 342.397708 217.112079 
L 343.108875 217.112079 
L 343.108875 213.279683 
L 343.639763 213.279683 
L 343.639763 209.447287 
L 343.923744 209.447287 
L 343.923744 205.614891 
L 345.570059 205.614891 
L 345.672721 197.950099 
L 345.70101 197.950099 
L 345.70101 194.117703 
L 345.906749 194.117703 
L 345.932918 186.452911 
L 346.487402 186.452911 
L 346.487402 182.620515 
L 346.73452 182.620515 
L 346.73452 178.788119 
L 346.95347 178.788119 
L 346.95347 174.955723 
L 347.160315 174.955723 
L 347.160315 171.123327 
L 347.362568 171.123327 
L 347.425715 163.458535 
L 347.827688 163.458535 
L 347.831438 155.793743 
L 348.018413 155.793743 
L 348.018413 151.961347 
L 348.228861 151.961347 
L 348.228861 148.12895 
L 348.469924 148.12895 
L 348.5331 140.464158 
L 348.698392 140.464158 
L 348.698392 136.631762 
L 348.817957 136.631762 
L 348.888668 128.96697 
L 349.069346 128.96697 
L 349.069346 125.134574 
L 349.182524 125.134574 
L 349.280443 117.469782 
L 349.646052 117.469782 
L 349.704114 109.80499 
L 349.780864 109.80499 
L 349.835701 102.140198 
L 349.951025 102.140198 
L 349.951025 98.307802 
L 350.146982 98.307802 
L 350.200918 90.64301 
L 350.382714 90.64301 
L 350.382714 86.810614 
L 350.758236 86.810614 
L 350.758236 82.978218 
L 351.222044 82.978218 
L 351.222044 79.145822 
L 351.726285 79.145822 
L 351.726285 75.313426 
L 352.356218 75.313426 
L 352.356218 71.48103 
L 352.749406 71.48103 
L 352.749406 67.648634 
L 354.315152 67.648634 
L 354.315152 63.816238 
L 357.566493 63.816238 
L 357.566493 59.983842 
L 358.45305 59.983842 
L 358.45305 56.151446 
L 365.829535 56.151446 
L 365.829535 52.31905 
L 377.442817 52.31905 
L 377.442817 48.486653 
L 380.02236 48.486653 
L 380.02236 44.654257 
L 381.935906 44.654257 
L 381.935906 40.821861 
L 382.986695 40.821861 
L 382.986695 36.989465 
L 383.463207 36.989465 
L 383.463207 33.157069 
L 392.022067 33.157069 
L 392.022067 29.324673 
L 399.001375 29.324673 
L 399.001375 25.492277 
L 399.266198 25.492277 
L 399.266198 21.659881 
L 400.280698 21.659881 
L 400.280698 17.827485 
L 403.040574 17.827485 
L 403.040574 13.995089 
L 403.650808 13.995089 
L 403.650808 10.162693 
L 404.131639 10.162693 
L 404.131639 6.330297 
L 404.131639 6.330297 
L 460.8 6.330297 
L 460.8 6.330297 
" clip-path="url(#pf08b19e2f3)" style="fill: none; stroke: #bf00bf; stroke-width: 1.5; stroke-linecap: square"/>
   </g>
   <g id="line2d_24">
    <path d="M 320.538798 293.76 
L 320.538798 289.927604 
L 322.257972 289.927604 
L 322.257972 286.095208 
L 322.525584 286.095208 
L 322.549231 278.430416 
L 323.181989 278.430416 
L 323.181989 274.59802 
L 323.667607 274.59802 
L 323.667607 270.765624 
L 323.833855 270.765624 
L 323.833855 266.933228 
L 325.280625 266.933228 
L 325.340516 259.268436 
L 326.126365 259.268436 
L 326.126365 255.43604 
L 326.459993 255.43604 
L 326.459993 251.603644 
L 326.873952 251.603644 
L 326.873952 247.771248 
L 327.143975 247.771248 
L 327.143975 243.938851 
L 327.398558 243.938851 
L 327.398558 240.106455 
L 328.942186 240.106455 
L 328.942186 236.274059 
L 334.7507 236.274059 
L 334.7507 232.441663 
L 336.517445 232.441663 
L 336.517445 228.609267 
L 336.843216 228.609267 
L 336.843216 224.776871 
L 337.024675 224.776871 
L 337.024675 220.944475 
L 340.365776 220.944475 
L 340.365776 217.112079 
L 341.515271 217.112079 
L 341.515271 213.279683 
L 342.397708 213.279683 
L 342.397708 209.447287 
L 343.063635 209.447287 
L 343.108875 201.782495 
L 343.178731 201.782495 
L 343.178731 197.950099 
L 343.567199 197.950099 
L 343.567199 194.117703 
L 343.923744 194.117703 
L 343.923744 190.285307 
L 344.886372 190.285307 
L 344.886372 186.452911 
L 345.237351 186.452911 
L 345.237351 182.620515 
L 345.570059 182.620515 
L 345.672721 174.955723 
L 345.70101 174.955723 
L 345.70101 171.123327 
L 345.906749 171.123327 
L 345.932918 163.458535 
L 346.081401 163.458535 
L 346.081401 159.626139 
L 346.487402 159.626139 
L 346.487402 155.793743 
L 346.73452 155.793743 
L 346.73452 151.961347 
L 346.864185 151.961347 
L 346.864185 148.12895 
L 346.981806 148.12895 
L 346.981806 144.296554 
L 347.114137 144.296554 
L 347.160315 136.631762 
L 347.425715 136.631762 
L 347.425715 132.799366 
L 347.652773 132.799366 
L 347.652773 128.96697 
L 347.831438 128.96697 
L 347.831438 125.134574 
L 348.018413 125.134574 
L 348.018413 121.302178 
L 348.236698 121.302178 
L 348.236698 117.469782 
L 348.37575 117.469782 
L 348.469924 109.80499 
L 348.5331 109.80499 
L 348.5331 105.972594 
L 348.761738 105.972594 
L 348.817957 98.307802 
L 349.144817 98.307802 
L 349.144817 94.475406 
L 349.280443 94.475406 
L 349.280443 90.64301 
L 349.696893 90.64301 
L 349.696893 86.810614 
L 349.835701 86.810614 
L 349.835701 82.978218 
L 350.002064 82.978218 
L 350.017963 75.313426 
L 350.127337 75.313426 
L 350.200918 67.648634 
L 351.133077 67.648634 
L 351.133077 63.816238 
L 352.356218 63.816238 
L 352.356218 59.983842 
L 358.45305 59.983842 
L 358.45305 56.151446 
L 365.393964 56.151446 
L 365.393964 52.31905 
L 365.829535 52.31905 
L 365.829535 48.486653 
L 368.677747 48.486653 
L 368.677747 44.654257 
L 373.559832 44.654257 
L 373.559832 40.821861 
L 377.442817 40.821861 
L 377.442817 36.989465 
L 380.02236 36.989465 
L 380.02236 33.157069 
L 381.935906 33.157069 
L 381.935906 29.324673 
L 382.986695 29.324673 
L 382.986695 25.492277 
L 387.156438 25.492277 
L 387.156438 21.659881 
L 394.544432 21.659881 
L 394.544432 17.827485 
L 394.880671 17.827485 
L 394.880671 13.995089 
L 395.377788 13.995089 
L 395.377788 10.162693 
L 402.163935 10.162693 
L 402.163935 6.330297 
L 402.163935 6.330297 
L 460.8 6.330297 
L 460.8 6.330297 
" clip-path="url(#pf08b19e2f3)" style="fill: none; stroke: #000000; stroke-width: 1.5; stroke-linecap: square"/>
   </g>
   <g id="line2d_25">
    <path d="M 264.455973 293.76 
L 264.455973 289.927604 
L 295.901181 289.927604 
L 295.901181 286.095208 
L 317.878281 286.095208 
L 317.878281 282.262812 
L 319.958123 282.262812 
L 319.958123 278.430416 
L 320.302083 278.430416 
L 320.302083 274.59802 
L 320.538798 274.59802 
L 320.538798 270.765624 
L 321.872726 270.765624 
L 321.872726 266.933228 
L 322.257972 266.933228 
L 322.257972 263.100832 
L 322.525584 263.100832 
L 322.628042 251.603644 
L 322.86216 251.603644 
L 322.86216 247.771248 
L 323.019907 247.771248 
L 323.019907 243.938851 
L 323.513421 243.938851 
L 323.513421 240.106455 
L 323.667607 240.106455 
L 323.667607 236.274059 
L 323.833855 236.274059 
L 323.833855 232.441663 
L 324.534649 232.441663 
L 324.534649 228.609267 
L 324.772736 228.609267 
L 324.772736 224.776871 
L 325.693682 224.776871 
L 325.693682 220.944475 
L 333.430864 220.944475 
L 333.46149 213.279683 
L 333.851243 213.279683 
L 333.851243 209.447287 
L 335.046255 209.447287 
L 335.046255 205.614891 
L 336.069989 205.614891 
L 336.069989 201.782495 
L 336.495228 201.782495 
L 336.517445 190.285307 
L 336.614635 190.285307 
L 336.614635 186.452911 
L 337.024675 186.452911 
L 337.083222 178.788119 
L 337.810314 178.788119 
L 337.810314 174.955723 
L 338.149368 174.955723 
L 338.149368 171.123327 
L 339.162435 171.123327 
L 339.162435 167.290931 
L 339.450828 167.290931 
L 339.450828 163.458535 
L 339.87129 163.458535 
L 339.87129 159.626139 
L 341.015315 159.626139 
L 341.044744 151.961347 
L 341.515271 151.961347 
L 341.515271 148.12895 
L 342.007889 148.12895 
L 342.10857 136.631762 
L 342.185297 136.631762 
L 342.185297 132.799366 
L 342.410318 132.799366 
L 342.410318 128.96697 
L 342.85892 128.96697 
L 342.85892 125.134574 
L 343.063635 125.134574 
L 343.063635 121.302178 
L 343.178731 121.302178 
L 343.178731 117.469782 
L 343.321768 117.469782 
L 343.321768 113.637386 
L 343.476806 113.637386 
L 343.476806 109.80499 
L 343.935266 109.80499 
L 343.935266 105.972594 
L 344.162429 105.972594 
L 344.162429 102.140198 
L 344.321929 102.140198 
L 344.326749 94.475406 
L 344.558896 94.475406 
L 344.558896 90.64301 
L 344.886372 90.64301 
L 344.886372 86.810614 
L 345.19082 86.810614 
L 345.275567 75.313426 
L 345.70101 75.313426 
L 345.709538 67.648634 
L 346.864185 67.648634 
L 346.864185 63.816238 
L 347.645372 63.816238 
L 347.645372 59.983842 
L 348.168965 59.983842 
L 348.168965 56.151446 
L 348.402431 56.151446 
L 348.402431 52.31905 
L 348.72851 52.31905 
L 348.72851 48.486653 
L 351.761682 48.486653 
L 351.761682 44.654257 
L 352.356218 44.654257 
L 352.356218 40.821861 
L 358.45305 40.821861 
L 358.45305 36.989465 
L 363.368308 36.989465 
L 363.368308 33.157069 
L 365.393964 33.157069 
L 365.393964 29.324673 
L 365.829535 29.324673 
L 365.829535 25.492277 
L 368.677747 25.492277 
L 368.677747 21.659881 
L 369.409103 21.659881 
L 369.409103 17.827485 
L 370.930179 17.827485 
L 370.930179 13.995089 
L 371.455681 13.995089 
L 371.455681 10.162693 
L 374.573784 10.162693 
L 374.573784 6.330297 
L 374.573784 6.330297 
L 460.8 6.330297 
L 460.8 6.330297 
" clip-path="url(#pf08b19e2f3)" style="fill: none; stroke: #00bfbf; stroke-width: 1.5; stroke-linecap: square"/>
   </g>
   <g id="patch_3">
    <path d="M 0 293.76 
L 0 3.456 
" style="fill: none; stroke: #000000; stroke-width: 0.8; stroke-linejoin: miter; stroke-linecap: square"/>
   </g>
   <g id="patch_4">
    <path d="M 460.8 293.76 
L 460.8 3.456 
" style="fill: none; stroke: #000000; stroke-width: 0.8; stroke-linejoin: miter; stroke-linecap: square"/>
   </g>
   <g id="patch_5">
    <path d="M 0 293.76 
L 460.8 293.76 
" style="fill: none; stroke: #000000; stroke-width: 0.8; stroke-linejoin: miter; stroke-linecap: square"/>
   </g>
   <g id="patch_6">
    <path d="M 0 3.456 
L 460.8 3.456 
" style="fill: none; stroke: #000000; stroke-width: 0.8; stroke-linejoin: miter; stroke-linecap: square"/>
   </g>
   <g id="text_6">
    <!-- {f20-f24}, 10-D -->
    <g transform="translate(293.159 287.95392) scale(0.2 -0.2)">
     <defs>
      <path id="DejaVuSans-7b" d="M 3272 -594 
L 3272 -1044 
L 3078 -1044 
Q 2300 -1044 2036 -812 
Q 1772 -581 1772 109 
L 1772 856 
Q 1772 1328 1603 1509 
Q 1434 1691 991 1691 
L 800 1691 
L 800 2138 
L 991 2138 
Q 1438 2138 1605 2317 
Q 1772 2497 1772 2963 
L 1772 3713 
Q 1772 4403 2036 4633 
Q 2300 4863 3078 4863 
L 3272 4863 
L 3272 4416 
L 3059 4416 
Q 2619 4416 2484 4278 
Q 2350 4141 2350 3700 
L 2350 2925 
Q 2350 2434 2208 2212 
Q 2066 1991 1722 1913 
Q 2069 1828 2209 1606 
Q 2350 1384 2350 897 
L 2350 122 
Q 2350 -319 2484 -456 
Q 2619 -594 3059 -594 
L 3272 -594 
z
" transform="scale(0.015625)"/>
      <path id="DejaVuSans-7d" d="M 800 -594 
L 1019 -594 
Q 1456 -594 1589 -459 
Q 1722 -325 1722 122 
L 1722 897 
Q 1722 1384 1862 1606 
Q 2003 1828 2350 1913 
Q 2003 1991 1862 2212 
Q 1722 2434 1722 2925 
L 1722 3700 
Q 1722 4144 1589 4280 
Q 1456 4416 1019 4416 
L 800 4416 
L 800 4863 
L 997 4863 
Q 1775 4863 2036 4633 
Q 2297 4403 2297 3713 
L 2297 2963 
Q 2297 2497 2465 2317 
Q 2634 2138 3078 2138 
L 3272 2138 
L 3272 1691 
L 3078 1691 
Q 2634 1691 2465 1509 
Q 2297 1328 2297 856 
L 2297 109 
Q 2297 -581 2036 -812 
Q 1775 -1044 997 -1044 
L 800 -1044 
L 800 -594 
z
" transform="scale(0.015625)"/>
      <path id="DejaVuSans-2c" d="M 750 794 
L 1409 794 
L 1409 256 
L 897 -744 
L 494 -744 
L 750 256 
L 750 794 
z
" transform="scale(0.015625)"/>
     </defs>
     <use xlink:href="#DejaVuSans-7b"/>
     <use xlink:href="#DejaVuSans-66" x="63.623047"/>
     <use xlink:href="#DejaVuSans-32" x="98.828125"/>
     <use xlink:href="#DejaVuSans-30" x="162.451172"/>
     <use xlink:href="#DejaVuSans-2d" x="226.074219"/>
     <use xlink:href="#DejaVuSans-66" x="262.158203"/>
     <use xlink:href="#DejaVuSans-32" x="297.363281"/>
     <use xlink:href="#DejaVuSans-34" x="360.986328"/>
     <use xlink:href="#DejaVuSans-7d" x="424.609375"/>
     <use xlink:href="#DejaVuSans-2c" x="488.232422"/>
     <use xlink:href="#DejaVuSans-20" x="520.019531"/>
     <use xlink:href="#DejaVuSans-31" x="551.806641"/>
     <use xlink:href="#DejaVuSans-30" x="615.429688"/>
     <use xlink:href="#DejaVuSans-2d" x="679.052734"/>
     <use xlink:href="#DejaVuSans-44" x="715.136719"/>
    </g>
   </g>
   <g id="text_7">
    <!-- v2.6.4 -->
    <g style="fill: #808080" transform="translate(214.71875 288.777272) scale(0.1 -0.1)">
     <defs>
      <path id="DejaVuSans-76" d="M 191 3500 
L 800 3500 
L 1894 563 
L 2988 3500 
L 3597 3500 
L 2284 0 
L 1503 0 
L 191 3500 
z
" transform="scale(0.015625)"/>
      <path id="DejaVuSans-2e" d="M 684 794 
L 1344 794 
L 1344 0 
L 684 0 
L 684 794 
z
" transform="scale(0.015625)"/>
      <path id="DejaVuSans-36" d="M 2113 2584 
Q 1688 2584 1439 2293 
Q 1191 2003 1191 1497 
Q 1191 994 1439 701 
Q 1688 409 2113 409 
Q 2538 409 2786 701 
Q 3034 994 3034 1497 
Q 3034 2003 2786 2293 
Q 2538 2584 2113 2584 
z
M 3366 4563 
L 3366 3988 
Q 3128 4100 2886 4159 
Q 2644 4219 2406 4219 
Q 1781 4219 1451 3797 
Q 1122 3375 1075 2522 
Q 1259 2794 1537 2939 
Q 1816 3084 2150 3084 
Q 2853 3084 3261 2657 
Q 3669 2231 3669 1497 
Q 3669 778 3244 343 
Q 2819 -91 2113 -91 
Q 1303 -91 875 529 
Q 447 1150 447 2328 
Q 447 3434 972 4092 
Q 1497 4750 2381 4750 
Q 2619 4750 2861 4703 
Q 3103 4656 3366 4563 
z
" transform="scale(0.015625)"/>
     </defs>
     <use xlink:href="#DejaVuSans-76"/>
     <use xlink:href="#DejaVuSans-32" x="59.179688"/>
     <use xlink:href="#DejaVuSans-2e" x="122.802734"/>
     <use xlink:href="#DejaVuSans-36" x="154.589844"/>
     <use xlink:href="#DejaVuSans-2e" x="218.212891"/>
     <use xlink:href="#DejaVuSans-34" x="250"/>
    </g>
   </g>
  </g>
 </g>
 <defs>
  <clipPath id="pf08b19e2f3">
   <rect x="0" y="3.456" width="460.8" height="290.304"/>
  </clipPath>
 </defs>
</svg>
