<?xml version="1.0" encoding="utf-8" standalone="no"?>
<!DOCTYPE svg PUBLIC "-//W3C//DTD SVG 1.1//EN"
  "http://www.w3.org/Graphics/SVG/1.1/DTD/svg11.dtd">
<svg xmlns:xlink="http://www.w3.org/1999/xlink" width="460.8pt" height="345.6pt" viewBox="0 0 460.8 345.6" xmlns="http://www.w3.org/2000/svg" version="1.1">
 <metadata>
  <rdf:RDF xmlns:dc="http://purl.org/dc/elements/1.1/" xmlns:cc="http://creativecommons.org/ns#" xmlns:rdf="http://www.w3.org/1999/02/22-rdf-syntax-ns#">
   <cc:Work>
    <dc:type rdf:resource="http://purl.org/dc/dcmitype/StillImage"/>
    <dc:date>2024-10-07T17:44:40.989553</dc:date>
    <dc:format>image/svg+xml</dc:format>
    <dc:creator>
     <cc:Agent>
      <dc:title>Matplotlib v3.9.2, https://matplotlib.org/</dc:title>
     </cc:Agent>
    </dc:creator>
   </cc:Work>
  </rdf:RDF>
 </metadata>
 <defs>
  <style type="text/css">*{stroke-linejoin: round; stroke-linecap: butt}</style>
 </defs>
 <g id="figure_1">
  <g id="patch_1">
   <path d="M 0 345.6 
L 460.8 345.6 
L 460.8 0 
L 0 0 
z
" style="fill: #ffffff"/>
  </g>
  <g id="axes_1">
   <g id="patch_2">
    <path d="M 0 293.76 
L 460.8 293.76 
L 460.8 3.456 
L 0 3.456 
z
" style="fill: #ffffff"/>
   </g>
   <g id="matplotlib.axis_1">
    <g id="xtick_1">
     <g id="line2d_1">
      <path d="M 106.410055 293.76 
L 106.410055 3.456 
" clip-path="url(#p7caec6a020)" style="fill: none; stroke: #b0b0b0; stroke-width: 0.8; stroke-linecap: square"/>
     </g>
     <g id="line2d_2">
      <defs>
       <path id="m714dcb1075" d="M 0 0 
L 0 3.5 
" style="stroke: #000000; stroke-width: 0.8"/>
      </defs>
      <g>
       <use xlink:href="#m714dcb1075" x="106.410055" y="293.76" style="stroke: #000000; stroke-width: 0.8"/>
      </g>
     </g>
     <g id="text_1">
      <!-- -5 -->
      <g transform="translate(96.439743 315.956875) scale(0.2 -0.2)">
       <defs>
        <path id="DejaVuSans-2d" d="M 313 2009 
L 1997 2009 
L 1997 1497 
L 313 1497 
L 313 2009 
z
" transform="scale(0.015625)"/>
        <path id="DejaVuSans-35" d="M 691 4666 
L 3169 4666 
L 3169 4134 
L 1269 4134 
L 1269 2991 
Q 1406 3038 1543 3061 
Q 1681 3084 1819 3084 
Q 2600 3084 3056 2656 
Q 3513 2228 3513 1497 
Q 3513 744 3044 326 
Q 2575 -91 1722 -91 
Q 1428 -91 1123 -41 
Q 819 9 494 109 
L 494 744 
Q 775 591 1075 516 
Q 1375 441 1709 441 
Q 2250 441 2565 725 
Q 2881 1009 2881 1497 
Q 2881 1984 2565 2268 
Q 2250 2553 1709 2553 
Q 1456 2553 1204 2497 
Q 953 2441 691 2322 
L 691 4666 
z
" transform="scale(0.015625)"/>
       </defs>
       <use xlink:href="#DejaVuSans-2d"/>
       <use xlink:href="#DejaVuSans-35" x="36.083984"/>
      </g>
     </g>
    </g>
    <g id="xtick_2">
     <g id="line2d_3">
      <path d="M 212.97361 293.76 
L 212.97361 3.456 
" clip-path="url(#p7caec6a020)" style="fill: none; stroke: #b0b0b0; stroke-width: 0.8; stroke-linecap: square"/>
     </g>
     <g id="line2d_4">
      <g>
       <use xlink:href="#m714dcb1075" x="212.97361" y="293.76" style="stroke: #000000; stroke-width: 0.8"/>
      </g>
     </g>
     <g id="text_2">
      <!-- -2 -->
      <g transform="translate(203.003298 315.956875) scale(0.2 -0.2)">
       <defs>
        <path id="DejaVuSans-32" d="M 1228 531 
L 3431 531 
L 3431 0 
L 469 0 
L 469 531 
Q 828 903 1448 1529 
Q 2069 2156 2228 2338 
Q 2531 2678 2651 2914 
Q 2772 3150 2772 3378 
Q 2772 3750 2511 3984 
Q 2250 4219 1831 4219 
Q 1534 4219 1204 4116 
Q 875 4013 500 3803 
L 500 4441 
Q 881 4594 1212 4672 
Q 1544 4750 1819 4750 
Q 2544 4750 2975 4387 
Q 3406 4025 3406 3419 
Q 3406 3131 3298 2873 
Q 3191 2616 2906 2266 
Q 2828 2175 2409 1742 
Q 1991 1309 1228 531 
z
" transform="scale(0.015625)"/>
       </defs>
       <use xlink:href="#DejaVuSans-2d"/>
       <use xlink:href="#DejaVuSans-32" x="36.083984"/>
      </g>
     </g>
    </g>
    <g id="xtick_3">
     <g id="line2d_5">
      <path d="M 319.537166 293.76 
L 319.537166 3.456 
" clip-path="url(#p7caec6a020)" style="fill: none; stroke: #b0b0b0; stroke-width: 0.8; stroke-linecap: square"/>
     </g>
     <g id="line2d_6">
      <g>
       <use xlink:href="#m714dcb1075" x="319.537166" y="293.76" style="stroke: #000000; stroke-width: 0.8"/>
      </g>
     </g>
     <g id="text_3">
      <!-- 1 -->
      <g transform="translate(313.174666 315.956875) scale(0.2 -0.2)">
       <defs>
        <path id="DejaVuSans-31" d="M 794 531 
L 1825 531 
L 1825 4091 
L 703 3866 
L 703 4441 
L 1819 4666 
L 2450 4666 
L 2450 531 
L 3481 531 
L 3481 0 
L 794 0 
L 794 531 
z
" transform="scale(0.015625)"/>
       </defs>
       <use xlink:href="#DejaVuSans-31"/>
      </g>
     </g>
    </g>
    <g id="xtick_4">
     <g id="line2d_7">
      <path d="M 426.100721 293.76 
L 426.100721 3.456 
" clip-path="url(#p7caec6a020)" style="fill: none; stroke: #b0b0b0; stroke-width: 0.8; stroke-linecap: square"/>
     </g>
     <g id="line2d_8">
      <g>
       <use xlink:href="#m714dcb1075" x="426.100721" y="293.76" style="stroke: #000000; stroke-width: 0.8"/>
      </g>
     </g>
     <g id="text_4">
      <!-- 4 -->
      <g transform="translate(419.738221 315.956875) scale(0.2 -0.2)">
       <defs>
        <path id="DejaVuSans-34" d="M 2419 4116 
L 825 1625 
L 2419 1625 
L 2419 4116 
z
M 2253 4666 
L 3047 4666 
L 3047 1625 
L 3713 1625 
L 3713 1100 
L 3047 1100 
L 3047 0 
L 2419 0 
L 2419 1100 
L 313 1100 
L 313 1709 
L 2253 4666 
z
" transform="scale(0.015625)"/>
       </defs>
       <use xlink:href="#DejaVuSans-34"/>
      </g>
     </g>
    </g>
    <g id="text_5">
     <!-- log10 of Df -->
     <g transform="translate(175.214063 339.313125) scale(0.2 -0.2)">
      <defs>
       <path id="DejaVuSans-6c" d="M 603 4863 
L 1178 4863 
L 1178 0 
L 603 0 
L 603 4863 
z
" transform="scale(0.015625)"/>
       <path id="DejaVuSans-6f" d="M 1959 3097 
Q 1497 3097 1228 2736 
Q 959 2375 959 1747 
Q 959 1119 1226 758 
Q 1494 397 1959 397 
Q 2419 397 2687 759 
Q 2956 1122 2956 1747 
Q 2956 2369 2687 2733 
Q 2419 3097 1959 3097 
z
M 1959 3584 
Q 2709 3584 3137 3096 
Q 3566 2609 3566 1747 
Q 3566 888 3137 398 
Q 2709 -91 1959 -91 
Q 1206 -91 779 398 
Q 353 888 353 1747 
Q 353 2609 779 3096 
Q 1206 3584 1959 3584 
z
" transform="scale(0.015625)"/>
       <path id="DejaVuSans-67" d="M 2906 1791 
Q 2906 2416 2648 2759 
Q 2391 3103 1925 3103 
Q 1463 3103 1205 2759 
Q 947 2416 947 1791 
Q 947 1169 1205 825 
Q 1463 481 1925 481 
Q 2391 481 2648 825 
Q 2906 1169 2906 1791 
z
M 3481 434 
Q 3481 -459 3084 -895 
Q 2688 -1331 1869 -1331 
Q 1566 -1331 1297 -1286 
Q 1028 -1241 775 -1147 
L 775 -588 
Q 1028 -725 1275 -790 
Q 1522 -856 1778 -856 
Q 2344 -856 2625 -561 
Q 2906 -266 2906 331 
L 2906 616 
Q 2728 306 2450 153 
Q 2172 0 1784 0 
Q 1141 0 747 490 
Q 353 981 353 1791 
Q 353 2603 747 3093 
Q 1141 3584 1784 3584 
Q 2172 3584 2450 3431 
Q 2728 3278 2906 2969 
L 2906 3500 
L 3481 3500 
L 3481 434 
z
" transform="scale(0.015625)"/>
       <path id="DejaVuSans-30" d="M 2034 4250 
Q 1547 4250 1301 3770 
Q 1056 3291 1056 2328 
Q 1056 1369 1301 889 
Q 1547 409 2034 409 
Q 2525 409 2770 889 
Q 3016 1369 3016 2328 
Q 3016 3291 2770 3770 
Q 2525 4250 2034 4250 
z
M 2034 4750 
Q 2819 4750 3233 4129 
Q 3647 3509 3647 2328 
Q 3647 1150 3233 529 
Q 2819 -91 2034 -91 
Q 1250 -91 836 529 
Q 422 1150 422 2328 
Q 422 3509 836 4129 
Q 1250 4750 2034 4750 
z
" transform="scale(0.015625)"/>
       <path id="DejaVuSans-20" transform="scale(0.015625)"/>
       <path id="DejaVuSans-66" d="M 2375 4863 
L 2375 4384 
L 1825 4384 
Q 1516 4384 1395 4259 
Q 1275 4134 1275 3809 
L 1275 3500 
L 2222 3500 
L 2222 3053 
L 1275 3053 
L 1275 0 
L 697 0 
L 697 3053 
L 147 3053 
L 147 3500 
L 697 3500 
L 697 3744 
Q 697 4328 969 4595 
Q 1241 4863 1831 4863 
L 2375 4863 
z
" transform="scale(0.015625)"/>
       <path id="DejaVuSans-44" d="M 1259 4147 
L 1259 519 
L 2022 519 
Q 2988 519 3436 956 
Q 3884 1394 3884 2338 
Q 3884 3275 3436 3711 
Q 2988 4147 2022 4147 
L 1259 4147 
z
M 628 4666 
L 1925 4666 
Q 3281 4666 3915 4102 
Q 4550 3538 4550 2338 
Q 4550 1131 3912 565 
Q 3275 0 1925 0 
L 628 0 
L 628 4666 
z
" transform="scale(0.015625)"/>
      </defs>
      <use xlink:href="#DejaVuSans-6c"/>
      <use xlink:href="#DejaVuSans-6f" x="27.783203"/>
      <use xlink:href="#DejaVuSans-67" x="88.964844"/>
      <use xlink:href="#DejaVuSans-31" x="152.441406"/>
      <use xlink:href="#DejaVuSans-30" x="216.064453"/>
      <use xlink:href="#DejaVuSans-20" x="279.6875"/>
      <use xlink:href="#DejaVuSans-6f" x="311.474609"/>
      <use xlink:href="#DejaVuSans-66" x="372.65625"/>
      <use xlink:href="#DejaVuSans-20" x="407.861328"/>
      <use xlink:href="#DejaVuSans-44" x="439.648438"/>
      <use xlink:href="#DejaVuSans-66" x="516.650391"/>
     </g>
    </g>
   </g>
   <g id="matplotlib.axis_2">
    <g id="ytick_1">
     <g id="line2d_9">
      <path d="M 0 293.76 
L 460.8 293.76 
" clip-path="url(#p7caec6a020)" style="fill: none; stroke: #b0b0b0; stroke-width: 0.8; stroke-linecap: square"/>
     </g>
     <g id="line2d_10">
      <defs>
       <path id="m80af69ebe3" d="M 0 0 
L -3.5 0 
" style="stroke: #000000; stroke-width: 0.8"/>
      </defs>
      <g>
       <use xlink:href="#m80af69ebe3" x="0" y="293.76" style="stroke: #000000; stroke-width: 0.8"/>
      </g>
     </g>
    </g>
    <g id="ytick_2">
     <g id="line2d_11">
      <path d="M 0 236.274059 
L 460.8 236.274059 
" clip-path="url(#p7caec6a020)" style="fill: none; stroke: #b0b0b0; stroke-width: 0.8; stroke-linecap: square"/>
     </g>
     <g id="line2d_12">
      <g>
       <use xlink:href="#m80af69ebe3" x="0" y="236.274059" style="stroke: #000000; stroke-width: 0.8"/>
      </g>
     </g>
    </g>
    <g id="ytick_3">
     <g id="line2d_13">
      <path d="M 0 178.788119 
L 460.8 178.788119 
" clip-path="url(#p7caec6a020)" style="fill: none; stroke: #b0b0b0; stroke-width: 0.8; stroke-linecap: square"/>
     </g>
     <g id="line2d_14">
      <g>
       <use xlink:href="#m80af69ebe3" x="0" y="178.788119" style="stroke: #000000; stroke-width: 0.8"/>
      </g>
     </g>
    </g>
    <g id="ytick_4">
     <g id="line2d_15">
      <path d="M 0 121.302178 
L 460.8 121.302178 
" clip-path="url(#p7caec6a020)" style="fill: none; stroke: #b0b0b0; stroke-width: 0.8; stroke-linecap: square"/>
     </g>
     <g id="line2d_16">
      <g>
       <use xlink:href="#m80af69ebe3" x="0" y="121.302178" style="stroke: #000000; stroke-width: 0.8"/>
      </g>
     </g>
    </g>
    <g id="ytick_5">
     <g id="line2d_17">
      <path d="M 0 63.816238 
L 460.8 63.816238 
" clip-path="url(#p7caec6a020)" style="fill: none; stroke: #b0b0b0; stroke-width: 0.8; stroke-linecap: square"/>
     </g>
     <g id="line2d_18">
      <g>
       <use xlink:href="#m80af69ebe3" x="0" y="63.816238" style="stroke: #000000; stroke-width: 0.8"/>
      </g>
     </g>
    </g>
    <g id="ytick_6">
     <g id="line2d_19">
      <path d="M 0 6.330297 
L 460.8 6.330297 
" clip-path="url(#p7caec6a020)" style="fill: none; stroke: #b0b0b0; stroke-width: 0.8; stroke-linecap: square"/>
     </g>
     <g id="line2d_20">
      <g>
       <use xlink:href="#m80af69ebe3" x="0" y="6.330297" style="stroke: #000000; stroke-width: 0.8"/>
      </g>
     </g>
    </g>
   </g>
   <g id="line2d_21">
    <path d="M 344.672803 293.76 
L 344.749718 286.095208 
L 344.960148 286.095208 
L 344.960148 282.262812 
L 345.631247 282.262812 
L 345.631247 278.430416 
L 345.814591 278.430416 
L 345.814591 274.59802 
L 346.463814 274.59802 
L 346.463814 270.765624 
L 346.857683 270.765624 
L 346.857683 266.933228 
L 347.261056 266.933228 
L 347.261056 263.100832 
L 347.786825 263.100832 
L 347.786825 259.268436 
L 348.477707 259.268436 
L 348.477707 255.43604 
L 348.598937 255.43604 
L 348.598937 251.603644 
L 348.71488 251.603644 
L 348.717433 243.938851 
L 349.247632 243.938851 
L 349.247632 240.106455 
L 349.894462 240.106455 
L 349.894462 236.274059 
L 350.209538 236.274059 
L 350.209538 232.441663 
L 350.346743 232.441663 
L 350.351179 224.776871 
L 350.614491 224.776871 
L 350.688083 217.112079 
L 350.773067 217.112079 
L 350.849405 201.782495 
L 350.918216 201.782495 
L 351.025624 182.620515 
L 351.039308 182.620515 
L 351.11569 167.290931 
L 351.154297 167.290931 
L 351.244178 155.793743 
L 351.289468 155.793743 
L 351.342139 144.296554 
L 351.408717 144.296554 
L 351.514231 125.134574 
L 351.536789 125.134574 
L 351.596915 113.637386 
L 351.687811 113.637386 
L 351.687811 109.80499 
L 351.881113 109.80499 
L 351.983129 98.307802 
L 352.041458 98.307802 
L 352.146291 82.978218 
L 352.19858 82.978218 
L 352.262987 71.48103 
L 352.520006 71.48103 
L 352.520006 67.648634 
L 352.656822 67.648634 
L 352.656822 63.816238 
L 409.072882 63.816238 
L 409.072882 59.983842 
L 409.445626 59.983842 
L 409.445626 56.151446 
L 410.804023 56.151446 
L 410.804023 52.31905 
L 412.23305 52.31905 
L 412.23305 48.486653 
L 412.50407 48.486653 
L 412.517416 40.821861 
L 412.83863 40.821861 
L 412.83863 36.989465 
L 417.888326 36.989465 
L 417.888326 33.157069 
L 419.669893 33.157069 
L 419.669893 29.324673 
L 420.489246 29.324673 
L 420.489246 25.492277 
L 421.228243 25.492277 
L 421.228243 21.659881 
L 422.30342 21.659881 
L 422.30342 17.827485 
L 423.399291 17.827485 
L 423.399291 13.995089 
L 423.700966 13.995089 
L 423.700966 10.162693 
L 423.961001 10.162693 
L 423.961001 6.330297 
L 423.961001 6.330297 
L 460.8 6.330297 
L 460.8 6.330297 
" clip-path="url(#p7caec6a020)" style="fill: none; stroke: #ff0000; stroke-width: 3; stroke-linecap: square"/>
   </g>
   <g id="line2d_22">
    <path d="M 345.814591 293.76 
L 345.814591 289.927604 
L 346.282363 289.927604 
L 346.282363 286.095208 
L 347.730355 286.095208 
L 347.730355 282.262812 
L 348.717433 282.262812 
L 348.767132 274.59802 
L 349.797788 274.59802 
L 349.797788 270.765624 
L 350.018184 270.765624 
L 350.018184 266.933228 
L 350.931951 266.933228 
L 350.981417 259.268436 
L 351.138668 259.268436 
L 351.244178 243.938851 
L 351.334423 243.938851 
L 351.424906 224.776871 
L 351.481271 224.776871 
L 351.536789 213.279683 
L 351.638233 213.279683 
L 351.638233 209.447287 
L 351.931341 209.447287 
L 352.041458 197.950099 
L 352.045004 197.950099 
L 352.088312 182.620515 
L 352.268101 182.620515 
L 352.379129 148.12895 
L 352.410941 148.12895 
L 352.468839 136.631762 
L 352.526998 136.631762 
L 352.611031 117.469782 
L 353.293523 117.469782 
L 353.349132 109.80499 
L 353.540399 109.80499 
L 353.561162 102.140198 
L 353.701517 102.140198 
L 353.798243 94.475406 
L 353.836763 94.475406 
L 353.935765 86.810614 
L 354.099141 86.810614 
L 354.187124 79.145822 
L 354.565032 79.145822 
L 354.61957 71.48103 
L 355.159904 71.48103 
L 355.159904 67.648634 
L 356.43656 67.648634 
L 356.43656 63.816238 
L 419.21669 63.816238 
L 419.21669 59.983842 
L 420.091978 59.983842 
L 420.091978 56.151446 
L 420.489246 56.151446 
L 420.489246 52.31905 
L 423.35852 52.31905 
L 423.35852 48.486653 
L 423.924582 48.486653 
L 423.998491 40.821861 
L 424.928824 40.821861 
L 424.928824 36.989465 
L 425.755308 36.989465 
L 425.755308 33.157069 
L 426.915147 33.157069 
L 426.915147 29.324673 
L 427.398407 29.324673 
L 427.398407 25.492277 
L 427.61465 25.492277 
L 427.61465 21.659881 
L 428.881892 21.659881 
L 428.881892 17.827485 
L 429.40222 17.827485 
L 429.416288 10.162693 
L 430.48287 10.162693 
L 430.48287 6.330297 
L 430.48287 6.330297 
L 460.8 6.330297 
L 460.8 6.330297 
" clip-path="url(#p7caec6a020)" style="fill: none; stroke: #00bfbf; stroke-width: 1.5; stroke-linecap: square"/>
   </g>
   <g id="line2d_23">
    <path d="M 345.814591 293.76 
L 345.814591 289.927604 
L 346.282363 289.927604 
L 346.282363 286.095208 
L 347.730355 286.095208 
L 347.786825 278.430416 
L 348.717433 278.430416 
L 348.767132 270.765624 
L 349.174301 270.765624 
L 349.174301 266.933228 
L 350.018184 266.933228 
L 350.018184 263.100832 
L 350.351179 263.100832 
L 350.351179 259.268436 
L 350.829474 259.268436 
L 350.931951 243.938851 
L 350.981417 243.938851 
L 351.039308 236.274059 
L 351.169749 236.274059 
L 351.244178 224.776871 
L 351.334423 224.776871 
L 351.424906 201.782495 
L 351.451626 201.782495 
L 351.536789 186.452911 
L 351.605316 186.452911 
L 351.685874 174.955723 
L 351.893223 174.955723 
L 351.983332 151.961347 
L 352.007726 151.961347 
L 352.10582 128.96697 
L 352.148696 128.96697 
L 352.161127 117.469782 
L 352.311154 117.469782 
L 352.368796 105.972594 
L 352.449644 105.972594 
L 352.556353 94.475406 
L 352.778186 94.475406 
L 352.778186 90.64301 
L 353.105979 90.64301 
L 353.105979 86.810614 
L 353.293523 86.810614 
L 353.368211 79.145822 
L 353.694236 79.145822 
L 353.798243 71.48103 
L 353.935765 71.48103 
L 353.935765 67.648634 
L 354.613101 67.648634 
L 354.613101 63.816238 
L 409.445626 63.816238 
L 409.445626 59.983842 
L 419.21669 59.983842 
L 419.21669 56.151446 
L 420.091978 56.151446 
L 420.091978 52.31905 
L 420.489246 52.31905 
L 420.489246 48.486653 
L 420.979944 48.486653 
L 420.979944 44.654257 
L 422.508478 44.654257 
L 422.508478 40.821861 
L 423.35852 40.821861 
L 423.35852 36.989465 
L 423.700966 36.989465 
L 423.700966 33.157069 
L 423.924582 33.157069 
L 423.998491 25.492277 
L 424.820227 25.492277 
L 424.820227 21.659881 
L 425.755308 21.659881 
L 425.755308 17.827485 
L 427.868312 17.827485 
L 427.868312 13.995089 
L 429.070392 13.995089 
L 429.070392 10.162693 
L 430.48287 10.162693 
L 430.48287 6.330297 
L 430.48287 6.330297 
L 460.8 6.330297 
L 460.8 6.330297 
" clip-path="url(#p7caec6a020)" style="fill: none; stroke: #bf00bf; stroke-width: 1.5; stroke-linecap: square"/>
   </g>
   <g id="line2d_24">
    <path d="M 344.672803 293.76 
L 344.672803 289.927604 
L 344.960148 289.927604 
L 344.960148 286.095208 
L 345.814591 286.095208 
L 345.814591 282.262812 
L 346.282363 282.262812 
L 346.282363 278.430416 
L 347.462335 278.430416 
L 347.462335 274.59802 
L 347.730355 274.59802 
L 347.786825 266.933228 
L 348.477707 266.933228 
L 348.477707 263.100832 
L 348.717433 263.100832 
L 348.717433 259.268436 
L 349.216783 259.268436 
L 349.247632 251.603644 
L 350.209538 251.603644 
L 350.209538 247.771248 
L 350.346743 247.771248 
L 350.351179 240.106455 
L 350.614491 240.106455 
L 350.688404 228.609267 
L 350.829474 228.609267 
L 350.931951 205.614891 
L 350.981417 205.614891 
L 351.039308 197.950099 
L 351.10447 197.950099 
L 351.10447 194.117703 
L 351.244178 194.117703 
L 351.345415 182.620515 
L 351.408717 182.620515 
L 351.451626 167.290931 
L 351.536789 167.290931 
L 351.639646 148.12895 
L 351.687811 148.12895 
L 351.79205 140.464158 
L 351.878475 140.464158 
L 351.975876 113.637386 
L 352.041458 113.637386 
L 352.148696 94.475406 
L 352.208176 94.475406 
L 352.316761 86.810614 
L 352.360502 86.810614 
L 352.414156 79.145822 
L 352.521162 79.145822 
L 352.521162 75.313426 
L 352.656822 75.313426 
L 352.656822 71.48103 
L 352.997242 71.48103 
L 352.997242 67.648634 
L 353.288957 67.648634 
L 353.288957 63.816238 
L 409.445626 63.816238 
L 409.445626 59.983842 
L 410.804023 59.983842 
L 410.804023 56.151446 
L 412.517416 56.151446 
L 412.517416 52.31905 
L 417.723773 52.31905 
L 417.723773 48.486653 
L 418.248198 48.486653 
L 418.248198 44.654257 
L 420.290593 44.654257 
L 420.290593 40.821861 
L 420.489246 40.821861 
L 420.489246 36.989465 
L 422.30342 36.989465 
L 422.30342 33.157069 
L 422.734322 33.157069 
L 422.757172 25.492277 
L 423.484601 25.492277 
L 423.484601 21.659881 
L 423.700966 21.659881 
L 423.700966 17.827485 
L 423.924582 17.827485 
L 423.961001 10.162693 
L 427.585695 10.162693 
L 427.585695 6.330297 
L 427.585695 6.330297 
L 460.8 6.330297 
L 460.8 6.330297 
" clip-path="url(#p7caec6a020)" style="fill: none; stroke: #000000; stroke-width: 1.5; stroke-linecap: square"/>
   </g>
   <g id="patch_3">
    <path d="M 0 293.76 
L 0 3.456 
" style="fill: none; stroke: #000000; stroke-width: 0.8; stroke-linejoin: miter; stroke-linecap: square"/>
   </g>
   <g id="patch_4">
    <path d="M 460.8 293.76 
L 460.8 3.456 
" style="fill: none; stroke: #000000; stroke-width: 0.8; stroke-linejoin: miter; stroke-linecap: square"/>
   </g>
   <g id="patch_5">
    <path d="M 0 293.76 
L 460.8 293.76 
" style="fill: none; stroke: #000000; stroke-width: 0.8; stroke-linejoin: miter; stroke-linecap: square"/>
   </g>
   <g id="patch_6">
    <path d="M 0 3.456 
L 460.8 3.456 
" style="fill: none; stroke: #000000; stroke-width: 0.8; stroke-linejoin: miter; stroke-linecap: square"/>
   </g>
   <g id="text_6">
    <!-- {f20-f24}, 40-D -->
    <g transform="translate(293.159 287.95392) scale(0.2 -0.2)">
     <defs>
      <path id="DejaVuSans-7b" d="M 3272 -594 
L 3272 -1044 
L 3078 -1044 
Q 2300 -1044 2036 -812 
Q 1772 -581 1772 109 
L 1772 856 
Q 1772 1328 1603 1509 
Q 1434 1691 991 1691 
L 800 1691 
L 800 2138 
L 991 2138 
Q 1438 2138 1605 2317 
Q 1772 2497 1772 2963 
L 1772 3713 
Q 1772 4403 2036 4633 
Q 2300 4863 3078 4863 
L 3272 4863 
L 3272 4416 
L 3059 4416 
Q 2619 4416 2484 4278 
Q 2350 4141 2350 3700 
L 2350 2925 
Q 2350 2434 2208 2212 
Q 2066 1991 1722 1913 
Q 2069 1828 2209 1606 
Q 2350 1384 2350 897 
L 2350 122 
Q 2350 -319 2484 -456 
Q 2619 -594 3059 -594 
L 3272 -594 
z
" transform="scale(0.015625)"/>
      <path id="DejaVuSans-7d" d="M 800 -594 
L 1019 -594 
Q 1456 -594 1589 -459 
Q 1722 -325 1722 122 
L 1722 897 
Q 1722 1384 1862 1606 
Q 2003 1828 2350 1913 
Q 2003 1991 1862 2212 
Q 1722 2434 1722 2925 
L 1722 3700 
Q 1722 4144 1589 4280 
Q 1456 4416 1019 4416 
L 800 4416 
L 800 4863 
L 997 4863 
Q 1775 4863 2036 4633 
Q 2297 4403 2297 3713 
L 2297 2963 
Q 2297 2497 2465 2317 
Q 2634 2138 3078 2138 
L 3272 2138 
L 3272 1691 
L 3078 1691 
Q 2634 1691 2465 1509 
Q 2297 1328 2297 856 
L 2297 109 
Q 2297 -581 2036 -812 
Q 1775 -1044 997 -1044 
L 800 -1044 
L 800 -594 
z
" transform="scale(0.015625)"/>
      <path id="DejaVuSans-2c" d="M 750 794 
L 1409 794 
L 1409 256 
L 897 -744 
L 494 -744 
L 750 256 
L 750 794 
z
" transform="scale(0.015625)"/>
     </defs>
     <use xlink:href="#DejaVuSans-7b"/>
     <use xlink:href="#DejaVuSans-66" x="63.623047"/>
     <use xlink:href="#DejaVuSans-32" x="98.828125"/>
     <use xlink:href="#DejaVuSans-30" x="162.451172"/>
     <use xlink:href="#DejaVuSans-2d" x="226.074219"/>
     <use xlink:href="#DejaVuSans-66" x="262.158203"/>
     <use xlink:href="#DejaVuSans-32" x="297.363281"/>
     <use xlink:href="#DejaVuSans-34" x="360.986328"/>
     <use xlink:href="#DejaVuSans-7d" x="424.609375"/>
     <use xlink:href="#DejaVuSans-2c" x="488.232422"/>
     <use xlink:href="#DejaVuSans-20" x="520.019531"/>
     <use xlink:href="#DejaVuSans-34" x="551.806641"/>
     <use xlink:href="#DejaVuSans-30" x="615.429688"/>
     <use xlink:href="#DejaVuSans-2d" x="679.052734"/>
     <use xlink:href="#DejaVuSans-44" x="715.136719"/>
    </g>
   </g>
   <g id="text_7">
    <!-- v2.6.4 -->
    <g style="fill: #808080" transform="translate(214.71875 288.777272) scale(0.1 -0.1)">
     <defs>
      <path id="DejaVuSans-76" d="M 191 3500 
L 800 3500 
L 1894 563 
L 2988 3500 
L 3597 3500 
L 2284 0 
L 1503 0 
L 191 3500 
z
" transform="scale(0.015625)"/>
      <path id="DejaVuSans-2e" d="M 684 794 
L 1344 794 
L 1344 0 
L 684 0 
L 684 794 
z
" transform="scale(0.015625)"/>
      <path id="DejaVuSans-36" d="M 2113 2584 
Q 1688 2584 1439 2293 
Q 1191 2003 1191 1497 
Q 1191 994 1439 701 
Q 1688 409 2113 409 
Q 2538 409 2786 701 
Q 3034 994 3034 1497 
Q 3034 2003 2786 2293 
Q 2538 2584 2113 2584 
z
M 3366 4563 
L 3366 3988 
Q 3128 4100 2886 4159 
Q 2644 4219 2406 4219 
Q 1781 4219 1451 3797 
Q 1122 3375 1075 2522 
Q 1259 2794 1537 2939 
Q 1816 3084 2150 3084 
Q 2853 3084 3261 2657 
Q 3669 2231 3669 1497 
Q 3669 778 3244 343 
Q 2819 -91 2113 -91 
Q 1303 -91 875 529 
Q 447 1150 447 2328 
Q 447 3434 972 4092 
Q 1497 4750 2381 4750 
Q 2619 4750 2861 4703 
Q 3103 4656 3366 4563 
z
" transform="scale(0.015625)"/>
     </defs>
     <use xlink:href="#DejaVuSans-76"/>
     <use xlink:href="#DejaVuSans-32" x="59.179688"/>
     <use xlink:href="#DejaVuSans-2e" x="122.802734"/>
     <use xlink:href="#DejaVuSans-36" x="154.589844"/>
     <use xlink:href="#DejaVuSans-2e" x="218.212891"/>
     <use xlink:href="#DejaVuSans-34" x="250"/>
    </g>
   </g>
  </g>
 </g>
 <defs>
  <clipPath id="p7caec6a020">
   <rect x="0" y="3.456" width="460.8" height="290.304"/>
  </clipPath>
 </defs>
</svg>
