<?xml version="1.0" encoding="utf-8" standalone="no"?>
<!DOCTYPE svg PUBLIC "-//W3C//DTD SVG 1.1//EN"
  "http://www.w3.org/Graphics/SVG/1.1/DTD/svg11.dtd">
<svg xmlns:xlink="http://www.w3.org/1999/xlink" width="460.8pt" height="345.6pt" viewBox="0 0 460.8 345.6" xmlns="http://www.w3.org/2000/svg" version="1.1">
 <metadata>
  <rdf:RDF xmlns:dc="http://purl.org/dc/elements/1.1/" xmlns:cc="http://creativecommons.org/ns#" xmlns:rdf="http://www.w3.org/1999/02/22-rdf-syntax-ns#">
   <cc:Work>
    <dc:type rdf:resource="http://purl.org/dc/dcmitype/StillImage"/>
    <dc:date>2024-10-07T17:44:40.122380</dc:date>
    <dc:format>image/svg+xml</dc:format>
    <dc:creator>
     <cc:Agent>
      <dc:title>Matplotlib v3.9.2, https://matplotlib.org/</dc:title>
     </cc:Agent>
    </dc:creator>
   </cc:Work>
  </rdf:RDF>
 </metadata>
 <defs>
  <style type="text/css">*{stroke-linejoin: round; stroke-linecap: butt}</style>
 </defs>
 <g id="figure_1">
  <g id="patch_1">
   <path d="M 0 345.6 
L 460.8 345.6 
L 460.8 0 
L 0 0 
z
" style="fill: #ffffff"/>
  </g>
  <g id="axes_1">
   <g id="patch_2">
    <path d="M 0 293.76 
L 460.8 293.76 
L 460.8 3.456 
L 0 3.456 
z
" style="fill: #ffffff"/>
   </g>
   <g id="matplotlib.axis_1">
    <g id="xtick_1">
     <g id="line2d_1">
      <path d="M 106.410055 293.76 
L 106.410055 3.456 
" clip-path="url(#pf4364b7059)" style="fill: none; stroke: #b0b0b0; stroke-width: 0.8; stroke-linecap: square"/>
     </g>
     <g id="line2d_2">
      <defs>
       <path id="m6327919edb" d="M 0 0 
L 0 3.5 
" style="stroke: #000000; stroke-width: 0.8"/>
      </defs>
      <g>
       <use xlink:href="#m6327919edb" x="106.410055" y="293.76" style="stroke: #000000; stroke-width: 0.8"/>
      </g>
     </g>
     <g id="text_1">
      <!-- -5 -->
      <g transform="translate(96.439743 315.956875) scale(0.2 -0.2)">
       <defs>
        <path id="DejaVuSans-2d" d="M 313 2009 
L 1997 2009 
L 1997 1497 
L 313 1497 
L 313 2009 
z
" transform="scale(0.015625)"/>
        <path id="DejaVuSans-35" d="M 691 4666 
L 3169 4666 
L 3169 4134 
L 1269 4134 
L 1269 2991 
Q 1406 3038 1543 3061 
Q 1681 3084 1819 3084 
Q 2600 3084 3056 2656 
Q 3513 2228 3513 1497 
Q 3513 744 3044 326 
Q 2575 -91 1722 -91 
Q 1428 -91 1123 -41 
Q 819 9 494 109 
L 494 744 
Q 775 591 1075 516 
Q 1375 441 1709 441 
Q 2250 441 2565 725 
Q 2881 1009 2881 1497 
Q 2881 1984 2565 2268 
Q 2250 2553 1709 2553 
Q 1456 2553 1204 2497 
Q 953 2441 691 2322 
L 691 4666 
z
" transform="scale(0.015625)"/>
       </defs>
       <use xlink:href="#DejaVuSans-2d"/>
       <use xlink:href="#DejaVuSans-35" x="36.083984"/>
      </g>
     </g>
    </g>
    <g id="xtick_2">
     <g id="line2d_3">
      <path d="M 212.97361 293.76 
L 212.97361 3.456 
" clip-path="url(#pf4364b7059)" style="fill: none; stroke: #b0b0b0; stroke-width: 0.8; stroke-linecap: square"/>
     </g>
     <g id="line2d_4">
      <g>
       <use xlink:href="#m6327919edb" x="212.97361" y="293.76" style="stroke: #000000; stroke-width: 0.8"/>
      </g>
     </g>
     <g id="text_2">
      <!-- -2 -->
      <g transform="translate(203.003298 315.956875) scale(0.2 -0.2)">
       <defs>
        <path id="DejaVuSans-32" d="M 1228 531 
L 3431 531 
L 3431 0 
L 469 0 
L 469 531 
Q 828 903 1448 1529 
Q 2069 2156 2228 2338 
Q 2531 2678 2651 2914 
Q 2772 3150 2772 3378 
Q 2772 3750 2511 3984 
Q 2250 4219 1831 4219 
Q 1534 4219 1204 4116 
Q 875 4013 500 3803 
L 500 4441 
Q 881 4594 1212 4672 
Q 1544 4750 1819 4750 
Q 2544 4750 2975 4387 
Q 3406 4025 3406 3419 
Q 3406 3131 3298 2873 
Q 3191 2616 2906 2266 
Q 2828 2175 2409 1742 
Q 1991 1309 1228 531 
z
" transform="scale(0.015625)"/>
       </defs>
       <use xlink:href="#DejaVuSans-2d"/>
       <use xlink:href="#DejaVuSans-32" x="36.083984"/>
      </g>
     </g>
    </g>
    <g id="xtick_3">
     <g id="line2d_5">
      <path d="M 319.537166 293.76 
L 319.537166 3.456 
" clip-path="url(#pf4364b7059)" style="fill: none; stroke: #b0b0b0; stroke-width: 0.8; stroke-linecap: square"/>
     </g>
     <g id="line2d_6">
      <g>
       <use xlink:href="#m6327919edb" x="319.537166" y="293.76" style="stroke: #000000; stroke-width: 0.8"/>
      </g>
     </g>
     <g id="text_3">
      <!-- 1 -->
      <g transform="translate(313.174666 315.956875) scale(0.2 -0.2)">
       <defs>
        <path id="DejaVuSans-31" d="M 794 531 
L 1825 531 
L 1825 4091 
L 703 3866 
L 703 4441 
L 1819 4666 
L 2450 4666 
L 2450 531 
L 3481 531 
L 3481 0 
L 794 0 
L 794 531 
z
" transform="scale(0.015625)"/>
       </defs>
       <use xlink:href="#DejaVuSans-31"/>
      </g>
     </g>
    </g>
    <g id="xtick_4">
     <g id="line2d_7">
      <path d="M 426.100721 293.76 
L 426.100721 3.456 
" clip-path="url(#pf4364b7059)" style="fill: none; stroke: #b0b0b0; stroke-width: 0.8; stroke-linecap: square"/>
     </g>
     <g id="line2d_8">
      <g>
       <use xlink:href="#m6327919edb" x="426.100721" y="293.76" style="stroke: #000000; stroke-width: 0.8"/>
      </g>
     </g>
     <g id="text_4">
      <!-- 4 -->
      <g transform="translate(419.738221 315.956875) scale(0.2 -0.2)">
       <defs>
        <path id="DejaVuSans-34" d="M 2419 4116 
L 825 1625 
L 2419 1625 
L 2419 4116 
z
M 2253 4666 
L 3047 4666 
L 3047 1625 
L 3713 1625 
L 3713 1100 
L 3047 1100 
L 3047 0 
L 2419 0 
L 2419 1100 
L 313 1100 
L 313 1709 
L 2253 4666 
z
" transform="scale(0.015625)"/>
       </defs>
       <use xlink:href="#DejaVuSans-34"/>
      </g>
     </g>
    </g>
    <g id="text_5">
     <!-- log10 of Df -->
     <g transform="translate(175.214063 339.313125) scale(0.2 -0.2)">
      <defs>
       <path id="DejaVuSans-6c" d="M 603 4863 
L 1178 4863 
L 1178 0 
L 603 0 
L 603 4863 
z
" transform="scale(0.015625)"/>
       <path id="DejaVuSans-6f" d="M 1959 3097 
Q 1497 3097 1228 2736 
Q 959 2375 959 1747 
Q 959 1119 1226 758 
Q 1494 397 1959 397 
Q 2419 397 2687 759 
Q 2956 1122 2956 1747 
Q 2956 2369 2687 2733 
Q 2419 3097 1959 3097 
z
M 1959 3584 
Q 2709 3584 3137 3096 
Q 3566 2609 3566 1747 
Q 3566 888 3137 398 
Q 2709 -91 1959 -91 
Q 1206 -91 779 398 
Q 353 888 353 1747 
Q 353 2609 779 3096 
Q 1206 3584 1959 3584 
z
" transform="scale(0.015625)"/>
       <path id="DejaVuSans-67" d="M 2906 1791 
Q 2906 2416 2648 2759 
Q 2391 3103 1925 3103 
Q 1463 3103 1205 2759 
Q 947 2416 947 1791 
Q 947 1169 1205 825 
Q 1463 481 1925 481 
Q 2391 481 2648 825 
Q 2906 1169 2906 1791 
z
M 3481 434 
Q 3481 -459 3084 -895 
Q 2688 -1331 1869 -1331 
Q 1566 -1331 1297 -1286 
Q 1028 -1241 775 -1147 
L 775 -588 
Q 1028 -725 1275 -790 
Q 1522 -856 1778 -856 
Q 2344 -856 2625 -561 
Q 2906 -266 2906 331 
L 2906 616 
Q 2728 306 2450 153 
Q 2172 0 1784 0 
Q 1141 0 747 490 
Q 353 981 353 1791 
Q 353 2603 747 3093 
Q 1141 3584 1784 3584 
Q 2172 3584 2450 3431 
Q 2728 3278 2906 2969 
L 2906 3500 
L 3481 3500 
L 3481 434 
z
" transform="scale(0.015625)"/>
       <path id="DejaVuSans-30" d="M 2034 4250 
Q 1547 4250 1301 3770 
Q 1056 3291 1056 2328 
Q 1056 1369 1301 889 
Q 1547 409 2034 409 
Q 2525 409 2770 889 
Q 3016 1369 3016 2328 
Q 3016 3291 2770 3770 
Q 2525 4250 2034 4250 
z
M 2034 4750 
Q 2819 4750 3233 4129 
Q 3647 3509 3647 2328 
Q 3647 1150 3233 529 
Q 2819 -91 2034 -91 
Q 1250 -91 836 529 
Q 422 1150 422 2328 
Q 422 3509 836 4129 
Q 1250 4750 2034 4750 
z
" transform="scale(0.015625)"/>
       <path id="DejaVuSans-20" transform="scale(0.015625)"/>
       <path id="DejaVuSans-66" d="M 2375 4863 
L 2375 4384 
L 1825 4384 
Q 1516 4384 1395 4259 
Q 1275 4134 1275 3809 
L 1275 3500 
L 2222 3500 
L 2222 3053 
L 1275 3053 
L 1275 0 
L 697 0 
L 697 3053 
L 147 3053 
L 147 3500 
L 697 3500 
L 697 3744 
Q 697 4328 969 4595 
Q 1241 4863 1831 4863 
L 2375 4863 
z
" transform="scale(0.015625)"/>
       <path id="DejaVuSans-44" d="M 1259 4147 
L 1259 519 
L 2022 519 
Q 2988 519 3436 956 
Q 3884 1394 3884 2338 
Q 3884 3275 3436 3711 
Q 2988 4147 2022 4147 
L 1259 4147 
z
M 628 4666 
L 1925 4666 
Q 3281 4666 3915 4102 
Q 4550 3538 4550 2338 
Q 4550 1131 3912 565 
Q 3275 0 1925 0 
L 628 0 
L 628 4666 
z
" transform="scale(0.015625)"/>
      </defs>
      <use xlink:href="#DejaVuSans-6c"/>
      <use xlink:href="#DejaVuSans-6f" x="27.783203"/>
      <use xlink:href="#DejaVuSans-67" x="88.964844"/>
      <use xlink:href="#DejaVuSans-31" x="152.441406"/>
      <use xlink:href="#DejaVuSans-30" x="216.064453"/>
      <use xlink:href="#DejaVuSans-20" x="279.6875"/>
      <use xlink:href="#DejaVuSans-6f" x="311.474609"/>
      <use xlink:href="#DejaVuSans-66" x="372.65625"/>
      <use xlink:href="#DejaVuSans-20" x="407.861328"/>
      <use xlink:href="#DejaVuSans-44" x="439.648438"/>
      <use xlink:href="#DejaVuSans-66" x="516.650391"/>
     </g>
    </g>
   </g>
   <g id="matplotlib.axis_2">
    <g id="ytick_1">
     <g id="line2d_9">
      <path d="M 0 293.76 
L 460.8 293.76 
" clip-path="url(#pf4364b7059)" style="fill: none; stroke: #b0b0b0; stroke-width: 0.8; stroke-linecap: square"/>
     </g>
     <g id="line2d_10">
      <defs>
       <path id="ma99f93abfc" d="M 0 0 
L -3.5 0 
" style="stroke: #000000; stroke-width: 0.8"/>
      </defs>
      <g>
       <use xlink:href="#ma99f93abfc" x="0" y="293.76" style="stroke: #000000; stroke-width: 0.8"/>
      </g>
     </g>
    </g>
    <g id="ytick_2">
     <g id="line2d_11">
      <path d="M 0 236.274059 
L 460.8 236.274059 
" clip-path="url(#pf4364b7059)" style="fill: none; stroke: #b0b0b0; stroke-width: 0.8; stroke-linecap: square"/>
     </g>
     <g id="line2d_12">
      <g>
       <use xlink:href="#ma99f93abfc" x="0" y="236.274059" style="stroke: #000000; stroke-width: 0.8"/>
      </g>
     </g>
    </g>
    <g id="ytick_3">
     <g id="line2d_13">
      <path d="M 0 178.788119 
L 460.8 178.788119 
" clip-path="url(#pf4364b7059)" style="fill: none; stroke: #b0b0b0; stroke-width: 0.8; stroke-linecap: square"/>
     </g>
     <g id="line2d_14">
      <g>
       <use xlink:href="#ma99f93abfc" x="0" y="178.788119" style="stroke: #000000; stroke-width: 0.8"/>
      </g>
     </g>
    </g>
    <g id="ytick_4">
     <g id="line2d_15">
      <path d="M 0 121.302178 
L 460.8 121.302178 
" clip-path="url(#pf4364b7059)" style="fill: none; stroke: #b0b0b0; stroke-width: 0.8; stroke-linecap: square"/>
     </g>
     <g id="line2d_16">
      <g>
       <use xlink:href="#ma99f93abfc" x="0" y="121.302178" style="stroke: #000000; stroke-width: 0.8"/>
      </g>
     </g>
    </g>
    <g id="ytick_5">
     <g id="line2d_17">
      <path d="M 0 63.816238 
L 460.8 63.816238 
" clip-path="url(#pf4364b7059)" style="fill: none; stroke: #b0b0b0; stroke-width: 0.8; stroke-linecap: square"/>
     </g>
     <g id="line2d_18">
      <g>
       <use xlink:href="#ma99f93abfc" x="0" y="63.816238" style="stroke: #000000; stroke-width: 0.8"/>
      </g>
     </g>
    </g>
    <g id="ytick_6">
     <g id="line2d_19">
      <path d="M 0 6.330297 
L 460.8 6.330297 
" clip-path="url(#pf4364b7059)" style="fill: none; stroke: #b0b0b0; stroke-width: 0.8; stroke-linecap: square"/>
     </g>
     <g id="line2d_20">
      <g>
       <use xlink:href="#ma99f93abfc" x="0" y="6.330297" style="stroke: #000000; stroke-width: 0.8"/>
      </g>
     </g>
    </g>
   </g>
   <g id="line2d_21">
    <path d="M 296.873956 293.76 
L 296.873956 292.961584 
L 297.884406 292.961584 
L 297.884406 292.163168 
L 300.682473 292.163168 
L 300.682473 291.364752 
L 300.969099 291.364752 
L 300.969099 290.566337 
L 304.304575 290.566337 
L 304.304575 289.767921 
L 308.638966 289.767921 
L 308.638966 288.969505 
L 311.177882 288.969505 
L 311.177882 288.171089 
L 313.652486 288.171089 
L 313.652486 287.372673 
L 318.06638 287.372673 
L 318.06638 286.574257 
L 318.557803 286.574257 
L 318.557803 285.775842 
L 321.598527 285.775842 
L 321.598527 284.977426 
L 322.029116 284.977426 
L 322.029116 284.17901 
L 337.392519 284.17901 
L 337.392519 283.380594 
L 338.173382 283.380594 
L 338.173382 282.582178 
L 339.061071 282.582178 
L 339.061071 281.783762 
L 339.82983 281.783762 
L 339.872901 279.388515 
L 339.971057 279.388515 
L 339.971057 278.590099 
L 340.436163 278.590099 
L 340.436163 277.791683 
L 340.557903 277.791683 
L 340.583678 276.194851 
L 340.6794 276.194851 
L 340.697191 274.59802 
L 341.3292 274.59802 
L 341.3292 273.799604 
L 341.516537 273.799604 
L 341.516537 273.001188 
L 342.047023 273.001188 
L 342.082666 271.404356 
L 342.190323 271.404356 
L 342.230179 269.807525 
L 342.484827 269.807525 
L 342.484827 269.009109 
L 342.719247 269.009109 
L 342.816733 266.613861 
L 342.982402 266.613861 
L 343.004176 265.01703 
L 343.172489 265.01703 
L 343.253429 262.621782 
L 343.406408 262.621782 
L 343.406408 261.823366 
L 343.590041 261.823366 
L 343.590041 261.02495 
L 343.765769 261.02495 
L 343.776024 259.428119 
L 344.036728 259.428119 
L 344.053591 257.831287 
L 344.230097 257.831287 
L 344.270358 256.234455 
L 344.473182 256.234455 
L 344.473182 255.43604 
L 344.618513 255.43604 
L 344.672803 253.839208 
L 344.749718 253.839208 
L 344.749718 253.040792 
L 344.960148 253.040792 
L 344.960148 252.242376 
L 345.288213 252.242376 
L 345.288213 251.44396 
L 345.490265 251.44396 
L 345.550961 249.847129 
L 345.631247 249.847129 
L 345.631247 249.048713 
L 345.814591 249.048713 
L 345.814591 248.250297 
L 346.250059 248.250297 
L 346.250059 247.451881 
L 346.463814 247.451881 
L 346.463814 246.653465 
L 346.857683 246.653465 
L 346.857683 245.85505 
L 347.261056 245.85505 
L 347.261056 245.056634 
L 347.709415 245.056634 
L 347.786825 243.459802 
L 348.296597 243.459802 
L 348.296597 242.661386 
L 348.477707 242.661386 
L 348.493269 241.064554 
L 348.598937 241.064554 
L 348.598937 240.266139 
L 348.71488 240.266139 
L 348.717433 238.669307 
L 349.247632 238.669307 
L 349.247632 237.870891 
L 349.894462 237.870891 
L 349.894462 237.072475 
L 350.209538 237.072475 
L 350.209538 236.274059 
L 350.346743 236.274059 
L 350.351179 234.677228 
L 350.594109 234.677228 
L 350.688083 232.28198 
L 350.773067 232.28198 
L 350.849405 229.088317 
L 350.918216 229.088317 
L 351.025624 225.096238 
L 351.039308 225.096238 
L 351.11569 221.902574 
L 351.154297 221.902574 
L 351.244178 219.507327 
L 351.289468 219.507327 
L 351.342139 217.112079 
L 351.408717 217.112079 
L 351.514231 213.12 
L 351.536789 213.12 
L 351.596915 210.724752 
L 351.687811 210.724752 
L 351.687811 209.926337 
L 351.881113 209.926337 
L 351.983129 207.531089 
L 352.041458 207.531089 
L 352.146291 204.337426 
L 352.19858 204.337426 
L 352.262987 201.942178 
L 352.312197 201.942178 
L 352.312197 201.143762 
L 352.520006 201.143762 
L 352.520006 200.345347 
L 352.656822 200.345347 
L 352.707268 198.748515 
L 353.224425 198.748515 
L 353.224425 197.950099 
L 353.489957 197.950099 
L 353.489957 197.151683 
L 353.824806 197.151683 
L 353.824806 196.353267 
L 354.146613 196.353267 
L 354.252752 194.756436 
L 354.910982 194.756436 
L 354.985297 192.361188 
L 355.149633 192.361188 
L 355.149633 191.562772 
L 355.31085 191.562772 
L 355.31085 190.764356 
L 355.582369 190.764356 
L 355.582369 189.965941 
L 356.063869 189.965941 
L 356.17485 188.369109 
L 356.205665 188.369109 
L 356.205665 187.570693 
L 356.488821 187.570693 
L 356.530615 184.37703 
L 356.800981 184.37703 
L 356.800981 183.578614 
L 356.922769 183.578614 
L 356.922769 182.780198 
L 357.056937 182.780198 
L 357.061427 181.183366 
L 357.22347 181.183366 
L 357.331673 177.191287 
L 357.610824 177.191287 
L 357.610824 176.392871 
L 357.90423 176.392871 
L 358.0145 174.79604 
L 358.163904 174.79604 
L 358.165743 173.199208 
L 358.311395 173.199208 
L 358.372814 170.80396 
L 358.471056 170.80396 
L 358.471056 170.005545 
L 358.599199 170.005545 
L 358.678695 166.811881 
L 358.90416 166.811881 
L 358.978475 164.416634 
L 359.050862 164.416634 
L 359.050862 163.618218 
L 359.165724 163.618218 
L 359.226794 162.021386 
L 359.328346 162.021386 
L 359.355229 159.626139 
L 359.477051 159.626139 
L 359.480378 158.029307 
L 359.595851 158.029307 
L 359.668659 154.835644 
L 359.787982 154.835644 
L 359.787982 154.037228 
L 359.943691 154.037228 
L 359.997646 149.246733 
L 360.090265 149.246733 
L 360.163533 146.851485 
L 360.208034 146.851485 
L 360.22085 145.254653 
L 360.355641 145.254653 
L 360.355641 144.456238 
L 360.978349 144.456238 
L 361.020036 142.859406 
L 361.719226 142.859406 
L 361.740324 141.262574 
L 361.866794 141.262574 
L 361.866794 140.464158 
L 361.999241 140.464158 
L 361.999241 139.665743 
L 362.140262 139.665743 
L 362.247407 138.068911 
L 362.283692 138.068911 
L 362.382732 136.472079 
L 362.425263 136.472079 
L 362.425263 135.673663 
L 362.548806 135.673663 
L 362.613452 134.076832 
L 362.673977 134.076832 
L 362.684717 132.48 
L 363.39709 132.48 
L 363.45867 130.883168 
L 363.976924 130.883168 
L 363.976924 130.084752 
L 364.177259 130.084752 
L 364.177259 129.286337 
L 364.495431 129.286337 
L 364.495431 128.487921 
L 364.672713 128.487921 
L 364.732967 126.891089 
L 365.943307 126.891089 
L 365.993917 125.294257 
L 367.329303 125.294257 
L 367.358751 123.697426 
L 367.981047 123.697426 
L 367.981047 122.89901 
L 368.11866 122.89901 
L 368.194683 121.302178 
L 368.912056 121.302178 
L 368.912056 120.503762 
L 369.420812 120.503762 
L 369.420812 119.705347 
L 369.538814 119.705347 
L 369.538814 118.906931 
L 369.781947 118.906931 
L 369.868748 117.310099 
L 369.997915 117.310099 
L 370.038082 115.713267 
L 370.62428 115.713267 
L 370.62428 114.914851 
L 371.067943 114.914851 
L 371.067943 114.116436 
L 372.562194 114.116436 
L 372.562194 113.31802 
L 373.562633 113.31802 
L 373.562633 112.519604 
L 374.294912 112.519604 
L 374.294912 111.721188 
L 375.077063 111.721188 
L 375.160882 110.124356 
L 375.738117 110.124356 
L 375.738117 109.325941 
L 376.093546 109.325941 
L 376.093546 108.527525 
L 376.268495 108.527525 
L 376.268495 107.729109 
L 376.56804 107.729109 
L 376.657499 106.132277 
L 376.941986 106.132277 
L 376.943406 104.535446 
L 377.222368 104.535446 
L 377.236534 102.938614 
L 377.357218 102.938614 
L 377.357218 102.140198 
L 377.643553 102.140198 
L 377.643553 101.341782 
L 378.068345 101.341782 
L 378.068345 100.543366 
L 378.220515 100.543366 
L 378.312646 98.946535 
L 379.601897 98.946535 
L 379.601897 98.148119 
L 380.050188 98.148119 
L 380.050188 97.349703 
L 380.473526 97.349703 
L 380.473526 96.551287 
L 380.800246 96.551287 
L 380.800246 95.752871 
L 381.647448 95.752871 
L 381.647448 94.954455 
L 382.1661 94.954455 
L 382.1661 94.15604 
L 382.788839 94.15604 
L 382.788839 93.357624 
L 383.902809 93.357624 
L 383.902809 92.559208 
L 384.041937 92.559208 
L 384.041937 91.760792 
L 384.739182 91.760792 
L 384.760849 90.16396 
L 385.23866 90.16396 
L 385.23866 89.365545 
L 385.881263 89.365545 
L 385.881263 88.567129 
L 386.256425 88.567129 
L 386.256425 87.768713 
L 389.11684 87.768713 
L 389.11684 86.970297 
L 389.264443 86.970297 
L 389.264443 86.171881 
L 389.500178 86.171881 
L 389.500178 85.373465 
L 391.380488 85.373465 
L 391.440855 83.776634 
L 392.402014 83.776634 
L 392.402014 82.978218 
L 392.677781 82.978218 
L 392.677781 82.179802 
L 393.478037 82.179802 
L 393.478037 81.381386 
L 394.164821 81.381386 
L 394.164821 80.58297 
L 394.801115 80.58297 
L 394.801115 79.784554 
L 395.689403 79.784554 
L 395.689403 78.986139 
L 395.95776 78.986139 
L 395.95776 78.187723 
L 396.084884 78.187723 
L 396.084884 77.389307 
L 396.633728 77.389307 
L 396.633728 76.590891 
L 397.037519 76.590891 
L 397.037519 75.792475 
L 398.178544 75.792475 
L 398.178544 74.994059 
L 398.352684 74.994059 
L 398.360092 73.397228 
L 398.830145 73.397228 
L 398.830145 72.598812 
L 398.958713 72.598812 
L 398.958713 71.800396 
L 399.813521 71.800396 
L 399.813521 71.00198 
L 400.125252 71.00198 
L 400.206009 69.405149 
L 400.739468 69.405149 
L 400.739468 68.606733 
L 402.812536 68.606733 
L 402.812536 67.808317 
L 403.322695 67.808317 
L 403.322695 67.009901 
L 403.451788 67.009901 
L 403.451788 66.211485 
L 403.727616 66.211485 
L 403.727616 65.413069 
L 404.30076 65.413069 
L 404.30076 64.614653 
L 404.920186 64.614653 
L 404.920186 63.816238 
L 407.835889 63.816238 
L 407.835889 63.017822 
L 408.302264 63.017822 
L 408.374664 61.42099 
L 408.6275 61.42099 
L 408.6275 60.622574 
L 409.072882 60.622574 
L 409.072882 59.824158 
L 409.445626 59.824158 
L 409.445626 59.025743 
L 410.804023 59.025743 
L 410.804023 58.227327 
L 412.23305 58.227327 
L 412.23305 57.428911 
L 412.377806 57.428911 
L 412.377806 56.630495 
L 412.50407 56.630495 
L 412.517416 55.033663 
L 412.83863 55.033663 
L 412.869345 53.436832 
L 413.01487 53.436832 
L 413.01487 52.638416 
L 413.253265 52.638416 
L 413.253265 51.84 
L 413.386642 51.84 
L 413.386642 51.041584 
L 414.163585 51.041584 
L 414.163585 50.243168 
L 414.468003 50.243168 
L 414.468003 49.444752 
L 414.674985 49.444752 
L 414.674985 48.646337 
L 415.193365 48.646337 
L 415.193365 47.847921 
L 415.40841 47.847921 
L 415.40841 47.049505 
L 415.661849 47.049505 
L 415.661849 46.251089 
L 415.820097 46.251089 
L 415.908918 44.654257 
L 416.39025 44.654257 
L 416.39025 43.855842 
L 416.884438 43.855842 
L 416.971324 42.25901 
L 417.265878 42.25901 
L 417.265878 41.460594 
L 417.467962 41.460594 
L 417.562213 39.863762 
L 417.619414 39.863762 
L 417.645164 38.266931 
L 417.866792 38.266931 
L 417.888326 35.871683 
L 418.283884 35.871683 
L 418.283884 35.073267 
L 419.041464 35.073267 
L 419.041464 34.274851 
L 419.155422 34.274851 
L 419.223992 32.67802 
L 419.613642 32.67802 
L 419.669893 31.081188 
L 419.799682 31.081188 
L 419.799682 30.282772 
L 420.489246 30.282772 
L 420.592115 28.685941 
L 420.617701 28.685941 
L 420.617701 27.887525 
L 421.228243 27.887525 
L 421.228243 27.089109 
L 421.507447 27.089109 
L 421.507447 26.290693 
L 421.79691 26.290693 
L 421.79691 25.492277 
L 421.962271 25.492277 
L 421.962271 24.693861 
L 422.30342 24.693861 
L 422.30342 23.895446 
L 423.192231 23.895446 
L 423.192231 23.09703 
L 423.399291 23.09703 
L 423.399291 22.298614 
L 423.700966 22.298614 
L 423.700966 21.500198 
L 423.961001 21.500198 
L 423.961001 20.701782 
L 425.294829 20.701782 
L 425.385901 19.10495 
L 427.531854 19.10495 
L 427.531854 18.306535 
L 434.904633 18.306535 
L 434.904633 17.508119 
L 435.42861 17.508119 
L 435.42861 16.709703 
L 436.180802 16.709703 
L 436.180802 15.911287 
L 436.99875 15.911287 
L 436.99875 15.112871 
L 438.633209 15.112871 
L 438.731301 13.51604 
L 439.872161 13.51604 
L 439.872161 12.717624 
L 441.090125 12.717624 
L 441.114097 11.120792 
L 441.202163 11.120792 
L 441.246806 9.52396 
L 442.133039 9.52396 
L 442.227302 7.128713 
L 451.007016 7.128713 
L 451.007016 6.330297 
L 451.007016 6.330297 
L 460.8 6.330297 
L 460.8 6.330297 
" clip-path="url(#pf4364b7059)" style="fill: none; stroke: #ff0000; stroke-width: 3; stroke-linecap: square"/>
   </g>
   <g id="line2d_22">
    <path d="M 328.869081 293.76 
L 328.869081 292.961584 
L 334.684182 292.961584 
L 334.684182 292.163168 
L 337.567832 292.163168 
L 337.567832 291.364752 
L 340.3649 291.364752 
L 340.3649 290.566337 
L 342.998654 290.566337 
L 342.998654 289.767921 
L 343.734724 289.767921 
L 343.734724 288.969505 
L 344.307888 288.969505 
L 344.390069 287.372673 
L 344.638855 287.372673 
L 344.653606 285.775842 
L 344.781508 285.775842 
L 344.781508 284.977426 
L 345.027278 284.977426 
L 345.027278 284.17901 
L 345.153118 284.17901 
L 345.153118 283.380594 
L 345.288213 283.380594 
L 345.288213 282.582178 
L 345.446996 282.582178 
L 345.446996 281.783762 
L 345.814591 281.783762 
L 345.921911 279.388515 
L 345.953183 279.388515 
L 345.953183 278.590099 
L 346.282363 278.590099 
L 346.392173 276.993267 
L 346.427807 276.993267 
L 346.522558 275.396436 
L 346.546245 275.396436 
L 346.546245 274.59802 
L 346.804355 274.59802 
L 346.804355 273.799604 
L 347.188709 273.799604 
L 347.188709 273.001188 
L 347.365736 273.001188 
L 347.442721 271.404356 
L 347.636091 271.404356 
L 347.730355 269.807525 
L 348.127789 269.807525 
L 348.127789 269.009109 
L 348.253504 269.009109 
L 348.253504 268.210693 
L 348.565334 268.210693 
L 348.580757 266.613861 
L 348.717433 266.613861 
L 348.774083 264.218614 
L 348.986304 264.218614 
L 348.986304 263.420198 
L 349.119207 263.420198 
L 349.119207 262.621782 
L 349.283224 262.621782 
L 349.283224 261.823366 
L 349.492735 261.823366 
L 349.492735 261.02495 
L 349.701377 261.02495 
L 349.797788 258.629703 
L 350.018184 258.629703 
L 350.018184 257.831287 
L 350.308528 257.831287 
L 350.308528 257.032871 
L 350.511912 257.032871 
L 350.511912 256.234455 
L 350.688379 256.234455 
L 350.688379 255.43604 
L 350.882273 255.43604 
L 350.981417 253.040792 
L 351.138668 253.040792 
L 351.244178 249.847129 
L 351.334423 249.847129 
L 351.424906 245.85505 
L 351.481271 245.85505 
L 351.536789 243.459802 
L 351.638233 243.459802 
L 351.638233 242.661386 
L 351.931341 242.661386 
L 352.041458 239.467723 
L 352.045004 239.467723 
L 352.115074 235.475644 
L 352.268101 235.475644 
L 352.379129 228.289901 
L 352.410941 228.289901 
L 352.468839 225.894653 
L 352.526998 225.894653 
L 352.611031 221.902574 
L 352.968558 221.902574 
L 352.968558 221.104158 
L 353.293523 221.104158 
L 353.349132 219.507327 
L 353.540399 219.507327 
L 353.561162 217.910495 
L 353.652407 217.910495 
L 353.701517 215.515248 
L 353.798243 215.515248 
L 353.836763 213.918416 
L 353.935765 213.918416 
L 353.935765 213.12 
L 354.099141 213.12 
L 354.187124 211.523168 
L 354.565032 211.523168 
L 354.61957 209.926337 
L 354.865539 209.926337 
L 354.910982 208.329505 
L 355.063013 208.329505 
L 355.159904 206.732673 
L 355.582369 206.732673 
L 355.582369 205.934257 
L 356.43656 205.934257 
L 356.43656 205.135842 
L 357.474203 205.135842 
L 357.474203 204.337426 
L 357.898818 204.337426 
L 357.990913 202.740594 
L 358.059159 202.740594 
L 358.059159 201.942178 
L 358.458198 201.942178 
L 358.458198 201.143762 
L 358.851422 201.143762 
L 358.851422 200.345347 
L 359.3285 200.345347 
L 359.371512 198.748515 
L 359.480378 198.748515 
L 359.50328 197.151683 
L 359.595851 197.151683 
L 359.697067 192.361188 
L 359.808016 192.361188 
L 359.808016 191.562772 
L 359.937318 191.562772 
L 360.043165 188.369109 
L 360.153249 188.369109 
L 360.179432 186.772277 
L 360.356108 186.772277 
L 360.463798 185.175446 
L 360.642955 185.175446 
L 360.747303 183.578614 
L 360.822363 183.578614 
L 360.922671 180.38495 
L 360.978349 180.38495 
L 360.978349 179.586535 
L 361.379744 179.586535 
L 361.424491 177.989703 
L 361.689063 177.989703 
L 361.689063 177.191287 
L 361.9633 177.191287 
L 362.03516 174.79604 
L 362.100346 174.79604 
L 362.141308 172.400792 
L 362.270688 172.400792 
L 362.270688 171.602376 
L 362.382732 171.602376 
L 362.382732 170.80396 
L 362.498223 170.80396 
L 362.498223 170.005545 
L 362.656909 170.005545 
L 362.712455 167.610297 
L 362.774454 167.610297 
L 362.848128 165.21505 
L 362.89583 165.21505 
L 362.927356 162.819802 
L 363.051489 162.819802 
L 363.150268 161.22297 
L 363.280336 161.22297 
L 363.280336 160.424554 
L 363.49469 160.424554 
L 363.520993 158.827723 
L 363.64478 158.827723 
L 363.70185 157.230891 
L 363.848421 157.230891 
L 363.848421 156.432475 
L 363.976924 156.432475 
L 363.99192 154.835644 
L 364.635774 154.835644 
L 364.682177 152.440396 
L 364.783346 152.440396 
L 364.877702 150.045149 
L 364.921869 150.045149 
L 364.926355 148.448317 
L 365.707184 148.448317 
L 365.795515 146.851485 
L 365.82012 146.851485 
L 365.885038 143.657822 
L 366.012619 143.657822 
L 366.012619 142.859406 
L 366.425562 142.859406 
L 366.425562 142.06099 
L 366.730454 142.06099 
L 366.730454 141.262574 
L 366.912453 141.262574 
L 366.984474 138.068911 
L 367.329303 138.068911 
L 367.329303 137.270495 
L 367.461546 137.270495 
L 367.461546 136.472079 
L 368.036745 136.472079 
L 368.036745 135.673663 
L 368.169354 135.673663 
L 368.169354 134.875248 
L 368.647166 134.875248 
L 368.647166 134.076832 
L 368.791415 134.076832 
L 368.791415 133.278416 
L 369.164522 133.278416 
L 369.182292 131.681584 
L 369.490533 131.681584 
L 369.490533 130.883168 
L 370.151739 130.883168 
L 370.180718 129.286337 
L 370.433197 129.286337 
L 370.433197 128.487921 
L 371.060434 128.487921 
L 371.060434 127.689505 
L 371.599166 127.689505 
L 371.695493 125.294257 
L 371.76319 125.294257 
L 371.76319 124.495842 
L 372.429469 124.495842 
L 372.429469 123.697426 
L 373.134896 123.697426 
L 373.134896 122.89901 
L 373.297861 122.89901 
L 373.297861 122.100594 
L 373.582681 122.100594 
L 373.582681 121.302178 
L 373.77467 121.302178 
L 373.77467 120.503762 
L 376.268495 120.503762 
L 376.268495 119.705347 
L 378.121589 119.705347 
L 378.121589 118.906931 
L 378.269697 118.906931 
L 378.353666 117.310099 
L 378.387763 117.310099 
L 378.387763 116.511683 
L 378.706012 116.511683 
L 378.756191 114.914851 
L 378.841525 114.914851 
L 378.841525 114.116436 
L 379.135974 114.116436 
L 379.18257 112.519604 
L 379.277288 112.519604 
L 379.383669 110.922772 
L 379.685747 110.922772 
L 379.685747 110.124356 
L 379.996744 110.124356 
L 379.996744 109.325941 
L 380.469294 109.325941 
L 380.469294 108.527525 
L 380.978254 108.527525 
L 380.978254 107.729109 
L 382.91528 107.729109 
L 382.91528 106.930693 
L 384.892318 106.930693 
L 384.892318 106.132277 
L 385.437265 106.132277 
L 385.437265 105.333861 
L 387.767154 105.333861 
L 387.767154 104.535446 
L 388.310409 104.535446 
L 388.310409 103.73703 
L 388.824706 103.73703 
L 388.824706 102.938614 
L 389.184108 102.938614 
L 389.264443 101.341782 
L 389.311408 101.341782 
L 389.311408 100.543366 
L 389.605741 100.543366 
L 389.605741 99.74495 
L 389.74104 99.74495 
L 389.74104 98.946535 
L 389.894216 98.946535 
L 389.894216 98.148119 
L 390.093865 98.148119 
L 390.093865 97.349703 
L 390.801356 97.349703 
L 390.801356 96.551287 
L 390.966958 96.551287 
L 390.966958 95.752871 
L 391.718954 95.752871 
L 391.718954 94.954455 
L 391.886588 94.954455 
L 391.987117 93.357624 
L 392.465789 93.357624 
L 392.465789 92.559208 
L 393.486522 92.559208 
L 393.486522 91.760792 
L 394.419517 91.760792 
L 394.419517 90.962376 
L 395.165781 90.962376 
L 395.165781 90.16396 
L 395.334845 90.16396 
L 395.334845 89.365545 
L 395.95776 89.365545 
L 395.95776 88.567129 
L 396.448592 88.567129 
L 396.448592 87.768713 
L 396.61524 87.768713 
L 396.61524 86.970297 
L 396.835191 86.970297 
L 396.835191 86.171881 
L 397.206917 86.171881 
L 397.206917 85.373465 
L 398.03743 85.373465 
L 398.03743 84.57505 
L 398.830145 84.57505 
L 398.830145 83.776634 
L 398.97826 83.776634 
L 399.016356 82.179802 
L 399.26666 82.179802 
L 399.354347 80.58297 
L 399.672291 80.58297 
L 399.672291 79.784554 
L 401.048224 79.784554 
L 401.048224 78.986139 
L 401.381697 78.986139 
L 401.381697 78.187723 
L 402.466693 78.187723 
L 402.466693 77.389307 
L 403.650768 77.389307 
L 403.730641 75.792475 
L 404.665225 75.792475 
L 404.696966 74.195644 
L 406.235283 74.195644 
L 406.235283 73.397228 
L 406.966607 73.397228 
L 406.966607 72.598812 
L 408.235168 72.598812 
L 408.324033 71.00198 
L 408.459258 71.00198 
L 408.564171 68.606733 
L 408.67096 68.606733 
L 408.67096 67.808317 
L 411.126945 67.808317 
L 411.126945 67.009901 
L 412.377806 67.009901 
L 412.377806 66.211485 
L 414.364783 66.211485 
L 414.364783 65.413069 
L 415.661849 65.413069 
L 415.661849 64.614653 
L 416.340553 64.614653 
L 416.340553 63.816238 
L 416.523321 63.816238 
L 416.523321 63.017822 
L 417.033134 63.017822 
L 417.033134 62.219406 
L 417.619414 62.219406 
L 417.645164 60.622574 
L 418.182072 60.622574 
L 418.182072 59.824158 
L 418.441909 59.824158 
L 418.441909 59.025743 
L 418.602435 59.025743 
L 418.643358 57.428911 
L 419.187786 57.428911 
L 419.278622 54.235248 
L 419.613642 54.235248 
L 419.613642 53.436832 
L 420.01582 53.436832 
L 420.091978 51.84 
L 420.489246 51.84 
L 420.578027 50.243168 
L 421.316871 50.243168 
L 421.316871 49.444752 
L 421.470045 49.444752 
L 421.470045 48.646337 
L 421.770885 48.646337 
L 421.770885 47.847921 
L 422.03433 47.847921 
L 422.03433 47.049505 
L 422.171929 47.049505 
L 422.251707 45.452673 
L 423.02691 45.452673 
L 423.12205 43.855842 
L 423.35852 43.855842 
L 423.35852 43.057426 
L 423.798577 43.057426 
L 423.798577 42.25901 
L 423.924582 42.25901 
L 423.998491 40.662178 
L 424.554087 40.662178 
L 424.554087 39.863762 
L 424.928824 39.863762 
L 424.928824 39.065347 
L 425.094664 39.065347 
L 425.094664 38.266931 
L 425.392848 38.266931 
L 425.392848 37.468515 
L 425.755308 37.468515 
L 425.755308 36.670099 
L 426.522287 36.670099 
L 426.522287 35.871683 
L 426.915147 35.871683 
L 426.915147 35.073267 
L 427.22311 35.073267 
L 427.22311 34.274851 
L 427.340201 34.274851 
L 427.398407 32.67802 
L 427.61465 32.67802 
L 427.61465 31.879604 
L 428.881892 31.879604 
L 428.881892 31.081188 
L 429.360602 31.081188 
L 429.419486 27.887525 
L 430.088726 27.887525 
L 430.088726 27.089109 
L 430.48287 27.089109 
L 430.48287 26.290693 
L 431.714081 26.290693 
L 431.714081 25.492277 
L 432.070178 25.492277 
L 432.070178 24.693861 
L 432.594952 24.693861 
L 432.594952 23.895446 
L 432.989524 23.895446 
L 432.989524 23.09703 
L 433.910125 23.09703 
L 433.910125 22.298614 
L 434.375506 22.298614 
L 434.375506 21.500198 
L 435.181351 21.500198 
L 435.181351 20.701782 
L 436.071196 20.701782 
L 436.071196 19.903366 
L 436.505168 19.903366 
L 436.505168 19.10495 
L 436.867902 19.10495 
L 436.867902 18.306535 
L 436.99875 18.306535 
L 436.99875 17.508119 
L 438.731301 17.508119 
L 438.731301 16.709703 
L 440.694253 16.709703 
L 440.694253 15.911287 
L 442.649838 15.911287 
L 442.662114 14.314455 
L 443.103514 14.314455 
L 443.103514 13.51604 
L 444.038543 13.51604 
L 444.038543 12.717624 
L 446.540236 12.717624 
L 446.540236 11.919208 
L 446.666297 11.919208 
L 446.666297 11.120792 
L 446.897042 11.120792 
L 446.897042 10.322376 
L 448.304925 10.322376 
L 448.304925 9.52396 
L 449.464066 9.52396 
L 449.464066 8.725545 
L 449.785074 8.725545 
L 449.785074 7.927129 
L 449.945953 7.927129 
L 449.945953 7.128713 
L 452.993998 7.128713 
L 452.993998 6.330297 
L 452.993998 6.330297 
L 460.8 6.330297 
L 460.8 6.330297 
" clip-path="url(#pf4364b7059)" style="fill: none; stroke: #00bfbf; stroke-width: 1.5; stroke-linecap: square"/>
   </g>
   <g id="line2d_23">
    <path d="M 300.969099 293.76 
L 300.969099 292.961584 
L 304.304575 292.961584 
L 304.304575 292.163168 
L 312.509296 292.163168 
L 312.509296 291.364752 
L 316.901608 291.364752 
L 316.901608 290.566337 
L 318.06638 290.566337 
L 318.06638 289.767921 
L 322.009524 289.767921 
L 322.009524 288.969505 
L 323.296058 288.969505 
L 323.296058 288.171089 
L 340.130282 288.171089 
L 340.130282 287.372673 
L 340.3649 287.372673 
L 340.3649 286.574257 
L 340.557903 286.574257 
L 340.583678 284.977426 
L 341.3292 284.977426 
L 341.3292 284.17901 
L 342.047023 284.17901 
L 342.047023 283.380594 
L 342.816733 283.380594 
L 342.816733 282.582178 
L 342.998654 282.582178 
L 342.998654 281.783762 
L 343.182134 281.783762 
L 343.213625 280.186931 
L 343.590041 280.186931 
L 343.590041 279.388515 
L 343.734724 279.388515 
L 343.734724 278.590099 
L 343.940364 278.590099 
L 343.971655 276.993267 
L 344.307888 276.993267 
L 344.390069 273.799604 
L 344.465291 273.799604 
L 344.465291 273.001188 
L 344.576429 273.001188 
L 344.653606 270.605941 
L 344.775944 270.605941 
L 344.804116 268.210693 
L 345.119849 268.210693 
L 345.119849 267.412277 
L 345.288213 267.412277 
L 345.288213 266.613861 
L 345.550961 266.613861 
L 345.659885 265.01703 
L 345.814591 265.01703 
L 345.814591 264.218614 
L 345.953183 264.218614 
L 345.953183 263.420198 
L 346.282363 263.420198 
L 346.392173 261.823366 
L 346.427807 261.823366 
L 346.427807 261.02495 
L 346.546245 261.02495 
L 346.546245 260.226535 
L 347.130598 260.226535 
L 347.220498 258.629703 
L 347.442721 258.629703 
L 347.442721 257.831287 
L 347.730355 257.831287 
L 347.786825 256.234455 
L 348.057198 256.234455 
L 348.057198 255.43604 
L 348.210532 255.43604 
L 348.210532 254.637624 
L 348.359301 254.637624 
L 348.364548 253.040792 
L 348.62525 253.040792 
L 348.717433 251.44396 
L 348.767132 251.44396 
L 348.801715 249.847129 
L 349.174301 249.847129 
L 349.174301 249.048713 
L 349.49219 249.048713 
L 349.49219 248.250297 
L 350.018184 248.250297 
L 350.018184 247.451881 
L 350.351179 247.451881 
L 350.351179 246.653465 
L 350.829474 246.653465 
L 350.931951 243.459802 
L 350.981417 243.459802 
L 351.039308 241.86297 
L 351.169749 241.86297 
L 351.244178 239.467723 
L 351.334423 239.467723 
L 351.424906 234.677228 
L 351.451626 234.677228 
L 351.536789 231.483564 
L 351.605316 231.483564 
L 351.685874 229.088317 
L 351.893223 229.088317 
L 352.003692 223.499406 
L 352.007726 223.499406 
L 352.10582 218.708911 
L 352.148696 218.708911 
L 352.161127 216.313663 
L 352.311154 216.313663 
L 352.368796 213.918416 
L 352.449644 213.918416 
L 352.556353 211.523168 
L 352.707268 211.523168 
L 352.778186 209.926337 
L 353.105979 209.926337 
L 353.105979 209.127921 
L 353.293523 209.127921 
L 353.368211 207.531089 
L 353.473746 207.531089 
L 353.473746 206.732673 
L 353.694236 206.732673 
L 353.798243 205.135842 
L 353.935765 205.135842 
L 353.935765 204.337426 
L 354.613101 204.337426 
L 354.613101 203.53901 
L 354.910982 203.53901 
L 354.910982 202.740594 
L 355.582369 202.740594 
L 355.582369 201.942178 
L 356.205665 201.942178 
L 356.205665 201.143762 
L 356.507185 201.143762 
L 356.530615 199.546931 
L 357.061427 199.546931 
L 357.061427 198.748515 
L 357.474203 198.748515 
L 357.474203 197.950099 
L 357.898818 197.950099 
L 357.990913 196.353267 
L 358.023569 196.353267 
L 358.059159 194.756436 
L 358.200388 194.756436 
L 358.200388 193.95802 
L 358.311601 193.95802 
L 358.341736 192.361188 
L 358.458198 192.361188 
L 358.458198 191.562772 
L 358.614345 191.562772 
L 358.620822 189.965941 
L 359.126256 189.965941 
L 359.194196 187.570693 
L 359.245896 187.570693 
L 359.245896 186.772277 
L 359.477051 186.772277 
L 359.50328 184.37703 
L 359.595851 184.37703 
L 359.668659 180.38495 
L 359.732436 180.38495 
L 359.732436 179.586535 
L 359.997646 179.586535 
L 360.0315 177.191287 
L 360.153249 177.191287 
L 360.179432 175.594455 
L 360.310157 175.594455 
L 360.356108 173.199208 
L 360.537822 173.199208 
L 360.573953 171.602376 
L 360.655262 171.602376 
L 360.747303 169.207129 
L 360.814145 169.207129 
L 360.916363 164.416634 
L 360.978349 164.416634 
L 360.978349 163.618218 
L 361.253524 163.618218 
L 361.253524 162.819802 
L 361.379744 162.819802 
L 361.476964 161.22297 
L 361.507033 161.22297 
L 361.507033 160.424554 
L 361.719226 160.424554 
L 361.80454 158.029307 
L 361.941317 158.029307 
L 361.987375 156.432475 
L 362.140262 156.432475 
L 362.141308 154.835644 
L 362.313415 154.835644 
L 362.399785 152.440396 
L 362.498223 152.440396 
L 362.498223 151.64198 
L 362.673977 151.64198 
L 362.768169 148.448317 
L 362.927356 148.448317 
L 363.013494 146.851485 
L 363.051489 146.851485 
L 363.142576 145.254653 
L 363.243942 145.254653 
L 363.243942 144.456238 
L 363.49469 144.456238 
L 363.528999 142.859406 
L 363.645092 142.859406 
L 363.645092 142.06099 
L 363.933729 142.06099 
L 363.976924 140.464158 
L 364.19155 140.464158 
L 364.19155 139.665743 
L 364.488383 139.665743 
L 364.488383 138.867327 
L 364.682177 138.867327 
L 364.790594 137.270495 
L 364.877702 137.270495 
L 364.877702 136.472079 
L 365.772667 136.472079 
L 365.772667 135.673663 
L 365.885038 135.673663 
L 365.885038 134.875248 
L 366.381685 134.875248 
L 366.381685 134.076832 
L 366.622744 134.076832 
L 366.622744 133.278416 
L 366.912453 133.278416 
L 366.912453 132.48 
L 367.158447 132.48 
L 367.158447 131.681584 
L 367.329303 131.681584 
L 367.329303 130.883168 
L 367.920941 130.883168 
L 367.920941 130.084752 
L 368.11866 130.084752 
L 368.11866 129.286337 
L 368.491645 129.286337 
L 368.491645 128.487921 
L 369.391681 128.487921 
L 369.490533 126.891089 
L 369.576981 126.891089 
L 369.576981 126.092673 
L 369.941486 126.092673 
L 369.941486 125.294257 
L 370.180718 125.294257 
L 370.180718 124.495842 
L 370.387521 124.495842 
L 370.387521 123.697426 
L 370.62428 123.697426 
L 370.672697 122.100594 
L 370.819043 122.100594 
L 370.919396 120.503762 
L 371.067943 120.503762 
L 371.067943 119.705347 
L 371.353536 119.705347 
L 371.353536 118.906931 
L 371.76319 118.906931 
L 371.76319 118.108515 
L 373.910199 118.108515 
L 373.910199 117.310099 
L 374.294912 117.310099 
L 374.294912 116.511683 
L 375.738117 116.511683 
L 375.738117 115.713267 
L 376.268495 115.713267 
L 376.268495 114.914851 
L 376.56804 114.914851 
L 376.662228 113.31802 
L 376.958252 113.31802 
L 376.958252 112.519604 
L 377.301953 112.519604 
L 377.301953 111.721188 
L 377.442151 111.721188 
L 377.442151 110.922772 
L 377.584516 110.922772 
L 377.584516 110.124356 
L 378.353666 110.124356 
L 378.387763 108.527525 
L 378.756191 108.527525 
L 378.860814 106.930693 
L 378.975755 106.930693 
L 379.04479 105.333861 
L 379.18257 105.333861 
L 379.18257 104.535446 
L 380.473526 104.535446 
L 380.473526 103.73703 
L 381.116775 103.73703 
L 381.116775 102.938614 
L 381.273487 102.938614 
L 381.273487 102.140198 
L 383.545615 102.140198 
L 383.545615 101.341782 
L 384.365736 101.341782 
L 384.365736 100.543366 
L 384.998442 100.543366 
L 384.998442 99.74495 
L 385.830904 99.74495 
L 385.830904 98.946535 
L 386.813156 98.946535 
L 386.813156 98.148119 
L 387.767154 98.148119 
L 387.767154 97.349703 
L 389.264443 97.349703 
L 389.311408 95.752871 
L 389.536297 95.752871 
L 389.605741 94.15604 
L 389.681053 94.15604 
L 389.74104 92.559208 
L 390.090095 92.559208 
L 390.090095 91.760792 
L 390.273263 91.760792 
L 390.273263 90.962376 
L 391.380488 90.962376 
L 391.380488 90.16396 
L 391.718954 90.16396 
L 391.718954 89.365545 
L 392.296063 89.365545 
L 392.296063 88.567129 
L 392.936296 88.567129 
L 392.936296 87.768713 
L 394.140663 87.768713 
L 394.140663 86.970297 
L 395.165781 86.970297 
L 395.182573 85.373465 
L 395.662328 85.373465 
L 395.662328 84.57505 
L 395.95776 84.57505 
L 395.95776 83.776634 
L 396.448592 83.776634 
L 396.448592 82.978218 
L 396.61524 82.978218 
L 396.61524 82.179802 
L 396.794495 82.179802 
L 396.835191 80.58297 
L 397.156464 80.58297 
L 397.156464 79.784554 
L 397.459016 79.784554 
L 397.459016 78.986139 
L 398.03743 78.986139 
L 398.03743 78.187723 
L 398.375603 78.187723 
L 398.427818 76.590891 
L 398.830145 76.590891 
L 398.830145 75.792475 
L 399.422001 75.792475 
L 399.422001 74.994059 
L 399.824187 74.994059 
L 399.824187 74.195644 
L 400.739468 74.195644 
L 400.739468 73.397228 
L 401.048224 73.397228 
L 401.048224 72.598812 
L 402.466693 72.598812 
L 402.466693 71.800396 
L 403.730641 71.800396 
L 403.730641 71.00198 
L 404.696966 71.00198 
L 404.696966 70.203564 
L 406.752711 70.203564 
L 406.752711 69.405149 
L 407.54697 69.405149 
L 407.620293 67.808317 
L 408.459258 67.808317 
L 408.459258 67.009901 
L 409.445626 67.009901 
L 409.445626 66.211485 
L 411.126945 66.211485 
L 411.126945 65.413069 
L 412.115084 65.413069 
L 412.115084 64.614653 
L 412.377806 64.614653 
L 412.377806 63.816238 
L 414.283075 63.816238 
L 414.283075 63.017822 
L 414.793276 63.017822 
L 414.793276 62.219406 
L 415.661849 62.219406 
L 415.661849 61.42099 
L 416.018612 61.42099 
L 416.122243 59.824158 
L 416.340553 59.824158 
L 416.39025 58.227327 
L 416.523321 58.227327 
L 416.523321 57.428911 
L 417.265878 57.428911 
L 417.265878 56.630495 
L 417.619414 56.630495 
L 417.645164 55.033663 
L 417.828031 55.033663 
L 417.828031 54.235248 
L 418.182072 54.235248 
L 418.182072 53.436832 
L 418.643358 53.436832 
L 418.643358 52.638416 
L 419.042935 52.638416 
L 419.042935 51.84 
L 419.21669 51.84 
L 419.278622 49.444752 
L 419.613642 49.444752 
L 419.613642 48.646337 
L 419.996565 48.646337 
L 420.091978 45.452673 
L 420.109663 45.452673 
L 420.109663 44.654257 
L 420.489246 44.654257 
L 420.489246 43.855842 
L 420.979944 43.855842 
L 420.979944 43.057426 
L 421.470045 43.057426 
L 421.470045 42.25901 
L 422.251707 42.25901 
L 422.251707 41.460594 
L 422.508478 41.460594 
L 422.508478 40.662178 
L 423.02691 40.662178 
L 423.12205 39.065347 
L 423.35852 39.065347 
L 423.35852 38.266931 
L 423.700966 38.266931 
L 423.798577 36.670099 
L 423.924582 36.670099 
L 423.998491 35.073267 
L 424.121207 35.073267 
L 424.121207 34.274851 
L 424.820227 34.274851 
L 424.820227 33.476436 
L 425.37528 33.476436 
L 425.392848 31.879604 
L 425.510042 31.879604 
L 425.510042 31.081188 
L 425.755308 31.081188 
L 425.755308 30.282772 
L 427.340201 30.282772 
L 427.340201 29.484356 
L 427.868312 29.484356 
L 427.868312 28.685941 
L 428.14063 28.685941 
L 428.14063 27.887525 
L 429.018939 27.887525 
L 429.070392 26.290693 
L 429.360602 26.290693 
L 429.360602 25.492277 
L 430.088726 25.492277 
L 430.088726 24.693861 
L 430.33612 24.693861 
L 430.33612 23.895446 
L 430.48287 23.895446 
L 430.48287 23.09703 
L 430.943965 23.09703 
L 430.943965 22.298614 
L 431.714081 22.298614 
L 431.714081 21.500198 
L 432.070178 21.500198 
L 432.070178 20.701782 
L 432.382629 20.701782 
L 432.382629 19.903366 
L 432.870155 19.903366 
L 432.870155 19.10495 
L 433.552175 19.10495 
L 433.552175 18.306535 
L 436.99875 18.306535 
L 436.99875 17.508119 
L 438.731301 17.508119 
L 438.731301 16.709703 
L 438.899737 16.709703 
L 438.899737 15.911287 
L 440.640611 15.911287 
L 440.640611 15.112871 
L 442.209511 15.112871 
L 442.253672 13.51604 
L 442.649838 13.51604 
L 442.649838 12.717624 
L 443.489244 12.717624 
L 443.489244 11.919208 
L 444.038543 11.919208 
L 444.041476 10.322376 
L 444.253988 10.322376 
L 444.362972 8.725545 
L 446.094204 8.725545 
L 446.094204 7.927129 
L 448.304925 7.927129 
L 448.304925 7.128713 
L 452.215788 7.128713 
L 452.215788 6.330297 
L 452.215788 6.330297 
L 460.8 6.330297 
L 460.8 6.330297 
" clip-path="url(#pf4364b7059)" style="fill: none; stroke: #bf00bf; stroke-width: 1.5; stroke-linecap: square"/>
   </g>
   <g id="line2d_24">
    <path d="M 297.884406 293.76 
L 297.884406 292.961584 
L 300.969099 292.961584 
L 300.969099 292.163168 
L 304.304575 292.163168 
L 304.304575 291.364752 
L 308.638966 291.364752 
L 308.638966 290.566337 
L 311.177882 290.566337 
L 311.177882 289.767921 
L 312.509296 289.767921 
L 312.509296 288.969505 
L 316.901608 288.969505 
L 316.901608 288.171089 
L 318.06638 288.171089 
L 318.06638 287.372673 
L 337.392519 287.372673 
L 337.392519 286.574257 
L 338.062971 286.574257 
L 338.062971 285.775842 
L 339.838323 285.775842 
L 339.872901 284.17901 
L 340.130282 284.17901 
L 340.130282 283.380594 
L 340.557903 283.380594 
L 340.583678 281.783762 
L 340.697191 281.783762 
L 340.697191 280.985347 
L 341.258764 280.985347 
L 341.3292 279.388515 
L 341.516537 279.388515 
L 341.516537 278.590099 
L 342.047023 278.590099 
L 342.082666 276.993267 
L 342.190323 276.993267 
L 342.190323 276.194851 
L 342.806876 276.194851 
L 342.816733 274.59802 
L 342.998654 274.59802 
L 343.080199 273.001188 
L 343.172489 273.001188 
L 343.182134 271.404356 
L 343.36881 271.404356 
L 343.406408 269.807525 
L 343.590041 269.807525 
L 343.590041 269.009109 
L 343.715361 269.009109 
L 343.715361 268.210693 
L 343.874032 268.210693 
L 343.971655 266.613861 
L 344.020573 266.613861 
L 344.091447 265.01703 
L 344.215732 265.01703 
L 344.308488 261.823366 
L 344.365459 261.823366 
L 344.365459 261.02495 
L 344.618513 261.02495 
L 344.672803 258.629703 
L 344.781536 258.629703 
L 344.781536 257.831287 
L 344.931798 257.831287 
L 344.960148 256.234455 
L 345.288213 256.234455 
L 345.333822 254.637624 
L 345.550961 254.637624 
L 345.550961 253.839208 
L 345.814591 253.839208 
L 345.814591 253.040792 
L 346.132889 253.040792 
L 346.132889 252.242376 
L 346.282363 252.242376 
L 346.282363 251.44396 
L 347.091091 251.44396 
L 347.091091 250.645545 
L 347.220498 250.645545 
L 347.220498 249.847129 
L 347.462335 249.847129 
L 347.462335 249.048713 
L 347.709415 249.048713 
L 347.786825 246.653465 
L 348.296597 246.653465 
L 348.296597 245.85505 
L 348.477707 245.85505 
L 348.477707 245.056634 
L 348.717433 245.056634 
L 348.717433 244.258218 
L 349.216783 244.258218 
L 349.247632 242.661386 
L 350.209538 242.661386 
L 350.209538 241.86297 
L 350.346743 241.86297 
L 350.351179 240.266139 
L 350.614491 240.266139 
L 350.688404 237.870891 
L 350.829474 237.870891 
L 350.931951 233.080396 
L 350.981417 233.080396 
L 351.039308 231.483564 
L 351.10447 231.483564 
L 351.10447 230.685149 
L 351.244178 230.685149 
L 351.345415 226.693069 
L 351.408717 226.693069 
L 351.451626 223.499406 
L 351.536789 223.499406 
L 351.639646 219.507327 
L 351.687811 219.507327 
L 351.79205 217.910495 
L 351.878475 217.910495 
L 351.975876 212.321584 
L 352.041458 212.321584 
L 352.148696 208.329505 
L 352.208176 208.329505 
L 352.316761 205.934257 
L 352.360502 205.934257 
L 352.414156 204.337426 
L 352.521162 204.337426 
L 352.521162 203.53901 
L 352.656822 203.53901 
L 352.707268 201.942178 
L 352.997242 201.942178 
L 352.997242 201.143762 
L 353.247494 201.143762 
L 353.288957 199.546931 
L 354.252752 199.546931 
L 354.252752 198.748515 
L 354.462305 198.748515 
L 354.462305 197.950099 
L 354.910982 197.950099 
L 354.910982 197.151683 
L 355.149633 197.151683 
L 355.149633 196.353267 
L 355.31085 196.353267 
L 355.31085 195.554851 
L 355.582369 195.554851 
L 355.582369 194.756436 
L 356.17485 194.756436 
L 356.205665 193.159604 
L 356.488821 193.159604 
L 356.530615 190.764356 
L 356.800981 190.764356 
L 356.900475 189.167525 
L 357.061427 189.167525 
L 357.061427 188.369109 
L 357.260686 188.369109 
L 357.331673 185.175446 
L 357.474203 185.175446 
L 357.474203 184.37703 
L 357.610824 184.37703 
L 357.610824 183.578614 
L 357.898759 183.578614 
L 357.977751 181.183366 
L 358.023569 181.183366 
L 358.023569 180.38495 
L 358.165743 180.38495 
L 358.199397 178.788119 
L 358.372814 178.788119 
L 358.475739 177.191287 
L 358.605841 177.191287 
L 358.678695 173.997624 
L 358.90416 173.997624 
L 358.915126 172.400792 
L 359.165724 172.400792 
L 359.245896 170.80396 
L 359.355229 170.80396 
L 359.432691 167.610297 
L 359.477051 167.610297 
L 359.480378 166.013465 
L 359.595851 166.013465 
L 359.668659 162.819802 
L 359.717351 162.819802 
L 359.732436 161.22297 
L 359.954809 161.22297 
L 359.997646 158.827723 
L 360.090265 158.827723 
L 360.127982 157.230891 
L 360.22085 157.230891 
L 360.283158 155.634059 
L 360.342904 155.634059 
L 360.342904 154.835644 
L 360.492546 154.835644 
L 360.573953 151.64198 
L 360.655262 151.64198 
L 360.655262 150.843564 
L 360.794212 150.843564 
L 360.895039 149.246733 
L 360.978349 149.246733 
L 361.020036 147.649901 
L 361.148666 147.649901 
L 361.253524 146.053069 
L 361.719226 146.053069 
L 361.753882 144.456238 
L 361.999241 144.456238 
L 362.075458 142.859406 
L 362.140262 142.859406 
L 362.247407 141.262574 
L 362.283692 141.262574 
L 362.382732 139.665743 
L 362.673977 139.665743 
L 362.751909 137.270495 
L 363.343927 137.270495 
L 363.41314 134.875248 
L 363.45867 134.875248 
L 363.49469 133.278416 
L 363.976924 133.278416 
L 363.976924 132.48 
L 364.177259 132.48 
L 364.19155 130.883168 
L 364.672713 130.883168 
L 364.732967 129.286337 
L 366.017543 129.286337 
L 366.017543 128.487921 
L 367.329303 128.487921 
L 367.358751 126.891089 
L 367.64693 126.891089 
L 367.64693 126.092673 
L 367.981047 126.092673 
L 367.981047 125.294257 
L 368.11866 125.294257 
L 368.11866 124.495842 
L 369.391681 124.495842 
L 369.391681 123.697426 
L 369.626062 123.697426 
L 369.626062 122.89901 
L 369.941486 122.89901 
L 369.964455 121.302178 
L 370.366398 121.302178 
L 370.366398 120.503762 
L 370.62428 120.503762 
L 370.686201 118.108515 
L 370.837582 118.108515 
L 370.925741 116.511683 
L 371.067943 116.511683 
L 371.067943 115.713267 
L 374.294912 115.713267 
L 374.294912 114.914851 
L 375.077063 114.914851 
L 375.077063 114.116436 
L 375.738117 114.116436 
L 375.738117 113.31802 
L 376.043562 113.31802 
L 376.043562 112.519604 
L 376.225973 112.519604 
L 376.268495 110.922772 
L 376.56804 110.922772 
L 376.657499 109.325941 
L 376.941986 109.325941 
L 377.038984 106.930693 
L 377.417083 106.930693 
L 377.442151 105.333861 
L 377.643553 105.333861 
L 377.643553 104.535446 
L 378.312646 104.535446 
L 378.353666 102.938614 
L 379.18257 102.938614 
L 379.18257 102.140198 
L 380.050188 102.140198 
L 380.050188 101.341782 
L 380.473526 101.341782 
L 380.473526 100.543366 
L 380.717885 100.543366 
L 380.800246 98.946535 
L 381.116775 98.946535 
L 381.116775 98.148119 
L 381.273487 98.148119 
L 381.273487 97.349703 
L 382.788839 97.349703 
L 382.788839 96.551287 
L 384.739182 96.551287 
L 384.739182 95.752871 
L 384.998442 95.752871 
L 384.998442 94.954455 
L 385.296676 94.954455 
L 385.296676 94.15604 
L 385.776234 94.15604 
L 385.881263 91.760792 
L 386.018498 91.760792 
L 386.018498 90.962376 
L 386.813156 90.962376 
L 386.813156 90.16396 
L 388.026533 90.16396 
L 388.026533 89.365545 
L 389.11684 89.365545 
L 389.11684 88.567129 
L 389.264443 88.567129 
L 389.264443 87.768713 
L 389.531361 87.768713 
L 389.531361 86.970297 
L 389.689155 86.970297 
L 389.689155 86.171881 
L 391.108821 86.171881 
L 391.108821 85.373465 
L 391.380488 85.373465 
L 391.440855 83.776634 
L 392.677781 83.776634 
L 392.677781 82.978218 
L 394.071831 82.978218 
L 394.164821 81.381386 
L 395.017707 81.381386 
L 395.017707 80.58297 
L 395.95776 80.58297 
L 395.95776 79.784554 
L 396.61524 79.784554 
L 396.61524 78.986139 
L 396.835191 78.986139 
L 396.835191 78.187723 
L 398.03743 78.187723 
L 398.03743 77.389307 
L 398.178544 77.389307 
L 398.178544 76.590891 
L 398.375603 76.590891 
L 398.427818 74.994059 
L 398.830145 74.994059 
L 398.830145 74.195644 
L 398.958713 74.195644 
L 398.958713 73.397228 
L 399.124725 73.397228 
L 399.124725 72.598812 
L 399.824187 72.598812 
L 399.824187 71.800396 
L 400.739468 71.800396 
L 400.739468 71.00198 
L 401.048224 71.00198 
L 401.048224 70.203564 
L 401.393406 70.203564 
L 401.393406 69.405149 
L 402.466693 69.405149 
L 402.466693 68.606733 
L 403.322695 68.606733 
L 403.322695 67.808317 
L 403.727616 67.808317 
L 403.727616 67.009901 
L 404.920186 67.009901 
L 404.936869 65.413069 
L 407.54697 65.413069 
L 407.54697 64.614653 
L 408.6275 64.614653 
L 408.6275 63.816238 
L 409.445626 63.816238 
L 409.445626 63.017822 
L 410.804023 63.017822 
L 410.804023 62.219406 
L 411.126945 62.219406 
L 411.167313 60.622574 
L 411.56568 60.622574 
L 411.56568 59.824158 
L 412.115084 59.824158 
L 412.115084 59.025743 
L 412.377806 59.025743 
L 412.377806 58.227327 
L 412.517416 58.227327 
L 412.517416 57.428911 
L 412.869345 57.428911 
L 412.869345 56.630495 
L 413.253265 56.630495 
L 413.253265 55.832079 
L 413.386642 55.832079 
L 413.386642 55.033663 
L 414.468003 55.033663 
L 414.468003 54.235248 
L 414.793276 54.235248 
L 414.793276 53.436832 
L 415.661849 53.436832 
L 415.661849 52.638416 
L 415.948826 52.638416 
L 415.948826 51.84 
L 416.39025 51.84 
L 416.39025 51.041584 
L 417.265878 51.041584 
L 417.265878 50.243168 
L 417.404775 50.243168 
L 417.467962 48.646337 
L 417.619414 48.646337 
L 417.723773 46.251089 
L 417.866792 46.251089 
L 417.870748 44.654257 
L 417.996891 44.654257 
L 417.996891 43.855842 
L 418.248198 43.855842 
L 418.283884 42.25901 
L 419.135148 42.25901 
L 419.229142 39.863762 
L 419.613642 39.863762 
L 419.613642 39.065347 
L 419.799682 39.065347 
L 419.799682 38.266931 
L 419.950204 38.266931 
L 420.01582 36.670099 
L 420.290593 36.670099 
L 420.290593 35.871683 
L 420.489246 35.871683 
L 420.592115 34.274851 
L 420.617701 34.274851 
L 420.617701 33.476436 
L 421.962271 33.476436 
L 421.962271 32.67802 
L 422.30342 32.67802 
L 422.30342 31.879604 
L 422.734322 31.879604 
L 422.76383 29.484356 
L 423.02691 29.484356 
L 423.02691 28.685941 
L 423.192231 28.685941 
L 423.192231 27.887525 
L 423.484601 27.887525 
L 423.484601 27.089109 
L 423.700966 27.089109 
L 423.709027 25.492277 
L 423.924582 25.492277 
L 423.961001 23.895446 
L 425.294829 23.895446 
L 425.385901 22.298614 
L 426.039187 22.298614 
L 426.039187 21.500198 
L 427.531854 21.500198 
L 427.585695 19.903366 
L 427.893134 19.903366 
L 427.893134 19.10495 
L 431.036197 19.10495 
L 431.036197 18.306535 
L 434.904633 18.306535 
L 434.904633 17.508119 
L 436.180802 17.508119 
L 436.180802 16.709703 
L 436.99875 16.709703 
L 436.99875 15.911287 
L 438.633209 15.911287 
L 438.731301 14.314455 
L 439.872161 14.314455 
L 439.872161 13.51604 
L 441.246806 13.51604 
L 441.246806 12.717624 
L 442.214357 12.717624 
L 442.272082 10.322376 
L 443.706852 10.322376 
L 443.706852 9.52396 
L 443.915354 9.52396 
L 443.915354 8.725545 
L 444.038543 8.725545 
L 444.041476 7.128713 
L 452.215788 7.128713 
L 452.215788 6.330297 
L 452.215788 6.330297 
L 460.8 6.330297 
L 460.8 6.330297 
" clip-path="url(#pf4364b7059)" style="fill: none; stroke: #000000; stroke-width: 1.5; stroke-linecap: square"/>
   </g>
   <g id="patch_3">
    <path d="M 0 293.76 
L 0 3.456 
" style="fill: none; stroke: #000000; stroke-width: 0.8; stroke-linejoin: miter; stroke-linecap: square"/>
   </g>
   <g id="patch_4">
    <path d="M 460.8 293.76 
L 460.8 3.456 
" style="fill: none; stroke: #000000; stroke-width: 0.8; stroke-linejoin: miter; stroke-linecap: square"/>
   </g>
   <g id="patch_5">
    <path d="M 0 293.76 
L 460.8 293.76 
" style="fill: none; stroke: #000000; stroke-width: 0.8; stroke-linejoin: miter; stroke-linecap: square"/>
   </g>
   <g id="patch_6">
    <path d="M 0 3.456 
L 460.8 3.456 
" style="fill: none; stroke: #000000; stroke-width: 0.8; stroke-linejoin: miter; stroke-linecap: square"/>
   </g>
   <g id="text_6">
    <!-- {f1-f24}, 40-D -->
    <g transform="translate(305.884 287.95392) scale(0.2 -0.2)">
     <defs>
      <path id="DejaVuSans-7b" d="M 3272 -594 
L 3272 -1044 
L 3078 -1044 
Q 2300 -1044 2036 -812 
Q 1772 -581 1772 109 
L 1772 856 
Q 1772 1328 1603 1509 
Q 1434 1691 991 1691 
L 800 1691 
L 800 2138 
L 991 2138 
Q 1438 2138 1605 2317 
Q 1772 2497 1772 2963 
L 1772 3713 
Q 1772 4403 2036 4633 
Q 2300 4863 3078 4863 
L 3272 4863 
L 3272 4416 
L 3059 4416 
Q 2619 4416 2484 4278 
Q 2350 4141 2350 3700 
L 2350 2925 
Q 2350 2434 2208 2212 
Q 2066 1991 1722 1913 
Q 2069 1828 2209 1606 
Q 2350 1384 2350 897 
L 2350 122 
Q 2350 -319 2484 -456 
Q 2619 -594 3059 -594 
L 3272 -594 
z
" transform="scale(0.015625)"/>
      <path id="DejaVuSans-7d" d="M 800 -594 
L 1019 -594 
Q 1456 -594 1589 -459 
Q 1722 -325 1722 122 
L 1722 897 
Q 1722 1384 1862 1606 
Q 2003 1828 2350 1913 
Q 2003 1991 1862 2212 
Q 1722 2434 1722 2925 
L 1722 3700 
Q 1722 4144 1589 4280 
Q 1456 4416 1019 4416 
L 800 4416 
L 800 4863 
L 997 4863 
Q 1775 4863 2036 4633 
Q 2297 4403 2297 3713 
L 2297 2963 
Q 2297 2497 2465 2317 
Q 2634 2138 3078 2138 
L 3272 2138 
L 3272 1691 
L 3078 1691 
Q 2634 1691 2465 1509 
Q 2297 1328 2297 856 
L 2297 109 
Q 2297 -581 2036 -812 
Q 1775 -1044 997 -1044 
L 800 -1044 
L 800 -594 
z
" transform="scale(0.015625)"/>
      <path id="DejaVuSans-2c" d="M 750 794 
L 1409 794 
L 1409 256 
L 897 -744 
L 494 -744 
L 750 256 
L 750 794 
z
" transform="scale(0.015625)"/>
     </defs>
     <use xlink:href="#DejaVuSans-7b"/>
     <use xlink:href="#DejaVuSans-66" x="63.623047"/>
     <use xlink:href="#DejaVuSans-31" x="98.828125"/>
     <use xlink:href="#DejaVuSans-2d" x="162.451172"/>
     <use xlink:href="#DejaVuSans-66" x="198.535156"/>
     <use xlink:href="#DejaVuSans-32" x="233.740234"/>
     <use xlink:href="#DejaVuSans-34" x="297.363281"/>
     <use xlink:href="#DejaVuSans-7d" x="360.986328"/>
     <use xlink:href="#DejaVuSans-2c" x="424.609375"/>
     <use xlink:href="#DejaVuSans-20" x="456.396484"/>
     <use xlink:href="#DejaVuSans-34" x="488.183594"/>
     <use xlink:href="#DejaVuSans-30" x="551.806641"/>
     <use xlink:href="#DejaVuSans-2d" x="615.429688"/>
     <use xlink:href="#DejaVuSans-44" x="651.513672"/>
    </g>
   </g>
   <g id="text_7">
    <!-- v2.6.4 -->
    <g style="fill: #808080" transform="translate(214.71875 288.777272) scale(0.1 -0.1)">
     <defs>
      <path id="DejaVuSans-76" d="M 191 3500 
L 800 3500 
L 1894 563 
L 2988 3500 
L 3597 3500 
L 2284 0 
L 1503 0 
L 191 3500 
z
" transform="scale(0.015625)"/>
      <path id="DejaVuSans-2e" d="M 684 794 
L 1344 794 
L 1344 0 
L 684 0 
L 684 794 
z
" transform="scale(0.015625)"/>
      <path id="DejaVuSans-36" d="M 2113 2584 
Q 1688 2584 1439 2293 
Q 1191 2003 1191 1497 
Q 1191 994 1439 701 
Q 1688 409 2113 409 
Q 2538 409 2786 701 
Q 3034 994 3034 1497 
Q 3034 2003 2786 2293 
Q 2538 2584 2113 2584 
z
M 3366 4563 
L 3366 3988 
Q 3128 4100 2886 4159 
Q 2644 4219 2406 4219 
Q 1781 4219 1451 3797 
Q 1122 3375 1075 2522 
Q 1259 2794 1537 2939 
Q 1816 3084 2150 3084 
Q 2853 3084 3261 2657 
Q 3669 2231 3669 1497 
Q 3669 778 3244 343 
Q 2819 -91 2113 -91 
Q 1303 -91 875 529 
Q 447 1150 447 2328 
Q 447 3434 972 4092 
Q 1497 4750 2381 4750 
Q 2619 4750 2861 4703 
Q 3103 4656 3366 4563 
z
" transform="scale(0.015625)"/>
     </defs>
     <use xlink:href="#DejaVuSans-76"/>
     <use xlink:href="#DejaVuSans-32" x="59.179688"/>
     <use xlink:href="#DejaVuSans-2e" x="122.802734"/>
     <use xlink:href="#DejaVuSans-36" x="154.589844"/>
     <use xlink:href="#DejaVuSans-2e" x="218.212891"/>
     <use xlink:href="#DejaVuSans-34" x="250"/>
    </g>
   </g>
  </g>
 </g>
 <defs>
  <clipPath id="pf4364b7059">
   <rect x="0" y="3.456" width="460.8" height="290.304"/>
  </clipPath>
 </defs>
</svg>
