<?xml version="1.0" encoding="utf-8" standalone="no"?>
<!DOCTYPE svg PUBLIC "-//W3C//DTD SVG 1.1//EN"
  "http://www.w3.org/Graphics/SVG/1.1/DTD/svg11.dtd">
<svg xmlns:xlink="http://www.w3.org/1999/xlink" width="460.8pt" height="345.6pt" viewBox="0 0 460.8 345.6" xmlns="http://www.w3.org/2000/svg" version="1.1">
 <metadata>
  <rdf:RDF xmlns:dc="http://purl.org/dc/elements/1.1/" xmlns:cc="http://creativecommons.org/ns#" xmlns:rdf="http://www.w3.org/1999/02/22-rdf-syntax-ns#">
   <cc:Work>
    <dc:type rdf:resource="http://purl.org/dc/dcmitype/StillImage"/>
    <dc:date>2024-10-07T17:44:41.572508</dc:date>
    <dc:format>image/svg+xml</dc:format>
    <dc:creator>
     <cc:Agent>
      <dc:title>Matplotlib v3.9.2, https://matplotlib.org/</dc:title>
     </cc:Agent>
    </dc:creator>
   </cc:Work>
  </rdf:RDF>
 </metadata>
 <defs>
  <style type="text/css">*{stroke-linejoin: round; stroke-linecap: butt}</style>
 </defs>
 <g id="figure_1">
  <g id="patch_1">
   <path d="M 0 345.6 
L 460.8 345.6 
L 460.8 0 
L 0 0 
z
" style="fill: #ffffff"/>
  </g>
  <g id="axes_1">
   <g id="patch_2">
    <path d="M 0 293.76 
L 460.8 293.76 
L 460.8 3.456 
L 0 3.456 
z
" style="fill: #ffffff"/>
   </g>
   <g id="matplotlib.axis_1">
    <g id="xtick_1">
     <g id="line2d_1">
      <path d="M 106.410055 293.76 
L 106.410055 3.456 
" clip-path="url(#pa14d05cc8b)" style="fill: none; stroke: #b0b0b0; stroke-width: 0.8; stroke-linecap: square"/>
     </g>
     <g id="line2d_2">
      <defs>
       <path id="m7966aefcd8" d="M 0 0 
L 0 3.5 
" style="stroke: #000000; stroke-width: 0.8"/>
      </defs>
      <g>
       <use xlink:href="#m7966aefcd8" x="106.410055" y="293.76" style="stroke: #000000; stroke-width: 0.8"/>
      </g>
     </g>
     <g id="text_1">
      <!-- -5 -->
      <g transform="translate(96.439743 315.956875) scale(0.2 -0.2)">
       <defs>
        <path id="DejaVuSans-2d" d="M 313 2009 
L 1997 2009 
L 1997 1497 
L 313 1497 
L 313 2009 
z
" transform="scale(0.015625)"/>
        <path id="DejaVuSans-35" d="M 691 4666 
L 3169 4666 
L 3169 4134 
L 1269 4134 
L 1269 2991 
Q 1406 3038 1543 3061 
Q 1681 3084 1819 3084 
Q 2600 3084 3056 2656 
Q 3513 2228 3513 1497 
Q 3513 744 3044 326 
Q 2575 -91 1722 -91 
Q 1428 -91 1123 -41 
Q 819 9 494 109 
L 494 744 
Q 775 591 1075 516 
Q 1375 441 1709 441 
Q 2250 441 2565 725 
Q 2881 1009 2881 1497 
Q 2881 1984 2565 2268 
Q 2250 2553 1709 2553 
Q 1456 2553 1204 2497 
Q 953 2441 691 2322 
L 691 4666 
z
" transform="scale(0.015625)"/>
       </defs>
       <use xlink:href="#DejaVuSans-2d"/>
       <use xlink:href="#DejaVuSans-35" x="36.083984"/>
      </g>
     </g>
    </g>
    <g id="xtick_2">
     <g id="line2d_3">
      <path d="M 212.97361 293.76 
L 212.97361 3.456 
" clip-path="url(#pa14d05cc8b)" style="fill: none; stroke: #b0b0b0; stroke-width: 0.8; stroke-linecap: square"/>
     </g>
     <g id="line2d_4">
      <g>
       <use xlink:href="#m7966aefcd8" x="212.97361" y="293.76" style="stroke: #000000; stroke-width: 0.8"/>
      </g>
     </g>
     <g id="text_2">
      <!-- -2 -->
      <g transform="translate(203.003298 315.956875) scale(0.2 -0.2)">
       <defs>
        <path id="DejaVuSans-32" d="M 1228 531 
L 3431 531 
L 3431 0 
L 469 0 
L 469 531 
Q 828 903 1448 1529 
Q 2069 2156 2228 2338 
Q 2531 2678 2651 2914 
Q 2772 3150 2772 3378 
Q 2772 3750 2511 3984 
Q 2250 4219 1831 4219 
Q 1534 4219 1204 4116 
Q 875 4013 500 3803 
L 500 4441 
Q 881 4594 1212 4672 
Q 1544 4750 1819 4750 
Q 2544 4750 2975 4387 
Q 3406 4025 3406 3419 
Q 3406 3131 3298 2873 
Q 3191 2616 2906 2266 
Q 2828 2175 2409 1742 
Q 1991 1309 1228 531 
z
" transform="scale(0.015625)"/>
       </defs>
       <use xlink:href="#DejaVuSans-2d"/>
       <use xlink:href="#DejaVuSans-32" x="36.083984"/>
      </g>
     </g>
    </g>
    <g id="xtick_3">
     <g id="line2d_5">
      <path d="M 319.537166 293.76 
L 319.537166 3.456 
" clip-path="url(#pa14d05cc8b)" style="fill: none; stroke: #b0b0b0; stroke-width: 0.8; stroke-linecap: square"/>
     </g>
     <g id="line2d_6">
      <g>
       <use xlink:href="#m7966aefcd8" x="319.537166" y="293.76" style="stroke: #000000; stroke-width: 0.8"/>
      </g>
     </g>
     <g id="text_3">
      <!-- 1 -->
      <g transform="translate(313.174666 315.956875) scale(0.2 -0.2)">
       <defs>
        <path id="DejaVuSans-31" d="M 794 531 
L 1825 531 
L 1825 4091 
L 703 3866 
L 703 4441 
L 1819 4666 
L 2450 4666 
L 2450 531 
L 3481 531 
L 3481 0 
L 794 0 
L 794 531 
z
" transform="scale(0.015625)"/>
       </defs>
       <use xlink:href="#DejaVuSans-31"/>
      </g>
     </g>
    </g>
    <g id="xtick_4">
     <g id="line2d_7">
      <path d="M 426.100721 293.76 
L 426.100721 3.456 
" clip-path="url(#pa14d05cc8b)" style="fill: none; stroke: #b0b0b0; stroke-width: 0.8; stroke-linecap: square"/>
     </g>
     <g id="line2d_8">
      <g>
       <use xlink:href="#m7966aefcd8" x="426.100721" y="293.76" style="stroke: #000000; stroke-width: 0.8"/>
      </g>
     </g>
     <g id="text_4">
      <!-- 4 -->
      <g transform="translate(419.738221 315.956875) scale(0.2 -0.2)">
       <defs>
        <path id="DejaVuSans-34" d="M 2419 4116 
L 825 1625 
L 2419 1625 
L 2419 4116 
z
M 2253 4666 
L 3047 4666 
L 3047 1625 
L 3713 1625 
L 3713 1100 
L 3047 1100 
L 3047 0 
L 2419 0 
L 2419 1100 
L 313 1100 
L 313 1709 
L 2253 4666 
z
" transform="scale(0.015625)"/>
       </defs>
       <use xlink:href="#DejaVuSans-34"/>
      </g>
     </g>
    </g>
    <g id="text_5">
     <!-- log10 of Df -->
     <g transform="translate(175.214063 339.313125) scale(0.2 -0.2)">
      <defs>
       <path id="DejaVuSans-6c" d="M 603 4863 
L 1178 4863 
L 1178 0 
L 603 0 
L 603 4863 
z
" transform="scale(0.015625)"/>
       <path id="DejaVuSans-6f" d="M 1959 3097 
Q 1497 3097 1228 2736 
Q 959 2375 959 1747 
Q 959 1119 1226 758 
Q 1494 397 1959 397 
Q 2419 397 2687 759 
Q 2956 1122 2956 1747 
Q 2956 2369 2687 2733 
Q 2419 3097 1959 3097 
z
M 1959 3584 
Q 2709 3584 3137 3096 
Q 3566 2609 3566 1747 
Q 3566 888 3137 398 
Q 2709 -91 1959 -91 
Q 1206 -91 779 398 
Q 353 888 353 1747 
Q 353 2609 779 3096 
Q 1206 3584 1959 3584 
z
" transform="scale(0.015625)"/>
       <path id="DejaVuSans-67" d="M 2906 1791 
Q 2906 2416 2648 2759 
Q 2391 3103 1925 3103 
Q 1463 3103 1205 2759 
Q 947 2416 947 1791 
Q 947 1169 1205 825 
Q 1463 481 1925 481 
Q 2391 481 2648 825 
Q 2906 1169 2906 1791 
z
M 3481 434 
Q 3481 -459 3084 -895 
Q 2688 -1331 1869 -1331 
Q 1566 -1331 1297 -1286 
Q 1028 -1241 775 -1147 
L 775 -588 
Q 1028 -725 1275 -790 
Q 1522 -856 1778 -856 
Q 2344 -856 2625 -561 
Q 2906 -266 2906 331 
L 2906 616 
Q 2728 306 2450 153 
Q 2172 0 1784 0 
Q 1141 0 747 490 
Q 353 981 353 1791 
Q 353 2603 747 3093 
Q 1141 3584 1784 3584 
Q 2172 3584 2450 3431 
Q 2728 3278 2906 2969 
L 2906 3500 
L 3481 3500 
L 3481 434 
z
" transform="scale(0.015625)"/>
       <path id="DejaVuSans-30" d="M 2034 4250 
Q 1547 4250 1301 3770 
Q 1056 3291 1056 2328 
Q 1056 1369 1301 889 
Q 1547 409 2034 409 
Q 2525 409 2770 889 
Q 3016 1369 3016 2328 
Q 3016 3291 2770 3770 
Q 2525 4250 2034 4250 
z
M 2034 4750 
Q 2819 4750 3233 4129 
Q 3647 3509 3647 2328 
Q 3647 1150 3233 529 
Q 2819 -91 2034 -91 
Q 1250 -91 836 529 
Q 422 1150 422 2328 
Q 422 3509 836 4129 
Q 1250 4750 2034 4750 
z
" transform="scale(0.015625)"/>
       <path id="DejaVuSans-20" transform="scale(0.015625)"/>
       <path id="DejaVuSans-66" d="M 2375 4863 
L 2375 4384 
L 1825 4384 
Q 1516 4384 1395 4259 
Q 1275 4134 1275 3809 
L 1275 3500 
L 2222 3500 
L 2222 3053 
L 1275 3053 
L 1275 0 
L 697 0 
L 697 3053 
L 147 3053 
L 147 3500 
L 697 3500 
L 697 3744 
Q 697 4328 969 4595 
Q 1241 4863 1831 4863 
L 2375 4863 
z
" transform="scale(0.015625)"/>
       <path id="DejaVuSans-44" d="M 1259 4147 
L 1259 519 
L 2022 519 
Q 2988 519 3436 956 
Q 3884 1394 3884 2338 
Q 3884 3275 3436 3711 
Q 2988 4147 2022 4147 
L 1259 4147 
z
M 628 4666 
L 1925 4666 
Q 3281 4666 3915 4102 
Q 4550 3538 4550 2338 
Q 4550 1131 3912 565 
Q 3275 0 1925 0 
L 628 0 
L 628 4666 
z
" transform="scale(0.015625)"/>
      </defs>
      <use xlink:href="#DejaVuSans-6c"/>
      <use xlink:href="#DejaVuSans-6f" x="27.783203"/>
      <use xlink:href="#DejaVuSans-67" x="88.964844"/>
      <use xlink:href="#DejaVuSans-31" x="152.441406"/>
      <use xlink:href="#DejaVuSans-30" x="216.064453"/>
      <use xlink:href="#DejaVuSans-20" x="279.6875"/>
      <use xlink:href="#DejaVuSans-6f" x="311.474609"/>
      <use xlink:href="#DejaVuSans-66" x="372.65625"/>
      <use xlink:href="#DejaVuSans-20" x="407.861328"/>
      <use xlink:href="#DejaVuSans-44" x="439.648438"/>
      <use xlink:href="#DejaVuSans-66" x="516.650391"/>
     </g>
    </g>
   </g>
   <g id="matplotlib.axis_2">
    <g id="ytick_1">
     <g id="line2d_9">
      <path d="M 0 293.76 
L 460.8 293.76 
" clip-path="url(#pa14d05cc8b)" style="fill: none; stroke: #b0b0b0; stroke-width: 0.8; stroke-linecap: square"/>
     </g>
     <g id="line2d_10">
      <defs>
       <path id="m46513b76a0" d="M 0 0 
L -3.5 0 
" style="stroke: #000000; stroke-width: 0.8"/>
      </defs>
      <g>
       <use xlink:href="#m46513b76a0" x="0" y="293.76" style="stroke: #000000; stroke-width: 0.8"/>
      </g>
     </g>
    </g>
    <g id="ytick_2">
     <g id="line2d_11">
      <path d="M 0 236.274059 
L 460.8 236.274059 
" clip-path="url(#pa14d05cc8b)" style="fill: none; stroke: #b0b0b0; stroke-width: 0.8; stroke-linecap: square"/>
     </g>
     <g id="line2d_12">
      <g>
       <use xlink:href="#m46513b76a0" x="0" y="236.274059" style="stroke: #000000; stroke-width: 0.8"/>
      </g>
     </g>
    </g>
    <g id="ytick_3">
     <g id="line2d_13">
      <path d="M 0 178.788119 
L 460.8 178.788119 
" clip-path="url(#pa14d05cc8b)" style="fill: none; stroke: #b0b0b0; stroke-width: 0.8; stroke-linecap: square"/>
     </g>
     <g id="line2d_14">
      <g>
       <use xlink:href="#m46513b76a0" x="0" y="178.788119" style="stroke: #000000; stroke-width: 0.8"/>
      </g>
     </g>
    </g>
    <g id="ytick_4">
     <g id="line2d_15">
      <path d="M 0 121.302178 
L 460.8 121.302178 
" clip-path="url(#pa14d05cc8b)" style="fill: none; stroke: #b0b0b0; stroke-width: 0.8; stroke-linecap: square"/>
     </g>
     <g id="line2d_16">
      <g>
       <use xlink:href="#m46513b76a0" x="0" y="121.302178" style="stroke: #000000; stroke-width: 0.8"/>
      </g>
     </g>
    </g>
    <g id="ytick_5">
     <g id="line2d_17">
      <path d="M 0 63.816238 
L 460.8 63.816238 
" clip-path="url(#pa14d05cc8b)" style="fill: none; stroke: #b0b0b0; stroke-width: 0.8; stroke-linecap: square"/>
     </g>
     <g id="line2d_18">
      <g>
       <use xlink:href="#m46513b76a0" x="0" y="63.816238" style="stroke: #000000; stroke-width: 0.8"/>
      </g>
     </g>
    </g>
    <g id="ytick_6">
     <g id="line2d_19">
      <path d="M 0 6.330297 
L 460.8 6.330297 
" clip-path="url(#pa14d05cc8b)" style="fill: none; stroke: #b0b0b0; stroke-width: 0.8; stroke-linecap: square"/>
     </g>
     <g id="line2d_20">
      <g>
       <use xlink:href="#m46513b76a0" x="0" y="6.330297" style="stroke: #000000; stroke-width: 0.8"/>
      </g>
     </g>
    </g>
   </g>
   <g id="line2d_21">
    <path d="M 352.312197 293.76 
L 352.312197 289.927604 
L 353.224425 289.927604 
L 353.224425 286.095208 
L 353.489957 286.095208 
L 353.489957 282.262812 
L 354.252752 282.262812 
L 354.252752 278.430416 
L 354.910982 278.430416 
L 354.910982 274.59802 
L 355.149633 274.59802 
L 355.149633 270.765624 
L 356.17485 270.765624 
L 356.17485 266.933228 
L 357.056937 266.933228 
L 357.061427 259.268436 
L 357.331673 259.268436 
L 357.331673 255.43604 
L 357.90423 255.43604 
L 357.90423 251.603644 
L 358.599199 251.603644 
L 358.678695 243.938851 
L 359.050862 243.938851 
L 359.050862 240.106455 
L 359.165724 240.106455 
L 359.226794 232.441663 
L 359.355229 232.441663 
L 359.355229 228.609267 
L 359.595851 228.609267 
L 359.647109 220.944475 
L 359.787982 220.944475 
L 359.787982 217.112079 
L 359.954809 217.112079 
L 359.997646 209.447287 
L 360.208034 209.447287 
L 360.22085 201.782495 
L 360.355641 201.782495 
L 360.355641 197.950099 
L 360.978349 197.950099 
L 361.020036 190.285307 
L 361.719226 190.285307 
L 361.740324 182.620515 
L 361.866794 182.620515 
L 361.866794 178.788119 
L 361.999241 178.788119 
L 361.999241 174.955723 
L 362.247407 174.955723 
L 362.283692 167.290931 
L 362.382732 167.290931 
L 362.425263 159.626139 
L 362.548806 159.626139 
L 362.548806 155.793743 
L 362.673977 155.793743 
L 362.684717 148.12895 
L 363.39709 148.12895 
L 363.45867 140.464158 
L 363.976924 140.464158 
L 363.976924 136.631762 
L 364.177259 136.631762 
L 364.177259 132.799366 
L 364.495431 132.799366 
L 364.495431 128.96697 
L 364.672713 128.96697 
L 364.672713 125.134574 
L 365.993917 125.134574 
L 365.993917 121.302178 
L 374.294912 121.302178 
L 374.294912 117.469782 
L 375.077063 117.469782 
L 375.160882 109.80499 
L 375.738117 109.80499 
L 375.738117 105.972594 
L 376.093546 105.972594 
L 376.093546 102.140198 
L 376.268495 102.140198 
L 376.268495 98.307802 
L 376.56804 98.307802 
L 376.657499 90.64301 
L 376.941986 90.64301 
L 376.943406 82.978218 
L 377.236534 82.978218 
L 377.236534 79.145822 
L 377.357218 79.145822 
L 377.357218 75.313426 
L 377.643553 75.313426 
L 377.643553 71.48103 
L 378.068345 71.48103 
L 378.068345 67.648634 
L 378.312646 67.648634 
L 378.312646 63.816238 
L 413.01487 63.816238 
L 413.01487 59.983842 
L 413.253265 59.983842 
L 413.253265 56.151446 
L 415.820097 56.151446 
L 415.908918 48.486653 
L 416.39025 48.486653 
L 416.39025 44.654257 
L 419.155422 44.654257 
L 419.223992 36.989465 
L 419.613642 36.989465 
L 419.613642 33.157069 
L 419.799682 33.157069 
L 419.799682 29.324673 
L 420.617701 29.324673 
L 420.617701 25.492277 
L 421.507447 25.492277 
L 421.507447 21.659881 
L 421.79691 21.659881 
L 421.79691 17.827485 
L 421.962271 17.827485 
L 421.962271 13.995089 
L 425.385901 13.995089 
L 425.385901 10.162693 
L 427.531854 10.162693 
L 427.531854 6.330297 
L 427.531854 6.330297 
L 460.8 6.330297 
L 460.8 6.330297 
" clip-path="url(#pa14d05cc8b)" style="fill: none; stroke: #ff0000; stroke-width: 3; stroke-linecap: square"/>
   </g>
   <g id="line2d_22">
    <path d="M 354.910982 293.76 
L 354.910982 289.927604 
L 357.898818 289.927604 
L 357.898818 286.095208 
L 358.851422 286.095208 
L 358.851422 282.262812 
L 359.50328 282.262812 
L 359.595851 274.59802 
L 359.625183 274.59802 
L 359.697067 266.933228 
L 359.808016 266.933228 
L 359.808016 263.100832 
L 359.997646 263.100832 
L 359.997646 259.268436 
L 360.463798 259.268436 
L 360.463798 255.43604 
L 360.747303 255.43604 
L 360.747303 251.603644 
L 360.978349 251.603644 
L 360.978349 247.771248 
L 362.382732 247.771248 
L 362.382732 243.938851 
L 362.498223 243.938851 
L 362.498223 240.106455 
L 362.673977 240.106455 
L 362.673977 236.274059 
L 362.927356 236.274059 
L 362.927356 232.441663 
L 363.051489 232.441663 
L 363.051489 228.609267 
L 363.49469 228.609267 
L 363.520993 220.944475 
L 363.976924 220.944475 
L 363.99192 213.279683 
L 364.635774 213.279683 
L 364.682177 201.782495 
L 364.783346 201.782495 
L 364.877702 190.285307 
L 364.926355 190.285307 
L 364.926355 186.452911 
L 365.707184 186.452911 
L 365.795515 178.788119 
L 365.82012 178.788119 
L 365.885038 167.290931 
L 366.012619 167.290931 
L 366.012619 163.458535 
L 366.912453 163.458535 
L 366.984474 148.12895 
L 367.461546 148.12895 
L 367.461546 144.296554 
L 368.036745 144.296554 
L 368.036745 140.464158 
L 368.169354 140.464158 
L 368.169354 136.631762 
L 368.647166 136.631762 
L 368.647166 132.799366 
L 368.791415 132.799366 
L 368.791415 128.96697 
L 369.182292 128.96697 
L 369.182292 125.134574 
L 373.77467 125.134574 
L 373.77467 121.302178 
L 376.268495 121.302178 
L 376.268495 117.469782 
L 378.121589 117.469782 
L 378.121589 113.637386 
L 378.269697 113.637386 
L 378.353666 105.972594 
L 378.387763 105.972594 
L 378.387763 102.140198 
L 378.706012 102.140198 
L 378.756191 94.475406 
L 378.841525 94.475406 
L 378.841525 90.64301 
L 379.135974 90.64301 
L 379.18257 82.978218 
L 379.277288 82.978218 
L 379.383669 75.313426 
L 379.685747 75.313426 
L 379.685747 71.48103 
L 379.996744 71.48103 
L 379.996744 67.648634 
L 380.978254 67.648634 
L 380.978254 63.816238 
L 419.229142 63.816238 
L 419.229142 59.983842 
L 419.613642 59.983842 
L 419.613642 56.151446 
L 420.01582 56.151446 
L 420.01582 52.31905 
L 421.470045 52.31905 
L 421.470045 48.486653 
L 423.12205 48.486653 
L 423.12205 44.654257 
L 423.798577 44.654257 
L 423.798577 40.821861 
L 424.554087 40.821861 
L 424.554087 36.989465 
L 425.094664 36.989465 
L 425.094664 33.157069 
L 430.088726 33.157069 
L 430.088726 29.324673 
L 432.594952 29.324673 
L 432.594952 25.492277 
L 432.989524 25.492277 
L 432.989524 21.659881 
L 433.910125 21.659881 
L 433.910125 17.827485 
L 434.375506 17.827485 
L 434.375506 13.995089 
L 435.181351 13.995089 
L 435.181351 10.162693 
L 436.505168 10.162693 
L 436.505168 6.330297 
L 436.505168 6.330297 
L 460.8 6.330297 
L 460.8 6.330297 
" clip-path="url(#pa14d05cc8b)" style="fill: none; stroke: #00bfbf; stroke-width: 1.5; stroke-linecap: square"/>
   </g>
   <g id="line2d_23">
    <path d="M 354.910982 293.76 
L 354.910982 289.927604 
L 356.507185 289.927604 
L 356.507185 286.095208 
L 357.061427 286.095208 
L 357.061427 282.262812 
L 357.898818 282.262812 
L 357.898818 278.430416 
L 358.200388 278.430416 
L 358.200388 274.59802 
L 359.165724 274.59802 
L 359.165724 270.765624 
L 359.50328 270.765624 
L 359.595851 263.100832 
L 359.625183 263.100832 
L 359.732436 255.43604 
L 359.997646 255.43604 
L 359.997646 251.603644 
L 360.655262 251.603644 
L 360.747303 243.938851 
L 360.857958 243.938851 
L 360.895039 236.274059 
L 360.978349 236.274059 
L 360.978349 232.441663 
L 361.253524 232.441663 
L 361.253524 228.609267 
L 361.507033 228.609267 
L 361.507033 224.776871 
L 361.719226 224.776871 
L 361.719226 220.944475 
L 362.313415 220.944475 
L 362.382732 213.279683 
L 362.498223 213.279683 
L 362.498223 209.447287 
L 362.673977 209.447287 
L 362.751909 197.950099 
L 362.927356 197.950099 
L 363.013494 190.285307 
L 363.051489 190.285307 
L 363.142576 182.620515 
L 363.49469 182.620515 
L 363.49469 178.788119 
L 363.645092 178.788119 
L 363.645092 174.955723 
L 363.933729 174.955723 
L 363.976924 167.290931 
L 364.19155 167.290931 
L 364.19155 163.458535 
L 364.488383 163.458535 
L 364.488383 159.626139 
L 364.682177 159.626139 
L 364.790594 151.961347 
L 364.877702 151.961347 
L 364.877702 148.12895 
L 365.772667 148.12895 
L 365.772667 144.296554 
L 365.885038 144.296554 
L 365.885038 140.464158 
L 366.622744 140.464158 
L 366.622744 136.631762 
L 366.912453 136.631762 
L 366.912453 132.799366 
L 367.158447 132.799366 
L 367.158447 128.96697 
L 367.920941 128.96697 
L 367.920941 125.134574 
L 368.491645 125.134574 
L 368.491645 121.302178 
L 374.294912 121.302178 
L 374.294912 117.469782 
L 375.738117 117.469782 
L 375.738117 113.637386 
L 376.268495 113.637386 
L 376.268495 109.80499 
L 376.56804 109.80499 
L 376.56804 105.972594 
L 376.958252 105.972594 
L 376.958252 102.140198 
L 377.301953 102.140198 
L 377.301953 98.307802 
L 377.442151 98.307802 
L 377.442151 94.475406 
L 377.584516 94.475406 
L 377.584516 90.64301 
L 378.353666 90.64301 
L 378.387763 82.978218 
L 378.756191 82.978218 
L 378.860814 75.313426 
L 378.975755 75.313426 
L 379.04479 67.648634 
L 379.18257 67.648634 
L 379.18257 63.816238 
L 416.39025 63.816238 
L 416.39025 59.983842 
L 419.229142 59.983842 
L 419.229142 56.151446 
L 419.613642 56.151446 
L 419.613642 52.31905 
L 420.01582 52.31905 
L 420.01582 48.486653 
L 421.470045 48.486653 
L 421.470045 44.654257 
L 423.12205 44.654257 
L 423.12205 40.821861 
L 423.798577 40.821861 
L 423.798577 36.989465 
L 424.121207 36.989465 
L 424.121207 33.157069 
L 428.14063 33.157069 
L 428.14063 29.324673 
L 430.088726 29.324673 
L 430.088726 25.492277 
L 430.33612 25.492277 
L 430.33612 21.659881 
L 430.943965 21.659881 
L 430.943965 17.827485 
L 432.382629 17.827485 
L 432.382629 13.995089 
L 432.870155 13.995089 
L 432.870155 10.162693 
L 433.552175 10.162693 
L 433.552175 6.330297 
L 433.552175 6.330297 
L 460.8 6.330297 
L 460.8 6.330297 
" clip-path="url(#pa14d05cc8b)" style="fill: none; stroke: #bf00bf; stroke-width: 1.5; stroke-linecap: square"/>
   </g>
   <g id="line2d_24">
    <path d="M 352.312197 293.76 
L 352.312197 289.927604 
L 354.252752 289.927604 
L 354.252752 286.095208 
L 354.910982 286.095208 
L 354.910982 282.262812 
L 355.149633 282.262812 
L 355.149633 278.430416 
L 356.17485 278.430416 
L 356.17485 274.59802 
L 357.061427 274.59802 
L 357.061427 270.765624 
L 357.331673 270.765624 
L 357.331673 266.933228 
L 357.90423 266.933228 
L 357.90423 263.100832 
L 358.199397 263.100832 
L 358.199397 259.268436 
L 358.678695 259.268436 
L 358.678695 255.43604 
L 359.165724 255.43604 
L 359.165724 251.603644 
L 359.355229 251.603644 
L 359.355229 247.771248 
L 359.595851 247.771248 
L 359.595851 243.938851 
L 359.732436 243.938851 
L 359.732436 240.106455 
L 359.954809 240.106455 
L 359.997646 232.441663 
L 360.22085 232.441663 
L 360.283158 224.776871 
L 360.513213 224.776871 
L 360.513213 220.944475 
L 360.655262 220.944475 
L 360.655262 217.112079 
L 360.895039 217.112079 
L 360.978349 209.447287 
L 361.020036 209.447287 
L 361.020036 205.614891 
L 361.253524 205.614891 
L 361.253524 201.782495 
L 361.719226 201.782495 
L 361.753882 194.117703 
L 361.999241 194.117703 
L 362.075458 186.452911 
L 362.247407 186.452911 
L 362.283692 178.788119 
L 362.382732 178.788119 
L 362.382732 174.955723 
L 362.673977 174.955723 
L 362.751909 163.458535 
L 363.343927 163.458535 
L 363.41314 151.961347 
L 363.45867 151.961347 
L 363.49469 144.296554 
L 363.976924 144.296554 
L 363.976924 140.464158 
L 364.177259 140.464158 
L 364.19155 132.799366 
L 364.672713 132.799366 
L 364.672713 128.96697 
L 366.017543 128.96697 
L 366.017543 125.134574 
L 367.64693 125.134574 
L 367.64693 121.302178 
L 374.294912 121.302178 
L 374.294912 117.469782 
L 375.077063 117.469782 
L 375.077063 113.637386 
L 375.738117 113.637386 
L 375.738117 109.80499 
L 376.268495 109.80499 
L 376.268495 105.972594 
L 376.56804 105.972594 
L 376.657499 98.307802 
L 376.941986 98.307802 
L 377.038984 86.810614 
L 377.417083 86.810614 
L 377.442151 79.145822 
L 377.643553 79.145822 
L 377.643553 75.313426 
L 378.312646 75.313426 
L 378.353666 67.648634 
L 379.18257 67.648634 
L 379.18257 63.816238 
L 413.253265 63.816238 
L 413.253265 59.983842 
L 416.39025 59.983842 
L 416.39025 56.151446 
L 419.223992 56.151446 
L 419.229142 48.486653 
L 419.613642 48.486653 
L 419.613642 44.654257 
L 419.799682 44.654257 
L 419.799682 40.821861 
L 419.950204 40.821861 
L 420.01582 33.157069 
L 420.617701 33.157069 
L 420.617701 29.324673 
L 421.962271 29.324673 
L 421.962271 25.492277 
L 423.709027 25.492277 
L 423.709027 21.659881 
L 425.385901 21.659881 
L 425.385901 17.827485 
L 426.039187 17.827485 
L 426.039187 13.995089 
L 427.531854 13.995089 
L 427.531854 10.162693 
L 431.036197 10.162693 
L 431.036197 6.330297 
L 431.036197 6.330297 
L 460.8 6.330297 
L 460.8 6.330297 
" clip-path="url(#pa14d05cc8b)" style="fill: none; stroke: #000000; stroke-width: 1.5; stroke-linecap: square"/>
   </g>
   <g id="patch_3">
    <path d="M 0 293.76 
L 0 3.456 
" style="fill: none; stroke: #000000; stroke-width: 0.8; stroke-linejoin: miter; stroke-linecap: square"/>
   </g>
   <g id="patch_4">
    <path d="M 460.8 293.76 
L 460.8 3.456 
" style="fill: none; stroke: #000000; stroke-width: 0.8; stroke-linejoin: miter; stroke-linecap: square"/>
   </g>
   <g id="patch_5">
    <path d="M 0 293.76 
L 460.8 293.76 
" style="fill: none; stroke: #000000; stroke-width: 0.8; stroke-linejoin: miter; stroke-linecap: square"/>
   </g>
   <g id="patch_6">
    <path d="M 0 3.456 
L 460.8 3.456 
" style="fill: none; stroke: #000000; stroke-width: 0.8; stroke-linejoin: miter; stroke-linecap: square"/>
   </g>
   <g id="text_6">
    <!-- {f1-f5}, 40-D -->
    <g transform="translate(318.609 287.95392) scale(0.2 -0.2)">
     <defs>
      <path id="DejaVuSans-7b" d="M 3272 -594 
L 3272 -1044 
L 3078 -1044 
Q 2300 -1044 2036 -812 
Q 1772 -581 1772 109 
L 1772 856 
Q 1772 1328 1603 1509 
Q 1434 1691 991 1691 
L 800 1691 
L 800 2138 
L 991 2138 
Q 1438 2138 1605 2317 
Q 1772 2497 1772 2963 
L 1772 3713 
Q 1772 4403 2036 4633 
Q 2300 4863 3078 4863 
L 3272 4863 
L 3272 4416 
L 3059 4416 
Q 2619 4416 2484 4278 
Q 2350 4141 2350 3700 
L 2350 2925 
Q 2350 2434 2208 2212 
Q 2066 1991 1722 1913 
Q 2069 1828 2209 1606 
Q 2350 1384 2350 897 
L 2350 122 
Q 2350 -319 2484 -456 
Q 2619 -594 3059 -594 
L 3272 -594 
z
" transform="scale(0.015625)"/>
      <path id="DejaVuSans-7d" d="M 800 -594 
L 1019 -594 
Q 1456 -594 1589 -459 
Q 1722 -325 1722 122 
L 1722 897 
Q 1722 1384 1862 1606 
Q 2003 1828 2350 1913 
Q 2003 1991 1862 2212 
Q 1722 2434 1722 2925 
L 1722 3700 
Q 1722 4144 1589 4280 
Q 1456 4416 1019 4416 
L 800 4416 
L 800 4863 
L 997 4863 
Q 1775 4863 2036 4633 
Q 2297 4403 2297 3713 
L 2297 2963 
Q 2297 2497 2465 2317 
Q 2634 2138 3078 2138 
L 3272 2138 
L 3272 1691 
L 3078 1691 
Q 2634 1691 2465 1509 
Q 2297 1328 2297 856 
L 2297 109 
Q 2297 -581 2036 -812 
Q 1775 -1044 997 -1044 
L 800 -1044 
L 800 -594 
z
" transform="scale(0.015625)"/>
      <path id="DejaVuSans-2c" d="M 750 794 
L 1409 794 
L 1409 256 
L 897 -744 
L 494 -744 
L 750 256 
L 750 794 
z
" transform="scale(0.015625)"/>
     </defs>
     <use xlink:href="#DejaVuSans-7b"/>
     <use xlink:href="#DejaVuSans-66" x="63.623047"/>
     <use xlink:href="#DejaVuSans-31" x="98.828125"/>
     <use xlink:href="#DejaVuSans-2d" x="162.451172"/>
     <use xlink:href="#DejaVuSans-66" x="198.535156"/>
     <use xlink:href="#DejaVuSans-35" x="233.740234"/>
     <use xlink:href="#DejaVuSans-7d" x="297.363281"/>
     <use xlink:href="#DejaVuSans-2c" x="360.986328"/>
     <use xlink:href="#DejaVuSans-20" x="392.773438"/>
     <use xlink:href="#DejaVuSans-34" x="424.560547"/>
     <use xlink:href="#DejaVuSans-30" x="488.183594"/>
     <use xlink:href="#DejaVuSans-2d" x="551.806641"/>
     <use xlink:href="#DejaVuSans-44" x="587.890625"/>
    </g>
   </g>
   <g id="text_7">
    <!-- v2.6.4 -->
    <g style="fill: #808080" transform="translate(214.71875 288.777272) scale(0.1 -0.1)">
     <defs>
      <path id="DejaVuSans-76" d="M 191 3500 
L 800 3500 
L 1894 563 
L 2988 3500 
L 3597 3500 
L 2284 0 
L 1503 0 
L 191 3500 
z
" transform="scale(0.015625)"/>
      <path id="DejaVuSans-2e" d="M 684 794 
L 1344 794 
L 1344 0 
L 684 0 
L 684 794 
z
" transform="scale(0.015625)"/>
      <path id="DejaVuSans-36" d="M 2113 2584 
Q 1688 2584 1439 2293 
Q 1191 2003 1191 1497 
Q 1191 994 1439 701 
Q 1688 409 2113 409 
Q 2538 409 2786 701 
Q 3034 994 3034 1497 
Q 3034 2003 2786 2293 
Q 2538 2584 2113 2584 
z
M 3366 4563 
L 3366 3988 
Q 3128 4100 2886 4159 
Q 2644 4219 2406 4219 
Q 1781 4219 1451 3797 
Q 1122 3375 1075 2522 
Q 1259 2794 1537 2939 
Q 1816 3084 2150 3084 
Q 2853 3084 3261 2657 
Q 3669 2231 3669 1497 
Q 3669 778 3244 343 
Q 2819 -91 2113 -91 
Q 1303 -91 875 529 
Q 447 1150 447 2328 
Q 447 3434 972 4092 
Q 1497 4750 2381 4750 
Q 2619 4750 2861 4703 
Q 3103 4656 3366 4563 
z
" transform="scale(0.015625)"/>
     </defs>
     <use xlink:href="#DejaVuSans-76"/>
     <use xlink:href="#DejaVuSans-32" x="59.179688"/>
     <use xlink:href="#DejaVuSans-2e" x="122.802734"/>
     <use xlink:href="#DejaVuSans-36" x="154.589844"/>
     <use xlink:href="#DejaVuSans-2e" x="218.212891"/>
     <use xlink:href="#DejaVuSans-34" x="250"/>
    </g>
   </g>
  </g>
 </g>
 <defs>
  <clipPath id="pa14d05cc8b">
   <rect x="0" y="3.456" width="460.8" height="290.304"/>
  </clipPath>
 </defs>
</svg>
