<?xml version="1.0" encoding="utf-8" standalone="no"?>
<!DOCTYPE svg PUBLIC "-//W3C//DTD SVG 1.1//EN"
  "http://www.w3.org/Graphics/SVG/1.1/DTD/svg11.dtd">
<svg xmlns:xlink="http://www.w3.org/1999/xlink" width="460.8pt" height="345.6pt" viewBox="0 0 460.8 345.6" xmlns="http://www.w3.org/2000/svg" version="1.1">
 <metadata>
  <rdf:RDF xmlns:dc="http://purl.org/dc/elements/1.1/" xmlns:cc="http://creativecommons.org/ns#" xmlns:rdf="http://www.w3.org/1999/02/22-rdf-syntax-ns#">
   <cc:Work>
    <dc:type rdf:resource="http://purl.org/dc/dcmitype/StillImage"/>
    <dc:date>2024-10-11T15:13:54.502724</dc:date>
    <dc:format>image/svg+xml</dc:format>
    <dc:creator>
     <cc:Agent>
      <dc:title>Matplotlib v3.9.2, https://matplotlib.org/</dc:title>
     </cc:Agent>
    </dc:creator>
   </cc:Work>
  </rdf:RDF>
 </metadata>
 <defs>
  <style type="text/css">*{stroke-linejoin: round; stroke-linecap: butt}</style>
 </defs>
 <g id="figure_1">
  <g id="patch_1">
   <path d="M 0 345.6 
L 460.8 345.6 
L 460.8 0 
L 0 0 
z
" style="fill: #ffffff"/>
  </g>
  <g id="axes_1">
   <g id="patch_2">
    <path d="M 0 293.76 
L 460.8 293.76 
L 460.8 3.456 
L 0 3.456 
z
" style="fill: #ffffff"/>
   </g>
   <g id="matplotlib.axis_1">
    <g id="xtick_1">
     <g id="line2d_1">
      <path d="M 102.630429 293.76 
L 102.630429 3.456 
" clip-path="url(#pebed418f86)" style="fill: none; stroke: #b0b0b0; stroke-width: 0.8; stroke-linecap: square"/>
     </g>
     <g id="line2d_2">
      <defs>
       <path id="m70216503c5" d="M 0 0 
L 0 3.5 
" style="stroke: #000000; stroke-width: 0.8"/>
      </defs>
      <g>
       <use xlink:href="#m70216503c5" x="102.630429" y="293.76" style="stroke: #000000; stroke-width: 0.8"/>
      </g>
     </g>
     <g id="text_1">
      <!-- -5 -->
      <g transform="translate(92.660117 315.956875) scale(0.2 -0.2)">
       <defs>
        <path id="DejaVuSans-2d" d="M 313 2009 
L 1997 2009 
L 1997 1497 
L 313 1497 
L 313 2009 
z
" transform="scale(0.015625)"/>
        <path id="DejaVuSans-35" d="M 691 4666 
L 3169 4666 
L 3169 4134 
L 1269 4134 
L 1269 2991 
Q 1406 3038 1543 3061 
Q 1681 3084 1819 3084 
Q 2600 3084 3056 2656 
Q 3513 2228 3513 1497 
Q 3513 744 3044 326 
Q 2575 -91 1722 -91 
Q 1428 -91 1123 -41 
Q 819 9 494 109 
L 494 744 
Q 775 591 1075 516 
Q 1375 441 1709 441 
Q 2250 441 2565 725 
Q 2881 1009 2881 1497 
Q 2881 1984 2565 2268 
Q 2250 2553 1709 2553 
Q 1456 2553 1204 2497 
Q 953 2441 691 2322 
L 691 4666 
z
" transform="scale(0.015625)"/>
       </defs>
       <use xlink:href="#DejaVuSans-2d"/>
       <use xlink:href="#DejaVuSans-35" x="36.083984"/>
      </g>
     </g>
    </g>
    <g id="xtick_2">
     <g id="line2d_3">
      <path d="M 205.408906 293.76 
L 205.408906 3.456 
" clip-path="url(#pebed418f86)" style="fill: none; stroke: #b0b0b0; stroke-width: 0.8; stroke-linecap: square"/>
     </g>
     <g id="line2d_4">
      <g>
       <use xlink:href="#m70216503c5" x="205.408906" y="293.76" style="stroke: #000000; stroke-width: 0.8"/>
      </g>
     </g>
     <g id="text_2">
      <!-- -2 -->
      <g transform="translate(195.438594 315.956875) scale(0.2 -0.2)">
       <defs>
        <path id="DejaVuSans-32" d="M 1228 531 
L 3431 531 
L 3431 0 
L 469 0 
L 469 531 
Q 828 903 1448 1529 
Q 2069 2156 2228 2338 
Q 2531 2678 2651 2914 
Q 2772 3150 2772 3378 
Q 2772 3750 2511 3984 
Q 2250 4219 1831 4219 
Q 1534 4219 1204 4116 
Q 875 4013 500 3803 
L 500 4441 
Q 881 4594 1212 4672 
Q 1544 4750 1819 4750 
Q 2544 4750 2975 4387 
Q 3406 4025 3406 3419 
Q 3406 3131 3298 2873 
Q 3191 2616 2906 2266 
Q 2828 2175 2409 1742 
Q 1991 1309 1228 531 
z
" transform="scale(0.015625)"/>
       </defs>
       <use xlink:href="#DejaVuSans-2d"/>
       <use xlink:href="#DejaVuSans-32" x="36.083984"/>
      </g>
     </g>
    </g>
    <g id="xtick_3">
     <g id="line2d_5">
      <path d="M 308.187383 293.76 
L 308.187383 3.456 
" clip-path="url(#pebed418f86)" style="fill: none; stroke: #b0b0b0; stroke-width: 0.8; stroke-linecap: square"/>
     </g>
     <g id="line2d_6">
      <g>
       <use xlink:href="#m70216503c5" x="308.187383" y="293.76" style="stroke: #000000; stroke-width: 0.8"/>
      </g>
     </g>
     <g id="text_3">
      <!-- 1 -->
      <g transform="translate(301.824883 315.956875) scale(0.2 -0.2)">
       <defs>
        <path id="DejaVuSans-31" d="M 794 531 
L 1825 531 
L 1825 4091 
L 703 3866 
L 703 4441 
L 1819 4666 
L 2450 4666 
L 2450 531 
L 3481 531 
L 3481 0 
L 794 0 
L 794 531 
z
" transform="scale(0.015625)"/>
       </defs>
       <use xlink:href="#DejaVuSans-31"/>
      </g>
     </g>
    </g>
    <g id="xtick_4">
     <g id="line2d_7">
      <path d="M 410.965861 293.76 
L 410.965861 3.456 
" clip-path="url(#pebed418f86)" style="fill: none; stroke: #b0b0b0; stroke-width: 0.8; stroke-linecap: square"/>
     </g>
     <g id="line2d_8">
      <g>
       <use xlink:href="#m70216503c5" x="410.965861" y="293.76" style="stroke: #000000; stroke-width: 0.8"/>
      </g>
     </g>
     <g id="text_4">
      <!-- 4 -->
      <g transform="translate(404.603361 315.956875) scale(0.2 -0.2)">
       <defs>
        <path id="DejaVuSans-34" d="M 2419 4116 
L 825 1625 
L 2419 1625 
L 2419 4116 
z
M 2253 4666 
L 3047 4666 
L 3047 1625 
L 3713 1625 
L 3713 1100 
L 3047 1100 
L 3047 0 
L 2419 0 
L 2419 1100 
L 313 1100 
L 313 1709 
L 2253 4666 
z
" transform="scale(0.015625)"/>
       </defs>
       <use xlink:href="#DejaVuSans-34"/>
      </g>
     </g>
    </g>
    <g id="text_5">
     <!-- log10 of Df -->
     <g transform="translate(175.214063 339.313125) scale(0.2 -0.2)">
      <defs>
       <path id="DejaVuSans-6c" d="M 603 4863 
L 1178 4863 
L 1178 0 
L 603 0 
L 603 4863 
z
" transform="scale(0.015625)"/>
       <path id="DejaVuSans-6f" d="M 1959 3097 
Q 1497 3097 1228 2736 
Q 959 2375 959 1747 
Q 959 1119 1226 758 
Q 1494 397 1959 397 
Q 2419 397 2687 759 
Q 2956 1122 2956 1747 
Q 2956 2369 2687 2733 
Q 2419 3097 1959 3097 
z
M 1959 3584 
Q 2709 3584 3137 3096 
Q 3566 2609 3566 1747 
Q 3566 888 3137 398 
Q 2709 -91 1959 -91 
Q 1206 -91 779 398 
Q 353 888 353 1747 
Q 353 2609 779 3096 
Q 1206 3584 1959 3584 
z
" transform="scale(0.015625)"/>
       <path id="DejaVuSans-67" d="M 2906 1791 
Q 2906 2416 2648 2759 
Q 2391 3103 1925 3103 
Q 1463 3103 1205 2759 
Q 947 2416 947 1791 
Q 947 1169 1205 825 
Q 1463 481 1925 481 
Q 2391 481 2648 825 
Q 2906 1169 2906 1791 
z
M 3481 434 
Q 3481 -459 3084 -895 
Q 2688 -1331 1869 -1331 
Q 1566 -1331 1297 -1286 
Q 1028 -1241 775 -1147 
L 775 -588 
Q 1028 -725 1275 -790 
Q 1522 -856 1778 -856 
Q 2344 -856 2625 -561 
Q 2906 -266 2906 331 
L 2906 616 
Q 2728 306 2450 153 
Q 2172 0 1784 0 
Q 1141 0 747 490 
Q 353 981 353 1791 
Q 353 2603 747 3093 
Q 1141 3584 1784 3584 
Q 2172 3584 2450 3431 
Q 2728 3278 2906 2969 
L 2906 3500 
L 3481 3500 
L 3481 434 
z
" transform="scale(0.015625)"/>
       <path id="DejaVuSans-30" d="M 2034 4250 
Q 1547 4250 1301 3770 
Q 1056 3291 1056 2328 
Q 1056 1369 1301 889 
Q 1547 409 2034 409 
Q 2525 409 2770 889 
Q 3016 1369 3016 2328 
Q 3016 3291 2770 3770 
Q 2525 4250 2034 4250 
z
M 2034 4750 
Q 2819 4750 3233 4129 
Q 3647 3509 3647 2328 
Q 3647 1150 3233 529 
Q 2819 -91 2034 -91 
Q 1250 -91 836 529 
Q 422 1150 422 2328 
Q 422 3509 836 4129 
Q 1250 4750 2034 4750 
z
" transform="scale(0.015625)"/>
       <path id="DejaVuSans-20" transform="scale(0.015625)"/>
       <path id="DejaVuSans-66" d="M 2375 4863 
L 2375 4384 
L 1825 4384 
Q 1516 4384 1395 4259 
Q 1275 4134 1275 3809 
L 1275 3500 
L 2222 3500 
L 2222 3053 
L 1275 3053 
L 1275 0 
L 697 0 
L 697 3053 
L 147 3053 
L 147 3500 
L 697 3500 
L 697 3744 
Q 697 4328 969 4595 
Q 1241 4863 1831 4863 
L 2375 4863 
z
" transform="scale(0.015625)"/>
       <path id="DejaVuSans-44" d="M 1259 4147 
L 1259 519 
L 2022 519 
Q 2988 519 3436 956 
Q 3884 1394 3884 2338 
Q 3884 3275 3436 3711 
Q 2988 4147 2022 4147 
L 1259 4147 
z
M 628 4666 
L 1925 4666 
Q 3281 4666 3915 4102 
Q 4550 3538 4550 2338 
Q 4550 1131 3912 565 
Q 3275 0 1925 0 
L 628 0 
L 628 4666 
z
" transform="scale(0.015625)"/>
      </defs>
      <use xlink:href="#DejaVuSans-6c"/>
      <use xlink:href="#DejaVuSans-6f" x="27.783203"/>
      <use xlink:href="#DejaVuSans-67" x="88.964844"/>
      <use xlink:href="#DejaVuSans-31" x="152.441406"/>
      <use xlink:href="#DejaVuSans-30" x="216.064453"/>
      <use xlink:href="#DejaVuSans-20" x="279.6875"/>
      <use xlink:href="#DejaVuSans-6f" x="311.474609"/>
      <use xlink:href="#DejaVuSans-66" x="372.65625"/>
      <use xlink:href="#DejaVuSans-20" x="407.861328"/>
      <use xlink:href="#DejaVuSans-44" x="439.648438"/>
      <use xlink:href="#DejaVuSans-66" x="516.650391"/>
     </g>
    </g>
   </g>
   <g id="matplotlib.axis_2">
    <g id="ytick_1">
     <g id="line2d_9">
      <path d="M 0 293.76 
L 460.8 293.76 
" clip-path="url(#pebed418f86)" style="fill: none; stroke: #b0b0b0; stroke-width: 0.8; stroke-linecap: square"/>
     </g>
     <g id="line2d_10">
      <defs>
       <path id="m4de1cbfe83" d="M 0 0 
L -3.5 0 
" style="stroke: #000000; stroke-width: 0.8"/>
      </defs>
      <g>
       <use xlink:href="#m4de1cbfe83" x="0" y="293.76" style="stroke: #000000; stroke-width: 0.8"/>
      </g>
     </g>
    </g>
    <g id="ytick_2">
     <g id="line2d_11">
      <path d="M 0 236.274059 
L 460.8 236.274059 
" clip-path="url(#pebed418f86)" style="fill: none; stroke: #b0b0b0; stroke-width: 0.8; stroke-linecap: square"/>
     </g>
     <g id="line2d_12">
      <g>
       <use xlink:href="#m4de1cbfe83" x="0" y="236.274059" style="stroke: #000000; stroke-width: 0.8"/>
      </g>
     </g>
    </g>
    <g id="ytick_3">
     <g id="line2d_13">
      <path d="M 0 178.788119 
L 460.8 178.788119 
" clip-path="url(#pebed418f86)" style="fill: none; stroke: #b0b0b0; stroke-width: 0.8; stroke-linecap: square"/>
     </g>
     <g id="line2d_14">
      <g>
       <use xlink:href="#m4de1cbfe83" x="0" y="178.788119" style="stroke: #000000; stroke-width: 0.8"/>
      </g>
     </g>
    </g>
    <g id="ytick_4">
     <g id="line2d_15">
      <path d="M 0 121.302178 
L 460.8 121.302178 
" clip-path="url(#pebed418f86)" style="fill: none; stroke: #b0b0b0; stroke-width: 0.8; stroke-linecap: square"/>
     </g>
     <g id="line2d_16">
      <g>
       <use xlink:href="#m4de1cbfe83" x="0" y="121.302178" style="stroke: #000000; stroke-width: 0.8"/>
      </g>
     </g>
    </g>
    <g id="ytick_5">
     <g id="line2d_17">
      <path d="M 0 63.816238 
L 460.8 63.816238 
" clip-path="url(#pebed418f86)" style="fill: none; stroke: #b0b0b0; stroke-width: 0.8; stroke-linecap: square"/>
     </g>
     <g id="line2d_18">
      <g>
       <use xlink:href="#m4de1cbfe83" x="0" y="63.816238" style="stroke: #000000; stroke-width: 0.8"/>
      </g>
     </g>
    </g>
    <g id="ytick_6">
     <g id="line2d_19">
      <path d="M 0 6.330297 
L 460.8 6.330297 
" clip-path="url(#pebed418f86)" style="fill: none; stroke: #b0b0b0; stroke-width: 0.8; stroke-linecap: square"/>
     </g>
     <g id="line2d_20">
      <g>
       <use xlink:href="#m4de1cbfe83" x="0" y="6.330297" style="stroke: #000000; stroke-width: 0.8"/>
      </g>
     </g>
    </g>
   </g>
   <g id="line2d_21">
    <path d="M -0.148048 293.76 
L -0.148048 6.330297 
L -0.148048 6.330297 
L 460.8 6.330297 
L 460.8 6.330297 
" clip-path="url(#pebed418f86)" style="fill: none; stroke: #ff0000; stroke-width: 3; stroke-linecap: square"/>
   </g>
   <g id="line2d_22">
    <path d="M 311.965442 293.76 
L 311.965442 289.927604 
L 313.073443 289.927604 
L 313.073443 286.095208 
L 316.769265 286.095208 
L 316.849337 278.430416 
L 318.272483 278.430416 
L 318.272483 274.59802 
L 319.083334 274.59802 
L 319.083334 270.765624 
L 320.047965 270.765624 
L 320.047965 266.933228 
L 320.830319 266.933228 
L 320.830319 263.100832 
L 321.584784 263.100832 
L 321.584784 259.268436 
L 322.866121 259.268436 
L 322.866121 255.43604 
L 322.988603 255.43604 
L 322.988603 251.603644 
L 323.402529 251.603644 
L 323.402529 247.771248 
L 324.792053 247.771248 
L 324.792053 243.938851 
L 324.952929 243.938851 
L 324.952929 240.106455 
L 325.342845 240.106455 
L 325.342845 236.274059 
L 325.50941 236.274059 
L 325.600573 228.609267 
L 326.067059 228.609267 
L 326.067059 224.776871 
L 326.786249 224.776871 
L 326.845103 217.112079 
L 328.403079 217.112079 
L 328.403079 213.279683 
L 328.594768 213.279683 
L 328.594768 209.447287 
L 329.289796 209.447287 
L 329.374112 201.782495 
L 329.403405 201.782495 
L 329.403405 197.950099 
L 329.875432 197.950099 
L 329.875432 194.117703 
L 329.996117 194.117703 
L 330.039016 186.452911 
L 330.42271 186.452911 
L 330.502203 178.788119 
L 330.985787 178.788119 
L 330.985787 174.955723 
L 331.596105 174.955723 
L 331.596105 171.123327 
L 331.792696 171.123327 
L 331.792696 167.290931 
L 332.148361 167.290931 
L 332.148361 163.458535 
L 332.471418 163.458535 
L 332.471418 159.626139 
L 333.214187 159.626139 
L 333.221594 151.961347 
L 335.409174 151.961347 
L 335.409174 148.12895 
L 336.137431 148.12895 
L 336.137431 144.296554 
L 336.359336 144.296554 
L 336.359336 140.464158 
L 336.611121 140.464158 
L 336.611121 136.631762 
L 337.218605 136.631762 
L 337.218605 132.799366 
L 337.719263 132.799366 
L 337.768801 125.134574 
L 337.883041 125.134574 
L 337.883041 121.302178 
L 339.270971 121.302178 
L 339.270971 117.469782 
L 340.27821 117.469782 
L 340.27821 113.637386 
L 340.578166 113.637386 
L 340.578166 109.80499 
L 341.573498 109.80499 
L 341.573498 105.972594 
L 342.127434 105.972594 
L 342.203803 98.307802 
L 343.449373 98.307802 
L 343.449373 94.475406 
L 343.894247 94.475406 
L 343.894247 90.64301 
L 344.161346 90.64301 
L 344.161346 86.810614 
L 345.267136 86.810614 
L 345.319656 79.145822 
L 345.520655 79.145822 
L 345.520655 75.313426 
L 346.696871 75.313426 
L 346.696871 71.48103 
L 349.911507 71.48103 
L 349.911507 67.648634 
L 351.409799 67.648634 
L 351.409799 63.816238 
L 352.822954 63.816238 
L 352.822954 59.983842 
L 371.980218 59.983842 
L 371.980218 56.151446 
L 373.808513 56.151446 
L 373.808513 52.31905 
L 377.906312 52.31905 
L 377.906312 48.486653 
L 384.229267 48.486653 
L 384.229267 44.654257 
L 384.780182 44.654257 
L 384.780182 40.821861 
L 386.190681 40.821861 
L 386.190681 36.989465 
L 386.686604 36.989465 
L 386.686604 33.157069 
L 389.800288 33.157069 
L 389.800288 29.324673 
L 401.328354 29.324673 
L 401.337208 21.659881 
L 401.440277 21.659881 
L 401.440277 17.827485 
L 404.214738 17.827485 
L 404.214738 13.995089 
L 410.404718 13.995089 
L 410.404718 10.162693 
L 411.139427 10.162693 
L 411.139427 6.330297 
L 411.139427 6.330297 
L 460.8 6.330297 
L 460.8 6.330297 
" clip-path="url(#pebed418f86)" style="fill: none; stroke: #00bfbf; stroke-width: 1.5; stroke-linecap: square"/>
   </g>
   <g id="line2d_23">
    <path d="M 311.965442 293.76 
L 311.965442 289.927604 
L 313.073443 289.927604 
L 313.073443 286.095208 
L 316.769265 286.095208 
L 316.849337 278.430416 
L 317.548876 278.430416 
L 317.548876 274.59802 
L 318.272483 274.59802 
L 318.272483 270.765624 
L 319.083334 270.765624 
L 319.083334 266.933228 
L 320.047965 266.933228 
L 320.047965 263.100832 
L 320.37322 263.100832 
L 320.37322 259.268436 
L 320.79224 259.268436 
L 320.830319 251.603644 
L 321.112025 251.603644 
L 321.112025 247.771248 
L 321.338359 247.771248 
L 321.338359 243.938851 
L 321.584784 243.938851 
L 321.584784 240.106455 
L 321.70162 240.106455 
L 321.70162 236.274059 
L 321.927172 236.274059 
L 321.927172 232.441663 
L 322.095228 232.441663 
L 322.153704 224.776871 
L 322.349107 224.776871 
L 322.349107 220.944475 
L 322.988603 220.944475 
L 322.988603 217.112079 
L 323.226948 217.112079 
L 323.226948 213.279683 
L 323.402529 213.279683 
L 323.402529 209.447287 
L 323.52183 209.447287 
L 323.629827 201.782495 
L 324.245165 201.782495 
L 324.245165 197.950099 
L 324.792053 197.950099 
L 324.792053 194.117703 
L 326.071439 194.117703 
L 326.071439 190.285307 
L 326.786249 190.285307 
L 326.845103 178.788119 
L 327.318871 178.788119 
L 327.318871 174.955723 
L 327.626373 174.955723 
L 327.626373 171.123327 
L 327.769035 171.123327 
L 327.769035 167.290931 
L 327.922054 167.290931 
L 327.922054 163.458535 
L 328.403079 163.458535 
L 328.403079 159.626139 
L 328.594768 159.626139 
L 328.662109 151.961347 
L 329.249298 151.961347 
L 329.294828 144.296554 
L 329.374112 144.296554 
L 329.374112 140.464158 
L 329.703275 140.464158 
L 329.703275 136.631762 
L 331.054228 136.631762 
L 331.054228 132.799366 
L 331.934294 132.799366 
L 331.934294 128.96697 
L 332.471418 128.96697 
L 332.471418 125.134574 
L 332.71511 125.134574 
L 332.71511 121.302178 
L 335.409174 121.302178 
L 335.409174 117.469782 
L 336.359336 117.469782 
L 336.359336 113.637386 
L 336.611121 113.637386 
L 336.611121 109.80499 
L 337.719263 109.80499 
L 337.719263 105.972594 
L 337.883041 105.972594 
L 337.883041 102.140198 
L 338.215747 102.140198 
L 338.215747 98.307802 
L 338.671201 98.307802 
L 338.671201 94.475406 
L 340.27821 94.475406 
L 340.27821 90.64301 
L 340.601977 90.64301 
L 340.601977 86.810614 
L 342.127434 86.810614 
L 342.163448 79.145822 
L 343.020439 79.145822 
L 343.020439 75.313426 
L 343.290818 75.313426 
L 343.290818 71.48103 
L 344.161346 71.48103 
L 344.161346 67.648634 
L 345.319656 67.648634 
L 345.319656 63.816238 
L 352.822954 63.816238 
L 352.822954 59.983842 
L 371.980218 59.983842 
L 371.980218 56.151446 
L 373.808513 56.151446 
L 373.808513 52.31905 
L 376.829705 52.31905 
L 376.829705 48.486653 
L 377.906312 48.486653 
L 377.906312 44.654257 
L 384.229267 44.654257 
L 384.229267 40.821861 
L 384.780182 40.821861 
L 384.780182 36.989465 
L 386.190681 36.989465 
L 386.190681 33.157069 
L 386.686604 33.157069 
L 386.686604 29.324673 
L 388.064404 29.324673 
L 388.064404 25.492277 
L 389.389091 25.492277 
L 389.389091 21.659881 
L 389.800288 21.659881 
L 389.800288 17.827485 
L 392.035482 17.827485 
L 392.035482 13.995089 
L 392.221209 13.995089 
L 392.221209 10.162693 
L 396.08136 10.162693 
L 396.08136 6.330297 
L 396.08136 6.330297 
L 460.8 6.330297 
L 460.8 6.330297 
" clip-path="url(#pebed418f86)" style="fill: none; stroke: #bf00bf; stroke-width: 1.5; stroke-linecap: square"/>
   </g>
   <g id="line2d_24">
    <path d="M 310.829338 293.76 
L 310.829338 289.927604 
L 311.441318 289.927604 
L 311.441318 286.095208 
L 312.15606 286.095208 
L 312.15606 282.262812 
L 312.558972 282.262812 
L 312.558972 278.430416 
L 312.779213 278.430416 
L 312.872731 270.765624 
L 313.935054 270.765624 
L 313.935054 266.933228 
L 314.692163 266.933228 
L 314.692163 263.100832 
L 316.769265 263.100832 
L 316.769265 259.268436 
L 317.548876 259.268436 
L 317.548876 255.43604 
L 317.882449 255.43604 
L 317.882449 251.603644 
L 318.272483 251.603644 
L 318.272483 247.771248 
L 318.827116 247.771248 
L 318.827116 243.938851 
L 319.46708 243.938851 
L 319.46708 240.106455 
L 319.833993 240.106455 
L 319.833993 236.274059 
L 320.047965 236.274059 
L 320.047965 232.441663 
L 320.37322 232.441663 
L 320.471333 224.776871 
L 320.774261 224.776871 
L 320.79224 217.112079 
L 321.112025 217.112079 
L 321.149867 209.447287 
L 321.263728 209.447287 
L 321.263728 205.614891 
L 321.54626 205.614891 
L 321.584784 197.950099 
L 321.70162 197.950099 
L 321.70162 194.117703 
L 321.927172 194.117703 
L 321.927172 190.285307 
L 322.060905 190.285307 
L 322.153704 178.788119 
L 322.349107 178.788119 
L 322.349107 174.955723 
L 322.988603 174.955723 
L 323.087232 167.290931 
L 323.402529 167.290931 
L 323.402529 163.458535 
L 323.629827 163.458535 
L 323.629827 159.626139 
L 324.292756 159.626139 
L 324.348336 151.961347 
L 325.943523 151.961347 
L 325.943523 148.12895 
L 326.147135 148.12895 
L 326.147135 144.296554 
L 326.860525 144.296554 
L 326.860525 140.464158 
L 327.582505 140.464158 
L 327.582505 136.631762 
L 327.733597 136.631762 
L 327.806888 128.96697 
L 329.374112 128.96697 
L 329.374112 125.134574 
L 331.720136 125.134574 
L 331.720136 121.302178 
L 331.934294 121.302178 
L 331.934294 117.469782 
L 332.71511 117.469782 
L 332.71511 113.637386 
L 336.160877 113.637386 
L 336.160877 109.80499 
L 337.591992 109.80499 
L 337.591992 105.972594 
L 337.719263 105.972594 
L 337.719263 102.140198 
L 338.140177 102.140198 
L 338.215747 94.475406 
L 338.671201 94.475406 
L 338.671201 90.64301 
L 339.066147 90.64301 
L 339.066147 86.810614 
L 340.27821 86.810614 
L 340.27821 82.978218 
L 341.023484 82.978218 
L 341.023484 79.145822 
L 341.220055 79.145822 
L 341.220055 75.313426 
L 341.420786 75.313426 
L 341.420786 71.48103 
L 343.020439 71.48103 
L 343.020439 67.648634 
L 344.161346 67.648634 
L 344.161346 63.816238 
L 352.822954 63.816238 
L 352.822954 59.983842 
L 364.553292 59.983842 
L 364.553292 56.151446 
L 365.725553 56.151446 
L 365.725553 52.31905 
L 367.098473 52.31905 
L 367.098473 48.486653 
L 369.869713 48.486653 
L 369.869713 44.654257 
L 370.725084 44.654257 
L 370.725084 40.821861 
L 371.980218 40.821861 
L 371.980218 36.989465 
L 373.378153 36.989465 
L 373.378153 33.157069 
L 374.107686 33.157069 
L 374.107686 29.324673 
L 374.351568 29.324673 
L 374.351568 25.492277 
L 376.107475 25.492277 
L 376.107475 21.659881 
L 380.197735 21.659881 
L 380.197735 17.827485 
L 383.683265 17.827485 
L 383.683265 13.995089 
L 386.686604 13.995089 
L 386.686604 10.162693 
L 388.064404 10.162693 
L 388.064404 6.330297 
L 388.064404 6.330297 
L 460.8 6.330297 
L 460.8 6.330297 
" clip-path="url(#pebed418f86)" style="fill: none; stroke: #000000; stroke-width: 1.5; stroke-linecap: square"/>
   </g>
   <g id="line2d_25">
    <path d="M 303.884073 293.76 
L 303.884073 289.927604 
L 310.829338 289.927604 
L 310.829338 286.095208 
L 311.0403 286.095208 
L 311.0403 282.262812 
L 311.441318 282.262812 
L 311.441318 278.430416 
L 312.15606 278.430416 
L 312.15606 274.59802 
L 312.558972 274.59802 
L 312.558972 270.765624 
L 312.779213 270.765624 
L 312.872731 263.100832 
L 312.916235 263.100832 
L 312.973459 255.43604 
L 313.246815 255.43604 
L 313.246815 251.603644 
L 313.935054 251.603644 
L 313.935054 247.771248 
L 314.295288 247.771248 
L 314.348985 240.106455 
L 314.635338 240.106455 
L 314.635338 236.274059 
L 314.961921 236.274059 
L 314.961921 232.441663 
L 315.561307 232.441663 
L 315.561307 228.609267 
L 315.735391 228.609267 
L 315.735391 224.776871 
L 316.149642 224.776871 
L 316.149642 220.944475 
L 316.714053 220.944475 
L 316.769265 213.279683 
L 317.477694 213.279683 
L 317.477694 209.447287 
L 318.077409 209.447287 
L 318.077409 205.614891 
L 318.272483 205.614891 
L 318.272483 201.782495 
L 318.703965 201.782495 
L 318.804051 194.117703 
L 318.886819 194.117703 
L 318.886819 190.285307 
L 319.078648 190.285307 
L 319.078648 186.452911 
L 319.262471 186.452911 
L 319.360453 178.788119 
L 319.46708 178.788119 
L 319.46708 174.955723 
L 319.945922 174.955723 
L 319.945922 171.123327 
L 320.27574 171.123327 
L 320.27574 167.290931 
L 320.771883 167.290931 
L 320.774261 159.626139 
L 321.491382 159.626139 
L 321.584784 144.296554 
L 321.874558 144.296554 
L 321.874558 140.464158 
L 322.153704 140.464158 
L 322.153704 136.631762 
L 322.817783 136.631762 
L 322.817783 132.799366 
L 323.087232 132.799366 
L 323.087232 128.96697 
L 323.772357 128.96697 
L 323.772357 125.134574 
L 328.011206 125.134574 
L 328.011206 121.302178 
L 331.934294 121.302178 
L 331.934294 117.469782 
L 332.076933 117.469782 
L 332.076933 113.637386 
L 332.71511 113.637386 
L 332.71511 109.80499 
L 333.544984 109.80499 
L 333.544984 105.972594 
L 335.850859 105.972594 
L 335.850859 102.140198 
L 336.160877 102.140198 
L 336.160877 98.307802 
L 336.432759 98.307802 
L 336.483704 90.64301 
L 337.46237 90.64301 
L 337.511849 79.145822 
L 337.719263 79.145822 
L 337.719263 75.313426 
L 338.020877 75.313426 
L 338.020877 71.48103 
L 338.132479 71.48103 
L 338.132479 67.648634 
L 338.422696 67.648634 
L 338.422696 63.816238 
L 340.955729 63.816238 
L 340.955729 59.983842 
L 352.15552 59.983842 
L 352.15552 56.151446 
L 352.822954 56.151446 
L 352.822954 52.31905 
L 355.109212 52.31905 
L 355.109212 48.486653 
L 358.851048 48.486653 
L 358.851048 44.654257 
L 358.987333 44.654257 
L 358.987333 40.821861 
L 361.946354 40.821861 
L 361.946354 36.989465 
L 364.087284 36.989465 
L 364.087284 33.157069 
L 364.553292 33.157069 
L 364.553292 29.324673 
L 365.725553 29.324673 
L 365.725553 25.492277 
L 365.941908 25.492277 
L 365.941908 21.659881 
L 368.451213 21.659881 
L 368.451213 17.827485 
L 374.107686 17.827485 
L 374.107686 13.995089 
L 374.351568 13.995089 
L 374.351568 10.162693 
L 374.601092 10.162693 
L 374.601092 6.330297 
L 374.601092 6.330297 
L 460.8 6.330297 
L 460.8 6.330297 
" clip-path="url(#pebed418f86)" style="fill: none; stroke: #00bfbf; stroke-width: 1.5; stroke-linecap: square"/>
   </g>
   <g id="line2d_26">
    <path d="M 283.868724 293.76 
L 283.868724 289.927604 
L 285.291564 289.927604 
L 285.291564 286.095208 
L 288.584181 286.095208 
L 288.584181 282.262812 
L 290.188608 282.262812 
L 290.188608 278.430416 
L 291.486299 278.430416 
L 291.571185 270.765624 
L 293.421289 270.765624 
L 293.421289 266.933228 
L 294.181567 266.933228 
L 294.181567 263.100832 
L 294.422513 263.100832 
L 294.422513 259.268436 
L 295.960283 259.268436 
L 295.960283 255.43604 
L 296.928005 255.43604 
L 296.928005 251.603644 
L 297.324991 251.603644 
L 297.324991 247.771248 
L 297.446376 247.771248 
L 297.446376 243.938851 
L 298.83746 243.938851 
L 298.83746 240.106455 
L 299.059934 240.106455 
L 299.059934 236.274059 
L 299.519779 236.274059 
L 299.519779 232.441663 
L 299.643811 232.441663 
L 299.643811 228.609267 
L 300.063378 228.609267 
L 300.063378 224.776871 
L 300.831201 224.776871 
L 300.915424 217.112079 
L 301.94969 217.112079 
L 302.032291 209.447287 
L 302.456742 209.447287 
L 302.456742 205.614891 
L 302.983466 205.614891 
L 302.983466 201.782495 
L 304.000082 201.782495 
L 304.000082 197.950099 
L 304.132685 197.950099 
L 304.16728 190.285307 
L 304.728416 190.285307 
L 304.728416 186.452911 
L 304.983715 186.452911 
L 305.047498 178.788119 
L 305.115745 178.788119 
L 305.115745 174.955723 
L 305.243809 174.955723 
L 305.243809 171.123327 
L 305.610205 171.123327 
L 305.610205 167.290931 
L 305.992706 167.290931 
L 305.992706 163.458535 
L 306.339116 163.458535 
L 306.339116 159.626139 
L 306.547542 159.626139 
L 306.547542 155.793743 
L 306.787556 155.793743 
L 306.807452 148.12895 
L 308.320905 148.12895 
L 308.320905 144.296554 
L 308.713037 144.296554 
L 308.734259 136.631762 
L 309.760594 136.631762 
L 309.760594 132.799366 
L 310.052932 132.799366 
L 310.052932 128.96697 
L 310.448209 128.96697 
L 310.448209 125.134574 
L 311.080164 125.134574 
L 311.080164 121.302178 
L 312.084432 121.302178 
L 312.084432 117.469782 
L 315.345502 117.469782 
L 315.345502 113.637386 
L 316.682032 113.637386 
L 316.682032 109.80499 
L 318.245132 109.80499 
L 318.245132 105.972594 
L 320.558785 105.972594 
L 320.558785 102.140198 
L 322.597525 102.140198 
L 322.597525 98.307802 
L 323.537797 98.307802 
L 323.537797 94.475406 
L 325.39966 94.475406 
L 325.39966 90.64301 
L 325.609643 90.64301 
L 325.609643 86.810614 
L 326.080475 86.810614 
L 326.080475 82.978218 
L 326.273115 82.978218 
L 326.301761 75.313426 
L 326.466983 75.313426 
L 326.466983 71.48103 
L 327.22516 71.48103 
L 327.22516 67.648634 
L 327.9567 67.648634 
L 327.9567 63.816238 
L 328.241356 63.816238 
L 328.241356 59.983842 
L 328.456441 59.983842 
L 328.456441 56.151446 
L 329.050423 56.151446 
L 329.052207 48.486653 
L 329.390926 48.486653 
L 329.476325 40.821861 
L 330.602626 40.821861 
L 330.658616 33.157069 
L 330.94699 33.157069 
L 330.94699 29.324673 
L 331.098537 29.324673 
L 331.098537 25.492277 
L 331.359675 25.492277 
L 331.359675 21.659881 
L 332.462355 21.659881 
L 332.462355 17.827485 
L 333.02858 17.827485 
L 333.02858 13.995089 
L 338.780649 13.995089 
L 338.780649 10.162693 
L 339.850701 10.162693 
L 339.850701 6.330297 
L 339.850701 6.330297 
L 460.8 6.330297 
L 460.8 6.330297 
" clip-path="url(#pebed418f86)" style="fill: none; stroke: #bf00bf; stroke-width: 1.5; stroke-linecap: square"/>
   </g>
   <g id="line2d_27">
    <path d="M -1 178.788119 
L 90.613998 178.788119 
L 90.613998 174.955723 
L 94.297223 174.955723 
L 94.297223 171.123327 
L 98.399208 171.123327 
L 98.399208 167.290931 
L 98.544665 167.290931 
L 98.544665 163.458535 
L 115.573733 163.458535 
L 115.573733 159.626139 
L 118.463748 159.626139 
L 118.463748 155.793743 
L 120.399322 155.793743 
L 120.399322 151.961347 
L 122.727653 151.961347 
L 122.727653 148.12895 
L 123.293918 148.12895 
L 123.293918 144.296554 
L 126.068841 144.296554 
L 126.068841 140.464158 
L 134.724186 140.464158 
L 134.724186 136.631762 
L 138.353534 136.631762 
L 138.353534 132.799366 
L 146.961552 132.799366 
L 146.961552 128.96697 
L 147.319424 128.96697 
L 147.319424 125.134574 
L 149.99178 125.134574 
L 149.99178 121.302178 
L 157.214932 121.302178 
L 157.214932 117.469782 
L 162.12637 117.469782 
L 162.12637 113.637386 
L 166.235198 113.637386 
L 166.235198 109.80499 
L 176.384561 109.80499 
L 176.384561 105.972594 
L 177.365496 105.972594 
L 177.365496 102.140198 
L 200.175036 102.140198 
L 200.175036 98.307802 
L 200.664326 98.307802 
L 200.664326 94.475406 
L 200.879267 94.475406 
L 200.879267 90.64301 
L 203.325039 90.64301 
L 203.325039 86.810614 
L 207.500474 86.810614 
L 207.500474 82.978218 
L 210.979944 82.978218 
L 210.979944 79.145822 
L 213.159354 79.145822 
L 213.159354 75.313426 
L 214.204832 75.313426 
L 214.204832 71.48103 
L 216.527048 71.48103 
L 216.527048 67.648634 
L 225.983844 67.648634 
L 225.983844 63.816238 
L 228.914408 63.816238 
L 228.914408 59.983842 
L 229.783315 59.983842 
L 229.783315 56.151446 
L 230.25817 56.151446 
L 230.25817 52.31905 
L 233.159916 52.31905 
L 233.159916 48.486653 
L 233.872907 48.486653 
L 233.872907 44.654257 
L 236.683398 44.654257 
L 236.683398 40.821861 
L 236.799979 40.821861 
L 236.799979 36.989465 
L 237.332347 36.989465 
L 237.332347 33.157069 
L 240.0402 33.157069 
L 240.131817 25.492277 
L 240.315721 25.492277 
L 240.315721 21.659881 
L 240.84839 21.659881 
L 240.84839 17.827485 
L 242.605091 17.827485 
L 242.605091 13.995089 
L 247.23291 13.995089 
L 247.23291 10.162693 
L 247.99687 10.162693 
L 247.99687 6.330297 
L 247.99687 6.330297 
L 460.8 6.330297 
L 460.8 6.330297 
" clip-path="url(#pebed418f86)" style="fill: none; stroke: #000000; stroke-width: 1.5; stroke-linecap: square"/>
   </g>
   <g id="patch_3">
    <path d="M 0 293.76 
L 0 3.456 
" style="fill: none; stroke: #000000; stroke-width: 0.8; stroke-linejoin: miter; stroke-linecap: square"/>
   </g>
   <g id="patch_4">
    <path d="M 460.8 293.76 
L 460.8 3.456 
" style="fill: none; stroke: #000000; stroke-width: 0.8; stroke-linejoin: miter; stroke-linecap: square"/>
   </g>
   <g id="patch_5">
    <path d="M 0 293.76 
L 460.8 293.76 
" style="fill: none; stroke: #000000; stroke-width: 0.8; stroke-linejoin: miter; stroke-linecap: square"/>
   </g>
   <g id="patch_6">
    <path d="M 0 3.456 
L 460.8 3.456 
" style="fill: none; stroke: #000000; stroke-width: 0.8; stroke-linejoin: miter; stroke-linecap: square"/>
   </g>
   <g id="text_6">
    <!-- {f1-f5}, 10-D -->
    <g transform="translate(318.609 287.95392) scale(0.2 -0.2)">
     <defs>
      <path id="DejaVuSans-7b" d="M 3272 -594 
L 3272 -1044 
L 3078 -1044 
Q 2300 -1044 2036 -812 
Q 1772 -581 1772 109 
L 1772 856 
Q 1772 1328 1603 1509 
Q 1434 1691 991 1691 
L 800 1691 
L 800 2138 
L 991 2138 
Q 1438 2138 1605 2317 
Q 1772 2497 1772 2963 
L 1772 3713 
Q 1772 4403 2036 4633 
Q 2300 4863 3078 4863 
L 3272 4863 
L 3272 4416 
L 3059 4416 
Q 2619 4416 2484 4278 
Q 2350 4141 2350 3700 
L 2350 2925 
Q 2350 2434 2208 2212 
Q 2066 1991 1722 1913 
Q 2069 1828 2209 1606 
Q 2350 1384 2350 897 
L 2350 122 
Q 2350 -319 2484 -456 
Q 2619 -594 3059 -594 
L 3272 -594 
z
" transform="scale(0.015625)"/>
      <path id="DejaVuSans-7d" d="M 800 -594 
L 1019 -594 
Q 1456 -594 1589 -459 
Q 1722 -325 1722 122 
L 1722 897 
Q 1722 1384 1862 1606 
Q 2003 1828 2350 1913 
Q 2003 1991 1862 2212 
Q 1722 2434 1722 2925 
L 1722 3700 
Q 1722 4144 1589 4280 
Q 1456 4416 1019 4416 
L 800 4416 
L 800 4863 
L 997 4863 
Q 1775 4863 2036 4633 
Q 2297 4403 2297 3713 
L 2297 2963 
Q 2297 2497 2465 2317 
Q 2634 2138 3078 2138 
L 3272 2138 
L 3272 1691 
L 3078 1691 
Q 2634 1691 2465 1509 
Q 2297 1328 2297 856 
L 2297 109 
Q 2297 -581 2036 -812 
Q 1775 -1044 997 -1044 
L 800 -1044 
L 800 -594 
z
" transform="scale(0.015625)"/>
      <path id="DejaVuSans-2c" d="M 750 794 
L 1409 794 
L 1409 256 
L 897 -744 
L 494 -744 
L 750 256 
L 750 794 
z
" transform="scale(0.015625)"/>
     </defs>
     <use xlink:href="#DejaVuSans-7b"/>
     <use xlink:href="#DejaVuSans-66" x="63.623047"/>
     <use xlink:href="#DejaVuSans-31" x="98.828125"/>
     <use xlink:href="#DejaVuSans-2d" x="162.451172"/>
     <use xlink:href="#DejaVuSans-66" x="198.535156"/>
     <use xlink:href="#DejaVuSans-35" x="233.740234"/>
     <use xlink:href="#DejaVuSans-7d" x="297.363281"/>
     <use xlink:href="#DejaVuSans-2c" x="360.986328"/>
     <use xlink:href="#DejaVuSans-20" x="392.773438"/>
     <use xlink:href="#DejaVuSans-31" x="424.560547"/>
     <use xlink:href="#DejaVuSans-30" x="488.183594"/>
     <use xlink:href="#DejaVuSans-2d" x="551.806641"/>
     <use xlink:href="#DejaVuSans-44" x="587.890625"/>
    </g>
   </g>
   <g id="text_7">
    <!-- v2.6.4 -->
    <g style="fill: #808080" transform="translate(214.71875 288.777272) scale(0.1 -0.1)">
     <defs>
      <path id="DejaVuSans-76" d="M 191 3500 
L 800 3500 
L 1894 563 
L 2988 3500 
L 3597 3500 
L 2284 0 
L 1503 0 
L 191 3500 
z
" transform="scale(0.015625)"/>
      <path id="DejaVuSans-2e" d="M 684 794 
L 1344 794 
L 1344 0 
L 684 0 
L 684 794 
z
" transform="scale(0.015625)"/>
      <path id="DejaVuSans-36" d="M 2113 2584 
Q 1688 2584 1439 2293 
Q 1191 2003 1191 1497 
Q 1191 994 1439 701 
Q 1688 409 2113 409 
Q 2538 409 2786 701 
Q 3034 994 3034 1497 
Q 3034 2003 2786 2293 
Q 2538 2584 2113 2584 
z
M 3366 4563 
L 3366 3988 
Q 3128 4100 2886 4159 
Q 2644 4219 2406 4219 
Q 1781 4219 1451 3797 
Q 1122 3375 1075 2522 
Q 1259 2794 1537 2939 
Q 1816 3084 2150 3084 
Q 2853 3084 3261 2657 
Q 3669 2231 3669 1497 
Q 3669 778 3244 343 
Q 2819 -91 2113 -91 
Q 1303 -91 875 529 
Q 447 1150 447 2328 
Q 447 3434 972 4092 
Q 1497 4750 2381 4750 
Q 2619 4750 2861 4703 
Q 3103 4656 3366 4563 
z
" transform="scale(0.015625)"/>
     </defs>
     <use xlink:href="#DejaVuSans-76"/>
     <use xlink:href="#DejaVuSans-32" x="59.179688"/>
     <use xlink:href="#DejaVuSans-2e" x="122.802734"/>
     <use xlink:href="#DejaVuSans-36" x="154.589844"/>
     <use xlink:href="#DejaVuSans-2e" x="218.212891"/>
     <use xlink:href="#DejaVuSans-34" x="250"/>
    </g>
   </g>
  </g>
 </g>
 <defs>
  <clipPath id="pebed418f86">
   <rect x="0" y="3.456" width="460.8" height="290.304"/>
  </clipPath>
 </defs>
</svg>
