<?xml version="1.0" encoding="utf-8" standalone="no"?>
<!DOCTYPE svg PUBLIC "-//W3C//DTD SVG 1.1//EN"
  "http://www.w3.org/Graphics/SVG/1.1/DTD/svg11.dtd">
<svg xmlns:xlink="http://www.w3.org/1999/xlink" width="460.8pt" height="345.6pt" viewBox="0 0 460.8 345.6" xmlns="http://www.w3.org/2000/svg" version="1.1">
 <metadata>
  <rdf:RDF xmlns:dc="http://purl.org/dc/elements/1.1/" xmlns:cc="http://creativecommons.org/ns#" xmlns:rdf="http://www.w3.org/1999/02/22-rdf-syntax-ns#">
   <cc:Work>
    <dc:type rdf:resource="http://purl.org/dc/dcmitype/StillImage"/>
    <dc:date>2024-10-11T15:13:54.132849</dc:date>
    <dc:format>image/svg+xml</dc:format>
    <dc:creator>
     <cc:Agent>
      <dc:title>Matplotlib v3.9.2, https://matplotlib.org/</dc:title>
     </cc:Agent>
    </dc:creator>
   </cc:Work>
  </rdf:RDF>
 </metadata>
 <defs>
  <style type="text/css">*{stroke-linejoin: round; stroke-linecap: butt}</style>
 </defs>
 <g id="figure_1">
  <g id="patch_1">
   <path d="M 0 345.6 
L 460.8 345.6 
L 460.8 0 
L 0 0 
z
" style="fill: #ffffff"/>
  </g>
  <g id="axes_1">
   <g id="patch_2">
    <path d="M 0 293.76 
L 460.8 293.76 
L 460.8 3.456 
L 0 3.456 
z
" style="fill: #ffffff"/>
   </g>
   <g id="matplotlib.axis_1">
    <g id="xtick_1">
     <g id="line2d_1">
      <path d="M 102.630429 293.76 
L 102.630429 3.456 
" clip-path="url(#p491f72bfc4)" style="fill: none; stroke: #b0b0b0; stroke-width: 0.8; stroke-linecap: square"/>
     </g>
     <g id="line2d_2">
      <defs>
       <path id="ma9ebab2c57" d="M 0 0 
L 0 3.5 
" style="stroke: #000000; stroke-width: 0.8"/>
      </defs>
      <g>
       <use xlink:href="#ma9ebab2c57" x="102.630429" y="293.76" style="stroke: #000000; stroke-width: 0.8"/>
      </g>
     </g>
     <g id="text_1">
      <!-- -5 -->
      <g transform="translate(92.660117 315.956875) scale(0.2 -0.2)">
       <defs>
        <path id="DejaVuSans-2d" d="M 313 2009 
L 1997 2009 
L 1997 1497 
L 313 1497 
L 313 2009 
z
" transform="scale(0.015625)"/>
        <path id="DejaVuSans-35" d="M 691 4666 
L 3169 4666 
L 3169 4134 
L 1269 4134 
L 1269 2991 
Q 1406 3038 1543 3061 
Q 1681 3084 1819 3084 
Q 2600 3084 3056 2656 
Q 3513 2228 3513 1497 
Q 3513 744 3044 326 
Q 2575 -91 1722 -91 
Q 1428 -91 1123 -41 
Q 819 9 494 109 
L 494 744 
Q 775 591 1075 516 
Q 1375 441 1709 441 
Q 2250 441 2565 725 
Q 2881 1009 2881 1497 
Q 2881 1984 2565 2268 
Q 2250 2553 1709 2553 
Q 1456 2553 1204 2497 
Q 953 2441 691 2322 
L 691 4666 
z
" transform="scale(0.015625)"/>
       </defs>
       <use xlink:href="#DejaVuSans-2d"/>
       <use xlink:href="#DejaVuSans-35" x="36.083984"/>
      </g>
     </g>
    </g>
    <g id="xtick_2">
     <g id="line2d_3">
      <path d="M 205.408906 293.76 
L 205.408906 3.456 
" clip-path="url(#p491f72bfc4)" style="fill: none; stroke: #b0b0b0; stroke-width: 0.8; stroke-linecap: square"/>
     </g>
     <g id="line2d_4">
      <g>
       <use xlink:href="#ma9ebab2c57" x="205.408906" y="293.76" style="stroke: #000000; stroke-width: 0.8"/>
      </g>
     </g>
     <g id="text_2">
      <!-- -2 -->
      <g transform="translate(195.438594 315.956875) scale(0.2 -0.2)">
       <defs>
        <path id="DejaVuSans-32" d="M 1228 531 
L 3431 531 
L 3431 0 
L 469 0 
L 469 531 
Q 828 903 1448 1529 
Q 2069 2156 2228 2338 
Q 2531 2678 2651 2914 
Q 2772 3150 2772 3378 
Q 2772 3750 2511 3984 
Q 2250 4219 1831 4219 
Q 1534 4219 1204 4116 
Q 875 4013 500 3803 
L 500 4441 
Q 881 4594 1212 4672 
Q 1544 4750 1819 4750 
Q 2544 4750 2975 4387 
Q 3406 4025 3406 3419 
Q 3406 3131 3298 2873 
Q 3191 2616 2906 2266 
Q 2828 2175 2409 1742 
Q 1991 1309 1228 531 
z
" transform="scale(0.015625)"/>
       </defs>
       <use xlink:href="#DejaVuSans-2d"/>
       <use xlink:href="#DejaVuSans-32" x="36.083984"/>
      </g>
     </g>
    </g>
    <g id="xtick_3">
     <g id="line2d_5">
      <path d="M 308.187383 293.76 
L 308.187383 3.456 
" clip-path="url(#p491f72bfc4)" style="fill: none; stroke: #b0b0b0; stroke-width: 0.8; stroke-linecap: square"/>
     </g>
     <g id="line2d_6">
      <g>
       <use xlink:href="#ma9ebab2c57" x="308.187383" y="293.76" style="stroke: #000000; stroke-width: 0.8"/>
      </g>
     </g>
     <g id="text_3">
      <!-- 1 -->
      <g transform="translate(301.824883 315.956875) scale(0.2 -0.2)">
       <defs>
        <path id="DejaVuSans-31" d="M 794 531 
L 1825 531 
L 1825 4091 
L 703 3866 
L 703 4441 
L 1819 4666 
L 2450 4666 
L 2450 531 
L 3481 531 
L 3481 0 
L 794 0 
L 794 531 
z
" transform="scale(0.015625)"/>
       </defs>
       <use xlink:href="#DejaVuSans-31"/>
      </g>
     </g>
    </g>
    <g id="xtick_4">
     <g id="line2d_7">
      <path d="M 410.965861 293.76 
L 410.965861 3.456 
" clip-path="url(#p491f72bfc4)" style="fill: none; stroke: #b0b0b0; stroke-width: 0.8; stroke-linecap: square"/>
     </g>
     <g id="line2d_8">
      <g>
       <use xlink:href="#ma9ebab2c57" x="410.965861" y="293.76" style="stroke: #000000; stroke-width: 0.8"/>
      </g>
     </g>
     <g id="text_4">
      <!-- 4 -->
      <g transform="translate(404.603361 315.956875) scale(0.2 -0.2)">
       <defs>
        <path id="DejaVuSans-34" d="M 2419 4116 
L 825 1625 
L 2419 1625 
L 2419 4116 
z
M 2253 4666 
L 3047 4666 
L 3047 1625 
L 3713 1625 
L 3713 1100 
L 3047 1100 
L 3047 0 
L 2419 0 
L 2419 1100 
L 313 1100 
L 313 1709 
L 2253 4666 
z
" transform="scale(0.015625)"/>
       </defs>
       <use xlink:href="#DejaVuSans-34"/>
      </g>
     </g>
    </g>
    <g id="text_5">
     <!-- log10 of Df -->
     <g transform="translate(175.214063 339.313125) scale(0.2 -0.2)">
      <defs>
       <path id="DejaVuSans-6c" d="M 603 4863 
L 1178 4863 
L 1178 0 
L 603 0 
L 603 4863 
z
" transform="scale(0.015625)"/>
       <path id="DejaVuSans-6f" d="M 1959 3097 
Q 1497 3097 1228 2736 
Q 959 2375 959 1747 
Q 959 1119 1226 758 
Q 1494 397 1959 397 
Q 2419 397 2687 759 
Q 2956 1122 2956 1747 
Q 2956 2369 2687 2733 
Q 2419 3097 1959 3097 
z
M 1959 3584 
Q 2709 3584 3137 3096 
Q 3566 2609 3566 1747 
Q 3566 888 3137 398 
Q 2709 -91 1959 -91 
Q 1206 -91 779 398 
Q 353 888 353 1747 
Q 353 2609 779 3096 
Q 1206 3584 1959 3584 
z
" transform="scale(0.015625)"/>
       <path id="DejaVuSans-67" d="M 2906 1791 
Q 2906 2416 2648 2759 
Q 2391 3103 1925 3103 
Q 1463 3103 1205 2759 
Q 947 2416 947 1791 
Q 947 1169 1205 825 
Q 1463 481 1925 481 
Q 2391 481 2648 825 
Q 2906 1169 2906 1791 
z
M 3481 434 
Q 3481 -459 3084 -895 
Q 2688 -1331 1869 -1331 
Q 1566 -1331 1297 -1286 
Q 1028 -1241 775 -1147 
L 775 -588 
Q 1028 -725 1275 -790 
Q 1522 -856 1778 -856 
Q 2344 -856 2625 -561 
Q 2906 -266 2906 331 
L 2906 616 
Q 2728 306 2450 153 
Q 2172 0 1784 0 
Q 1141 0 747 490 
Q 353 981 353 1791 
Q 353 2603 747 3093 
Q 1141 3584 1784 3584 
Q 2172 3584 2450 3431 
Q 2728 3278 2906 2969 
L 2906 3500 
L 3481 3500 
L 3481 434 
z
" transform="scale(0.015625)"/>
       <path id="DejaVuSans-30" d="M 2034 4250 
Q 1547 4250 1301 3770 
Q 1056 3291 1056 2328 
Q 1056 1369 1301 889 
Q 1547 409 2034 409 
Q 2525 409 2770 889 
Q 3016 1369 3016 2328 
Q 3016 3291 2770 3770 
Q 2525 4250 2034 4250 
z
M 2034 4750 
Q 2819 4750 3233 4129 
Q 3647 3509 3647 2328 
Q 3647 1150 3233 529 
Q 2819 -91 2034 -91 
Q 1250 -91 836 529 
Q 422 1150 422 2328 
Q 422 3509 836 4129 
Q 1250 4750 2034 4750 
z
" transform="scale(0.015625)"/>
       <path id="DejaVuSans-20" transform="scale(0.015625)"/>
       <path id="DejaVuSans-66" d="M 2375 4863 
L 2375 4384 
L 1825 4384 
Q 1516 4384 1395 4259 
Q 1275 4134 1275 3809 
L 1275 3500 
L 2222 3500 
L 2222 3053 
L 1275 3053 
L 1275 0 
L 697 0 
L 697 3053 
L 147 3053 
L 147 3500 
L 697 3500 
L 697 3744 
Q 697 4328 969 4595 
Q 1241 4863 1831 4863 
L 2375 4863 
z
" transform="scale(0.015625)"/>
       <path id="DejaVuSans-44" d="M 1259 4147 
L 1259 519 
L 2022 519 
Q 2988 519 3436 956 
Q 3884 1394 3884 2338 
Q 3884 3275 3436 3711 
Q 2988 4147 2022 4147 
L 1259 4147 
z
M 628 4666 
L 1925 4666 
Q 3281 4666 3915 4102 
Q 4550 3538 4550 2338 
Q 4550 1131 3912 565 
Q 3275 0 1925 0 
L 628 0 
L 628 4666 
z
" transform="scale(0.015625)"/>
      </defs>
      <use xlink:href="#DejaVuSans-6c"/>
      <use xlink:href="#DejaVuSans-6f" x="27.783203"/>
      <use xlink:href="#DejaVuSans-67" x="88.964844"/>
      <use xlink:href="#DejaVuSans-31" x="152.441406"/>
      <use xlink:href="#DejaVuSans-30" x="216.064453"/>
      <use xlink:href="#DejaVuSans-20" x="279.6875"/>
      <use xlink:href="#DejaVuSans-6f" x="311.474609"/>
      <use xlink:href="#DejaVuSans-66" x="372.65625"/>
      <use xlink:href="#DejaVuSans-20" x="407.861328"/>
      <use xlink:href="#DejaVuSans-44" x="439.648438"/>
      <use xlink:href="#DejaVuSans-66" x="516.650391"/>
     </g>
    </g>
   </g>
   <g id="matplotlib.axis_2">
    <g id="ytick_1">
     <g id="line2d_9">
      <path d="M 0 293.76 
L 460.8 293.76 
" clip-path="url(#p491f72bfc4)" style="fill: none; stroke: #b0b0b0; stroke-width: 0.8; stroke-linecap: square"/>
     </g>
     <g id="line2d_10">
      <defs>
       <path id="m230c99d80c" d="M 0 0 
L -3.5 0 
" style="stroke: #000000; stroke-width: 0.8"/>
      </defs>
      <g>
       <use xlink:href="#m230c99d80c" x="0" y="293.76" style="stroke: #000000; stroke-width: 0.8"/>
      </g>
     </g>
    </g>
    <g id="ytick_2">
     <g id="line2d_11">
      <path d="M 0 236.274059 
L 460.8 236.274059 
" clip-path="url(#p491f72bfc4)" style="fill: none; stroke: #b0b0b0; stroke-width: 0.8; stroke-linecap: square"/>
     </g>
     <g id="line2d_12">
      <g>
       <use xlink:href="#m230c99d80c" x="0" y="236.274059" style="stroke: #000000; stroke-width: 0.8"/>
      </g>
     </g>
    </g>
    <g id="ytick_3">
     <g id="line2d_13">
      <path d="M 0 178.788119 
L 460.8 178.788119 
" clip-path="url(#p491f72bfc4)" style="fill: none; stroke: #b0b0b0; stroke-width: 0.8; stroke-linecap: square"/>
     </g>
     <g id="line2d_14">
      <g>
       <use xlink:href="#m230c99d80c" x="0" y="178.788119" style="stroke: #000000; stroke-width: 0.8"/>
      </g>
     </g>
    </g>
    <g id="ytick_4">
     <g id="line2d_15">
      <path d="M 0 121.302178 
L 460.8 121.302178 
" clip-path="url(#p491f72bfc4)" style="fill: none; stroke: #b0b0b0; stroke-width: 0.8; stroke-linecap: square"/>
     </g>
     <g id="line2d_16">
      <g>
       <use xlink:href="#m230c99d80c" x="0" y="121.302178" style="stroke: #000000; stroke-width: 0.8"/>
      </g>
     </g>
    </g>
    <g id="ytick_5">
     <g id="line2d_17">
      <path d="M 0 63.816238 
L 460.8 63.816238 
" clip-path="url(#p491f72bfc4)" style="fill: none; stroke: #b0b0b0; stroke-width: 0.8; stroke-linecap: square"/>
     </g>
     <g id="line2d_18">
      <g>
       <use xlink:href="#m230c99d80c" x="0" y="63.816238" style="stroke: #000000; stroke-width: 0.8"/>
      </g>
     </g>
    </g>
    <g id="ytick_6">
     <g id="line2d_19">
      <path d="M 0 6.330297 
L 460.8 6.330297 
" clip-path="url(#p491f72bfc4)" style="fill: none; stroke: #b0b0b0; stroke-width: 0.8; stroke-linecap: square"/>
     </g>
     <g id="line2d_20">
      <g>
       <use xlink:href="#m230c99d80c" x="0" y="6.330297" style="stroke: #000000; stroke-width: 0.8"/>
      </g>
     </g>
    </g>
   </g>
   <g id="line2d_21">
    <path d="M -0.148048 293.76 
L -0.148048 125.134574 
L 282.020394 125.134574 
L 282.020394 121.302178 
L 293.759785 121.302178 
L 293.759785 117.469782 
L 300.602486 117.469782 
L 300.602486 113.637386 
L 300.975267 113.637386 
L 300.975267 109.80499 
L 301.972611 109.80499 
L 302.022213 102.140198 
L 302.594366 102.140198 
L 302.627229 94.475406 
L 302.852244 94.475406 
L 302.852244 90.64301 
L 303.529766 90.64301 
L 303.529766 86.810614 
L 303.736159 86.810614 
L 303.736159 82.978218 
L 304.452827 82.978218 
L 304.452827 79.145822 
L 304.883264 79.145822 
L 304.883264 75.313426 
L 305.013135 75.313426 
L 305.013135 71.48103 
L 305.213872 71.48103 
L 305.213872 67.648634 
L 307.190196 67.648634 
L 307.190196 63.816238 
L 314.111809 63.816238 
L 314.111809 59.983842 
L 314.328543 59.983842 
L 314.328543 56.151446 
L 314.467115 56.151446 
L 314.537999 48.486653 
L 314.922142 48.486653 
L 314.922142 44.654257 
L 315.085018 44.654257 
L 315.113207 36.989465 
L 316.174516 36.989465 
L 316.174516 33.157069 
L 316.374534 33.157069 
L 316.374534 29.324673 
L 316.668198 29.324673 
L 316.747375 21.659881 
L 317.29404 21.659881 
L 317.29404 17.827485 
L 318.182222 17.827485 
L 318.182222 13.995089 
L 318.920056 13.995089 
L 318.920056 10.162693 
L 319.339912 10.162693 
L 319.339912 6.330297 
L 319.339912 6.330297 
L 460.8 6.330297 
L 460.8 6.330297 
" clip-path="url(#p491f72bfc4)" style="fill: none; stroke: #ff0000; stroke-width: 3; stroke-linecap: square"/>
   </g>
   <g id="line2d_22">
    <path d="M 312.685906 293.76 
L 312.685906 289.927604 
L 317.442786 289.927604 
L 317.442786 286.095208 
L 319.013809 286.095208 
L 319.013809 282.262812 
L 319.356318 282.262812 
L 319.356318 278.430416 
L 320.327675 278.430416 
L 320.327675 274.59802 
L 321.158684 274.59802 
L 321.158684 270.765624 
L 322.413954 270.765624 
L 322.413954 266.933228 
L 323.959369 266.933228 
L 323.959369 263.100832 
L 324.344968 263.100832 
L 324.434772 255.43604 
L 324.557737 255.43604 
L 324.557737 251.603644 
L 325.077383 251.603644 
L 325.077383 247.771248 
L 325.260909 247.771248 
L 325.260909 243.938851 
L 325.445836 243.938851 
L 325.445836 240.106455 
L 325.884988 240.106455 
L 325.884988 236.274059 
L 326.089387 236.274059 
L 326.089387 232.441663 
L 326.389332 232.441663 
L 326.389332 228.609267 
L 326.508185 228.609267 
L 326.508185 224.776871 
L 327.450758 224.776871 
L 327.450758 220.944475 
L 328.375799 220.944475 
L 328.375799 217.112079 
L 328.52372 217.112079 
L 328.52372 213.279683 
L 329.48838 213.279683 
L 329.48838 209.447287 
L 330.137171 209.447287 
L 330.137171 205.614891 
L 330.322696 205.614891 
L 330.322696 201.782495 
L 330.53061 201.782495 
L 330.53061 197.950099 
L 330.701205 197.950099 
L 330.701205 194.117703 
L 331.637403 194.117703 
L 331.70129 186.452911 
L 331.901572 186.452911 
L 331.901572 182.620515 
L 332.024856 182.620515 
L 332.046896 171.123327 
L 332.541085 171.123327 
L 332.541085 167.290931 
L 332.830725 167.290931 
L 332.830725 163.458535 
L 334.039379 163.458535 
L 334.039379 159.626139 
L 334.740028 159.626139 
L 334.740028 155.793743 
L 335.055469 155.793743 
L 335.055469 151.961347 
L 335.179215 151.961347 
L 335.270664 144.296554 
L 335.743245 144.296554 
L 335.743245 140.464158 
L 336.16063 140.464158 
L 336.16063 136.631762 
L 336.892164 136.631762 
L 336.892164 132.799366 
L 339.460651 132.799366 
L 339.460651 128.96697 
L 340.970901 128.96697 
L 340.970901 125.134574 
L 341.169871 125.134574 
L 341.169871 121.302178 
L 341.708625 121.302178 
L 341.708625 117.469782 
L 342.227831 117.469782 
L 342.227831 113.637386 
L 342.936371 113.637386 
L 342.936371 109.80499 
L 343.493829 109.80499 
L 343.493829 105.972594 
L 343.930746 105.972594 
L 343.930746 102.140198 
L 344.497649 102.140198 
L 344.519929 94.475406 
L 344.864258 94.475406 
L 344.864258 90.64301 
L 345.562025 90.64301 
L 345.636803 82.978218 
L 345.754252 82.978218 
L 345.838947 75.313426 
L 346.138518 75.313426 
L 346.168984 67.648634 
L 346.335967 67.648634 
L 346.335967 63.816238 
L 346.748109 63.816238 
L 346.748109 59.983842 
L 347.103165 59.983842 
L 347.103165 56.151446 
L 347.432484 56.151446 
L 347.432484 52.31905 
L 347.772821 52.31905 
L 347.772821 48.486653 
L 348.035676 48.486653 
L 348.035676 44.654257 
L 348.470177 44.654257 
L 348.470177 40.821861 
L 349.022415 40.821861 
L 349.032623 33.157069 
L 351.494463 33.157069 
L 351.494463 29.324673 
L 352.20166 29.324673 
L 352.20166 25.492277 
L 352.985958 25.492277 
L 352.985958 21.659881 
L 354.484598 21.659881 
L 354.484598 17.827485 
L 354.729916 17.827485 
L 354.729916 13.995089 
L 356.442024 13.995089 
L 356.442024 10.162693 
L 362.134336 10.162693 
L 362.134336 6.330297 
L 362.134336 6.330297 
L 460.8 6.330297 
L 460.8 6.330297 
" clip-path="url(#p491f72bfc4)" style="fill: none; stroke: #00bfbf; stroke-width: 1.5; stroke-linecap: square"/>
   </g>
   <g id="line2d_23">
    <path d="M 312.685906 293.76 
L 312.685906 289.927604 
L 317.442786 289.927604 
L 317.442786 286.095208 
L 318.348059 286.095208 
L 318.348059 282.262812 
L 319.013809 282.262812 
L 319.013809 278.430416 
L 319.356318 278.430416 
L 319.356318 274.59802 
L 320.327675 274.59802 
L 320.327675 270.765624 
L 320.519065 270.765624 
L 320.519065 266.933228 
L 320.900382 266.933228 
L 320.900382 263.100832 
L 321.158684 263.100832 
L 321.158684 259.268436 
L 322.413954 259.268436 
L 322.413954 255.43604 
L 322.983936 255.43604 
L 322.983936 251.603644 
L 323.83473 251.603644 
L 323.83473 247.771248 
L 323.959369 247.771248 
L 323.959369 243.938851 
L 324.074027 243.938851 
L 324.135794 236.274059 
L 324.344968 236.274059 
L 324.434772 228.609267 
L 324.50154 228.609267 
L 324.50154 224.776871 
L 325.260909 224.776871 
L 325.260909 220.944475 
L 325.703126 220.944475 
L 325.703126 217.112079 
L 325.884988 217.112079 
L 325.920591 209.447287 
L 326.389332 209.447287 
L 326.453262 201.782495 
L 326.508185 201.782495 
L 326.508185 197.950099 
L 327.344377 197.950099 
L 327.344377 194.117703 
L 327.572302 194.117703 
L 327.572302 190.285307 
L 327.973724 190.285307 
L 328.04403 178.788119 
L 328.96711 178.788119 
L 328.96711 174.955723 
L 329.435462 174.955723 
L 329.435462 171.123327 
L 329.616251 171.123327 
L 329.616251 167.290931 
L 330.106235 167.290931 
L 330.106235 163.458535 
L 330.322696 163.458535 
L 330.322696 159.626139 
L 331.342478 159.626139 
L 331.342478 155.793743 
L 331.637403 155.793743 
L 331.637403 151.961347 
L 332.024856 151.961347 
L 332.07536 140.464158 
L 332.200651 140.464158 
L 332.200651 136.631762 
L 332.350942 136.631762 
L 332.350942 132.799366 
L 335.179215 132.799366 
L 335.179215 128.96697 
L 335.743245 128.96697 
L 335.743245 125.134574 
L 338.133804 125.134574 
L 338.133804 121.302178 
L 339.407701 121.302178 
L 339.460651 113.637386 
L 339.641535 113.637386 
L 339.641535 109.80499 
L 339.979246 109.80499 
L 339.979246 105.972594 
L 341.169871 105.972594 
L 341.169871 102.140198 
L 341.708625 102.140198 
L 341.754516 94.475406 
L 341.828034 94.475406 
L 341.828034 90.64301 
L 342.26203 90.64301 
L 342.26203 86.810614 
L 342.425951 86.810614 
L 342.475308 79.145822 
L 342.841319 79.145822 
L 342.841319 75.313426 
L 343.03952 75.313426 
L 343.03952 71.48103 
L 343.164134 71.48103 
L 343.237055 63.816238 
L 343.493829 63.816238 
L 343.55987 56.151446 
L 344.497649 56.151446 
L 344.497649 52.31905 
L 344.820886 52.31905 
L 344.820886 48.486653 
L 345.246166 48.486653 
L 345.346525 40.821861 
L 345.562025 40.821861 
L 345.562025 36.989465 
L 346.111247 36.989465 
L 346.111247 33.157069 
L 346.574138 33.157069 
L 346.574138 29.324673 
L 347.103165 29.324673 
L 347.103165 25.492277 
L 348.035676 25.492277 
L 348.119763 17.827485 
L 349.032623 17.827485 
L 349.032623 13.995089 
L 352.026576 13.995089 
L 352.026576 10.162693 
L 352.705924 10.162693 
L 352.705924 6.330297 
L 352.705924 6.330297 
L 460.8 6.330297 
L 460.8 6.330297 
" clip-path="url(#p491f72bfc4)" style="fill: none; stroke: #bf00bf; stroke-width: 1.5; stroke-linecap: square"/>
   </g>
   <g id="line2d_24">
    <path d="M 312.685906 293.76 
L 312.685906 289.927604 
L 317.228463 289.927604 
L 317.228463 286.095208 
L 317.442786 286.095208 
L 317.442786 282.262812 
L 318.142231 282.262812 
L 318.142231 278.430416 
L 318.348059 278.430416 
L 318.348059 274.59802 
L 318.838619 274.59802 
L 318.856276 266.933228 
L 319.013809 266.933228 
L 319.013809 263.100832 
L 319.356318 263.100832 
L 319.356318 259.268436 
L 320.327675 259.268436 
L 320.327675 255.43604 
L 320.519065 255.43604 
L 320.601997 247.771248 
L 321.981699 247.771248 
L 321.981699 243.938851 
L 322.413954 243.938851 
L 322.4186 236.274059 
L 322.667534 236.274059 
L 322.667534 232.441663 
L 323.121235 232.441663 
L 323.141432 224.776871 
L 323.624233 224.776871 
L 323.633315 217.112079 
L 323.959369 217.112079 
L 323.959369 213.279683 
L 324.074027 213.279683 
L 324.158389 205.614891 
L 324.50154 205.614891 
L 324.50154 201.782495 
L 324.618312 201.782495 
L 324.618312 197.950099 
L 324.800775 197.950099 
L 324.800775 194.117703 
L 324.950694 194.117703 
L 324.950694 190.285307 
L 325.878481 190.285307 
L 325.884988 182.620515 
L 326.508185 182.620515 
L 326.508185 178.788119 
L 326.635876 178.788119 
L 326.635876 174.955723 
L 327.344377 174.955723 
L 327.362293 167.290931 
L 327.872973 167.290931 
L 327.973724 159.626139 
L 328.198049 159.626139 
L 328.236419 151.961347 
L 328.96711 151.961347 
L 329.053266 140.464158 
L 329.292728 140.464158 
L 329.292728 136.631762 
L 329.46464 136.631762 
L 329.46464 132.799366 
L 330.106235 132.799366 
L 330.106235 128.96697 
L 331.342478 128.96697 
L 331.342478 125.134574 
L 334.113583 125.134574 
L 334.113583 121.302178 
L 338.133804 121.302178 
L 338.133804 117.469782 
L 338.452425 117.469782 
L 338.452425 113.637386 
L 339.210212 113.637386 
L 339.222781 105.972594 
L 339.407701 105.972594 
L 339.460651 98.307802 
L 339.641535 98.307802 
L 339.641535 94.475406 
L 339.979246 94.475406 
L 339.979246 90.64301 
L 340.421451 90.64301 
L 340.439113 82.978218 
L 340.834167 82.978218 
L 340.834167 79.145822 
L 341.412551 79.145822 
L 341.412551 75.313426 
L 341.708625 75.313426 
L 341.754516 67.648634 
L 342.177373 67.648634 
L 342.177373 63.816238 
L 342.41111 63.816238 
L 342.475308 52.31905 
L 342.841319 52.31905 
L 342.841319 48.486653 
L 343.03952 48.486653 
L 343.059256 40.821861 
L 343.164134 40.821861 
L 343.164134 36.989465 
L 343.55987 36.989465 
L 343.55987 33.157069 
L 344.447529 33.157069 
L 344.447529 29.324673 
L 345.287744 29.324673 
L 345.287744 25.492277 
L 345.562025 25.492277 
L 345.562025 21.659881 
L 346.574138 21.659881 
L 346.574138 17.827485 
L 346.913746 17.827485 
L 346.913746 13.995089 
L 347.593102 13.995089 
L 347.593102 10.162693 
L 352.705924 10.162693 
L 352.705924 6.330297 
L 352.705924 6.330297 
L 460.8 6.330297 
L 460.8 6.330297 
" clip-path="url(#p491f72bfc4)" style="fill: none; stroke: #000000; stroke-width: 1.5; stroke-linecap: square"/>
   </g>
   <g id="line2d_25">
    <path d="M 310.149565 293.76 
L 310.149565 289.927604 
L 311.066365 289.927604 
L 311.066365 286.095208 
L 313.971723 286.095208 
L 313.971723 282.262812 
L 314.961771 282.262812 
L 314.961771 278.430416 
L 315.744509 278.430416 
L 315.744509 274.59802 
L 315.97008 274.59802 
L 315.97008 270.765624 
L 316.475557 270.765624 
L 316.475557 266.933228 
L 316.834621 266.933228 
L 316.834621 263.100832 
L 317.258956 263.100832 
L 317.305561 255.43604 
L 317.442786 255.43604 
L 317.442786 251.603644 
L 317.76459 251.603644 
L 317.76459 247.771248 
L 318.585233 247.771248 
L 318.605046 240.106455 
L 318.838619 240.106455 
L 318.915844 228.609267 
L 319.264726 228.609267 
L 319.264726 224.776871 
L 319.438653 224.776871 
L 319.438653 220.944475 
L 319.794933 220.944475 
L 319.794933 217.112079 
L 320.327675 217.112079 
L 320.327675 213.279683 
L 320.631914 213.279683 
L 320.681644 205.614891 
L 321.498809 205.614891 
L 321.498809 201.782495 
L 321.624606 201.782495 
L 321.624606 197.950099 
L 322.354021 197.950099 
L 322.413954 190.285307 
L 323.168086 190.285307 
L 323.168086 186.452911 
L 323.464553 186.452911 
L 323.464553 182.620515 
L 323.624233 182.620515 
L 323.624233 178.788119 
L 323.747528 178.788119 
L 323.747528 174.955723 
L 324.074027 174.955723 
L 324.105276 167.290931 
L 324.341559 167.290931 
L 324.341559 163.458535 
L 324.518914 163.458535 
L 324.518914 159.626139 
L 324.800775 159.626139 
L 324.800775 155.793743 
L 325.249417 155.793743 
L 325.249417 151.961347 
L 325.561107 151.961347 
L 325.561107 148.12895 
L 325.879747 148.12895 
L 325.879747 144.296554 
L 326.565352 144.296554 
L 326.635876 136.631762 
L 327.3956 136.631762 
L 327.3956 132.799366 
L 327.553039 132.799366 
L 327.553039 128.96697 
L 328.781854 128.96697 
L 328.781854 125.134574 
L 328.96711 125.134574 
L 328.96711 121.302178 
L 333.068918 121.302178 
L 333.068918 117.469782 
L 333.576447 117.469782 
L 333.576447 113.637386 
L 334.433775 113.637386 
L 334.433775 109.80499 
L 334.570734 109.80499 
L 334.570734 105.972594 
L 335.814982 105.972594 
L 335.814982 102.140198 
L 335.959706 102.140198 
L 336.054191 94.475406 
L 336.10911 94.475406 
L 336.187125 86.810614 
L 337.095025 86.810614 
L 337.095025 82.978218 
L 337.256227 82.978218 
L 337.256227 79.145822 
L 337.602587 79.145822 
L 337.602587 75.313426 
L 337.731184 75.313426 
L 337.811562 67.648634 
L 338.133804 67.648634 
L 338.133804 63.816238 
L 338.334914 63.816238 
L 338.334914 59.983842 
L 338.538983 59.983842 
L 338.538983 56.151446 
L 339.151748 56.151446 
L 339.151748 52.31905 
L 339.641535 52.31905 
L 339.641535 48.486653 
L 340.168409 48.486653 
L 340.168409 44.654257 
L 340.439113 44.654257 
L 340.439113 40.821861 
L 340.708387 40.821861 
L 340.708387 36.989465 
L 340.834167 36.989465 
L 340.938608 29.324673 
L 341.116719 29.324673 
L 341.116719 25.492277 
L 341.509726 25.492277 
L 341.562463 17.827485 
L 342.841319 17.827485 
L 342.841319 13.995089 
L 343.059256 13.995089 
L 343.059256 10.162693 
L 343.604841 10.162693 
L 343.604841 6.330297 
L 343.604841 6.330297 
L 460.8 6.330297 
L 460.8 6.330297 
" clip-path="url(#p491f72bfc4)" style="fill: none; stroke: #00bfbf; stroke-width: 1.5; stroke-linecap: square"/>
   </g>
   <g id="line2d_26">
    <path d="M 304.155733 293.76 
L 304.155733 289.927604 
L 304.648658 289.927604 
L 304.648658 286.095208 
L 304.990807 286.095208 
L 305.083692 278.430416 
L 305.977544 278.430416 
L 305.977544 274.59802 
L 306.178981 274.59802 
L 306.178981 270.765624 
L 306.733663 270.765624 
L 306.733663 266.933228 
L 307.392465 266.933228 
L 307.392465 263.100832 
L 307.602118 263.100832 
L 307.679021 251.603644 
L 307.883107 251.603644 
L 307.883107 247.771248 
L 308.182928 247.771248 
L 308.182928 243.938851 
L 309.053312 243.938851 
L 309.053312 240.106455 
L 309.398477 240.106455 
L 309.398477 236.274059 
L 309.994766 236.274059 
L 309.994766 232.441663 
L 310.235419 232.441663 
L 310.235419 228.609267 
L 310.550659 228.609267 
L 310.550659 224.776871 
L 310.769699 224.776871 
L 310.813622 217.112079 
L 311.215841 217.112079 
L 311.215841 213.279683 
L 311.980413 213.279683 
L 311.980413 209.447287 
L 312.187051 209.447287 
L 312.187051 205.614891 
L 312.551229 205.614891 
L 312.551229 201.782495 
L 313.242619 201.782495 
L 313.242619 197.950099 
L 313.665668 197.950099 
L 313.665668 194.117703 
L 313.952054 194.117703 
L 313.952054 190.285307 
L 314.301964 190.285307 
L 314.301964 186.452911 
L 314.526603 186.452911 
L 314.526603 182.620515 
L 315.096612 182.620515 
L 315.096612 178.788119 
L 315.541648 178.788119 
L 315.597267 171.123327 
L 315.969825 171.123327 
L 315.969825 167.290931 
L 316.237032 167.290931 
L 316.237032 163.458535 
L 316.376225 163.458535 
L 316.376225 159.626139 
L 317.138653 159.626139 
L 317.138653 155.793743 
L 317.700326 155.793743 
L 317.766156 148.12895 
L 318.011087 148.12895 
L 318.061759 140.464158 
L 318.235209 140.464158 
L 318.235209 136.631762 
L 318.723659 136.631762 
L 318.723659 132.799366 
L 319.070349 132.799366 
L 319.070349 128.96697 
L 319.425821 128.96697 
L 319.425821 125.134574 
L 320.214163 125.134574 
L 320.308961 117.469782 
L 322.361162 117.469782 
L 322.361162 113.637386 
L 322.513749 113.637386 
L 322.513749 109.80499 
L 322.650826 109.80499 
L 322.650826 105.972594 
L 325.233024 105.972594 
L 325.233024 102.140198 
L 325.934012 102.140198 
L 325.934012 98.307802 
L 326.210686 98.307802 
L 326.210686 94.475406 
L 326.418149 94.475406 
L 326.450876 86.810614 
L 328.11486 86.810614 
L 328.171476 79.145822 
L 328.977236 79.145822 
L 329.033753 71.48103 
L 329.091564 71.48103 
L 329.091564 67.648634 
L 329.213706 67.648634 
L 329.213706 63.816238 
L 329.459393 63.816238 
L 329.459393 59.983842 
L 329.967951 59.983842 
L 329.967951 56.151446 
L 330.23367 56.151446 
L 330.23367 52.31905 
L 330.360059 52.31905 
L 330.360059 48.486653 
L 330.911851 48.486653 
L 330.911851 44.654257 
L 331.07389 44.654257 
L 331.07389 40.821861 
L 331.484642 40.821861 
L 331.484642 36.989465 
L 331.892851 36.989465 
L 331.892851 33.157069 
L 332.157852 33.157069 
L 332.157852 29.324673 
L 332.320122 29.324673 
L 332.320122 25.492277 
L 332.582066 25.492277 
L 332.582066 21.659881 
L 333.472306 21.659881 
L 333.499232 13.995089 
L 333.625356 13.995089 
L 333.625356 10.162693 
L 335.188182 10.162693 
L 335.188182 6.330297 
L 335.188182 6.330297 
L 460.8 6.330297 
L 460.8 6.330297 
" clip-path="url(#p491f72bfc4)" style="fill: none; stroke: #bf00bf; stroke-width: 1.5; stroke-linecap: square"/>
   </g>
   <g id="line2d_27">
    <path d="M 139.299819 293.76 
L 139.299819 289.927604 
L 141.305659 289.927604 
L 141.305659 286.095208 
L 141.992124 286.095208 
L 141.992124 282.262812 
L 145.728587 282.262812 
L 145.728587 278.430416 
L 146.848347 278.430416 
L 146.848347 274.59802 
L 148.668396 274.59802 
L 148.668396 270.765624 
L 149.202206 270.765624 
L 149.202206 266.933228 
L 151.274062 266.933228 
L 151.274062 263.100832 
L 151.491195 263.100832 
L 151.491195 259.268436 
L 153.135419 259.268436 
L 153.135419 255.43604 
L 154.699938 255.43604 
L 154.720443 247.771248 
L 158.447023 247.771248 
L 158.447023 243.938851 
L 159.114977 243.938851 
L 159.114977 240.106455 
L 159.583567 240.106455 
L 159.583567 236.274059 
L 160.233591 236.274059 
L 160.233591 232.441663 
L 160.511188 232.441663 
L 160.511188 228.609267 
L 165.909796 228.609267 
L 165.909796 224.776871 
L 170.5976 224.776871 
L 170.5976 220.944475 
L 173.289559 220.944475 
L 173.289559 217.112079 
L 175.237171 217.112079 
L 175.237171 213.279683 
L 175.629674 213.279683 
L 175.629674 209.447287 
L 177.182849 209.447287 
L 177.182849 205.614891 
L 178.337866 205.614891 
L 178.337866 201.782495 
L 180.742315 201.782495 
L 180.742315 197.950099 
L 181.258264 197.950099 
L 181.258264 194.117703 
L 183.246753 194.117703 
L 183.246753 190.285307 
L 183.563219 190.285307 
L 183.563219 186.452911 
L 185.57953 186.452911 
L 185.57953 182.620515 
L 186.037642 182.620515 
L 186.037642 178.788119 
L 283.727523 178.788119 
L 283.727523 174.955723 
L 284.986605 174.955723 
L 284.986605 171.123327 
L 287.677618 171.123327 
L 287.677618 167.290931 
L 289.573837 167.290931 
L 289.573837 163.458535 
L 290.642733 163.458535 
L 290.642733 159.626139 
L 292.611184 159.626139 
L 292.611184 155.793743 
L 293.051117 155.793743 
L 293.146683 140.464158 
L 293.881573 140.464158 
L 293.881573 136.631762 
L 294.036622 136.631762 
L 294.036622 132.799366 
L 294.969387 132.799366 
L 294.969387 128.96697 
L 295.143794 128.96697 
L 295.143794 125.134574 
L 298.063823 125.134574 
L 298.063823 121.302178 
L 303.910011 121.302178 
L 303.910011 117.469782 
L 304.883264 117.469782 
L 304.883264 113.637386 
L 305.013135 113.637386 
L 305.013135 109.80499 
L 306.687907 109.80499 
L 306.687907 105.972594 
L 308.488336 105.972594 
L 308.488336 102.140198 
L 308.883065 102.140198 
L 308.883065 98.307802 
L 309.359601 98.307802 
L 309.393922 90.64301 
L 310.121004 90.64301 
L 310.121004 86.810614 
L 311.113091 86.810614 
L 311.113091 82.978218 
L 311.237429 82.978218 
L 311.237429 79.145822 
L 312.076163 79.145822 
L 312.076163 75.313426 
L 312.916039 75.313426 
L 312.916039 71.48103 
L 313.093546 71.48103 
L 313.093546 67.648634 
L 314.60876 67.648634 
L 314.60876 63.816238 
L 315.113207 63.816238 
L 315.113207 59.983842 
L 316.858821 59.983842 
L 316.858821 56.151446 
L 318.182222 56.151446 
L 318.182222 52.31905 
L 319.827007 52.31905 
L 319.827007 48.486653 
L 320.20825 48.486653 
L 320.20825 44.654257 
L 321.879423 44.654257 
L 321.959058 36.989465 
L 322.054317 36.989465 
L 322.054317 33.157069 
L 323.070511 33.157069 
L 323.070511 29.324673 
L 323.899466 29.324673 
L 323.899466 25.492277 
L 325.179614 25.492277 
L 325.179614 21.659881 
L 325.840633 21.659881 
L 325.840633 17.827485 
L 326.900213 17.827485 
L 326.900213 13.995089 
L 327.777453 13.995089 
L 327.777453 10.162693 
L 328.249667 10.162693 
L 328.249667 6.330297 
L 328.249667 6.330297 
L 460.8 6.330297 
L 460.8 6.330297 
" clip-path="url(#p491f72bfc4)" style="fill: none; stroke: #000000; stroke-width: 1.5; stroke-linecap: square"/>
   </g>
   <g id="line2d_28">
    <path d="M -0.148048 293.76 
L -0.148048 125.134574 
L 282.020394 125.134574 
L 282.020394 121.302178 
L 293.759785 121.302178 
L 293.759785 117.469782 
L 300.602486 117.469782 
L 300.602486 113.637386 
L 300.975267 113.637386 
L 300.975267 109.80499 
L 301.972611 109.80499 
L 302.022213 102.140198 
L 302.594366 102.140198 
L 302.627229 94.475406 
L 302.852244 94.475406 
L 302.852244 90.64301 
L 303.529766 90.64301 
L 303.529766 86.810614 
L 303.736159 86.810614 
L 303.736159 82.978218 
L 304.452827 82.978218 
L 304.452827 79.145822 
L 304.883264 79.145822 
L 304.883264 75.313426 
L 305.013135 75.313426 
L 305.013135 71.48103 
L 305.213872 71.48103 
L 305.213872 67.648634 
L 307.190196 67.648634 
L 307.190196 63.816238 
L 314.111809 63.816238 
L 314.111809 59.983842 
L 314.328543 59.983842 
L 314.328543 56.151446 
L 314.467115 56.151446 
L 314.537999 48.486653 
L 314.922142 48.486653 
L 314.922142 44.654257 
L 315.085018 44.654257 
L 315.113207 36.989465 
L 316.174516 36.989465 
L 316.174516 33.157069 
L 316.374534 33.157069 
L 316.374534 29.324673 
L 316.668198 29.324673 
L 316.747375 21.659881 
L 317.29404 21.659881 
L 317.29404 17.827485 
L 318.182222 17.827485 
L 318.182222 13.995089 
L 318.920056 13.995089 
L 318.920056 10.162693 
L 319.339912 10.162693 
L 319.339912 6.330297 
L 319.339912 6.330297 
L 460.8 6.330297 
L 460.8 6.330297 
" clip-path="url(#p491f72bfc4)" style="fill: none; stroke: #00bfbf; stroke-width: 1.5; stroke-linecap: square"/>
   </g>
   <g id="patch_3">
    <path d="M 0 293.76 
L 0 3.456 
" style="fill: none; stroke: #000000; stroke-width: 0.8; stroke-linejoin: miter; stroke-linecap: square"/>
   </g>
   <g id="patch_4">
    <path d="M 460.8 293.76 
L 460.8 3.456 
" style="fill: none; stroke: #000000; stroke-width: 0.8; stroke-linejoin: miter; stroke-linecap: square"/>
   </g>
   <g id="patch_5">
    <path d="M 0 293.76 
L 460.8 293.76 
" style="fill: none; stroke: #000000; stroke-width: 0.8; stroke-linejoin: miter; stroke-linecap: square"/>
   </g>
   <g id="patch_6">
    <path d="M 0 3.456 
L 460.8 3.456 
" style="fill: none; stroke: #000000; stroke-width: 0.8; stroke-linejoin: miter; stroke-linecap: square"/>
   </g>
   <g id="text_6">
    <!-- {f15-f19}, 10-D -->
    <g transform="translate(293.159 287.95392) scale(0.2 -0.2)">
     <defs>
      <path id="DejaVuSans-7b" d="M 3272 -594 
L 3272 -1044 
L 3078 -1044 
Q 2300 -1044 2036 -812 
Q 1772 -581 1772 109 
L 1772 856 
Q 1772 1328 1603 1509 
Q 1434 1691 991 1691 
L 800 1691 
L 800 2138 
L 991 2138 
Q 1438 2138 1605 2317 
Q 1772 2497 1772 2963 
L 1772 3713 
Q 1772 4403 2036 4633 
Q 2300 4863 3078 4863 
L 3272 4863 
L 3272 4416 
L 3059 4416 
Q 2619 4416 2484 4278 
Q 2350 4141 2350 3700 
L 2350 2925 
Q 2350 2434 2208 2212 
Q 2066 1991 1722 1913 
Q 2069 1828 2209 1606 
Q 2350 1384 2350 897 
L 2350 122 
Q 2350 -319 2484 -456 
Q 2619 -594 3059 -594 
L 3272 -594 
z
" transform="scale(0.015625)"/>
      <path id="DejaVuSans-39" d="M 703 97 
L 703 672 
Q 941 559 1184 500 
Q 1428 441 1663 441 
Q 2288 441 2617 861 
Q 2947 1281 2994 2138 
Q 2813 1869 2534 1725 
Q 2256 1581 1919 1581 
Q 1219 1581 811 2004 
Q 403 2428 403 3163 
Q 403 3881 828 4315 
Q 1253 4750 1959 4750 
Q 2769 4750 3195 4129 
Q 3622 3509 3622 2328 
Q 3622 1225 3098 567 
Q 2575 -91 1691 -91 
Q 1453 -91 1209 -44 
Q 966 3 703 97 
z
M 1959 2075 
Q 2384 2075 2632 2365 
Q 2881 2656 2881 3163 
Q 2881 3666 2632 3958 
Q 2384 4250 1959 4250 
Q 1534 4250 1286 3958 
Q 1038 3666 1038 3163 
Q 1038 2656 1286 2365 
Q 1534 2075 1959 2075 
z
" transform="scale(0.015625)"/>
      <path id="DejaVuSans-7d" d="M 800 -594 
L 1019 -594 
Q 1456 -594 1589 -459 
Q 1722 -325 1722 122 
L 1722 897 
Q 1722 1384 1862 1606 
Q 2003 1828 2350 1913 
Q 2003 1991 1862 2212 
Q 1722 2434 1722 2925 
L 1722 3700 
Q 1722 4144 1589 4280 
Q 1456 4416 1019 4416 
L 800 4416 
L 800 4863 
L 997 4863 
Q 1775 4863 2036 4633 
Q 2297 4403 2297 3713 
L 2297 2963 
Q 2297 2497 2465 2317 
Q 2634 2138 3078 2138 
L 3272 2138 
L 3272 1691 
L 3078 1691 
Q 2634 1691 2465 1509 
Q 2297 1328 2297 856 
L 2297 109 
Q 2297 -581 2036 -812 
Q 1775 -1044 997 -1044 
L 800 -1044 
L 800 -594 
z
" transform="scale(0.015625)"/>
      <path id="DejaVuSans-2c" d="M 750 794 
L 1409 794 
L 1409 256 
L 897 -744 
L 494 -744 
L 750 256 
L 750 794 
z
" transform="scale(0.015625)"/>
     </defs>
     <use xlink:href="#DejaVuSans-7b"/>
     <use xlink:href="#DejaVuSans-66" x="63.623047"/>
     <use xlink:href="#DejaVuSans-31" x="98.828125"/>
     <use xlink:href="#DejaVuSans-35" x="162.451172"/>
     <use xlink:href="#DejaVuSans-2d" x="226.074219"/>
     <use xlink:href="#DejaVuSans-66" x="262.158203"/>
     <use xlink:href="#DejaVuSans-31" x="297.363281"/>
     <use xlink:href="#DejaVuSans-39" x="360.986328"/>
     <use xlink:href="#DejaVuSans-7d" x="424.609375"/>
     <use xlink:href="#DejaVuSans-2c" x="488.232422"/>
     <use xlink:href="#DejaVuSans-20" x="520.019531"/>
     <use xlink:href="#DejaVuSans-31" x="551.806641"/>
     <use xlink:href="#DejaVuSans-30" x="615.429688"/>
     <use xlink:href="#DejaVuSans-2d" x="679.052734"/>
     <use xlink:href="#DejaVuSans-44" x="715.136719"/>
    </g>
   </g>
   <g id="text_7">
    <!-- v2.6.4 -->
    <g style="fill: #808080" transform="translate(214.71875 288.777272) scale(0.1 -0.1)">
     <defs>
      <path id="DejaVuSans-76" d="M 191 3500 
L 800 3500 
L 1894 563 
L 2988 3500 
L 3597 3500 
L 2284 0 
L 1503 0 
L 191 3500 
z
" transform="scale(0.015625)"/>
      <path id="DejaVuSans-2e" d="M 684 794 
L 1344 794 
L 1344 0 
L 684 0 
L 684 794 
z
" transform="scale(0.015625)"/>
      <path id="DejaVuSans-36" d="M 2113 2584 
Q 1688 2584 1439 2293 
Q 1191 2003 1191 1497 
Q 1191 994 1439 701 
Q 1688 409 2113 409 
Q 2538 409 2786 701 
Q 3034 994 3034 1497 
Q 3034 2003 2786 2293 
Q 2538 2584 2113 2584 
z
M 3366 4563 
L 3366 3988 
Q 3128 4100 2886 4159 
Q 2644 4219 2406 4219 
Q 1781 4219 1451 3797 
Q 1122 3375 1075 2522 
Q 1259 2794 1537 2939 
Q 1816 3084 2150 3084 
Q 2853 3084 3261 2657 
Q 3669 2231 3669 1497 
Q 3669 778 3244 343 
Q 2819 -91 2113 -91 
Q 1303 -91 875 529 
Q 447 1150 447 2328 
Q 447 3434 972 4092 
Q 1497 4750 2381 4750 
Q 2619 4750 2861 4703 
Q 3103 4656 3366 4563 
z
" transform="scale(0.015625)"/>
     </defs>
     <use xlink:href="#DejaVuSans-76"/>
     <use xlink:href="#DejaVuSans-32" x="59.179688"/>
     <use xlink:href="#DejaVuSans-2e" x="122.802734"/>
     <use xlink:href="#DejaVuSans-36" x="154.589844"/>
     <use xlink:href="#DejaVuSans-2e" x="218.212891"/>
     <use xlink:href="#DejaVuSans-34" x="250"/>
    </g>
   </g>
  </g>
 </g>
 <defs>
  <clipPath id="p491f72bfc4">
   <rect x="0" y="3.456" width="460.8" height="290.304"/>
  </clipPath>
 </defs>
</svg>
