<?xml version="1.0" encoding="utf-8" standalone="no"?>
<!DOCTYPE svg PUBLIC "-//W3C//DTD SVG 1.1//EN"
  "http://www.w3.org/Graphics/SVG/1.1/DTD/svg11.dtd">
<svg xmlns:xlink="http://www.w3.org/1999/xlink" width="460.8pt" height="345.6pt" viewBox="0 0 460.8 345.6" xmlns="http://www.w3.org/2000/svg" version="1.1">
 <metadata>
  <rdf:RDF xmlns:dc="http://purl.org/dc/elements/1.1/" xmlns:cc="http://creativecommons.org/ns#" xmlns:rdf="http://www.w3.org/1999/02/22-rdf-syntax-ns#">
   <cc:Work>
    <dc:type rdf:resource="http://purl.org/dc/dcmitype/StillImage"/>
    <dc:date>2024-10-11T15:13:53.599330</dc:date>
    <dc:format>image/svg+xml</dc:format>
    <dc:creator>
     <cc:Agent>
      <dc:title>Matplotlib v3.9.2, https://matplotlib.org/</dc:title>
     </cc:Agent>
    </dc:creator>
   </cc:Work>
  </rdf:RDF>
 </metadata>
 <defs>
  <style type="text/css">*{stroke-linejoin: round; stroke-linecap: butt}</style>
 </defs>
 <g id="figure_1">
  <g id="patch_1">
   <path d="M 0 345.6 
L 460.8 345.6 
L 460.8 0 
L 0 0 
z
" style="fill: #ffffff"/>
  </g>
  <g id="axes_1">
   <g id="patch_2">
    <path d="M 62.208 293.76 
L 460.8 293.76 
L 460.8 3.456 
L 62.208 3.456 
z
" style="fill: #ffffff"/>
   </g>
   <g id="line2d_1">
    <path d="M 283.852457 293.76 
L 283.852457 289.927604 
L 287.395809 289.927604 
L 287.395809 286.095208 
L 295.919802 286.095208 
L 295.919802 282.262812 
L 308.715113 282.262812 
L 308.715113 278.430416 
L 331.688293 278.430416 
L 331.688293 274.59802 
L 341.77055 274.59802 
L 341.77055 270.765624 
L 341.77055 270.765624 
L 341.77055 270.765624 
L 460.8 270.765624 
" clip-path="url(#p7eb5c5c34e)" style="fill: none; stroke: #f5deb3; stroke-width: 1.5; stroke-linecap: square"/>
   </g>
   <g id="line2d_2">
    <path d="M 426.215422 293.76 
L 426.215422 282.262812 
L 426.215422 282.262812 
L 426.215422 282.262812 
L 460.8 282.262812 
" clip-path="url(#p7eb5c5c34e)" style="fill: none; stroke: #f5deb3; stroke-width: 1.5; stroke-linecap: square"/>
   </g>
   <g id="line2d_3">
    <path d="M 226.657844 293.76 
L 226.657844 289.927604 
L 233.700787 289.927604 
L 233.700787 286.095208 
L 296.308807 286.095208 
L 296.308807 282.262812 
L 299.804049 282.262812 
L 299.804049 278.430416 
L 310.606587 278.430416 
L 310.606587 274.59802 
L 313.564523 274.59802 
L 313.564523 270.765624 
L 316.938432 270.765624 
L 316.938432 266.933228 
L 329.035268 266.933228 
L 329.035268 263.100832 
L 330.368889 263.100832 
L 330.368889 259.268436 
L 330.807358 259.268436 
L 330.807358 255.43604 
L 331.465438 255.43604 
L 331.465438 251.603644 
L 335.342563 251.603644 
L 335.342563 247.771248 
L 342.589012 247.771248 
L 342.589012 243.938851 
L 347.97475 243.938851 
L 347.97475 240.106455 
L 348.557609 240.106455 
L 348.557609 236.274059 
L 357.792125 236.274059 
L 357.792125 232.441663 
L 359.100425 232.441663 
L 359.100425 228.609267 
L 362.870139 228.609267 
L 362.870139 224.776871 
L 388.526493 224.776871 
L 388.526493 220.944475 
L 390.015624 220.944475 
L 390.015624 217.112079 
L 392.879652 217.112079 
L 392.879652 213.279683 
L 395.784131 213.279683 
L 395.784131 209.447287 
L 396.90861 209.447287 
L 396.90861 205.614891 
L 403.601096 205.614891 
L 403.601096 201.782495 
L 404.122108 201.782495 
L 404.122108 197.950099 
L 421.422162 197.950099 
L 421.422162 194.117703 
L 423.311093 194.117703 
L 423.311093 190.285307 
L 425.575583 190.285307 
L 425.575583 186.452911 
L 432.873199 186.452911 
L 432.873199 182.620515 
L 445.559253 182.620515 
L 445.559253 178.788119 
L 445.559253 178.788119 
L 445.559253 178.788119 
L 460.8 178.788119 
" clip-path="url(#p7eb5c5c34e)" style="fill: none; stroke: #f5deb3; stroke-width: 1.5; stroke-linecap: square"/>
   </g>
   <g id="line2d_4">
    <path d="M 241.986886 293.76 
L 241.986886 289.927604 
L 246.31492 289.927604 
L 246.31492 286.095208 
L 276.096267 286.095208 
L 276.096267 282.262812 
L 298.424888 282.262812 
L 298.424888 278.430416 
L 300.265954 278.430416 
L 300.265954 274.59802 
L 309.621387 274.59802 
L 309.621387 270.765624 
L 314.718633 270.765624 
L 314.718633 266.933228 
L 333.488429 266.933228 
L 333.488429 263.100832 
L 334.123424 263.100832 
L 334.123424 259.268436 
L 351.694804 259.268436 
L 351.694804 255.43604 
L 353.265209 255.43604 
L 353.265209 251.603644 
L 358.836432 251.603644 
L 358.836432 247.771248 
L 365.15851 247.771248 
L 365.15851 243.938851 
L 365.781262 243.938851 
L 365.781262 240.106455 
L 372.466261 240.106455 
L 372.466261 236.274059 
L 380.238064 236.274059 
L 380.238064 232.441663 
L 397.24071 232.441663 
L 397.24071 228.609267 
L 398.622556 228.609267 
L 398.622556 224.776871 
L 399.46455 224.776871 
L 399.46455 220.944475 
L 400.171187 220.944475 
L 400.171187 217.112079 
L 403.558883 217.112079 
L 403.558883 213.279683 
L 407.136414 213.279683 
L 407.136414 209.447287 
L 414.713226 209.447287 
L 414.713226 205.614891 
L 417.601061 205.614891 
L 417.601061 201.782495 
L 417.639794 201.782495 
L 417.639794 197.950099 
L 426.575751 197.950099 
L 426.575751 194.117703 
L 434.826039 194.117703 
L 434.826039 190.285307 
L 443.050718 190.285307 
L 443.050718 186.452911 
L 449.298078 186.452911 
L 449.298078 182.620515 
L 450.5143 182.620515 
L 450.5143 178.788119 
L 450.5143 178.788119 
L 450.5143 178.788119 
L 460.8 178.788119 
" clip-path="url(#p7eb5c5c34e)" style="fill: none; stroke: #f5deb3; stroke-width: 1.5; stroke-linecap: square"/>
   </g>
   <g id="line2d_5"/>
   <g id="line2d_6"/>
   <g id="line2d_7">
    <path d="M 274.747196 293.76 
L 274.747196 289.927604 
L 389.008886 289.927604 
L 389.008886 286.095208 
L 392.371482 286.095208 
L 392.371482 282.262812 
L 394.965772 282.262812 
L 394.965772 278.430416 
L 419.058182 278.430416 
L 419.058182 274.59802 
L 422.876689 274.59802 
L 422.876689 270.765624 
L 424.551752 270.765624 
L 424.551752 266.933228 
L 429.99132 266.933228 
L 429.99132 263.100832 
L 455.443509 263.100832 
L 455.443509 259.268436 
L 461.8 259.268436 
" clip-path="url(#p7eb5c5c34e)" style="fill: none; stroke: #f5deb3; stroke-width: 1.5; stroke-linecap: square"/>
   </g>
   <g id="line2d_8">
    <path d="M 424.403493 293.76 
L 424.403493 289.927604 
L 428.946073 289.927604 
L 428.946073 286.095208 
L 460.62785 286.095208 
L 460.62785 282.262812 
L 461.8 282.262812 
" clip-path="url(#p7eb5c5c34e)" style="fill: none; stroke: #f5deb3; stroke-width: 1.5; stroke-linecap: square"/>
   </g>
   <g id="line2d_9">
    <path d="M 263.367467 293.76 
L 263.367467 289.927604 
L 268.150377 289.927604 
L 268.150377 286.095208 
L 374.993346 286.095208 
L 374.993346 282.262812 
L 385.879152 282.262812 
L 385.879152 278.430416 
L 397.826951 278.430416 
L 397.826951 274.59802 
L 399.726234 274.59802 
L 399.726234 270.765624 
L 400.325496 270.765624 
L 400.325496 266.933228 
L 414.469009 266.933228 
L 414.469009 263.100832 
L 415.227345 263.100832 
L 415.227345 259.268436 
L 415.297995 259.268436 
L 415.297995 255.43604 
L 416.134484 255.43604 
L 416.134484 251.603644 
L 420.059282 251.603644 
L 420.059282 247.771248 
L 430.536426 247.771248 
L 430.536426 243.938851 
L 435.65718 243.938851 
L 435.65718 240.106455 
L 445.947705 240.106455 
L 445.947705 236.274059 
L 456.973658 236.274059 
L 456.973658 232.441663 
L 460.499921 232.441663 
L 460.499921 228.609267 
L 461.8 228.609267 
" clip-path="url(#p7eb5c5c34e)" style="fill: none; stroke: #f5deb3; stroke-width: 1.5; stroke-linecap: square"/>
   </g>
   <g id="line2d_10">
    <path d="M 451.865714 293.76 
L 451.865714 289.927604 
L 461.172733 289.927604 
L 461.172733 286.095208 
L 461.8 286.095208 
" clip-path="url(#p7eb5c5c34e)" style="fill: none; stroke: #f5deb3; stroke-width: 1.5; stroke-linecap: square"/>
   </g>
   <g id="line2d_11">
    <path d="M 243.390574 293.76 
L 243.390574 289.927604 
L 244.558528 289.927604 
L 244.558528 286.095208 
L 291.175239 286.095208 
L 291.175239 282.262812 
L 351.087479 282.262812 
L 351.087479 278.430416 
L 380.755624 278.430416 
L 380.755624 274.59802 
L 394.703465 274.59802 
L 394.703465 270.765624 
L 395.63613 270.765624 
L 395.63613 266.933228 
L 398.365081 266.933228 
L 398.365081 263.100832 
L 398.992381 263.100832 
L 398.992381 259.268436 
L 407.103501 259.268436 
L 407.103501 255.43604 
L 412.957049 255.43604 
L 412.957049 251.603644 
L 419.530192 251.603644 
L 419.530192 247.771248 
L 433.580279 247.771248 
L 433.580279 243.938851 
L 434.452959 243.938851 
L 434.452959 240.106455 
L 435.948652 240.106455 
L 435.948652 236.274059 
L 442.780523 236.274059 
L 442.780523 232.441663 
L 445.350726 232.441663 
L 445.350726 228.609267 
L 459.643925 228.609267 
L 459.643925 224.776871 
L 459.716315 224.776871 
L 459.716315 220.944475 
L 460.348004 220.944475 
L 460.348004 217.112079 
L 461.8 217.112079 
" clip-path="url(#p7eb5c5c34e)" style="fill: none; stroke: #f5deb3; stroke-width: 1.5; stroke-linecap: square"/>
   </g>
   <g id="line2d_12">
    <path d="M 306.32436 293.76 
L 306.32436 289.927604 
L 336.901275 289.927604 
L 336.901275 286.095208 
L 349.098429 286.095208 
L 349.098429 282.262812 
L 383.711676 282.262812 
L 383.711676 278.430416 
L 397.980594 278.430416 
L 397.980594 274.59802 
L 399.26231 274.59802 
L 399.26231 270.765624 
L 402.603018 270.765624 
L 402.603018 266.933228 
L 405.550914 266.933228 
L 405.550914 263.100832 
L 407.437454 263.100832 
L 407.437454 259.268436 
L 409.245179 259.268436 
L 409.245179 255.43604 
L 414.713226 255.43604 
L 414.713226 251.603644 
L 423.808377 251.603644 
L 423.808377 247.771248 
L 428.832085 247.771248 
L 428.832085 243.938851 
L 428.832085 243.938851 
L 428.832085 243.938851 
L 460.8 243.938851 
" clip-path="url(#p7eb5c5c34e)" style="fill: none; stroke: #f5deb3; stroke-width: 1.5; stroke-linecap: square"/>
   </g>
   <g id="line2d_13">
    <path d="M 346.947488 293.76 
L 346.947488 289.927604 
L 369.490719 289.927604 
L 369.490719 286.095208 
L 373.620284 286.095208 
L 373.620284 282.262812 
L 373.620284 282.262812 
L 373.620284 282.262812 
L 460.8 282.262812 
" clip-path="url(#p7eb5c5c34e)" style="fill: none; stroke: #f5deb3; stroke-width: 1.5; stroke-linecap: square"/>
   </g>
   <g id="line2d_14">
    <path d="M 277.194252 293.76 
L 277.194252 289.927604 
L 279.851524 289.927604 
L 279.851524 286.095208 
L 340.527022 286.095208 
L 340.527022 282.262812 
L 355.65422 282.262812 
L 355.65422 278.430416 
L 361.013293 278.430416 
L 361.013293 274.59802 
L 381.584013 274.59802 
L 381.584013 270.765624 
L 387.16972 270.765624 
L 387.16972 266.933228 
L 388.89506 266.933228 
L 388.89506 263.100832 
L 390.239391 263.100832 
L 390.239391 259.268436 
L 393.373704 259.268436 
L 393.373704 255.43604 
L 395.127923 255.43604 
L 395.127923 251.603644 
L 396.499431 251.603644 
L 396.499431 247.771248 
L 413.883091 247.771248 
L 413.883091 243.938851 
L 414.772185 243.938851 
L 414.772185 240.106455 
L 416.608064 240.106455 
L 416.608064 236.274059 
L 416.742427 236.274059 
L 416.742427 232.441663 
L 417.125223 232.441663 
L 417.125223 228.609267 
L 424.106453 228.609267 
L 424.106453 224.776871 
L 424.431581 224.776871 
L 424.431581 220.944475 
L 429.468728 220.944475 
L 429.468728 217.112079 
L 431.361933 217.112079 
L 431.361933 213.279683 
L 436.840843 213.279683 
L 436.840843 209.447287 
L 440.631923 209.447287 
L 440.631923 205.614891 
L 446.362918 205.614891 
L 446.362918 201.782495 
L 459.804086 201.782495 
L 459.804086 197.950099 
L 459.804086 197.950099 
L 459.804086 197.950099 
L 460.8 197.950099 
" clip-path="url(#p7eb5c5c34e)" style="fill: none; stroke: #f5deb3; stroke-width: 1.5; stroke-linecap: square"/>
   </g>
   <g id="line2d_15">
    <path clip-path="url(#p7eb5c5c34e)" style="fill: none; stroke: #f5deb3; stroke-width: 1.5; stroke-linecap: square"/>
   </g>
   <g id="line2d_16">
    <path d="M 402.378248 293.76 
L 402.378248 289.927604 
L 437.968062 289.927604 
L 437.968062 286.095208 
L 461.8 286.095208 
" clip-path="url(#p7eb5c5c34e)" style="fill: none; stroke: #f5deb3; stroke-width: 1.5; stroke-linecap: square"/>
   </g>
   <g id="line2d_17">
    <path d="M 395.916125 293.76 
L 395.916125 289.927604 
L 404.237397 289.927604 
L 404.237397 286.095208 
L 412.511593 286.095208 
L 412.511593 282.262812 
L 418.410731 282.262812 
L 418.410731 278.430416 
L 418.410731 278.430416 
L 418.410731 278.430416 
L 460.8 278.430416 
" clip-path="url(#p7eb5c5c34e)" style="fill: none; stroke: #f5deb3; stroke-width: 1.5; stroke-linecap: square"/>
   </g>
   <g id="line2d_18">
    <path d="M 233.037532 293.76 
L 233.037532 289.927604 
L 238.44925 289.927604 
L 238.44925 286.095208 
L 238.44925 286.095208 
L 238.44925 282.262812 
L 241.508687 282.262812 
L 241.508687 278.430416 
L 294.266987 278.430416 
L 294.266987 274.59802 
L 304.279664 274.59802 
L 304.279664 270.765624 
L 306.216687 270.765624 
L 306.216687 266.933228 
L 307.744878 266.933228 
L 307.744878 263.100832 
L 313.30382 263.100832 
L 313.30382 259.268436 
L 320.112929 259.268436 
L 320.112929 255.43604 
L 322.163715 255.43604 
L 322.163715 251.603644 
L 326.131224 251.603644 
L 326.131224 247.771248 
L 328.706792 247.771248 
L 328.706792 243.938851 
L 340.036353 243.938851 
L 340.036353 240.106455 
L 347.816023 240.106455 
L 347.816023 236.274059 
L 357.065801 236.274059 
L 357.065801 232.441663 
L 357.834198 232.441663 
L 357.834198 228.609267 
L 359.376347 228.609267 
L 359.376347 224.776871 
L 363.755256 224.776871 
L 363.755256 220.944475 
L 381.220821 220.944475 
L 381.220821 217.112079 
L 390.853751 217.112079 
L 390.853751 213.279683 
L 394.321077 213.279683 
L 394.321077 209.447287 
L 400.679374 209.447287 
L 400.679374 205.614891 
L 416.933652 205.614891 
L 416.933652 201.782495 
L 423.245179 201.782495 
L 423.245179 197.950099 
L 424.873564 197.950099 
L 424.873564 194.117703 
L 428.113236 194.117703 
L 428.113236 190.285307 
L 428.113236 190.285307 
L 428.113236 190.285307 
L 460.8 190.285307 
" clip-path="url(#p7eb5c5c34e)" style="fill: none; stroke: #f5deb3; stroke-width: 1.5; stroke-linecap: square"/>
   </g>
   <g id="line2d_19">
    <path d="M 409.941757 293.76 
L 409.941757 290.338218 
L 411.291284 290.338218 
L 411.291284 286.916436 
L 414.204359 286.916436 
L 414.204359 283.494653 
L 421.311291 283.494653 
L 421.311291 280.072871 
L 423.313151 280.072871 
L 423.313151 276.651089 
L 424.24264 276.651089 
L 424.24264 273.229307 
L 426.450551 273.229307 
L 426.450551 269.807525 
L 426.45725 269.807525 
L 426.45725 266.385743 
L 429.682432 266.385743 
L 429.682432 262.96396 
L 433.503909 262.96396 
L 433.503909 259.542178 
L 445.02358 259.542178 
L 445.02358 256.120396 
L 451.659873 256.120396 
L 451.659873 252.698614 
L 455.859293 252.698614 
L 455.859293 249.276832 
L 456.028748 249.276832 
L 456.028748 245.85505 
L 461.8 245.85505 
" clip-path="url(#p7eb5c5c34e)" style="fill: none; stroke: #f5deb3; stroke-width: 1.5; stroke-linecap: square"/>
   </g>
   <g id="line2d_20">
    <path d="M 256.412163 293.76 
L 256.412163 289.927604 
L 304.392259 289.927604 
L 304.392259 286.095208 
L 306.843563 286.095208 
L 306.843563 282.262812 
L 319.945039 282.262812 
L 319.945039 278.430416 
L 323.237004 278.430416 
L 323.237004 274.59802 
L 328.953383 274.59802 
L 328.953383 270.765624 
L 336.969433 270.765624 
L 336.969433 266.933228 
L 337.458524 266.933228 
L 337.458524 263.100832 
L 347.508677 263.100832 
L 347.508677 259.268436 
L 347.556103 259.268436 
L 347.556103 255.43604 
L 363.023757 255.43604 
L 363.023757 251.603644 
L 367.998338 251.603644 
L 367.998338 247.771248 
L 368.182666 247.771248 
L 368.182666 243.938851 
L 370.55193 243.938851 
L 370.55193 240.106455 
L 374.001435 240.106455 
L 374.001435 236.274059 
L 377.889557 236.274059 
L 377.889557 232.441663 
L 383.763036 232.441663 
L 383.763036 228.609267 
L 386.251483 228.609267 
L 386.251483 224.776871 
L 388.177942 224.776871 
L 388.177942 220.944475 
L 391.708007 220.944475 
L 391.708007 217.112079 
L 399.330425 217.112079 
L 399.330425 213.279683 
L 400.316743 213.279683 
L 400.316743 209.447287 
L 401.426371 209.447287 
L 401.426371 205.614891 
L 402.26626 205.614891 
L 402.26626 201.782495 
L 410.803528 201.782495 
L 410.803528 197.950099 
L 411.107484 197.950099 
L 411.107484 194.117703 
L 419.803359 194.117703 
L 419.803359 190.285307 
L 443.005694 190.285307 
L 443.005694 186.452911 
L 451.295393 186.452911 
L 451.295393 182.620515 
L 451.295393 182.620515 
L 451.295393 182.620515 
L 460.8 182.620515 
" clip-path="url(#p7eb5c5c34e)" style="fill: none; stroke: #f5deb3; stroke-width: 1.5; stroke-linecap: square"/>
   </g>
   <g id="line2d_21"/>
   <g id="line2d_22">
    <path d="M 255.626187 293.76 
L 255.626187 289.927604 
L 272.658027 289.927604 
L 272.658027 286.095208 
L 275.972531 286.095208 
L 275.972531 282.262812 
L 278.265067 282.262812 
L 278.265067 278.430416 
L 283.385159 278.430416 
L 283.385159 274.59802 
L 325.603097 274.59802 
L 325.603097 270.765624 
L 338.748478 270.765624 
L 338.748478 266.933228 
L 348.8116 266.933228 
L 348.8116 263.100832 
L 370.815813 263.100832 
L 370.815813 259.268436 
L 381.565116 259.268436 
L 381.565116 255.43604 
L 382.181754 255.43604 
L 382.181754 251.603644 
L 383.598467 251.603644 
L 383.598467 247.771248 
L 395.983907 247.771248 
L 395.983907 243.938851 
L 399.385914 243.938851 
L 399.385914 240.106455 
L 407.410714 240.106455 
L 407.410714 236.274059 
L 425.831684 236.274059 
L 425.831684 232.441663 
L 428.491047 232.441663 
L 428.491047 228.609267 
L 442.733245 228.609267 
L 442.733245 224.776871 
L 445.234305 224.776871 
L 445.234305 220.944475 
L 446.567838 220.944475 
L 446.567838 217.112079 
L 455.098306 217.112079 
L 455.098306 213.279683 
L 458.327551 213.279683 
L 458.327551 209.447287 
L 461.101451 209.447287 
L 461.101451 205.614891 
L 461.8 205.614891 
" clip-path="url(#p7eb5c5c34e)" style="fill: none; stroke: #f5deb3; stroke-width: 1.5; stroke-linecap: square"/>
   </g>
   <g id="line2d_23">
    <path d="M 351.202004 293.76 
L 351.202004 289.927604 
L 354.715386 289.927604 
L 354.715386 286.095208 
L 356.760329 286.095208 
L 356.760329 282.262812 
L 361.281635 282.262812 
L 361.281635 278.430416 
L 361.71097 278.430416 
L 361.71097 274.59802 
L 365.142727 274.59802 
L 365.142727 270.765624 
L 461.8 270.765624 
" clip-path="url(#p7eb5c5c34e)" style="fill: none; stroke: #f5deb3; stroke-width: 1.5; stroke-linecap: square"/>
   </g>
   <g id="line2d_24">
    <path d="M 323.671325 293.76 
L 323.671325 289.927604 
L 328.172279 289.927604 
L 328.172279 286.095208 
L 330.955431 286.095208 
L 330.955431 282.262812 
L 336.390473 282.262812 
L 336.390473 278.430416 
L 400.615089 278.430416 
L 400.615089 274.59802 
L 405.996933 274.59802 
L 405.996933 270.765624 
L 406.502187 270.765624 
L 406.502187 266.933228 
L 407.367597 266.933228 
L 407.367597 263.100832 
L 416.250943 263.100832 
L 416.250943 259.268436 
L 421.828759 259.268436 
L 421.828759 255.43604 
L 429.293418 255.43604 
L 429.293418 251.603644 
L 430.359275 251.603644 
L 430.359275 247.771248 
L 430.516391 247.771248 
L 430.516391 243.938851 
L 461.8 243.938851 
" clip-path="url(#p7eb5c5c34e)" style="fill: none; stroke: #f5deb3; stroke-width: 1.5; stroke-linecap: square"/>
   </g>
   <g id="line2d_25">
    <path d="M 450.898449 293.76 
L 450.898449 289.927604 
L 452.47218 289.927604 
L 452.47218 286.095208 
L 453.27776 286.095208 
L 453.27776 282.262812 
L 461.8 282.262812 
" clip-path="url(#p7eb5c5c34e)" style="fill: none; stroke: #f5deb3; stroke-width: 1.5; stroke-linecap: square"/>
   </g>
   <g id="line2d_26">
    <path d="M 315.632653 293.76 
L 315.632653 289.927604 
L 337.495919 289.927604 
L 337.495919 286.095208 
L 344.1681 286.095208 
L 344.1681 282.262812 
L 348.955252 282.262812 
L 348.955252 278.430416 
L 356.186546 278.430416 
L 356.186546 274.59802 
L 407.984958 274.59802 
L 407.984958 270.765624 
L 450.828213 270.765624 
L 450.828213 266.933228 
L 451.507798 266.933228 
L 451.507798 263.100832 
L 451.970922 263.100832 
L 451.970922 259.268436 
L 459.200736 259.268436 
L 459.200736 255.43604 
L 461.8 255.43604 
" clip-path="url(#p7eb5c5c34e)" style="fill: none; stroke: #f5deb3; stroke-width: 1.5; stroke-linecap: square"/>
   </g>
   <g id="line2d_27">
    <path d="M 257.088373 293.76 
L 257.088373 289.927604 
L 309.806057 289.927604 
L 309.806057 286.095208 
L 312.311953 286.095208 
L 312.311953 282.262812 
L 318.100766 282.262812 
L 318.100766 278.430416 
L 319.720166 278.430416 
L 319.720166 274.59802 
L 339.597065 274.59802 
L 339.597065 270.765624 
L 349.166986 270.765624 
L 349.166986 266.933228 
L 349.462818 266.933228 
L 349.462818 263.100832 
L 364.754238 263.100832 
L 364.754238 259.268436 
L 369.153906 259.268436 
L 369.153906 255.43604 
L 369.189862 255.43604 
L 369.189862 251.603644 
L 385.387563 251.603644 
L 385.387563 247.771248 
L 393.625783 247.771248 
L 393.625783 243.938851 
L 396.572033 243.938851 
L 396.572033 240.106455 
L 403.44177 240.106455 
L 403.44177 236.274059 
L 403.563756 236.274059 
L 403.563756 232.441663 
L 403.790547 232.441663 
L 403.790547 228.609267 
L 407.25738 228.609267 
L 407.25738 224.776871 
L 409.407253 224.776871 
L 409.407253 220.944475 
L 422.236846 220.944475 
L 422.236846 217.112079 
L 424.895397 217.112079 
L 424.895397 213.279683 
L 426.169206 213.279683 
L 426.169206 209.447287 
L 427.987793 209.447287 
L 427.987793 205.614891 
L 431.814962 205.614891 
L 431.814962 201.782495 
L 436.08906 201.782495 
L 436.08906 197.950099 
L 460.14154 197.950099 
L 460.14154 194.117703 
L 461.8 194.117703 
" clip-path="url(#p7eb5c5c34e)" style="fill: none; stroke: #f5deb3; stroke-width: 1.5; stroke-linecap: square"/>
   </g>
   <g id="line2d_28">
    <path d="M 292.273088 293.76 
L 292.273088 289.927604 
L 292.400434 289.927604 
L 292.400434 286.095208 
L 295.586375 286.095208 
L 295.586375 282.262812 
L 297.057456 282.262812 
L 297.057456 278.430416 
L 318.63577 278.430416 
L 318.63577 274.59802 
L 380.548789 274.59802 
L 380.548789 270.765624 
L 382.410085 270.765624 
L 382.410085 266.933228 
L 385.149602 266.933228 
L 385.149602 263.100832 
L 405.719676 263.100832 
L 405.719676 259.268436 
L 428.330055 259.268436 
L 428.330055 255.43604 
L 428.997541 255.43604 
L 428.997541 251.603644 
L 429.218965 251.603644 
L 429.218965 247.771248 
L 429.993084 247.771248 
L 429.993084 243.938851 
L 461.8 243.938851 
" clip-path="url(#p7eb5c5c34e)" style="fill: none; stroke: #f5deb3; stroke-width: 1.5; stroke-linecap: square"/>
   </g>
   <g id="line2d_29">
    <path d="M 350.288335 293.76 
L 350.288335 289.927604 
L 350.288335 289.927604 
L 350.288335 286.095208 
L 350.288335 286.095208 
L 350.288335 282.262812 
L 358.391295 282.262812 
L 358.391295 278.430416 
L 358.391295 278.430416 
L 358.391295 274.59802 
L 358.391295 274.59802 
L 358.391295 270.765624 
L 366.693191 270.765624 
L 366.693191 266.933228 
L 366.693191 266.933228 
L 366.693191 263.100832 
L 366.693191 263.100832 
L 366.693191 259.268436 
L 366.693191 259.268436 
L 366.693191 259.268436 
L 460.8 259.268436 
" clip-path="url(#p7eb5c5c34e)" style="fill: none; stroke: #f5deb3; stroke-width: 1.5; stroke-linecap: square"/>
   </g>
   <g id="line2d_30">
    <path d="M 446.747847 293.76 
L 446.747847 289.927604 
L 459.155358 289.927604 
L 459.155358 286.095208 
L 459.724745 286.095208 
L 459.724745 282.262812 
L 459.724745 282.262812 
L 459.724745 282.262812 
L 460.8 282.262812 
" clip-path="url(#p7eb5c5c34e)" style="fill: none; stroke: #f5deb3; stroke-width: 1.5; stroke-linecap: square"/>
   </g>
   <g id="matplotlib.axis_1">
    <g id="xtick_1">
     <g id="line2d_31">
      <path d="M 62.208 293.76 
L 62.208 3.456 
" clip-path="url(#p7eb5c5c34e)" style="fill: none; stroke: #b0b0b0; stroke-width: 0.8; stroke-linecap: square"/>
     </g>
     <g id="line2d_32">
      <defs>
       <path id="m905d3a27f3" d="M 0 0 
L 0 3.5 
" style="stroke: #000000; stroke-width: 0.8"/>
      </defs>
      <g>
       <use xlink:href="#m905d3a27f3" x="62.208" y="293.76" style="stroke: #000000; stroke-width: 0.8"/>
      </g>
     </g>
     <g id="text_1">
      <!-- 0 -->
      <g transform="translate(55.8455 315.956875) scale(0.2 -0.2)">
       <defs>
        <path id="DejaVuSans-30" d="M 2034 4250 
Q 1547 4250 1301 3770 
Q 1056 3291 1056 2328 
Q 1056 1369 1301 889 
Q 1547 409 2034 409 
Q 2525 409 2770 889 
Q 3016 1369 3016 2328 
Q 3016 3291 2770 3770 
Q 2525 4250 2034 4250 
z
M 2034 4750 
Q 2819 4750 3233 4129 
Q 3647 3509 3647 2328 
Q 3647 1150 3233 529 
Q 2819 -91 2034 -91 
Q 1250 -91 836 529 
Q 422 1150 422 2328 
Q 422 3509 836 4129 
Q 1250 4750 2034 4750 
z
" transform="scale(0.015625)"/>
       </defs>
       <use xlink:href="#DejaVuSans-30"/>
      </g>
     </g>
    </g>
    <g id="xtick_2">
     <g id="line2d_33">
      <path d="M 261.504 293.76 
L 261.504 3.456 
" clip-path="url(#p7eb5c5c34e)" style="fill: none; stroke: #b0b0b0; stroke-width: 0.8; stroke-linecap: square"/>
     </g>
     <g id="line2d_34">
      <g>
       <use xlink:href="#m905d3a27f3" x="261.504" y="293.76" style="stroke: #000000; stroke-width: 0.8"/>
      </g>
     </g>
     <g id="text_2">
      <!-- 2 -->
      <g transform="translate(255.1415 315.956875) scale(0.2 -0.2)">
       <defs>
        <path id="DejaVuSans-32" d="M 1228 531 
L 3431 531 
L 3431 0 
L 469 0 
L 469 531 
Q 828 903 1448 1529 
Q 2069 2156 2228 2338 
Q 2531 2678 2651 2914 
Q 2772 3150 2772 3378 
Q 2772 3750 2511 3984 
Q 2250 4219 1831 4219 
Q 1534 4219 1204 4116 
Q 875 4013 500 3803 
L 500 4441 
Q 881 4594 1212 4672 
Q 1544 4750 1819 4750 
Q 2544 4750 2975 4387 
Q 3406 4025 3406 3419 
Q 3406 3131 3298 2873 
Q 3191 2616 2906 2266 
Q 2828 2175 2409 1742 
Q 1991 1309 1228 531 
z
" transform="scale(0.015625)"/>
       </defs>
       <use xlink:href="#DejaVuSans-32"/>
      </g>
     </g>
    </g>
    <g id="xtick_3">
     <g id="line2d_35">
      <path d="M 460.8 293.76 
L 460.8 3.456 
" clip-path="url(#p7eb5c5c34e)" style="fill: none; stroke: #b0b0b0; stroke-width: 0.8; stroke-linecap: square"/>
     </g>
     <g id="line2d_36">
      <g>
       <use xlink:href="#m905d3a27f3" x="460.8" y="293.76" style="stroke: #000000; stroke-width: 0.8"/>
      </g>
     </g>
     <g id="text_3">
      <!-- 4 -->
      <g transform="translate(454.4375 315.956875) scale(0.2 -0.2)">
       <defs>
        <path id="DejaVuSans-34" d="M 2419 4116 
L 825 1625 
L 2419 1625 
L 2419 4116 
z
M 2253 4666 
L 3047 4666 
L 3047 1625 
L 3713 1625 
L 3713 1100 
L 3047 1100 
L 3047 0 
L 2419 0 
L 2419 1100 
L 313 1100 
L 313 1709 
L 2253 4666 
z
" transform="scale(0.015625)"/>
       </defs>
       <use xlink:href="#DejaVuSans-34"/>
      </g>
     </g>
    </g>
    <g id="xtick_4">
     <g id="line2d_37">
      <path d="M 92.205037 293.76 
L 92.205037 3.456 
" clip-path="url(#p7eb5c5c34e)" style="fill: none; stroke: #b0b0b0; stroke-width: 0.8; stroke-linecap: square"/>
     </g>
     <g id="line2d_38">
      <defs>
       <path id="m9f7b7fa282" d="M 0 0 
L 0 2 
" style="stroke: #000000; stroke-width: 0.6"/>
      </defs>
      <g>
       <use xlink:href="#m9f7b7fa282" x="92.205037" y="293.76" style="stroke: #000000; stroke-width: 0.6"/>
      </g>
     </g>
    </g>
    <g id="xtick_5">
     <g id="line2d_39">
      <path d="M 109.752179 293.76 
L 109.752179 3.456 
" clip-path="url(#p7eb5c5c34e)" style="fill: none; stroke: #b0b0b0; stroke-width: 0.8; stroke-linecap: square"/>
     </g>
     <g id="line2d_40">
      <g>
       <use xlink:href="#m9f7b7fa282" x="109.752179" y="293.76" style="stroke: #000000; stroke-width: 0.6"/>
      </g>
     </g>
    </g>
    <g id="xtick_6">
     <g id="line2d_41">
      <path d="M 122.202074 293.76 
L 122.202074 3.456 
" clip-path="url(#p7eb5c5c34e)" style="fill: none; stroke: #b0b0b0; stroke-width: 0.8; stroke-linecap: square"/>
     </g>
     <g id="line2d_42">
      <g>
       <use xlink:href="#m9f7b7fa282" x="122.202074" y="293.76" style="stroke: #000000; stroke-width: 0.6"/>
      </g>
     </g>
    </g>
    <g id="xtick_7">
     <g id="line2d_43">
      <path d="M 131.858963 293.76 
L 131.858963 3.456 
" clip-path="url(#p7eb5c5c34e)" style="fill: none; stroke: #b0b0b0; stroke-width: 0.8; stroke-linecap: square"/>
     </g>
     <g id="line2d_44">
      <g>
       <use xlink:href="#m9f7b7fa282" x="131.858963" y="293.76" style="stroke: #000000; stroke-width: 0.6"/>
      </g>
     </g>
    </g>
    <g id="xtick_8">
     <g id="line2d_45">
      <path d="M 139.749216 293.76 
L 139.749216 3.456 
" clip-path="url(#p7eb5c5c34e)" style="fill: none; stroke: #b0b0b0; stroke-width: 0.8; stroke-linecap: square"/>
     </g>
     <g id="line2d_46">
      <g>
       <use xlink:href="#m9f7b7fa282" x="139.749216" y="293.76" style="stroke: #000000; stroke-width: 0.6"/>
      </g>
     </g>
    </g>
    <g id="xtick_9">
     <g id="line2d_47">
      <path d="M 146.420329 293.76 
L 146.420329 3.456 
" clip-path="url(#p7eb5c5c34e)" style="fill: none; stroke: #b0b0b0; stroke-width: 0.8; stroke-linecap: square"/>
     </g>
     <g id="line2d_48">
      <g>
       <use xlink:href="#m9f7b7fa282" x="146.420329" y="293.76" style="stroke: #000000; stroke-width: 0.6"/>
      </g>
     </g>
    </g>
    <g id="xtick_10">
     <g id="line2d_49">
      <path d="M 152.199111 293.76 
L 152.199111 3.456 
" clip-path="url(#p7eb5c5c34e)" style="fill: none; stroke: #b0b0b0; stroke-width: 0.8; stroke-linecap: square"/>
     </g>
     <g id="line2d_50">
      <g>
       <use xlink:href="#m9f7b7fa282" x="152.199111" y="293.76" style="stroke: #000000; stroke-width: 0.6"/>
      </g>
     </g>
    </g>
    <g id="xtick_11">
     <g id="line2d_51">
      <path d="M 157.296358 293.76 
L 157.296358 3.456 
" clip-path="url(#p7eb5c5c34e)" style="fill: none; stroke: #b0b0b0; stroke-width: 0.8; stroke-linecap: square"/>
     </g>
     <g id="line2d_52">
      <g>
       <use xlink:href="#m9f7b7fa282" x="157.296358" y="293.76" style="stroke: #000000; stroke-width: 0.6"/>
      </g>
     </g>
    </g>
    <g id="xtick_12">
     <g id="line2d_53">
      <path d="M 191.853037 293.76 
L 191.853037 3.456 
" clip-path="url(#p7eb5c5c34e)" style="fill: none; stroke: #b0b0b0; stroke-width: 0.8; stroke-linecap: square"/>
     </g>
     <g id="line2d_54">
      <g>
       <use xlink:href="#m9f7b7fa282" x="191.853037" y="293.76" style="stroke: #000000; stroke-width: 0.6"/>
      </g>
     </g>
    </g>
    <g id="xtick_13">
     <g id="line2d_55">
      <path d="M 209.400179 293.76 
L 209.400179 3.456 
" clip-path="url(#p7eb5c5c34e)" style="fill: none; stroke: #b0b0b0; stroke-width: 0.8; stroke-linecap: square"/>
     </g>
     <g id="line2d_56">
      <g>
       <use xlink:href="#m9f7b7fa282" x="209.400179" y="293.76" style="stroke: #000000; stroke-width: 0.6"/>
      </g>
     </g>
    </g>
    <g id="xtick_14">
     <g id="line2d_57">
      <path d="M 221.850074 293.76 
L 221.850074 3.456 
" clip-path="url(#p7eb5c5c34e)" style="fill: none; stroke: #b0b0b0; stroke-width: 0.8; stroke-linecap: square"/>
     </g>
     <g id="line2d_58">
      <g>
       <use xlink:href="#m9f7b7fa282" x="221.850074" y="293.76" style="stroke: #000000; stroke-width: 0.6"/>
      </g>
     </g>
    </g>
    <g id="xtick_15">
     <g id="line2d_59">
      <path d="M 231.506963 293.76 
L 231.506963 3.456 
" clip-path="url(#p7eb5c5c34e)" style="fill: none; stroke: #b0b0b0; stroke-width: 0.8; stroke-linecap: square"/>
     </g>
     <g id="line2d_60">
      <g>
       <use xlink:href="#m9f7b7fa282" x="231.506963" y="293.76" style="stroke: #000000; stroke-width: 0.6"/>
      </g>
     </g>
    </g>
    <g id="xtick_16">
     <g id="line2d_61">
      <path d="M 239.397216 293.76 
L 239.397216 3.456 
" clip-path="url(#p7eb5c5c34e)" style="fill: none; stroke: #b0b0b0; stroke-width: 0.8; stroke-linecap: square"/>
     </g>
     <g id="line2d_62">
      <g>
       <use xlink:href="#m9f7b7fa282" x="239.397216" y="293.76" style="stroke: #000000; stroke-width: 0.6"/>
      </g>
     </g>
    </g>
    <g id="xtick_17">
     <g id="line2d_63">
      <path d="M 246.068329 293.76 
L 246.068329 3.456 
" clip-path="url(#p7eb5c5c34e)" style="fill: none; stroke: #b0b0b0; stroke-width: 0.8; stroke-linecap: square"/>
     </g>
     <g id="line2d_64">
      <g>
       <use xlink:href="#m9f7b7fa282" x="246.068329" y="293.76" style="stroke: #000000; stroke-width: 0.6"/>
      </g>
     </g>
    </g>
    <g id="xtick_18">
     <g id="line2d_65">
      <path d="M 251.847111 293.76 
L 251.847111 3.456 
" clip-path="url(#p7eb5c5c34e)" style="fill: none; stroke: #b0b0b0; stroke-width: 0.8; stroke-linecap: square"/>
     </g>
     <g id="line2d_66">
      <g>
       <use xlink:href="#m9f7b7fa282" x="251.847111" y="293.76" style="stroke: #000000; stroke-width: 0.6"/>
      </g>
     </g>
    </g>
    <g id="xtick_19">
     <g id="line2d_67">
      <path d="M 256.944358 293.76 
L 256.944358 3.456 
" clip-path="url(#p7eb5c5c34e)" style="fill: none; stroke: #b0b0b0; stroke-width: 0.8; stroke-linecap: square"/>
     </g>
     <g id="line2d_68">
      <g>
       <use xlink:href="#m9f7b7fa282" x="256.944358" y="293.76" style="stroke: #000000; stroke-width: 0.6"/>
      </g>
     </g>
    </g>
    <g id="xtick_20">
     <g id="line2d_69">
      <path d="M 291.501037 293.76 
L 291.501037 3.456 
" clip-path="url(#p7eb5c5c34e)" style="fill: none; stroke: #b0b0b0; stroke-width: 0.8; stroke-linecap: square"/>
     </g>
     <g id="line2d_70">
      <g>
       <use xlink:href="#m9f7b7fa282" x="291.501037" y="293.76" style="stroke: #000000; stroke-width: 0.6"/>
      </g>
     </g>
    </g>
    <g id="xtick_21">
     <g id="line2d_71">
      <path d="M 309.048179 293.76 
L 309.048179 3.456 
" clip-path="url(#p7eb5c5c34e)" style="fill: none; stroke: #b0b0b0; stroke-width: 0.8; stroke-linecap: square"/>
     </g>
     <g id="line2d_72">
      <g>
       <use xlink:href="#m9f7b7fa282" x="309.048179" y="293.76" style="stroke: #000000; stroke-width: 0.6"/>
      </g>
     </g>
    </g>
    <g id="xtick_22">
     <g id="line2d_73">
      <path d="M 321.498074 293.76 
L 321.498074 3.456 
" clip-path="url(#p7eb5c5c34e)" style="fill: none; stroke: #b0b0b0; stroke-width: 0.8; stroke-linecap: square"/>
     </g>
     <g id="line2d_74">
      <g>
       <use xlink:href="#m9f7b7fa282" x="321.498074" y="293.76" style="stroke: #000000; stroke-width: 0.6"/>
      </g>
     </g>
    </g>
    <g id="xtick_23">
     <g id="line2d_75">
      <path d="M 331.154963 293.76 
L 331.154963 3.456 
" clip-path="url(#p7eb5c5c34e)" style="fill: none; stroke: #b0b0b0; stroke-width: 0.8; stroke-linecap: square"/>
     </g>
     <g id="line2d_76">
      <g>
       <use xlink:href="#m9f7b7fa282" x="331.154963" y="293.76" style="stroke: #000000; stroke-width: 0.6"/>
      </g>
     </g>
    </g>
    <g id="xtick_24">
     <g id="line2d_77">
      <path d="M 339.045216 293.76 
L 339.045216 3.456 
" clip-path="url(#p7eb5c5c34e)" style="fill: none; stroke: #b0b0b0; stroke-width: 0.8; stroke-linecap: square"/>
     </g>
     <g id="line2d_78">
      <g>
       <use xlink:href="#m9f7b7fa282" x="339.045216" y="293.76" style="stroke: #000000; stroke-width: 0.6"/>
      </g>
     </g>
    </g>
    <g id="xtick_25">
     <g id="line2d_79">
      <path d="M 345.716329 293.76 
L 345.716329 3.456 
" clip-path="url(#p7eb5c5c34e)" style="fill: none; stroke: #b0b0b0; stroke-width: 0.8; stroke-linecap: square"/>
     </g>
     <g id="line2d_80">
      <g>
       <use xlink:href="#m9f7b7fa282" x="345.716329" y="293.76" style="stroke: #000000; stroke-width: 0.6"/>
      </g>
     </g>
    </g>
    <g id="xtick_26">
     <g id="line2d_81">
      <path d="M 351.495111 293.76 
L 351.495111 3.456 
" clip-path="url(#p7eb5c5c34e)" style="fill: none; stroke: #b0b0b0; stroke-width: 0.8; stroke-linecap: square"/>
     </g>
     <g id="line2d_82">
      <g>
       <use xlink:href="#m9f7b7fa282" x="351.495111" y="293.76" style="stroke: #000000; stroke-width: 0.6"/>
      </g>
     </g>
    </g>
    <g id="xtick_27">
     <g id="line2d_83">
      <path d="M 356.592358 293.76 
L 356.592358 3.456 
" clip-path="url(#p7eb5c5c34e)" style="fill: none; stroke: #b0b0b0; stroke-width: 0.8; stroke-linecap: square"/>
     </g>
     <g id="line2d_84">
      <g>
       <use xlink:href="#m9f7b7fa282" x="356.592358" y="293.76" style="stroke: #000000; stroke-width: 0.6"/>
      </g>
     </g>
    </g>
    <g id="xtick_28">
     <g id="line2d_85">
      <path d="M 391.149037 293.76 
L 391.149037 3.456 
" clip-path="url(#p7eb5c5c34e)" style="fill: none; stroke: #b0b0b0; stroke-width: 0.8; stroke-linecap: square"/>
     </g>
     <g id="line2d_86">
      <g>
       <use xlink:href="#m9f7b7fa282" x="391.149037" y="293.76" style="stroke: #000000; stroke-width: 0.6"/>
      </g>
     </g>
    </g>
    <g id="xtick_29">
     <g id="line2d_87">
      <path d="M 408.696179 293.76 
L 408.696179 3.456 
" clip-path="url(#p7eb5c5c34e)" style="fill: none; stroke: #b0b0b0; stroke-width: 0.8; stroke-linecap: square"/>
     </g>
     <g id="line2d_88">
      <g>
       <use xlink:href="#m9f7b7fa282" x="408.696179" y="293.76" style="stroke: #000000; stroke-width: 0.6"/>
      </g>
     </g>
    </g>
    <g id="xtick_30">
     <g id="line2d_89">
      <path d="M 421.146074 293.76 
L 421.146074 3.456 
" clip-path="url(#p7eb5c5c34e)" style="fill: none; stroke: #b0b0b0; stroke-width: 0.8; stroke-linecap: square"/>
     </g>
     <g id="line2d_90">
      <g>
       <use xlink:href="#m9f7b7fa282" x="421.146074" y="293.76" style="stroke: #000000; stroke-width: 0.6"/>
      </g>
     </g>
    </g>
    <g id="xtick_31">
     <g id="line2d_91">
      <path d="M 430.802963 293.76 
L 430.802963 3.456 
" clip-path="url(#p7eb5c5c34e)" style="fill: none; stroke: #b0b0b0; stroke-width: 0.8; stroke-linecap: square"/>
     </g>
     <g id="line2d_92">
      <g>
       <use xlink:href="#m9f7b7fa282" x="430.802963" y="293.76" style="stroke: #000000; stroke-width: 0.6"/>
      </g>
     </g>
    </g>
    <g id="xtick_32">
     <g id="line2d_93">
      <path d="M 438.693216 293.76 
L 438.693216 3.456 
" clip-path="url(#p7eb5c5c34e)" style="fill: none; stroke: #b0b0b0; stroke-width: 0.8; stroke-linecap: square"/>
     </g>
     <g id="line2d_94">
      <g>
       <use xlink:href="#m9f7b7fa282" x="438.693216" y="293.76" style="stroke: #000000; stroke-width: 0.6"/>
      </g>
     </g>
    </g>
    <g id="xtick_33">
     <g id="line2d_95">
      <path d="M 445.364329 293.76 
L 445.364329 3.456 
" clip-path="url(#p7eb5c5c34e)" style="fill: none; stroke: #b0b0b0; stroke-width: 0.8; stroke-linecap: square"/>
     </g>
     <g id="line2d_96">
      <g>
       <use xlink:href="#m9f7b7fa282" x="445.364329" y="293.76" style="stroke: #000000; stroke-width: 0.6"/>
      </g>
     </g>
    </g>
    <g id="xtick_34">
     <g id="line2d_97">
      <path d="M 451.143111 293.76 
L 451.143111 3.456 
" clip-path="url(#p7eb5c5c34e)" style="fill: none; stroke: #b0b0b0; stroke-width: 0.8; stroke-linecap: square"/>
     </g>
     <g id="line2d_98">
      <g>
       <use xlink:href="#m9f7b7fa282" x="451.143111" y="293.76" style="stroke: #000000; stroke-width: 0.6"/>
      </g>
     </g>
    </g>
    <g id="xtick_35">
     <g id="line2d_99">
      <path d="M 456.240358 293.76 
L 456.240358 3.456 
" clip-path="url(#p7eb5c5c34e)" style="fill: none; stroke: #b0b0b0; stroke-width: 0.8; stroke-linecap: square"/>
     </g>
     <g id="line2d_100">
      <g>
       <use xlink:href="#m9f7b7fa282" x="456.240358" y="293.76" style="stroke: #000000; stroke-width: 0.6"/>
      </g>
     </g>
    </g>
    <g id="text_4">
     <!-- log10 of FEvals / DIM -->
     <g transform="translate(156.430563 339.313125) scale(0.2 -0.2)">
      <defs>
       <path id="DejaVuSans-6c" d="M 603 4863 
L 1178 4863 
L 1178 0 
L 603 0 
L 603 4863 
z
" transform="scale(0.015625)"/>
       <path id="DejaVuSans-6f" d="M 1959 3097 
Q 1497 3097 1228 2736 
Q 959 2375 959 1747 
Q 959 1119 1226 758 
Q 1494 397 1959 397 
Q 2419 397 2687 759 
Q 2956 1122 2956 1747 
Q 2956 2369 2687 2733 
Q 2419 3097 1959 3097 
z
M 1959 3584 
Q 2709 3584 3137 3096 
Q 3566 2609 3566 1747 
Q 3566 888 3137 398 
Q 2709 -91 1959 -91 
Q 1206 -91 779 398 
Q 353 888 353 1747 
Q 353 2609 779 3096 
Q 1206 3584 1959 3584 
z
" transform="scale(0.015625)"/>
       <path id="DejaVuSans-67" d="M 2906 1791 
Q 2906 2416 2648 2759 
Q 2391 3103 1925 3103 
Q 1463 3103 1205 2759 
Q 947 2416 947 1791 
Q 947 1169 1205 825 
Q 1463 481 1925 481 
Q 2391 481 2648 825 
Q 2906 1169 2906 1791 
z
M 3481 434 
Q 3481 -459 3084 -895 
Q 2688 -1331 1869 -1331 
Q 1566 -1331 1297 -1286 
Q 1028 -1241 775 -1147 
L 775 -588 
Q 1028 -725 1275 -790 
Q 1522 -856 1778 -856 
Q 2344 -856 2625 -561 
Q 2906 -266 2906 331 
L 2906 616 
Q 2728 306 2450 153 
Q 2172 0 1784 0 
Q 1141 0 747 490 
Q 353 981 353 1791 
Q 353 2603 747 3093 
Q 1141 3584 1784 3584 
Q 2172 3584 2450 3431 
Q 2728 3278 2906 2969 
L 2906 3500 
L 3481 3500 
L 3481 434 
z
" transform="scale(0.015625)"/>
       <path id="DejaVuSans-31" d="M 794 531 
L 1825 531 
L 1825 4091 
L 703 3866 
L 703 4441 
L 1819 4666 
L 2450 4666 
L 2450 531 
L 3481 531 
L 3481 0 
L 794 0 
L 794 531 
z
" transform="scale(0.015625)"/>
       <path id="DejaVuSans-20" transform="scale(0.015625)"/>
       <path id="DejaVuSans-66" d="M 2375 4863 
L 2375 4384 
L 1825 4384 
Q 1516 4384 1395 4259 
Q 1275 4134 1275 3809 
L 1275 3500 
L 2222 3500 
L 2222 3053 
L 1275 3053 
L 1275 0 
L 697 0 
L 697 3053 
L 147 3053 
L 147 3500 
L 697 3500 
L 697 3744 
Q 697 4328 969 4595 
Q 1241 4863 1831 4863 
L 2375 4863 
z
" transform="scale(0.015625)"/>
       <path id="DejaVuSans-46" d="M 628 4666 
L 3309 4666 
L 3309 4134 
L 1259 4134 
L 1259 2759 
L 3109 2759 
L 3109 2228 
L 1259 2228 
L 1259 0 
L 628 0 
L 628 4666 
z
" transform="scale(0.015625)"/>
       <path id="DejaVuSans-45" d="M 628 4666 
L 3578 4666 
L 3578 4134 
L 1259 4134 
L 1259 2753 
L 3481 2753 
L 3481 2222 
L 1259 2222 
L 1259 531 
L 3634 531 
L 3634 0 
L 628 0 
L 628 4666 
z
" transform="scale(0.015625)"/>
       <path id="DejaVuSans-76" d="M 191 3500 
L 800 3500 
L 1894 563 
L 2988 3500 
L 3597 3500 
L 2284 0 
L 1503 0 
L 191 3500 
z
" transform="scale(0.015625)"/>
       <path id="DejaVuSans-61" d="M 2194 1759 
Q 1497 1759 1228 1600 
Q 959 1441 959 1056 
Q 959 750 1161 570 
Q 1363 391 1709 391 
Q 2188 391 2477 730 
Q 2766 1069 2766 1631 
L 2766 1759 
L 2194 1759 
z
M 3341 1997 
L 3341 0 
L 2766 0 
L 2766 531 
Q 2569 213 2275 61 
Q 1981 -91 1556 -91 
Q 1019 -91 701 211 
Q 384 513 384 1019 
Q 384 1609 779 1909 
Q 1175 2209 1959 2209 
L 2766 2209 
L 2766 2266 
Q 2766 2663 2505 2880 
Q 2244 3097 1772 3097 
Q 1472 3097 1187 3025 
Q 903 2953 641 2809 
L 641 3341 
Q 956 3463 1253 3523 
Q 1550 3584 1831 3584 
Q 2591 3584 2966 3190 
Q 3341 2797 3341 1997 
z
" transform="scale(0.015625)"/>
       <path id="DejaVuSans-73" d="M 2834 3397 
L 2834 2853 
Q 2591 2978 2328 3040 
Q 2066 3103 1784 3103 
Q 1356 3103 1142 2972 
Q 928 2841 928 2578 
Q 928 2378 1081 2264 
Q 1234 2150 1697 2047 
L 1894 2003 
Q 2506 1872 2764 1633 
Q 3022 1394 3022 966 
Q 3022 478 2636 193 
Q 2250 -91 1575 -91 
Q 1294 -91 989 -36 
Q 684 19 347 128 
L 347 722 
Q 666 556 975 473 
Q 1284 391 1588 391 
Q 1994 391 2212 530 
Q 2431 669 2431 922 
Q 2431 1156 2273 1281 
Q 2116 1406 1581 1522 
L 1381 1569 
Q 847 1681 609 1914 
Q 372 2147 372 2553 
Q 372 3047 722 3315 
Q 1072 3584 1716 3584 
Q 2034 3584 2315 3537 
Q 2597 3491 2834 3397 
z
" transform="scale(0.015625)"/>
       <path id="DejaVuSans-2f" d="M 1625 4666 
L 2156 4666 
L 531 -594 
L 0 -594 
L 1625 4666 
z
" transform="scale(0.015625)"/>
       <path id="DejaVuSans-44" d="M 1259 4147 
L 1259 519 
L 2022 519 
Q 2988 519 3436 956 
Q 3884 1394 3884 2338 
Q 3884 3275 3436 3711 
Q 2988 4147 2022 4147 
L 1259 4147 
z
M 628 4666 
L 1925 4666 
Q 3281 4666 3915 4102 
Q 4550 3538 4550 2338 
Q 4550 1131 3912 565 
Q 3275 0 1925 0 
L 628 0 
L 628 4666 
z
" transform="scale(0.015625)"/>
       <path id="DejaVuSans-49" d="M 628 4666 
L 1259 4666 
L 1259 0 
L 628 0 
L 628 4666 
z
" transform="scale(0.015625)"/>
       <path id="DejaVuSans-4d" d="M 628 4666 
L 1569 4666 
L 2759 1491 
L 3956 4666 
L 4897 4666 
L 4897 0 
L 4281 0 
L 4281 4097 
L 3078 897 
L 2444 897 
L 1241 4097 
L 1241 0 
L 628 0 
L 628 4666 
z
" transform="scale(0.015625)"/>
      </defs>
      <use xlink:href="#DejaVuSans-6c"/>
      <use xlink:href="#DejaVuSans-6f" x="27.783203"/>
      <use xlink:href="#DejaVuSans-67" x="88.964844"/>
      <use xlink:href="#DejaVuSans-31" x="152.441406"/>
      <use xlink:href="#DejaVuSans-30" x="216.064453"/>
      <use xlink:href="#DejaVuSans-20" x="279.6875"/>
      <use xlink:href="#DejaVuSans-6f" x="311.474609"/>
      <use xlink:href="#DejaVuSans-66" x="372.65625"/>
      <use xlink:href="#DejaVuSans-20" x="407.861328"/>
      <use xlink:href="#DejaVuSans-46" x="439.648438"/>
      <use xlink:href="#DejaVuSans-45" x="497.167969"/>
      <use xlink:href="#DejaVuSans-76" x="560.351562"/>
      <use xlink:href="#DejaVuSans-61" x="619.53125"/>
      <use xlink:href="#DejaVuSans-6c" x="680.810547"/>
      <use xlink:href="#DejaVuSans-73" x="708.59375"/>
      <use xlink:href="#DejaVuSans-20" x="760.693359"/>
      <use xlink:href="#DejaVuSans-2f" x="792.480469"/>
      <use xlink:href="#DejaVuSans-20" x="826.171875"/>
      <use xlink:href="#DejaVuSans-44" x="857.958984"/>
      <use xlink:href="#DejaVuSans-49" x="934.960938"/>
      <use xlink:href="#DejaVuSans-4d" x="964.453125"/>
     </g>
    </g>
   </g>
   <g id="matplotlib.axis_2">
    <g id="ytick_1">
     <g id="line2d_101">
      <path d="M 62.208 293.76 
L 460.8 293.76 
" clip-path="url(#p7eb5c5c34e)" style="fill: none; stroke: #b0b0b0; stroke-width: 0.8; stroke-linecap: square"/>
     </g>
     <g id="line2d_102">
      <defs>
       <path id="mee2afa169f" d="M 0 0 
L -3.5 0 
" style="stroke: #000000; stroke-width: 0.8"/>
      </defs>
      <g>
       <use xlink:href="#mee2afa169f" x="62.208" y="293.76" style="stroke: #000000; stroke-width: 0.8"/>
      </g>
     </g>
     <g id="text_5">
      <!-- 0.0 -->
      <g transform="translate(29.763 299.83875) scale(0.16 -0.16)">
       <defs>
        <path id="DejaVuSans-2e" d="M 684 794 
L 1344 794 
L 1344 0 
L 684 0 
L 684 794 
z
" transform="scale(0.015625)"/>
       </defs>
       <use xlink:href="#DejaVuSans-30"/>
       <use xlink:href="#DejaVuSans-2e" x="63.623047"/>
       <use xlink:href="#DejaVuSans-30" x="95.410156"/>
      </g>
     </g>
    </g>
    <g id="ytick_2">
     <g id="line2d_103">
      <path d="M 62.208 236.274059 
L 460.8 236.274059 
" clip-path="url(#p7eb5c5c34e)" style="fill: none; stroke: #b0b0b0; stroke-width: 0.8; stroke-linecap: square"/>
     </g>
     <g id="line2d_104">
      <g>
       <use xlink:href="#mee2afa169f" x="62.208" y="236.274059" style="stroke: #000000; stroke-width: 0.8"/>
      </g>
     </g>
     <g id="text_6">
      <!-- 0.2 -->
      <g transform="translate(29.763 242.352809) scale(0.16 -0.16)">
       <use xlink:href="#DejaVuSans-30"/>
       <use xlink:href="#DejaVuSans-2e" x="63.623047"/>
       <use xlink:href="#DejaVuSans-32" x="95.410156"/>
      </g>
     </g>
    </g>
    <g id="ytick_3">
     <g id="line2d_105">
      <path d="M 62.208 178.788119 
L 460.8 178.788119 
" clip-path="url(#p7eb5c5c34e)" style="fill: none; stroke: #b0b0b0; stroke-width: 0.8; stroke-linecap: square"/>
     </g>
     <g id="line2d_106">
      <g>
       <use xlink:href="#mee2afa169f" x="62.208" y="178.788119" style="stroke: #000000; stroke-width: 0.8"/>
      </g>
     </g>
     <g id="text_7">
      <!-- 0.4 -->
      <g transform="translate(29.763 184.866869) scale(0.16 -0.16)">
       <use xlink:href="#DejaVuSans-30"/>
       <use xlink:href="#DejaVuSans-2e" x="63.623047"/>
       <use xlink:href="#DejaVuSans-34" x="95.410156"/>
      </g>
     </g>
    </g>
    <g id="ytick_4">
     <g id="line2d_107">
      <path d="M 62.208 121.302178 
L 460.8 121.302178 
" clip-path="url(#p7eb5c5c34e)" style="fill: none; stroke: #b0b0b0; stroke-width: 0.8; stroke-linecap: square"/>
     </g>
     <g id="line2d_108">
      <g>
       <use xlink:href="#mee2afa169f" x="62.208" y="121.302178" style="stroke: #000000; stroke-width: 0.8"/>
      </g>
     </g>
     <g id="text_8">
      <!-- 0.6 -->
      <g transform="translate(29.763 127.380928) scale(0.16 -0.16)">
       <defs>
        <path id="DejaVuSans-36" d="M 2113 2584 
Q 1688 2584 1439 2293 
Q 1191 2003 1191 1497 
Q 1191 994 1439 701 
Q 1688 409 2113 409 
Q 2538 409 2786 701 
Q 3034 994 3034 1497 
Q 3034 2003 2786 2293 
Q 2538 2584 2113 2584 
z
M 3366 4563 
L 3366 3988 
Q 3128 4100 2886 4159 
Q 2644 4219 2406 4219 
Q 1781 4219 1451 3797 
Q 1122 3375 1075 2522 
Q 1259 2794 1537 2939 
Q 1816 3084 2150 3084 
Q 2853 3084 3261 2657 
Q 3669 2231 3669 1497 
Q 3669 778 3244 343 
Q 2819 -91 2113 -91 
Q 1303 -91 875 529 
Q 447 1150 447 2328 
Q 447 3434 972 4092 
Q 1497 4750 2381 4750 
Q 2619 4750 2861 4703 
Q 3103 4656 3366 4563 
z
" transform="scale(0.015625)"/>
       </defs>
       <use xlink:href="#DejaVuSans-30"/>
       <use xlink:href="#DejaVuSans-2e" x="63.623047"/>
       <use xlink:href="#DejaVuSans-36" x="95.410156"/>
      </g>
     </g>
    </g>
    <g id="ytick_5">
     <g id="line2d_109">
      <path d="M 62.208 63.816238 
L 460.8 63.816238 
" clip-path="url(#p7eb5c5c34e)" style="fill: none; stroke: #b0b0b0; stroke-width: 0.8; stroke-linecap: square"/>
     </g>
     <g id="line2d_110">
      <g>
       <use xlink:href="#mee2afa169f" x="62.208" y="63.816238" style="stroke: #000000; stroke-width: 0.8"/>
      </g>
     </g>
     <g id="text_9">
      <!-- 0.8 -->
      <g transform="translate(29.763 69.894988) scale(0.16 -0.16)">
       <defs>
        <path id="DejaVuSans-38" d="M 2034 2216 
Q 1584 2216 1326 1975 
Q 1069 1734 1069 1313 
Q 1069 891 1326 650 
Q 1584 409 2034 409 
Q 2484 409 2743 651 
Q 3003 894 3003 1313 
Q 3003 1734 2745 1975 
Q 2488 2216 2034 2216 
z
M 1403 2484 
Q 997 2584 770 2862 
Q 544 3141 544 3541 
Q 544 4100 942 4425 
Q 1341 4750 2034 4750 
Q 2731 4750 3128 4425 
Q 3525 4100 3525 3541 
Q 3525 3141 3298 2862 
Q 3072 2584 2669 2484 
Q 3125 2378 3379 2068 
Q 3634 1759 3634 1313 
Q 3634 634 3220 271 
Q 2806 -91 2034 -91 
Q 1263 -91 848 271 
Q 434 634 434 1313 
Q 434 1759 690 2068 
Q 947 2378 1403 2484 
z
M 1172 3481 
Q 1172 3119 1398 2916 
Q 1625 2713 2034 2713 
Q 2441 2713 2670 2916 
Q 2900 3119 2900 3481 
Q 2900 3844 2670 4047 
Q 2441 4250 2034 4250 
Q 1625 4250 1398 4047 
Q 1172 3844 1172 3481 
z
" transform="scale(0.015625)"/>
       </defs>
       <use xlink:href="#DejaVuSans-30"/>
       <use xlink:href="#DejaVuSans-2e" x="63.623047"/>
       <use xlink:href="#DejaVuSans-38" x="95.410156"/>
      </g>
     </g>
    </g>
    <g id="ytick_6">
     <g id="line2d_111">
      <path d="M 62.208 6.330297 
L 460.8 6.330297 
" clip-path="url(#p7eb5c5c34e)" style="fill: none; stroke: #b0b0b0; stroke-width: 0.8; stroke-linecap: square"/>
     </g>
     <g id="line2d_112">
      <g>
       <use xlink:href="#mee2afa169f" x="62.208" y="6.330297" style="stroke: #000000; stroke-width: 0.8"/>
      </g>
     </g>
     <g id="text_10">
      <!-- 1.0 -->
      <g transform="translate(29.763 12.409047) scale(0.16 -0.16)">
       <use xlink:href="#DejaVuSans-31"/>
       <use xlink:href="#DejaVuSans-2e" x="63.623047"/>
       <use xlink:href="#DejaVuSans-30" x="95.410156"/>
      </g>
     </g>
    </g>
    <g id="text_11">
     <!-- proportion of trials -->
     <g transform="translate(21.603625 241.61425) rotate(-90) scale(0.2 -0.2)">
      <defs>
       <path id="DejaVuSans-70" d="M 1159 525 
L 1159 -1331 
L 581 -1331 
L 581 3500 
L 1159 3500 
L 1159 2969 
Q 1341 3281 1617 3432 
Q 1894 3584 2278 3584 
Q 2916 3584 3314 3078 
Q 3713 2572 3713 1747 
Q 3713 922 3314 415 
Q 2916 -91 2278 -91 
Q 1894 -91 1617 61 
Q 1341 213 1159 525 
z
M 3116 1747 
Q 3116 2381 2855 2742 
Q 2594 3103 2138 3103 
Q 1681 3103 1420 2742 
Q 1159 2381 1159 1747 
Q 1159 1113 1420 752 
Q 1681 391 2138 391 
Q 2594 391 2855 752 
Q 3116 1113 3116 1747 
z
" transform="scale(0.015625)"/>
       <path id="DejaVuSans-72" d="M 2631 2963 
Q 2534 3019 2420 3045 
Q 2306 3072 2169 3072 
Q 1681 3072 1420 2755 
Q 1159 2438 1159 1844 
L 1159 0 
L 581 0 
L 581 3500 
L 1159 3500 
L 1159 2956 
Q 1341 3275 1631 3429 
Q 1922 3584 2338 3584 
Q 2397 3584 2469 3576 
Q 2541 3569 2628 3553 
L 2631 2963 
z
" transform="scale(0.015625)"/>
       <path id="DejaVuSans-74" d="M 1172 4494 
L 1172 3500 
L 2356 3500 
L 2356 3053 
L 1172 3053 
L 1172 1153 
Q 1172 725 1289 603 
Q 1406 481 1766 481 
L 2356 481 
L 2356 0 
L 1766 0 
Q 1100 0 847 248 
Q 594 497 594 1153 
L 594 3053 
L 172 3053 
L 172 3500 
L 594 3500 
L 594 4494 
L 1172 4494 
z
" transform="scale(0.015625)"/>
       <path id="DejaVuSans-69" d="M 603 3500 
L 1178 3500 
L 1178 0 
L 603 0 
L 603 3500 
z
M 603 4863 
L 1178 4863 
L 1178 4134 
L 603 4134 
L 603 4863 
z
" transform="scale(0.015625)"/>
       <path id="DejaVuSans-6e" d="M 3513 2113 
L 3513 0 
L 2938 0 
L 2938 2094 
Q 2938 2591 2744 2837 
Q 2550 3084 2163 3084 
Q 1697 3084 1428 2787 
Q 1159 2491 1159 1978 
L 1159 0 
L 581 0 
L 581 3500 
L 1159 3500 
L 1159 2956 
Q 1366 3272 1645 3428 
Q 1925 3584 2291 3584 
Q 2894 3584 3203 3211 
Q 3513 2838 3513 2113 
z
" transform="scale(0.015625)"/>
      </defs>
      <use xlink:href="#DejaVuSans-70"/>
      <use xlink:href="#DejaVuSans-72" x="63.476562"/>
      <use xlink:href="#DejaVuSans-6f" x="102.339844"/>
      <use xlink:href="#DejaVuSans-70" x="163.521484"/>
      <use xlink:href="#DejaVuSans-6f" x="226.998047"/>
      <use xlink:href="#DejaVuSans-72" x="288.179688"/>
      <use xlink:href="#DejaVuSans-74" x="329.292969"/>
      <use xlink:href="#DejaVuSans-69" x="368.501953"/>
      <use xlink:href="#DejaVuSans-6f" x="396.285156"/>
      <use xlink:href="#DejaVuSans-6e" x="457.466797"/>
      <use xlink:href="#DejaVuSans-20" x="520.845703"/>
      <use xlink:href="#DejaVuSans-6f" x="552.632812"/>
      <use xlink:href="#DejaVuSans-66" x="613.814453"/>
      <use xlink:href="#DejaVuSans-20" x="649.019531"/>
      <use xlink:href="#DejaVuSans-74" x="680.806641"/>
      <use xlink:href="#DejaVuSans-72" x="720.015625"/>
      <use xlink:href="#DejaVuSans-69" x="761.128906"/>
      <use xlink:href="#DejaVuSans-61" x="788.912109"/>
      <use xlink:href="#DejaVuSans-6c" x="850.191406"/>
      <use xlink:href="#DejaVuSans-73" x="877.974609"/>
     </g>
    </g>
   </g>
   <g id="line2d_113">
    <path d="M 105.192536 293.76 
L 105.192536 289.927604 
L 127.299321 289.927604 
L 127.299321 286.095208 
L 171.165284 286.095208 
L 171.165284 282.262812 
L 181.377009 282.262812 
L 181.377009 278.430416 
L 186.074255 278.430416 
L 186.074255 274.59802 
L 198.647622 274.59802 
L 198.647622 270.765624 
L 202.87308 270.765624 
L 202.87308 266.933228 
L 206.104176 266.933228 
L 206.104176 263.100832 
L 208.378425 263.100832 
L 208.378425 259.268436 
L 211.785553 259.268436 
L 211.785553 255.43604 
L 213.524877 255.43604 
L 213.524877 251.603644 
L 215.698752 251.603644 
L 215.698752 247.771248 
L 217.410478 247.771248 
L 217.410478 243.938851 
L 218.592971 243.938851 
L 218.592971 240.106455 
L 221.41513 240.106455 
L 221.41513 236.274059 
L 222.707064 236.274059 
L 222.707064 232.441663 
L 223.858383 232.441663 
L 223.858383 228.609267 
L 226.851043 228.609267 
L 226.851043 224.776871 
L 228.921187 224.776871 
L 228.921187 220.944475 
L 229.19596 220.944475 
L 229.19596 217.112079 
L 230.188793 217.112079 
L 230.188793 213.279683 
L 231.072019 213.279683 
L 231.072019 209.447287 
L 231.59343 209.447287 
L 231.59343 205.614891 
L 233.204301 205.614891 
L 233.204301 201.782495 
L 234.596478 201.782495 
L 234.596478 197.950099 
L 236.872652 197.950099 
L 236.872652 194.117703 
L 236.949045 194.117703 
L 236.949045 190.285307 
L 240.816247 190.285307 
L 240.816247 186.452911 
L 242.32525 186.452911 
L 242.32525 182.620515 
L 243.060469 182.620515 
L 243.060469 178.788119 
L 244.043325 178.788119 
L 244.043325 174.955723 
L 245.004354 174.955723 
L 245.004354 171.123327 
L 245.194025 171.123327 
L 245.194025 167.290931 
L 245.320013 167.290931 
L 245.320013 163.458535 
L 251.792981 163.458535 
L 251.792981 159.626139 
L 256.314693 159.626139 
L 256.314693 155.793743 
L 258.872259 155.793743 
L 258.872259 151.961347 
L 261.199999 151.961347 
L 261.199999 148.12895 
L 263.574236 148.12895 
L 263.574236 144.296554 
L 267.060419 144.296554 
L 267.060419 140.464158 
L 268.483133 140.464158 
L 268.483133 136.631762 
L 269.681806 136.631762 
L 269.681806 132.799366 
L 271.983923 132.799366 
L 271.983923 128.96697 
L 276.861702 128.96697 
L 276.861702 125.134574 
L 279.310025 125.134574 
L 279.310025 121.302178 
L 282.059992 121.302178 
L 282.059992 117.469782 
L 283.852457 117.469782 
L 283.852457 113.637386 
L 284.518658 113.637386 
L 284.518658 109.80499 
L 285.91964 109.80499 
L 285.91964 105.972594 
L 288.19725 105.972594 
L 288.19725 102.140198 
L 288.430171 102.140198 
L 288.430171 98.307802 
L 292.506271 98.307802 
L 292.506271 94.475406 
L 309.86272 94.475406 
L 309.86272 90.64301 
L 310.800964 90.64301 
L 310.800964 86.810614 
L 315.483723 86.810614 
L 315.483723 82.978218 
L 317.476036 82.978218 
L 317.476036 79.145822 
L 330.351257 79.145822 
L 330.351257 75.313426 
L 434.204841 75.313426 
L 434.204841 71.48103 
L 437.473087 71.48103 
L 437.473087 67.648634 
L 459.785926 67.648634 
L 459.785926 63.816238 
L 459.785926 63.816238 
L 459.785926 63.816238 
L 460.8 63.816238 
" clip-path="url(#p7eb5c5c34e)" style="fill: none; stroke: #000000; stroke-width: 1.5; stroke-linecap: square"/>
   </g>
   <g id="line2d_114">
    <path clip-path="url(#p7eb5c5c34e)" style="fill: none; stroke: #000000; stroke-width: 1.5; stroke-linecap: square"/>
   </g>
   <g id="line2d_115">
    <path d="M 286.262913 293.76 
L 286.262913 289.927604 
L 294.368361 289.927604 
L 294.368361 286.095208 
L 294.408844 286.095208 
L 294.408844 282.262812 
L 299.535305 282.262812 
L 299.535305 278.430416 
L 305.030098 278.430416 
L 305.030098 274.59802 
L 305.392643 274.59802 
L 305.392643 270.765624 
L 306.889077 270.765624 
L 306.889077 266.933228 
L 307.715134 266.933228 
L 307.715134 263.100832 
L 310.004054 263.100832 
L 310.004054 259.268436 
L 310.787109 259.268436 
L 310.787109 255.43604 
L 312.856988 255.43604 
L 312.856988 251.603644 
L 312.909797 251.603644 
L 312.909797 247.771248 
L 313.067837 247.771248 
L 313.067837 243.938851 
L 313.238398 243.938851 
L 313.238398 240.106455 
L 316.878283 240.106455 
L 316.878283 236.274059 
L 317.214041 236.274059 
L 317.214041 232.441663 
L 317.487907 232.441663 
L 317.487907 228.609267 
L 317.523501 228.609267 
L 317.523501 224.776871 
L 320.335775 224.776871 
L 320.335775 220.944475 
L 324.324877 220.944475 
L 324.324877 217.112079 
L 325.038547 217.112079 
L 325.038547 213.279683 
L 325.128177 213.279683 
L 325.128177 209.447287 
L 325.936372 209.447287 
L 325.936372 205.614891 
L 327.187505 205.614891 
L 327.187505 201.782495 
L 327.26333 201.782495 
L 327.26333 197.950099 
L 327.490008 197.950099 
L 327.490008 194.117703 
L 329.774287 194.117703 
L 329.774287 190.285307 
L 331.585579 190.285307 
L 331.585579 186.452911 
L 334.123424 186.452911 
L 334.123424 182.620515 
L 338.295851 182.620515 
L 338.295851 178.788119 
L 339.397206 178.788119 
L 339.397206 174.955723 
L 341.763776 174.955723 
L 341.763776 171.123327 
L 343.320464 171.123327 
L 343.320464 167.290931 
L 343.509545 167.290931 
L 343.509545 163.458535 
L 345.710147 163.458535 
L 345.710147 159.626139 
L 345.926021 159.626139 
L 345.926021 155.793743 
L 347.698071 155.793743 
L 347.698071 151.961347 
L 358.478848 151.961347 
L 358.478848 148.12895 
L 360.069646 148.12895 
L 360.069646 144.296554 
L 412.915196 144.296554 
L 412.915196 140.464158 
L 460.78918 140.464158 
L 460.78918 136.631762 
L 460.78918 136.631762 
L 460.78918 136.631762 
L 460.8 136.631762 
" clip-path="url(#p7eb5c5c34e)" style="fill: none; stroke: #00bfbf; stroke-width: 1.5; stroke-linecap: square"/>
   </g>
   <g id="line2d_116">
    <path clip-path="url(#p7eb5c5c34e)" style="fill: none; stroke: #00bfbf; stroke-width: 1.5; stroke-linecap: square"/>
   </g>
   <g id="line2d_117">
    <path d="M 316.926409 293.76 
L 316.926409 289.927604 
L 318.369095 289.927604 
L 318.369095 286.095208 
L 320.413501 286.095208 
L 320.413501 282.262812 
L 320.964662 282.262812 
L 320.964662 278.430416 
L 321.917977 278.430416 
L 321.917977 274.59802 
L 325.31679 274.59802 
L 325.31679 270.765624 
L 325.573566 270.765624 
L 325.573566 266.933228 
L 328.051563 266.933228 
L 328.051563 263.100832 
L 330.65002 263.100832 
L 330.65002 259.268436 
L 336.175205 259.268436 
L 336.175205 255.43604 
L 336.703769 255.43604 
L 336.703769 251.603644 
L 340.936309 251.603644 
L 340.936309 247.771248 
L 341.44424 247.771248 
L 341.44424 243.938851 
L 342.529159 243.938851 
L 342.529159 240.106455 
L 346.58544 240.106455 
L 346.58544 236.274059 
L 350.471511 236.274059 
L 350.471511 232.441663 
L 352.705985 232.441663 
L 352.705985 228.609267 
L 353.498255 228.609267 
L 353.498255 224.776871 
L 355.481892 224.776871 
L 355.481892 220.944475 
L 356.259292 220.944475 
L 356.259292 217.112079 
L 358.584597 217.112079 
L 358.584597 213.279683 
L 361.004609 213.279683 
L 361.004609 209.447287 
L 362.728495 209.447287 
L 362.728495 205.614891 
L 368.086913 205.614891 
L 368.086913 201.782495 
L 368.632801 201.782495 
L 368.632801 197.950099 
L 369.211422 197.950099 
L 369.211422 194.117703 
L 370.572822 194.117703 
L 370.572822 190.285307 
L 370.607618 190.285307 
L 370.607618 186.452911 
L 370.760392 186.452911 
L 370.760392 182.620515 
L 372.419587 182.620515 
L 372.419587 178.788119 
L 372.678988 178.788119 
L 372.678988 174.955723 
L 373.565094 174.955723 
L 373.565094 171.123327 
L 376.77293 171.123327 
L 376.77293 167.290931 
L 377.810115 167.290931 
L 377.810115 163.458535 
L 378.039217 163.458535 
L 378.039217 159.626139 
L 381.35941 159.626139 
L 381.35941 155.793743 
L 386.406284 155.793743 
L 386.406284 151.961347 
L 459.594559 151.961347 
L 459.594559 148.12895 
L 459.594559 148.12895 
L 459.594559 148.12895 
L 460.8 148.12895 
" clip-path="url(#p7eb5c5c34e)" style="fill: none; stroke: #bf00bf; stroke-width: 1.5; stroke-linecap: square"/>
   </g>
   <g id="line2d_118">
    <path clip-path="url(#p7eb5c5c34e)" style="fill: none; stroke: #bf00bf; stroke-width: 1.5; stroke-linecap: square"/>
   </g>
   <g id="line2d_119">
    <path d="M 333.324098 293.76 
L 333.324098 289.927604 
L 333.439195 289.927604 
L 333.439195 286.095208 
L 334.613611 286.095208 
L 334.613611 282.262812 
L 335.444584 282.262812 
L 335.444584 278.430416 
L 338.001301 278.430416 
L 338.001301 274.59802 
L 338.281171 274.59802 
L 338.281171 270.765624 
L 338.42043 270.765624 
L 338.42043 266.933228 
L 342.952988 266.933228 
L 342.952988 263.100832 
L 343.891695 263.100832 
L 343.891695 259.268436 
L 344.193723 259.268436 
L 344.193723 255.43604 
L 344.898765 255.43604 
L 344.898765 251.603644 
L 345.337552 251.603644 
L 345.337552 247.771248 
L 348.505472 247.771248 
L 348.505472 243.938851 
L 349.936468 243.938851 
L 349.936468 240.106455 
L 355.678783 240.106455 
L 355.678783 236.274059 
L 361.945301 236.274059 
L 361.945301 232.441663 
L 362.4228 232.441663 
L 362.4228 228.609267 
L 363.209858 228.609267 
L 363.209858 224.776871 
L 365.8007 224.776871 
L 365.8007 220.944475 
L 366.441161 220.944475 
L 366.441161 217.112079 
L 367.556452 217.112079 
L 367.556452 213.279683 
L 370.468264 213.279683 
L 370.468264 209.447287 
L 374.142705 209.447287 
L 374.142705 205.614891 
L 374.731684 205.614891 
L 374.731684 201.782495 
L 376.042866 201.782495 
L 376.042866 197.950099 
L 376.67025 197.950099 
L 376.67025 194.117703 
L 379.374726 194.117703 
L 379.374726 190.285307 
L 380.639918 190.285307 
L 380.639918 186.452911 
L 381.794029 186.452911 
L 381.794029 182.620515 
L 383.721953 182.620515 
L 383.721953 178.788119 
L 384.750069 178.788119 
L 384.750069 174.955723 
L 384.882823 174.955723 
L 384.882823 171.123327 
L 386.086398 171.123327 
L 386.086398 167.290931 
L 387.119874 167.290931 
L 387.119874 163.458535 
L 387.143618 163.458535 
L 387.143618 159.626139 
L 387.233723 159.626139 
L 387.233723 155.793743 
L 392.160613 155.793743 
L 392.160613 151.961347 
L 392.160613 151.961347 
L 392.160613 151.961347 
L 460.8 151.961347 
" clip-path="url(#p7eb5c5c34e)" style="fill: none; stroke: #ff0000; stroke-width: 3; stroke-linecap: square"/>
   </g>
   <g id="line2d_120">
    <path clip-path="url(#p7eb5c5c34e)" style="fill: none; stroke: #ff0000; stroke-width: 3; stroke-linecap: square"/>
   </g>
   <g id="line2d_121">
    <path d="M 460.8 293.76 
L 460.8 3.456 
" clip-path="url(#p7eb5c5c34e)" style="fill: none; stroke: #000000; stroke-width: 1.5; stroke-linecap: square"/>
   </g>
   <g id="patch_3">
    <path d="M 62.208 293.76 
L 62.208 3.456 
" style="fill: none; stroke: #000000; stroke-width: 0.8; stroke-linejoin: miter; stroke-linecap: square"/>
   </g>
   <g id="patch_4">
    <path d="M 460.8 293.76 
L 460.8 3.456 
" style="fill: none; stroke: #000000; stroke-width: 0.8; stroke-linejoin: miter; stroke-linecap: square"/>
   </g>
   <g id="patch_5">
    <path d="M 62.208 293.76 
L 460.8 293.76 
" style="fill: none; stroke: #000000; stroke-width: 0.8; stroke-linejoin: miter; stroke-linecap: square"/>
   </g>
   <g id="patch_6">
    <path d="M 62.208 3.456 
L 460.8 3.456 
" style="fill: none; stroke: #000000; stroke-width: 0.8; stroke-linejoin: miter; stroke-linecap: square"/>
   </g>
   <g id="text_12">
    <!-- {f20-f24}, 10-D -->
    <g transform="translate(182.2915 24.458955) scale(0.2 -0.2)">
     <defs>
      <path id="DejaVuSans-7b" d="M 3272 -594 
L 3272 -1044 
L 3078 -1044 
Q 2300 -1044 2036 -812 
Q 1772 -581 1772 109 
L 1772 856 
Q 1772 1328 1603 1509 
Q 1434 1691 991 1691 
L 800 1691 
L 800 2138 
L 991 2138 
Q 1438 2138 1605 2317 
Q 1772 2497 1772 2963 
L 1772 3713 
Q 1772 4403 2036 4633 
Q 2300 4863 3078 4863 
L 3272 4863 
L 3272 4416 
L 3059 4416 
Q 2619 4416 2484 4278 
Q 2350 4141 2350 3700 
L 2350 2925 
Q 2350 2434 2208 2212 
Q 2066 1991 1722 1913 
Q 2069 1828 2209 1606 
Q 2350 1384 2350 897 
L 2350 122 
Q 2350 -319 2484 -456 
Q 2619 -594 3059 -594 
L 3272 -594 
z
" transform="scale(0.015625)"/>
      <path id="DejaVuSans-2d" d="M 313 2009 
L 1997 2009 
L 1997 1497 
L 313 1497 
L 313 2009 
z
" transform="scale(0.015625)"/>
      <path id="DejaVuSans-7d" d="M 800 -594 
L 1019 -594 
Q 1456 -594 1589 -459 
Q 1722 -325 1722 122 
L 1722 897 
Q 1722 1384 1862 1606 
Q 2003 1828 2350 1913 
Q 2003 1991 1862 2212 
Q 1722 2434 1722 2925 
L 1722 3700 
Q 1722 4144 1589 4280 
Q 1456 4416 1019 4416 
L 800 4416 
L 800 4863 
L 997 4863 
Q 1775 4863 2036 4633 
Q 2297 4403 2297 3713 
L 2297 2963 
Q 2297 2497 2465 2317 
Q 2634 2138 3078 2138 
L 3272 2138 
L 3272 1691 
L 3078 1691 
Q 2634 1691 2465 1509 
Q 2297 1328 2297 856 
L 2297 109 
Q 2297 -581 2036 -812 
Q 1775 -1044 997 -1044 
L 800 -1044 
L 800 -594 
z
" transform="scale(0.015625)"/>
      <path id="DejaVuSans-2c" d="M 750 794 
L 1409 794 
L 1409 256 
L 897 -744 
L 494 -744 
L 750 256 
L 750 794 
z
" transform="scale(0.015625)"/>
     </defs>
     <use xlink:href="#DejaVuSans-7b"/>
     <use xlink:href="#DejaVuSans-66" x="63.623047"/>
     <use xlink:href="#DejaVuSans-32" x="98.828125"/>
     <use xlink:href="#DejaVuSans-30" x="162.451172"/>
     <use xlink:href="#DejaVuSans-2d" x="226.074219"/>
     <use xlink:href="#DejaVuSans-66" x="262.158203"/>
     <use xlink:href="#DejaVuSans-32" x="297.363281"/>
     <use xlink:href="#DejaVuSans-34" x="360.986328"/>
     <use xlink:href="#DejaVuSans-7d" x="424.609375"/>
     <use xlink:href="#DejaVuSans-2c" x="488.232422"/>
     <use xlink:href="#DejaVuSans-20" x="520.019531"/>
     <use xlink:href="#DejaVuSans-31" x="551.806641"/>
     <use xlink:href="#DejaVuSans-30" x="615.429688"/>
     <use xlink:href="#DejaVuSans-2d" x="679.052734"/>
     <use xlink:href="#DejaVuSans-44" x="715.136719"/>
    </g>
   </g>
   <g id="text_13">
    <!-- absolute targets -->
    <g transform="translate(62.208 607.058376) scale(0.14 -0.14)">
     <defs>
      <path id="DejaVuSans-62" d="M 3116 1747 
Q 3116 2381 2855 2742 
Q 2594 3103 2138 3103 
Q 1681 3103 1420 2742 
Q 1159 2381 1159 1747 
Q 1159 1113 1420 752 
Q 1681 391 2138 391 
Q 2594 391 2855 752 
Q 3116 1113 3116 1747 
z
M 1159 2969 
Q 1341 3281 1617 3432 
Q 1894 3584 2278 3584 
Q 2916 3584 3314 3078 
Q 3713 2572 3713 1747 
Q 3713 922 3314 415 
Q 2916 -91 2278 -91 
Q 1894 -91 1617 61 
Q 1341 213 1159 525 
L 1159 0 
L 581 0 
L 581 4863 
L 1159 4863 
L 1159 2969 
z
" transform="scale(0.015625)"/>
      <path id="DejaVuSans-75" d="M 544 1381 
L 544 3500 
L 1119 3500 
L 1119 1403 
Q 1119 906 1312 657 
Q 1506 409 1894 409 
Q 2359 409 2629 706 
Q 2900 1003 2900 1516 
L 2900 3500 
L 3475 3500 
L 3475 0 
L 2900 0 
L 2900 538 
Q 2691 219 2414 64 
Q 2138 -91 1772 -91 
Q 1169 -91 856 284 
Q 544 659 544 1381 
z
M 1991 3584 
L 1991 3584 
z
" transform="scale(0.015625)"/>
      <path id="DejaVuSans-65" d="M 3597 1894 
L 3597 1613 
L 953 1613 
Q 991 1019 1311 708 
Q 1631 397 2203 397 
Q 2534 397 2845 478 
Q 3156 559 3463 722 
L 3463 178 
Q 3153 47 2828 -22 
Q 2503 -91 2169 -91 
Q 1331 -91 842 396 
Q 353 884 353 1716 
Q 353 2575 817 3079 
Q 1281 3584 2069 3584 
Q 2775 3584 3186 3129 
Q 3597 2675 3597 1894 
z
M 3022 2063 
Q 3016 2534 2758 2815 
Q 2500 3097 2075 3097 
Q 1594 3097 1305 2825 
Q 1016 2553 972 2059 
L 3022 2063 
z
" transform="scale(0.015625)"/>
     </defs>
     <use xlink:href="#DejaVuSans-61"/>
     <use xlink:href="#DejaVuSans-62" x="61.279297"/>
     <use xlink:href="#DejaVuSans-73" x="124.755859"/>
     <use xlink:href="#DejaVuSans-6f" x="176.855469"/>
     <use xlink:href="#DejaVuSans-6c" x="238.037109"/>
     <use xlink:href="#DejaVuSans-75" x="265.820312"/>
     <use xlink:href="#DejaVuSans-74" x="329.199219"/>
     <use xlink:href="#DejaVuSans-65" x="368.408203"/>
     <use xlink:href="#DejaVuSans-20" x="429.931641"/>
     <use xlink:href="#DejaVuSans-74" x="461.71875"/>
     <use xlink:href="#DejaVuSans-61" x="500.927734"/>
     <use xlink:href="#DejaVuSans-72" x="562.207031"/>
     <use xlink:href="#DejaVuSans-67" x="601.570312"/>
     <use xlink:href="#DejaVuSans-65" x="665.046875"/>
     <use xlink:href="#DejaVuSans-74" x="726.570312"/>
     <use xlink:href="#DejaVuSans-73" x="765.779297"/>
    </g>
   </g>
   <g id="text_14">
    <!-- v2.6.4 -->
    <g style="fill: #808080" transform="translate(245.82275 288.777272) scale(0.1 -0.1)">
     <use xlink:href="#DejaVuSans-76"/>
     <use xlink:href="#DejaVuSans-32" x="59.179688"/>
     <use xlink:href="#DejaVuSans-2e" x="122.802734"/>
     <use xlink:href="#DejaVuSans-36" x="154.589844"/>
     <use xlink:href="#DejaVuSans-2e" x="218.212891"/>
     <use xlink:href="#DejaVuSans-34" x="250"/>
    </g>
   </g>
   <g id="legend_1">
    <g id="patch_7">
     <path d="M 76.208 210.3205 
L 205.429875 210.3205 
Q 209.429875 210.3205 209.429875 206.3205 
L 209.429875 90.8955 
Q 209.429875 86.8955 205.429875 86.8955 
L 76.208 86.8955 
Q 72.208 86.8955 72.208 90.8955 
L 72.208 206.3205 
Q 72.208 210.3205 76.208 210.3205 
z
" style="fill: #ffffff; opacity: 0.2; stroke: #cccccc; stroke-linejoin: miter"/>
    </g>
    <g id="line2d_122">
     <path d="M 80.208 103.092375 
L 80.208 103.092375 
L 100.208 103.092375 
L 100.208 103.092375 
L 120.208 103.092375 
" style="fill: none; stroke: #000000; stroke-width: 1.5; stroke-linecap: square"/>
    </g>
    <g id="text_15">
     <!-- 1: 5/5 -->
     <g transform="translate(136.208 110.092375) scale(0.2 -0.2)">
      <defs>
       <path id="DejaVuSans-3a" d="M 750 794 
L 1409 794 
L 1409 0 
L 750 0 
L 750 794 
z
M 750 3309 
L 1409 3309 
L 1409 2516 
L 750 2516 
L 750 3309 
z
" transform="scale(0.015625)"/>
       <path id="DejaVuSans-35" d="M 691 4666 
L 3169 4666 
L 3169 4134 
L 1269 4134 
L 1269 2991 
Q 1406 3038 1543 3061 
Q 1681 3084 1819 3084 
Q 2600 3084 3056 2656 
Q 3513 2228 3513 1497 
Q 3513 744 3044 326 
Q 2575 -91 1722 -91 
Q 1428 -91 1123 -41 
Q 819 9 494 109 
L 494 744 
Q 775 591 1075 516 
Q 1375 441 1709 441 
Q 2250 441 2565 725 
Q 2881 1009 2881 1497 
Q 2881 1984 2565 2268 
Q 2250 2553 1709 2553 
Q 1456 2553 1204 2497 
Q 953 2441 691 2322 
L 691 4666 
z
" transform="scale(0.015625)"/>
      </defs>
      <use xlink:href="#DejaVuSans-31"/>
      <use xlink:href="#DejaVuSans-3a" x="63.623047"/>
      <use xlink:href="#DejaVuSans-20" x="97.314453"/>
      <use xlink:href="#DejaVuSans-35" x="129.101562"/>
      <use xlink:href="#DejaVuSans-2f" x="192.724609"/>
      <use xlink:href="#DejaVuSans-35" x="226.416016"/>
     </g>
    </g>
    <g id="line2d_123">
     <path d="M 80.208 132.448625 
L 80.208 132.448625 
L 100.208 132.448625 
L 100.208 132.448625 
L 120.208 132.448625 
" style="fill: none; stroke: #00bfbf; stroke-width: 1.5; stroke-linecap: square"/>
    </g>
    <g id="text_16">
     <!-- -1: 4/5 -->
     <g transform="translate(136.208 139.448625) scale(0.2 -0.2)">
      <use xlink:href="#DejaVuSans-2d"/>
      <use xlink:href="#DejaVuSans-31" x="36.083984"/>
      <use xlink:href="#DejaVuSans-3a" x="99.707031"/>
      <use xlink:href="#DejaVuSans-20" x="133.398438"/>
      <use xlink:href="#DejaVuSans-34" x="165.185547"/>
      <use xlink:href="#DejaVuSans-2f" x="228.808594"/>
      <use xlink:href="#DejaVuSans-35" x="262.5"/>
     </g>
    </g>
    <g id="line2d_124">
     <path d="M 80.208 161.804875 
L 80.208 161.804875 
L 100.208 161.804875 
L 100.208 161.804875 
L 120.208 161.804875 
" style="fill: none; stroke: #bf00bf; stroke-width: 1.5; stroke-linecap: square"/>
    </g>
    <g id="text_17">
     <!-- -4: 4/5 -->
     <g transform="translate(136.208 168.804875) scale(0.2 -0.2)">
      <use xlink:href="#DejaVuSans-2d"/>
      <use xlink:href="#DejaVuSans-34" x="36.083984"/>
      <use xlink:href="#DejaVuSans-3a" x="99.707031"/>
      <use xlink:href="#DejaVuSans-20" x="133.398438"/>
      <use xlink:href="#DejaVuSans-34" x="165.185547"/>
      <use xlink:href="#DejaVuSans-2f" x="228.808594"/>
      <use xlink:href="#DejaVuSans-35" x="262.5"/>
     </g>
    </g>
    <g id="line2d_125">
     <path d="M 80.208 191.161125 
L 80.208 191.161125 
L 100.208 191.161125 
L 100.208 191.161125 
L 120.208 191.161125 
" style="fill: none; stroke: #ff0000; stroke-width: 3; stroke-linecap: square"/>
    </g>
    <g id="text_18">
     <!-- -8: 3/5 -->
     <g transform="translate(136.208 198.161125) scale(0.2 -0.2)">
      <defs>
       <path id="DejaVuSans-33" d="M 2597 2516 
Q 3050 2419 3304 2112 
Q 3559 1806 3559 1356 
Q 3559 666 3084 287 
Q 2609 -91 1734 -91 
Q 1441 -91 1130 -33 
Q 819 25 488 141 
L 488 750 
Q 750 597 1062 519 
Q 1375 441 1716 441 
Q 2309 441 2620 675 
Q 2931 909 2931 1356 
Q 2931 1769 2642 2001 
Q 2353 2234 1838 2234 
L 1294 2234 
L 1294 2753 
L 1863 2753 
Q 2328 2753 2575 2939 
Q 2822 3125 2822 3475 
Q 2822 3834 2567 4026 
Q 2313 4219 1838 4219 
Q 1578 4219 1281 4162 
Q 984 4106 628 3988 
L 628 4550 
Q 988 4650 1302 4700 
Q 1616 4750 1894 4750 
Q 2613 4750 3031 4423 
Q 3450 4097 3450 3541 
Q 3450 3153 3228 2886 
Q 3006 2619 2597 2516 
z
" transform="scale(0.015625)"/>
      </defs>
      <use xlink:href="#DejaVuSans-2d"/>
      <use xlink:href="#DejaVuSans-38" x="36.083984"/>
      <use xlink:href="#DejaVuSans-3a" x="99.707031"/>
      <use xlink:href="#DejaVuSans-20" x="133.398438"/>
      <use xlink:href="#DejaVuSans-33" x="165.185547"/>
      <use xlink:href="#DejaVuSans-2f" x="228.808594"/>
      <use xlink:href="#DejaVuSans-35" x="262.5"/>
     </g>
    </g>
   </g>
  </g>
 </g>
 <defs>
  <clipPath id="p7eb5c5c34e">
   <rect x="62.208" y="3.456" width="398.592" height="290.304"/>
  </clipPath>
 </defs>
</svg>
