<?xml version="1.0" encoding="utf-8" standalone="no"?>
<!DOCTYPE svg PUBLIC "-//W3C//DTD SVG 1.1//EN"
  "http://www.w3.org/Graphics/SVG/1.1/DTD/svg11.dtd">
<svg xmlns:xlink="http://www.w3.org/1999/xlink" width="460.8pt" height="345.6pt" viewBox="0 0 460.8 345.6" xmlns="http://www.w3.org/2000/svg" version="1.1">
 <metadata>
  <rdf:RDF xmlns:dc="http://purl.org/dc/elements/1.1/" xmlns:cc="http://creativecommons.org/ns#" xmlns:rdf="http://www.w3.org/1999/02/22-rdf-syntax-ns#">
   <cc:Work>
    <dc:type rdf:resource="http://purl.org/dc/dcmitype/StillImage"/>
    <dc:date>2024-10-11T15:13:53.291956</dc:date>
    <dc:format>image/svg+xml</dc:format>
    <dc:creator>
     <cc:Agent>
      <dc:title>Matplotlib v3.9.2, https://matplotlib.org/</dc:title>
     </cc:Agent>
    </dc:creator>
   </cc:Work>
  </rdf:RDF>
 </metadata>
 <defs>
  <style type="text/css">*{stroke-linejoin: round; stroke-linecap: butt}</style>
 </defs>
 <g id="figure_1">
  <g id="patch_1">
   <path d="M 0 345.6 
L 460.8 345.6 
L 460.8 0 
L 0 0 
z
" style="fill: #ffffff"/>
  </g>
  <g id="axes_1">
   <g id="patch_2">
    <path d="M 62.208 293.76 
L 460.8 293.76 
L 460.8 3.456 
L 62.208 3.456 
z
" style="fill: #ffffff"/>
   </g>
   <g id="line2d_1">
    <path d="M 258.270221 293.76 
L 258.270221 288.969505 
L 258.780181 288.969505 
L 258.780181 284.17901 
L 271.0569 284.17901 
L 271.0569 279.388515 
L 271.813744 279.388515 
L 271.813744 274.59802 
L 272.924755 274.59802 
L 272.924755 269.807525 
L 274.363082 269.807525 
L 274.363082 265.01703 
L 274.363082 265.01703 
L 274.363082 260.226535 
L 275.064707 260.226535 
L 275.064707 255.43604 
L 275.4113 255.43604 
L 275.4113 250.645545 
L 276.096267 250.645545 
L 276.096267 245.85505 
L 276.770562 245.85505 
L 276.770562 241.064554 
L 276.770562 241.064554 
L 276.770562 236.274059 
L 277.10381 236.274059 
L 277.10381 231.483564 
L 277.762705 231.483564 
L 277.762705 226.693069 
L 278.088428 226.693069 
L 278.088428 221.902574 
L 278.732611 221.902574 
L 278.732611 217.112079 
L 279.051142 217.112079 
L 279.051142 212.321584 
L 279.681255 212.321584 
L 279.681255 207.531089 
L 280.60955 207.531089 
L 280.60955 202.740594 
L 281.217533 202.740594 
L 281.217533 197.950099 
L 283.852457 197.950099 
L 283.852457 193.159604 
L 284.135564 193.159604 
L 284.135564 188.369109 
L 286.869207 188.369109 
L 286.869207 183.578614 
L 291.630672 183.578614 
L 291.630672 178.788119 
L 292.569649 178.788119 
L 292.569649 173.997624 
L 292.801244 173.997624 
L 292.801244 169.207129 
L 299.821906 169.207129 
L 299.821906 164.416634 
L 304.472505 164.416634 
L 304.472505 159.626139 
L 307.581036 159.626139 
L 307.581036 154.835644 
L 309.033751 154.835644 
L 309.033751 150.045149 
L 309.033751 150.045149 
L 309.033751 150.045149 
L 460.8 150.045149 
" clip-path="url(#p8785e1234c)" style="fill: none; stroke: #f5deb3; stroke-width: 1.5; stroke-linecap: square"/>
   </g>
   <g id="line2d_2"/>
   <g id="line2d_3">
    <path d="M 253.596433 293.76 
L 253.596433 288.969505 
L 256.84808 288.969505 
L 256.84808 284.17901 
L 258.363389 284.17901 
L 258.363389 279.388515 
L 259.872392 279.388515 
L 259.872392 274.59802 
L 262.318541 274.59802 
L 262.318541 269.807525 
L 262.741167 269.807525 
L 262.741167 265.01703 
L 263.615471 265.01703 
L 263.615471 260.226535 
L 264.83461 260.226535 
L 264.83461 255.43604 
L 266.176015 255.43604 
L 266.176015 250.645545 
L 267.889786 250.645545 
L 267.889786 245.85505 
L 268.187477 245.85505 
L 268.187477 241.064554 
L 268.409408 241.064554 
L 268.409408 236.274059 
L 269.141067 236.274059 
L 269.141067 231.483564 
L 270.180472 231.483564 
L 270.180472 226.693069 
L 270.462865 226.693069 
L 270.462865 221.902574 
L 271.091591 221.902574 
L 271.091591 217.112079 
L 271.574363 217.112079 
L 271.574363 212.321584 
L 272.221056 212.321584 
L 272.221056 207.531089 
L 272.724863 207.531089 
L 272.724863 202.740594 
L 274.105099 202.740594 
L 274.105099 197.950099 
L 275.348489 197.950099 
L 275.348489 193.159604 
L 276.465366 193.159604 
L 276.465366 188.369109 
L 276.526578 188.369109 
L 276.526578 183.578614 
L 280.358347 183.578614 
L 280.358347 178.788119 
L 286.262913 178.788119 
L 286.262913 173.997624 
L 289.440386 173.997624 
L 289.440386 169.207129 
L 292.94798 169.207129 
L 292.94798 164.416634 
L 294.671066 164.416634 
L 294.671066 159.626139 
L 295.448332 159.626139 
L 295.448332 154.835644 
L 297.830778 154.835644 
L 297.830778 150.045149 
L 298.498582 150.045149 
L 298.498582 145.254653 
L 298.516986 145.254653 
L 298.516986 140.464158 
L 299.714653 140.464158 
L 299.714653 135.673663 
L 300.142079 135.673663 
L 300.142079 130.883168 
L 302.150473 130.883168 
L 302.150473 126.092673 
L 302.655064 126.092673 
L 302.655064 121.302178 
L 304.632552 121.302178 
L 304.632552 116.511683 
L 306.293624 116.511683 
L 306.293624 111.721188 
L 307.56611 111.721188 
L 307.56611 106.930693 
L 310.299363 106.930693 
L 310.299363 102.140198 
L 310.536955 102.140198 
L 310.536955 97.349703 
L 311.719298 97.349703 
L 311.719298 92.559208 
L 314.996129 92.559208 
L 314.996129 87.768713 
L 316.745663 87.768713 
L 316.745663 82.978218 
L 330.562363 82.978218 
L 330.562363 78.187723 
L 330.562363 78.187723 
L 330.562363 78.187723 
L 460.8 78.187723 
" clip-path="url(#p8785e1234c)" style="fill: none; stroke: #f5deb3; stroke-width: 1.5; stroke-linecap: square"/>
   </g>
   <g id="line2d_4">
    <path d="M 300.617942 293.76 
L 300.617942 288.969505 
L 317.736454 288.969505 
L 317.736454 284.17901 
L 319.562058 284.17901 
L 319.562058 279.388515 
L 323.15378 279.388515 
L 323.15378 274.59802 
L 327.967793 274.59802 
L 327.967793 269.807525 
L 328.605925 269.807525 
L 328.605925 265.01703 
L 329.035268 265.01703 
L 329.035268 260.226535 
L 329.180461 260.226535 
L 329.180461 255.43604 
L 329.613141 255.43604 
L 329.613141 250.645545 
L 330.658776 250.645545 
L 330.658776 245.85505 
L 331.628406 245.85505 
L 331.628406 241.064554 
L 332.096726 241.064554 
L 332.096726 236.274059 
L 334.987544 236.274059 
L 334.987544 231.483564 
L 335.295395 231.483564 
L 335.295395 226.693069 
L 337.014812 226.693069 
L 337.014812 221.902574 
L 337.301114 221.902574 
L 337.301114 217.112079 
L 338.229751 217.112079 
L 338.229751 212.321584 
L 342.275533 212.321584 
L 342.275533 207.531089 
L 343.183026 207.531089 
L 343.183026 202.740594 
L 350.780591 202.740594 
L 350.780591 197.950099 
L 357.39746 197.950099 
L 357.39746 193.159604 
L 358.211024 193.159604 
L 358.211024 188.369109 
L 358.685507 188.369109 
L 358.685507 183.578614 
L 360.109563 183.578614 
L 360.109563 178.788119 
L 360.118428 178.788119 
L 360.118428 173.997624 
L 360.471564 173.997624 
L 360.471564 169.207129 
L 362.431204 169.207129 
L 362.431204 164.416634 
L 362.94494 164.416634 
L 362.94494 159.626139 
L 364.778124 159.626139 
L 364.778124 154.835644 
L 381.018937 154.835644 
L 381.018937 150.045149 
L 383.254456 150.045149 
L 383.254456 145.254653 
L 386.910371 145.254653 
L 386.910371 140.464158 
L 389.839789 140.464158 
L 389.839789 135.673663 
L 395.330744 135.673663 
L 395.330744 130.883168 
L 400.736628 130.883168 
L 400.736628 126.092673 
L 410.469739 126.092673 
L 410.469739 121.302178 
L 436.748902 121.302178 
L 436.748902 116.511683 
L 439.958412 116.511683 
L 439.958412 111.721188 
L 447.193437 111.721188 
L 447.193437 106.930693 
L 447.193437 106.930693 
L 447.193437 106.930693 
L 460.8 106.930693 
" clip-path="url(#p8785e1234c)" style="fill: none; stroke: #f5deb3; stroke-width: 1.5; stroke-linecap: square"/>
   </g>
   <g id="line2d_5"/>
   <g id="line2d_6"/>
   <g id="line2d_7">
    <path d="M 322.57724 293.76 
L 322.57724 288.969505 
L 323.948247 288.969505 
L 323.948247 284.17901 
L 325.681746 284.17901 
L 325.681746 279.388515 
L 326.121502 279.388515 
L 326.121502 274.59802 
L 326.41221 274.59802 
L 326.41221 269.807525 
L 326.421867 269.807525 
L 326.421867 265.01703 
L 326.796808 265.01703 
L 326.796808 260.226535 
L 327.12105 260.226535 
L 327.12105 255.43604 
L 328.998894 255.43604 
L 328.998894 250.645545 
L 329.27096 250.645545 
L 329.27096 245.85505 
L 330.430542 245.85505 
L 330.430542 241.064554 
L 331.310479 241.064554 
L 331.310479 236.274059 
L 332.045882 236.274059 
L 332.045882 231.483564 
L 333.513025 231.483564 
L 333.513025 226.693069 
L 336.413475 226.693069 
L 336.413475 221.902574 
L 336.772238 221.902574 
L 336.772238 217.112079 
L 339.930482 217.112079 
L 339.930482 212.321584 
L 340.39439 212.321584 
L 340.39439 207.531089 
L 340.749489 207.531089 
L 340.749489 202.740594 
L 342.648781 202.740594 
L 342.648781 197.950099 
L 342.97934 197.950099 
L 342.97934 193.159604 
L 343.710756 193.159604 
L 343.710756 188.369109 
L 343.975446 188.369109 
L 343.975446 183.578614 
L 344.671359 183.578614 
L 344.671359 178.788119 
L 344.930255 178.788119 
L 344.930255 173.997624 
L 346.226448 173.997624 
L 346.226448 169.207129 
L 346.839191 169.207129 
L 346.839191 164.416634 
L 347.282689 164.416634 
L 347.282689 159.626139 
L 348.220508 159.626139 
L 348.220508 154.835644 
L 348.272989 154.835644 
L 348.272989 150.045149 
L 348.395198 150.045149 
L 348.395198 145.254653 
L 351.834579 145.254653 
L 351.834579 140.464158 
L 352.962975 140.464158 
L 352.962975 135.673663 
L 353.441404 135.673663 
L 353.441404 130.883168 
L 354.189958 130.883168 
L 354.189958 126.092673 
L 354.220445 126.092673 
L 354.220445 121.302178 
L 355.194799 121.302178 
L 355.194799 116.511683 
L 358.002081 116.511683 
L 358.002081 111.721188 
L 362.607313 111.721188 
L 362.607313 106.930693 
L 363.39927 106.930693 
L 363.39927 102.140198 
L 367.177833 102.140198 
L 367.177833 97.349703 
L 373.649473 97.349703 
L 373.649473 92.559208 
L 374.557418 92.559208 
L 374.557418 87.768713 
L 376.241811 87.768713 
L 376.241811 82.978218 
L 396.75871 82.978218 
L 396.75871 78.187723 
L 409.871619 78.187723 
L 409.871619 73.397228 
L 427.608339 73.397228 
L 427.608339 68.606733 
L 444.248366 68.606733 
L 444.248366 63.816238 
L 448.264621 63.816238 
L 448.264621 59.025743 
L 461.630677 59.025743 
L 461.630677 54.235248 
L 461.8 54.235248 
" clip-path="url(#p8785e1234c)" style="fill: none; stroke: #f5deb3; stroke-width: 1.5; stroke-linecap: square"/>
   </g>
   <g id="line2d_8">
    <path d="M 421.579904 293.76 
L 421.579904 288.969505 
L 423.2029 288.969505 
L 423.2029 284.17901 
L 423.951588 284.17901 
L 423.951588 279.388515 
L 424.024535 279.388515 
L 424.024535 274.59802 
L 424.616706 274.59802 
L 424.616706 269.807525 
L 424.868601 269.807525 
L 424.868601 265.01703 
L 425.27569 265.01703 
L 425.27569 260.226535 
L 426.7719 260.226535 
L 426.7719 255.43604 
L 426.972839 255.43604 
L 426.972839 250.645545 
L 461.8 250.645545 
" clip-path="url(#p8785e1234c)" style="fill: none; stroke: #f5deb3; stroke-width: 1.5; stroke-linecap: square"/>
   </g>
   <g id="line2d_9">
    <path d="M 313.225302 293.76 
L 313.225302 288.969505 
L 314.388373 288.969505 
L 314.388373 284.17901 
L 317.924869 284.17901 
L 317.924869 279.388515 
L 319.810256 279.388515 
L 319.810256 274.59802 
L 320.678935 274.59802 
L 320.678935 269.807525 
L 321.896542 269.807525 
L 321.896542 265.01703 
L 322.376273 265.01703 
L 322.376273 260.226535 
L 323.309694 260.226535 
L 323.309694 255.43604 
L 324.284318 255.43604 
L 324.284318 250.645545 
L 325.326694 250.645545 
L 325.326694 245.85505 
L 325.514445 245.85505 
L 325.514445 241.064554 
L 325.926606 241.064554 
L 325.926606 236.274059 
L 326.315525 236.274059 
L 326.315525 231.483564 
L 326.796808 231.483564 
L 326.796808 226.693069 
L 327.395703 226.693069 
L 327.395703 221.902574 
L 328.22788 221.902574 
L 328.22788 217.112079 
L 329.37931 217.112079 
L 329.37931 212.321584 
L 329.693789 212.321584 
L 329.693789 207.531089 
L 331.671191 207.531089 
L 331.671191 202.740594 
L 333.953378 202.740594 
L 333.953378 197.950099 
L 336.924006 197.950099 
L 336.924006 193.159604 
L 337.067694 193.159604 
L 337.067694 188.369109 
L 337.637723 188.369109 
L 337.637723 183.578614 
L 338.661241 183.578614 
L 338.661241 178.788119 
L 338.690339 178.788119 
L 338.690339 173.997624 
L 338.79203 173.997624 
L 338.79203 169.207129 
L 338.994697 169.207129 
L 338.994697 164.416634 
L 339.095676 164.416634 
L 339.095676 159.626139 
L 339.525793 159.626139 
L 339.525793 154.835644 
L 340.233289 154.835644 
L 340.233289 150.045149 
L 340.275373 150.045149 
L 340.275373 145.254653 
L 340.65925 145.254653 
L 340.65925 140.464158 
L 340.673145 140.464158 
L 340.673145 135.673663 
L 341.410108 135.673663 
L 341.410108 130.883168 
L 341.505611 130.883168 
L 341.505611 126.092673 
L 341.526048 126.092673 
L 341.526048 121.302178 
L 341.83146 121.302178 
L 341.83146 116.511683 
L 341.858503 116.511683 
L 341.858503 111.721188 
L 342.48255 111.721188 
L 342.48255 106.930693 
L 342.489212 106.930693 
L 342.489212 102.140198 
L 342.642144 102.140198 
L 342.642144 97.349703 
L 342.933214 97.349703 
L 342.933214 92.559208 
L 343.99475 92.559208 
L 343.99475 87.768713 
L 344.740971 87.768713 
L 344.740971 82.978218 
L 345.081088 82.978218 
L 345.081088 78.187723 
L 345.112446 78.187723 
L 345.112446 73.397228 
L 345.368725 73.397228 
L 345.368725 68.606733 
L 345.889091 68.606733 
L 345.889091 63.816238 
L 346.134702 63.816238 
L 346.134702 59.025743 
L 346.754773 59.025743 
L 346.754773 54.235248 
L 347.055515 54.235248 
L 347.055515 49.444752 
L 347.377985 49.444752 
L 347.377985 44.654257 
L 347.992351 44.654257 
L 347.992351 39.863762 
L 348.097803 39.863762 
L 348.097803 35.073267 
L 353.05178 35.073267 
L 353.05178 30.282772 
L 353.755732 30.282772 
L 353.755732 25.492277 
L 353.791657 25.492277 
L 353.791657 20.701782 
L 379.691689 20.701782 
L 379.691689 15.911287 
L 382.237621 15.911287 
L 382.237621 11.120792 
L 382.918159 11.120792 
L 382.918159 6.330297 
L 382.918159 6.330297 
L 382.918159 6.330297 
L 460.8 6.330297 
" clip-path="url(#p8785e1234c)" style="fill: none; stroke: #f5deb3; stroke-width: 1.5; stroke-linecap: square"/>
   </g>
   <g id="line2d_10">
    <path clip-path="url(#p8785e1234c)" style="fill: none; stroke: #f5deb3; stroke-width: 1.5; stroke-linecap: square"/>
   </g>
   <g id="line2d_11">
    <path d="M 312.724684 293.76 
L 312.724684 288.969505 
L 316.697336 288.969505 
L 316.697336 284.17901 
L 324.678157 284.17901 
L 324.678157 279.388515 
L 326.160376 279.388515 
L 326.160376 274.59802 
L 327.855846 274.59802 
L 327.855846 269.807525 
L 331.275968 269.807525 
L 331.275968 265.01703 
L 334.781087 265.01703 
L 334.781087 260.226535 
L 335.311124 260.226535 
L 335.311124 255.43604 
L 338.81379 255.43604 
L 338.81379 250.645545 
L 341.410108 250.645545 
L 341.410108 245.85505 
L 342.30899 245.85505 
L 342.30899 241.064554 
L 347.538324 241.064554 
L 347.538324 236.274059 
L 353.863417 236.274059 
L 353.863417 231.483564 
L 377.662615 231.483564 
L 377.662615 226.693069 
L 386.258752 226.693069 
L 386.258752 221.902574 
L 461.8 221.902574 
" clip-path="url(#p8785e1234c)" style="fill: none; stroke: #f5deb3; stroke-width: 1.5; stroke-linecap: square"/>
   </g>
   <g id="line2d_12">
    <path d="M 248.996364 293.76 
L 248.996364 288.969505 
L 260.141192 288.969505 
L 260.141192 284.17901 
L 272.085711 284.17901 
L 272.085711 279.388515 
L 272.824925 279.388515 
L 272.824925 274.59802 
L 273.18985 274.59802 
L 273.18985 269.807525 
L 273.551724 269.807525 
L 273.551724 265.01703 
L 273.551724 265.01703 
L 273.551724 260.226535 
L 273.910597 260.226535 
L 273.910597 255.43604 
L 274.619537 255.43604 
L 274.619537 250.645545 
L 275.31705 250.645545 
L 275.31705 245.85505 
L 275.661635 245.85505 
L 275.661635 241.064554 
L 275.661635 241.064554 
L 275.661635 236.274059 
L 276.342683 236.274059 
L 276.342683 231.483564 
L 277.34457 231.483564 
L 277.34457 226.693069 
L 277.34457 226.693069 
L 277.34457 221.902574 
L 277.34457 221.902574 
L 277.34457 217.112079 
L 277.673444 217.112079 
L 277.673444 212.321584 
L 279.595869 212.321584 
L 279.595869 207.531089 
L 279.595869 207.531089 
L 279.595869 202.740594 
L 279.908132 202.740594 
L 279.908132 197.950099 
L 280.218157 197.950099 
L 280.218157 193.159604 
L 281.436516 193.159604 
L 281.436516 188.369109 
L 282.03307 188.369109 
L 282.03307 183.578614 
L 282.03307 183.578614 
L 282.03307 178.788119 
L 282.328291 178.788119 
L 282.328291 173.997624 
L 284.340303 173.997624 
L 284.340303 169.207129 
L 289.621554 169.207129 
L 289.621554 164.416634 
L 306.15504 164.416634 
L 306.15504 159.626139 
L 307.655586 159.626139 
L 307.655586 154.835644 
L 313.616476 154.835644 
L 313.616476 150.045149 
L 313.616476 150.045149 
L 313.616476 150.045149 
L 460.8 150.045149 
" clip-path="url(#p8785e1234c)" style="fill: none; stroke: #f5deb3; stroke-width: 1.5; stroke-linecap: square"/>
   </g>
   <g id="line2d_13"/>
   <g id="line2d_14">
    <path d="M 328.907824 293.76 
L 328.907824 288.969505 
L 336.992129 288.969505 
L 336.992129 284.17901 
L 361.030656 284.17901 
L 361.030656 279.388515 
L 394.941991 279.388515 
L 394.941991 274.59802 
L 397.620619 274.59802 
L 397.620619 269.807525 
L 399.793624 269.807525 
L 399.793624 265.01703 
L 401.145609 265.01703 
L 401.145609 260.226535 
L 431.218151 260.226535 
L 431.218151 255.43604 
L 435.244386 255.43604 
L 435.244386 250.645545 
L 437.100538 250.645545 
L 437.100538 245.85505 
L 443.996417 245.85505 
L 443.996417 241.064554 
L 445.001765 241.064554 
L 445.001765 236.274059 
L 445.001765 236.274059 
L 445.001765 236.274059 
L 460.8 236.274059 
" clip-path="url(#p8785e1234c)" style="fill: none; stroke: #f5deb3; stroke-width: 1.5; stroke-linecap: square"/>
   </g>
   <g id="line2d_15"/>
   <g id="line2d_16">
    <path d="M 435.758415 293.76 
L 435.758415 288.969505 
L 437.111013 288.969505 
L 437.111013 284.17901 
L 453.627008 284.17901 
L 453.627008 279.388515 
L 454.450675 279.388515 
L 454.450675 274.59802 
L 458.593411 274.59802 
L 458.593411 269.807525 
L 461.8 269.807525 
" clip-path="url(#p8785e1234c)" style="fill: none; stroke: #f5deb3; stroke-width: 1.5; stroke-linecap: square"/>
   </g>
   <g id="line2d_17">
    <path d="M 389.404935 293.76 
L 389.404935 288.969505 
L 390.2659 288.969505 
L 390.2659 284.17901 
L 394.814941 284.17901 
L 394.814941 279.388515 
L 396.671186 279.388515 
L 396.671186 274.59802 
L 397.562819 274.59802 
L 397.562819 269.807525 
L 398.642578 269.807525 
L 398.642578 265.01703 
L 399.228212 265.01703 
L 399.228212 260.226535 
L 402.48162 260.226535 
L 402.48162 255.43604 
L 403.987215 255.43604 
L 403.987215 250.645545 
L 405.223909 250.645545 
L 405.223909 245.85505 
L 410.2685 245.85505 
L 410.2685 241.064554 
L 412.917813 241.064554 
L 412.917813 236.274059 
L 416.920532 236.274059 
L 416.920532 231.483564 
L 423.219404 231.483564 
L 423.219404 226.693069 
L 424.544751 226.693069 
L 424.544751 221.902574 
L 452.018659 221.902574 
L 452.018659 217.112079 
L 455.465544 217.112079 
L 455.465544 212.321584 
L 456.590917 212.321584 
L 456.590917 207.531089 
L 457.007684 207.531089 
L 457.007684 202.740594 
L 457.913647 202.740594 
L 457.913647 197.950099 
L 458.15906 197.950099 
L 458.15906 193.159604 
L 458.975623 193.159604 
L 458.975623 188.369109 
L 459.217797 188.369109 
L 459.217797 183.578614 
L 459.615468 183.578614 
L 459.615468 178.788119 
L 460.378605 178.788119 
L 460.378605 173.997624 
L 460.430577 173.997624 
L 460.430577 169.207129 
L 460.561322 169.207129 
L 460.561322 164.416634 
L 461.8 164.416634 
" clip-path="url(#p8785e1234c)" style="fill: none; stroke: #f5deb3; stroke-width: 1.5; stroke-linecap: square"/>
   </g>
   <g id="line2d_18">
    <path d="M 254.623209 293.76 
L 254.623209 288.969505 
L 257.989507 288.969505 
L 257.989507 284.17901 
L 258.872259 284.17901 
L 258.872259 279.388515 
L 259.238624 279.388515 
L 259.238624 274.59802 
L 262.992776 274.59802 
L 262.992776 269.807525 
L 263.821061 269.807525 
L 263.821061 265.01703 
L 265.471042 265.01703 
L 265.471042 260.226535 
L 265.549942 260.226535 
L 265.549942 255.43604 
L 265.746565 255.43604 
L 265.746565 250.645545 
L 266.639698 250.645545 
L 266.639698 245.85505 
L 266.754846 245.85505 
L 266.754846 241.064554 
L 267.250312 241.064554 
L 267.250312 236.274059 
L 267.74017 236.274059 
L 267.74017 231.483564 
L 268.886391 231.483564 
L 268.886391 226.693069 
L 269.502309 226.693069 
L 269.502309 221.902574 
L 269.896224 221.902574 
L 269.896224 217.112079 
L 270.392439 217.112079 
L 270.392439 212.321584 
L 272.119587 212.321584 
L 272.119587 207.531089 
L 275.033061 207.531089 
L 275.033061 202.740594 
L 275.442671 202.740594 
L 275.442671 197.950099 
L 276.158003 197.950099 
L 276.158003 193.159604 
L 280.997435 193.159604 
L 280.997435 188.369109 
L 289.075757 188.369109 
L 289.075757 183.578614 
L 294.063524 183.578614 
L 294.063524 178.788119 
L 297.998697 178.788119 
L 297.998697 173.997624 
L 300.442306 173.997624 
L 300.442306 169.207129 
L 306.000536 169.207129 
L 306.000536 164.416634 
L 308.114955 164.416634 
L 308.114955 159.626139 
L 310.215194 159.626139 
L 310.215194 154.835644 
L 317.321413 154.835644 
L 317.321413 150.045149 
L 322.587791 150.045149 
L 322.587791 145.254653 
L 325.336596 145.254653 
L 325.336596 140.464158 
L 332.768997 140.464158 
L 332.768997 135.673663 
L 336.680921 135.673663 
L 336.680921 130.883168 
L 344.842025 130.883168 
L 344.842025 126.092673 
L 344.892464 126.092673 
L 344.892464 121.302178 
L 344.905065 121.302178 
L 344.905065 116.511683 
L 361.966541 116.511683 
L 361.966541 111.721188 
L 381.662215 111.721188 
L 381.662215 106.930693 
L 390.73376 106.930693 
L 390.73376 102.140198 
L 402.26626 102.140198 
L 402.26626 97.349703 
L 405.864687 97.349703 
L 405.864687 92.559208 
L 406.019958 92.559208 
L 406.019958 87.768713 
L 421.227142 87.768713 
L 421.227142 82.978218 
L 425.271756 82.978218 
L 425.271756 78.187723 
L 425.271756 78.187723 
L 425.271756 78.187723 
L 460.8 78.187723 
" clip-path="url(#p8785e1234c)" style="fill: none; stroke: #f5deb3; stroke-width: 1.5; stroke-linecap: square"/>
   </g>
   <g id="line2d_19">
    <path d="M 408.610984 293.76 
L 408.610984 288.969505 
L 450.179844 288.969505 
L 450.179844 284.17901 
L 451.373485 284.17901 
L 451.373485 279.388515 
L 452.217528 279.388515 
L 452.217528 274.59802 
L 457.770926 274.59802 
L 457.770926 269.807525 
L 458.773829 269.807525 
L 458.773829 265.01703 
L 461.8 265.01703 
L 461.8 265.01703 
" clip-path="url(#p8785e1234c)" style="fill: none; stroke: #f5deb3; stroke-width: 1.5; stroke-linecap: square"/>
   </g>
   <g id="line2d_20">
    <path d="M 309.307062 293.76 
L 309.307062 288.969505 
L 319.084236 288.969505 
L 319.084236 284.17901 
L 319.141397 284.17901 
L 319.141397 279.388515 
L 320.357997 279.388515 
L 320.357997 274.59802 
L 321.68161 274.59802 
L 321.68161 269.807525 
L 321.950109 269.807525 
L 321.950109 265.01703 
L 322.439837 265.01703 
L 322.439837 260.226535 
L 324.768536 260.226535 
L 324.768536 255.43604 
L 326.901976 255.43604 
L 326.901976 250.645545 
L 329.523355 250.645545 
L 329.523355 245.85505 
L 331.850425 245.85505 
L 331.850425 241.064554 
L 332.14751 241.064554 
L 332.14751 236.274059 
L 332.518117 236.274059 
L 332.518117 231.483564 
L 334.876497 231.483564 
L 334.876497 226.693069 
L 335.208787 226.693069 
L 335.208787 221.902574 
L 335.741429 221.902574 
L 335.741429 217.112079 
L 336.306031 217.112079 
L 336.306031 212.321584 
L 336.390473 212.321584 
L 336.390473 207.531089 
L 338.075126 207.531089 
L 338.075126 202.740594 
L 338.369176 202.740594 
L 338.369176 197.950099 
L 338.464313 197.950099 
L 338.464313 193.159604 
L 338.62484 193.159604 
L 338.62484 188.369109 
L 345.393646 188.369109 
L 345.393646 183.578614 
L 346.470157 183.578614 
L 346.470157 178.788119 
L 353.462086 178.788119 
L 353.462086 173.997624 
L 357.165566 173.997624 
L 357.165566 169.207129 
L 366.006217 169.207129 
L 366.006217 164.416634 
L 367.33193 164.416634 
L 367.33193 159.626139 
L 367.365682 159.626139 
L 367.365682 154.835644 
L 369.035039 154.835644 
L 369.035039 150.045149 
L 369.035039 150.045149 
L 369.035039 150.045149 
L 460.8 150.045149 
" clip-path="url(#p8785e1234c)" style="fill: none; stroke: #f5deb3; stroke-width: 1.5; stroke-linecap: square"/>
   </g>
   <g id="line2d_21"/>
   <g id="line2d_22">
    <path d="M 307.551179 293.76 
L 307.551179 288.969505 
L 308.975991 288.969505 
L 308.975991 284.17901 
L 310.341386 284.17901 
L 310.341386 279.388515 
L 312.057029 279.388515 
L 312.057029 274.59802 
L 312.177969 274.59802 
L 312.177969 269.807525 
L 313.028381 269.807525 
L 313.028381 265.01703 
L 313.642429 265.01703 
L 313.642429 260.226535 
L 314.10694 260.226535 
L 314.10694 255.43604 
L 315.033832 255.43604 
L 315.033832 250.645545 
L 315.084051 250.645545 
L 315.084051 245.85505 
L 315.521003 245.85505 
L 315.521003 241.064554 
L 315.953587 241.064554 
L 315.953587 236.274059 
L 318.820318 236.274059 
L 318.820318 231.483564 
L 319.380652 231.483564 
L 319.380652 226.693069 
L 319.697615 226.693069 
L 319.697615 221.902574 
L 319.799005 221.902574 
L 319.799005 217.112079 
L 320.413501 217.112079 
L 320.413501 212.321584 
L 321.422274 212.321584 
L 321.422274 207.531089 
L 323.018198 207.531089 
L 323.018198 202.740594 
L 323.382263 202.740594 
L 323.382263 197.950099 
L 323.753561 197.950099 
L 323.753561 193.159604 
L 330.492108 193.159604 
L 330.492108 188.369109 
L 330.536031 188.369109 
L 330.536031 183.578614 
L 330.877103 183.578614 
L 330.877103 178.788119 
L 331.54271 178.788119 
L 331.54271 173.997624 
L 355.402884 173.997624 
L 355.402884 169.207129 
L 357.927547 169.207129 
L 357.927547 164.416634 
L 364.988542 164.416634 
L 364.988542 159.626139 
L 365.707315 159.626139 
L 365.707315 154.835644 
L 370.666709 154.835644 
L 370.666709 150.045149 
L 372.831242 150.045149 
L 372.831242 145.254653 
L 374.075338 145.254653 
L 374.075338 140.464158 
L 375.12202 140.464158 
L 375.12202 135.673663 
L 376.91447 135.673663 
L 376.91447 130.883168 
L 377.638968 130.883168 
L 377.638968 126.092673 
L 379.683229 126.092673 
L 379.683229 121.302178 
L 394.133658 121.302178 
L 394.133658 116.511683 
L 402.284666 116.511683 
L 402.284666 111.721188 
L 402.621281 111.721188 
L 402.621281 106.930693 
L 406.029164 106.930693 
L 406.029164 102.140198 
L 417.492893 102.140198 
L 417.492893 97.349703 
L 417.933275 97.349703 
L 417.933275 92.559208 
L 424.889444 92.559208 
L 424.889444 87.768713 
L 457.072827 87.768713 
L 457.072827 82.978218 
L 458.08678 82.978218 
L 458.08678 78.187723 
L 458.08678 78.187723 
L 458.08678 78.187723 
L 460.8 78.187723 
" clip-path="url(#p8785e1234c)" style="fill: none; stroke: #f5deb3; stroke-width: 1.5; stroke-linecap: square"/>
   </g>
   <g id="line2d_23">
    <path d="M 432.326012 293.76 
L 432.326012 288.969505 
L 435.368404 288.969505 
L 435.368404 284.17901 
L 439.586961 284.17901 
L 439.586961 279.388515 
L 439.813869 279.388515 
L 439.813869 274.59802 
L 440.595355 274.59802 
L 440.595355 269.807525 
L 441.025315 269.807525 
L 441.025315 265.01703 
L 441.197199 265.01703 
L 441.197199 260.226535 
L 444.025121 260.226535 
L 444.025121 255.43604 
L 444.297186 255.43604 
L 444.297186 250.645545 
L 447.163201 250.645545 
L 447.163201 245.85505 
L 454.723941 245.85505 
L 454.723941 241.064554 
L 459.737165 241.064554 
L 459.737165 236.274059 
L 459.737165 236.274059 
L 459.737165 236.274059 
L 460.8 236.274059 
" clip-path="url(#p8785e1234c)" style="fill: none; stroke: #f5deb3; stroke-width: 1.5; stroke-linecap: square"/>
   </g>
   <g id="line2d_24">
    <path d="M 307.982091 293.76 
L 307.982091 288.969505 
L 314.196686 288.969505 
L 314.196686 284.17901 
L 314.731286 284.17901 
L 314.731286 279.388515 
L 319.911382 279.388515 
L 319.911382 274.59802 
L 320.246775 274.59802 
L 320.246775 269.807525 
L 321.960814 269.807525 
L 321.960814 265.01703 
L 327.310652 265.01703 
L 327.310652 260.226535 
L 327.827815 260.226535 
L 327.827815 255.43604 
L 329.64004 255.43604 
L 329.64004 250.645545 
L 332.40895 250.645545 
L 332.40895 245.85505 
L 347.810133 245.85505 
L 347.810133 241.064554 
L 381.223542 241.064554 
L 381.223542 236.274059 
L 381.299681 236.274059 
L 381.299681 231.483564 
L 383.189486 231.483564 
L 383.189486 226.693069 
L 385.362836 226.693069 
L 385.362836 221.902574 
L 385.372728 221.902574 
L 385.372728 217.112079 
L 385.55533 217.112079 
L 385.55533 212.321584 
L 385.710184 212.321584 
L 385.710184 207.531089 
L 386.485888 207.531089 
L 386.485888 202.740594 
L 386.502755 202.740594 
L 386.502755 197.950099 
L 386.534061 197.950099 
L 386.534061 193.159604 
L 387.264505 193.159604 
L 387.264505 188.369109 
L 387.403936 188.369109 
L 387.403936 183.578614 
L 387.6838 183.578614 
L 387.6838 178.788119 
L 388.34218 178.788119 
L 388.34218 173.997624 
L 388.381412 173.997624 
L 388.381412 169.207129 
L 388.563261 169.207129 
L 388.563261 164.416634 
L 388.58393 164.416634 
L 388.58393 159.626139 
L 389.04979 159.626139 
L 389.04979 154.835644 
L 389.591516 154.835644 
L 389.591516 150.045149 
L 390.329898 150.045149 
L 390.329898 145.254653 
L 390.860287 145.254653 
L 390.860287 140.464158 
L 391.066733 140.464158 
L 391.066733 135.673663 
L 391.110071 135.673663 
L 391.110071 130.883168 
L 391.2722 130.883168 
L 391.2722 126.092673 
L 391.455215 126.092673 
L 391.455215 121.302178 
L 392.122547 121.302178 
L 392.122547 116.511683 
L 392.960657 116.511683 
L 392.960657 111.721188 
L 396.38263 111.721188 
L 396.38263 106.930693 
L 396.974856 106.930693 
L 396.974856 102.140198 
L 399.699604 102.140198 
L 399.699604 97.349703 
L 399.821967 97.349703 
L 399.821967 92.559208 
L 404.41135 92.559208 
L 404.41135 87.768713 
L 405.453072 87.768713 
L 405.453072 82.978218 
L 407.480502 82.978218 
L 407.480502 78.187723 
L 408.985165 78.187723 
L 408.985165 73.397228 
L 409.061045 73.397228 
L 409.061045 68.606733 
L 409.233783 68.606733 
L 409.233783 63.816238 
L 410.000585 63.816238 
L 410.000585 59.025743 
L 410.306043 59.025743 
L 410.306043 54.235248 
L 410.306043 54.235248 
L 410.306043 49.444752 
L 411.360517 49.444752 
L 411.360517 44.654257 
L 411.361873 44.654257 
L 411.361873 39.863762 
L 411.518927 39.863762 
L 411.518927 35.073267 
L 412.534041 35.073267 
L 412.534041 30.282772 
L 412.539321 30.282772 
L 412.539321 25.492277 
L 419.826788 25.492277 
L 419.826788 20.701782 
L 419.866924 20.701782 
L 419.866924 15.911287 
L 421.160137 15.911287 
L 421.160137 11.120792 
L 422.444181 11.120792 
L 422.444181 6.330297 
L 422.444181 6.330297 
L 422.444181 6.330297 
L 460.8 6.330297 
" clip-path="url(#p8785e1234c)" style="fill: none; stroke: #f5deb3; stroke-width: 1.5; stroke-linecap: square"/>
   </g>
   <g id="line2d_25">
    <path d="M 434.300746 293.76 
L 434.300746 288.969505 
L 434.569744 288.969505 
L 434.569744 284.17901 
L 438.398656 284.17901 
L 438.398656 279.388515 
L 438.952099 279.388515 
L 438.952099 274.59802 
L 439.288484 274.59802 
L 439.288484 269.807525 
L 439.319775 269.807525 
L 439.319775 265.01703 
L 440.075237 265.01703 
L 440.075237 260.226535 
L 440.666393 260.226535 
L 440.666393 255.43604 
L 443.953644 255.43604 
L 443.953644 250.645545 
L 443.9811 250.645545 
L 443.9811 245.85505 
L 461.8 245.85505 
" clip-path="url(#p8785e1234c)" style="fill: none; stroke: #f5deb3; stroke-width: 1.5; stroke-linecap: square"/>
   </g>
   <g id="line2d_26">
    <path d="M 360.105129 293.76 
L 360.105129 288.969505 
L 367.064731 288.969505 
L 367.064731 284.17901 
L 371.89945 284.17901 
L 371.89945 279.388515 
L 373.827427 279.388515 
L 373.827427 274.59802 
L 374.059283 274.59802 
L 374.059283 269.807525 
L 374.139499 269.807525 
L 374.139499 265.01703 
L 374.630378 265.01703 
L 374.630378 260.226535 
L 376.878376 260.226535 
L 376.878376 255.43604 
L 376.959545 255.43604 
L 376.959545 250.645545 
L 377.318465 250.645545 
L 377.318465 245.85505 
L 377.733478 245.85505 
L 377.733478 241.064554 
L 377.854268 241.064554 
L 377.854268 236.274059 
L 377.877797 236.274059 
L 377.877797 231.483564 
L 378.015775 231.483564 
L 378.015775 226.693069 
L 379.916678 226.693069 
L 379.916678 221.902574 
L 379.933505 221.902574 
L 379.933505 217.112079 
L 379.936309 217.112079 
L 379.936309 212.321584 
L 379.997949 212.321584 
L 379.997949 207.531089 
L 380.014744 207.531089 
L 380.014744 202.740594 
L 380.379832 202.740594 
L 380.379832 197.950099 
L 380.744618 197.950099 
L 380.744618 193.159604 
L 382.923393 193.159604 
L 382.923393 188.369109 
L 382.970469 188.369109 
L 382.970469 183.578614 
L 383.10097 183.578614 
L 383.10097 178.788119 
L 383.132232 178.788119 
L 383.132232 173.997624 
L 383.277822 173.997624 
L 383.277822 169.207129 
L 385.057537 169.207129 
L 385.057537 164.416634 
L 385.142144 164.416634 
L 385.142144 159.626139 
L 385.464126 159.626139 
L 385.464126 154.835644 
L 385.56764 154.835644 
L 385.56764 150.045149 
L 385.962169 150.045149 
L 385.962169 145.254653 
L 387.484082 145.254653 
L 387.484082 140.464158 
L 387.891934 140.464158 
L 387.891934 135.673663 
L 387.945559 135.673663 
L 387.945559 130.883168 
L 389.792927 130.883168 
L 389.792927 126.092673 
L 390.00896 126.092673 
L 390.00896 121.302178 
L 392.531058 121.302178 
L 392.531058 116.511683 
L 392.625267 116.511683 
L 392.625267 111.721188 
L 392.733876 111.721188 
L 392.733876 106.930693 
L 393.963676 106.930693 
L 393.963676 102.140198 
L 394.585705 102.140198 
L 394.585705 97.349703 
L 395.962616 97.349703 
L 395.962616 92.559208 
L 396.246284 92.559208 
L 396.246284 87.768713 
L 397.852905 87.768713 
L 397.852905 82.978218 
L 400.355242 82.978218 
L 400.355242 78.187723 
L 446.286125 78.187723 
L 446.286125 73.397228 
L 461.8 73.397228 
" clip-path="url(#p8785e1234c)" style="fill: none; stroke: #f5deb3; stroke-width: 1.5; stroke-linecap: square"/>
   </g>
   <g id="line2d_27">
    <path d="M 322.829766 293.76 
L 322.829766 288.969505 
L 323.143366 288.969505 
L 323.143366 284.17901 
L 325.395961 284.17901 
L 325.395961 279.388515 
L 327.846505 279.388515 
L 327.846505 274.59802 
L 328.73426 274.59802 
L 328.73426 269.807525 
L 329.388327 269.807525 
L 329.388327 265.01703 
L 331.636966 265.01703 
L 331.636966 260.226535 
L 333.225199 260.226535 
L 333.225199 255.43604 
L 333.504828 255.43604 
L 333.504828 250.645545 
L 335.819208 250.645545 
L 335.819208 245.85505 
L 335.920113 245.85505 
L 335.920113 241.064554 
L 335.982092 241.064554 
L 335.982092 236.274059 
L 337.368645 236.274059 
L 337.368645 231.483564 
L 338.045611 231.483564 
L 338.045611 226.693069 
L 339.030788 226.693069 
L 339.030788 221.902574 
L 339.22516 221.902574 
L 339.22516 217.112079 
L 340.415359 217.112079 
L 340.415359 212.321584 
L 340.922498 212.321584 
L 340.922498 207.531089 
L 341.382782 207.531089 
L 341.382782 202.740594 
L 344.671359 202.740594 
L 344.671359 197.950099 
L 346.48838 197.950099 
L 346.48838 193.159604 
L 349.440133 193.159604 
L 349.440133 188.369109 
L 352.038058 188.369109 
L 352.038058 183.578614 
L 354.685245 183.578614 
L 354.685245 178.788119 
L 358.46043 178.788119 
L 358.46043 173.997624 
L 368.259851 173.997624 
L 368.259851 169.207129 
L 371.468564 169.207129 
L 371.468564 164.416634 
L 373.098047 164.416634 
L 373.098047 159.626139 
L 374.251553 159.626139 
L 374.251553 154.835644 
L 374.532012 154.835644 
L 374.532012 150.045149 
L 375.14395 150.045149 
L 375.14395 145.254653 
L 376.600652 145.254653 
L 376.600652 140.464158 
L 376.97456 140.464158 
L 376.97456 135.673663 
L 379.084029 135.673663 
L 379.084029 130.883168 
L 379.126901 130.883168 
L 379.126901 126.092673 
L 381.215377 126.092673 
L 381.215377 121.302178 
L 384.684795 121.302178 
L 384.684795 116.511683 
L 387.34491 116.511683 
L 387.34491 111.721188 
L 388.277485 111.721188 
L 388.277485 106.930693 
L 392.295687 106.930693 
L 392.295687 102.140198 
L 395.830763 102.140198 
L 395.830763 97.349703 
L 395.894801 97.349703 
L 395.894801 92.559208 
L 399.382336 92.559208 
L 399.382336 87.768713 
L 403.106576 87.768713 
L 403.106576 82.978218 
L 417.950751 82.978218 
L 417.950751 78.187723 
L 417.950751 78.187723 
L 417.950751 78.187723 
L 460.8 78.187723 
" clip-path="url(#p8785e1234c)" style="fill: none; stroke: #f5deb3; stroke-width: 1.5; stroke-linecap: square"/>
   </g>
   <g id="line2d_28">
    <path d="M 288.915261 293.76 
L 288.915261 288.969505 
L 290.38317 288.969505 
L 290.38317 284.17901 
L 294.711267 284.17901 
L 294.711267 279.388515 
L 296.366857 279.388515 
L 296.366857 274.59802 
L 296.598284 274.59802 
L 296.598284 269.807525 
L 297.019377 269.807525 
L 297.019377 265.01703 
L 297.038421 265.01703 
L 297.038421 260.226535 
L 298.645594 260.226535 
L 298.645594 255.43604 
L 298.974556 255.43604 
L 298.974556 250.645545 
L 306.15504 250.645545 
L 306.15504 245.85505 
L 355.874782 245.85505 
L 355.874782 241.064554 
L 356.999163 241.064554 
L 356.999163 236.274059 
L 357.454061 236.274059 
L 357.454061 231.483564 
L 357.969488 231.483564 
L 357.969488 226.693069 
L 358.187858 226.693069 
L 358.187858 221.902574 
L 358.813598 221.902574 
L 358.813598 217.112079 
L 358.900302 217.112079 
L 358.900302 212.321584 
L 359.08227 212.321584 
L 359.08227 207.531089 
L 359.443928 207.531089 
L 359.443928 202.740594 
L 359.520392 202.740594 
L 359.520392 197.950099 
L 359.757918 197.950099 
L 359.757918 193.159604 
L 359.780259 193.159604 
L 359.780259 188.369109 
L 359.856132 188.369109 
L 359.856132 183.578614 
L 360.392359 183.578614 
L 360.392359 178.788119 
L 360.528678 178.788119 
L 360.528678 173.997624 
L 360.642679 173.997624 
L 360.642679 169.207129 
L 361.052349 169.207129 
L 361.052349 164.416634 
L 361.082702 164.416634 
L 361.082702 159.626139 
L 361.303204 159.626139 
L 361.303204 154.835644 
L 361.509713 154.835644 
L 361.509713 150.045149 
L 362.021716 150.045149 
L 362.021716 145.254653 
L 362.245937 145.254653 
L 362.245937 140.464158 
L 362.561258 140.464158 
L 362.561258 135.673663 
L 363.023757 135.673663 
L 363.023757 130.883168 
L 363.110704 130.883168 
L 363.110704 126.092673 
L 365.122991 126.092673 
L 365.122991 121.302178 
L 365.225523 121.302178 
L 365.225523 116.511683 
L 365.71121 116.511683 
L 365.71121 111.721188 
L 365.796813 111.721188 
L 365.796813 106.930693 
L 366.156825 106.930693 
L 366.156825 102.140198 
L 366.502394 102.140198 
L 366.502394 97.349703 
L 367.861427 97.349703 
L 367.861427 92.559208 
L 369.229379 92.559208 
L 369.229379 87.768713 
L 369.707894 87.768713 
L 369.707894 82.978218 
L 369.739844 82.978218 
L 369.739844 78.187723 
L 371.115926 78.187723 
L 371.115926 73.397228 
L 371.475383 73.397228 
L 371.475383 68.606733 
L 371.740488 68.606733 
L 371.740488 63.816238 
L 373.08491 63.816238 
L 373.08491 59.025743 
L 373.399103 59.025743 
L 373.399103 54.235248 
L 374.414313 54.235248 
L 374.414313 49.444752 
L 374.974484 49.444752 
L 374.974484 44.654257 
L 375.409365 44.654257 
L 375.409365 39.863762 
L 376.757845 39.863762 
L 376.757845 35.073267 
L 378.027497 35.073267 
L 378.027497 30.282772 
L 380.426985 30.282772 
L 380.426985 25.492277 
L 410.408772 25.492277 
L 410.408772 20.701782 
L 413.688151 20.701782 
L 413.688151 15.911287 
L 417.842287 15.911287 
L 417.842287 11.120792 
L 446.20677 11.120792 
L 446.20677 6.330297 
L 446.20677 6.330297 
L 446.20677 6.330297 
L 460.8 6.330297 
" clip-path="url(#p8785e1234c)" style="fill: none; stroke: #f5deb3; stroke-width: 1.5; stroke-linecap: square"/>
   </g>
   <g id="line2d_29">
    <path d="M 233.037532 293.76 
L 233.037532 288.969505 
L 233.037532 288.969505 
L 233.037532 284.17901 
L 233.037532 284.17901 
L 233.037532 279.388515 
L 253.126315 279.388515 
L 253.126315 274.59802 
L 253.126315 274.59802 
L 253.126315 269.807525 
L 253.126315 269.807525 
L 253.126315 265.01703 
L 253.492403 265.01703 
L 253.492403 260.226535 
L 253.492403 260.226535 
L 253.492403 255.43604 
L 253.492403 255.43604 
L 253.492403 250.645545 
L 270.952661 250.645545 
L 270.952661 245.85505 
L 270.952661 245.85505 
L 270.952661 241.064554 
L 270.952661 241.064554 
L 270.952661 236.274059 
L 271.436977 236.274059 
L 271.436977 231.483564 
L 271.436977 231.483564 
L 271.436977 226.693069 
L 271.436977 226.693069 
L 271.436977 221.902574 
L 272.254826 221.902574 
L 272.254826 217.112079 
L 272.254826 217.112079 
L 272.254826 212.321584 
L 272.254826 212.321584 
L 272.254826 207.531089 
L 275.4113 207.531089 
L 275.4113 202.740594 
L 275.4113 202.740594 
L 275.4113 197.950099 
L 275.4113 197.950099 
L 275.4113 193.159604 
L 282.54174 193.159604 
L 282.54174 188.369109 
L 282.54174 188.369109 
L 282.54174 183.578614 
L 282.54174 183.578614 
L 282.54174 178.788119 
L 283.671329 178.788119 
L 283.671329 173.997624 
L 283.671329 173.997624 
L 283.671329 169.207129 
L 283.671329 169.207129 
L 283.671329 164.416634 
L 322.00361 164.416634 
L 322.00361 159.626139 
L 322.00361 159.626139 
L 322.00361 154.835644 
L 322.00361 154.835644 
L 322.00361 150.045149 
L 322.00361 150.045149 
L 322.00361 150.045149 
L 460.8 150.045149 
" clip-path="url(#p8785e1234c)" style="fill: none; stroke: #f5deb3; stroke-width: 1.5; stroke-linecap: square"/>
   </g>
   <g id="line2d_30"/>
   <g id="matplotlib.axis_1">
    <g id="xtick_1">
     <g id="line2d_31">
      <path d="M 62.208 293.76 
L 62.208 3.456 
" clip-path="url(#p8785e1234c)" style="fill: none; stroke: #b0b0b0; stroke-width: 0.8; stroke-linecap: square"/>
     </g>
     <g id="line2d_32">
      <defs>
       <path id="m7fc7db8893" d="M 0 0 
L 0 3.5 
" style="stroke: #000000; stroke-width: 0.8"/>
      </defs>
      <g>
       <use xlink:href="#m7fc7db8893" x="62.208" y="293.76" style="stroke: #000000; stroke-width: 0.8"/>
      </g>
     </g>
     <g id="text_1">
      <!-- 0 -->
      <g transform="translate(55.8455 315.956875) scale(0.2 -0.2)">
       <defs>
        <path id="DejaVuSans-30" d="M 2034 4250 
Q 1547 4250 1301 3770 
Q 1056 3291 1056 2328 
Q 1056 1369 1301 889 
Q 1547 409 2034 409 
Q 2525 409 2770 889 
Q 3016 1369 3016 2328 
Q 3016 3291 2770 3770 
Q 2525 4250 2034 4250 
z
M 2034 4750 
Q 2819 4750 3233 4129 
Q 3647 3509 3647 2328 
Q 3647 1150 3233 529 
Q 2819 -91 2034 -91 
Q 1250 -91 836 529 
Q 422 1150 422 2328 
Q 422 3509 836 4129 
Q 1250 4750 2034 4750 
z
" transform="scale(0.015625)"/>
       </defs>
       <use xlink:href="#DejaVuSans-30"/>
      </g>
     </g>
    </g>
    <g id="xtick_2">
     <g id="line2d_33">
      <path d="M 261.504 293.76 
L 261.504 3.456 
" clip-path="url(#p8785e1234c)" style="fill: none; stroke: #b0b0b0; stroke-width: 0.8; stroke-linecap: square"/>
     </g>
     <g id="line2d_34">
      <g>
       <use xlink:href="#m7fc7db8893" x="261.504" y="293.76" style="stroke: #000000; stroke-width: 0.8"/>
      </g>
     </g>
     <g id="text_2">
      <!-- 2 -->
      <g transform="translate(255.1415 315.956875) scale(0.2 -0.2)">
       <defs>
        <path id="DejaVuSans-32" d="M 1228 531 
L 3431 531 
L 3431 0 
L 469 0 
L 469 531 
Q 828 903 1448 1529 
Q 2069 2156 2228 2338 
Q 2531 2678 2651 2914 
Q 2772 3150 2772 3378 
Q 2772 3750 2511 3984 
Q 2250 4219 1831 4219 
Q 1534 4219 1204 4116 
Q 875 4013 500 3803 
L 500 4441 
Q 881 4594 1212 4672 
Q 1544 4750 1819 4750 
Q 2544 4750 2975 4387 
Q 3406 4025 3406 3419 
Q 3406 3131 3298 2873 
Q 3191 2616 2906 2266 
Q 2828 2175 2409 1742 
Q 1991 1309 1228 531 
z
" transform="scale(0.015625)"/>
       </defs>
       <use xlink:href="#DejaVuSans-32"/>
      </g>
     </g>
    </g>
    <g id="xtick_3">
     <g id="line2d_35">
      <path d="M 460.8 293.76 
L 460.8 3.456 
" clip-path="url(#p8785e1234c)" style="fill: none; stroke: #b0b0b0; stroke-width: 0.8; stroke-linecap: square"/>
     </g>
     <g id="line2d_36">
      <g>
       <use xlink:href="#m7fc7db8893" x="460.8" y="293.76" style="stroke: #000000; stroke-width: 0.8"/>
      </g>
     </g>
     <g id="text_3">
      <!-- 4 -->
      <g transform="translate(454.4375 315.956875) scale(0.2 -0.2)">
       <defs>
        <path id="DejaVuSans-34" d="M 2419 4116 
L 825 1625 
L 2419 1625 
L 2419 4116 
z
M 2253 4666 
L 3047 4666 
L 3047 1625 
L 3713 1625 
L 3713 1100 
L 3047 1100 
L 3047 0 
L 2419 0 
L 2419 1100 
L 313 1100 
L 313 1709 
L 2253 4666 
z
" transform="scale(0.015625)"/>
       </defs>
       <use xlink:href="#DejaVuSans-34"/>
      </g>
     </g>
    </g>
    <g id="xtick_4">
     <g id="line2d_37">
      <path d="M 92.205037 293.76 
L 92.205037 3.456 
" clip-path="url(#p8785e1234c)" style="fill: none; stroke: #b0b0b0; stroke-width: 0.8; stroke-linecap: square"/>
     </g>
     <g id="line2d_38">
      <defs>
       <path id="m086fe18d7b" d="M 0 0 
L 0 2 
" style="stroke: #000000; stroke-width: 0.6"/>
      </defs>
      <g>
       <use xlink:href="#m086fe18d7b" x="92.205037" y="293.76" style="stroke: #000000; stroke-width: 0.6"/>
      </g>
     </g>
    </g>
    <g id="xtick_5">
     <g id="line2d_39">
      <path d="M 109.752179 293.76 
L 109.752179 3.456 
" clip-path="url(#p8785e1234c)" style="fill: none; stroke: #b0b0b0; stroke-width: 0.8; stroke-linecap: square"/>
     </g>
     <g id="line2d_40">
      <g>
       <use xlink:href="#m086fe18d7b" x="109.752179" y="293.76" style="stroke: #000000; stroke-width: 0.6"/>
      </g>
     </g>
    </g>
    <g id="xtick_6">
     <g id="line2d_41">
      <path d="M 122.202074 293.76 
L 122.202074 3.456 
" clip-path="url(#p8785e1234c)" style="fill: none; stroke: #b0b0b0; stroke-width: 0.8; stroke-linecap: square"/>
     </g>
     <g id="line2d_42">
      <g>
       <use xlink:href="#m086fe18d7b" x="122.202074" y="293.76" style="stroke: #000000; stroke-width: 0.6"/>
      </g>
     </g>
    </g>
    <g id="xtick_7">
     <g id="line2d_43">
      <path d="M 131.858963 293.76 
L 131.858963 3.456 
" clip-path="url(#p8785e1234c)" style="fill: none; stroke: #b0b0b0; stroke-width: 0.8; stroke-linecap: square"/>
     </g>
     <g id="line2d_44">
      <g>
       <use xlink:href="#m086fe18d7b" x="131.858963" y="293.76" style="stroke: #000000; stroke-width: 0.6"/>
      </g>
     </g>
    </g>
    <g id="xtick_8">
     <g id="line2d_45">
      <path d="M 139.749216 293.76 
L 139.749216 3.456 
" clip-path="url(#p8785e1234c)" style="fill: none; stroke: #b0b0b0; stroke-width: 0.8; stroke-linecap: square"/>
     </g>
     <g id="line2d_46">
      <g>
       <use xlink:href="#m086fe18d7b" x="139.749216" y="293.76" style="stroke: #000000; stroke-width: 0.6"/>
      </g>
     </g>
    </g>
    <g id="xtick_9">
     <g id="line2d_47">
      <path d="M 146.420329 293.76 
L 146.420329 3.456 
" clip-path="url(#p8785e1234c)" style="fill: none; stroke: #b0b0b0; stroke-width: 0.8; stroke-linecap: square"/>
     </g>
     <g id="line2d_48">
      <g>
       <use xlink:href="#m086fe18d7b" x="146.420329" y="293.76" style="stroke: #000000; stroke-width: 0.6"/>
      </g>
     </g>
    </g>
    <g id="xtick_10">
     <g id="line2d_49">
      <path d="M 152.199111 293.76 
L 152.199111 3.456 
" clip-path="url(#p8785e1234c)" style="fill: none; stroke: #b0b0b0; stroke-width: 0.8; stroke-linecap: square"/>
     </g>
     <g id="line2d_50">
      <g>
       <use xlink:href="#m086fe18d7b" x="152.199111" y="293.76" style="stroke: #000000; stroke-width: 0.6"/>
      </g>
     </g>
    </g>
    <g id="xtick_11">
     <g id="line2d_51">
      <path d="M 157.296358 293.76 
L 157.296358 3.456 
" clip-path="url(#p8785e1234c)" style="fill: none; stroke: #b0b0b0; stroke-width: 0.8; stroke-linecap: square"/>
     </g>
     <g id="line2d_52">
      <g>
       <use xlink:href="#m086fe18d7b" x="157.296358" y="293.76" style="stroke: #000000; stroke-width: 0.6"/>
      </g>
     </g>
    </g>
    <g id="xtick_12">
     <g id="line2d_53">
      <path d="M 191.853037 293.76 
L 191.853037 3.456 
" clip-path="url(#p8785e1234c)" style="fill: none; stroke: #b0b0b0; stroke-width: 0.8; stroke-linecap: square"/>
     </g>
     <g id="line2d_54">
      <g>
       <use xlink:href="#m086fe18d7b" x="191.853037" y="293.76" style="stroke: #000000; stroke-width: 0.6"/>
      </g>
     </g>
    </g>
    <g id="xtick_13">
     <g id="line2d_55">
      <path d="M 209.400179 293.76 
L 209.400179 3.456 
" clip-path="url(#p8785e1234c)" style="fill: none; stroke: #b0b0b0; stroke-width: 0.8; stroke-linecap: square"/>
     </g>
     <g id="line2d_56">
      <g>
       <use xlink:href="#m086fe18d7b" x="209.400179" y="293.76" style="stroke: #000000; stroke-width: 0.6"/>
      </g>
     </g>
    </g>
    <g id="xtick_14">
     <g id="line2d_57">
      <path d="M 221.850074 293.76 
L 221.850074 3.456 
" clip-path="url(#p8785e1234c)" style="fill: none; stroke: #b0b0b0; stroke-width: 0.8; stroke-linecap: square"/>
     </g>
     <g id="line2d_58">
      <g>
       <use xlink:href="#m086fe18d7b" x="221.850074" y="293.76" style="stroke: #000000; stroke-width: 0.6"/>
      </g>
     </g>
    </g>
    <g id="xtick_15">
     <g id="line2d_59">
      <path d="M 231.506963 293.76 
L 231.506963 3.456 
" clip-path="url(#p8785e1234c)" style="fill: none; stroke: #b0b0b0; stroke-width: 0.8; stroke-linecap: square"/>
     </g>
     <g id="line2d_60">
      <g>
       <use xlink:href="#m086fe18d7b" x="231.506963" y="293.76" style="stroke: #000000; stroke-width: 0.6"/>
      </g>
     </g>
    </g>
    <g id="xtick_16">
     <g id="line2d_61">
      <path d="M 239.397216 293.76 
L 239.397216 3.456 
" clip-path="url(#p8785e1234c)" style="fill: none; stroke: #b0b0b0; stroke-width: 0.8; stroke-linecap: square"/>
     </g>
     <g id="line2d_62">
      <g>
       <use xlink:href="#m086fe18d7b" x="239.397216" y="293.76" style="stroke: #000000; stroke-width: 0.6"/>
      </g>
     </g>
    </g>
    <g id="xtick_17">
     <g id="line2d_63">
      <path d="M 246.068329 293.76 
L 246.068329 3.456 
" clip-path="url(#p8785e1234c)" style="fill: none; stroke: #b0b0b0; stroke-width: 0.8; stroke-linecap: square"/>
     </g>
     <g id="line2d_64">
      <g>
       <use xlink:href="#m086fe18d7b" x="246.068329" y="293.76" style="stroke: #000000; stroke-width: 0.6"/>
      </g>
     </g>
    </g>
    <g id="xtick_18">
     <g id="line2d_65">
      <path d="M 251.847111 293.76 
L 251.847111 3.456 
" clip-path="url(#p8785e1234c)" style="fill: none; stroke: #b0b0b0; stroke-width: 0.8; stroke-linecap: square"/>
     </g>
     <g id="line2d_66">
      <g>
       <use xlink:href="#m086fe18d7b" x="251.847111" y="293.76" style="stroke: #000000; stroke-width: 0.6"/>
      </g>
     </g>
    </g>
    <g id="xtick_19">
     <g id="line2d_67">
      <path d="M 256.944358 293.76 
L 256.944358 3.456 
" clip-path="url(#p8785e1234c)" style="fill: none; stroke: #b0b0b0; stroke-width: 0.8; stroke-linecap: square"/>
     </g>
     <g id="line2d_68">
      <g>
       <use xlink:href="#m086fe18d7b" x="256.944358" y="293.76" style="stroke: #000000; stroke-width: 0.6"/>
      </g>
     </g>
    </g>
    <g id="xtick_20">
     <g id="line2d_69">
      <path d="M 291.501037 293.76 
L 291.501037 3.456 
" clip-path="url(#p8785e1234c)" style="fill: none; stroke: #b0b0b0; stroke-width: 0.8; stroke-linecap: square"/>
     </g>
     <g id="line2d_70">
      <g>
       <use xlink:href="#m086fe18d7b" x="291.501037" y="293.76" style="stroke: #000000; stroke-width: 0.6"/>
      </g>
     </g>
    </g>
    <g id="xtick_21">
     <g id="line2d_71">
      <path d="M 309.048179 293.76 
L 309.048179 3.456 
" clip-path="url(#p8785e1234c)" style="fill: none; stroke: #b0b0b0; stroke-width: 0.8; stroke-linecap: square"/>
     </g>
     <g id="line2d_72">
      <g>
       <use xlink:href="#m086fe18d7b" x="309.048179" y="293.76" style="stroke: #000000; stroke-width: 0.6"/>
      </g>
     </g>
    </g>
    <g id="xtick_22">
     <g id="line2d_73">
      <path d="M 321.498074 293.76 
L 321.498074 3.456 
" clip-path="url(#p8785e1234c)" style="fill: none; stroke: #b0b0b0; stroke-width: 0.8; stroke-linecap: square"/>
     </g>
     <g id="line2d_74">
      <g>
       <use xlink:href="#m086fe18d7b" x="321.498074" y="293.76" style="stroke: #000000; stroke-width: 0.6"/>
      </g>
     </g>
    </g>
    <g id="xtick_23">
     <g id="line2d_75">
      <path d="M 331.154963 293.76 
L 331.154963 3.456 
" clip-path="url(#p8785e1234c)" style="fill: none; stroke: #b0b0b0; stroke-width: 0.8; stroke-linecap: square"/>
     </g>
     <g id="line2d_76">
      <g>
       <use xlink:href="#m086fe18d7b" x="331.154963" y="293.76" style="stroke: #000000; stroke-width: 0.6"/>
      </g>
     </g>
    </g>
    <g id="xtick_24">
     <g id="line2d_77">
      <path d="M 339.045216 293.76 
L 339.045216 3.456 
" clip-path="url(#p8785e1234c)" style="fill: none; stroke: #b0b0b0; stroke-width: 0.8; stroke-linecap: square"/>
     </g>
     <g id="line2d_78">
      <g>
       <use xlink:href="#m086fe18d7b" x="339.045216" y="293.76" style="stroke: #000000; stroke-width: 0.6"/>
      </g>
     </g>
    </g>
    <g id="xtick_25">
     <g id="line2d_79">
      <path d="M 345.716329 293.76 
L 345.716329 3.456 
" clip-path="url(#p8785e1234c)" style="fill: none; stroke: #b0b0b0; stroke-width: 0.8; stroke-linecap: square"/>
     </g>
     <g id="line2d_80">
      <g>
       <use xlink:href="#m086fe18d7b" x="345.716329" y="293.76" style="stroke: #000000; stroke-width: 0.6"/>
      </g>
     </g>
    </g>
    <g id="xtick_26">
     <g id="line2d_81">
      <path d="M 351.495111 293.76 
L 351.495111 3.456 
" clip-path="url(#p8785e1234c)" style="fill: none; stroke: #b0b0b0; stroke-width: 0.8; stroke-linecap: square"/>
     </g>
     <g id="line2d_82">
      <g>
       <use xlink:href="#m086fe18d7b" x="351.495111" y="293.76" style="stroke: #000000; stroke-width: 0.6"/>
      </g>
     </g>
    </g>
    <g id="xtick_27">
     <g id="line2d_83">
      <path d="M 356.592358 293.76 
L 356.592358 3.456 
" clip-path="url(#p8785e1234c)" style="fill: none; stroke: #b0b0b0; stroke-width: 0.8; stroke-linecap: square"/>
     </g>
     <g id="line2d_84">
      <g>
       <use xlink:href="#m086fe18d7b" x="356.592358" y="293.76" style="stroke: #000000; stroke-width: 0.6"/>
      </g>
     </g>
    </g>
    <g id="xtick_28">
     <g id="line2d_85">
      <path d="M 391.149037 293.76 
L 391.149037 3.456 
" clip-path="url(#p8785e1234c)" style="fill: none; stroke: #b0b0b0; stroke-width: 0.8; stroke-linecap: square"/>
     </g>
     <g id="line2d_86">
      <g>
       <use xlink:href="#m086fe18d7b" x="391.149037" y="293.76" style="stroke: #000000; stroke-width: 0.6"/>
      </g>
     </g>
    </g>
    <g id="xtick_29">
     <g id="line2d_87">
      <path d="M 408.696179 293.76 
L 408.696179 3.456 
" clip-path="url(#p8785e1234c)" style="fill: none; stroke: #b0b0b0; stroke-width: 0.8; stroke-linecap: square"/>
     </g>
     <g id="line2d_88">
      <g>
       <use xlink:href="#m086fe18d7b" x="408.696179" y="293.76" style="stroke: #000000; stroke-width: 0.6"/>
      </g>
     </g>
    </g>
    <g id="xtick_30">
     <g id="line2d_89">
      <path d="M 421.146074 293.76 
L 421.146074 3.456 
" clip-path="url(#p8785e1234c)" style="fill: none; stroke: #b0b0b0; stroke-width: 0.8; stroke-linecap: square"/>
     </g>
     <g id="line2d_90">
      <g>
       <use xlink:href="#m086fe18d7b" x="421.146074" y="293.76" style="stroke: #000000; stroke-width: 0.6"/>
      </g>
     </g>
    </g>
    <g id="xtick_31">
     <g id="line2d_91">
      <path d="M 430.802963 293.76 
L 430.802963 3.456 
" clip-path="url(#p8785e1234c)" style="fill: none; stroke: #b0b0b0; stroke-width: 0.8; stroke-linecap: square"/>
     </g>
     <g id="line2d_92">
      <g>
       <use xlink:href="#m086fe18d7b" x="430.802963" y="293.76" style="stroke: #000000; stroke-width: 0.6"/>
      </g>
     </g>
    </g>
    <g id="xtick_32">
     <g id="line2d_93">
      <path d="M 438.693216 293.76 
L 438.693216 3.456 
" clip-path="url(#p8785e1234c)" style="fill: none; stroke: #b0b0b0; stroke-width: 0.8; stroke-linecap: square"/>
     </g>
     <g id="line2d_94">
      <g>
       <use xlink:href="#m086fe18d7b" x="438.693216" y="293.76" style="stroke: #000000; stroke-width: 0.6"/>
      </g>
     </g>
    </g>
    <g id="xtick_33">
     <g id="line2d_95">
      <path d="M 445.364329 293.76 
L 445.364329 3.456 
" clip-path="url(#p8785e1234c)" style="fill: none; stroke: #b0b0b0; stroke-width: 0.8; stroke-linecap: square"/>
     </g>
     <g id="line2d_96">
      <g>
       <use xlink:href="#m086fe18d7b" x="445.364329" y="293.76" style="stroke: #000000; stroke-width: 0.6"/>
      </g>
     </g>
    </g>
    <g id="xtick_34">
     <g id="line2d_97">
      <path d="M 451.143111 293.76 
L 451.143111 3.456 
" clip-path="url(#p8785e1234c)" style="fill: none; stroke: #b0b0b0; stroke-width: 0.8; stroke-linecap: square"/>
     </g>
     <g id="line2d_98">
      <g>
       <use xlink:href="#m086fe18d7b" x="451.143111" y="293.76" style="stroke: #000000; stroke-width: 0.6"/>
      </g>
     </g>
    </g>
    <g id="xtick_35">
     <g id="line2d_99">
      <path d="M 456.240358 293.76 
L 456.240358 3.456 
" clip-path="url(#p8785e1234c)" style="fill: none; stroke: #b0b0b0; stroke-width: 0.8; stroke-linecap: square"/>
     </g>
     <g id="line2d_100">
      <g>
       <use xlink:href="#m086fe18d7b" x="456.240358" y="293.76" style="stroke: #000000; stroke-width: 0.6"/>
      </g>
     </g>
    </g>
    <g id="text_4">
     <!-- log10 of FEvals / DIM -->
     <g transform="translate(156.430563 339.313125) scale(0.2 -0.2)">
      <defs>
       <path id="DejaVuSans-6c" d="M 603 4863 
L 1178 4863 
L 1178 0 
L 603 0 
L 603 4863 
z
" transform="scale(0.015625)"/>
       <path id="DejaVuSans-6f" d="M 1959 3097 
Q 1497 3097 1228 2736 
Q 959 2375 959 1747 
Q 959 1119 1226 758 
Q 1494 397 1959 397 
Q 2419 397 2687 759 
Q 2956 1122 2956 1747 
Q 2956 2369 2687 2733 
Q 2419 3097 1959 3097 
z
M 1959 3584 
Q 2709 3584 3137 3096 
Q 3566 2609 3566 1747 
Q 3566 888 3137 398 
Q 2709 -91 1959 -91 
Q 1206 -91 779 398 
Q 353 888 353 1747 
Q 353 2609 779 3096 
Q 1206 3584 1959 3584 
z
" transform="scale(0.015625)"/>
       <path id="DejaVuSans-67" d="M 2906 1791 
Q 2906 2416 2648 2759 
Q 2391 3103 1925 3103 
Q 1463 3103 1205 2759 
Q 947 2416 947 1791 
Q 947 1169 1205 825 
Q 1463 481 1925 481 
Q 2391 481 2648 825 
Q 2906 1169 2906 1791 
z
M 3481 434 
Q 3481 -459 3084 -895 
Q 2688 -1331 1869 -1331 
Q 1566 -1331 1297 -1286 
Q 1028 -1241 775 -1147 
L 775 -588 
Q 1028 -725 1275 -790 
Q 1522 -856 1778 -856 
Q 2344 -856 2625 -561 
Q 2906 -266 2906 331 
L 2906 616 
Q 2728 306 2450 153 
Q 2172 0 1784 0 
Q 1141 0 747 490 
Q 353 981 353 1791 
Q 353 2603 747 3093 
Q 1141 3584 1784 3584 
Q 2172 3584 2450 3431 
Q 2728 3278 2906 2969 
L 2906 3500 
L 3481 3500 
L 3481 434 
z
" transform="scale(0.015625)"/>
       <path id="DejaVuSans-31" d="M 794 531 
L 1825 531 
L 1825 4091 
L 703 3866 
L 703 4441 
L 1819 4666 
L 2450 4666 
L 2450 531 
L 3481 531 
L 3481 0 
L 794 0 
L 794 531 
z
" transform="scale(0.015625)"/>
       <path id="DejaVuSans-20" transform="scale(0.015625)"/>
       <path id="DejaVuSans-66" d="M 2375 4863 
L 2375 4384 
L 1825 4384 
Q 1516 4384 1395 4259 
Q 1275 4134 1275 3809 
L 1275 3500 
L 2222 3500 
L 2222 3053 
L 1275 3053 
L 1275 0 
L 697 0 
L 697 3053 
L 147 3053 
L 147 3500 
L 697 3500 
L 697 3744 
Q 697 4328 969 4595 
Q 1241 4863 1831 4863 
L 2375 4863 
z
" transform="scale(0.015625)"/>
       <path id="DejaVuSans-46" d="M 628 4666 
L 3309 4666 
L 3309 4134 
L 1259 4134 
L 1259 2759 
L 3109 2759 
L 3109 2228 
L 1259 2228 
L 1259 0 
L 628 0 
L 628 4666 
z
" transform="scale(0.015625)"/>
       <path id="DejaVuSans-45" d="M 628 4666 
L 3578 4666 
L 3578 4134 
L 1259 4134 
L 1259 2753 
L 3481 2753 
L 3481 2222 
L 1259 2222 
L 1259 531 
L 3634 531 
L 3634 0 
L 628 0 
L 628 4666 
z
" transform="scale(0.015625)"/>
       <path id="DejaVuSans-76" d="M 191 3500 
L 800 3500 
L 1894 563 
L 2988 3500 
L 3597 3500 
L 2284 0 
L 1503 0 
L 191 3500 
z
" transform="scale(0.015625)"/>
       <path id="DejaVuSans-61" d="M 2194 1759 
Q 1497 1759 1228 1600 
Q 959 1441 959 1056 
Q 959 750 1161 570 
Q 1363 391 1709 391 
Q 2188 391 2477 730 
Q 2766 1069 2766 1631 
L 2766 1759 
L 2194 1759 
z
M 3341 1997 
L 3341 0 
L 2766 0 
L 2766 531 
Q 2569 213 2275 61 
Q 1981 -91 1556 -91 
Q 1019 -91 701 211 
Q 384 513 384 1019 
Q 384 1609 779 1909 
Q 1175 2209 1959 2209 
L 2766 2209 
L 2766 2266 
Q 2766 2663 2505 2880 
Q 2244 3097 1772 3097 
Q 1472 3097 1187 3025 
Q 903 2953 641 2809 
L 641 3341 
Q 956 3463 1253 3523 
Q 1550 3584 1831 3584 
Q 2591 3584 2966 3190 
Q 3341 2797 3341 1997 
z
" transform="scale(0.015625)"/>
       <path id="DejaVuSans-73" d="M 2834 3397 
L 2834 2853 
Q 2591 2978 2328 3040 
Q 2066 3103 1784 3103 
Q 1356 3103 1142 2972 
Q 928 2841 928 2578 
Q 928 2378 1081 2264 
Q 1234 2150 1697 2047 
L 1894 2003 
Q 2506 1872 2764 1633 
Q 3022 1394 3022 966 
Q 3022 478 2636 193 
Q 2250 -91 1575 -91 
Q 1294 -91 989 -36 
Q 684 19 347 128 
L 347 722 
Q 666 556 975 473 
Q 1284 391 1588 391 
Q 1994 391 2212 530 
Q 2431 669 2431 922 
Q 2431 1156 2273 1281 
Q 2116 1406 1581 1522 
L 1381 1569 
Q 847 1681 609 1914 
Q 372 2147 372 2553 
Q 372 3047 722 3315 
Q 1072 3584 1716 3584 
Q 2034 3584 2315 3537 
Q 2597 3491 2834 3397 
z
" transform="scale(0.015625)"/>
       <path id="DejaVuSans-2f" d="M 1625 4666 
L 2156 4666 
L 531 -594 
L 0 -594 
L 1625 4666 
z
" transform="scale(0.015625)"/>
       <path id="DejaVuSans-44" d="M 1259 4147 
L 1259 519 
L 2022 519 
Q 2988 519 3436 956 
Q 3884 1394 3884 2338 
Q 3884 3275 3436 3711 
Q 2988 4147 2022 4147 
L 1259 4147 
z
M 628 4666 
L 1925 4666 
Q 3281 4666 3915 4102 
Q 4550 3538 4550 2338 
Q 4550 1131 3912 565 
Q 3275 0 1925 0 
L 628 0 
L 628 4666 
z
" transform="scale(0.015625)"/>
       <path id="DejaVuSans-49" d="M 628 4666 
L 1259 4666 
L 1259 0 
L 628 0 
L 628 4666 
z
" transform="scale(0.015625)"/>
       <path id="DejaVuSans-4d" d="M 628 4666 
L 1569 4666 
L 2759 1491 
L 3956 4666 
L 4897 4666 
L 4897 0 
L 4281 0 
L 4281 4097 
L 3078 897 
L 2444 897 
L 1241 4097 
L 1241 0 
L 628 0 
L 628 4666 
z
" transform="scale(0.015625)"/>
      </defs>
      <use xlink:href="#DejaVuSans-6c"/>
      <use xlink:href="#DejaVuSans-6f" x="27.783203"/>
      <use xlink:href="#DejaVuSans-67" x="88.964844"/>
      <use xlink:href="#DejaVuSans-31" x="152.441406"/>
      <use xlink:href="#DejaVuSans-30" x="216.064453"/>
      <use xlink:href="#DejaVuSans-20" x="279.6875"/>
      <use xlink:href="#DejaVuSans-6f" x="311.474609"/>
      <use xlink:href="#DejaVuSans-66" x="372.65625"/>
      <use xlink:href="#DejaVuSans-20" x="407.861328"/>
      <use xlink:href="#DejaVuSans-46" x="439.648438"/>
      <use xlink:href="#DejaVuSans-45" x="497.167969"/>
      <use xlink:href="#DejaVuSans-76" x="560.351562"/>
      <use xlink:href="#DejaVuSans-61" x="619.53125"/>
      <use xlink:href="#DejaVuSans-6c" x="680.810547"/>
      <use xlink:href="#DejaVuSans-73" x="708.59375"/>
      <use xlink:href="#DejaVuSans-20" x="760.693359"/>
      <use xlink:href="#DejaVuSans-2f" x="792.480469"/>
      <use xlink:href="#DejaVuSans-20" x="826.171875"/>
      <use xlink:href="#DejaVuSans-44" x="857.958984"/>
      <use xlink:href="#DejaVuSans-49" x="934.960938"/>
      <use xlink:href="#DejaVuSans-4d" x="964.453125"/>
     </g>
    </g>
   </g>
   <g id="matplotlib.axis_2">
    <g id="ytick_1">
     <g id="line2d_101">
      <path d="M 62.208 293.76 
L 460.8 293.76 
" clip-path="url(#p8785e1234c)" style="fill: none; stroke: #b0b0b0; stroke-width: 0.8; stroke-linecap: square"/>
     </g>
     <g id="line2d_102">
      <defs>
       <path id="ma8761223e8" d="M 0 0 
L -3.5 0 
" style="stroke: #000000; stroke-width: 0.8"/>
      </defs>
      <g>
       <use xlink:href="#ma8761223e8" x="62.208" y="293.76" style="stroke: #000000; stroke-width: 0.8"/>
      </g>
     </g>
     <g id="text_5">
      <!-- 0.0 -->
      <g transform="translate(29.763 299.83875) scale(0.16 -0.16)">
       <defs>
        <path id="DejaVuSans-2e" d="M 684 794 
L 1344 794 
L 1344 0 
L 684 0 
L 684 794 
z
" transform="scale(0.015625)"/>
       </defs>
       <use xlink:href="#DejaVuSans-30"/>
       <use xlink:href="#DejaVuSans-2e" x="63.623047"/>
       <use xlink:href="#DejaVuSans-30" x="95.410156"/>
      </g>
     </g>
    </g>
    <g id="ytick_2">
     <g id="line2d_103">
      <path d="M 62.208 236.274059 
L 460.8 236.274059 
" clip-path="url(#p8785e1234c)" style="fill: none; stroke: #b0b0b0; stroke-width: 0.8; stroke-linecap: square"/>
     </g>
     <g id="line2d_104">
      <g>
       <use xlink:href="#ma8761223e8" x="62.208" y="236.274059" style="stroke: #000000; stroke-width: 0.8"/>
      </g>
     </g>
     <g id="text_6">
      <!-- 0.2 -->
      <g transform="translate(29.763 242.352809) scale(0.16 -0.16)">
       <use xlink:href="#DejaVuSans-30"/>
       <use xlink:href="#DejaVuSans-2e" x="63.623047"/>
       <use xlink:href="#DejaVuSans-32" x="95.410156"/>
      </g>
     </g>
    </g>
    <g id="ytick_3">
     <g id="line2d_105">
      <path d="M 62.208 178.788119 
L 460.8 178.788119 
" clip-path="url(#p8785e1234c)" style="fill: none; stroke: #b0b0b0; stroke-width: 0.8; stroke-linecap: square"/>
     </g>
     <g id="line2d_106">
      <g>
       <use xlink:href="#ma8761223e8" x="62.208" y="178.788119" style="stroke: #000000; stroke-width: 0.8"/>
      </g>
     </g>
     <g id="text_7">
      <!-- 0.4 -->
      <g transform="translate(29.763 184.866869) scale(0.16 -0.16)">
       <use xlink:href="#DejaVuSans-30"/>
       <use xlink:href="#DejaVuSans-2e" x="63.623047"/>
       <use xlink:href="#DejaVuSans-34" x="95.410156"/>
      </g>
     </g>
    </g>
    <g id="ytick_4">
     <g id="line2d_107">
      <path d="M 62.208 121.302178 
L 460.8 121.302178 
" clip-path="url(#p8785e1234c)" style="fill: none; stroke: #b0b0b0; stroke-width: 0.8; stroke-linecap: square"/>
     </g>
     <g id="line2d_108">
      <g>
       <use xlink:href="#ma8761223e8" x="62.208" y="121.302178" style="stroke: #000000; stroke-width: 0.8"/>
      </g>
     </g>
     <g id="text_8">
      <!-- 0.6 -->
      <g transform="translate(29.763 127.380928) scale(0.16 -0.16)">
       <defs>
        <path id="DejaVuSans-36" d="M 2113 2584 
Q 1688 2584 1439 2293 
Q 1191 2003 1191 1497 
Q 1191 994 1439 701 
Q 1688 409 2113 409 
Q 2538 409 2786 701 
Q 3034 994 3034 1497 
Q 3034 2003 2786 2293 
Q 2538 2584 2113 2584 
z
M 3366 4563 
L 3366 3988 
Q 3128 4100 2886 4159 
Q 2644 4219 2406 4219 
Q 1781 4219 1451 3797 
Q 1122 3375 1075 2522 
Q 1259 2794 1537 2939 
Q 1816 3084 2150 3084 
Q 2853 3084 3261 2657 
Q 3669 2231 3669 1497 
Q 3669 778 3244 343 
Q 2819 -91 2113 -91 
Q 1303 -91 875 529 
Q 447 1150 447 2328 
Q 447 3434 972 4092 
Q 1497 4750 2381 4750 
Q 2619 4750 2861 4703 
Q 3103 4656 3366 4563 
z
" transform="scale(0.015625)"/>
       </defs>
       <use xlink:href="#DejaVuSans-30"/>
       <use xlink:href="#DejaVuSans-2e" x="63.623047"/>
       <use xlink:href="#DejaVuSans-36" x="95.410156"/>
      </g>
     </g>
    </g>
    <g id="ytick_5">
     <g id="line2d_109">
      <path d="M 62.208 63.816238 
L 460.8 63.816238 
" clip-path="url(#p8785e1234c)" style="fill: none; stroke: #b0b0b0; stroke-width: 0.8; stroke-linecap: square"/>
     </g>
     <g id="line2d_110">
      <g>
       <use xlink:href="#ma8761223e8" x="62.208" y="63.816238" style="stroke: #000000; stroke-width: 0.8"/>
      </g>
     </g>
     <g id="text_9">
      <!-- 0.8 -->
      <g transform="translate(29.763 69.894988) scale(0.16 -0.16)">
       <defs>
        <path id="DejaVuSans-38" d="M 2034 2216 
Q 1584 2216 1326 1975 
Q 1069 1734 1069 1313 
Q 1069 891 1326 650 
Q 1584 409 2034 409 
Q 2484 409 2743 651 
Q 3003 894 3003 1313 
Q 3003 1734 2745 1975 
Q 2488 2216 2034 2216 
z
M 1403 2484 
Q 997 2584 770 2862 
Q 544 3141 544 3541 
Q 544 4100 942 4425 
Q 1341 4750 2034 4750 
Q 2731 4750 3128 4425 
Q 3525 4100 3525 3541 
Q 3525 3141 3298 2862 
Q 3072 2584 2669 2484 
Q 3125 2378 3379 2068 
Q 3634 1759 3634 1313 
Q 3634 634 3220 271 
Q 2806 -91 2034 -91 
Q 1263 -91 848 271 
Q 434 634 434 1313 
Q 434 1759 690 2068 
Q 947 2378 1403 2484 
z
M 1172 3481 
Q 1172 3119 1398 2916 
Q 1625 2713 2034 2713 
Q 2441 2713 2670 2916 
Q 2900 3119 2900 3481 
Q 2900 3844 2670 4047 
Q 2441 4250 2034 4250 
Q 1625 4250 1398 4047 
Q 1172 3844 1172 3481 
z
" transform="scale(0.015625)"/>
       </defs>
       <use xlink:href="#DejaVuSans-30"/>
       <use xlink:href="#DejaVuSans-2e" x="63.623047"/>
       <use xlink:href="#DejaVuSans-38" x="95.410156"/>
      </g>
     </g>
    </g>
    <g id="ytick_6">
     <g id="line2d_111">
      <path d="M 62.208 6.330297 
L 460.8 6.330297 
" clip-path="url(#p8785e1234c)" style="fill: none; stroke: #b0b0b0; stroke-width: 0.8; stroke-linecap: square"/>
     </g>
     <g id="line2d_112">
      <g>
       <use xlink:href="#ma8761223e8" x="62.208" y="6.330297" style="stroke: #000000; stroke-width: 0.8"/>
      </g>
     </g>
     <g id="text_10">
      <!-- 1.0 -->
      <g transform="translate(29.763 12.409047) scale(0.16 -0.16)">
       <use xlink:href="#DejaVuSans-31"/>
       <use xlink:href="#DejaVuSans-2e" x="63.623047"/>
       <use xlink:href="#DejaVuSans-30" x="95.410156"/>
      </g>
     </g>
    </g>
    <g id="text_11">
     <!-- proportion of trials -->
     <g transform="translate(21.603625 241.61425) rotate(-90) scale(0.2 -0.2)">
      <defs>
       <path id="DejaVuSans-70" d="M 1159 525 
L 1159 -1331 
L 581 -1331 
L 581 3500 
L 1159 3500 
L 1159 2969 
Q 1341 3281 1617 3432 
Q 1894 3584 2278 3584 
Q 2916 3584 3314 3078 
Q 3713 2572 3713 1747 
Q 3713 922 3314 415 
Q 2916 -91 2278 -91 
Q 1894 -91 1617 61 
Q 1341 213 1159 525 
z
M 3116 1747 
Q 3116 2381 2855 2742 
Q 2594 3103 2138 3103 
Q 1681 3103 1420 2742 
Q 1159 2381 1159 1747 
Q 1159 1113 1420 752 
Q 1681 391 2138 391 
Q 2594 391 2855 752 
Q 3116 1113 3116 1747 
z
" transform="scale(0.015625)"/>
       <path id="DejaVuSans-72" d="M 2631 2963 
Q 2534 3019 2420 3045 
Q 2306 3072 2169 3072 
Q 1681 3072 1420 2755 
Q 1159 2438 1159 1844 
L 1159 0 
L 581 0 
L 581 3500 
L 1159 3500 
L 1159 2956 
Q 1341 3275 1631 3429 
Q 1922 3584 2338 3584 
Q 2397 3584 2469 3576 
Q 2541 3569 2628 3553 
L 2631 2963 
z
" transform="scale(0.015625)"/>
       <path id="DejaVuSans-74" d="M 1172 4494 
L 1172 3500 
L 2356 3500 
L 2356 3053 
L 1172 3053 
L 1172 1153 
Q 1172 725 1289 603 
Q 1406 481 1766 481 
L 2356 481 
L 2356 0 
L 1766 0 
Q 1100 0 847 248 
Q 594 497 594 1153 
L 594 3053 
L 172 3053 
L 172 3500 
L 594 3500 
L 594 4494 
L 1172 4494 
z
" transform="scale(0.015625)"/>
       <path id="DejaVuSans-69" d="M 603 3500 
L 1178 3500 
L 1178 0 
L 603 0 
L 603 3500 
z
M 603 4863 
L 1178 4863 
L 1178 4134 
L 603 4134 
L 603 4863 
z
" transform="scale(0.015625)"/>
       <path id="DejaVuSans-6e" d="M 3513 2113 
L 3513 0 
L 2938 0 
L 2938 2094 
Q 2938 2591 2744 2837 
Q 2550 3084 2163 3084 
Q 1697 3084 1428 2787 
Q 1159 2491 1159 1978 
L 1159 0 
L 581 0 
L 581 3500 
L 1159 3500 
L 1159 2956 
Q 1366 3272 1645 3428 
Q 1925 3584 2291 3584 
Q 2894 3584 3203 3211 
Q 3513 2838 3513 2113 
z
" transform="scale(0.015625)"/>
      </defs>
      <use xlink:href="#DejaVuSans-70"/>
      <use xlink:href="#DejaVuSans-72" x="63.476562"/>
      <use xlink:href="#DejaVuSans-6f" x="102.339844"/>
      <use xlink:href="#DejaVuSans-70" x="163.521484"/>
      <use xlink:href="#DejaVuSans-6f" x="226.998047"/>
      <use xlink:href="#DejaVuSans-72" x="288.179688"/>
      <use xlink:href="#DejaVuSans-74" x="329.292969"/>
      <use xlink:href="#DejaVuSans-69" x="368.501953"/>
      <use xlink:href="#DejaVuSans-6f" x="396.285156"/>
      <use xlink:href="#DejaVuSans-6e" x="457.466797"/>
      <use xlink:href="#DejaVuSans-20" x="520.845703"/>
      <use xlink:href="#DejaVuSans-6f" x="552.632812"/>
      <use xlink:href="#DejaVuSans-66" x="613.814453"/>
      <use xlink:href="#DejaVuSans-20" x="649.019531"/>
      <use xlink:href="#DejaVuSans-74" x="680.806641"/>
      <use xlink:href="#DejaVuSans-72" x="720.015625"/>
      <use xlink:href="#DejaVuSans-69" x="761.128906"/>
      <use xlink:href="#DejaVuSans-61" x="788.912109"/>
      <use xlink:href="#DejaVuSans-6c" x="850.191406"/>
      <use xlink:href="#DejaVuSans-73" x="877.974609"/>
     </g>
    </g>
   </g>
   <g id="line2d_113">
    <path d="M 148.825202 293.76 
L 148.825202 288.969505 
L 161.856 288.969505 
L 161.856 284.17901 
L 190.757369 284.17901 
L 190.757369 279.388515 
L 199.198923 279.388515 
L 199.198923 274.59802 
L 204.194605 274.59802 
L 204.194605 269.807525 
L 214.304656 269.807525 
L 214.304656 265.01703 
L 219.172318 265.01703 
L 219.172318 260.226535 
L 224.4737 260.226535 
L 224.4737 255.43604 
L 226.366418 255.43604 
L 226.366418 250.645545 
L 226.366418 250.645545 
L 226.366418 245.85505 
L 227.234874 245.85505 
L 227.234874 241.064554 
L 227.99247 241.064554 
L 227.99247 236.274059 
L 228.179815 236.274059 
L 228.179815 231.483564 
L 228.552089 231.483564 
L 228.552089 226.693069 
L 233.453256 226.693069 
L 233.453256 221.902574 
L 233.618434 221.902574 
L 233.618434 217.112079 
L 234.757357 217.112079 
L 234.757357 212.321584 
L 235.077333 212.321584 
L 235.077333 207.531089 
L 237.930073 207.531089 
L 237.930073 202.740594 
L 238.522912 202.740594 
L 238.522912 197.950099 
L 243.060469 197.950099 
L 243.060469 193.159604 
L 243.324754 193.159604 
L 243.324754 188.369109 
L 249.2843 188.369109 
L 249.2843 183.578614 
L 249.513277 183.578614 
L 249.513277 178.788119 
L 251.35749 178.788119 
L 251.35749 173.997624 
L 251.412167 173.997624 
L 251.412167 169.207129 
L 252.597901 169.207129 
L 252.597901 164.416634 
L 252.651033 164.416634 
L 252.651033 159.626139 
L 253.85542 159.626139 
L 253.85542 154.835644 
L 253.85542 154.835644 
L 253.85542 150.045149 
L 257.801347 150.045149 
L 257.801347 145.254653 
L 260.408332 145.254653 
L 260.408332 140.464158 
L 260.408332 140.464158 
L 260.408332 135.673663 
L 261.805881 135.673663 
L 261.805881 130.883168 
L 262.614812 130.883168 
L 262.614812 126.092673 
L 264.025679 126.092673 
L 264.025679 121.302178 
L 264.593515 121.302178 
L 264.593515 116.511683 
L 265.193754 116.511683 
L 265.193754 111.721188 
L 266.059315 111.721188 
L 266.059315 106.930693 
L 269.896224 106.930693 
L 269.896224 102.140198 
L 273.813017 102.140198 
L 273.813017 97.349703 
L 273.975528 97.349703 
L 273.975528 92.559208 
L 274.007957 92.559208 
L 274.007957 87.768713 
L 275.910531 87.768713 
L 275.910531 82.978218 
L 277.194252 82.978218 
L 277.194252 78.187723 
L 280.218157 78.187723 
L 280.218157 73.397228 
L 283.280626 73.397228 
L 283.280626 68.606733 
L 283.411253 68.606733 
L 283.411253 63.816238 
L 285.324764 63.816238 
L 285.324764 59.025743 
L 285.91964 59.025743 
L 285.91964 54.235248 
L 288.638733 54.235248 
L 288.638733 49.444752 
L 291.436073 49.444752 
L 291.436073 44.654257 
L 298.48017 44.654257 
L 298.48017 39.863762 
L 300.407093 39.863762 
L 300.407093 35.073267 
L 301.244393 35.073267 
L 301.244393 30.282772 
L 302.403504 30.282772 
L 302.403504 25.492277 
L 303.186887 25.492277 
L 303.186887 20.701782 
L 309.621387 20.701782 
L 309.621387 15.911287 
L 309.735123 15.911287 
L 309.735123 11.120792 
L 309.891024 11.120792 
L 309.891024 6.330297 
L 309.891024 6.330297 
L 309.891024 6.330297 
L 460.8 6.330297 
" clip-path="url(#p8785e1234c)" style="fill: none; stroke: #000000; stroke-width: 1.5; stroke-linecap: square"/>
   </g>
   <g id="line2d_114">
    <path clip-path="url(#p8785e1234c)" style="fill: none; stroke: #000000; stroke-width: 1.5; stroke-linecap: square"/>
   </g>
   <g id="line2d_115">
    <path d="M 299.481356 293.76 
L 299.481356 288.969505 
L 308.584082 288.969505 
L 308.584082 284.17901 
L 308.598661 284.17901 
L 308.598661 279.388515 
L 311.07714 279.388515 
L 311.07714 274.59802 
L 311.868224 274.59802 
L 311.868224 269.807525 
L 312.645107 269.807525 
L 312.645107 265.01703 
L 313.499494 265.01703 
L 313.499494 260.226535 
L 317.452283 260.226535 
L 317.452283 255.43604 
L 318.287606 255.43604 
L 318.287606 250.645545 
L 320.656877 250.645545 
L 320.656877 245.85505 
L 321.422274 245.85505 
L 321.422274 241.064554 
L 323.112108 241.064554 
L 323.112108 236.274059 
L 324.49683 236.274059 
L 324.49683 231.483564 
L 327.461738 231.483564 
L 327.461738 226.693069 
L 327.995734 226.693069 
L 327.995734 221.902574 
L 328.163005 221.902574 
L 328.163005 217.112079 
L 328.375803 217.112079 
L 328.375803 212.321584 
L 329.207631 212.321584 
L 329.207631 207.531089 
L 329.532342 207.531089 
L 329.532342 202.740594 
L 330.023771 202.740594 
L 330.023771 197.950099 
L 330.307147 197.950099 
L 330.307147 193.159604 
L 331.405242 193.159604 
L 331.405242 188.369109 
L 333.059863 188.369109 
L 333.059863 183.578614 
L 333.439195 183.578614 
L 333.439195 178.788119 
L 334.147662 178.788119 
L 334.147662 173.997624 
L 335.647908 173.997624 
L 335.647908 169.207129 
L 335.671307 169.207129 
L 335.671307 164.416634 
L 338.690339 164.416634 
L 338.690339 159.626139 
L 339.589943 159.626139 
L 339.589943 154.835644 
L 339.845598 154.835644 
L 339.845598 150.045149 
L 342.502532 150.045149 
L 342.502532 145.254653 
L 344.759937 145.254653 
L 344.759937 140.464158 
L 345.300116 140.464158 
L 345.300116 135.673663 
L 345.691593 135.673663 
L 345.691593 130.883168 
L 346.195887 130.883168 
L 346.195887 126.092673 
L 347.413668 126.092673 
L 347.413668 121.302178 
L 347.980618 121.302178 
L 347.980618 116.511683 
L 348.313764 116.511683 
L 348.313764 111.721188 
L 349.315155 111.721188 
L 349.315155 106.930693 
L 351.770124 106.930693 
L 351.770124 102.140198 
L 353.156023 102.140198 
L 353.156023 97.349703 
L 360.484751 97.349703 
L 360.484751 92.559208 
L 362.920021 92.559208 
L 362.920021 87.768713 
L 362.920021 87.768713 
L 362.920021 87.768713 
L 460.8 87.768713 
" clip-path="url(#p8785e1234c)" style="fill: none; stroke: #00bfbf; stroke-width: 1.5; stroke-linecap: square"/>
   </g>
   <g id="line2d_116">
    <path clip-path="url(#p8785e1234c)" style="fill: none; stroke: #00bfbf; stroke-width: 1.5; stroke-linecap: square"/>
   </g>
   <g id="line2d_117">
    <path d="M 327.461738 293.76 
L 327.461738 288.969505 
L 329.934835 288.969505 
L 329.934835 284.17901 
L 331.782233 284.17901 
L 331.782233 279.388515 
L 333.422772 279.388515 
L 333.422772 274.59802 
L 333.439195 274.59802 
L 333.439195 269.807525 
L 333.439195 269.807525 
L 333.439195 265.01703 
L 336.45944 265.01703 
L 336.45944 260.226535 
L 337.592993 260.226535 
L 337.592993 255.43604 
L 341.872019 255.43604 
L 341.872019 250.645545 
L 342.027144 250.645545 
L 342.027144 245.85505 
L 342.409206 245.85505 
L 342.409206 241.064554 
L 343.568057 241.064554 
L 343.568057 236.274059 
L 343.975446 236.274059 
L 343.975446 231.483564 
L 344.05261 231.483564 
L 344.05261 226.693069 
L 345.281385 226.693069 
L 345.281385 221.902574 
L 345.691593 221.902574 
L 345.691593 217.112079 
L 346.549068 217.112079 
L 346.549068 212.321584 
L 346.803032 212.321584 
L 346.803032 207.531089 
L 347.804242 207.531089 
L 347.804242 202.740594 
L 348.493877 202.740594 
L 348.493877 197.950099 
L 349.660802 197.950099 
L 349.660802 193.159604 
L 349.958894 193.159604 
L 349.958894 188.369109 
L 350.014908 188.369109 
L 350.014908 183.578614 
L 351.748617 183.578614 
L 351.748617 178.788119 
L 352.182055 178.788119 
L 352.182055 173.997624 
L 352.293723 173.997624 
L 352.293723 169.207129 
L 352.884467 169.207129 
L 352.884467 164.416634 
L 353.02568 164.416634 
L 353.02568 159.626139 
L 354.144186 159.626139 
L 354.144186 154.835644 
L 354.935776 154.835644 
L 354.935776 150.045149 
L 355.050535 150.045149 
L 355.050535 145.254653 
L 355.294012 145.254653 
L 355.294012 140.464158 
L 355.363326 140.464158 
L 355.363326 135.673663 
L 356.273827 135.673663 
L 356.273827 130.883168 
L 356.389928 130.883168 
L 356.389928 126.092673 
L 363.21811 126.092673 
L 363.21811 121.302178 
L 363.222236 121.302178 
L 363.222236 116.511683 
L 364.031473 116.511683 
L 364.031473 111.721188 
L 367.987253 111.721188 
L 367.987253 106.930693 
L 372.232387 106.930693 
L 372.232387 102.140198 
L 372.232387 102.140198 
L 372.232387 102.140198 
L 460.8 102.140198 
" clip-path="url(#p8785e1234c)" style="fill: none; stroke: #bf00bf; stroke-width: 1.5; stroke-linecap: square"/>
   </g>
   <g id="line2d_118">
    <path clip-path="url(#p8785e1234c)" style="fill: none; stroke: #bf00bf; stroke-width: 1.5; stroke-linecap: square"/>
   </g>
   <g id="line2d_119">
    <path d="M 331.782233 293.76 
L 331.782233 288.969505 
L 335.098307 288.969505 
L 335.098307 284.17901 
L 337.067694 284.17901 
L 337.067694 279.388515 
L 341.032863 279.388515 
L 341.032863 274.59802 
L 341.777322 274.59802 
L 341.777322 269.807525 
L 342.409206 269.807525 
L 342.409206 265.01703 
L 343.071446 265.01703 
L 343.071446 260.226535 
L 344.525443 260.226535 
L 344.525443 255.43604 
L 354.17979 255.43604 
L 354.17979 250.645545 
L 354.885786 250.645545 
L 354.885786 245.85505 
L 355.392998 245.85505 
L 355.392998 241.064554 
L 356.283514 241.064554 
L 356.283514 236.274059 
L 356.73158 236.274059 
L 356.73158 231.483564 
L 358.275823 231.483564 
L 358.275823 226.693069 
L 360.180435 226.693069 
L 360.180435 221.902574 
L 360.585716 221.902574 
L 360.585716 217.112079 
L 360.769481 217.112079 
L 360.769481 212.321584 
L 361.621162 212.321584 
L 361.621162 207.531089 
L 361.873007 207.531089 
L 361.873007 202.740594 
L 363.044474 202.740594 
L 363.044474 197.950099 
L 363.069322 197.950099 
L 363.069322 193.159604 
L 364.490624 193.159604 
L 364.490624 188.369109 
L 364.897354 188.369109 
L 364.897354 183.578614 
L 365.028129 183.578614 
L 365.028129 178.788119 
L 366.555902 178.788119 
L 366.555902 173.997624 
L 366.700806 173.997624 
L 366.700806 169.207129 
L 366.719836 169.207129 
L 366.719836 164.416634 
L 366.890732 164.416634 
L 366.890732 159.626139 
L 367.253071 159.626139 
L 367.253071 154.835644 
L 367.335681 154.835644 
L 367.335681 150.045149 
L 367.448078 150.045149 
L 367.448078 145.254653 
L 367.582571 145.254653 
L 367.582571 140.464158 
L 367.879954 140.464158 
L 367.879954 135.673663 
L 368.145863 135.673663 
L 368.145863 130.883168 
L 369.276035 130.883168 
L 369.276035 126.092673 
L 370.697959 126.092673 
L 370.697959 121.302178 
L 372.705506 121.302178 
L 372.705506 116.511683 
L 375.849165 116.511683 
L 375.849165 111.721188 
L 378.001117 111.721188 
L 378.001117 106.930693 
L 381.068131 106.930693 
L 381.068131 102.140198 
L 381.068131 102.140198 
L 381.068131 102.140198 
L 460.8 102.140198 
" clip-path="url(#p8785e1234c)" style="fill: none; stroke: #ff0000; stroke-width: 3; stroke-linecap: square"/>
   </g>
   <g id="line2d_120">
    <path clip-path="url(#p8785e1234c)" style="fill: none; stroke: #ff0000; stroke-width: 3; stroke-linecap: square"/>
   </g>
   <g id="line2d_121">
    <path d="M 460.8 293.76 
L 460.8 3.456 
" clip-path="url(#p8785e1234c)" style="fill: none; stroke: #000000; stroke-width: 1.5; stroke-linecap: square"/>
   </g>
   <g id="patch_3">
    <path d="M 62.208 293.76 
L 62.208 3.456 
" style="fill: none; stroke: #000000; stroke-width: 0.8; stroke-linejoin: miter; stroke-linecap: square"/>
   </g>
   <g id="patch_4">
    <path d="M 460.8 293.76 
L 460.8 3.456 
" style="fill: none; stroke: #000000; stroke-width: 0.8; stroke-linejoin: miter; stroke-linecap: square"/>
   </g>
   <g id="patch_5">
    <path d="M 62.208 293.76 
L 460.8 293.76 
" style="fill: none; stroke: #000000; stroke-width: 0.8; stroke-linejoin: miter; stroke-linecap: square"/>
   </g>
   <g id="patch_6">
    <path d="M 62.208 3.456 
L 460.8 3.456 
" style="fill: none; stroke: #000000; stroke-width: 0.8; stroke-linejoin: miter; stroke-linecap: square"/>
   </g>
   <g id="text_12">
    <!-- {f6-f9}, 10-D -->
    <g transform="translate(195.0165 24.458955) scale(0.2 -0.2)">
     <defs>
      <path id="DejaVuSans-7b" d="M 3272 -594 
L 3272 -1044 
L 3078 -1044 
Q 2300 -1044 2036 -812 
Q 1772 -581 1772 109 
L 1772 856 
Q 1772 1328 1603 1509 
Q 1434 1691 991 1691 
L 800 1691 
L 800 2138 
L 991 2138 
Q 1438 2138 1605 2317 
Q 1772 2497 1772 2963 
L 1772 3713 
Q 1772 4403 2036 4633 
Q 2300 4863 3078 4863 
L 3272 4863 
L 3272 4416 
L 3059 4416 
Q 2619 4416 2484 4278 
Q 2350 4141 2350 3700 
L 2350 2925 
Q 2350 2434 2208 2212 
Q 2066 1991 1722 1913 
Q 2069 1828 2209 1606 
Q 2350 1384 2350 897 
L 2350 122 
Q 2350 -319 2484 -456 
Q 2619 -594 3059 -594 
L 3272 -594 
z
" transform="scale(0.015625)"/>
      <path id="DejaVuSans-2d" d="M 313 2009 
L 1997 2009 
L 1997 1497 
L 313 1497 
L 313 2009 
z
" transform="scale(0.015625)"/>
      <path id="DejaVuSans-39" d="M 703 97 
L 703 672 
Q 941 559 1184 500 
Q 1428 441 1663 441 
Q 2288 441 2617 861 
Q 2947 1281 2994 2138 
Q 2813 1869 2534 1725 
Q 2256 1581 1919 1581 
Q 1219 1581 811 2004 
Q 403 2428 403 3163 
Q 403 3881 828 4315 
Q 1253 4750 1959 4750 
Q 2769 4750 3195 4129 
Q 3622 3509 3622 2328 
Q 3622 1225 3098 567 
Q 2575 -91 1691 -91 
Q 1453 -91 1209 -44 
Q 966 3 703 97 
z
M 1959 2075 
Q 2384 2075 2632 2365 
Q 2881 2656 2881 3163 
Q 2881 3666 2632 3958 
Q 2384 4250 1959 4250 
Q 1534 4250 1286 3958 
Q 1038 3666 1038 3163 
Q 1038 2656 1286 2365 
Q 1534 2075 1959 2075 
z
" transform="scale(0.015625)"/>
      <path id="DejaVuSans-7d" d="M 800 -594 
L 1019 -594 
Q 1456 -594 1589 -459 
Q 1722 -325 1722 122 
L 1722 897 
Q 1722 1384 1862 1606 
Q 2003 1828 2350 1913 
Q 2003 1991 1862 2212 
Q 1722 2434 1722 2925 
L 1722 3700 
Q 1722 4144 1589 4280 
Q 1456 4416 1019 4416 
L 800 4416 
L 800 4863 
L 997 4863 
Q 1775 4863 2036 4633 
Q 2297 4403 2297 3713 
L 2297 2963 
Q 2297 2497 2465 2317 
Q 2634 2138 3078 2138 
L 3272 2138 
L 3272 1691 
L 3078 1691 
Q 2634 1691 2465 1509 
Q 2297 1328 2297 856 
L 2297 109 
Q 2297 -581 2036 -812 
Q 1775 -1044 997 -1044 
L 800 -1044 
L 800 -594 
z
" transform="scale(0.015625)"/>
      <path id="DejaVuSans-2c" d="M 750 794 
L 1409 794 
L 1409 256 
L 897 -744 
L 494 -744 
L 750 256 
L 750 794 
z
" transform="scale(0.015625)"/>
     </defs>
     <use xlink:href="#DejaVuSans-7b"/>
     <use xlink:href="#DejaVuSans-66" x="63.623047"/>
     <use xlink:href="#DejaVuSans-36" x="98.828125"/>
     <use xlink:href="#DejaVuSans-2d" x="162.451172"/>
     <use xlink:href="#DejaVuSans-66" x="198.535156"/>
     <use xlink:href="#DejaVuSans-39" x="233.740234"/>
     <use xlink:href="#DejaVuSans-7d" x="297.363281"/>
     <use xlink:href="#DejaVuSans-2c" x="360.986328"/>
     <use xlink:href="#DejaVuSans-20" x="392.773438"/>
     <use xlink:href="#DejaVuSans-31" x="424.560547"/>
     <use xlink:href="#DejaVuSans-30" x="488.183594"/>
     <use xlink:href="#DejaVuSans-2d" x="551.806641"/>
     <use xlink:href="#DejaVuSans-44" x="587.890625"/>
    </g>
   </g>
   <g id="text_13">
    <!-- absolute targets -->
    <g transform="translate(62.208 609.932673) scale(0.14 -0.14)">
     <defs>
      <path id="DejaVuSans-62" d="M 3116 1747 
Q 3116 2381 2855 2742 
Q 2594 3103 2138 3103 
Q 1681 3103 1420 2742 
Q 1159 2381 1159 1747 
Q 1159 1113 1420 752 
Q 1681 391 2138 391 
Q 2594 391 2855 752 
Q 3116 1113 3116 1747 
z
M 1159 2969 
Q 1341 3281 1617 3432 
Q 1894 3584 2278 3584 
Q 2916 3584 3314 3078 
Q 3713 2572 3713 1747 
Q 3713 922 3314 415 
Q 2916 -91 2278 -91 
Q 1894 -91 1617 61 
Q 1341 213 1159 525 
L 1159 0 
L 581 0 
L 581 4863 
L 1159 4863 
L 1159 2969 
z
" transform="scale(0.015625)"/>
      <path id="DejaVuSans-75" d="M 544 1381 
L 544 3500 
L 1119 3500 
L 1119 1403 
Q 1119 906 1312 657 
Q 1506 409 1894 409 
Q 2359 409 2629 706 
Q 2900 1003 2900 1516 
L 2900 3500 
L 3475 3500 
L 3475 0 
L 2900 0 
L 2900 538 
Q 2691 219 2414 64 
Q 2138 -91 1772 -91 
Q 1169 -91 856 284 
Q 544 659 544 1381 
z
M 1991 3584 
L 1991 3584 
z
" transform="scale(0.015625)"/>
      <path id="DejaVuSans-65" d="M 3597 1894 
L 3597 1613 
L 953 1613 
Q 991 1019 1311 708 
Q 1631 397 2203 397 
Q 2534 397 2845 478 
Q 3156 559 3463 722 
L 3463 178 
Q 3153 47 2828 -22 
Q 2503 -91 2169 -91 
Q 1331 -91 842 396 
Q 353 884 353 1716 
Q 353 2575 817 3079 
Q 1281 3584 2069 3584 
Q 2775 3584 3186 3129 
Q 3597 2675 3597 1894 
z
M 3022 2063 
Q 3016 2534 2758 2815 
Q 2500 3097 2075 3097 
Q 1594 3097 1305 2825 
Q 1016 2553 972 2059 
L 3022 2063 
z
" transform="scale(0.015625)"/>
     </defs>
     <use xlink:href="#DejaVuSans-61"/>
     <use xlink:href="#DejaVuSans-62" x="61.279297"/>
     <use xlink:href="#DejaVuSans-73" x="124.755859"/>
     <use xlink:href="#DejaVuSans-6f" x="176.855469"/>
     <use xlink:href="#DejaVuSans-6c" x="238.037109"/>
     <use xlink:href="#DejaVuSans-75" x="265.820312"/>
     <use xlink:href="#DejaVuSans-74" x="329.199219"/>
     <use xlink:href="#DejaVuSans-65" x="368.408203"/>
     <use xlink:href="#DejaVuSans-20" x="429.931641"/>
     <use xlink:href="#DejaVuSans-74" x="461.71875"/>
     <use xlink:href="#DejaVuSans-61" x="500.927734"/>
     <use xlink:href="#DejaVuSans-72" x="562.207031"/>
     <use xlink:href="#DejaVuSans-67" x="601.570312"/>
     <use xlink:href="#DejaVuSans-65" x="665.046875"/>
     <use xlink:href="#DejaVuSans-74" x="726.570312"/>
     <use xlink:href="#DejaVuSans-73" x="765.779297"/>
    </g>
   </g>
   <g id="text_14">
    <!-- v2.6.4 -->
    <g style="fill: #808080" transform="translate(245.82275 288.777272) scale(0.1 -0.1)">
     <use xlink:href="#DejaVuSans-76"/>
     <use xlink:href="#DejaVuSans-32" x="59.179688"/>
     <use xlink:href="#DejaVuSans-2e" x="122.802734"/>
     <use xlink:href="#DejaVuSans-36" x="154.589844"/>
     <use xlink:href="#DejaVuSans-2e" x="218.212891"/>
     <use xlink:href="#DejaVuSans-34" x="250"/>
    </g>
   </g>
   <g id="legend_1">
    <g id="patch_7">
     <path d="M 76.208 210.3205 
L 205.429875 210.3205 
Q 209.429875 210.3205 209.429875 206.3205 
L 209.429875 90.8955 
Q 209.429875 86.8955 205.429875 86.8955 
L 76.208 86.8955 
Q 72.208 86.8955 72.208 90.8955 
L 72.208 206.3205 
Q 72.208 210.3205 76.208 210.3205 
z
" style="fill: #ffffff; opacity: 0.2; stroke: #cccccc; stroke-linejoin: miter"/>
    </g>
    <g id="line2d_122">
     <path d="M 80.208 103.092375 
L 80.208 103.092375 
L 100.208 103.092375 
L 100.208 103.092375 
L 120.208 103.092375 
" style="fill: none; stroke: #000000; stroke-width: 1.5; stroke-linecap: square"/>
    </g>
    <g id="text_15">
     <!-- 1: 4/4 -->
     <g transform="translate(136.208 110.092375) scale(0.2 -0.2)">
      <defs>
       <path id="DejaVuSans-3a" d="M 750 794 
L 1409 794 
L 1409 0 
L 750 0 
L 750 794 
z
M 750 3309 
L 1409 3309 
L 1409 2516 
L 750 2516 
L 750 3309 
z
" transform="scale(0.015625)"/>
      </defs>
      <use xlink:href="#DejaVuSans-31"/>
      <use xlink:href="#DejaVuSans-3a" x="63.623047"/>
      <use xlink:href="#DejaVuSans-20" x="97.314453"/>
      <use xlink:href="#DejaVuSans-34" x="129.101562"/>
      <use xlink:href="#DejaVuSans-2f" x="192.724609"/>
      <use xlink:href="#DejaVuSans-34" x="226.416016"/>
     </g>
    </g>
    <g id="line2d_123">
     <path d="M 80.208 132.448625 
L 80.208 132.448625 
L 100.208 132.448625 
L 100.208 132.448625 
L 120.208 132.448625 
" style="fill: none; stroke: #00bfbf; stroke-width: 1.5; stroke-linecap: square"/>
    </g>
    <g id="text_16">
     <!-- -1: 4/4 -->
     <g transform="translate(136.208 139.448625) scale(0.2 -0.2)">
      <use xlink:href="#DejaVuSans-2d"/>
      <use xlink:href="#DejaVuSans-31" x="36.083984"/>
      <use xlink:href="#DejaVuSans-3a" x="99.707031"/>
      <use xlink:href="#DejaVuSans-20" x="133.398438"/>
      <use xlink:href="#DejaVuSans-34" x="165.185547"/>
      <use xlink:href="#DejaVuSans-2f" x="228.808594"/>
      <use xlink:href="#DejaVuSans-34" x="262.5"/>
     </g>
    </g>
    <g id="line2d_124">
     <path d="M 80.208 161.804875 
L 80.208 161.804875 
L 100.208 161.804875 
L 100.208 161.804875 
L 120.208 161.804875 
" style="fill: none; stroke: #bf00bf; stroke-width: 1.5; stroke-linecap: square"/>
    </g>
    <g id="text_17">
     <!-- -4: 3/4 -->
     <g transform="translate(136.208 168.804875) scale(0.2 -0.2)">
      <defs>
       <path id="DejaVuSans-33" d="M 2597 2516 
Q 3050 2419 3304 2112 
Q 3559 1806 3559 1356 
Q 3559 666 3084 287 
Q 2609 -91 1734 -91 
Q 1441 -91 1130 -33 
Q 819 25 488 141 
L 488 750 
Q 750 597 1062 519 
Q 1375 441 1716 441 
Q 2309 441 2620 675 
Q 2931 909 2931 1356 
Q 2931 1769 2642 2001 
Q 2353 2234 1838 2234 
L 1294 2234 
L 1294 2753 
L 1863 2753 
Q 2328 2753 2575 2939 
Q 2822 3125 2822 3475 
Q 2822 3834 2567 4026 
Q 2313 4219 1838 4219 
Q 1578 4219 1281 4162 
Q 984 4106 628 3988 
L 628 4550 
Q 988 4650 1302 4700 
Q 1616 4750 1894 4750 
Q 2613 4750 3031 4423 
Q 3450 4097 3450 3541 
Q 3450 3153 3228 2886 
Q 3006 2619 2597 2516 
z
" transform="scale(0.015625)"/>
      </defs>
      <use xlink:href="#DejaVuSans-2d"/>
      <use xlink:href="#DejaVuSans-34" x="36.083984"/>
      <use xlink:href="#DejaVuSans-3a" x="99.707031"/>
      <use xlink:href="#DejaVuSans-20" x="133.398438"/>
      <use xlink:href="#DejaVuSans-33" x="165.185547"/>
      <use xlink:href="#DejaVuSans-2f" x="228.808594"/>
      <use xlink:href="#DejaVuSans-34" x="262.5"/>
     </g>
    </g>
    <g id="line2d_125">
     <path d="M 80.208 191.161125 
L 80.208 191.161125 
L 100.208 191.161125 
L 100.208 191.161125 
L 120.208 191.161125 
" style="fill: none; stroke: #ff0000; stroke-width: 3; stroke-linecap: square"/>
    </g>
    <g id="text_18">
     <!-- -8: 3/4 -->
     <g transform="translate(136.208 198.161125) scale(0.2 -0.2)">
      <use xlink:href="#DejaVuSans-2d"/>
      <use xlink:href="#DejaVuSans-38" x="36.083984"/>
      <use xlink:href="#DejaVuSans-3a" x="99.707031"/>
      <use xlink:href="#DejaVuSans-20" x="133.398438"/>
      <use xlink:href="#DejaVuSans-33" x="165.185547"/>
      <use xlink:href="#DejaVuSans-2f" x="228.808594"/>
      <use xlink:href="#DejaVuSans-34" x="262.5"/>
     </g>
    </g>
   </g>
  </g>
 </g>
 <defs>
  <clipPath id="p8785e1234c">
   <rect x="62.208" y="3.456" width="398.592" height="290.304"/>
  </clipPath>
 </defs>
</svg>
