<?xml version="1.0" encoding="utf-8" standalone="no"?>
<!DOCTYPE svg PUBLIC "-//W3C//DTD SVG 1.1//EN"
  "http://www.w3.org/Graphics/SVG/1.1/DTD/svg11.dtd">
<svg xmlns:xlink="http://www.w3.org/1999/xlink" width="460.8pt" height="345.6pt" viewBox="0 0 460.8 345.6" xmlns="http://www.w3.org/2000/svg" version="1.1">
 <metadata>
  <rdf:RDF xmlns:dc="http://purl.org/dc/elements/1.1/" xmlns:cc="http://creativecommons.org/ns#" xmlns:rdf="http://www.w3.org/1999/02/22-rdf-syntax-ns#">
   <cc:Work>
    <dc:type rdf:resource="http://purl.org/dc/dcmitype/StillImage"/>
    <dc:date>2024-10-11T15:13:52.949518</dc:date>
    <dc:format>image/svg+xml</dc:format>
    <dc:creator>
     <cc:Agent>
      <dc:title>Matplotlib v3.9.2, https://matplotlib.org/</dc:title>
     </cc:Agent>
    </dc:creator>
   </cc:Work>
  </rdf:RDF>
 </metadata>
 <defs>
  <style type="text/css">*{stroke-linejoin: round; stroke-linecap: butt}</style>
 </defs>
 <g id="figure_1">
  <g id="patch_1">
   <path d="M 0 345.6 
L 460.8 345.6 
L 460.8 0 
L 0 0 
z
" style="fill: #ffffff"/>
  </g>
  <g id="axes_1">
   <g id="patch_2">
    <path d="M 62.208 293.76 
L 460.8 293.76 
L 460.8 3.456 
L 62.208 3.456 
z
" style="fill: #ffffff"/>
   </g>
   <g id="line2d_1">
    <path d="M 303.761182 293.76 
L 303.761182 289.927604 
L 304.855627 289.927604 
L 304.855627 286.095208 
L 304.855627 286.095208 
L 304.855627 286.095208 
L 460.8 286.095208 
" clip-path="url(#pd698250158)" style="fill: none; stroke: #f5deb3; stroke-width: 1.5; stroke-linecap: square"/>
   </g>
   <g id="line2d_2"/>
   <g id="line2d_3">
    <path d="M 364.825855 293.76 
L 364.825855 289.927604 
L 365.264894 289.927604 
L 365.264894 286.095208 
L 365.676141 286.095208 
L 365.676141 282.262812 
L 378.28168 282.262812 
L 378.28168 278.430416 
L 397.748995 278.430416 
L 397.748995 274.59802 
L 398.963489 274.59802 
L 398.963489 270.765624 
L 399.194087 270.765624 
L 399.194087 266.933228 
L 402.257891 266.933228 
L 402.257891 263.100832 
L 410.47943 263.100832 
L 410.47943 259.268436 
L 420.434853 259.268436 
L 420.434853 255.43604 
L 431.255855 255.43604 
L 431.255855 251.603644 
L 431.371331 251.603644 
L 431.371331 247.771248 
L 434.717062 247.771248 
L 434.717062 243.938851 
L 456.17106 243.938851 
L 456.17106 240.106455 
L 456.17106 240.106455 
L 456.17106 240.106455 
L 460.8 240.106455 
" clip-path="url(#pd698250158)" style="fill: none; stroke: #f5deb3; stroke-width: 1.5; stroke-linecap: square"/>
   </g>
   <g id="line2d_4">
    <path d="M 318.531614 293.76 
L 318.531614 289.927604 
L 323.371903 289.927604 
L 323.371903 286.095208 
L 324.958719 286.095208 
L 324.958719 282.262812 
L 325.366289 282.262812 
L 325.366289 278.430416 
L 326.74892 278.430416 
L 326.74892 274.59802 
L 326.978302 274.59802 
L 326.978302 270.765624 
L 328.098032 270.765624 
L 328.098032 266.933228 
L 328.651803 266.933228 
L 328.651803 263.100832 
L 328.944275 263.100832 
L 328.944275 259.268436 
L 329.144209 259.268436 
L 329.180461 251.603644 
L 330.005999 251.603644 
L 330.068171 243.938851 
L 330.227635 243.938851 
L 330.227635 240.106455 
L 330.40413 240.106455 
L 330.492108 232.441663 
L 330.553587 232.441663 
L 330.553587 228.609267 
L 330.798632 228.609267 
L 330.798632 224.776871 
L 332.39213 224.776871 
L 332.39213 220.944475 
L 332.693886 220.944475 
L 332.693886 217.112079 
L 333.365239 217.112079 
L 333.365239 213.279683 
L 333.880297 213.279683 
L 333.880297 209.447287 
L 335.090405 209.447287 
L 335.090405 205.614891 
L 336.703769 205.614891 
L 336.703769 201.782495 
L 337.383638 201.782495 
L 337.421097 194.117703 
L 338.339861 194.117703 
L 338.339861 190.285307 
L 338.588409 190.285307 
L 338.588409 186.452911 
L 338.82829 186.452911 
L 338.82829 182.620515 
L 339.296929 182.620515 
L 339.296929 178.788119 
L 342.562421 178.788119 
L 342.608944 171.123327 
L 342.801152 171.123327 
L 342.801152 167.290931 
L 343.005676 167.290931 
L 343.005676 163.458535 
L 343.333531 163.458535 
L 343.333531 159.626139 
L 345.030869 159.626139 
L 345.030869 155.793743 
L 345.778109 155.793743 
L 345.778109 151.961347 
L 346.079561 151.961347 
L 346.079561 148.12895 
L 346.760808 148.12895 
L 346.760808 144.296554 
L 346.917433 144.296554 
L 346.917433 140.464158 
L 347.121398 140.464158 
L 347.121398 136.631762 
L 347.739391 136.631762 
L 347.739391 132.799366 
L 347.933655 132.799366 
L 347.933655 128.96697 
L 348.424245 128.96697 
L 348.424245 125.134574 
L 348.557609 125.134574 
L 348.557609 121.302178 
L 348.869118 121.302178 
L 348.886359 113.637386 
L 349.138434 113.637386 
L 349.138434 109.80499 
L 350.254947 109.80499 
L 350.254947 105.972594 
L 351.250993 105.972594 
L 351.250993 102.140198 
L 356.745957 102.140198 
L 356.745957 98.307802 
L 359.421413 98.307802 
L 359.421413 94.475406 
L 361.599752 94.475406 
L 361.599752 90.64301 
L 371.709982 90.64301 
L 371.709982 86.810614 
L 373.37627 86.810614 
L 373.37627 82.978218 
L 373.778966 82.978218 
L 373.778966 79.145822 
L 380.700564 79.145822 
L 380.700564 75.313426 
L 381.231706 75.313426 
L 381.231706 71.48103 
L 383.562384 71.48103 
L 383.562384 67.648634 
L 383.998514 67.648634 
L 383.998514 63.816238 
L 389.36662 63.816238 
L 389.36662 59.983842 
L 400.658535 59.983842 
L 400.658535 56.151446 
L 408.909152 56.151446 
L 408.909152 52.31905 
L 410.343554 52.31905 
L 410.343554 48.486653 
L 415.29304 48.486653 
L 415.29304 44.654257 
L 418.900074 44.654257 
L 418.900074 40.821861 
L 438.401561 40.821861 
L 438.401561 36.989465 
L 440.526965 36.989465 
L 440.526965 33.157069 
L 443.548722 33.157069 
L 443.548722 29.324673 
L 448.773293 29.324673 
L 448.773293 25.492277 
L 452.185327 25.492277 
L 452.185327 21.659881 
L 456.059179 21.659881 
L 456.059179 17.827485 
L 456.059179 17.827485 
L 460.8 17.827485 
L 460.8 17.827485 
" clip-path="url(#pd698250158)" style="fill: none; stroke: #f5deb3; stroke-width: 1.5; stroke-linecap: square"/>
   </g>
   <g id="line2d_5"/>
   <g id="line2d_6"/>
   <g id="line2d_7">
    <path d="M 337.979128 293.76 
L 337.979128 289.927604 
L 338.893482 289.927604 
L 338.893482 286.095208 
L 339.788916 286.095208 
L 339.788916 282.262812 
L 339.944613 282.262812 
L 339.944613 278.430416 
L 340.547927 278.430416 
L 340.547927 274.59802 
L 340.666198 274.59802 
L 340.666198 270.765624 
L 340.887952 270.765624 
L 340.984613 259.268436 
L 341.702771 259.268436 
L 341.723116 251.603644 
L 341.838222 251.603644 
L 341.838222 247.771248 
L 342.181715 247.771248 
L 342.188423 240.106455 
L 342.29561 240.106455 
L 342.29561 236.274059 
L 342.589012 236.274059 
L 342.688582 228.609267 
L 344.046185 228.609267 
L 344.046185 224.776871 
L 344.436384 224.776871 
L 344.436384 220.944475 
L 344.823096 220.944475 
L 344.823096 217.112079 
L 345.784282 217.112079 
L 345.784282 213.279683 
L 345.919868 213.279683 
L 345.919868 209.447287 
L 346.305804 209.447287 
L 346.305804 205.614891 
L 346.48838 205.614891 
L 346.48838 201.782495 
L 347.007536 201.782495 
L 347.007536 197.950099 
L 347.62123 197.950099 
L 347.62123 194.117703 
L 348.050967 194.117703 
L 348.050967 190.285307 
L 348.261332 190.285307 
L 348.261332 186.452911 
L 348.851871 186.452911 
L 348.851871 182.620515 
L 350.961699 182.620515 
L 351.049237 171.123327 
L 351.163863 171.123327 
L 351.163863 167.290931 
L 351.931083 167.290931 
L 351.931083 163.458535 
L 352.426286 163.458535 
L 352.426286 159.626139 
L 352.962975 159.626139 
L 352.962975 155.793743 
L 353.873659 155.793743 
L 353.873659 151.961347 
L 354.352308 151.961347 
L 354.352308 148.12895 
L 355.318779 148.12895 
L 355.318779 144.296554 
L 355.555831 144.296554 
L 355.555831 140.464158 
L 356.176837 140.464158 
L 356.176837 136.631762 
L 356.394758 136.631762 
L 356.394758 132.799366 
L 359.735565 132.799366 
L 359.735565 128.96697 
L 361.646841 128.96697 
L 361.736595 121.302178 
L 362.195272 121.302178 
L 362.195272 117.469782 
L 362.498377 117.469782 
L 362.498377 113.637386 
L 363.575583 113.637386 
L 363.575583 109.80499 
L 365.099295 109.80499 
L 365.099295 105.972594 
L 368.778183 105.972594 
L 368.778183 102.140198 
L 369.814303 102.140198 
L 369.814303 98.307802 
L 370.499658 98.307802 
L 370.499658 94.475406 
L 371.153724 94.475406 
L 371.153724 90.64301 
L 374.573289 90.64301 
L 374.573289 86.810614 
L 378.275853 86.810614 
L 378.275853 82.978218 
L 383.129627 82.978218 
L 383.129627 79.145822 
L 385.047572 79.145822 
L 385.047572 75.313426 
L 389.454468 75.313426 
L 389.454468 71.48103 
L 396.440113 71.48103 
L 396.440113 67.648634 
L 397.001326 67.648634 
L 397.001326 63.816238 
L 397.830659 63.816238 
L 397.830659 59.983842 
L 400.418167 59.983842 
L 400.418167 56.151446 
L 413.073242 56.151446 
L 413.073242 52.31905 
L 422.974292 52.31905 
L 422.974292 48.486653 
L 426.172096 48.486653 
L 426.172096 44.654257 
L 461.8 44.654257 
L 461.8 44.654257 
" clip-path="url(#pd698250158)" style="fill: none; stroke: #f5deb3; stroke-width: 1.5; stroke-linecap: square"/>
   </g>
   <g id="line2d_8"/>
   <g id="line2d_9">
    <path d="M 335.161473 293.76 
L 335.161473 289.927604 
L 335.334706 289.927604 
L 335.334706 286.095208 
L 335.710278 286.095208 
L 335.725856 278.430416 
L 335.935616 278.430416 
L 335.935616 274.59802 
L 336.082618 274.59802 
L 336.082618 270.765624 
L 336.290661 270.765624 
L 336.290661 266.933228 
L 336.558865 266.933228 
L 336.619936 259.268436 
L 336.703769 259.268436 
L 336.703769 255.43604 
L 336.833009 255.43604 
L 336.833009 251.603644 
L 337.173265 251.603644 
L 337.173265 247.771248 
L 337.286092 247.771248 
L 337.286092 243.938851 
L 337.555682 243.938851 
L 337.555682 240.106455 
L 337.667518 240.106455 
L 337.667518 236.274059 
L 337.779065 236.274059 
L 337.823604 228.609267 
L 338.185629 228.609267 
L 338.229751 220.944475 
L 338.413112 220.944475 
L 338.413112 217.112079 
L 338.602985 217.112079 
L 338.602985 213.279683 
L 338.784774 213.279683 
L 338.784774 209.447287 
L 338.936889 209.447287 
L 338.987475 201.782495 
L 339.282585 201.782495 
L 339.375737 194.117703 
L 339.461547 194.117703 
L 339.461547 190.285307 
L 339.611305 190.285307 
L 339.611305 186.452911 
L 340.471227 186.452911 
L 340.485182 178.788119 
L 340.936309 178.788119 
L 340.936309 174.955723 
L 341.566895 174.955723 
L 341.566895 171.123327 
L 342.906834 171.123327 
L 342.906834 167.290931 
L 344.276892 167.290931 
L 344.276892 163.458535 
L 344.810471 163.458535 
L 344.810471 159.626139 
L 345.443447 159.626139 
L 345.443447 155.793743 
L 345.895248 155.793743 
L 345.895248 151.961347 
L 346.159186 151.961347 
L 346.256987 144.296554 
L 346.536937 144.296554 
L 346.536937 140.464158 
L 346.821116 140.464158 
L 346.821116 136.631762 
L 347.019536 136.631762 
L 347.019536 132.799366 
L 347.821912 132.799366 
L 347.821912 128.96697 
L 348.173804 128.96697 
L 348.173804 125.134574 
L 349.587371 125.134574 
L 349.587371 121.302178 
L 350.020506 121.302178 
L 350.020506 117.469782 
L 350.532397 117.469782 
L 350.571099 109.80499 
L 350.742076 109.80499 
L 350.742076 105.972594 
L 350.9836 105.972594 
L 350.9836 102.140198 
L 352.795318 102.140198 
L 352.795318 98.307802 
L 352.936822 98.307802 
L 352.936822 94.475406 
L 357.089575 94.475406 
L 357.089575 90.64301 
L 357.829525 90.64301 
L 357.829525 86.810614 
L 364.73034 86.810614 
L 364.73034 82.978218 
L 365.445541 82.978218 
L 365.445541 79.145822 
L 367.76496 79.145822 
L 367.76496 75.313426 
L 368.87242 75.313426 
L 368.87242 71.48103 
L 370.739591 71.48103 
L 370.739591 67.648634 
L 375.462253 67.648634 
L 375.462253 63.816238 
L 377.348241 63.816238 
L 377.348241 59.983842 
L 379.694508 59.983842 
L 379.694508 56.151446 
L 381.459678 56.151446 
L 381.459678 52.31905 
L 382.314651 52.31905 
L 382.314651 48.486653 
L 382.597687 48.486653 
L 382.597687 44.654257 
L 383.451369 44.654257 
L 383.451369 40.821861 
L 386.147164 40.821861 
L 386.147164 36.989465 
L 387.321277 36.989465 
L 387.321277 33.157069 
L 388.82662 33.157069 
L 388.82662 29.324673 
L 390.78616 29.324673 
L 390.78616 25.492277 
L 391.991175 25.492277 
L 391.991175 21.659881 
L 396.499431 21.659881 
L 396.499431 17.827485 
L 397.2031 17.827485 
L 397.2031 13.995089 
L 410.565173 13.995089 
L 410.565173 10.162693 
L 413.017143 10.162693 
L 413.017143 6.330297 
L 413.017143 6.330297 
L 460.8 6.330297 
L 460.8 6.330297 
" clip-path="url(#pd698250158)" style="fill: none; stroke: #f5deb3; stroke-width: 1.5; stroke-linecap: square"/>
   </g>
   <g id="line2d_10"/>
   <g id="line2d_11">
    <path clip-path="url(#pd698250158)" style="fill: none; stroke: #f5deb3; stroke-width: 1.5; stroke-linecap: square"/>
   </g>
   <g id="line2d_12">
    <path d="M 281.436516 293.76 
L 281.436516 289.927604 
L 312.896601 289.927604 
L 312.896601 286.095208 
L 319.539423 286.095208 
L 319.539423 282.262812 
L 335.114107 282.262812 
L 335.114107 278.430416 
L 338.134096 278.430416 
L 338.134096 274.59802 
L 350.00931 274.59802 
L 350.00931 270.765624 
L 433.068307 270.765624 
L 433.068307 266.933228 
L 441.648879 266.933228 
L 441.648879 263.100832 
L 461.8 263.100832 
" clip-path="url(#pd698250158)" style="fill: none; stroke: #f5deb3; stroke-width: 1.5; stroke-linecap: square"/>
   </g>
   <g id="line2d_13"/>
   <g id="line2d_14">
    <path d="M 449.588954 293.76 
L 449.588954 289.927604 
L 449.588954 289.927604 
L 449.588954 289.927604 
L 460.8 289.927604 
" clip-path="url(#pd698250158)" style="fill: none; stroke: #f5deb3; stroke-width: 1.5; stroke-linecap: square"/>
   </g>
   <g id="line2d_15"/>
   <g id="line2d_16">
    <path clip-path="url(#pd698250158)" style="fill: none; stroke: #f5deb3; stroke-width: 1.5; stroke-linecap: square"/>
   </g>
   <g id="line2d_17">
    <path d="M 421.107108 293.76 
L 421.107108 289.927604 
L 421.567048 289.927604 
L 421.567048 286.095208 
L 424.324146 286.095208 
L 424.415533 278.430416 
L 424.507728 278.430416 
L 424.507728 274.59802 
L 425.34644 274.59802 
L 425.34644 270.765624 
L 425.462142 270.765624 
L 425.462142 266.933228 
L 426.184617 266.933228 
L 426.184617 263.100832 
L 427.02765 263.100832 
L 427.02765 259.268436 
L 427.442152 259.268436 
L 427.442152 255.43604 
L 427.672588 255.43604 
L 427.742316 247.771248 
L 427.914759 247.771248 
L 427.914759 243.938851 
L 428.159263 243.938851 
L 428.159263 240.106455 
L 428.663266 240.106455 
L 428.663266 236.274059 
L 429.071475 236.274059 
L 429.071475 232.441663 
L 429.35969 232.441663 
L 429.35969 228.609267 
L 429.807492 228.609267 
L 429.807492 224.776871 
L 430.771793 224.776871 
L 430.771793 220.944475 
L 431.137493 220.944475 
L 431.15295 213.279683 
L 431.270413 213.279683 
L 431.270413 209.447287 
L 431.953406 209.447287 
L 431.953406 205.614891 
L 432.203004 205.614891 
L 432.203004 201.782495 
L 432.552701 201.782495 
L 432.602546 194.117703 
L 432.892172 194.117703 
L 432.892172 190.285307 
L 433.260905 190.285307 
L 433.329541 182.620515 
L 433.703486 182.620515 
L 433.703486 178.788119 
L 434.332668 178.788119 
L 434.332668 174.955723 
L 435.107475 174.955723 
L 435.107475 171.123327 
L 437.096048 171.123327 
L 437.096048 167.290931 
L 437.225327 167.290931 
L 437.225327 163.458535 
L 437.524248 163.458535 
L 437.524248 159.626139 
L 437.672939 159.626139 
L 437.751884 151.961347 
L 438.282308 151.961347 
L 438.282308 148.12895 
L 438.73575 148.12895 
L 438.73575 144.296554 
L 439.25717 144.296554 
L 439.25717 140.464158 
L 439.459598 140.464158 
L 439.459598 136.631762 
L 440.127601 136.631762 
L 440.127601 132.799366 
L 440.597426 132.799366 
L 440.597426 128.96697 
L 444.231234 128.96697 
L 444.231234 125.134574 
L 448.321822 125.134574 
L 448.321822 121.302178 
L 450.0047 121.302178 
L 450.0047 117.469782 
L 451.246311 117.469782 
L 451.319105 109.80499 
L 452.011237 109.80499 
L 452.011237 105.972594 
L 453.06716 105.972594 
L 453.06716 102.140198 
L 454.299564 102.140198 
L 454.299564 98.307802 
L 454.844785 98.307802 
L 454.844785 94.475406 
L 455.808328 94.475406 
L 455.808328 90.64301 
L 456.178283 90.64301 
L 456.178283 86.810614 
L 456.411682 86.810614 
L 456.508322 79.145822 
L 456.752309 79.145822 
L 456.795055 71.48103 
L 457.10866 71.48103 
L 457.10866 67.648634 
L 458.133753 67.648634 
L 458.133753 63.816238 
L 458.641656 63.816238 
L 458.641656 59.983842 
L 459.937176 59.983842 
L 459.937176 56.151446 
L 461.8 56.151446 
L 461.8 56.151446 
" clip-path="url(#pd698250158)" style="fill: none; stroke: #f5deb3; stroke-width: 1.5; stroke-linecap: square"/>
   </g>
   <g id="line2d_18">
    <path d="M 306.016011 293.76 
L 306.016011 289.927604 
L 310.787109 289.927604 
L 310.787109 286.095208 
L 313.965534 286.095208 
L 313.965534 282.262812 
L 318.820318 282.262812 
L 318.820318 278.430416 
L 318.831827 278.430416 
L 318.831827 274.59802 
L 323.351177 274.59802 
L 323.351177 270.765624 
L 327.339021 270.765624 
L 327.339021 266.933228 
L 328.246398 266.933228 
L 328.246398 263.100832 
L 333.150876 263.100832 
L 333.150876 259.268436 
L 343.53556 259.268436 
L 343.53556 255.43604 
L 346.833167 255.43604 
L 346.833167 251.603644 
L 348.869118 251.603644 
L 348.869118 247.771248 
L 352.2831 247.771248 
L 352.2831 243.938851 
L 353.975944 243.938851 
L 353.975944 240.106455 
L 354.629934 240.106455 
L 354.629934 236.274059 
L 390.823239 236.274059 
L 390.823239 232.441663 
L 393.406578 232.441663 
L 393.406578 228.609267 
L 395.910311 228.609267 
L 395.910311 224.776871 
L 399.537696 224.776871 
L 399.537696 220.944475 
L 402.120409 220.944475 
L 402.120409 217.112079 
L 403.340668 217.112079 
L 403.340668 213.279683 
L 403.506872 213.279683 
L 403.506872 209.447287 
L 403.664339 209.447287 
L 403.664339 205.614891 
L 403.761455 205.614891 
L 403.761455 201.782495 
L 404.064349 201.782495 
L 404.064349 197.950099 
L 404.583019 197.950099 
L 404.583019 194.117703 
L 405.378376 194.117703 
L 405.378376 190.285307 
L 406.030698 190.285307 
L 406.030698 186.452911 
L 407.125945 186.452911 
L 407.125945 182.620515 
L 407.401797 182.620515 
L 407.401797 178.788119 
L 428.512042 178.788119 
L 428.512042 174.955723 
L 436.362427 174.955723 
L 436.362427 171.123327 
L 436.669615 171.123327 
L 436.669615 167.290931 
L 436.744375 167.290931 
L 436.744375 163.458535 
L 436.84009 163.458535 
L 436.84009 159.626139 
L 437.23428 159.626139 
L 437.23428 155.793743 
L 438.253171 155.793743 
L 438.253171 151.961347 
L 443.47839 151.961347 
L 443.47839 148.12895 
L 459.381777 148.12895 
L 459.381777 144.296554 
L 461.8 144.296554 
" clip-path="url(#pd698250158)" style="fill: none; stroke: #f5deb3; stroke-width: 1.5; stroke-linecap: square"/>
   </g>
   <g id="line2d_19"/>
   <g id="line2d_20">
    <path d="M 339.710857 293.76 
L 339.710857 289.927604 
L 362.531925 289.927604 
L 362.531925 286.095208 
L 376.899434 286.095208 
L 376.899434 282.262812 
L 387.008107 282.262812 
L 387.008107 278.430416 
L 389.350833 278.430416 
L 389.350833 274.59802 
L 394.455598 274.59802 
L 394.455598 270.765624 
L 408.807113 270.765624 
L 408.807113 266.933228 
L 415.923821 266.933228 
L 415.923821 263.100832 
L 438.838669 263.100832 
L 438.838669 259.268436 
L 443.983653 259.268436 
L 443.983653 255.43604 
L 452.875285 255.43604 
L 452.875285 251.603644 
L 455.484142 251.603644 
L 455.484142 247.771248 
L 457.477992 247.771248 
L 457.477992 243.938851 
L 461.8 243.938851 
" clip-path="url(#pd698250158)" style="fill: none; stroke: #f5deb3; stroke-width: 1.5; stroke-linecap: square"/>
   </g>
   <g id="line2d_21"/>
   <g id="line2d_22">
    <path d="M 320.723016 293.76 
L 320.723016 289.927604 
L 321.378899 289.927604 
L 321.378899 286.095208 
L 326.334879 286.095208 
L 326.334879 282.262812 
L 355.796489 282.262812 
L 355.796489 278.430416 
L 357.217732 278.430416 
L 357.217732 274.59802 
L 357.843542 274.59802 
L 357.843542 270.765624 
L 362.072585 270.765624 
L 362.072585 266.933228 
L 370.163609 266.933228 
L 370.163609 263.100832 
L 370.49617 263.100832 
L 370.49617 259.268436 
L 374.867442 259.268436 
L 374.867442 255.43604 
L 380.881995 255.43604 
L 380.881995 251.603644 
L 381.930798 251.603644 
L 381.930798 247.771248 
L 382.745084 247.771248 
L 382.745084 243.938851 
L 383.796388 243.938851 
L 383.796388 240.106455 
L 385.854704 240.106455 
L 385.854704 236.274059 
L 387.571131 236.274059 
L 387.571131 232.441663 
L 390.345331 232.441663 
L 390.345331 228.609267 
L 391.53035 228.609267 
L 391.53035 224.776871 
L 408.916328 224.776871 
L 408.916328 220.944475 
L 416.624883 220.944475 
L 416.624883 217.112079 
L 442.193128 217.112079 
L 442.193128 213.279683 
L 455.987655 213.279683 
L 455.987655 209.447287 
L 459.659479 209.447287 
L 459.659479 205.614891 
L 460.276226 205.614891 
L 460.276226 201.782495 
L 461.636195 201.782495 
L 461.636195 197.950099 
L 461.8 197.950099 
" clip-path="url(#pd698250158)" style="fill: none; stroke: #f5deb3; stroke-width: 1.5; stroke-linecap: square"/>
   </g>
   <g id="line2d_23">
    <path clip-path="url(#pd698250158)" style="fill: none; stroke: #f5deb3; stroke-width: 1.5; stroke-linecap: square"/>
   </g>
   <g id="line2d_24">
    <path d="M 338.148826 293.76 
L 338.148826 289.927604 
L 339.038002 289.927604 
L 339.038002 286.095208 
L 342.787924 286.095208 
L 342.787924 282.262812 
L 343.307394 282.262812 
L 343.307394 278.430416 
L 343.652436 278.430416 
L 343.652436 274.59802 
L 344.652354 274.59802 
L 344.65869 266.933228 
L 344.791528 266.933228 
L 344.791528 263.100832 
L 345.300116 263.100832 
L 345.300116 259.268436 
L 345.449668 259.268436 
L 345.449668 255.43604 
L 345.604904 255.43604 
L 345.604904 251.603644 
L 346.00593 251.603644 
L 346.00593 247.771248 
L 346.658092 247.771248 
L 346.658092 243.938851 
L 346.905405 243.938851 
L 346.905405 240.106455 
L 348.748242 240.106455 
L 348.748242 236.274059 
L 349.54212 236.274059 
L 349.54212 232.441663 
L 350.204816 232.441663 
L 350.204816 228.609267 
L 350.382795 228.609267 
L 350.382795 224.776871 
L 350.604244 224.776871 
L 350.604244 220.944475 
L 351.67326 220.944475 
L 351.67326 217.112079 
L 351.882858 217.112079 
L 351.882858 213.279683 
L 352.10745 213.279683 
L 352.10745 209.447287 
L 352.288412 209.447287 
L 352.288412 205.614891 
L 352.847781 205.614891 
L 352.847781 201.782495 
L 352.97866 201.782495 
L 352.97866 197.950099 
L 353.580815 197.950099 
L 353.642631 190.285307 
L 354.184874 190.285307 
L 354.184874 186.452911 
L 354.564474 186.452911 
L 354.564474 182.620515 
L 354.740487 182.620515 
L 354.740487 178.788119 
L 355.452281 178.788119 
L 355.481892 171.123327 
L 355.629644 171.123327 
L 355.629644 167.290931 
L 355.962693 167.290931 
L 355.962693 163.458535 
L 356.186546 163.458535 
L 356.239905 155.793743 
L 359.077731 155.793743 
L 359.077731 151.961347 
L 359.29511 151.961347 
L 359.29511 148.12895 
L 360.699567 148.12895 
L 360.699567 144.296554 
L 360.826202 144.296554 
L 360.917673 136.631762 
L 361.97928 136.631762 
L 361.97928 132.799366 
L 369.683028 132.799366 
L 369.683028 128.96697 
L 371.349058 128.96697 
L 371.349058 125.134574 
L 372.098175 125.134574 
L 372.175398 117.469782 
L 374.538365 117.469782 
L 374.538365 113.637386 
L 374.662062 113.637386 
L 374.662062 109.80499 
L 375.0593 109.80499 
L 375.0593 105.972594 
L 375.496441 105.972594 
L 375.496441 102.140198 
L 375.756621 102.140198 
L 375.756621 98.307802 
L 376.37292 98.307802 
L 376.37292 94.475406 
L 376.655129 94.475406 
L 376.655129 90.64301 
L 377.097483 90.64301 
L 377.097483 86.810614 
L 378.354445 86.810614 
L 378.354445 82.978218 
L 378.768329 82.978218 
L 378.768329 79.145822 
L 379.541987 79.145822 
L 379.541987 75.313426 
L 379.733963 75.313426 
L 379.733963 71.48103 
L 381.419057 71.48103 
L 381.419057 67.648634 
L 382.14447 67.648634 
L 382.14447 63.816238 
L 383.197288 63.816238 
L 383.262246 56.151446 
L 386.234518 56.151446 
L 386.234518 52.31905 
L 401.992595 52.31905 
L 401.992595 48.486653 
L 402.813409 48.486653 
L 402.813409 44.654257 
L 405.810751 44.654257 
L 405.810751 40.821861 
L 407.646352 40.821861 
L 407.646352 36.989465 
L 409.230933 36.989465 
L 409.230933 33.157069 
L 410.996829 33.157069 
L 410.996829 29.324673 
L 411.395769 29.324673 
L 411.395769 25.492277 
L 413.156604 25.492277 
L 413.156604 21.659881 
L 413.591639 21.659881 
L 413.591639 17.827485 
L 413.756224 17.827485 
L 413.756224 13.995089 
L 421.484469 13.995089 
L 421.484469 10.162693 
L 433.990685 10.162693 
L 433.990685 6.330297 
L 433.990685 6.330297 
L 460.8 6.330297 
L 460.8 6.330297 
" clip-path="url(#pd698250158)" style="fill: none; stroke: #f5deb3; stroke-width: 1.5; stroke-linecap: square"/>
   </g>
   <g id="line2d_25"/>
   <g id="line2d_26">
    <path d="M 371.902826 293.76 
L 371.902826 289.927604 
L 374.133088 289.927604 
L 374.133088 286.095208 
L 374.813821 286.095208 
L 374.813821 282.262812 
L 377.237967 282.262812 
L 377.279726 274.59802 
L 377.81306 274.59802 
L 377.901314 266.933228 
L 378.194199 266.933228 
L 378.194199 263.100832 
L 380.404802 263.100832 
L 380.404802 259.268436 
L 380.601281 259.268436 
L 380.601281 255.43604 
L 380.750121 255.43604 
L 380.750121 251.603644 
L 380.988847 251.603644 
L 380.988847 247.771248 
L 382.610868 247.771248 
L 382.695131 236.274059 
L 383.368567 236.274059 
L 383.391871 228.609267 
L 383.670543 228.609267 
L 383.670543 224.776871 
L 385.129712 224.776871 
L 385.219142 217.112079 
L 385.251391 217.112079 
L 385.266267 209.447287 
L 385.520843 209.447287 
L 385.528235 201.782495 
L 385.835137 201.782495 
L 385.835137 197.950099 
L 385.952411 197.950099 
L 385.979241 186.452911 
L 387.436955 186.452911 
L 387.531157 178.788119 
L 387.641584 178.788119 
L 387.641584 174.955723 
L 387.779807 174.955723 
L 387.847585 167.290931 
L 387.901265 167.290931 
L 387.901265 163.458535 
L 388.122284 163.458535 
L 388.122284 159.626139 
L 389.792927 159.626139 
L 389.902192 148.12895 
L 389.993406 148.12895 
L 389.993406 144.296554 
L 390.508149 144.296554 
L 390.569597 136.631762 
L 391.870044 136.631762 
L 391.870044 132.799366 
L 392.704662 132.799366 
L 392.704662 128.96697 
L 394.621666 128.96697 
L 394.621666 125.134574 
L 394.882483 125.134574 
L 394.882483 121.302178 
L 397.901064 121.302178 
L 397.973202 113.637386 
L 398.120803 113.637386 
L 398.120803 109.80499 
L 402.088491 109.80499 
L 402.088491 105.972594 
L 407.667039 105.972594 
L 407.667039 102.140198 
L 408.040648 102.140198 
L 408.040648 98.307802 
L 409.519213 98.307802 
L 409.534779 90.64301 
L 411.92114 90.64301 
L 411.938543 82.978218 
L 413.631557 82.978218 
L 413.631557 79.145822 
L 423.39129 79.145822 
L 423.39129 75.313426 
L 454.466708 75.313426 
L 454.466708 71.48103 
L 461.8 71.48103 
L 461.8 71.48103 
" clip-path="url(#pd698250158)" style="fill: none; stroke: #f5deb3; stroke-width: 1.5; stroke-linecap: square"/>
   </g>
   <g id="line2d_27">
    <path d="M 330.483319 293.76 
L 330.483319 289.927604 
L 350.154628 289.927604 
L 350.154628 286.095208 
L 351.229227 286.095208 
L 351.229227 282.262812 
L 356.635613 282.262812 
L 356.635613 278.430416 
L 357.194028 278.430416 
L 357.194028 274.59802 
L 359.488923 274.59802 
L 359.488923 270.765624 
L 360.484751 270.765624 
L 360.484751 266.933228 
L 363.284074 266.933228 
L 363.284074 263.100832 
L 364.402394 263.100832 
L 364.402394 259.268436 
L 366.544442 259.268436 
L 366.544442 255.43604 
L 374.088178 255.43604 
L 374.088178 251.603644 
L 374.289904 251.603644 
L 374.289904 247.771248 
L 375.134553 247.771248 
L 375.134553 243.938851 
L 379.297967 243.938851 
L 379.297967 240.106455 
L 383.113999 240.106455 
L 383.113999 236.274059 
L 456.614282 236.274059 
L 456.614282 232.441663 
L 457.745391 232.441663 
L 457.745391 228.609267 
L 459.941149 228.609267 
L 459.941149 224.776871 
L 460.883011 224.776871 
L 460.883011 220.944475 
L 461.8 220.944475 
" clip-path="url(#pd698250158)" style="fill: none; stroke: #f5deb3; stroke-width: 1.5; stroke-linecap: square"/>
   </g>
   <g id="line2d_28">
    <path d="M 325.455244 293.76 
L 325.455244 289.927604 
L 326.527949 289.927604 
L 326.527949 286.095208 
L 326.815949 286.095208 
L 326.815949 282.262812 
L 326.978302 282.262812 
L 326.978302 278.430416 
L 327.574707 278.430416 
L 327.678004 270.765624 
L 328.032961 270.765624 
L 328.098032 263.100832 
L 328.477207 263.100832 
L 328.477207 259.268436 
L 329.00799 259.268436 
L 329.00799 255.43604 
L 329.171401 255.43604 
L 329.171401 251.603644 
L 329.388327 251.603644 
L 329.388327 247.771248 
L 330.059295 247.771248 
L 330.059295 243.938851 
L 330.972819 243.938851 
L 330.972819 240.106455 
L 331.250067 240.106455 
L 331.250067 236.274059 
L 331.636966 236.274059 
L 331.636966 232.441663 
L 332.45097 232.441663 
L 332.45097 228.609267 
L 332.677177 228.609267 
L 332.752317 217.112079 
L 332.802338 217.112079 
L 332.802338 213.279683 
L 332.960358 213.279683 
L 332.960358 209.447287 
L 333.266434 209.447287 
L 333.266434 205.614891 
L 333.668476 205.614891 
L 333.668476 201.782495 
L 333.839642 201.782495 
L 333.839642 197.950099 
L 334.091086 197.950099 
L 334.091086 194.117703 
L 334.357156 194.117703 
L 334.357156 190.285307 
L 334.812914 190.285307 
L 334.868554 182.620515 
L 335.050872 182.620515 
L 335.050872 178.788119 
L 335.287529 178.788119 
L 335.287529 174.955723 
L 335.710278 174.955723 
L 335.772557 167.290931 
L 336.159788 167.290931 
L 336.159788 163.458535 
L 336.680921 163.458535 
L 336.680921 159.626139 
L 336.961865 159.626139 
L 336.961865 155.793743 
L 337.525811 155.793743 
L 337.525811 151.961347 
L 339.58282 151.961347 
L 339.58282 148.12895 
L 339.810181 148.12895 
L 339.810181 144.296554 
L 339.944613 144.296554 
L 339.944613 140.464158 
L 340.198187 140.464158 
L 340.198187 136.631762 
L 340.547927 136.631762 
L 340.547927 132.799366 
L 340.991509 132.799366 
L 340.991509 128.96697 
L 342.715096 128.96697 
L 342.715096 125.134574 
L 346.615727 125.134574 
L 346.615727 121.302178 
L 348.389386 121.302178 
L 348.389386 117.469782 
L 349.908419 117.469782 
L 349.908419 113.637386 
L 351.829212 113.637386 
L 351.888219 105.972594 
L 352.304343 105.972594 
L 352.304343 102.140198 
L 353.43106 102.140198 
L 353.43106 98.307802 
L 354.321914 98.307802 
L 354.321914 94.475406 
L 354.624902 94.475406 
L 354.624902 90.64301 
L 355.020628 90.64301 
L 355.0605 82.978218 
L 356.137981 82.978218 
L 356.137981 79.145822 
L 356.418904 79.145822 
L 356.471978 71.48103 
L 356.669225 71.48103 
L 356.669225 67.648634 
L 356.951501 67.648634 
L 356.951501 63.816238 
L 357.250896 63.816238 
L 357.250896 59.983842 
L 358.206391 59.983842 
L 358.206391 56.151446 
L 359.068649 56.151446 
L 359.068649 52.31905 
L 370.544964 52.31905 
L 370.544964 48.486653 
L 374.446155 48.486653 
L 374.446155 44.654257 
L 374.72536 44.654257 
L 374.72536 40.821861 
L 377.765918 40.821861 
L 377.765918 36.989465 
L 379.101183 36.989465 
L 379.101183 33.157069 
L 379.522176 33.157069 
L 379.522176 29.324673 
L 380.9779 29.324673 
L 380.9779 25.492277 
L 385.515914 25.492277 
L 385.515914 21.659881 
L 389.454468 21.659881 
L 389.454468 17.827485 
L 398.936386 17.827485 
L 398.936386 13.995089 
L 402.927288 13.995089 
L 402.927288 10.162693 
L 407.615304 10.162693 
L 407.615304 6.330297 
L 407.615304 6.330297 
L 460.8 6.330297 
L 460.8 6.330297 
" clip-path="url(#pd698250158)" style="fill: none; stroke: #f5deb3; stroke-width: 1.5; stroke-linecap: square"/>
   </g>
   <g id="line2d_29">
    <path d="M 394.912247 293.76 
L 394.912247 289.927604 
L 394.912247 289.927604 
L 394.912247 289.927604 
L 460.8 289.927604 
" clip-path="url(#pd698250158)" style="fill: none; stroke: #f5deb3; stroke-width: 1.5; stroke-linecap: square"/>
   </g>
   <g id="line2d_30"/>
   <g id="matplotlib.axis_1">
    <g id="xtick_1">
     <g id="line2d_31">
      <path d="M 161.856 293.76 
L 161.856 3.456 
" clip-path="url(#pd698250158)" style="fill: none; stroke: #b0b0b0; stroke-width: 0.8; stroke-linecap: square"/>
     </g>
     <g id="line2d_32">
      <defs>
       <path id="mc9b5b7bfde" d="M 0 0 
L 0 3.5 
" style="stroke: #000000; stroke-width: 0.8"/>
      </defs>
      <g>
       <use xlink:href="#mc9b5b7bfde" x="161.856" y="293.76" style="stroke: #000000; stroke-width: 0.8"/>
      </g>
     </g>
     <g id="text_1">
      <!-- 1 -->
      <g transform="translate(155.4935 315.956875) scale(0.2 -0.2)">
       <defs>
        <path id="DejaVuSans-31" d="M 794 531 
L 1825 531 
L 1825 4091 
L 703 3866 
L 703 4441 
L 1819 4666 
L 2450 4666 
L 2450 531 
L 3481 531 
L 3481 0 
L 794 0 
L 794 531 
z
" transform="scale(0.015625)"/>
       </defs>
       <use xlink:href="#DejaVuSans-31"/>
      </g>
     </g>
    </g>
    <g id="xtick_2">
     <g id="line2d_33">
      <path d="M 361.152 293.76 
L 361.152 3.456 
" clip-path="url(#pd698250158)" style="fill: none; stroke: #b0b0b0; stroke-width: 0.8; stroke-linecap: square"/>
     </g>
     <g id="line2d_34">
      <g>
       <use xlink:href="#mc9b5b7bfde" x="361.152" y="293.76" style="stroke: #000000; stroke-width: 0.8"/>
      </g>
     </g>
     <g id="text_2">
      <!-- 3 -->
      <g transform="translate(354.7895 315.956875) scale(0.2 -0.2)">
       <defs>
        <path id="DejaVuSans-33" d="M 2597 2516 
Q 3050 2419 3304 2112 
Q 3559 1806 3559 1356 
Q 3559 666 3084 287 
Q 2609 -91 1734 -91 
Q 1441 -91 1130 -33 
Q 819 25 488 141 
L 488 750 
Q 750 597 1062 519 
Q 1375 441 1716 441 
Q 2309 441 2620 675 
Q 2931 909 2931 1356 
Q 2931 1769 2642 2001 
Q 2353 2234 1838 2234 
L 1294 2234 
L 1294 2753 
L 1863 2753 
Q 2328 2753 2575 2939 
Q 2822 3125 2822 3475 
Q 2822 3834 2567 4026 
Q 2313 4219 1838 4219 
Q 1578 4219 1281 4162 
Q 984 4106 628 3988 
L 628 4550 
Q 988 4650 1302 4700 
Q 1616 4750 1894 4750 
Q 2613 4750 3031 4423 
Q 3450 4097 3450 3541 
Q 3450 3153 3228 2886 
Q 3006 2619 2597 2516 
z
" transform="scale(0.015625)"/>
       </defs>
       <use xlink:href="#DejaVuSans-33"/>
      </g>
     </g>
    </g>
    <g id="xtick_3">
     <g id="line2d_35">
      <path d="M 92.205037 293.76 
L 92.205037 3.456 
" clip-path="url(#pd698250158)" style="fill: none; stroke: #b0b0b0; stroke-width: 0.8; stroke-linecap: square"/>
     </g>
     <g id="line2d_36">
      <defs>
       <path id="m380e194a55" d="M 0 0 
L 0 2 
" style="stroke: #000000; stroke-width: 0.6"/>
      </defs>
      <g>
       <use xlink:href="#m380e194a55" x="92.205037" y="293.76" style="stroke: #000000; stroke-width: 0.6"/>
      </g>
     </g>
    </g>
    <g id="xtick_4">
     <g id="line2d_37">
      <path d="M 109.752179 293.76 
L 109.752179 3.456 
" clip-path="url(#pd698250158)" style="fill: none; stroke: #b0b0b0; stroke-width: 0.8; stroke-linecap: square"/>
     </g>
     <g id="line2d_38">
      <g>
       <use xlink:href="#m380e194a55" x="109.752179" y="293.76" style="stroke: #000000; stroke-width: 0.6"/>
      </g>
     </g>
    </g>
    <g id="xtick_5">
     <g id="line2d_39">
      <path d="M 122.202074 293.76 
L 122.202074 3.456 
" clip-path="url(#pd698250158)" style="fill: none; stroke: #b0b0b0; stroke-width: 0.8; stroke-linecap: square"/>
     </g>
     <g id="line2d_40">
      <g>
       <use xlink:href="#m380e194a55" x="122.202074" y="293.76" style="stroke: #000000; stroke-width: 0.6"/>
      </g>
     </g>
    </g>
    <g id="xtick_6">
     <g id="line2d_41">
      <path d="M 131.858963 293.76 
L 131.858963 3.456 
" clip-path="url(#pd698250158)" style="fill: none; stroke: #b0b0b0; stroke-width: 0.8; stroke-linecap: square"/>
     </g>
     <g id="line2d_42">
      <g>
       <use xlink:href="#m380e194a55" x="131.858963" y="293.76" style="stroke: #000000; stroke-width: 0.6"/>
      </g>
     </g>
    </g>
    <g id="xtick_7">
     <g id="line2d_43">
      <path d="M 139.749216 293.76 
L 139.749216 3.456 
" clip-path="url(#pd698250158)" style="fill: none; stroke: #b0b0b0; stroke-width: 0.8; stroke-linecap: square"/>
     </g>
     <g id="line2d_44">
      <g>
       <use xlink:href="#m380e194a55" x="139.749216" y="293.76" style="stroke: #000000; stroke-width: 0.6"/>
      </g>
     </g>
    </g>
    <g id="xtick_8">
     <g id="line2d_45">
      <path d="M 146.420329 293.76 
L 146.420329 3.456 
" clip-path="url(#pd698250158)" style="fill: none; stroke: #b0b0b0; stroke-width: 0.8; stroke-linecap: square"/>
     </g>
     <g id="line2d_46">
      <g>
       <use xlink:href="#m380e194a55" x="146.420329" y="293.76" style="stroke: #000000; stroke-width: 0.6"/>
      </g>
     </g>
    </g>
    <g id="xtick_9">
     <g id="line2d_47">
      <path d="M 152.199111 293.76 
L 152.199111 3.456 
" clip-path="url(#pd698250158)" style="fill: none; stroke: #b0b0b0; stroke-width: 0.8; stroke-linecap: square"/>
     </g>
     <g id="line2d_48">
      <g>
       <use xlink:href="#m380e194a55" x="152.199111" y="293.76" style="stroke: #000000; stroke-width: 0.6"/>
      </g>
     </g>
    </g>
    <g id="xtick_10">
     <g id="line2d_49">
      <path d="M 157.296358 293.76 
L 157.296358 3.456 
" clip-path="url(#pd698250158)" style="fill: none; stroke: #b0b0b0; stroke-width: 0.8; stroke-linecap: square"/>
     </g>
     <g id="line2d_50">
      <g>
       <use xlink:href="#m380e194a55" x="157.296358" y="293.76" style="stroke: #000000; stroke-width: 0.6"/>
      </g>
     </g>
    </g>
    <g id="xtick_11">
     <g id="line2d_51">
      <path d="M 191.853037 293.76 
L 191.853037 3.456 
" clip-path="url(#pd698250158)" style="fill: none; stroke: #b0b0b0; stroke-width: 0.8; stroke-linecap: square"/>
     </g>
     <g id="line2d_52">
      <g>
       <use xlink:href="#m380e194a55" x="191.853037" y="293.76" style="stroke: #000000; stroke-width: 0.6"/>
      </g>
     </g>
    </g>
    <g id="xtick_12">
     <g id="line2d_53">
      <path d="M 209.400179 293.76 
L 209.400179 3.456 
" clip-path="url(#pd698250158)" style="fill: none; stroke: #b0b0b0; stroke-width: 0.8; stroke-linecap: square"/>
     </g>
     <g id="line2d_54">
      <g>
       <use xlink:href="#m380e194a55" x="209.400179" y="293.76" style="stroke: #000000; stroke-width: 0.6"/>
      </g>
     </g>
    </g>
    <g id="xtick_13">
     <g id="line2d_55">
      <path d="M 221.850074 293.76 
L 221.850074 3.456 
" clip-path="url(#pd698250158)" style="fill: none; stroke: #b0b0b0; stroke-width: 0.8; stroke-linecap: square"/>
     </g>
     <g id="line2d_56">
      <g>
       <use xlink:href="#m380e194a55" x="221.850074" y="293.76" style="stroke: #000000; stroke-width: 0.6"/>
      </g>
     </g>
    </g>
    <g id="xtick_14">
     <g id="line2d_57">
      <path d="M 231.506963 293.76 
L 231.506963 3.456 
" clip-path="url(#pd698250158)" style="fill: none; stroke: #b0b0b0; stroke-width: 0.8; stroke-linecap: square"/>
     </g>
     <g id="line2d_58">
      <g>
       <use xlink:href="#m380e194a55" x="231.506963" y="293.76" style="stroke: #000000; stroke-width: 0.6"/>
      </g>
     </g>
    </g>
    <g id="xtick_15">
     <g id="line2d_59">
      <path d="M 239.397216 293.76 
L 239.397216 3.456 
" clip-path="url(#pd698250158)" style="fill: none; stroke: #b0b0b0; stroke-width: 0.8; stroke-linecap: square"/>
     </g>
     <g id="line2d_60">
      <g>
       <use xlink:href="#m380e194a55" x="239.397216" y="293.76" style="stroke: #000000; stroke-width: 0.6"/>
      </g>
     </g>
    </g>
    <g id="xtick_16">
     <g id="line2d_61">
      <path d="M 246.068329 293.76 
L 246.068329 3.456 
" clip-path="url(#pd698250158)" style="fill: none; stroke: #b0b0b0; stroke-width: 0.8; stroke-linecap: square"/>
     </g>
     <g id="line2d_62">
      <g>
       <use xlink:href="#m380e194a55" x="246.068329" y="293.76" style="stroke: #000000; stroke-width: 0.6"/>
      </g>
     </g>
    </g>
    <g id="xtick_17">
     <g id="line2d_63">
      <path d="M 251.847111 293.76 
L 251.847111 3.456 
" clip-path="url(#pd698250158)" style="fill: none; stroke: #b0b0b0; stroke-width: 0.8; stroke-linecap: square"/>
     </g>
     <g id="line2d_64">
      <g>
       <use xlink:href="#m380e194a55" x="251.847111" y="293.76" style="stroke: #000000; stroke-width: 0.6"/>
      </g>
     </g>
    </g>
    <g id="xtick_18">
     <g id="line2d_65">
      <path d="M 256.944358 293.76 
L 256.944358 3.456 
" clip-path="url(#pd698250158)" style="fill: none; stroke: #b0b0b0; stroke-width: 0.8; stroke-linecap: square"/>
     </g>
     <g id="line2d_66">
      <g>
       <use xlink:href="#m380e194a55" x="256.944358" y="293.76" style="stroke: #000000; stroke-width: 0.6"/>
      </g>
     </g>
    </g>
    <g id="xtick_19">
     <g id="line2d_67">
      <path d="M 291.501037 293.76 
L 291.501037 3.456 
" clip-path="url(#pd698250158)" style="fill: none; stroke: #b0b0b0; stroke-width: 0.8; stroke-linecap: square"/>
     </g>
     <g id="line2d_68">
      <g>
       <use xlink:href="#m380e194a55" x="291.501037" y="293.76" style="stroke: #000000; stroke-width: 0.6"/>
      </g>
     </g>
    </g>
    <g id="xtick_20">
     <g id="line2d_69">
      <path d="M 309.048179 293.76 
L 309.048179 3.456 
" clip-path="url(#pd698250158)" style="fill: none; stroke: #b0b0b0; stroke-width: 0.8; stroke-linecap: square"/>
     </g>
     <g id="line2d_70">
      <g>
       <use xlink:href="#m380e194a55" x="309.048179" y="293.76" style="stroke: #000000; stroke-width: 0.6"/>
      </g>
     </g>
    </g>
    <g id="xtick_21">
     <g id="line2d_71">
      <path d="M 321.498074 293.76 
L 321.498074 3.456 
" clip-path="url(#pd698250158)" style="fill: none; stroke: #b0b0b0; stroke-width: 0.8; stroke-linecap: square"/>
     </g>
     <g id="line2d_72">
      <g>
       <use xlink:href="#m380e194a55" x="321.498074" y="293.76" style="stroke: #000000; stroke-width: 0.6"/>
      </g>
     </g>
    </g>
    <g id="xtick_22">
     <g id="line2d_73">
      <path d="M 331.154963 293.76 
L 331.154963 3.456 
" clip-path="url(#pd698250158)" style="fill: none; stroke: #b0b0b0; stroke-width: 0.8; stroke-linecap: square"/>
     </g>
     <g id="line2d_74">
      <g>
       <use xlink:href="#m380e194a55" x="331.154963" y="293.76" style="stroke: #000000; stroke-width: 0.6"/>
      </g>
     </g>
    </g>
    <g id="xtick_23">
     <g id="line2d_75">
      <path d="M 339.045216 293.76 
L 339.045216 3.456 
" clip-path="url(#pd698250158)" style="fill: none; stroke: #b0b0b0; stroke-width: 0.8; stroke-linecap: square"/>
     </g>
     <g id="line2d_76">
      <g>
       <use xlink:href="#m380e194a55" x="339.045216" y="293.76" style="stroke: #000000; stroke-width: 0.6"/>
      </g>
     </g>
    </g>
    <g id="xtick_24">
     <g id="line2d_77">
      <path d="M 345.716329 293.76 
L 345.716329 3.456 
" clip-path="url(#pd698250158)" style="fill: none; stroke: #b0b0b0; stroke-width: 0.8; stroke-linecap: square"/>
     </g>
     <g id="line2d_78">
      <g>
       <use xlink:href="#m380e194a55" x="345.716329" y="293.76" style="stroke: #000000; stroke-width: 0.6"/>
      </g>
     </g>
    </g>
    <g id="xtick_25">
     <g id="line2d_79">
      <path d="M 351.495111 293.76 
L 351.495111 3.456 
" clip-path="url(#pd698250158)" style="fill: none; stroke: #b0b0b0; stroke-width: 0.8; stroke-linecap: square"/>
     </g>
     <g id="line2d_80">
      <g>
       <use xlink:href="#m380e194a55" x="351.495111" y="293.76" style="stroke: #000000; stroke-width: 0.6"/>
      </g>
     </g>
    </g>
    <g id="xtick_26">
     <g id="line2d_81">
      <path d="M 356.592358 293.76 
L 356.592358 3.456 
" clip-path="url(#pd698250158)" style="fill: none; stroke: #b0b0b0; stroke-width: 0.8; stroke-linecap: square"/>
     </g>
     <g id="line2d_82">
      <g>
       <use xlink:href="#m380e194a55" x="356.592358" y="293.76" style="stroke: #000000; stroke-width: 0.6"/>
      </g>
     </g>
    </g>
    <g id="xtick_27">
     <g id="line2d_83">
      <path d="M 391.149037 293.76 
L 391.149037 3.456 
" clip-path="url(#pd698250158)" style="fill: none; stroke: #b0b0b0; stroke-width: 0.8; stroke-linecap: square"/>
     </g>
     <g id="line2d_84">
      <g>
       <use xlink:href="#m380e194a55" x="391.149037" y="293.76" style="stroke: #000000; stroke-width: 0.6"/>
      </g>
     </g>
    </g>
    <g id="xtick_28">
     <g id="line2d_85">
      <path d="M 408.696179 293.76 
L 408.696179 3.456 
" clip-path="url(#pd698250158)" style="fill: none; stroke: #b0b0b0; stroke-width: 0.8; stroke-linecap: square"/>
     </g>
     <g id="line2d_86">
      <g>
       <use xlink:href="#m380e194a55" x="408.696179" y="293.76" style="stroke: #000000; stroke-width: 0.6"/>
      </g>
     </g>
    </g>
    <g id="xtick_29">
     <g id="line2d_87">
      <path d="M 421.146074 293.76 
L 421.146074 3.456 
" clip-path="url(#pd698250158)" style="fill: none; stroke: #b0b0b0; stroke-width: 0.8; stroke-linecap: square"/>
     </g>
     <g id="line2d_88">
      <g>
       <use xlink:href="#m380e194a55" x="421.146074" y="293.76" style="stroke: #000000; stroke-width: 0.6"/>
      </g>
     </g>
    </g>
    <g id="xtick_30">
     <g id="line2d_89">
      <path d="M 430.802963 293.76 
L 430.802963 3.456 
" clip-path="url(#pd698250158)" style="fill: none; stroke: #b0b0b0; stroke-width: 0.8; stroke-linecap: square"/>
     </g>
     <g id="line2d_90">
      <g>
       <use xlink:href="#m380e194a55" x="430.802963" y="293.76" style="stroke: #000000; stroke-width: 0.6"/>
      </g>
     </g>
    </g>
    <g id="xtick_31">
     <g id="line2d_91">
      <path d="M 438.693216 293.76 
L 438.693216 3.456 
" clip-path="url(#pd698250158)" style="fill: none; stroke: #b0b0b0; stroke-width: 0.8; stroke-linecap: square"/>
     </g>
     <g id="line2d_92">
      <g>
       <use xlink:href="#m380e194a55" x="438.693216" y="293.76" style="stroke: #000000; stroke-width: 0.6"/>
      </g>
     </g>
    </g>
    <g id="xtick_32">
     <g id="line2d_93">
      <path d="M 445.364329 293.76 
L 445.364329 3.456 
" clip-path="url(#pd698250158)" style="fill: none; stroke: #b0b0b0; stroke-width: 0.8; stroke-linecap: square"/>
     </g>
     <g id="line2d_94">
      <g>
       <use xlink:href="#m380e194a55" x="445.364329" y="293.76" style="stroke: #000000; stroke-width: 0.6"/>
      </g>
     </g>
    </g>
    <g id="xtick_33">
     <g id="line2d_95">
      <path d="M 451.143111 293.76 
L 451.143111 3.456 
" clip-path="url(#pd698250158)" style="fill: none; stroke: #b0b0b0; stroke-width: 0.8; stroke-linecap: square"/>
     </g>
     <g id="line2d_96">
      <g>
       <use xlink:href="#m380e194a55" x="451.143111" y="293.76" style="stroke: #000000; stroke-width: 0.6"/>
      </g>
     </g>
    </g>
    <g id="xtick_34">
     <g id="line2d_97">
      <path d="M 456.240358 293.76 
L 456.240358 3.456 
" clip-path="url(#pd698250158)" style="fill: none; stroke: #b0b0b0; stroke-width: 0.8; stroke-linecap: square"/>
     </g>
     <g id="line2d_98">
      <g>
       <use xlink:href="#m380e194a55" x="456.240358" y="293.76" style="stroke: #000000; stroke-width: 0.6"/>
      </g>
     </g>
    </g>
    <g id="text_3">
     <!-- log10 of FEvals / DIM -->
     <g transform="translate(156.430563 339.313125) scale(0.2 -0.2)">
      <defs>
       <path id="DejaVuSans-6c" d="M 603 4863 
L 1178 4863 
L 1178 0 
L 603 0 
L 603 4863 
z
" transform="scale(0.015625)"/>
       <path id="DejaVuSans-6f" d="M 1959 3097 
Q 1497 3097 1228 2736 
Q 959 2375 959 1747 
Q 959 1119 1226 758 
Q 1494 397 1959 397 
Q 2419 397 2687 759 
Q 2956 1122 2956 1747 
Q 2956 2369 2687 2733 
Q 2419 3097 1959 3097 
z
M 1959 3584 
Q 2709 3584 3137 3096 
Q 3566 2609 3566 1747 
Q 3566 888 3137 398 
Q 2709 -91 1959 -91 
Q 1206 -91 779 398 
Q 353 888 353 1747 
Q 353 2609 779 3096 
Q 1206 3584 1959 3584 
z
" transform="scale(0.015625)"/>
       <path id="DejaVuSans-67" d="M 2906 1791 
Q 2906 2416 2648 2759 
Q 2391 3103 1925 3103 
Q 1463 3103 1205 2759 
Q 947 2416 947 1791 
Q 947 1169 1205 825 
Q 1463 481 1925 481 
Q 2391 481 2648 825 
Q 2906 1169 2906 1791 
z
M 3481 434 
Q 3481 -459 3084 -895 
Q 2688 -1331 1869 -1331 
Q 1566 -1331 1297 -1286 
Q 1028 -1241 775 -1147 
L 775 -588 
Q 1028 -725 1275 -790 
Q 1522 -856 1778 -856 
Q 2344 -856 2625 -561 
Q 2906 -266 2906 331 
L 2906 616 
Q 2728 306 2450 153 
Q 2172 0 1784 0 
Q 1141 0 747 490 
Q 353 981 353 1791 
Q 353 2603 747 3093 
Q 1141 3584 1784 3584 
Q 2172 3584 2450 3431 
Q 2728 3278 2906 2969 
L 2906 3500 
L 3481 3500 
L 3481 434 
z
" transform="scale(0.015625)"/>
       <path id="DejaVuSans-30" d="M 2034 4250 
Q 1547 4250 1301 3770 
Q 1056 3291 1056 2328 
Q 1056 1369 1301 889 
Q 1547 409 2034 409 
Q 2525 409 2770 889 
Q 3016 1369 3016 2328 
Q 3016 3291 2770 3770 
Q 2525 4250 2034 4250 
z
M 2034 4750 
Q 2819 4750 3233 4129 
Q 3647 3509 3647 2328 
Q 3647 1150 3233 529 
Q 2819 -91 2034 -91 
Q 1250 -91 836 529 
Q 422 1150 422 2328 
Q 422 3509 836 4129 
Q 1250 4750 2034 4750 
z
" transform="scale(0.015625)"/>
       <path id="DejaVuSans-20" transform="scale(0.015625)"/>
       <path id="DejaVuSans-66" d="M 2375 4863 
L 2375 4384 
L 1825 4384 
Q 1516 4384 1395 4259 
Q 1275 4134 1275 3809 
L 1275 3500 
L 2222 3500 
L 2222 3053 
L 1275 3053 
L 1275 0 
L 697 0 
L 697 3053 
L 147 3053 
L 147 3500 
L 697 3500 
L 697 3744 
Q 697 4328 969 4595 
Q 1241 4863 1831 4863 
L 2375 4863 
z
" transform="scale(0.015625)"/>
       <path id="DejaVuSans-46" d="M 628 4666 
L 3309 4666 
L 3309 4134 
L 1259 4134 
L 1259 2759 
L 3109 2759 
L 3109 2228 
L 1259 2228 
L 1259 0 
L 628 0 
L 628 4666 
z
" transform="scale(0.015625)"/>
       <path id="DejaVuSans-45" d="M 628 4666 
L 3578 4666 
L 3578 4134 
L 1259 4134 
L 1259 2753 
L 3481 2753 
L 3481 2222 
L 1259 2222 
L 1259 531 
L 3634 531 
L 3634 0 
L 628 0 
L 628 4666 
z
" transform="scale(0.015625)"/>
       <path id="DejaVuSans-76" d="M 191 3500 
L 800 3500 
L 1894 563 
L 2988 3500 
L 3597 3500 
L 2284 0 
L 1503 0 
L 191 3500 
z
" transform="scale(0.015625)"/>
       <path id="DejaVuSans-61" d="M 2194 1759 
Q 1497 1759 1228 1600 
Q 959 1441 959 1056 
Q 959 750 1161 570 
Q 1363 391 1709 391 
Q 2188 391 2477 730 
Q 2766 1069 2766 1631 
L 2766 1759 
L 2194 1759 
z
M 3341 1997 
L 3341 0 
L 2766 0 
L 2766 531 
Q 2569 213 2275 61 
Q 1981 -91 1556 -91 
Q 1019 -91 701 211 
Q 384 513 384 1019 
Q 384 1609 779 1909 
Q 1175 2209 1959 2209 
L 2766 2209 
L 2766 2266 
Q 2766 2663 2505 2880 
Q 2244 3097 1772 3097 
Q 1472 3097 1187 3025 
Q 903 2953 641 2809 
L 641 3341 
Q 956 3463 1253 3523 
Q 1550 3584 1831 3584 
Q 2591 3584 2966 3190 
Q 3341 2797 3341 1997 
z
" transform="scale(0.015625)"/>
       <path id="DejaVuSans-73" d="M 2834 3397 
L 2834 2853 
Q 2591 2978 2328 3040 
Q 2066 3103 1784 3103 
Q 1356 3103 1142 2972 
Q 928 2841 928 2578 
Q 928 2378 1081 2264 
Q 1234 2150 1697 2047 
L 1894 2003 
Q 2506 1872 2764 1633 
Q 3022 1394 3022 966 
Q 3022 478 2636 193 
Q 2250 -91 1575 -91 
Q 1294 -91 989 -36 
Q 684 19 347 128 
L 347 722 
Q 666 556 975 473 
Q 1284 391 1588 391 
Q 1994 391 2212 530 
Q 2431 669 2431 922 
Q 2431 1156 2273 1281 
Q 2116 1406 1581 1522 
L 1381 1569 
Q 847 1681 609 1914 
Q 372 2147 372 2553 
Q 372 3047 722 3315 
Q 1072 3584 1716 3584 
Q 2034 3584 2315 3537 
Q 2597 3491 2834 3397 
z
" transform="scale(0.015625)"/>
       <path id="DejaVuSans-2f" d="M 1625 4666 
L 2156 4666 
L 531 -594 
L 0 -594 
L 1625 4666 
z
" transform="scale(0.015625)"/>
       <path id="DejaVuSans-44" d="M 1259 4147 
L 1259 519 
L 2022 519 
Q 2988 519 3436 956 
Q 3884 1394 3884 2338 
Q 3884 3275 3436 3711 
Q 2988 4147 2022 4147 
L 1259 4147 
z
M 628 4666 
L 1925 4666 
Q 3281 4666 3915 4102 
Q 4550 3538 4550 2338 
Q 4550 1131 3912 565 
Q 3275 0 1925 0 
L 628 0 
L 628 4666 
z
" transform="scale(0.015625)"/>
       <path id="DejaVuSans-49" d="M 628 4666 
L 1259 4666 
L 1259 0 
L 628 0 
L 628 4666 
z
" transform="scale(0.015625)"/>
       <path id="DejaVuSans-4d" d="M 628 4666 
L 1569 4666 
L 2759 1491 
L 3956 4666 
L 4897 4666 
L 4897 0 
L 4281 0 
L 4281 4097 
L 3078 897 
L 2444 897 
L 1241 4097 
L 1241 0 
L 628 0 
L 628 4666 
z
" transform="scale(0.015625)"/>
      </defs>
      <use xlink:href="#DejaVuSans-6c"/>
      <use xlink:href="#DejaVuSans-6f" x="27.783203"/>
      <use xlink:href="#DejaVuSans-67" x="88.964844"/>
      <use xlink:href="#DejaVuSans-31" x="152.441406"/>
      <use xlink:href="#DejaVuSans-30" x="216.064453"/>
      <use xlink:href="#DejaVuSans-20" x="279.6875"/>
      <use xlink:href="#DejaVuSans-6f" x="311.474609"/>
      <use xlink:href="#DejaVuSans-66" x="372.65625"/>
      <use xlink:href="#DejaVuSans-20" x="407.861328"/>
      <use xlink:href="#DejaVuSans-46" x="439.648438"/>
      <use xlink:href="#DejaVuSans-45" x="497.167969"/>
      <use xlink:href="#DejaVuSans-76" x="560.351562"/>
      <use xlink:href="#DejaVuSans-61" x="619.53125"/>
      <use xlink:href="#DejaVuSans-6c" x="680.810547"/>
      <use xlink:href="#DejaVuSans-73" x="708.59375"/>
      <use xlink:href="#DejaVuSans-20" x="760.693359"/>
      <use xlink:href="#DejaVuSans-2f" x="792.480469"/>
      <use xlink:href="#DejaVuSans-20" x="826.171875"/>
      <use xlink:href="#DejaVuSans-44" x="857.958984"/>
      <use xlink:href="#DejaVuSans-49" x="934.960938"/>
      <use xlink:href="#DejaVuSans-4d" x="964.453125"/>
     </g>
    </g>
   </g>
   <g id="matplotlib.axis_2">
    <g id="ytick_1">
     <g id="line2d_99">
      <path d="M 62.208 293.76 
L 460.8 293.76 
" clip-path="url(#pd698250158)" style="fill: none; stroke: #b0b0b0; stroke-width: 0.8; stroke-linecap: square"/>
     </g>
     <g id="line2d_100">
      <defs>
       <path id="mc959a05f15" d="M 0 0 
L -3.5 0 
" style="stroke: #000000; stroke-width: 0.8"/>
      </defs>
      <g>
       <use xlink:href="#mc959a05f15" x="62.208" y="293.76" style="stroke: #000000; stroke-width: 0.8"/>
      </g>
     </g>
     <g id="text_4">
      <!-- 0.0 -->
      <g transform="translate(29.763 299.83875) scale(0.16 -0.16)">
       <defs>
        <path id="DejaVuSans-2e" d="M 684 794 
L 1344 794 
L 1344 0 
L 684 0 
L 684 794 
z
" transform="scale(0.015625)"/>
       </defs>
       <use xlink:href="#DejaVuSans-30"/>
       <use xlink:href="#DejaVuSans-2e" x="63.623047"/>
       <use xlink:href="#DejaVuSans-30" x="95.410156"/>
      </g>
     </g>
    </g>
    <g id="ytick_2">
     <g id="line2d_101">
      <path d="M 62.208 236.274059 
L 460.8 236.274059 
" clip-path="url(#pd698250158)" style="fill: none; stroke: #b0b0b0; stroke-width: 0.8; stroke-linecap: square"/>
     </g>
     <g id="line2d_102">
      <g>
       <use xlink:href="#mc959a05f15" x="62.208" y="236.274059" style="stroke: #000000; stroke-width: 0.8"/>
      </g>
     </g>
     <g id="text_5">
      <!-- 0.2 -->
      <g transform="translate(29.763 242.352809) scale(0.16 -0.16)">
       <defs>
        <path id="DejaVuSans-32" d="M 1228 531 
L 3431 531 
L 3431 0 
L 469 0 
L 469 531 
Q 828 903 1448 1529 
Q 2069 2156 2228 2338 
Q 2531 2678 2651 2914 
Q 2772 3150 2772 3378 
Q 2772 3750 2511 3984 
Q 2250 4219 1831 4219 
Q 1534 4219 1204 4116 
Q 875 4013 500 3803 
L 500 4441 
Q 881 4594 1212 4672 
Q 1544 4750 1819 4750 
Q 2544 4750 2975 4387 
Q 3406 4025 3406 3419 
Q 3406 3131 3298 2873 
Q 3191 2616 2906 2266 
Q 2828 2175 2409 1742 
Q 1991 1309 1228 531 
z
" transform="scale(0.015625)"/>
       </defs>
       <use xlink:href="#DejaVuSans-30"/>
       <use xlink:href="#DejaVuSans-2e" x="63.623047"/>
       <use xlink:href="#DejaVuSans-32" x="95.410156"/>
      </g>
     </g>
    </g>
    <g id="ytick_3">
     <g id="line2d_103">
      <path d="M 62.208 178.788119 
L 460.8 178.788119 
" clip-path="url(#pd698250158)" style="fill: none; stroke: #b0b0b0; stroke-width: 0.8; stroke-linecap: square"/>
     </g>
     <g id="line2d_104">
      <g>
       <use xlink:href="#mc959a05f15" x="62.208" y="178.788119" style="stroke: #000000; stroke-width: 0.8"/>
      </g>
     </g>
     <g id="text_6">
      <!-- 0.4 -->
      <g transform="translate(29.763 184.866869) scale(0.16 -0.16)">
       <defs>
        <path id="DejaVuSans-34" d="M 2419 4116 
L 825 1625 
L 2419 1625 
L 2419 4116 
z
M 2253 4666 
L 3047 4666 
L 3047 1625 
L 3713 1625 
L 3713 1100 
L 3047 1100 
L 3047 0 
L 2419 0 
L 2419 1100 
L 313 1100 
L 313 1709 
L 2253 4666 
z
" transform="scale(0.015625)"/>
       </defs>
       <use xlink:href="#DejaVuSans-30"/>
       <use xlink:href="#DejaVuSans-2e" x="63.623047"/>
       <use xlink:href="#DejaVuSans-34" x="95.410156"/>
      </g>
     </g>
    </g>
    <g id="ytick_4">
     <g id="line2d_105">
      <path d="M 62.208 121.302178 
L 460.8 121.302178 
" clip-path="url(#pd698250158)" style="fill: none; stroke: #b0b0b0; stroke-width: 0.8; stroke-linecap: square"/>
     </g>
     <g id="line2d_106">
      <g>
       <use xlink:href="#mc959a05f15" x="62.208" y="121.302178" style="stroke: #000000; stroke-width: 0.8"/>
      </g>
     </g>
     <g id="text_7">
      <!-- 0.6 -->
      <g transform="translate(29.763 127.380928) scale(0.16 -0.16)">
       <defs>
        <path id="DejaVuSans-36" d="M 2113 2584 
Q 1688 2584 1439 2293 
Q 1191 2003 1191 1497 
Q 1191 994 1439 701 
Q 1688 409 2113 409 
Q 2538 409 2786 701 
Q 3034 994 3034 1497 
Q 3034 2003 2786 2293 
Q 2538 2584 2113 2584 
z
M 3366 4563 
L 3366 3988 
Q 3128 4100 2886 4159 
Q 2644 4219 2406 4219 
Q 1781 4219 1451 3797 
Q 1122 3375 1075 2522 
Q 1259 2794 1537 2939 
Q 1816 3084 2150 3084 
Q 2853 3084 3261 2657 
Q 3669 2231 3669 1497 
Q 3669 778 3244 343 
Q 2819 -91 2113 -91 
Q 1303 -91 875 529 
Q 447 1150 447 2328 
Q 447 3434 972 4092 
Q 1497 4750 2381 4750 
Q 2619 4750 2861 4703 
Q 3103 4656 3366 4563 
z
" transform="scale(0.015625)"/>
       </defs>
       <use xlink:href="#DejaVuSans-30"/>
       <use xlink:href="#DejaVuSans-2e" x="63.623047"/>
       <use xlink:href="#DejaVuSans-36" x="95.410156"/>
      </g>
     </g>
    </g>
    <g id="ytick_5">
     <g id="line2d_107">
      <path d="M 62.208 63.816238 
L 460.8 63.816238 
" clip-path="url(#pd698250158)" style="fill: none; stroke: #b0b0b0; stroke-width: 0.8; stroke-linecap: square"/>
     </g>
     <g id="line2d_108">
      <g>
       <use xlink:href="#mc959a05f15" x="62.208" y="63.816238" style="stroke: #000000; stroke-width: 0.8"/>
      </g>
     </g>
     <g id="text_8">
      <!-- 0.8 -->
      <g transform="translate(29.763 69.894988) scale(0.16 -0.16)">
       <defs>
        <path id="DejaVuSans-38" d="M 2034 2216 
Q 1584 2216 1326 1975 
Q 1069 1734 1069 1313 
Q 1069 891 1326 650 
Q 1584 409 2034 409 
Q 2484 409 2743 651 
Q 3003 894 3003 1313 
Q 3003 1734 2745 1975 
Q 2488 2216 2034 2216 
z
M 1403 2484 
Q 997 2584 770 2862 
Q 544 3141 544 3541 
Q 544 4100 942 4425 
Q 1341 4750 2034 4750 
Q 2731 4750 3128 4425 
Q 3525 4100 3525 3541 
Q 3525 3141 3298 2862 
Q 3072 2584 2669 2484 
Q 3125 2378 3379 2068 
Q 3634 1759 3634 1313 
Q 3634 634 3220 271 
Q 2806 -91 2034 -91 
Q 1263 -91 848 271 
Q 434 634 434 1313 
Q 434 1759 690 2068 
Q 947 2378 1403 2484 
z
M 1172 3481 
Q 1172 3119 1398 2916 
Q 1625 2713 2034 2713 
Q 2441 2713 2670 2916 
Q 2900 3119 2900 3481 
Q 2900 3844 2670 4047 
Q 2441 4250 2034 4250 
Q 1625 4250 1398 4047 
Q 1172 3844 1172 3481 
z
" transform="scale(0.015625)"/>
       </defs>
       <use xlink:href="#DejaVuSans-30"/>
       <use xlink:href="#DejaVuSans-2e" x="63.623047"/>
       <use xlink:href="#DejaVuSans-38" x="95.410156"/>
      </g>
     </g>
    </g>
    <g id="ytick_6">
     <g id="line2d_109">
      <path d="M 62.208 6.330297 
L 460.8 6.330297 
" clip-path="url(#pd698250158)" style="fill: none; stroke: #b0b0b0; stroke-width: 0.8; stroke-linecap: square"/>
     </g>
     <g id="line2d_110">
      <g>
       <use xlink:href="#mc959a05f15" x="62.208" y="6.330297" style="stroke: #000000; stroke-width: 0.8"/>
      </g>
     </g>
     <g id="text_9">
      <!-- 1.0 -->
      <g transform="translate(29.763 12.409047) scale(0.16 -0.16)">
       <use xlink:href="#DejaVuSans-31"/>
       <use xlink:href="#DejaVuSans-2e" x="63.623047"/>
       <use xlink:href="#DejaVuSans-30" x="95.410156"/>
      </g>
     </g>
    </g>
    <g id="text_10">
     <!-- proportion of trials -->
     <g transform="translate(21.603625 241.61425) rotate(-90) scale(0.2 -0.2)">
      <defs>
       <path id="DejaVuSans-70" d="M 1159 525 
L 1159 -1331 
L 581 -1331 
L 581 3500 
L 1159 3500 
L 1159 2969 
Q 1341 3281 1617 3432 
Q 1894 3584 2278 3584 
Q 2916 3584 3314 3078 
Q 3713 2572 3713 1747 
Q 3713 922 3314 415 
Q 2916 -91 2278 -91 
Q 1894 -91 1617 61 
Q 1341 213 1159 525 
z
M 3116 1747 
Q 3116 2381 2855 2742 
Q 2594 3103 2138 3103 
Q 1681 3103 1420 2742 
Q 1159 2381 1159 1747 
Q 1159 1113 1420 752 
Q 1681 391 2138 391 
Q 2594 391 2855 752 
Q 3116 1113 3116 1747 
z
" transform="scale(0.015625)"/>
       <path id="DejaVuSans-72" d="M 2631 2963 
Q 2534 3019 2420 3045 
Q 2306 3072 2169 3072 
Q 1681 3072 1420 2755 
Q 1159 2438 1159 1844 
L 1159 0 
L 581 0 
L 581 3500 
L 1159 3500 
L 1159 2956 
Q 1341 3275 1631 3429 
Q 1922 3584 2338 3584 
Q 2397 3584 2469 3576 
Q 2541 3569 2628 3553 
L 2631 2963 
z
" transform="scale(0.015625)"/>
       <path id="DejaVuSans-74" d="M 1172 4494 
L 1172 3500 
L 2356 3500 
L 2356 3053 
L 1172 3053 
L 1172 1153 
Q 1172 725 1289 603 
Q 1406 481 1766 481 
L 2356 481 
L 2356 0 
L 1766 0 
Q 1100 0 847 248 
Q 594 497 594 1153 
L 594 3053 
L 172 3053 
L 172 3500 
L 594 3500 
L 594 4494 
L 1172 4494 
z
" transform="scale(0.015625)"/>
       <path id="DejaVuSans-69" d="M 603 3500 
L 1178 3500 
L 1178 0 
L 603 0 
L 603 3500 
z
M 603 4863 
L 1178 4863 
L 1178 4134 
L 603 4134 
L 603 4863 
z
" transform="scale(0.015625)"/>
       <path id="DejaVuSans-6e" d="M 3513 2113 
L 3513 0 
L 2938 0 
L 2938 2094 
Q 2938 2591 2744 2837 
Q 2550 3084 2163 3084 
Q 1697 3084 1428 2787 
Q 1159 2491 1159 1978 
L 1159 0 
L 581 0 
L 581 3500 
L 1159 3500 
L 1159 2956 
Q 1366 3272 1645 3428 
Q 1925 3584 2291 3584 
Q 2894 3584 3203 3211 
Q 3513 2838 3513 2113 
z
" transform="scale(0.015625)"/>
      </defs>
      <use xlink:href="#DejaVuSans-70"/>
      <use xlink:href="#DejaVuSans-72" x="63.476562"/>
      <use xlink:href="#DejaVuSans-6f" x="102.339844"/>
      <use xlink:href="#DejaVuSans-70" x="163.521484"/>
      <use xlink:href="#DejaVuSans-6f" x="226.998047"/>
      <use xlink:href="#DejaVuSans-72" x="288.179688"/>
      <use xlink:href="#DejaVuSans-74" x="329.292969"/>
      <use xlink:href="#DejaVuSans-69" x="368.501953"/>
      <use xlink:href="#DejaVuSans-6f" x="396.285156"/>
      <use xlink:href="#DejaVuSans-6e" x="457.466797"/>
      <use xlink:href="#DejaVuSans-20" x="520.845703"/>
      <use xlink:href="#DejaVuSans-6f" x="552.632812"/>
      <use xlink:href="#DejaVuSans-66" x="613.814453"/>
      <use xlink:href="#DejaVuSans-20" x="649.019531"/>
      <use xlink:href="#DejaVuSans-74" x="680.806641"/>
      <use xlink:href="#DejaVuSans-72" x="720.015625"/>
      <use xlink:href="#DejaVuSans-69" x="761.128906"/>
      <use xlink:href="#DejaVuSans-61" x="788.912109"/>
      <use xlink:href="#DejaVuSans-6c" x="850.191406"/>
      <use xlink:href="#DejaVuSans-73" x="877.974609"/>
     </g>
    </g>
   </g>
   <g id="line2d_111">
    <path d="M 10.104179 293.76 
L 10.104179 289.927604 
L 62.208 289.927604 
L 62.208 286.095208 
L 76.769366 286.095208 
L 76.769366 282.262812 
L 79.755142 282.262812 
L 79.755142 278.430416 
L 96.329735 278.430416 
L 96.329735 274.59802 
L 111.17121 274.59802 
L 111.17121 270.765624 
L 112.545185 270.765624 
L 112.545185 266.933228 
L 119.982276 266.933228 
L 119.982276 263.100832 
L 123.270686 263.100832 
L 123.270686 259.268436 
L 127.299321 259.268436 
L 127.299321 255.43604 
L 129.181207 255.43604 
L 129.181207 251.603644 
L 131.858963 251.603644 
L 131.858963 247.771248 
L 135.983661 247.771248 
L 135.983661 243.938851 
L 137.529418 243.938851 
L 137.529418 240.106455 
L 142.542222 240.106455 
L 142.542222 236.274059 
L 145.797634 236.274059 
L 145.797634 232.441663 
L 149.979313 232.441663 
L 149.979313 228.609267 
L 151.103443 228.609267 
L 151.103443 224.776871 
L 153.267723 224.776871 
L 153.267723 217.112079 
L 164.377679 217.112079 
L 164.377679 213.279683 
L 170.461584 213.279683 
L 170.461584 209.447287 
L 175.162885 209.447287 
L 175.162885 205.614891 
L 177.334925 205.614891 
L 177.334925 201.782495 
L 185.073596 201.782495 
L 185.073596 197.950099 
L 191.418093 197.950099 
L 191.418093 194.117703 
L 199.381141 194.117703 
L 199.381141 190.285307 
L 205.791708 190.285307 
L 205.791708 186.452911 
L 217.649575 186.452911 
L 217.649575 182.620515 
L 268.740186 182.620515 
L 268.740186 178.788119 
L 282.568347 178.788119 
L 282.568347 174.955723 
L 289.121504 174.955723 
L 289.121504 171.123327 
L 292.315578 171.123327 
L 292.315578 167.290931 
L 297.266292 167.290931 
L 297.266292 163.458535 
L 298.773821 163.458535 
L 298.773821 159.626139 
L 301.036582 159.626139 
L 301.036582 151.961347 
L 301.347925 151.961347 
L 301.434014 144.296554 
L 301.639929 144.296554 
L 301.639929 140.464158 
L 301.878933 140.464158 
L 301.878933 136.631762 
L 303.203402 136.631762 
L 303.203402 132.799366 
L 304.855627 132.799366 
L 304.855627 128.96697 
L 305.533686 128.96697 
L 305.533686 125.134574 
L 305.892054 125.134574 
L 305.985055 117.469782 
L 306.308994 117.469782 
L 306.308994 113.637386 
L 306.858739 113.637386 
L 306.858739 109.80499 
L 307.908102 109.80499 
L 307.982091 98.307802 
L 308.496507 98.307802 
L 308.55491 90.64301 
L 308.642367 90.64301 
L 308.642367 86.810614 
L 309.105842 86.810614 
L 309.120246 79.145822 
L 310.578748 79.145822 
L 310.578748 75.313426 
L 311.705734 75.313426 
L 311.705734 71.48103 
L 312.36543 71.48103 
L 312.36543 67.648634 
L 312.856988 67.648634 
L 312.856988 63.816238 
L 313.120389 63.816238 
L 313.120389 59.983842 
L 313.421331 59.983842 
L 313.525518 48.486653 
L 313.603493 48.486653 
L 313.603493 44.654257 
L 314.933218 44.654257 
L 314.933218 40.821861 
L 315.570661 40.821861 
L 315.570661 36.989465 
L 316.211077 36.989465 
L 316.211077 33.157069 
L 318.508435 33.157069 
L 318.508435 29.324673 
L 320.402406 29.324673 
L 320.402406 25.492277 
L 323.080827 25.492277 
L 323.080827 21.659881 
L 324.029958 21.659881 
L 324.040162 13.995089 
L 324.597661 13.995089 
L 324.597661 10.162693 
L 338.266486 10.162693 
L 338.266486 6.330297 
L 338.266486 6.330297 
L 460.8 6.330297 
L 460.8 6.330297 
" clip-path="url(#pd698250158)" style="fill: none; stroke: #000000; stroke-width: 1.5; stroke-linecap: square"/>
   </g>
   <g id="line2d_112">
    <path clip-path="url(#pd698250158)" style="fill: none; stroke: #000000; stroke-width: 1.5; stroke-linecap: square"/>
   </g>
   <g id="line2d_113">
    <path d="M 299.373254 293.76 
L 299.373254 289.927604 
L 302.43713 289.927604 
L 302.43713 286.095208 
L 306.645779 286.095208 
L 306.645779 282.262812 
L 308.642367 282.262812 
L 308.642367 278.430416 
L 312.909797 278.430416 
L 312.909797 274.59802 
L 313.343026 274.59802 
L 313.343026 270.765624 
L 313.577517 270.765624 
L 313.577517 266.933228 
L 315.38415 266.933228 
L 315.38415 263.100832 
L 315.50858 263.100832 
L 315.607867 255.43604 
L 317.665586 255.43604 
L 317.665586 251.603644 
L 317.971845 251.603644 
L 317.971845 247.771248 
L 318.229305 247.771248 
L 318.229305 243.938851 
L 318.63577 243.938851 
L 318.63577 240.106455 
L 320.480012 240.106455 
L 320.480012 236.274059 
L 321.378899 236.274059 
L 321.378899 232.441663 
L 322.15306 232.441663 
L 322.15306 228.609267 
L 322.280751 228.609267 
L 322.280751 224.776871 
L 323.74329 224.776871 
L 323.74329 220.944475 
L 325.662097 220.944475 
L 325.662097 217.112079 
L 325.936372 217.112079 
L 325.936372 213.279683 
L 326.325203 213.279683 
L 326.325203 209.447287 
L 326.450824 209.447287 
L 326.450824 205.614891 
L 328.486414 205.614891 
L 328.596743 197.950099 
L 330.430542 197.950099 
L 330.430542 194.117703 
L 330.571136 194.117703 
L 330.571136 190.285307 
L 332.643739 190.285307 
L 332.643739 186.452911 
L 332.768997 186.452911 
L 332.768997 182.620515 
L 336.467096 182.620515 
L 336.467096 178.788119 
L 337.090338 178.788119 
L 337.090338 174.955723 
L 337.203381 174.955723 
L 337.248516 167.290931 
L 338.266486 167.290931 
L 338.266486 163.458535 
L 339.618424 163.458535 
L 339.618424 159.626139 
L 339.73216 159.626139 
L 339.73216 155.793743 
L 340.282383 155.793743 
L 340.282383 151.961347 
L 341.587303 151.961347 
L 341.587303 148.12895 
L 342.221948 148.12895 
L 342.221948 144.296554 
L 342.389181 144.296554 
L 342.389181 140.464158 
L 343.078018 140.464158 
L 343.078018 136.631762 
L 344.232128 136.631762 
L 344.232128 132.799366 
L 345.901404 132.799366 
L 345.901404 128.96697 
L 346.01821 128.96697 
L 346.01821 125.134574 
L 349.942076 125.134574 
L 349.942076 121.302178 
L 351.440981 121.302178 
L 351.440981 117.469782 
L 362.636594 117.469782 
L 362.636594 113.637386 
L 381.667603 113.637386 
L 381.667603 109.80499 
L 382.589777 109.80499 
L 382.589777 105.972594 
L 388.2289 105.972594 
L 388.2289 102.140198 
L 394.111437 102.140198 
L 394.17605 94.475406 
L 408.172259 94.475406 
L 408.172259 90.64301 
L 412.172136 90.64301 
L 412.172136 86.810614 
L 425.07954 86.810614 
L 425.07954 82.978218 
L 428.865589 82.978218 
L 428.865589 79.145822 
L 429.438368 79.145822 
L 429.438368 75.313426 
L 432.395311 75.313426 
L 432.395311 71.48103 
L 433.84329 71.48103 
L 433.84329 67.648634 
L 435.138024 67.648634 
L 435.138024 63.816238 
L 442.655651 63.816238 
L 442.655651 59.983842 
L 448.370873 59.983842 
L 448.370873 56.151446 
L 450.099565 56.151446 
L 450.099565 52.31905 
L 451.801827 52.31905 
L 451.801827 48.486653 
L 452.735772 48.486653 
L 452.735772 44.654257 
L 452.735772 44.654257 
L 460.8 44.654257 
L 460.8 44.654257 
" clip-path="url(#pd698250158)" style="fill: none; stroke: #00bfbf; stroke-width: 1.5; stroke-linecap: square"/>
   </g>
   <g id="line2d_114">
    <path clip-path="url(#pd698250158)" style="fill: none; stroke: #00bfbf; stroke-width: 1.5; stroke-linecap: square"/>
   </g>
   <g id="line2d_115">
    <path d="M 335.91236 293.76 
L 335.91236 289.927604 
L 337.831022 289.927604 
L 337.831022 286.095208 
L 337.919947 286.095208 
L 337.919947 282.262812 
L 339.824351 282.262812 
L 339.824351 278.430416 
L 340.707863 278.430416 
L 340.707863 274.59802 
L 342.688582 274.59802 
L 342.688582 270.765624 
L 343.457467 270.765624 
L 343.457467 266.933228 
L 343.613513 266.933228 
L 343.613513 263.100832 
L 343.878796 263.100832 
L 343.878796 259.268436 
L 343.99475 259.268436 
L 343.99475 255.43604 
L 344.455483 255.43604 
L 344.455483 251.603644 
L 344.487297 251.603644 
L 344.487297 247.771248 
L 344.607978 247.771248 
L 344.607978 243.938851 
L 344.766257 243.938851 
L 344.766257 240.106455 
L 344.911364 240.106455 
L 344.911364 236.274059 
L 345.012022 236.274059 
L 345.012022 232.441663 
L 345.815135 232.441663 
L 345.815135 228.609267 
L 346.427607 228.609267 
L 346.427607 224.776871 
L 346.433688 224.776871 
L 346.433688 220.944475 
L 346.676236 220.944475 
L 346.676236 217.112079 
L 347.157293 217.112079 
L 347.157293 213.279683 
L 348.272989 213.279683 
L 348.272989 209.447287 
L 348.272989 209.447287 
L 348.272989 205.614891 
L 348.325406 205.614891 
L 348.325406 201.782495 
L 349.451477 201.782495 
L 349.451477 197.950099 
L 351.240111 197.950099 
L 351.240111 194.117703 
L 351.272748 194.117703 
L 351.272748 190.285307 
L 351.305361 190.285307 
L 351.305361 186.452911 
L 352.091446 186.452911 
L 352.091446 182.620515 
L 354.880784 182.620515 
L 354.880784 178.788119 
L 357.501173 178.788119 
L 357.501173 174.955723 
L 359.479928 174.955723 
L 359.479928 171.123327 
L 359.789192 171.123327 
L 359.789192 167.290931 
L 361.156327 167.290931 
L 361.156327 163.458535 
L 361.260056 163.458535 
L 361.260056 159.626139 
L 361.693878 159.626139 
L 361.693878 155.793743 
L 361.885773 155.793743 
L 361.885773 151.961347 
L 363.489566 151.961347 
L 363.489566 148.12895 
L 363.710408 148.12895 
L 363.710408 144.296554 
L 363.982857 144.296554 
L 363.982857 140.464158 
L 364.618637 140.464158 
L 364.618637 136.631762 
L 364.94099 136.631762 
L 364.94099 132.799366 
L 367.608673 132.799366 
L 367.608673 128.96697 
L 368.402829 128.96697 
L 368.402829 125.134574 
L 369.063886 125.134574 
L 369.063886 121.302178 
L 369.959307 121.302178 
L 369.959307 117.469782 
L 389.013432 117.469782 
L 389.013432 113.637386 
L 398.071044 113.637386 
L 398.071044 109.80499 
L 400.201039 109.80499 
L 400.201039 105.972594 
L 400.835344 105.972594 
L 400.835344 102.140198 
L 413.510403 102.140198 
L 413.510403 98.307802 
L 422.005185 98.307802 
L 422.005185 94.475406 
L 441.057425 94.475406 
L 441.057425 90.64301 
L 441.057425 90.64301 
L 441.057425 90.64301 
L 460.8 90.64301 
" clip-path="url(#pd698250158)" style="fill: none; stroke: #bf00bf; stroke-width: 1.5; stroke-linecap: square"/>
   </g>
   <g id="line2d_116">
    <path clip-path="url(#pd698250158)" style="fill: none; stroke: #bf00bf; stroke-width: 1.5; stroke-linecap: square"/>
   </g>
   <g id="line2d_117">
    <path d="M 352.000647 293.76 
L 352.000647 289.927604 
L 355.727866 289.927604 
L 355.727866 286.095208 
L 357.614032 286.095208 
L 357.614032 282.262812 
L 358.206391 282.262812 
L 358.206391 278.430416 
L 358.891184 278.430416 
L 358.891184 274.59802 
L 359.856132 274.59802 
L 359.856132 270.765624 
L 360.63392 270.765624 
L 360.63392 266.933228 
L 360.956816 266.933228 
L 360.956816 263.100832 
L 361.966541 263.100832 
L 361.966541 259.268436 
L 362.220612 259.268436 
L 362.220612 255.43604 
L 363.279954 255.43604 
L 363.279954 251.603644 
L 363.321135 251.603644 
L 363.321135 247.771248 
L 363.456753 247.771248 
L 363.456753 243.938851 
L 365.300297 243.938851 
L 365.300297 240.106455 
L 366.37217 240.106455 
L 366.37217 236.274059 
L 366.467961 236.274059 
L 366.467961 232.441663 
L 366.525334 232.441663 
L 366.525334 228.609267 
L 368.752776 228.609267 
L 368.752776 224.776871 
L 369.984016 224.776871 
L 369.984016 220.944475 
L 370.240851 220.944475 
L 370.240851 217.112079 
L 371.249788 217.112079 
L 371.249788 213.279683 
L 371.437865 213.279683 
L 371.437865 209.447287 
L 371.689632 209.447287 
L 371.689632 205.614891 
L 372.406243 205.614891 
L 372.406243 201.782495 
L 373.389319 201.782495 
L 373.389319 197.950099 
L 373.568343 197.950099 
L 373.568343 194.117703 
L 373.678643 194.117703 
L 373.678643 190.285307 
L 374.414313 190.285307 
L 374.414313 186.452911 
L 376.812126 186.452911 
L 376.812126 182.620515 
L 377.962984 182.620515 
L 377.962984 178.788119 
L 378.334083 178.788119 
L 378.334083 174.955723 
L 378.702027 174.955723 
L 378.702027 171.123327 
L 378.762568 171.123327 
L 378.762568 167.290931 
L 379.854923 167.290931 
L 379.854923 163.458535 
L 380.53773 163.458535 
L 380.53773 159.626139 
L 380.639918 159.626139 
L 380.639918 155.793743 
L 380.881995 155.793743 
L 380.881995 151.961347 
L 381.446142 151.961347 
L 381.446142 148.12895 
L 382.293415 148.12895 
L 382.293415 144.296554 
L 382.579228 144.296554 
L 382.579228 140.464158 
L 383.39446 140.464158 
L 383.39446 136.631762 
L 383.544331 136.631762 
L 383.544331 132.799366 
L 383.696256 132.799366 
L 383.696256 128.96697 
L 384.283464 128.96697 
L 384.283464 125.134574 
L 384.977755 125.134574 
L 384.977755 121.302178 
L 386.802846 121.302178 
L 386.802846 117.469782 
L 394.888437 117.469782 
L 394.888437 113.637386 
L 404.389046 113.637386 
L 404.389046 109.80499 
L 406.059838 109.80499 
L 406.059838 105.972594 
L 407.243956 105.972594 
L 407.243956 102.140198 
L 418.532725 102.140198 
L 418.532725 98.307802 
L 425.657544 98.307802 
L 425.657544 94.475406 
L 442.924008 94.475406 
L 442.924008 90.64301 
L 442.924008 90.64301 
L 442.924008 90.64301 
L 460.8 90.64301 
" clip-path="url(#pd698250158)" style="fill: none; stroke: #ff0000; stroke-width: 3; stroke-linecap: square"/>
   </g>
   <g id="line2d_118">
    <path clip-path="url(#pd698250158)" style="fill: none; stroke: #ff0000; stroke-width: 3; stroke-linecap: square"/>
   </g>
   <g id="line2d_119">
    <path d="M 460.8 293.76 
L 460.8 3.456 
" clip-path="url(#pd698250158)" style="fill: none; stroke: #000000; stroke-width: 1.5; stroke-linecap: square"/>
   </g>
   <g id="patch_3">
    <path d="M 62.208 293.76 
L 62.208 3.456 
" style="fill: none; stroke: #000000; stroke-width: 0.8; stroke-linejoin: miter; stroke-linecap: square"/>
   </g>
   <g id="patch_4">
    <path d="M 460.8 293.76 
L 460.8 3.456 
" style="fill: none; stroke: #000000; stroke-width: 0.8; stroke-linejoin: miter; stroke-linecap: square"/>
   </g>
   <g id="patch_5">
    <path d="M 62.208 293.76 
L 460.8 293.76 
" style="fill: none; stroke: #000000; stroke-width: 0.8; stroke-linejoin: miter; stroke-linecap: square"/>
   </g>
   <g id="patch_6">
    <path d="M 62.208 3.456 
L 460.8 3.456 
" style="fill: none; stroke: #000000; stroke-width: 0.8; stroke-linejoin: miter; stroke-linecap: square"/>
   </g>
   <g id="text_11">
    <!-- {f10-f14}, 10-D -->
    <g transform="translate(182.2915 24.458955) scale(0.2 -0.2)">
     <defs>
      <path id="DejaVuSans-7b" d="M 3272 -594 
L 3272 -1044 
L 3078 -1044 
Q 2300 -1044 2036 -812 
Q 1772 -581 1772 109 
L 1772 856 
Q 1772 1328 1603 1509 
Q 1434 1691 991 1691 
L 800 1691 
L 800 2138 
L 991 2138 
Q 1438 2138 1605 2317 
Q 1772 2497 1772 2963 
L 1772 3713 
Q 1772 4403 2036 4633 
Q 2300 4863 3078 4863 
L 3272 4863 
L 3272 4416 
L 3059 4416 
Q 2619 4416 2484 4278 
Q 2350 4141 2350 3700 
L 2350 2925 
Q 2350 2434 2208 2212 
Q 2066 1991 1722 1913 
Q 2069 1828 2209 1606 
Q 2350 1384 2350 897 
L 2350 122 
Q 2350 -319 2484 -456 
Q 2619 -594 3059 -594 
L 3272 -594 
z
" transform="scale(0.015625)"/>
      <path id="DejaVuSans-2d" d="M 313 2009 
L 1997 2009 
L 1997 1497 
L 313 1497 
L 313 2009 
z
" transform="scale(0.015625)"/>
      <path id="DejaVuSans-7d" d="M 800 -594 
L 1019 -594 
Q 1456 -594 1589 -459 
Q 1722 -325 1722 122 
L 1722 897 
Q 1722 1384 1862 1606 
Q 2003 1828 2350 1913 
Q 2003 1991 1862 2212 
Q 1722 2434 1722 2925 
L 1722 3700 
Q 1722 4144 1589 4280 
Q 1456 4416 1019 4416 
L 800 4416 
L 800 4863 
L 997 4863 
Q 1775 4863 2036 4633 
Q 2297 4403 2297 3713 
L 2297 2963 
Q 2297 2497 2465 2317 
Q 2634 2138 3078 2138 
L 3272 2138 
L 3272 1691 
L 3078 1691 
Q 2634 1691 2465 1509 
Q 2297 1328 2297 856 
L 2297 109 
Q 2297 -581 2036 -812 
Q 1775 -1044 997 -1044 
L 800 -1044 
L 800 -594 
z
" transform="scale(0.015625)"/>
      <path id="DejaVuSans-2c" d="M 750 794 
L 1409 794 
L 1409 256 
L 897 -744 
L 494 -744 
L 750 256 
L 750 794 
z
" transform="scale(0.015625)"/>
     </defs>
     <use xlink:href="#DejaVuSans-7b"/>
     <use xlink:href="#DejaVuSans-66" x="63.623047"/>
     <use xlink:href="#DejaVuSans-31" x="98.828125"/>
     <use xlink:href="#DejaVuSans-30" x="162.451172"/>
     <use xlink:href="#DejaVuSans-2d" x="226.074219"/>
     <use xlink:href="#DejaVuSans-66" x="262.158203"/>
     <use xlink:href="#DejaVuSans-31" x="297.363281"/>
     <use xlink:href="#DejaVuSans-34" x="360.986328"/>
     <use xlink:href="#DejaVuSans-7d" x="424.609375"/>
     <use xlink:href="#DejaVuSans-2c" x="488.232422"/>
     <use xlink:href="#DejaVuSans-20" x="520.019531"/>
     <use xlink:href="#DejaVuSans-31" x="551.806641"/>
     <use xlink:href="#DejaVuSans-30" x="615.429688"/>
     <use xlink:href="#DejaVuSans-2d" x="679.052734"/>
     <use xlink:href="#DejaVuSans-44" x="715.136719"/>
    </g>
   </g>
   <g id="text_12">
    <!-- absolute targets -->
    <g transform="translate(62.208 609.932673) scale(0.14 -0.14)">
     <defs>
      <path id="DejaVuSans-62" d="M 3116 1747 
Q 3116 2381 2855 2742 
Q 2594 3103 2138 3103 
Q 1681 3103 1420 2742 
Q 1159 2381 1159 1747 
Q 1159 1113 1420 752 
Q 1681 391 2138 391 
Q 2594 391 2855 752 
Q 3116 1113 3116 1747 
z
M 1159 2969 
Q 1341 3281 1617 3432 
Q 1894 3584 2278 3584 
Q 2916 3584 3314 3078 
Q 3713 2572 3713 1747 
Q 3713 922 3314 415 
Q 2916 -91 2278 -91 
Q 1894 -91 1617 61 
Q 1341 213 1159 525 
L 1159 0 
L 581 0 
L 581 4863 
L 1159 4863 
L 1159 2969 
z
" transform="scale(0.015625)"/>
      <path id="DejaVuSans-75" d="M 544 1381 
L 544 3500 
L 1119 3500 
L 1119 1403 
Q 1119 906 1312 657 
Q 1506 409 1894 409 
Q 2359 409 2629 706 
Q 2900 1003 2900 1516 
L 2900 3500 
L 3475 3500 
L 3475 0 
L 2900 0 
L 2900 538 
Q 2691 219 2414 64 
Q 2138 -91 1772 -91 
Q 1169 -91 856 284 
Q 544 659 544 1381 
z
M 1991 3584 
L 1991 3584 
z
" transform="scale(0.015625)"/>
      <path id="DejaVuSans-65" d="M 3597 1894 
L 3597 1613 
L 953 1613 
Q 991 1019 1311 708 
Q 1631 397 2203 397 
Q 2534 397 2845 478 
Q 3156 559 3463 722 
L 3463 178 
Q 3153 47 2828 -22 
Q 2503 -91 2169 -91 
Q 1331 -91 842 396 
Q 353 884 353 1716 
Q 353 2575 817 3079 
Q 1281 3584 2069 3584 
Q 2775 3584 3186 3129 
Q 3597 2675 3597 1894 
z
M 3022 2063 
Q 3016 2534 2758 2815 
Q 2500 3097 2075 3097 
Q 1594 3097 1305 2825 
Q 1016 2553 972 2059 
L 3022 2063 
z
" transform="scale(0.015625)"/>
     </defs>
     <use xlink:href="#DejaVuSans-61"/>
     <use xlink:href="#DejaVuSans-62" x="61.279297"/>
     <use xlink:href="#DejaVuSans-73" x="124.755859"/>
     <use xlink:href="#DejaVuSans-6f" x="176.855469"/>
     <use xlink:href="#DejaVuSans-6c" x="238.037109"/>
     <use xlink:href="#DejaVuSans-75" x="265.820312"/>
     <use xlink:href="#DejaVuSans-74" x="329.199219"/>
     <use xlink:href="#DejaVuSans-65" x="368.408203"/>
     <use xlink:href="#DejaVuSans-20" x="429.931641"/>
     <use xlink:href="#DejaVuSans-74" x="461.71875"/>
     <use xlink:href="#DejaVuSans-61" x="500.927734"/>
     <use xlink:href="#DejaVuSans-72" x="562.207031"/>
     <use xlink:href="#DejaVuSans-67" x="601.570312"/>
     <use xlink:href="#DejaVuSans-65" x="665.046875"/>
     <use xlink:href="#DejaVuSans-74" x="726.570312"/>
     <use xlink:href="#DejaVuSans-73" x="765.779297"/>
    </g>
   </g>
   <g id="text_13">
    <!-- v2.6.4 -->
    <g style="fill: #808080" transform="translate(245.82275 288.777272) scale(0.1 -0.1)">
     <use xlink:href="#DejaVuSans-76"/>
     <use xlink:href="#DejaVuSans-32" x="59.179688"/>
     <use xlink:href="#DejaVuSans-2e" x="122.802734"/>
     <use xlink:href="#DejaVuSans-36" x="154.589844"/>
     <use xlink:href="#DejaVuSans-2e" x="218.212891"/>
     <use xlink:href="#DejaVuSans-34" x="250"/>
    </g>
   </g>
   <g id="legend_1">
    <g id="patch_7">
     <path d="M 76.208 136.881 
L 205.429875 136.881 
Q 209.429875 136.881 209.429875 132.881 
L 209.429875 17.456 
Q 209.429875 13.456 205.429875 13.456 
L 76.208 13.456 
Q 72.208 13.456 72.208 17.456 
L 72.208 132.881 
Q 72.208 136.881 76.208 136.881 
z
" style="fill: #ffffff; opacity: 0.2; stroke: #cccccc; stroke-linejoin: miter"/>
    </g>
    <g id="line2d_120">
     <path d="M 80.208 29.652875 
L 80.208 29.652875 
L 100.208 29.652875 
L 100.208 29.652875 
L 120.208 29.652875 
" style="fill: none; stroke: #000000; stroke-width: 1.5; stroke-linecap: square"/>
    </g>
    <g id="text_14">
     <!-- 1: 5/5 -->
     <g transform="translate(136.208 36.652875) scale(0.2 -0.2)">
      <defs>
       <path id="DejaVuSans-3a" d="M 750 794 
L 1409 794 
L 1409 0 
L 750 0 
L 750 794 
z
M 750 3309 
L 1409 3309 
L 1409 2516 
L 750 2516 
L 750 3309 
z
" transform="scale(0.015625)"/>
       <path id="DejaVuSans-35" d="M 691 4666 
L 3169 4666 
L 3169 4134 
L 1269 4134 
L 1269 2991 
Q 1406 3038 1543 3061 
Q 1681 3084 1819 3084 
Q 2600 3084 3056 2656 
Q 3513 2228 3513 1497 
Q 3513 744 3044 326 
Q 2575 -91 1722 -91 
Q 1428 -91 1123 -41 
Q 819 9 494 109 
L 494 744 
Q 775 591 1075 516 
Q 1375 441 1709 441 
Q 2250 441 2565 725 
Q 2881 1009 2881 1497 
Q 2881 1984 2565 2268 
Q 2250 2553 1709 2553 
Q 1456 2553 1204 2497 
Q 953 2441 691 2322 
L 691 4666 
z
" transform="scale(0.015625)"/>
      </defs>
      <use xlink:href="#DejaVuSans-31"/>
      <use xlink:href="#DejaVuSans-3a" x="63.623047"/>
      <use xlink:href="#DejaVuSans-20" x="97.314453"/>
      <use xlink:href="#DejaVuSans-35" x="129.101562"/>
      <use xlink:href="#DejaVuSans-2f" x="192.724609"/>
      <use xlink:href="#DejaVuSans-35" x="226.416016"/>
     </g>
    </g>
    <g id="line2d_121">
     <path d="M 80.208 59.009125 
L 80.208 59.009125 
L 100.208 59.009125 
L 100.208 59.009125 
L 120.208 59.009125 
" style="fill: none; stroke: #00bfbf; stroke-width: 1.5; stroke-linecap: square"/>
    </g>
    <g id="text_15">
     <!-- -1: 5/5 -->
     <g transform="translate(136.208 66.009125) scale(0.2 -0.2)">
      <use xlink:href="#DejaVuSans-2d"/>
      <use xlink:href="#DejaVuSans-31" x="36.083984"/>
      <use xlink:href="#DejaVuSans-3a" x="99.707031"/>
      <use xlink:href="#DejaVuSans-20" x="133.398438"/>
      <use xlink:href="#DejaVuSans-35" x="165.185547"/>
      <use xlink:href="#DejaVuSans-2f" x="228.808594"/>
      <use xlink:href="#DejaVuSans-35" x="262.5"/>
     </g>
    </g>
    <g id="line2d_122">
     <path d="M 80.208 88.365375 
L 80.208 88.365375 
L 100.208 88.365375 
L 100.208 88.365375 
L 120.208 88.365375 
" style="fill: none; stroke: #bf00bf; stroke-width: 1.5; stroke-linecap: square"/>
    </g>
    <g id="text_16">
     <!-- -4: 4/5 -->
     <g transform="translate(136.208 95.365375) scale(0.2 -0.2)">
      <use xlink:href="#DejaVuSans-2d"/>
      <use xlink:href="#DejaVuSans-34" x="36.083984"/>
      <use xlink:href="#DejaVuSans-3a" x="99.707031"/>
      <use xlink:href="#DejaVuSans-20" x="133.398438"/>
      <use xlink:href="#DejaVuSans-34" x="165.185547"/>
      <use xlink:href="#DejaVuSans-2f" x="228.808594"/>
      <use xlink:href="#DejaVuSans-35" x="262.5"/>
     </g>
    </g>
    <g id="line2d_123">
     <path d="M 80.208 117.721625 
L 80.208 117.721625 
L 100.208 117.721625 
L 100.208 117.721625 
L 120.208 117.721625 
" style="fill: none; stroke: #ff0000; stroke-width: 3; stroke-linecap: square"/>
    </g>
    <g id="text_17">
     <!-- -8: 4/5 -->
     <g transform="translate(136.208 124.721625) scale(0.2 -0.2)">
      <use xlink:href="#DejaVuSans-2d"/>
      <use xlink:href="#DejaVuSans-38" x="36.083984"/>
      <use xlink:href="#DejaVuSans-3a" x="99.707031"/>
      <use xlink:href="#DejaVuSans-20" x="133.398438"/>
      <use xlink:href="#DejaVuSans-34" x="165.185547"/>
      <use xlink:href="#DejaVuSans-2f" x="228.808594"/>
      <use xlink:href="#DejaVuSans-35" x="262.5"/>
     </g>
    </g>
   </g>
  </g>
 </g>
 <defs>
  <clipPath id="pd698250158">
   <rect x="62.208" y="3.456" width="398.592" height="290.304"/>
  </clipPath>
 </defs>
</svg>
