<?xml version="1.0" encoding="utf-8" standalone="no"?>
<!DOCTYPE svg PUBLIC "-//W3C//DTD SVG 1.1//EN"
  "http://www.w3.org/Graphics/SVG/1.1/DTD/svg11.dtd">
<svg xmlns:xlink="http://www.w3.org/1999/xlink" width="460.8pt" height="345.6pt" viewBox="0 0 460.8 345.6" xmlns="http://www.w3.org/2000/svg" version="1.1">
 <metadata>
  <rdf:RDF xmlns:dc="http://purl.org/dc/elements/1.1/" xmlns:cc="http://creativecommons.org/ns#" xmlns:rdf="http://www.w3.org/1999/02/22-rdf-syntax-ns#">
   <cc:Work>
    <dc:type rdf:resource="http://purl.org/dc/dcmitype/StillImage"/>
    <dc:date>2024-10-15T13:01:45.159096</dc:date>
    <dc:format>image/svg+xml</dc:format>
    <dc:creator>
     <cc:Agent>
      <dc:title>Matplotlib v3.9.2, https://matplotlib.org/</dc:title>
     </cc:Agent>
    </dc:creator>
   </cc:Work>
  </rdf:RDF>
 </metadata>
 <defs>
  <style type="text/css">*{stroke-linejoin: round; stroke-linecap: butt}</style>
 </defs>
 <g id="figure_1">
  <g id="patch_1">
   <path d="M 0 345.6 
L 460.8 345.6 
L 460.8 0 
L 0 0 
z
" style="fill: #ffffff"/>
  </g>
  <g id="axes_1">
   <g id="patch_2">
    <path d="M 62.208 293.76 
L 460.8 293.76 
L 460.8 3.456 
L 62.208 3.456 
z
" style="fill: #ffffff"/>
   </g>
   <g id="line2d_1">
    <path d="M 265.492399 293.76 
L 265.492399 274.59802 
L 265.492399 274.59802 
L 265.492399 255.43604 
L 265.492399 255.43604 
L 265.492399 236.274059 
L 265.492399 236.274059 
L 265.492399 217.112079 
L 265.492399 217.112079 
L 265.492399 197.950099 
L 265.492399 197.950099 
L 265.492399 178.788119 
L 265.492399 178.788119 
L 265.492399 159.626139 
L 265.492399 159.626139 
L 265.492399 140.464158 
L 265.492399 140.464158 
L 265.492399 121.302178 
L 265.492399 121.302178 
L 265.492399 102.140198 
L 265.492399 102.140198 
L 265.492399 82.978218 
L 265.492399 82.978218 
L 265.492399 63.816238 
L 265.492399 63.816238 
L 265.492399 44.654257 
L 265.492399 44.654257 
L 265.492399 25.492277 
L 265.492399 25.492277 
L 265.492399 6.330297 
L 265.492399 6.330297 
L 265.492399 6.330297 
L 460.8 6.330297 
" clip-path="url(#p0b2532c50a)" style="fill: none; stroke: #f5deb3; stroke-width: 1.5; stroke-linecap: square"/>
   </g>
   <g id="line2d_2">
    <path clip-path="url(#p0b2532c50a)" style="fill: none; stroke: #f5deb3; stroke-width: 1.5; stroke-linecap: square"/>
   </g>
   <g id="line2d_3">
    <path d="M 173.47744 293.76 
L 173.47744 274.59802 
L 173.47744 274.59802 
L 173.47744 255.43604 
L 173.47744 255.43604 
L 173.47744 236.274059 
L 173.47744 236.274059 
L 173.47744 217.112079 
L 173.47744 217.112079 
L 173.47744 197.950099 
L 173.47744 197.950099 
L 173.47744 178.788119 
L 173.47744 178.788119 
L 173.47744 159.626139 
L 173.47744 159.626139 
L 173.47744 140.464158 
L 173.47744 140.464158 
L 173.47744 121.302178 
L 174.344093 121.302178 
L 174.344093 102.140198 
L 176.039805 102.140198 
L 176.039805 82.978218 
L 176.039805 82.978218 
L 176.039805 63.816238 
L 176.039805 63.816238 
L 176.039805 44.654257 
L 176.869577 44.654257 
L 176.869577 25.492277 
L 176.869577 25.492277 
L 176.869577 6.330297 
L 176.869577 6.330297 
L 176.869577 6.330297 
L 460.8 6.330297 
" clip-path="url(#p0b2532c50a)" style="fill: none; stroke: #f5deb3; stroke-width: 1.5; stroke-linecap: square"/>
   </g>
   <g id="line2d_4">
    <path d="M 314.537855 293.76 
L 314.537855 274.59802 
L 315.39299 274.59802 
L 315.39299 255.43604 
L 319.057319 255.43604 
L 319.057319 236.274059 
L 319.274381 236.274059 
L 319.274381 217.112079 
L 319.49064 217.112079 
L 319.49064 197.950099 
L 320.347768 197.950099 
L 320.347768 178.788119 
L 320.560102 178.788119 
L 320.560102 159.626139 
L 320.912289 159.626139 
L 320.912289 140.464158 
L 321.887278 140.464158 
L 321.887278 121.302178 
L 322.025245 121.302178 
L 322.025245 102.140198 
L 323.319953 102.140198 
L 323.319953 82.978218 
L 325.177187 82.978218 
L 325.177187 63.816238 
L 326.723479 63.816238 
L 326.723479 44.654257 
L 326.850511 44.654257 
L 326.850511 25.492277 
L 326.913923 25.492277 
L 326.913923 6.330297 
L 326.913923 6.330297 
L 326.913923 6.330297 
L 460.8 6.330297 
" clip-path="url(#p0b2532c50a)" style="fill: none; stroke: #f5deb3; stroke-width: 1.5; stroke-linecap: square"/>
   </g>
   <g id="line2d_5">
    <path clip-path="url(#p0b2532c50a)" style="fill: none; stroke: #f5deb3; stroke-width: 1.5; stroke-linecap: square"/>
   </g>
   <g id="line2d_6"/>
   <g id="line2d_7">
    <path d="M 352.769298 293.76 
L 352.769298 274.59802 
L 353.296493 274.59802 
L 353.296493 255.43604 
L 358.248385 255.43604 
L 358.248385 236.274059 
L 358.470529 236.274059 
L 358.470529 217.112079 
L 358.618158 217.112079 
L 358.618158 197.950099 
L 358.728636 197.950099 
L 358.728636 178.788119 
L 359.241458 178.788119 
L 359.241458 159.626139 
L 360.468481 159.626139 
L 360.468481 140.464158 
L 360.646774 140.464158 
L 360.646774 121.302178 
L 361.178417 121.302178 
L 361.178417 102.140198 
L 362.019121 102.140198 
L 362.019121 82.978218 
L 362.365879 82.978218 
L 362.365879 63.816238 
L 362.813614 63.816238 
L 362.813614 44.654257 
L 365.757529 44.654257 
L 365.757529 25.492277 
L 366.08288 25.492277 
L 366.08288 6.330297 
L 366.08288 6.330297 
L 366.08288 6.330297 
L 460.8 6.330297 
" clip-path="url(#p0b2532c50a)" style="fill: none; stroke: #f5deb3; stroke-width: 1.5; stroke-linecap: square"/>
   </g>
   <g id="line2d_8">
    <path clip-path="url(#p0b2532c50a)" style="fill: none; stroke: #f5deb3; stroke-width: 1.5; stroke-linecap: square"/>
   </g>
   <g id="line2d_9">
    <path d="M 348.634339 293.76 
L 348.634339 274.59802 
L 349.888688 274.59802 
L 349.888688 255.43604 
L 350.822637 255.43604 
L 350.822637 236.274059 
L 352.196185 236.274059 
L 352.196185 217.112079 
L 352.728547 217.112079 
L 352.728547 197.950099 
L 353.134785 197.950099 
L 353.134785 178.788119 
L 353.37718 178.788119 
L 353.37718 159.626139 
L 354.33684 159.626139 
L 354.33684 140.464158 
L 354.416106 140.464158 
L 354.416106 121.302178 
L 354.65326 121.302178 
L 354.65326 102.140198 
L 355.16382 102.140198 
L 355.16382 82.978218 
L 355.16382 82.978218 
L 355.16382 63.816238 
L 355.47581 63.816238 
L 355.47581 44.654257 
L 360.71794 44.654257 
L 360.71794 25.492277 
L 361.037117 25.492277 
L 361.037117 6.330297 
L 361.037117 6.330297 
L 361.037117 6.330297 
L 460.8 6.330297 
" clip-path="url(#p0b2532c50a)" style="fill: none; stroke: #f5deb3; stroke-width: 1.5; stroke-linecap: square"/>
   </g>
   <g id="line2d_10">
    <path clip-path="url(#p0b2532c50a)" style="fill: none; stroke: #f5deb3; stroke-width: 1.5; stroke-linecap: square"/>
   </g>
   <g id="line2d_11">
    <path d="M 300.537052 293.76 
L 300.537052 274.59802 
L 303.637008 274.59802 
L 303.637008 255.43604 
L 304.013202 255.43604 
L 304.013202 236.274059 
L 306.13059 236.274059 
L 306.13059 217.112079 
L 308.78201 217.112079 
L 308.78201 197.950099 
L 309.469219 197.950099 
L 309.469219 178.788119 
L 309.979379 178.788119 
L 309.979379 159.626139 
L 311.069695 159.626139 
L 311.069695 140.464158 
L 313.907991 140.464158 
L 313.907991 121.302178 
L 315.315765 121.302178 
L 315.315765 102.140198 
L 316.007147 102.140198 
L 316.007147 82.978218 
L 317.365871 82.978218 
L 317.365871 63.816238 
L 318.83945 63.816238 
L 318.83945 44.654257 
L 320.48941 44.654257 
L 320.48941 25.492277 
L 326.596171 25.492277 
L 326.596171 6.330297 
L 326.596171 6.330297 
L 326.596171 6.330297 
L 460.8 6.330297 
" clip-path="url(#p0b2532c50a)" style="fill: none; stroke: #f5deb3; stroke-width: 1.5; stroke-linecap: square"/>
   </g>
   <g id="line2d_12">
    <path d="M 110.931498 293.76 
L 110.931498 274.59802 
L 110.931498 274.59802 
L 110.931498 255.43604 
L 110.931498 255.43604 
L 110.931498 236.274059 
L 110.931498 236.274059 
L 110.931498 217.112079 
L 110.931498 217.112079 
L 110.931498 197.950099 
L 110.931498 197.950099 
L 110.931498 178.788119 
L 110.931498 178.788119 
L 110.931498 159.626139 
L 110.931498 159.626139 
L 110.931498 140.464158 
L 110.931498 140.464158 
L 110.931498 121.302178 
L 110.931498 121.302178 
L 110.931498 102.140198 
L 110.931498 102.140198 
L 110.931498 82.978218 
L 110.931498 82.978218 
L 110.931498 63.816238 
L 110.931498 63.816238 
L 110.931498 44.654257 
L 110.931498 44.654257 
L 110.931498 25.492277 
L 110.931498 25.492277 
L 110.931498 6.330297 
L 110.931498 6.330297 
L 110.931498 6.330297 
L 460.8 6.330297 
" clip-path="url(#p0b2532c50a)" style="fill: none; stroke: #f5deb3; stroke-width: 1.5; stroke-linecap: square"/>
   </g>
   <g id="line2d_13">
    <path d="M 456.493992 293.76 
L 456.493992 274.59802 
L 461.8 274.59802 
" clip-path="url(#p0b2532c50a)" style="fill: none; stroke: #f5deb3; stroke-width: 1.5; stroke-linecap: square"/>
   </g>
   <g id="line2d_14">
    <path d="M 270.68794 293.76 
L 270.68794 274.59802 
L 270.853422 274.59802 
L 270.853422 255.43604 
L 274.224609 255.43604 
L 274.224609 236.274059 
L 275.153167 236.274059 
L 275.153167 217.112079 
L 275.45944 217.112079 
L 275.45944 197.950099 
L 275.764118 197.950099 
L 275.764118 178.788119 
L 276.21818 178.788119 
L 276.21818 159.626139 
L 279.444449 159.626139 
L 279.444449 140.464158 
L 279.729112 140.464158 
L 279.729112 121.302178 
L 279.870925 121.302178 
L 279.870925 102.140198 
L 280.434765 102.140198 
L 280.434765 82.978218 
L 283.308928 82.978218 
L 283.308928 63.816238 
L 283.442333 63.816238 
L 283.442333 44.654257 
L 284.236435 44.654257 
L 284.236435 25.492277 
L 285.149466 25.492277 
L 285.149466 6.330297 
L 285.149466 6.330297 
L 285.149466 6.330297 
L 460.8 6.330297 
" clip-path="url(#p0b2532c50a)" style="fill: none; stroke: #f5deb3; stroke-width: 1.5; stroke-linecap: square"/>
   </g>
   <g id="line2d_15">
    <path clip-path="url(#p0b2532c50a)" style="fill: none; stroke: #f5deb3; stroke-width: 1.5; stroke-linecap: square"/>
   </g>
   <g id="line2d_16">
    <path d="M 415.089233 293.76 
L 415.089233 274.59802 
L 417.965415 274.59802 
L 417.965415 255.43604 
L 420.322939 255.43604 
L 420.322939 236.274059 
L 420.39991 236.274059 
L 420.39991 217.112079 
L 420.566334 217.112079 
L 420.566334 197.950099 
L 421.705694 197.950099 
L 421.705694 178.788119 
L 422.884753 178.788119 
L 422.884753 159.626139 
L 424.508455 159.626139 
L 424.508455 140.464158 
L 425.644604 140.464158 
L 425.644604 121.302178 
L 426.563287 121.302178 
L 426.563287 102.140198 
L 427.251506 102.140198 
L 427.251506 82.978218 
L 428.100548 82.978218 
L 428.100548 63.816238 
L 428.403212 63.816238 
L 428.403212 44.654257 
L 429.301918 44.654257 
L 429.301918 25.492277 
L 431.272243 25.492277 
L 431.272243 6.330297 
L 431.272243 6.330297 
L 431.272243 6.330297 
L 460.8 6.330297 
" clip-path="url(#p0b2532c50a)" style="fill: none; stroke: #f5deb3; stroke-width: 1.5; stroke-linecap: square"/>
   </g>
   <g id="line2d_17">
    <path clip-path="url(#p0b2532c50a)" style="fill: none; stroke: #f5deb3; stroke-width: 1.5; stroke-linecap: square"/>
   </g>
   <g id="line2d_18">
    <path d="M 108.33116 293.76 
L 108.33116 274.59802 
L 108.33116 274.59802 
L 108.33116 255.43604 
L 108.33116 255.43604 
L 108.33116 236.274059 
L 108.33116 236.274059 
L 108.33116 217.112079 
L 108.33116 217.112079 
L 108.33116 197.950099 
L 108.33116 197.950099 
L 108.33116 178.788119 
L 110.931498 178.788119 
L 110.931498 159.626139 
L 110.931498 159.626139 
L 110.931498 140.464158 
L 110.931498 140.464158 
L 110.931498 121.302178 
L 113.421149 121.302178 
L 113.421149 102.140198 
L 113.421149 102.140198 
L 113.421149 82.978218 
L 113.421149 82.978218 
L 113.421149 63.816238 
L 113.421149 63.816238 
L 113.421149 44.654257 
L 113.421149 44.654257 
L 113.421149 25.492277 
L 118.103486 25.492277 
L 118.103486 6.330297 
L 118.103486 6.330297 
L 118.103486 6.330297 
L 460.8 6.330297 
" clip-path="url(#p0b2532c50a)" style="fill: none; stroke: #f5deb3; stroke-width: 1.5; stroke-linecap: square"/>
   </g>
   <g id="line2d_19">
    <path clip-path="url(#p0b2532c50a)" style="fill: none; stroke: #f5deb3; stroke-width: 1.5; stroke-linecap: square"/>
   </g>
   <g id="line2d_20">
    <path d="M 293.796022 293.76 
L 293.796022 274.59802 
L 301.327577 274.59802 
L 301.327577 255.43604 
L 302.204333 255.43604 
L 302.204333 236.274059 
L 312.627547 236.274059 
L 312.627547 217.112079 
L 313.670033 217.112079 
L 313.670033 197.950099 
L 314.066094 197.950099 
L 314.066094 178.788119 
L 315.777593 178.788119 
L 315.777593 159.626139 
L 321.192519 159.626139 
L 321.192519 140.464158 
L 324.718377 140.464158 
L 324.718377 121.302178 
L 327.73209 121.302178 
L 327.73209 102.140198 
L 329.698594 102.140198 
L 329.698594 82.978218 
L 332.356708 82.978218 
L 332.356708 63.816238 
L 333.045603 63.816238 
L 333.045603 44.654257 
L 335.722812 44.654257 
L 335.722812 25.492277 
L 345.721161 25.492277 
L 345.721161 6.330297 
L 345.721161 6.330297 
L 345.721161 6.330297 
L 460.8 6.330297 
" clip-path="url(#p0b2532c50a)" style="fill: none; stroke: #f5deb3; stroke-width: 1.5; stroke-linecap: square"/>
   </g>
   <g id="line2d_21">
    <path d="M 406.776407 293.76 
L 406.776407 274.59802 
L 406.792587 274.59802 
L 406.792587 255.43604 
L 406.808762 255.43604 
L 406.808762 236.274059 
L 406.808762 236.274059 
L 406.808762 217.112079 
L 406.808762 217.112079 
L 406.808762 197.950099 
L 406.808762 197.950099 
L 406.808762 178.788119 
L 406.808762 178.788119 
L 406.808762 159.626139 
L 406.808762 159.626139 
L 406.808762 140.464158 
L 406.824933 140.464158 
L 406.824933 121.302178 
L 406.824933 121.302178 
L 406.824933 102.140198 
L 406.824933 102.140198 
L 406.824933 82.978218 
L 406.824933 82.978218 
L 406.824933 63.816238 
L 406.824933 63.816238 
L 406.824933 44.654257 
L 406.824933 44.654257 
L 406.824933 25.492277 
L 406.824933 25.492277 
L 406.824933 6.330297 
L 406.824933 6.330297 
L 406.824933 6.330297 
L 460.8 6.330297 
" clip-path="url(#p0b2532c50a)" style="fill: none; stroke: #f5deb3; stroke-width: 1.5; stroke-linecap: square"/>
   </g>
   <g id="line2d_22">
    <path d="M 302.010631 293.76 
L 302.010631 274.59802 
L 304.386992 274.59802 
L 304.386992 255.43604 
L 309.554555 255.43604 
L 309.554555 236.274059 
L 311.730696 236.274059 
L 311.730696 217.112079 
L 313.510855 217.112079 
L 313.510855 197.950099 
L 315.39299 197.950099 
L 315.39299 178.788119 
L 316.916461 178.788119 
L 316.916461 159.626139 
L 318.693751 159.626139 
L 318.693751 140.464158 
L 319.562549 140.464158 
L 319.562549 121.302178 
L 320.842021 121.302178 
L 320.842021 102.140198 
L 321.748984 102.140198 
L 321.748984 82.978218 
L 323.588909 82.978218 
L 323.588909 63.816238 
L 326.084151 63.816238 
L 326.084151 44.654257 
L 330.954092 44.654257 
L 330.954092 25.492277 
L 331.366674 25.492277 
L 331.366674 6.330297 
L 331.366674 6.330297 
L 331.366674 6.330297 
L 460.8 6.330297 
" clip-path="url(#p0b2532c50a)" style="fill: none; stroke: #f5deb3; stroke-width: 1.5; stroke-linecap: square"/>
   </g>
   <g id="line2d_23">
    <path clip-path="url(#p0b2532c50a)" style="fill: none; stroke: #f5deb3; stroke-width: 1.5; stroke-linecap: square"/>
   </g>
   <g id="line2d_24">
    <path d="M 428.915281 293.76 
L 428.915281 274.59802 
L 429.784378 274.59802 
L 429.784378 255.43604 
L 430.468319 255.43604 
L 430.468319 236.274059 
L 431.6225 236.274059 
L 431.6225 217.112079 
L 433.126816 217.112079 
L 433.126816 197.950099 
L 434.240319 197.950099 
L 434.240319 178.788119 
L 434.613529 178.788119 
L 434.613529 159.626139 
L 435.163938 159.626139 
L 435.163938 140.464158 
L 435.263458 140.464158 
L 435.263458 121.302178 
L 436.415437 121.302178 
L 436.415437 102.140198 
L 436.910568 102.140198 
L 436.910568 82.978218 
L 439.353072 82.978218 
L 439.353072 63.816238 
L 444.020428 63.816238 
L 444.020428 44.654257 
L 444.293744 44.654257 
L 444.293744 25.492277 
L 454.517259 25.492277 
L 454.517259 6.330297 
L 454.517259 6.330297 
L 454.517259 6.330297 
L 460.8 6.330297 
" clip-path="url(#p0b2532c50a)" style="fill: none; stroke: #f5deb3; stroke-width: 1.5; stroke-linecap: square"/>
   </g>
   <g id="line2d_25">
    <path clip-path="url(#p0b2532c50a)" style="fill: none; stroke: #f5deb3; stroke-width: 1.5; stroke-linecap: square"/>
   </g>
   <g id="line2d_26">
    <path d="M 410.354228 293.76 
L 410.354228 274.59802 
L 410.445489 274.59802 
L 410.445489 255.43604 
L 411.2455 255.43604 
L 411.2455 236.274059 
L 411.72328 236.274059 
L 411.72328 217.112079 
L 411.931089 217.112079 
L 411.931089 197.950099 
L 412.167684 197.950099 
L 412.167684 178.788119 
L 419.404341 178.788119 
L 419.404341 159.626139 
L 419.846033 159.626139 
L 419.846033 140.464158 
L 421.429226 140.464158 
L 421.429226 121.302178 
L 421.71823 121.302178 
L 421.71823 102.140198 
L 422.267159 102.140198 
L 422.267159 82.978218 
L 422.316807 82.978218 
L 422.316807 63.816238 
L 422.40359 63.816238 
L 422.40359 44.654257 
L 422.872465 44.654257 
L 422.872465 25.492277 
L 422.958428 25.492277 
L 422.958428 6.330297 
L 422.958428 6.330297 
L 422.958428 6.330297 
L 460.8 6.330297 
" clip-path="url(#p0b2532c50a)" style="fill: none; stroke: #f5deb3; stroke-width: 1.5; stroke-linecap: square"/>
   </g>
   <g id="line2d_27">
    <path d="M 332.587242 293.76 
L 332.587242 274.59802 
L 333.159634 274.59802 
L 333.159634 255.43604 
L 333.557001 255.43604 
L 333.557001 236.274059 
L 334.063968 236.274059 
L 334.063968 217.112079 
L 334.455261 217.112079 
L 334.455261 197.950099 
L 335.722812 197.950099 
L 335.722812 178.788119 
L 335.777305 178.788119 
L 335.777305 159.626139 
L 337.282851 159.626139 
L 337.282851 140.464158 
L 338.126079 140.464158 
L 338.126079 121.302178 
L 338.17838 121.302178 
L 338.17838 102.140198 
L 338.543179 102.140198 
L 338.543179 82.978218 
L 339.419763 82.978218 
L 339.419763 63.816238 
L 339.92933 63.816238 
L 339.92933 44.654257 
L 341.580088 44.654257 
L 341.580088 25.492277 
L 344.043016 25.492277 
L 344.043016 6.330297 
L 344.043016 6.330297 
L 344.043016 6.330297 
L 460.8 6.330297 
" clip-path="url(#p0b2532c50a)" style="fill: none; stroke: #f5deb3; stroke-width: 1.5; stroke-linecap: square"/>
   </g>
   <g id="line2d_28">
    <path d="M 401.05189 293.76 
L 401.05189 274.59802 
L 401.389978 274.59802 
L 401.389978 255.43604 
L 401.937435 255.43604 
L 401.937435 236.274059 
L 402.305403 236.274059 
L 402.305403 217.112079 
L 402.982692 217.112079 
L 402.982692 197.950099 
L 403.890718 197.950099 
L 403.890718 178.788119 
L 404.868517 178.788119 
L 404.868517 159.626139 
L 405.01879 159.626139 
L 405.01879 140.464158 
L 405.649055 140.464158 
L 405.649055 121.302178 
L 406.174587 121.302178 
L 406.174587 102.140198 
L 406.500664 102.140198 
L 406.500664 82.978218 
L 406.598134 82.978218 
L 406.598134 63.816238 
L 408.151765 63.816238 
L 408.151765 44.654257 
L 409.557283 44.654257 
L 409.557283 25.492277 
L 412.211939 25.492277 
L 412.211939 6.330297 
L 412.211939 6.330297 
L 412.211939 6.330297 
L 460.8 6.330297 
" clip-path="url(#p0b2532c50a)" style="fill: none; stroke: #f5deb3; stroke-width: 1.5; stroke-linecap: square"/>
   </g>
   <g id="line2d_29">
    <path d="M 128.392733 293.76 
L 128.392733 274.59802 
L 128.392733 274.59802 
L 128.392733 255.43604 
L 128.392733 255.43604 
L 128.392733 236.274059 
L 132.050048 236.274059 
L 132.050048 217.112079 
L 132.050048 217.112079 
L 132.050048 197.950099 
L 132.050048 197.950099 
L 132.050048 178.788119 
L 138.742822 178.788119 
L 138.742822 159.626139 
L 138.742822 159.626139 
L 138.742822 140.464158 
L 138.742822 140.464158 
L 138.742822 121.302178 
L 205.080358 121.302178 
L 205.080358 102.140198 
L 205.080358 102.140198 
L 205.080358 82.978218 
L 205.080358 82.978218 
L 205.080358 63.816238 
L 207.080484 63.816238 
L 207.080484 44.654257 
L 207.080484 44.654257 
L 207.080484 25.492277 
L 207.080484 25.492277 
L 207.080484 6.330297 
L 207.080484 6.330297 
L 207.080484 6.330297 
L 460.8 6.330297 
" clip-path="url(#p0b2532c50a)" style="fill: none; stroke: #f5deb3; stroke-width: 1.5; stroke-linecap: square"/>
   </g>
   <g id="line2d_30">
    <path d="M 208.055473 293.76 
L 208.055473 274.59802 
L 222.162965 274.59802 
L 222.162965 255.43604 
L 227.252954 255.43604 
L 227.252954 236.274059 
L 230.635282 236.274059 
L 230.635282 217.112079 
L 233.520699 217.112079 
L 233.520699 197.950099 
L 233.832689 197.950099 
L 233.832689 178.788119 
L 234.758797 178.788119 
L 234.758797 159.626139 
L 235.368157 159.626139 
L 235.368157 140.464158 
L 236.568157 140.464158 
L 236.568157 121.302178 
L 236.568157 121.302178 
L 236.568157 102.140198 
L 239.181405 102.140198 
L 239.181405 82.978218 
L 242.761221 82.978218 
L 242.761221 63.816238 
L 244.081773 63.816238 
L 244.081773 44.654257 
L 244.081773 44.654257 
L 244.081773 25.492277 
L 245.117163 25.492277 
L 245.117163 6.330297 
L 245.117163 6.330297 
L 245.117163 6.330297 
L 460.8 6.330297 
" clip-path="url(#p0b2532c50a)" style="fill: none; stroke: #f5deb3; stroke-width: 1.5; stroke-linecap: square"/>
   </g>
   <g id="matplotlib.axis_1">
    <g id="xtick_1">
     <g id="line2d_31">
      <path d="M 62.208 293.76 
L 62.208 3.456 
" clip-path="url(#p0b2532c50a)" style="fill: none; stroke: #b0b0b0; stroke-width: 0.8; stroke-linecap: square"/>
     </g>
     <g id="line2d_32">
      <defs>
       <path id="md7e33d43a2" d="M 0 0 
L 0 3.5 
" style="stroke: #000000; stroke-width: 0.8"/>
      </defs>
      <g>
       <use xlink:href="#md7e33d43a2" x="62.208" y="293.76" style="stroke: #000000; stroke-width: 0.8"/>
      </g>
     </g>
     <g id="text_1">
      <!-- 0 -->
      <g transform="translate(55.8455 315.956875) scale(0.2 -0.2)">
       <defs>
        <path id="DejaVuSans-30" d="M 2034 4250 
Q 1547 4250 1301 3770 
Q 1056 3291 1056 2328 
Q 1056 1369 1301 889 
Q 1547 409 2034 409 
Q 2525 409 2770 889 
Q 3016 1369 3016 2328 
Q 3016 3291 2770 3770 
Q 2525 4250 2034 4250 
z
M 2034 4750 
Q 2819 4750 3233 4129 
Q 3647 3509 3647 2328 
Q 3647 1150 3233 529 
Q 2819 -91 2034 -91 
Q 1250 -91 836 529 
Q 422 1150 422 2328 
Q 422 3509 836 4129 
Q 1250 4750 2034 4750 
z
" transform="scale(0.015625)"/>
       </defs>
       <use xlink:href="#DejaVuSans-30"/>
      </g>
     </g>
    </g>
    <g id="xtick_2">
     <g id="line2d_33">
      <path d="M 196.904567 293.76 
L 196.904567 3.456 
" clip-path="url(#p0b2532c50a)" style="fill: none; stroke: #b0b0b0; stroke-width: 0.8; stroke-linecap: square"/>
     </g>
     <g id="line2d_34">
      <g>
       <use xlink:href="#md7e33d43a2" x="196.904567" y="293.76" style="stroke: #000000; stroke-width: 0.8"/>
      </g>
     </g>
     <g id="text_2">
      <!-- 1 -->
      <g transform="translate(190.542067 315.956875) scale(0.2 -0.2)">
       <defs>
        <path id="DejaVuSans-31" d="M 794 531 
L 1825 531 
L 1825 4091 
L 703 3866 
L 703 4441 
L 1819 4666 
L 2450 4666 
L 2450 531 
L 3481 531 
L 3481 0 
L 794 0 
L 794 531 
z
" transform="scale(0.015625)"/>
       </defs>
       <use xlink:href="#DejaVuSans-31"/>
      </g>
     </g>
    </g>
    <g id="xtick_3">
     <g id="line2d_35">
      <path d="M 331.601135 293.76 
L 331.601135 3.456 
" clip-path="url(#p0b2532c50a)" style="fill: none; stroke: #b0b0b0; stroke-width: 0.8; stroke-linecap: square"/>
     </g>
     <g id="line2d_36">
      <g>
       <use xlink:href="#md7e33d43a2" x="331.601135" y="293.76" style="stroke: #000000; stroke-width: 0.8"/>
      </g>
     </g>
     <g id="text_3">
      <!-- 2 -->
      <g transform="translate(325.238635 315.956875) scale(0.2 -0.2)">
       <defs>
        <path id="DejaVuSans-32" d="M 1228 531 
L 3431 531 
L 3431 0 
L 469 0 
L 469 531 
Q 828 903 1448 1529 
Q 2069 2156 2228 2338 
Q 2531 2678 2651 2914 
Q 2772 3150 2772 3378 
Q 2772 3750 2511 3984 
Q 2250 4219 1831 4219 
Q 1534 4219 1204 4116 
Q 875 4013 500 3803 
L 500 4441 
Q 881 4594 1212 4672 
Q 1544 4750 1819 4750 
Q 2544 4750 2975 4387 
Q 3406 4025 3406 3419 
Q 3406 3131 3298 2873 
Q 3191 2616 2906 2266 
Q 2828 2175 2409 1742 
Q 1991 1309 1228 531 
z
" transform="scale(0.015625)"/>
       </defs>
       <use xlink:href="#DejaVuSans-32"/>
      </g>
     </g>
    </g>
    <g id="xtick_4">
     <g id="line2d_37">
      <path d="M 102.755707 293.76 
L 102.755707 3.456 
" clip-path="url(#p0b2532c50a)" style="fill: none; stroke: #b0b0b0; stroke-width: 0.8; stroke-linecap: square"/>
     </g>
     <g id="line2d_38">
      <defs>
       <path id="ma21a0d1c7d" d="M 0 0 
L 0 2 
" style="stroke: #000000; stroke-width: 0.6"/>
      </defs>
      <g>
       <use xlink:href="#ma21a0d1c7d" x="102.755707" y="293.76" style="stroke: #000000; stroke-width: 0.6"/>
      </g>
     </g>
    </g>
    <g id="xtick_5">
     <g id="line2d_39">
      <path d="M 126.474595 293.76 
L 126.474595 3.456 
" clip-path="url(#p0b2532c50a)" style="fill: none; stroke: #b0b0b0; stroke-width: 0.8; stroke-linecap: square"/>
     </g>
     <g id="line2d_40">
      <g>
       <use xlink:href="#ma21a0d1c7d" x="126.474595" y="293.76" style="stroke: #000000; stroke-width: 0.6"/>
      </g>
     </g>
    </g>
    <g id="xtick_6">
     <g id="line2d_41">
      <path d="M 143.303414 293.76 
L 143.303414 3.456 
" clip-path="url(#p0b2532c50a)" style="fill: none; stroke: #b0b0b0; stroke-width: 0.8; stroke-linecap: square"/>
     </g>
     <g id="line2d_42">
      <g>
       <use xlink:href="#ma21a0d1c7d" x="143.303414" y="293.76" style="stroke: #000000; stroke-width: 0.6"/>
      </g>
     </g>
    </g>
    <g id="xtick_7">
     <g id="line2d_43">
      <path d="M 156.35686 293.76 
L 156.35686 3.456 
" clip-path="url(#p0b2532c50a)" style="fill: none; stroke: #b0b0b0; stroke-width: 0.8; stroke-linecap: square"/>
     </g>
     <g id="line2d_44">
      <g>
       <use xlink:href="#ma21a0d1c7d" x="156.35686" y="293.76" style="stroke: #000000; stroke-width: 0.6"/>
      </g>
     </g>
    </g>
    <g id="xtick_8">
     <g id="line2d_45">
      <path d="M 167.022302 293.76 
L 167.022302 3.456 
" clip-path="url(#p0b2532c50a)" style="fill: none; stroke: #b0b0b0; stroke-width: 0.8; stroke-linecap: square"/>
     </g>
     <g id="line2d_46">
      <g>
       <use xlink:href="#ma21a0d1c7d" x="167.022302" y="293.76" style="stroke: #000000; stroke-width: 0.6"/>
      </g>
     </g>
    </g>
    <g id="xtick_9">
     <g id="line2d_47">
      <path d="M 176.039805 293.76 
L 176.039805 3.456 
" clip-path="url(#p0b2532c50a)" style="fill: none; stroke: #b0b0b0; stroke-width: 0.8; stroke-linecap: square"/>
     </g>
     <g id="line2d_48">
      <g>
       <use xlink:href="#ma21a0d1c7d" x="176.039805" y="293.76" style="stroke: #000000; stroke-width: 0.6"/>
      </g>
     </g>
    </g>
    <g id="xtick_10">
     <g id="line2d_49">
      <path d="M 183.851121 293.76 
L 183.851121 3.456 
" clip-path="url(#p0b2532c50a)" style="fill: none; stroke: #b0b0b0; stroke-width: 0.8; stroke-linecap: square"/>
     </g>
     <g id="line2d_50">
      <g>
       <use xlink:href="#ma21a0d1c7d" x="183.851121" y="293.76" style="stroke: #000000; stroke-width: 0.6"/>
      </g>
     </g>
    </g>
    <g id="xtick_11">
     <g id="line2d_51">
      <path d="M 190.74119 293.76 
L 190.74119 3.456 
" clip-path="url(#p0b2532c50a)" style="fill: none; stroke: #b0b0b0; stroke-width: 0.8; stroke-linecap: square"/>
     </g>
     <g id="line2d_52">
      <g>
       <use xlink:href="#ma21a0d1c7d" x="190.74119" y="293.76" style="stroke: #000000; stroke-width: 0.6"/>
      </g>
     </g>
    </g>
    <g id="xtick_12">
     <g id="line2d_53">
      <path d="M 237.452274 293.76 
L 237.452274 3.456 
" clip-path="url(#p0b2532c50a)" style="fill: none; stroke: #b0b0b0; stroke-width: 0.8; stroke-linecap: square"/>
     </g>
     <g id="line2d_54">
      <g>
       <use xlink:href="#ma21a0d1c7d" x="237.452274" y="293.76" style="stroke: #000000; stroke-width: 0.6"/>
      </g>
     </g>
    </g>
    <g id="xtick_13">
     <g id="line2d_55">
      <path d="M 261.171163 293.76 
L 261.171163 3.456 
" clip-path="url(#p0b2532c50a)" style="fill: none; stroke: #b0b0b0; stroke-width: 0.8; stroke-linecap: square"/>
     </g>
     <g id="line2d_56">
      <g>
       <use xlink:href="#ma21a0d1c7d" x="261.171163" y="293.76" style="stroke: #000000; stroke-width: 0.6"/>
      </g>
     </g>
    </g>
    <g id="xtick_14">
     <g id="line2d_57">
      <path d="M 277.999981 293.76 
L 277.999981 3.456 
" clip-path="url(#p0b2532c50a)" style="fill: none; stroke: #b0b0b0; stroke-width: 0.8; stroke-linecap: square"/>
     </g>
     <g id="line2d_58">
      <g>
       <use xlink:href="#ma21a0d1c7d" x="277.999981" y="293.76" style="stroke: #000000; stroke-width: 0.6"/>
      </g>
     </g>
    </g>
    <g id="xtick_15">
     <g id="line2d_59">
      <path d="M 291.053428 293.76 
L 291.053428 3.456 
" clip-path="url(#p0b2532c50a)" style="fill: none; stroke: #b0b0b0; stroke-width: 0.8; stroke-linecap: square"/>
     </g>
     <g id="line2d_60">
      <g>
       <use xlink:href="#ma21a0d1c7d" x="291.053428" y="293.76" style="stroke: #000000; stroke-width: 0.6"/>
      </g>
     </g>
    </g>
    <g id="xtick_16">
     <g id="line2d_61">
      <path d="M 301.71887 293.76 
L 301.71887 3.456 
" clip-path="url(#p0b2532c50a)" style="fill: none; stroke: #b0b0b0; stroke-width: 0.8; stroke-linecap: square"/>
     </g>
     <g id="line2d_62">
      <g>
       <use xlink:href="#ma21a0d1c7d" x="301.71887" y="293.76" style="stroke: #000000; stroke-width: 0.6"/>
      </g>
     </g>
    </g>
    <g id="xtick_17">
     <g id="line2d_63">
      <path d="M 310.736372 293.76 
L 310.736372 3.456 
" clip-path="url(#p0b2532c50a)" style="fill: none; stroke: #b0b0b0; stroke-width: 0.8; stroke-linecap: square"/>
     </g>
     <g id="line2d_64">
      <g>
       <use xlink:href="#ma21a0d1c7d" x="310.736372" y="293.76" style="stroke: #000000; stroke-width: 0.6"/>
      </g>
     </g>
    </g>
    <g id="xtick_18">
     <g id="line2d_65">
      <path d="M 318.547689 293.76 
L 318.547689 3.456 
" clip-path="url(#p0b2532c50a)" style="fill: none; stroke: #b0b0b0; stroke-width: 0.8; stroke-linecap: square"/>
     </g>
     <g id="line2d_66">
      <g>
       <use xlink:href="#ma21a0d1c7d" x="318.547689" y="293.76" style="stroke: #000000; stroke-width: 0.6"/>
      </g>
     </g>
    </g>
    <g id="xtick_19">
     <g id="line2d_67">
      <path d="M 325.437758 293.76 
L 325.437758 3.456 
" clip-path="url(#p0b2532c50a)" style="fill: none; stroke: #b0b0b0; stroke-width: 0.8; stroke-linecap: square"/>
     </g>
     <g id="line2d_68">
      <g>
       <use xlink:href="#ma21a0d1c7d" x="325.437758" y="293.76" style="stroke: #000000; stroke-width: 0.6"/>
      </g>
     </g>
    </g>
    <g id="xtick_20">
     <g id="line2d_69">
      <path d="M 372.148842 293.76 
L 372.148842 3.456 
" clip-path="url(#p0b2532c50a)" style="fill: none; stroke: #b0b0b0; stroke-width: 0.8; stroke-linecap: square"/>
     </g>
     <g id="line2d_70">
      <g>
       <use xlink:href="#ma21a0d1c7d" x="372.148842" y="293.76" style="stroke: #000000; stroke-width: 0.6"/>
      </g>
     </g>
    </g>
    <g id="xtick_21">
     <g id="line2d_71">
      <path d="M 395.86773 293.76 
L 395.86773 3.456 
" clip-path="url(#p0b2532c50a)" style="fill: none; stroke: #b0b0b0; stroke-width: 0.8; stroke-linecap: square"/>
     </g>
     <g id="line2d_72">
      <g>
       <use xlink:href="#ma21a0d1c7d" x="395.86773" y="293.76" style="stroke: #000000; stroke-width: 0.6"/>
      </g>
     </g>
    </g>
    <g id="xtick_22">
     <g id="line2d_73">
      <path d="M 412.696549 293.76 
L 412.696549 3.456 
" clip-path="url(#p0b2532c50a)" style="fill: none; stroke: #b0b0b0; stroke-width: 0.8; stroke-linecap: square"/>
     </g>
     <g id="line2d_74">
      <g>
       <use xlink:href="#ma21a0d1c7d" x="412.696549" y="293.76" style="stroke: #000000; stroke-width: 0.6"/>
      </g>
     </g>
    </g>
    <g id="xtick_23">
     <g id="line2d_75">
      <path d="M 425.749995 293.76 
L 425.749995 3.456 
" clip-path="url(#p0b2532c50a)" style="fill: none; stroke: #b0b0b0; stroke-width: 0.8; stroke-linecap: square"/>
     </g>
     <g id="line2d_76">
      <g>
       <use xlink:href="#ma21a0d1c7d" x="425.749995" y="293.76" style="stroke: #000000; stroke-width: 0.6"/>
      </g>
     </g>
    </g>
    <g id="xtick_24">
     <g id="line2d_77">
      <path d="M 436.415437 293.76 
L 436.415437 3.456 
" clip-path="url(#p0b2532c50a)" style="fill: none; stroke: #b0b0b0; stroke-width: 0.8; stroke-linecap: square"/>
     </g>
     <g id="line2d_78">
      <g>
       <use xlink:href="#ma21a0d1c7d" x="436.415437" y="293.76" style="stroke: #000000; stroke-width: 0.6"/>
      </g>
     </g>
    </g>
    <g id="xtick_25">
     <g id="line2d_79">
      <path d="M 445.43294 293.76 
L 445.43294 3.456 
" clip-path="url(#p0b2532c50a)" style="fill: none; stroke: #b0b0b0; stroke-width: 0.8; stroke-linecap: square"/>
     </g>
     <g id="line2d_80">
      <g>
       <use xlink:href="#ma21a0d1c7d" x="445.43294" y="293.76" style="stroke: #000000; stroke-width: 0.6"/>
      </g>
     </g>
    </g>
    <g id="xtick_26">
     <g id="line2d_81">
      <path d="M 453.244256 293.76 
L 453.244256 3.456 
" clip-path="url(#p0b2532c50a)" style="fill: none; stroke: #b0b0b0; stroke-width: 0.8; stroke-linecap: square"/>
     </g>
     <g id="line2d_82">
      <g>
       <use xlink:href="#ma21a0d1c7d" x="453.244256" y="293.76" style="stroke: #000000; stroke-width: 0.6"/>
      </g>
     </g>
    </g>
    <g id="xtick_27">
     <g id="line2d_83">
      <path d="M 460.134325 293.76 
L 460.134325 3.456 
" clip-path="url(#p0b2532c50a)" style="fill: none; stroke: #b0b0b0; stroke-width: 0.8; stroke-linecap: square"/>
     </g>
     <g id="line2d_84">
      <g>
       <use xlink:href="#ma21a0d1c7d" x="460.134325" y="293.76" style="stroke: #000000; stroke-width: 0.6"/>
      </g>
     </g>
    </g>
    <g id="text_4">
     <!-- log10 of FEvals / DIM -->
     <g transform="translate(156.430563 339.313125) scale(0.2 -0.2)">
      <defs>
       <path id="DejaVuSans-6c" d="M 603 4863 
L 1178 4863 
L 1178 0 
L 603 0 
L 603 4863 
z
" transform="scale(0.015625)"/>
       <path id="DejaVuSans-6f" d="M 1959 3097 
Q 1497 3097 1228 2736 
Q 959 2375 959 1747 
Q 959 1119 1226 758 
Q 1494 397 1959 397 
Q 2419 397 2687 759 
Q 2956 1122 2956 1747 
Q 2956 2369 2687 2733 
Q 2419 3097 1959 3097 
z
M 1959 3584 
Q 2709 3584 3137 3096 
Q 3566 2609 3566 1747 
Q 3566 888 3137 398 
Q 2709 -91 1959 -91 
Q 1206 -91 779 398 
Q 353 888 353 1747 
Q 353 2609 779 3096 
Q 1206 3584 1959 3584 
z
" transform="scale(0.015625)"/>
       <path id="DejaVuSans-67" d="M 2906 1791 
Q 2906 2416 2648 2759 
Q 2391 3103 1925 3103 
Q 1463 3103 1205 2759 
Q 947 2416 947 1791 
Q 947 1169 1205 825 
Q 1463 481 1925 481 
Q 2391 481 2648 825 
Q 2906 1169 2906 1791 
z
M 3481 434 
Q 3481 -459 3084 -895 
Q 2688 -1331 1869 -1331 
Q 1566 -1331 1297 -1286 
Q 1028 -1241 775 -1147 
L 775 -588 
Q 1028 -725 1275 -790 
Q 1522 -856 1778 -856 
Q 2344 -856 2625 -561 
Q 2906 -266 2906 331 
L 2906 616 
Q 2728 306 2450 153 
Q 2172 0 1784 0 
Q 1141 0 747 490 
Q 353 981 353 1791 
Q 353 2603 747 3093 
Q 1141 3584 1784 3584 
Q 2172 3584 2450 3431 
Q 2728 3278 2906 2969 
L 2906 3500 
L 3481 3500 
L 3481 434 
z
" transform="scale(0.015625)"/>
       <path id="DejaVuSans-20" transform="scale(0.015625)"/>
       <path id="DejaVuSans-66" d="M 2375 4863 
L 2375 4384 
L 1825 4384 
Q 1516 4384 1395 4259 
Q 1275 4134 1275 3809 
L 1275 3500 
L 2222 3500 
L 2222 3053 
L 1275 3053 
L 1275 0 
L 697 0 
L 697 3053 
L 147 3053 
L 147 3500 
L 697 3500 
L 697 3744 
Q 697 4328 969 4595 
Q 1241 4863 1831 4863 
L 2375 4863 
z
" transform="scale(0.015625)"/>
       <path id="DejaVuSans-46" d="M 628 4666 
L 3309 4666 
L 3309 4134 
L 1259 4134 
L 1259 2759 
L 3109 2759 
L 3109 2228 
L 1259 2228 
L 1259 0 
L 628 0 
L 628 4666 
z
" transform="scale(0.015625)"/>
       <path id="DejaVuSans-45" d="M 628 4666 
L 3578 4666 
L 3578 4134 
L 1259 4134 
L 1259 2753 
L 3481 2753 
L 3481 2222 
L 1259 2222 
L 1259 531 
L 3634 531 
L 3634 0 
L 628 0 
L 628 4666 
z
" transform="scale(0.015625)"/>
       <path id="DejaVuSans-76" d="M 191 3500 
L 800 3500 
L 1894 563 
L 2988 3500 
L 3597 3500 
L 2284 0 
L 1503 0 
L 191 3500 
z
" transform="scale(0.015625)"/>
       <path id="DejaVuSans-61" d="M 2194 1759 
Q 1497 1759 1228 1600 
Q 959 1441 959 1056 
Q 959 750 1161 570 
Q 1363 391 1709 391 
Q 2188 391 2477 730 
Q 2766 1069 2766 1631 
L 2766 1759 
L 2194 1759 
z
M 3341 1997 
L 3341 0 
L 2766 0 
L 2766 531 
Q 2569 213 2275 61 
Q 1981 -91 1556 -91 
Q 1019 -91 701 211 
Q 384 513 384 1019 
Q 384 1609 779 1909 
Q 1175 2209 1959 2209 
L 2766 2209 
L 2766 2266 
Q 2766 2663 2505 2880 
Q 2244 3097 1772 3097 
Q 1472 3097 1187 3025 
Q 903 2953 641 2809 
L 641 3341 
Q 956 3463 1253 3523 
Q 1550 3584 1831 3584 
Q 2591 3584 2966 3190 
Q 3341 2797 3341 1997 
z
" transform="scale(0.015625)"/>
       <path id="DejaVuSans-73" d="M 2834 3397 
L 2834 2853 
Q 2591 2978 2328 3040 
Q 2066 3103 1784 3103 
Q 1356 3103 1142 2972 
Q 928 2841 928 2578 
Q 928 2378 1081 2264 
Q 1234 2150 1697 2047 
L 1894 2003 
Q 2506 1872 2764 1633 
Q 3022 1394 3022 966 
Q 3022 478 2636 193 
Q 2250 -91 1575 -91 
Q 1294 -91 989 -36 
Q 684 19 347 128 
L 347 722 
Q 666 556 975 473 
Q 1284 391 1588 391 
Q 1994 391 2212 530 
Q 2431 669 2431 922 
Q 2431 1156 2273 1281 
Q 2116 1406 1581 1522 
L 1381 1569 
Q 847 1681 609 1914 
Q 372 2147 372 2553 
Q 372 3047 722 3315 
Q 1072 3584 1716 3584 
Q 2034 3584 2315 3537 
Q 2597 3491 2834 3397 
z
" transform="scale(0.015625)"/>
       <path id="DejaVuSans-2f" d="M 1625 4666 
L 2156 4666 
L 531 -594 
L 0 -594 
L 1625 4666 
z
" transform="scale(0.015625)"/>
       <path id="DejaVuSans-44" d="M 1259 4147 
L 1259 519 
L 2022 519 
Q 2988 519 3436 956 
Q 3884 1394 3884 2338 
Q 3884 3275 3436 3711 
Q 2988 4147 2022 4147 
L 1259 4147 
z
M 628 4666 
L 1925 4666 
Q 3281 4666 3915 4102 
Q 4550 3538 4550 2338 
Q 4550 1131 3912 565 
Q 3275 0 1925 0 
L 628 0 
L 628 4666 
z
" transform="scale(0.015625)"/>
       <path id="DejaVuSans-49" d="M 628 4666 
L 1259 4666 
L 1259 0 
L 628 0 
L 628 4666 
z
" transform="scale(0.015625)"/>
       <path id="DejaVuSans-4d" d="M 628 4666 
L 1569 4666 
L 2759 1491 
L 3956 4666 
L 4897 4666 
L 4897 0 
L 4281 0 
L 4281 4097 
L 3078 897 
L 2444 897 
L 1241 4097 
L 1241 0 
L 628 0 
L 628 4666 
z
" transform="scale(0.015625)"/>
      </defs>
      <use xlink:href="#DejaVuSans-6c"/>
      <use xlink:href="#DejaVuSans-6f" x="27.783203"/>
      <use xlink:href="#DejaVuSans-67" x="88.964844"/>
      <use xlink:href="#DejaVuSans-31" x="152.441406"/>
      <use xlink:href="#DejaVuSans-30" x="216.064453"/>
      <use xlink:href="#DejaVuSans-20" x="279.6875"/>
      <use xlink:href="#DejaVuSans-6f" x="311.474609"/>
      <use xlink:href="#DejaVuSans-66" x="372.65625"/>
      <use xlink:href="#DejaVuSans-20" x="407.861328"/>
      <use xlink:href="#DejaVuSans-46" x="439.648438"/>
      <use xlink:href="#DejaVuSans-45" x="497.167969"/>
      <use xlink:href="#DejaVuSans-76" x="560.351562"/>
      <use xlink:href="#DejaVuSans-61" x="619.53125"/>
      <use xlink:href="#DejaVuSans-6c" x="680.810547"/>
      <use xlink:href="#DejaVuSans-73" x="708.59375"/>
      <use xlink:href="#DejaVuSans-20" x="760.693359"/>
      <use xlink:href="#DejaVuSans-2f" x="792.480469"/>
      <use xlink:href="#DejaVuSans-20" x="826.171875"/>
      <use xlink:href="#DejaVuSans-44" x="857.958984"/>
      <use xlink:href="#DejaVuSans-49" x="934.960938"/>
      <use xlink:href="#DejaVuSans-4d" x="964.453125"/>
     </g>
    </g>
   </g>
   <g id="matplotlib.axis_2">
    <g id="ytick_1">
     <g id="line2d_85">
      <path d="M 62.208 293.76 
L 460.8 293.76 
" clip-path="url(#p0b2532c50a)" style="fill: none; stroke: #b0b0b0; stroke-width: 0.8; stroke-linecap: square"/>
     </g>
     <g id="line2d_86">
      <defs>
       <path id="m2299481f10" d="M 0 0 
L -3.5 0 
" style="stroke: #000000; stroke-width: 0.8"/>
      </defs>
      <g>
       <use xlink:href="#m2299481f10" x="62.208" y="293.76" style="stroke: #000000; stroke-width: 0.8"/>
      </g>
     </g>
     <g id="text_5">
      <!-- 0.0 -->
      <g transform="translate(29.763 299.83875) scale(0.16 -0.16)">
       <defs>
        <path id="DejaVuSans-2e" d="M 684 794 
L 1344 794 
L 1344 0 
L 684 0 
L 684 794 
z
" transform="scale(0.015625)"/>
       </defs>
       <use xlink:href="#DejaVuSans-30"/>
       <use xlink:href="#DejaVuSans-2e" x="63.623047"/>
       <use xlink:href="#DejaVuSans-30" x="95.410156"/>
      </g>
     </g>
    </g>
    <g id="ytick_2">
     <g id="line2d_87">
      <path d="M 62.208 236.274059 
L 460.8 236.274059 
" clip-path="url(#p0b2532c50a)" style="fill: none; stroke: #b0b0b0; stroke-width: 0.8; stroke-linecap: square"/>
     </g>
     <g id="line2d_88">
      <g>
       <use xlink:href="#m2299481f10" x="62.208" y="236.274059" style="stroke: #000000; stroke-width: 0.8"/>
      </g>
     </g>
     <g id="text_6">
      <!-- 0.2 -->
      <g transform="translate(29.763 242.352809) scale(0.16 -0.16)">
       <use xlink:href="#DejaVuSans-30"/>
       <use xlink:href="#DejaVuSans-2e" x="63.623047"/>
       <use xlink:href="#DejaVuSans-32" x="95.410156"/>
      </g>
     </g>
    </g>
    <g id="ytick_3">
     <g id="line2d_89">
      <path d="M 62.208 178.788119 
L 460.8 178.788119 
" clip-path="url(#p0b2532c50a)" style="fill: none; stroke: #b0b0b0; stroke-width: 0.8; stroke-linecap: square"/>
     </g>
     <g id="line2d_90">
      <g>
       <use xlink:href="#m2299481f10" x="62.208" y="178.788119" style="stroke: #000000; stroke-width: 0.8"/>
      </g>
     </g>
     <g id="text_7">
      <!-- 0.4 -->
      <g transform="translate(29.763 184.866869) scale(0.16 -0.16)">
       <defs>
        <path id="DejaVuSans-34" d="M 2419 4116 
L 825 1625 
L 2419 1625 
L 2419 4116 
z
M 2253 4666 
L 3047 4666 
L 3047 1625 
L 3713 1625 
L 3713 1100 
L 3047 1100 
L 3047 0 
L 2419 0 
L 2419 1100 
L 313 1100 
L 313 1709 
L 2253 4666 
z
" transform="scale(0.015625)"/>
       </defs>
       <use xlink:href="#DejaVuSans-30"/>
       <use xlink:href="#DejaVuSans-2e" x="63.623047"/>
       <use xlink:href="#DejaVuSans-34" x="95.410156"/>
      </g>
     </g>
    </g>
    <g id="ytick_4">
     <g id="line2d_91">
      <path d="M 62.208 121.302178 
L 460.8 121.302178 
" clip-path="url(#p0b2532c50a)" style="fill: none; stroke: #b0b0b0; stroke-width: 0.8; stroke-linecap: square"/>
     </g>
     <g id="line2d_92">
      <g>
       <use xlink:href="#m2299481f10" x="62.208" y="121.302178" style="stroke: #000000; stroke-width: 0.8"/>
      </g>
     </g>
     <g id="text_8">
      <!-- 0.6 -->
      <g transform="translate(29.763 127.380928) scale(0.16 -0.16)">
       <defs>
        <path id="DejaVuSans-36" d="M 2113 2584 
Q 1688 2584 1439 2293 
Q 1191 2003 1191 1497 
Q 1191 994 1439 701 
Q 1688 409 2113 409 
Q 2538 409 2786 701 
Q 3034 994 3034 1497 
Q 3034 2003 2786 2293 
Q 2538 2584 2113 2584 
z
M 3366 4563 
L 3366 3988 
Q 3128 4100 2886 4159 
Q 2644 4219 2406 4219 
Q 1781 4219 1451 3797 
Q 1122 3375 1075 2522 
Q 1259 2794 1537 2939 
Q 1816 3084 2150 3084 
Q 2853 3084 3261 2657 
Q 3669 2231 3669 1497 
Q 3669 778 3244 343 
Q 2819 -91 2113 -91 
Q 1303 -91 875 529 
Q 447 1150 447 2328 
Q 447 3434 972 4092 
Q 1497 4750 2381 4750 
Q 2619 4750 2861 4703 
Q 3103 4656 3366 4563 
z
" transform="scale(0.015625)"/>
       </defs>
       <use xlink:href="#DejaVuSans-30"/>
       <use xlink:href="#DejaVuSans-2e" x="63.623047"/>
       <use xlink:href="#DejaVuSans-36" x="95.410156"/>
      </g>
     </g>
    </g>
    <g id="ytick_5">
     <g id="line2d_93">
      <path d="M 62.208 63.816238 
L 460.8 63.816238 
" clip-path="url(#p0b2532c50a)" style="fill: none; stroke: #b0b0b0; stroke-width: 0.8; stroke-linecap: square"/>
     </g>
     <g id="line2d_94">
      <g>
       <use xlink:href="#m2299481f10" x="62.208" y="63.816238" style="stroke: #000000; stroke-width: 0.8"/>
      </g>
     </g>
     <g id="text_9">
      <!-- 0.8 -->
      <g transform="translate(29.763 69.894988) scale(0.16 -0.16)">
       <defs>
        <path id="DejaVuSans-38" d="M 2034 2216 
Q 1584 2216 1326 1975 
Q 1069 1734 1069 1313 
Q 1069 891 1326 650 
Q 1584 409 2034 409 
Q 2484 409 2743 651 
Q 3003 894 3003 1313 
Q 3003 1734 2745 1975 
Q 2488 2216 2034 2216 
z
M 1403 2484 
Q 997 2584 770 2862 
Q 544 3141 544 3541 
Q 544 4100 942 4425 
Q 1341 4750 2034 4750 
Q 2731 4750 3128 4425 
Q 3525 4100 3525 3541 
Q 3525 3141 3298 2862 
Q 3072 2584 2669 2484 
Q 3125 2378 3379 2068 
Q 3634 1759 3634 1313 
Q 3634 634 3220 271 
Q 2806 -91 2034 -91 
Q 1263 -91 848 271 
Q 434 634 434 1313 
Q 434 1759 690 2068 
Q 947 2378 1403 2484 
z
M 1172 3481 
Q 1172 3119 1398 2916 
Q 1625 2713 2034 2713 
Q 2441 2713 2670 2916 
Q 2900 3119 2900 3481 
Q 2900 3844 2670 4047 
Q 2441 4250 2034 4250 
Q 1625 4250 1398 4047 
Q 1172 3844 1172 3481 
z
" transform="scale(0.015625)"/>
       </defs>
       <use xlink:href="#DejaVuSans-30"/>
       <use xlink:href="#DejaVuSans-2e" x="63.623047"/>
       <use xlink:href="#DejaVuSans-38" x="95.410156"/>
      </g>
     </g>
    </g>
    <g id="ytick_6">
     <g id="line2d_95">
      <path d="M 62.208 6.330297 
L 460.8 6.330297 
" clip-path="url(#p0b2532c50a)" style="fill: none; stroke: #b0b0b0; stroke-width: 0.8; stroke-linecap: square"/>
     </g>
     <g id="line2d_96">
      <g>
       <use xlink:href="#m2299481f10" x="62.208" y="6.330297" style="stroke: #000000; stroke-width: 0.8"/>
      </g>
     </g>
     <g id="text_10">
      <!-- 1.0 -->
      <g transform="translate(29.763 12.409047) scale(0.16 -0.16)">
       <use xlink:href="#DejaVuSans-31"/>
       <use xlink:href="#DejaVuSans-2e" x="63.623047"/>
       <use xlink:href="#DejaVuSans-30" x="95.410156"/>
      </g>
     </g>
    </g>
    <g id="text_11">
     <!-- proportion of trials -->
     <g transform="translate(21.603625 241.61425) rotate(-90) scale(0.2 -0.2)">
      <defs>
       <path id="DejaVuSans-70" d="M 1159 525 
L 1159 -1331 
L 581 -1331 
L 581 3500 
L 1159 3500 
L 1159 2969 
Q 1341 3281 1617 3432 
Q 1894 3584 2278 3584 
Q 2916 3584 3314 3078 
Q 3713 2572 3713 1747 
Q 3713 922 3314 415 
Q 2916 -91 2278 -91 
Q 1894 -91 1617 61 
Q 1341 213 1159 525 
z
M 3116 1747 
Q 3116 2381 2855 2742 
Q 2594 3103 2138 3103 
Q 1681 3103 1420 2742 
Q 1159 2381 1159 1747 
Q 1159 1113 1420 752 
Q 1681 391 2138 391 
Q 2594 391 2855 752 
Q 3116 1113 3116 1747 
z
" transform="scale(0.015625)"/>
       <path id="DejaVuSans-72" d="M 2631 2963 
Q 2534 3019 2420 3045 
Q 2306 3072 2169 3072 
Q 1681 3072 1420 2755 
Q 1159 2438 1159 1844 
L 1159 0 
L 581 0 
L 581 3500 
L 1159 3500 
L 1159 2956 
Q 1341 3275 1631 3429 
Q 1922 3584 2338 3584 
Q 2397 3584 2469 3576 
Q 2541 3569 2628 3553 
L 2631 2963 
z
" transform="scale(0.015625)"/>
       <path id="DejaVuSans-74" d="M 1172 4494 
L 1172 3500 
L 2356 3500 
L 2356 3053 
L 1172 3053 
L 1172 1153 
Q 1172 725 1289 603 
Q 1406 481 1766 481 
L 2356 481 
L 2356 0 
L 1766 0 
Q 1100 0 847 248 
Q 594 497 594 1153 
L 594 3053 
L 172 3053 
L 172 3500 
L 594 3500 
L 594 4494 
L 1172 4494 
z
" transform="scale(0.015625)"/>
       <path id="DejaVuSans-69" d="M 603 3500 
L 1178 3500 
L 1178 0 
L 603 0 
L 603 3500 
z
M 603 4863 
L 1178 4863 
L 1178 4134 
L 603 4134 
L 603 4863 
z
" transform="scale(0.015625)"/>
       <path id="DejaVuSans-6e" d="M 3513 2113 
L 3513 0 
L 2938 0 
L 2938 2094 
Q 2938 2591 2744 2837 
Q 2550 3084 2163 3084 
Q 1697 3084 1428 2787 
Q 1159 2491 1159 1978 
L 1159 0 
L 581 0 
L 581 3500 
L 1159 3500 
L 1159 2956 
Q 1366 3272 1645 3428 
Q 1925 3584 2291 3584 
Q 2894 3584 3203 3211 
Q 3513 2838 3513 2113 
z
" transform="scale(0.015625)"/>
      </defs>
      <use xlink:href="#DejaVuSans-70"/>
      <use xlink:href="#DejaVuSans-72" x="63.476562"/>
      <use xlink:href="#DejaVuSans-6f" x="102.339844"/>
      <use xlink:href="#DejaVuSans-70" x="163.521484"/>
      <use xlink:href="#DejaVuSans-6f" x="226.998047"/>
      <use xlink:href="#DejaVuSans-72" x="288.179688"/>
      <use xlink:href="#DejaVuSans-74" x="329.292969"/>
      <use xlink:href="#DejaVuSans-69" x="368.501953"/>
      <use xlink:href="#DejaVuSans-6f" x="396.285156"/>
      <use xlink:href="#DejaVuSans-6e" x="457.466797"/>
      <use xlink:href="#DejaVuSans-20" x="520.845703"/>
      <use xlink:href="#DejaVuSans-6f" x="552.632812"/>
      <use xlink:href="#DejaVuSans-66" x="613.814453"/>
      <use xlink:href="#DejaVuSans-20" x="649.019531"/>
      <use xlink:href="#DejaVuSans-74" x="680.806641"/>
      <use xlink:href="#DejaVuSans-72" x="720.015625"/>
      <use xlink:href="#DejaVuSans-69" x="761.128906"/>
      <use xlink:href="#DejaVuSans-61" x="788.912109"/>
      <use xlink:href="#DejaVuSans-6c" x="850.191406"/>
      <use xlink:href="#DejaVuSans-73" x="877.974609"/>
     </g>
    </g>
   </g>
   <g id="line2d_97">
    <path d="M 157.515274 293.76 
L 157.515274 274.59802 
L 263.2777 274.59802 
L 263.2777 255.43604 
L 271.51071 255.43604 
L 271.51071 236.274059 
L 285.407735 236.274059 
L 285.407735 217.112079 
L 286.048464 217.112079 
L 286.048464 197.950099 
L 287.806046 197.950099 
L 287.806046 178.788119 
L 294.240876 178.788119 
L 294.240876 159.626139 
L 304.480068 159.626139 
L 304.480068 140.464158 
L 306.93871 140.464158 
L 306.93871 121.302178 
L 309.724855 121.302178 
L 309.724855 102.140198 
L 311.069695 102.140198 
L 311.069695 82.978218 
L 311.069695 82.978218 
L 311.069695 63.816238 
L 312.058417 63.816238 
L 312.058417 44.654257 
L 316.159685 44.654257 
L 316.159685 25.492277 
L 329.395652 25.492277 
L 329.395652 6.330297 
L 329.395652 6.330297 
L 329.395652 6.330297 
L 460.8 6.330297 
" clip-path="url(#p0b2532c50a)" style="fill: none; stroke: #000000; stroke-width: 1.5; stroke-linecap: square"/>
   </g>
   <g id="line2d_98">
    <path clip-path="url(#p0b2532c50a)" style="fill: none; stroke: #000000; stroke-width: 1.5; stroke-linecap: square"/>
   </g>
   <g id="line2d_99">
    <path d="M 368.653587 293.76 
L 368.653587 274.59802 
L 372.469699 274.59802 
L 372.469699 255.43604 
L 388.12323 255.43604 
L 388.12323 236.274059 
L 391.011266 236.274059 
L 391.011266 217.112079 
L 393.418759 217.112079 
L 393.418759 197.950099 
L 393.824011 197.950099 
L 393.824011 178.788119 
L 394.085928 178.788119 
L 394.085928 159.626139 
L 396.777093 159.626139 
L 396.777093 140.464158 
L 397.17888 140.464158 
L 397.17888 121.302178 
L 402.340327 121.302178 
L 402.340327 102.140198 
L 403.464159 102.140198 
L 403.464159 82.978218 
L 404.128239 82.978218 
L 404.128239 63.816238 
L 404.482722 63.816238 
L 404.482722 44.654257 
L 406.484403 44.654257 
L 406.484403 25.492277 
L 408.889969 25.492277 
L 408.889969 6.330297 
L 408.889969 6.330297 
L 408.889969 6.330297 
L 460.8 6.330297 
" clip-path="url(#p0b2532c50a)" style="fill: none; stroke: #00bfbf; stroke-width: 1.5; stroke-linecap: square"/>
   </g>
   <g id="line2d_100">
    <path clip-path="url(#p0b2532c50a)" style="fill: none; stroke: #00bfbf; stroke-width: 1.5; stroke-linecap: square"/>
   </g>
   <g id="line2d_101">
    <path d="M 417.198614 293.76 
L 417.198614 274.59802 
L 421.492175 274.59802 
L 421.492175 255.43604 
L 422.724805 255.43604 
L 422.724805 236.274059 
L 424.603982 236.274059 
L 424.603982 217.112079 
L 425.008237 217.112079 
L 425.008237 197.950099 
L 425.13843 197.950099 
L 425.13843 178.788119 
L 425.866874 178.788119 
L 425.866874 159.626139 
L 427.841483 159.626139 
L 427.841483 140.464158 
L 429.356944 140.464158 
L 429.356944 121.302178 
L 429.795297 121.302178 
L 429.795297 102.140198 
L 430.024124 102.140198 
L 430.024124 82.978218 
L 431.399852 82.978218 
L 431.399852 63.816238 
L 432.619261 63.816238 
L 432.619261 44.654257 
L 436.014329 44.654257 
L 436.014329 25.492277 
L 436.987857 25.492277 
L 436.987857 6.330297 
L 436.987857 6.330297 
L 436.987857 6.330297 
L 460.8 6.330297 
" clip-path="url(#p0b2532c50a)" style="fill: none; stroke: #bf00bf; stroke-width: 1.5; stroke-linecap: square"/>
   </g>
   <g id="line2d_102">
    <path clip-path="url(#p0b2532c50a)" style="fill: none; stroke: #bf00bf; stroke-width: 1.5; stroke-linecap: square"/>
   </g>
   <g id="line2d_103">
    <path d="M 440.14509 293.76 
L 440.14509 274.59802 
L 447.089003 274.59802 
L 447.089003 255.43604 
L 447.67904 255.43604 
L 447.67904 236.274059 
L 448.302981 236.274059 
L 448.302981 217.112079 
L 450.596701 217.112079 
L 450.596701 197.950099 
L 451.800702 197.950099 
L 451.800702 178.788119 
L 452.323009 178.788119 
L 452.323009 159.626139 
L 452.52323 159.626139 
L 452.52323 140.464158 
L 452.737522 140.464158 
L 452.737522 121.302178 
L 454.952084 121.302178 
L 454.952084 102.140198 
L 455.672025 102.140198 
L 455.672025 82.978218 
L 455.861124 82.978218 
L 455.861124 63.816238 
L 457.222648 63.816238 
L 457.222648 44.654257 
L 457.834273 44.654257 
L 457.834273 25.492277 
L 460.8 25.492277 
L 460.8 6.330297 
L 460.8 6.330297 
" clip-path="url(#p0b2532c50a)" style="fill: none; stroke: #ff0000; stroke-width: 3; stroke-linecap: square"/>
   </g>
   <g id="line2d_104">
    <path clip-path="url(#p0b2532c50a)" style="fill: none; stroke: #ff0000; stroke-width: 3; stroke-linecap: square"/>
   </g>
   <g id="line2d_105">
    <path d="M 460.8 293.76 
L 460.8 3.456 
" clip-path="url(#p0b2532c50a)" style="fill: none; stroke: #000000; stroke-width: 1.5; stroke-linecap: square"/>
   </g>
   <g id="patch_3">
    <path d="M 62.208 293.76 
L 62.208 3.456 
" style="fill: none; stroke: #000000; stroke-width: 0.8; stroke-linejoin: miter; stroke-linecap: square"/>
   </g>
   <g id="patch_4">
    <path d="M 460.8 293.76 
L 460.8 3.456 
" style="fill: none; stroke: #000000; stroke-width: 0.8; stroke-linejoin: miter; stroke-linecap: square"/>
   </g>
   <g id="patch_5">
    <path d="M 62.208 293.76 
L 460.8 293.76 
" style="fill: none; stroke: #000000; stroke-width: 0.8; stroke-linejoin: miter; stroke-linecap: square"/>
   </g>
   <g id="patch_6">
    <path d="M 62.208 3.456 
L 460.8 3.456 
" style="fill: none; stroke: #000000; stroke-width: 0.8; stroke-linejoin: miter; stroke-linecap: square"/>
   </g>
   <g id="text_12">
    <!-- {f1}, 10-D -->
    <g transform="translate(208.507125 24.458955) scale(0.2 -0.2)">
     <defs>
      <path id="DejaVuSans-7b" d="M 3272 -594 
L 3272 -1044 
L 3078 -1044 
Q 2300 -1044 2036 -812 
Q 1772 -581 1772 109 
L 1772 856 
Q 1772 1328 1603 1509 
Q 1434 1691 991 1691 
L 800 1691 
L 800 2138 
L 991 2138 
Q 1438 2138 1605 2317 
Q 1772 2497 1772 2963 
L 1772 3713 
Q 1772 4403 2036 4633 
Q 2300 4863 3078 4863 
L 3272 4863 
L 3272 4416 
L 3059 4416 
Q 2619 4416 2484 4278 
Q 2350 4141 2350 3700 
L 2350 2925 
Q 2350 2434 2208 2212 
Q 2066 1991 1722 1913 
Q 2069 1828 2209 1606 
Q 2350 1384 2350 897 
L 2350 122 
Q 2350 -319 2484 -456 
Q 2619 -594 3059 -594 
L 3272 -594 
z
" transform="scale(0.015625)"/>
      <path id="DejaVuSans-7d" d="M 800 -594 
L 1019 -594 
Q 1456 -594 1589 -459 
Q 1722 -325 1722 122 
L 1722 897 
Q 1722 1384 1862 1606 
Q 2003 1828 2350 1913 
Q 2003 1991 1862 2212 
Q 1722 2434 1722 2925 
L 1722 3700 
Q 1722 4144 1589 4280 
Q 1456 4416 1019 4416 
L 800 4416 
L 800 4863 
L 997 4863 
Q 1775 4863 2036 4633 
Q 2297 4403 2297 3713 
L 2297 2963 
Q 2297 2497 2465 2317 
Q 2634 2138 3078 2138 
L 3272 2138 
L 3272 1691 
L 3078 1691 
Q 2634 1691 2465 1509 
Q 2297 1328 2297 856 
L 2297 109 
Q 2297 -581 2036 -812 
Q 1775 -1044 997 -1044 
L 800 -1044 
L 800 -594 
z
" transform="scale(0.015625)"/>
      <path id="DejaVuSans-2c" d="M 750 794 
L 1409 794 
L 1409 256 
L 897 -744 
L 494 -744 
L 750 256 
L 750 794 
z
" transform="scale(0.015625)"/>
      <path id="DejaVuSans-2d" d="M 313 2009 
L 1997 2009 
L 1997 1497 
L 313 1497 
L 313 2009 
z
" transform="scale(0.015625)"/>
     </defs>
     <use xlink:href="#DejaVuSans-7b"/>
     <use xlink:href="#DejaVuSans-66" x="63.623047"/>
     <use xlink:href="#DejaVuSans-31" x="98.828125"/>
     <use xlink:href="#DejaVuSans-7d" x="162.451172"/>
     <use xlink:href="#DejaVuSans-2c" x="226.074219"/>
     <use xlink:href="#DejaVuSans-20" x="257.861328"/>
     <use xlink:href="#DejaVuSans-31" x="289.648438"/>
     <use xlink:href="#DejaVuSans-30" x="353.271484"/>
     <use xlink:href="#DejaVuSans-2d" x="416.894531"/>
     <use xlink:href="#DejaVuSans-44" x="452.978516"/>
    </g>
   </g>
   <g id="text_13">
    <!-- absolute targets -->
    <g transform="translate(62.208 609.932673) scale(0.14 -0.14)">
     <defs>
      <path id="DejaVuSans-62" d="M 3116 1747 
Q 3116 2381 2855 2742 
Q 2594 3103 2138 3103 
Q 1681 3103 1420 2742 
Q 1159 2381 1159 1747 
Q 1159 1113 1420 752 
Q 1681 391 2138 391 
Q 2594 391 2855 752 
Q 3116 1113 3116 1747 
z
M 1159 2969 
Q 1341 3281 1617 3432 
Q 1894 3584 2278 3584 
Q 2916 3584 3314 3078 
Q 3713 2572 3713 1747 
Q 3713 922 3314 415 
Q 2916 -91 2278 -91 
Q 1894 -91 1617 61 
Q 1341 213 1159 525 
L 1159 0 
L 581 0 
L 581 4863 
L 1159 4863 
L 1159 2969 
z
" transform="scale(0.015625)"/>
      <path id="DejaVuSans-75" d="M 544 1381 
L 544 3500 
L 1119 3500 
L 1119 1403 
Q 1119 906 1312 657 
Q 1506 409 1894 409 
Q 2359 409 2629 706 
Q 2900 1003 2900 1516 
L 2900 3500 
L 3475 3500 
L 3475 0 
L 2900 0 
L 2900 538 
Q 2691 219 2414 64 
Q 2138 -91 1772 -91 
Q 1169 -91 856 284 
Q 544 659 544 1381 
z
M 1991 3584 
L 1991 3584 
z
" transform="scale(0.015625)"/>
      <path id="DejaVuSans-65" d="M 3597 1894 
L 3597 1613 
L 953 1613 
Q 991 1019 1311 708 
Q 1631 397 2203 397 
Q 2534 397 2845 478 
Q 3156 559 3463 722 
L 3463 178 
Q 3153 47 2828 -22 
Q 2503 -91 2169 -91 
Q 1331 -91 842 396 
Q 353 884 353 1716 
Q 353 2575 817 3079 
Q 1281 3584 2069 3584 
Q 2775 3584 3186 3129 
Q 3597 2675 3597 1894 
z
M 3022 2063 
Q 3016 2534 2758 2815 
Q 2500 3097 2075 3097 
Q 1594 3097 1305 2825 
Q 1016 2553 972 2059 
L 3022 2063 
z
" transform="scale(0.015625)"/>
     </defs>
     <use xlink:href="#DejaVuSans-61"/>
     <use xlink:href="#DejaVuSans-62" x="61.279297"/>
     <use xlink:href="#DejaVuSans-73" x="124.755859"/>
     <use xlink:href="#DejaVuSans-6f" x="176.855469"/>
     <use xlink:href="#DejaVuSans-6c" x="238.037109"/>
     <use xlink:href="#DejaVuSans-75" x="265.820312"/>
     <use xlink:href="#DejaVuSans-74" x="329.199219"/>
     <use xlink:href="#DejaVuSans-65" x="368.408203"/>
     <use xlink:href="#DejaVuSans-20" x="429.931641"/>
     <use xlink:href="#DejaVuSans-74" x="461.71875"/>
     <use xlink:href="#DejaVuSans-61" x="500.927734"/>
     <use xlink:href="#DejaVuSans-72" x="562.207031"/>
     <use xlink:href="#DejaVuSans-67" x="601.570312"/>
     <use xlink:href="#DejaVuSans-65" x="665.046875"/>
     <use xlink:href="#DejaVuSans-74" x="726.570312"/>
     <use xlink:href="#DejaVuSans-73" x="765.779297"/>
    </g>
   </g>
   <g id="text_14">
    <!-- v2.6.4 -->
    <g style="fill: #808080" transform="translate(245.82275 288.777272) scale(0.1 -0.1)">
     <use xlink:href="#DejaVuSans-76"/>
     <use xlink:href="#DejaVuSans-32" x="59.179688"/>
     <use xlink:href="#DejaVuSans-2e" x="122.802734"/>
     <use xlink:href="#DejaVuSans-36" x="154.589844"/>
     <use xlink:href="#DejaVuSans-2e" x="218.212891"/>
     <use xlink:href="#DejaVuSans-34" x="250"/>
    </g>
   </g>
   <g id="text_15">
    <!-- F1 Sphere -->
    <g transform="translate(200.8815 -2.544) scale(0.24 -0.24)">
     <defs>
      <path id="DejaVuSans-53" d="M 3425 4513 
L 3425 3897 
Q 3066 4069 2747 4153 
Q 2428 4238 2131 4238 
Q 1616 4238 1336 4038 
Q 1056 3838 1056 3469 
Q 1056 3159 1242 3001 
Q 1428 2844 1947 2747 
L 2328 2669 
Q 3034 2534 3370 2195 
Q 3706 1856 3706 1288 
Q 3706 609 3251 259 
Q 2797 -91 1919 -91 
Q 1588 -91 1214 -16 
Q 841 59 441 206 
L 441 856 
Q 825 641 1194 531 
Q 1563 422 1919 422 
Q 2459 422 2753 634 
Q 3047 847 3047 1241 
Q 3047 1584 2836 1778 
Q 2625 1972 2144 2069 
L 1759 2144 
Q 1053 2284 737 2584 
Q 422 2884 422 3419 
Q 422 4038 858 4394 
Q 1294 4750 2059 4750 
Q 2388 4750 2728 4690 
Q 3069 4631 3425 4513 
z
" transform="scale(0.015625)"/>
      <path id="DejaVuSans-68" d="M 3513 2113 
L 3513 0 
L 2938 0 
L 2938 2094 
Q 2938 2591 2744 2837 
Q 2550 3084 2163 3084 
Q 1697 3084 1428 2787 
Q 1159 2491 1159 1978 
L 1159 0 
L 581 0 
L 581 4863 
L 1159 4863 
L 1159 2956 
Q 1366 3272 1645 3428 
Q 1925 3584 2291 3584 
Q 2894 3584 3203 3211 
Q 3513 2838 3513 2113 
z
" transform="scale(0.015625)"/>
     </defs>
     <use xlink:href="#DejaVuSans-46"/>
     <use xlink:href="#DejaVuSans-31" x="57.519531"/>
     <use xlink:href="#DejaVuSans-20" x="121.142578"/>
     <use xlink:href="#DejaVuSans-53" x="152.929688"/>
     <use xlink:href="#DejaVuSans-70" x="216.40625"/>
     <use xlink:href="#DejaVuSans-68" x="279.882812"/>
     <use xlink:href="#DejaVuSans-65" x="343.261719"/>
     <use xlink:href="#DejaVuSans-72" x="404.785156"/>
     <use xlink:href="#DejaVuSans-65" x="443.648438"/>
    </g>
   </g>
   <g id="legend_1">
    <g id="patch_7">
     <path d="M 76.208 210.3205 
L 205.429875 210.3205 
Q 209.429875 210.3205 209.429875 206.3205 
L 209.429875 90.8955 
Q 209.429875 86.8955 205.429875 86.8955 
L 76.208 86.8955 
Q 72.208 86.8955 72.208 90.8955 
L 72.208 206.3205 
Q 72.208 210.3205 76.208 210.3205 
z
" style="fill: #ffffff; opacity: 0.2; stroke: #cccccc; stroke-linejoin: miter"/>
    </g>
    <g id="line2d_106">
     <path d="M 80.208 103.092375 
L 80.208 103.092375 
L 100.208 103.092375 
L 100.208 103.092375 
L 120.208 103.092375 
" style="fill: none; stroke: #000000; stroke-width: 1.5; stroke-linecap: square"/>
    </g>
    <g id="text_16">
     <!-- 1: 1/1 -->
     <g transform="translate(136.208 110.092375) scale(0.2 -0.2)">
      <defs>
       <path id="DejaVuSans-3a" d="M 750 794 
L 1409 794 
L 1409 0 
L 750 0 
L 750 794 
z
M 750 3309 
L 1409 3309 
L 1409 2516 
L 750 2516 
L 750 3309 
z
" transform="scale(0.015625)"/>
      </defs>
      <use xlink:href="#DejaVuSans-31"/>
      <use xlink:href="#DejaVuSans-3a" x="63.623047"/>
      <use xlink:href="#DejaVuSans-20" x="97.314453"/>
      <use xlink:href="#DejaVuSans-31" x="129.101562"/>
      <use xlink:href="#DejaVuSans-2f" x="192.724609"/>
      <use xlink:href="#DejaVuSans-31" x="226.416016"/>
     </g>
    </g>
    <g id="line2d_107">
     <path d="M 80.208 132.448625 
L 80.208 132.448625 
L 100.208 132.448625 
L 100.208 132.448625 
L 120.208 132.448625 
" style="fill: none; stroke: #00bfbf; stroke-width: 1.5; stroke-linecap: square"/>
    </g>
    <g id="text_17">
     <!-- -1: 1/1 -->
     <g transform="translate(136.208 139.448625) scale(0.2 -0.2)">
      <use xlink:href="#DejaVuSans-2d"/>
      <use xlink:href="#DejaVuSans-31" x="36.083984"/>
      <use xlink:href="#DejaVuSans-3a" x="99.707031"/>
      <use xlink:href="#DejaVuSans-20" x="133.398438"/>
      <use xlink:href="#DejaVuSans-31" x="165.185547"/>
      <use xlink:href="#DejaVuSans-2f" x="228.808594"/>
      <use xlink:href="#DejaVuSans-31" x="262.5"/>
     </g>
    </g>
    <g id="line2d_108">
     <path d="M 80.208 161.804875 
L 80.208 161.804875 
L 100.208 161.804875 
L 100.208 161.804875 
L 120.208 161.804875 
" style="fill: none; stroke: #bf00bf; stroke-width: 1.5; stroke-linecap: square"/>
    </g>
    <g id="text_18">
     <!-- -4: 1/1 -->
     <g transform="translate(136.208 168.804875) scale(0.2 -0.2)">
      <use xlink:href="#DejaVuSans-2d"/>
      <use xlink:href="#DejaVuSans-34" x="36.083984"/>
      <use xlink:href="#DejaVuSans-3a" x="99.707031"/>
      <use xlink:href="#DejaVuSans-20" x="133.398438"/>
      <use xlink:href="#DejaVuSans-31" x="165.185547"/>
      <use xlink:href="#DejaVuSans-2f" x="228.808594"/>
      <use xlink:href="#DejaVuSans-31" x="262.5"/>
     </g>
    </g>
    <g id="line2d_109">
     <path d="M 80.208 191.161125 
L 80.208 191.161125 
L 100.208 191.161125 
L 100.208 191.161125 
L 120.208 191.161125 
" style="fill: none; stroke: #ff0000; stroke-width: 3; stroke-linecap: square"/>
    </g>
    <g id="text_19">
     <!-- -8: 1/1 -->
     <g transform="translate(136.208 198.161125) scale(0.2 -0.2)">
      <use xlink:href="#DejaVuSans-2d"/>
      <use xlink:href="#DejaVuSans-38" x="36.083984"/>
      <use xlink:href="#DejaVuSans-3a" x="99.707031"/>
      <use xlink:href="#DejaVuSans-20" x="133.398438"/>
      <use xlink:href="#DejaVuSans-31" x="165.185547"/>
      <use xlink:href="#DejaVuSans-2f" x="228.808594"/>
      <use xlink:href="#DejaVuSans-31" x="262.5"/>
     </g>
    </g>
   </g>
  </g>
 </g>
 <defs>
  <clipPath id="p0b2532c50a">
   <rect x="62.208" y="3.456" width="398.592" height="290.304"/>
  </clipPath>
 </defs>
</svg>
